<svg viewBox="0 0 410 510" xmlns="http://www.w3.org/2000/svg" xmlns:xlink="http://www.w3.org/1999/xlink"><filter id="a" height="100%" width="100%" x="0%" y="0%"><feColorMatrix in="SourceGraphic" values="0 0 0 0 1 0 0 0 0 1 0 0 0 0 1 0 0 0 1 0"/></filter><mask id="b"><g filter="url(#a)"><path d="m0 0h410v510h-410z" fill-opacity=".851"/></g></mask><linearGradient id="c" gradientTransform="matrix(-1 0 0 1 391.893 0)" gradientUnits="userSpaceOnUse" x1="186.893" x2="186.893" y1="470.368" y2="39.632"><stop offset="0" stop-color="#fff" stop-opacity="0"/><stop offset=".427" stop-color="#d0b5b3"/><stop offset="1" stop-color="#d0b5b3"/></linearGradient><clipPath id="d"><path d="m0 0h410v510h-410z"/></clipPath><mask id="e"><g filter="url(#a)"><path d="m0 0h410v510h-410z" fill-opacity=".502"/></g></mask><clipPath id="f"><path d="m0 0h410v510h-410z"/></clipPath><mask id="g"><g filter="url(#a)"><path d="m0 0h410v510h-410z" fill-opacity=".502"/></g></mask><clipPath id="h"><path d="m0 0h410v510h-410z"/></clipPath><mask id="i"><g filter="url(#a)"><path d="m0 0h410v510h-410z" fill-opacity=".302"/></g></mask><clipPath id="j"><path d="m0 0h410v510h-410z"/></clipPath><mask id="k"><g filter="url(#a)"><path d="m0 0h410v510h-410z" fill-opacity=".302"/></g></mask><clipPath id="l"><path d="m0 0h410v510h-410z"/></clipPath><mask id="m"><g filter="url(#a)"><path d="m0 0h410v510h-410z" fill-opacity=".302"/></g></mask><clipPath id="n"><path d="m0 0h410v510h-410z"/></clipPath><mask id="o"><g filter="url(#a)"><path d="m0 0h410v510h-410z" fill-opacity=".302"/></g></mask><clipPath id="p"><path d="m0 0h410v510h-410z"/></clipPath><mask id="q"><g filter="url(#a)"><path d="m0 0h410v510h-410z" fill-opacity=".302"/></g></mask><mask id="r"><g filter="url(#a)"><path d="m0 0h410v510h-410z" fill-opacity=".302"/></g></mask><clipPath id="s"><path d="m0 0h410v510h-410z"/></clipPath><mask id="t"><g filter="url(#a)"><path d="m0 0h410v510h-410z" fill-opacity=".302"/></g></mask><clipPath id="u"><path d="m0 0h410v510h-410z"/></clipPath><clipPath id="v"><path d="m0 0h410v510h-410z"/></clipPath><mask id="w"><g filter="url(#a)"><path d="m0 0h410v510h-410z" fill-opacity=".302"/></g></mask><clipPath id="x"><path d="m0 0h410v510h-410z"/></clipPath><mask id="y"><g filter="url(#a)"><path d="m0 0h410v510h-410z" fill-opacity=".302"/></g></mask><clipPath id="z"><path d="m0 0h410v510h-410z"/></clipPath><mask id="A"><g filter="url(#a)"><path d="m0 0h410v510h-410z" fill-opacity=".102"/></g></mask><clipPath id="B"><path d="m0 0h410v510h-410z"/></clipPath><mask id="C"><g filter="url(#a)"><path d="m0 0h410v510h-410z" fill-opacity=".102"/></g></mask><clipPath id="D"><path d="m0 0h410v510h-410z"/></clipPath><mask id="E"><g filter="url(#a)"><path d="m0 0h410v510h-410z" fill-opacity=".102"/></g></mask><clipPath id="F"><path d="m0 0h410v510h-410z"/></clipPath><mask id="G"><g filter="url(#a)"><path d="m0 0h410v510h-410z" fill-opacity=".102"/></g></mask><clipPath id="H"><path d="m0 0h410v510h-410z"/></clipPath><mask id="I"><g filter="url(#a)"><path d="m0 0h410v510h-410z" fill-opacity=".502"/></g></mask><linearGradient id="J" gradientTransform="matrix(-3.13619973 .15645851 -.15645851 -3.13619973 -4856.486531 7140.410747)" gradientUnits="userSpaceOnUse" x1="-1732.357" x2="-1743.664" y1="2174.566" y2="2132.654"><stop offset=".36" stop-color="#0074d1"/><stop offset=".87" stop-color="#00afd1" stop-opacity="0"/></linearGradient><clipPath id="K"><path d="m0 0h410v510h-410z"/></clipPath><g clip-path="url(#d)" mask="url(#b)"><path d="m31.59 243.852c5.32 12.796 9.012 19.289 9.262 33.378v.942c.218 14.09-2.172 24.418 8.57 35.328l9.656 11.07c13.274 10.82 31.813 30.559 45.082 37.989l13.942 5.68 18.757 8.05c17.48 6.191 32.903 13.48 41.63 27.172 8.73 13.687 21.382 25.148 25.09 39.078l7.41 27.84 117.03-5.82 31.852 1.011 20.129-.468s-47.73-99.993-48.898-124.141c-1.172-24.152-10.543-72.04-18.293-106.93-7.758-34.89-5.758-24.402-11.47-38.73-5.718-14.332-9.16-42.88-14.769-54.692-5.62-11.808-12.191-22.609-16.851-35.437-4.66-12.832-7.04-30.371-11.07-41.262-4.028-10.89-7.938-28.86-21.31-23.172-13.128 5.653-16.85 23.73-9.448 49.313a27.47 27.47 0 0 0 -10.903-1.403c-18.539.872-28.808-3.16-38.238-.136l-9.422 3.02s-.418.488-1.078 1.366a23.1 23.1 0 0 0 -6.922 0c-9.988 1.5-28.906-4.128-45.148 3.723-10.578 5.11-23.73 25.777-24.739 33.078-.351 2.52.88 5.672 2.957 8.551-9.25-4.64-8.91-4.59-8.91-4.59s-14.316-6.422-25.078-3.77c-10.762 2.65-23.84 15.72-20.82 26.008 2.09 7.082 1.52 8.043 11.5 15.282 6.629 4.808 15.46 14.441 15.46 14.441s.669-.07 11.712 10.27c11.039 10.347 26.468 28.28 35.277 45.57 2.2 4.32 3.852 7.559 5.102 9.98 3.71 7.32 3.007 10.528 2.71 12.207a200.001 200.001 0 0 0 -2.41 29.262c-14.16.649-26.48-9.558-27.48-11.25-3.012-4.89-2.582-12.351-5.402-17.71-3.098-5.91-6.059-12.071-9.61-17.74-6.469-10.26-17.719-20.71-30.57-21.98-13.48-1.261-18.848 8.29-14.29 19.622zm103.55-72.332a142.973 142.973 0 0 0 -26.402-24.532c.532-.02 1.051-.09 1.563-.218 7.07-1.77 16.379-10.399 16.379-10.399l6.648 2.18s18.352 17 23.57 28.57c8.743 19.39 4.09 22.668 4.09 22.668-4.808 4.563-14.648-4.39-25.847-18.309zm0 0" fill="url(#c)"/></g><g clip-path="url(#f)" mask="url(#e)"><path d="m30.66 235.578c.52-.379.262.871 6.442 3.64 5.437 1.532 9.687 5.704 12.207 10.66.14.134.28.263.41.384a26.323 26.323 0 0 1 2.281 6.976c1.422 7.883-10.059 11.301-10.059 11.301-.77-.828-8.16-21.398-10.34-26.64-.25-.75-.453-1.52-.581-2.297-.032 0-.07-.012-.098-.012-1.063-3.14-.793-3.621-.262-4.012zm0 0" fill="#fff" stroke="#000" stroke-width=".25"/></g><g clip-path="url(#h)" mask="url(#g)"><path d="m238.531 58.48c-1.96-.89-4.68-6.921-4.68-6.921-1.742-2.637 4.458-7.88 9.93-9.25 5.2-1.36 9.828 8.382 10.25 11.832h.028v.578c-.27 2.71-13.18 4.351-15.09 3.781-.098.012-.207-.078-.309-.078" fill="#fff" stroke="#000" stroke-width=".25"/></g><g clip-path="url(#j)" mask="url(#i)"><path d="m92.79 187.75c-1.552 1-3.188 1.86-4.9 2.57 11.38-2.82 20.598-13.96 26.739-23.32-.879.95-1.75 1.89-2.617 2.93-5.063 6.992-11.512 14.14-19.223 17.82zm10.89 2.93c-1.27 1.25-2.461 2.449-3.73 3.691 7.35-5.031 16.179-13.5 19.26-21.871-.73 1.191-1.519 2.281-2.3 3.39-3.101 5.391-8.2 10.75-13.23 14.79zm-15.86-9.032a70.92 70.92 0 0 0 -2.922 3.903c7.211-7.922 16.5-14.09 24.34-21.45-1.398.86-2.758 1.81-4.218 2.797-5.532 4.91-11.79 9.442-17.2 14.75zm-9.46-10.188a117.724 117.724 0 0 0 -2.622 3.58c7.121-6.712 13.703-14.919 22.14-20.13a24.984 24.984 0 0 0 -4.276 2.012c-5.563 4.25-10.301 9.598-15.243 14.539zm-19.97-37.132c-4.37 3.25-8.18 7.703-11.992 11.594-.847 1.18-1.636 2.219-2.289 3.328 5.93-5.672 11.47-13.23 18.98-17.02a22.51 22.51 0 0 0 -4.698 2.098zm0 0"/></g><g clip-path="url(#l)" mask="url(#k)"><path d="m150.922 119.34c9.316-1.762 17.379-7.73 24.488-13.602-5.75 7.012-14.98 13.57-24.488 13.602zm-8.07-7.68c6.578-5.941 14.867-12.21 23.878-13.988-8.48 3.469-15.921 9.387-23.878 13.988zm-2.821-7.808c6.59-5.942 7.54-7.602 16.54-9.383-8.47 3.472-8.622 4.73-16.54 9.383zm32.079-1.821c-4.489 5.348-10.938 11.239-18.2 12.43 6.79-2.95 12.3-8.223 18.2-12.43zm0 0"/></g><g clip-path="url(#n)" mask="url(#m)"><path d="m219.16 108.762-3.34 1.11c6.89-.282 13.5-2.84 18.79-7.27l-3.02 1.328a31.443 31.443 0 0 1 -12.43 4.832zm-5.21-8.453c-.93.722-1.81 1.55-2.65 2.25 5.68-2.73 11.188-7.2 17.528-7.91a14.588 14.588 0 0 0 -3.598 0c-3.921 1.34-7.62 3.59-11.28 5.66zm5.19 3.269-2.378 1.113c5.308-.27 10.566-3.28 14.707-6.453-.867.274-1.719.582-2.547.953a29.777 29.777 0 0 1 -9.781 4.387zm0 0"/></g><g clip-path="url(#p)" mask="url(#o)"><path d="m268.941 136.79c-.93.3-1.832.69-2.77 1.01a42.283 42.283 0 0 0 15.829-4.03c-1.012.109-2.012.308-2.96.41a35.527 35.527 0 0 1 -10.099 2.61zm-3.722-4.821c-1.02.48-2 1.043-2.938 1.672 5.899-1.672 11.418-4.032 17.38-5.551a16.165 16.165 0 0 0 -3.31.11c-3.87 1.128-7.523 2.62-11.132 3.769zm-4.009-5.688c-.98.457-1.929.98-2.85 1.54 5.66-1.59 11.32-2.782 16.831-4.852-1.05.031-2.09.12-3.132.261-3.579 1.25-7.168 2.079-10.848 3.051zm-15.03-56.402c-.7.371-1.38.793-2.008 1.27 4.027-1.09 8.168-1.77 12.078-3.329-.77-.05-1.54-.05-2.3 0a72.947 72.947 0 0 1 -7.77 2.059zm0 0"/></g><g clip-path="url(#v)" mask="url(#q)"><g clip-path="url(#s)" mask="url(#r)"><path d="m274.328 188.621c-.36-.191-.7-.41-1.008-.672a15.556 15.556 0 0 1 -2.492-2.449 24.249 24.249 0 0 1 -2.918-4.55 42.358 42.358 0 0 1 -2.52-6.528c-.199-.613-.331-1.262-.5-1.902-.171-.641-.34-1.31-.46-2.008-.121-.703-.282-1.371-.418-2.07-.14-.704-.313-1.442-.473-2.172-.309-1.461-.629-2.961-1.008-4.48-.37-1.52-.851-3.08-1.293-4.661-.84-3.18-1.91-6.36-2.957-9.629-1.05-3.27-2.261-6.512-3.441-9.781-1.18-3.27-2.442-6.508-3.68-9.688l-3.66-9.332c-1.191-3.02-2.3-5.96-3.379-8.73a81.319 81.319 0 0 0 -3.36-7.77 32.398 32.398 0 0 0 -3.91-6.039 19.818 19.818 0 0 0 -4.081-3.73l-.91-.602c-.29-.18-.579-.308-.848-.45-.442-.25-.89-.456-1.364-.64l-1.16-.468 1.114.558c.449.223.878.473 1.289.75.57.363 1.12.75 1.64 1.172a19.876 19.876 0 0 1 3.719 3.879 34.146 34.146 0 0 1 3.45 6.043c1.07 2.34 2.01 5.027 3.019 7.777 1.011 2.75 2.011 5.801 3.133 8.86 2.27 6.043 4.699 12.582 7.109 19.12 1.2 3.243 2.367 6.5 3.488 9.712 1.121 3.21 2.223 6.39 3.102 9.48.469 1.55.93 3.02 1.379 4.559l1.12 4.441c.36 1.45.712 2.86 1.009 4.23.16.68.363 1.36.57 2.008.21.653.371 1.301.601 1.922a35.977 35.977 0 0 0 2.961 6.528 22.939 22.939 0 0 0 3.278 4.46c.8.872 1.71 1.63 2.71 2.27.372.223.75.422 1.15.582zm0 0"/></g><g clip-path="url(#u)" mask="url(#t)"><path d="m240.45 186.25a28.83 28.83 0 0 1 -4.5-3.078 51.826 51.826 0 0 1 -4.641-4.192c-.41-.43-.848-.89-1.297-1.34l-1.313-1.48c-.918-1.012-1.789-2.11-2.738-3.25-.95-1.14-1.832-2.422-2.77-3.7a55.525 55.525 0 0 1 -2.75-4.12c-.882-1.461-1.832-2.91-2.68-4.488l-1.32-2.352-1.261-2.45-5.23-10.25c-.872-1.75-1.88-3.46-2.86-5.198l-3.02-5.223-3.12-5.09c-1.009-1.7-2.071-3.39-3.16-5.027l-3.188-4.883-3.211-4.707c-2.09-3.094-4.23-6.043-6.172-8.82l-1.45-2.012c-.44-.692-.89-1.371-1.32-2.012l-1.3-2.008-.708-1.011-.75-.899a19.24 19.24 0 0 0 -3.293-2.93 19.95 19.95 0 0 0 -3.476-1.859 19.177 19.177 0 0 0 -6.211-1.351c-1.34-.06-2.691 0-4.031.18l-1.418.21 1.43-.11c1.34-.07 2.687-.038 4.027.098 2.062.211 4.07.774 5.941 1.66a18.224 18.224 0 0 1 3.219 1.954c1.101.86 2.11 1.828 3.02 2.886.21.293.44.57.66.872l.613.921 1.2 2.008c.398.672.858 1.403 1.3 2.121.437.72.93 1.399 1.387 2.121l5.93 9.059 3.023 4.73 3.117 4.899c2.133 3.281 4.121 6.723 6.191 10.062l3.02 5.16c1.012 1.72 2.012 3.399 2.87 5.149 1.83 3.46 3.642 6.871 5.38 10.172l1.32 2.469 1.41 2.347c.899 1.57 1.899 3.024 2.852 4.473.95 1.45 2.008 2.777 2.918 4.098.91 1.32 2.012 2.5 2.96 3.632a61.532 61.532 0 0 0 5.72 5.88 50.418 50.418 0 0 0 4.921 3.96c1.098.79 2.25 1.5 3.438 2.14.43.227.871.419 1.32.579zm0 0"/></g></g><g clip-path="url(#x)" mask="url(#w)"><path d="m49.422 307.48s4.879-3.75 5.656-7.37c-.008 0 1.934 4.85-5.656 7.37zm0 0"/></g><g clip-path="url(#z)" mask="url(#y)"><path d="m44.809 295.71s4.62-4.179 6.582-1.14c-.04.668-6.582 1.14-6.582 1.14zm0 0"/></g><g clip-path="url(#B)" mask="url(#A)"><path d="m233.55 86.352c5.321 5.789 14.009 18.457 19.259 33.32 5.25 14.86 12.722 43.75 16.68 52.578 3.96 8.828 15.363 15.371 4.831 16.379 0 0-7.71-3.149-11.07-20.129s-14.18-42.629-18.86-55.5c-3.492-9.648-6.69-19.04-15.921-22.738 0 0-.25-.172-.649-.5-4.8-16.774-5.242-33.434-.699-40.672.328 7.36 2.117 32.57 6.43 37.262zm0 0"/></g><g clip-path="url(#D)" mask="url(#C)"><path d="m168.25 92.871c.648-.883 1.078-1.371 1.078-1.371l8.543-2.71c4.45 1.26 8.367 3.472 9.809 7.35 4.03 10.891 17.941 26.829 25.64 40.06 7.7 13.23 11.309 25.16 20.22 32.198 8.91 7.043 17.448 16.782 6.91 17.801 0 0-14.41-6.347-27.27-32.418-12.86-26.07-28.45-45.96-31.758-51.851a18.066 18.066 0 0 0 -13.172-9.121zm0 0"/></g><g clip-path="url(#F)" mask="url(#E)"><path d="m145.781 187.219c12.078 13.082 23.73 11.07 23.73 11.07 8.2-.57 3.27-19.14-2.972-29.918-6.238-10.781-24.258-29.031-28.23-34.55a37.696 37.696 0 0 1 -5.149-9.16s.281 5.698-5.46 4.968c-5.75-.719-4.829-2.79-4.829-2.79-.73 1.712-1.8 3.25-3.14 4.532-.993.93-7.493 7.7-14.532 7.207-4.699-.316-9.61-2.687-13.23-4.867a16.493 16.493 0 0 0 1.793 3.578 95.584 95.584 0 0 0 12.777 9.68c12.742 8.062 27.16 27.172 39.242 40.25zm-37.031-40.189c.531-.02 1.05-.09 1.559-.222 7.07-1.77 16.382-10.399 16.382-10.399l6.649 2.18s18.351 17 23.57 28.57c8.738 19.39 4.09 22.668 4.09 22.668-4.809 4.563-14.648-4.387-25.852-18.308a143.235 143.235 0 0 0 -26.398-24.489zm0 0"/></g><g clip-path="url(#H)" mask="url(#G)"><path d="m76.45 246.23c3.55 5.68 6.51 11.829 9.609 17.739 2.832 5.36 2.402 12.82 5.402 17.71 1.008 1.692 13.32 11.9 27.48 11.25.079-9.8.88-19.577 2.41-29.257.297-1.684 1.008-4.89-2.71-12.211-1.25-2.43-2.903-5.672-5.102-9.98-8.82-17.29-24.238-35.22-35.277-45.57-11.043-10.34-11.711-10.27-11.711-10.27s-8.832-9.63-15.461-14.442c-9.98-7.238-9.41-8.187-11.5-15.277a9.304 9.304 0 0 1 -.281-1.25c.96 2.5 2.25 4.867 3.82 7.039 6.441 8.719 19.672 16.68 28.96 23.43 0 0 6.263 8.109 18.673 18.84 12.41 10.73 35.558 52.667 37.226 56.347 1.672 3.684-3.02 17.113-3.02 28.524 0 11.41 2.012 30.847-3.679 20.789-5.7-10.063-6.71-6.36-17.777-10.72-11.07-4.362-11.742-13.76-19.453-12.75l-7.72 1.009s10.06-7.38 7.72-16.43c-2.34-9.059-7.72-26.84-19.79-36.898a133.85 133.85 0 0 1 -6.507-5.793c7.758 4.203 14.328 11.25 18.687 18.171zm0 0"/></g><g clip-path="url(#K)" mask="url(#I)"><path d="m297.89 184.54-25.421 1.51s-7.688-6.038-11.73-26.96c-4.04-20.918-14.227-43.63-17.989-51.852-3.762-8.207-6.8-14.468-14.29-16.949a4.11 4.11 0 0 1 -.581-.258c-7.379-25.55-3.649-43.61 9.43-49.23 13.32-5.692 17.23 12.258 21.28 23.148 4.052 10.89 6.411 28.43 11.071 41.262 4.66 12.828 11.281 23.629 16.899 35.469 4.441 9.28 7.5 28.898 11.332 43.86zm0 0" fill="url(#J)"/></g></svg>