<svg xmlns="http://www.w3.org/2000/svg" xmlns:xlink="http://www.w3.org/1999/xlink" viewBox="0 0 410 510"><defs><filter id="a" width="100%" height="100%" x="0%" y="0%" filterUnits="objectBoundingBox"><feColorMatrix in="SourceGraphic" values="0 0 0 0 1 0 0 0 0 1 0 0 0 0 1 0 0 0 1 0"/></filter><mask id="p"><g filter="url(#a)"><path fill-opacity=".851" d="M0 0h410v510H0z"/></g></mask><linearGradient id="c" x1="205" x2="205" y1="492.4" y2="17.664" gradientUnits="userSpaceOnUse"><stop offset="0" stop-color="#fff" stop-opacity="0"/><stop offset=".427" stop-color="#d0b5b3"/><stop offset="1" stop-color="#d0b5b3"/></linearGradient><clipPath id="b"><path d="M0 0h410v510H0z"/></clipPath><g id="o" clip-path="url(#b)"><path fill="url(#c)" d="M356.68 245.77l-.352-.93c-4.629-14.16-3.187-21.899-2.289-36.531.77-12.82-7.898-20.489-20.93-14.54-12.398 5.7-19.968 20.02-22.937 32.47-1.582 6.89-2.41 14.062-3.473 21.03-.969 6.38 2.04 13.641.723 19.56-.442 2.042-9.203 16.51-23.57 20.741 0 0-5.512-15.84-12.524-28.398-.867-1.57-2.7-4.543-1.5-13.121.39-2.86.934-6.672 1.64-11.7 2.84-20.292 12.052-43.542 19.493-57.703 7.437-14.16 8.16-14.218 8.16-14.218s5.5-12.758 10.45-19.809c7.44-10.64 6.558-11.43 6.199-19.23-.508-11.34-18.079-19.88-29.782-18.79-11.699 1.079-23.75 12.368-23.75 12.368s.364-.188-8.508 8.883c-8.87 9.07-21.62 28.296-28 46.078-6.378 17.78-13.109 30.12-19.492 27.23-6.379-2.89-3.547-9.808-1.058-29.031 2.492-19.23 6.379-39.2 6.379-39.2 12.402-1.808 24.812-16.69 24.812-16.69s3.188 1.062 15.95-2.13c12.757-3.187 18.077-22.488 12.41-31.199-3.192-4.93-4.97-6.539-18.97-4.36-2.831-3.448-17.452-.89-21.44.36-9.22 2.899-14.192 2.899-30.493 8.352a168 168 0 0 0-16.11 6.218c.333-1.41.512-2.23.512-2.23s14.891-33.75 8.16-51.172c-10.109-26.137-30.84-22.867-35.1-13.828-4.25 9.04-5.669 21.05-9.571 29.781-3.899 8.73-12.758 27.938-14.54 38.469-.89 5.32-3.19 12.379-5.8 20.21l-1.29.5a81.757 81.757 0 0 1-21.98 3.259c-11.699 0-17.02 6.531-28.71 20.691-11.7 14.16-19.137 19.59-22.329 37.012-3.191 17.418 7.442 53.348 13.828 69.68 6.383 16.34 12.762 44.668 19.141 76.199 6.383 31.527 7.441 39.187 6.383 74.027a94.002 94.002 0 0 1-1.063 11.371l-12.757 46.942C65.05 473.77 57.23 490.969 57.23 490.969h2.508l-.558 1.43 47.86-.989 8.69.09.489-.27 30.84-.64 82.242-.36 1.43-6.902s33.66-66.098 42.878-82.398c5.711-10.14 22.07-25.282 37.04-38.45l11.953-10.492c10.699-12 22.328-38.136 31.91-53.52l5.808-14.437c6.97-14.633.98-24.101-3.64-38.261zm-254.29-57.81s.348-11.25-1.41-14.89a32.816 32.816 0 0 0-3.19-5.449s7.44-11.61 7.081-16.7l4.617 1.06zm0 0"/></g><mask id="r"><g filter="url(#a)"><path fill-opacity=".502" d="M0 0h410v510H0z"/></g></mask><clipPath id="d"><path d="M0 0h410v510H0z"/></clipPath><g id="q" clip-path="url(#d)"><path fill="#fff" stroke="#000" stroke-width=".25" d="M353.738 204.09c.012 0 .032-.012.043-.02 0-3.23-.43-3.59-1.062-3.8-.64-.2.07.851-5.239 5.32a19.545 19.545 0 0 0-8.742 13.73c-.058.102-.117.211-.18.309a23.408 23.408 0 0 0 0 7.16c1.231 7.711 13.891 7.371 13.891 7.371.5-1 1.031-22.3 1.48-27.8-.019-.758-.077-1.52-.19-2.27zm0 0"/></g><mask id="t"><g filter="url(#a)"><path fill-opacity=".502" d="M0 0h410v510H0z"/></g></mask><clipPath id="e"><path d="M0 0h410v510H0z"/></clipPath><g id="s" clip-path="url(#e)"><path fill="#fff" stroke="#000" stroke-width=".25" d="M146.172 40.129c-.274.95-.48 1.781-.652 2.441 1.34-.21 3.058-.53 5.32-.898 4.61-.652 11.59.879 15.7 2 .019.027.038.066.062.098 1.847.43 3.078.851 3.078.851l.12-.332a16.882 16.882 0 0 0 1.72-7.629m.12 0c-.062-7.762-5.68-14.8-15.831-14.398-1.23.047-2.438.25-3.618.617a23.364 23.364 0 0 0-2.101 4.191s-.012 0-.012.008a37 37 0 0 0-.84 2.371 409.823 409.823 0 0 0-3.027 10.64m18.52 1.141c-.032-.03-.051-.05-.083-.082.032.024.051.051.082.082zm.48.532l.008.008-.008-.008zm0 0"/></g><mask id="v"><g filter="url(#a)"><path fill-opacity=".502" d="M0 0h410v510H0z"/></g></mask><clipPath id="f"><path d="M0 0h410v510H0z"/></clipPath><g id="u" clip-path="url(#f)"><path fill="#fff" stroke="#000" stroke-width=".25" d="M262.64 79.25c-1.1-2.52-5.511-3.941-10.37-4.422-2.7.274-6.711-.11-6.68.274.031.378.398.578.95 1.058.05.02.1.05.151.07a32.782 32.782 0 0 1 3.97 4.032c2.339 2.968 2.679 2.797 3.89 4.539a7.85 7.85 0 0 0-.18-.64c.61.667.899.468 1.27.718.257.09.55.09.808 0 .02-.02.04-.05.07-.07l.731-.368c2.031-.75 6.898-1.78 5.39-5.191zm0 0"/></g><mask id="x"><g filter="url(#a)"><path fill-opacity=".302" d="M0 0h410v510H0z"/></g></mask><clipPath id="g"><path d="M0 0h410v510H0z"/></clipPath><g id="w" clip-path="url(#g)"><path d="M283.45 150.738c1.73.57 3.51.98 5.32 1.211-12.122.352-22.77-8.32-30.032-16.05a33.528 33.528 0 0 1 3 2.23c5.953 5.61 13.352 11.09 21.711 12.61zm0 0M272.41 156.73c1.45.91 2.79 1.79 4.25 2.692-8.129-3.031-18.082-9.102-22.101-16.692.87 1 1.8 1.88 2.71 2.782 3.68 4.59 9.532 8.547 15.141 11.218zm0 0M288.05 143.16a45.34 45.34 0 0 1 3.41 3.192c-8.25-5.98-18.51-9.57-27.358-14.891 1.539.48 3.039 1.059 4.66 1.64 6.27 3.36 13.168 6.227 19.289 10.06zm0 0M292.3 133.922c1.06.969 2.13 1.918 3.06 2.879-8.06-4.781-15.669-11.223-24.97-14.07 1.57.14 3.13.43 4.65.878 6.198 2.66 11.69 6.75 17.26 10.313zm0 0M304.7 118.61c.89 1.378.94.93 1.73 2.269-7.04-7.758-13.61-9.059-21.59-13.508 2.289.957 3.52 1.059 4.93 2.129 6.652 2.879 9.308 3.57 14.93 9.11zm0 0M231.898 78.148c2.532 3.082 4 6.461 5.704 9.57.238.762.437 1.532.57 2.313-2.863-4.71-4.473-10.082-9.672-14.601 1.219.789 2.36 1.71 3.398 2.718zm0 0"/></g><mask id="z"><g filter="url(#a)"><path fill-opacity=".302" d="M0 0h410v510H0z"/></g></mask><clipPath id="h"><path d="M0 0h410v510H0z"/></clipPath><g id="y" clip-path="url(#h)"><path d="M183.672 126.969c-8.422-.32-16.313-5.32-23.402-10.45 6.109 6.56 15.039 12.012 23.402 10.45zm0 0M187.352 115.488c-6.59-5.238-14.723-10.566-22.883-10.976 7.93 2.297 15.293 7.328 22.883 10.976zm0 0M162.66 112c4.68 4.969 11.149 10.191 17.692 10.238-6.364-2-11.84-6.726-17.692-10.238zm0 0"/></g><mask id="B"><g filter="url(#a)"><path fill-opacity=".302" d="M0 0h410v510H0z"/></g></mask><clipPath id="i"><path d="M0 0h410v510H0z"/></clipPath><g id="A" clip-path="url(#i)"><path d="M138.73 119.8l3.68.63a32.455 32.455 0 0 1-20.8-4.66l3.402.91a32.357 32.357 0 0 0 13.718 3.12zm0 0M142.852 109.871c1.058.629 2.128 1.36 3.128 1.98-6.378-1.98-12.851-5.851-19.582-5.562a14.13 14.13 0 0 1 3.762-.57c4.309.75 8.57 2.582 12.692 4.152zm0 0M137.95 114.25l2.679.8c-5.59.579-11.57-1.769-16.41-4.472.953.14 1.883.344 2.812.582a30.37 30.37 0 0 0 10.918 3.09zm0 0M141.77 100.3c.968.38 1.94.86 2.82 1.259-5.32-.547-11.13-2.938-16.352-1.188a9.89 9.89 0 0 1 2.84-1.371c3.492-.23 7.14.691 10.692 1.3zm0 0M157.27 52.57c.968.38 1.94.86 2.82 1.239-5.32-.54-11.13-2.918-16.34-1.18.86-.61 1.82-1.07 2.828-1.367 3.512-.223 7.211.648 10.692 1.308zm0 0"/></g><mask id="D"><g filter="url(#a)"><path fill-opacity=".302" d="M0 0h410v510H0z"/></g></mask><clipPath id="j"><path d="M0 0h410v510H0z"/></clipPath><g id="C" clip-path="url(#j)"><path d="M62.988 180.73c.832-.101 1.684-.07 2.524-.171a29.123 29.123 0 0 1-13.832 2.613c.808-.313 1.64-.512 2.449-.813a25.207 25.207 0 0 0 8.86-1.629zm0 0M64.121 174.371c.98.098 1.938.238 2.899.45-5.2.788-10.391.699-15.57 1.699.82-.532 1.69-.95 2.62-1.27 3.442-.5 6.82-.5 10.051-.879zm0 0M65.148 167.031a19.7 19.7 0 0 1 2.793.348c-5 .77-9.84 1.95-14.89 2.133.82-.403 1.668-.762 2.527-1.063 3.223-.289 6.41-.758 9.57-1.418zm0 0"/></g><mask id="F"><g filter="url(#a)"><path fill-opacity=".302" d="M0 0h410v510H0z"/></g></mask><clipPath id="k"><path d="M0 0h410v510H0z"/></clipPath><g id="E" clip-path="url(#k)"><path d="M96.012 216.578s3.25-17.816 3.539-20.137c.289-2.32 2.89-10.203 3.48-14.171.278-1.989.61-4.122.989-6.38.359-2.269.742-4.66 1.199-7.109.46-2.46.87-5.02 1.402-7.59.527-2.57 1.059-5.203 1.578-7.82.52-2.621 1.211-5.223 1.813-7.793l.449-1.906c.18-.633.36-1.25.527-1.883l1.063-3.687c.18-.614.328-1.192.527-1.813l.613-1.71c.399-1.138.809-2.24 1.188-3.317.793-2.133 1.531-4.184 2.21-6.063 1.38-3.75 2.622-6.847 3.45-9.027.832-2.184 1.352-3.41 1.352-3.41s-.332 1.297-.961 3.539c-.63 2.238-1.52 5.469-2.68 9.3l-1.86 6.18-1.062 3.367-.558 1.782c-.16.558-.31 1.18-.461 1.78-.598 2.411-1.297 4.868-1.84 7.438-.54 2.57-1.149 5.16-1.719 7.75l-6.059 28.711c-.82 3.91-3.12 13.282-3.613 15.57-.488 2.27-4.566 18.4-4.566 18.4zm0 0M137.48 213.66s.22-.55.57-1.61c.348-1.062.9-2.6 1.509-4.581.312-1 .68-2.13 1.062-3.297.379-1.172.7-2.512 1.059-3.902.191-.7.39-1.41.601-2.13.2-.71.36-1.519.547-2.312.383-1.578.793-3.187 1.211-4.969.43-1.78.711-3.558 1.063-5.449.347-1.879.847-3.82 1.058-5.851.57-4.028 1.36-8.258 1.68-12.758.32-4.5.84-9.04 1.27-13.723.218-2.328.44-4.687.66-7.047.109-1.18.218-2.37.332-3.562l.168-1.778.27-1.78 1.12-7.102c.18-1.18.371-2.36.55-3.528.18-1.172.349-2.36.63-3.5 1.058-4.59 1.969-9.16 3.191-13.453.297-1.058.578-2.129.867-3.187l.114-.391v-.48l.289-.77.277-.762c.113-.258.281-.52.41-.777a18.418 18.418 0 0 1 4.16-5.063 46.168 46.168 0 0 1 9.57-6.378 91.273 91.273 0 0 1 8.782-3.918c2.672-1.063 5.012-1.864 6.941-2.532 1.938-.672 3.48-1.129 4.528-1.441l1.61-.488-1.567.597-4.203 1.73c-1.899.77-4.25 1.704-6.79 2.884-2.53 1.18-5.48 2.597-8.507 4.25a49.447 49.447 0 0 0-9.121 6.378c-.38.329-.73.692-1.063 1.06-.316.37-.68.722-.988 1.062l-.88 1.207c-.26.402-.5.82-.71 1.242-.129.21-.238.43-.34.648l-.27.77-.28.77v.3l-.098.39c-.274 1.06-.543 2.13-.813 3.192-1.18 4.25-1.98 8.828-3 13.379-.277 1.129-.43 2.3-.61 3.46-.179 1.161-.35 2.321-.53 3.49-.36 2.331-.707 4.66-1.059 7.01l-.27 1.77-.18 1.782-.35 3.547c-.22 2.363-.45 4.71-.688 7.05-.442 4.692-.953 9.243-1.461 13.72-.512 4.48-1.29 8.741-1.973 12.76-.316 2.04-.848 3.97-1.27 5.86-.41 1.89-.847 3.7-1.308 5.43-.46 1.73-.969 3.383-1.41 4.95-.219.792-.45 1.55-.668 2.292-.223.73-.48 1.45-.711 2.129-.461 1.379-.883 2.672-1.29 3.86-.401 1.19-.831 2.269-1.19 3.19-.7 1.97-1.372 3.462-1.801 4.49-.399 1.038-.7 1.87-.7 1.87zm0 0"/></g><mask id="H"><g filter="url(#a)"><path fill-opacity=".102" d="M0 0h410v510H0z"/></g></mask><clipPath id="l"><path d="M0 0h410v510H0z"/></clipPath><g id="G" clip-path="url(#l)"><path d="M356.379 275.93s-6.09-2.32-8.008-5.82c.04 0-.45 5.671 8.008 5.82zm0 0M357.352 262.3s-5.961-2.84-6.993.938c.27.633 6.993-.937 6.993-.937zm0 0M107.988 159.48c1.813-8.8 3.711-17.25 5.383-22.75 2.457-8.05 5.418-16.378 8.008-24v-.058l-1.238.488s-1.871.578-4.903 1.27c-.988 3.742-2.199 8.082-3.61 12.52-3.898 12.34-3.898 14.519-6.026 15.948C103.469 144.34 99.57 140 99.57 140a21.48 21.48 0 0 1 .36 11.25c-1.43 6.531-5.68 11.98-8.16 13.828-1.418 1-3.07 1.621-4.801 1.793 1.652 0-.32 13.7.543 22.527 1.41 14.524 8.77 29.133 8.77 29.133l2.917-20.21s4.07-14.4 6.653-27.872l-3.461 17.54s.347-11.25-1.41-14.887a33.01 33.01 0 0 0-3.192-5.454s7.441-11.609 7.082-16.699l4.617 1.063zm0 0M181.441 60.89c-3.543 15.95-3.191 9.79-6.382 13.06 0 0-1.77 4-8.149 14.519-6.379 10.52-12.058 2.902-15.95 33.761-3.89 30.848-7.44 49.72-13.472 68.95-6.027 19.23-10.636 27.582 0 22.492a182.849 182.849 0 0 0 12.051-53.363c2.133-30.118 6.031-43.18 8.512-52.61 1.648-6.27 9.719-11.699 19.73-16.3.328-1.41.508-2.227.508-2.227s12.3-27.89 9.48-46.05c-.468-2.134-.91-3.872-1.32-5.122a55.627 55.627 0 0 0-.738-1.8c-1.602-2.321-1.152 10.609-4.27 24.69zm0 0M252.52 127.172c-8.782 9.566-20.668 27.789-26.77 44.758-6.379 17.789-13.11 30.12-19.488 27.23-6.383-2.89-3.551-9.808-1.063-29.031 2.492-19.23 6.38-39.2 6.38-39.2 12.401-1.808 24.812-16.69 24.812-16.69s3.187 1.062 15.949-2.13c12.762-3.187 18.082-22.488 12.41-31.199-.11-.172-.238-.32-.36-.48 3.02 5.191 3.79 21.898-6.019 25.691-13.121 5.078-20.21 4.54-24.11-3.45.817 5.99-1.452 12-6.03 15.95-7.801 6.899-12.403 9.438-15.95 8.348-2.383-.73-5.082-6.047-6.601-9.469 1.199 3.531 2.68 10.281 1.289 19.988-2.13 14.89-16.297 67.5-4.957 75.512 11.347 8.012 24.097-28.3 36.16-55.52 6.578-14.93 11.328-24.601 14.348-30.308zm0 0M310.18 226.238c-1.578 6.89-2.41 14.063-3.47 21.032-.972 6.378 2.04 13.64.72 19.558-.442 2.043-9.2 16.512-23.57 20.742 0 0-5.508-15.84-12.52-28.398-.871-1.57-2.7-4.543-1.5-13.121.39-2.86.93-6.672 1.64-11.7 2.84-20.292 12.051-43.542 19.489-57.703 7.441-14.16 8.16-14.218 8.16-14.218s5.5-12.758 10.45-19.809c4.96-7.05 6.183-9.723 6.382-12.95a24.502 24.502 0 0 1-6.383 9.759c-8.156 7.672-10.637 17.242-17.808 26.808-6.57 8.84-20.29 27.114-24.551 64.121 0 0-3.239 19.141-2.707 28.41.527 9.262 6.25 12.762 12.629 34.56 6.379 21.8 7.437 28.183 8.507 19.671 1.063-8.512 1.602-17.55 1.602-17.55s10.102-5.848 15.95-13.829c5.85-7.98 7.98-12.23 12.23-13.293l4.25-1.058a23.479 23.479 0 0 1-7.98-14.891c-.84-7.508-.68-24.508 3.53-39.969a62.618 62.618 0 0 0-5.05 13.828zm0 0"/></g><mask id="J"><g filter="url(#a)"><path fill-opacity=".502" d="M0 0h410v510H0z"/></g></mask><linearGradient id="n" x1="-1717.741" x2="-1732.98" y1="2183.624" y2="2132.368" gradientTransform="matrix(3.1362 0 0 -3.1362 5554.397 6889.314)" gradientUnits="userSpaceOnUse"><stop offset=".36" stop-color="#0074d1"/><stop offset=".87" stop-color="#00afd1" stop-opacity="0"/></linearGradient><clipPath id="m"><path d="M0 0h410v510H0z"/></clipPath><g id="I" clip-path="url(#m)"><path fill="url(#n)" d="M149.531 160.309c1.43-15.239 4.969-46.079 7.989-53.797 3.02-7.723 20.21-15.09 20.21-15.09.329-1.41.508-2.23.508-2.23s14.89-33.75 8.16-51.172c-10.109-26.141-30.84-22.872-35.097-13.829-4.25 9.04-5.672 21.047-9.57 29.778-3.903 8.73-12.762 27.941-14.54 38.472-.89 5.32-3.191 12.38-5.8 20.207a181.85 181.85 0 0 0-9.32 25.41c-1.301 4.473-2.41 9.122-3.38 13.723l.82.188-7.09 35.93v-.38c-2.312 12.04-6.132 30.93-6.132 30.93l41.89-6.379c2.84-6.62 9.942-36.5 11.352-51.761zm0 0"/></g></defs><use mask="url(#p)" xlink:href="#o"/><use mask="url(#r)" xlink:href="#q"/><use mask="url(#t)" xlink:href="#s"/><use mask="url(#v)" xlink:href="#u"/><use mask="url(#x)" xlink:href="#w"/><use mask="url(#z)" xlink:href="#y"/><use mask="url(#B)" xlink:href="#A"/><use mask="url(#D)" xlink:href="#C"/><use mask="url(#F)" xlink:href="#E"/><use mask="url(#H)" xlink:href="#G"/><use mask="url(#J)" xlink:href="#I"/></svg>