<svg xmlns="http://www.w3.org/2000/svg" xmlns:xlink="http://www.w3.org/1999/xlink" viewBox="0 0 410 510"><defs><filter id="a" width="100%" height="100%" x="0%" y="0%" filterUnits="objectBoundingBox"><feColorMatrix in="SourceGraphic" values="0 0 0 0 1 0 0 0 0 1 0 0 0 0 1 0 0 0 1 0"/></filter><mask id="t"><g filter="url(#a)"><path fill-opacity=".851" d="M0 0h410v510H0z"/></g></mask><linearGradient id="c" x1="205" x2="205" y1="476.95" y2="33.05" gradientUnits="userSpaceOnUse"><stop offset="0" stop-color="#fff" stop-opacity="0"/><stop offset=".427" stop-color="#d0b5b3"/><stop offset="1" stop-color="#d0b5b3"/></linearGradient><clipPath id="b"><path d="M0 0h410v510H0z"/></clipPath><g id="s" clip-path="url(#b)"><path fill="url(#c)" d="M276.52 354.621c27.351-27.293 34.78-66.851 49.128-80.36C340 260.75 349.2 239.212 349.2 239.212l21.371-26.04c.078-11.331-18.23-19.593-37.582-14.01-19.36 5.589-32.129 30.628-32.129 30.628-12.71 5.75-36.308 33.73-37.64 27.781-1.078-4.89-7.45-33.148-8.258-52.261-.45-10.598-2.66-28.11-1.66-39.68.527-5.95.168-31.207.66-40.68 1.18-22.43-1.492-38.437-2.73-65.73-1.051-23.09-13.25-30.758-26.711-23.559-13.45 7.192-11.91 23.238-13.891 35.719a134.23 134.23 0 0 0-1.32 20.383c-8.399-5.89-22.579-12.25-29.97-13.293-9.73-1.367-39.487 7.562-40.76 15.203-1.099 9-1.5 18.066-1.2 27.117-3.207-5.02-7.68-10.488-12.98-13.039-11.09-5.328-29.38 4.828-33.598 11-1.852 2.7-2.871 8.46-3.063 16.102-1.039-1.18-1.668-1.762-1.668-1.762l-13.28 4.5c-13.278 4.5-25.731 13.558-25.688 31.75.039 18.191 2.226 40.68 7.937 54.719 5.7 14.043 6.871 48.73 11.602 72.09 4.16 20.562 5.78 37.703 8.55 61.05l1.79 11.91c-2.872 34.59-1.22 27.09-12.57 52.29C52.5 447.838 39.43 476.96 39.43 476.96l168.89-10.563c1.75-15.796 28.54-48.5 45.211-74.488 6.508-10.16 10.75-17.031 14.418-23.738 9.09-11.23 14.59-20.082 28.77-42.781m-103.61-187.52c-.488-2.2 4.891 2.617 11.243 6.52-3.614 23.98-8.43 52.02-8.43 52.02s1.816-37.4-2.813-58.571zm0 0"/></g><mask id="v"><g filter="url(#a)"><path fill-opacity=".502" d="M0 0h410v510H0z"/></g></mask><clipPath id="d"><path d="M0 0h410v510H0z"/></clipPath><g id="u" clip-path="url(#d)"><path fill="#fff" stroke="#000" stroke-width=".25" d="M369.988 211.691c-.379-.511-.52.72-7.168 1.368-5.582-.278-10.87 2.28-14.832 6.12-.16.071-.308.141-.449.2a25.08 25.08 0 0 0-4.34 5.793c-3.8 6.918 5.84 13.726 5.84 13.726.98-.527 14.383-17.418 18.07-21.617.47-.62.891-1.27 1.27-1.953.031.012.07.024.101.031 1.97-2.62 1.88-3.168 1.508-3.668zm0 0"/></g><mask id="x"><g filter="url(#a)"><path fill-opacity=".502" d="M0 0h410v510H0z"/></g></mask><clipPath id="e"><path d="M0 0h410v510H0z"/></clipPath><g id="w" clip-path="url(#e)"><path fill="#fff" stroke="#000" stroke-width=".25" d="M246.93 47.762c-.41-7.09-6.282-13.09-16.282-11.91-6.289.687-9.976 4.82-12.078 9.07-.03.02-.058.047-.101.066-2.188 4.582-2.41 9.473-1.688 10.09.328.25.707.434 1.11.512l8.828-1.68c4.5-.96 11.402-.129 15.511.559.04.062.09.11.13.172a32.24 32.24 0 0 1 3.1.539l.099-.32a14.809 14.809 0 0 0 1.37-7.098"/></g><mask id="z"><g filter="url(#a)"><path fill-opacity=".302" d="M0 0h410v510H0z"/></g></mask><clipPath id="f"><path d="M0 0h410v510H0z"/></clipPath><g id="y" clip-path="url(#f)"><path d="M243.04 127.078c1.788-.36 3.538-.879 5.23-1.558-9.989 5.808-24.168 4.25-34.93 1.832 1.27.07 2.539.136 3.87.289 8.36 1.449 17.9 2.097 25.83-.563zm0 0M237.352 136.59c1.77 0 3.418 0 5.187.058-8.668 1.461-20.73 1.532-28.64-2.277 1.34.34 2.652.578 3.972.82 5.848 1.72 13.11 1.989 19.48 1.399zm0 0M242.371 119.328c1.59.192 3.207.461 4.75.774-10.543-.66-21.32 1.367-31.96 1.5 1.577-.364 3.19-.622 4.898-.91 7.32-.294 14.89-1.403 22.312-1.364zm0 0M240.371 110.48c1.5.22 2.91.48 4.32.739-9.652.14-19.93-1.18-29.48.992a24.658 24.658 0 0 1 4.43-1.473c6.859-.867 13.898-.258 20.73-.258zm0 0M225.031 61.172c5.328-.652 11.07-.094 16.438.098 1.41.27 2.68.48 3.91.808-8.098 0-17.188-1.61-25.117.8a22.6 22.6 0 0 1 4.77-1.706zm0 0"/></g><mask id="B"><g filter="url(#a)"><path fill-opacity=".302" d="M0 0h410v510H0z"/></g></mask><clipPath id="g"><path d="M0 0h410v510H0z"/></clipPath><g id="A" clip-path="url(#g)"><path d="M170.559 95.422c-8.047 4.77-17.86 5.61-26.989 5.95 8.82 1.39 19.942.23 26.989-5.95zm0 0M171.512 84.48c-8.73-.101-18.953.649-26.793 5.211 8.55-2.96 17.902-3.441 26.793-5.21zm0 0M143.531 96.422c6.809.988 15.418 1.18 21.57-2.672-6.87 2.262-14.39 1.95-21.57 2.672zm0 0"/></g><mask id="D"><g filter="url(#a)"><path fill-opacity=".302" d="M0 0h410v510H0z"/></g></mask><clipPath id="h"><path d="M0 0h410v510H0z"/></clipPath><g id="C" clip-path="url(#h)"><path d="M113.55 121.39l3.212-1.3a31.02 31.02 0 0 1-18.73 6.531l3.148-.992a30.631 30.631 0 0 0 12.37-4.238zm0 0M112.078 111.71h3.434c-5.953 1.58-13.012 1.74-18.223 5.24.8-.872 1.711-1.63 2.711-2.27 3.762-1.532 7.96-2.22 12.078-2.97zm0 0M110.25 117.469l2.5-.688c-4.172 3.188-10.04 4.29-15.18 4.547.82-.36 1.668-.656 2.532-.918a28.683 28.683 0 0 0 10.148-2.941zm0 0"/></g><mask id="F"><g filter="url(#a)"><path fill-opacity=".302" d="M0 0h410v510H0z"/></g></mask><clipPath id="i"><path d="M0 0h410v510H0z"/></clipPath><g id="E" clip-path="url(#i)"><path d="M71.59 156.61c.91-.31 1.87-.52 2.781-.82a41.608 41.608 0 0 1-14.883 5.948c.852-.488 1.742-.879 2.59-1.379a34.948 34.948 0 0 0 9.512-3.75zm0 0M71.762 150.602c1.09-.16 2.18-.313 3.297-.383-5.66 2.09-11.47 3.39-17.059 5.672.828-.7 1.738-1.32 2.7-1.84 3.76-1.332 7.51-2.27 11.062-3.45zm0 0M71.64 143.738c1.051-.199 2.098-.34 3.16-.43-5.44 1.981-10.64 4.383-16.23 5.954.82-.59 1.801-1.114 2.649-1.614 3.59-1.117 6.93-2.546 10.422-3.91zm0 0"/></g><mask id="H"><g filter="url(#a)"><path fill-opacity=".302" d="M0 0h410v510H0z"/></g></mask><clipPath id="j"><path d="M0 0h410v510H0z"/></clipPath><g id="G" clip-path="url(#j)"><path d="M93.57 216.469v-7.57c0-1.56-.09-3.32-.14-5.239-.051-1.91-.2-3.969-.29-6.18-.09-2.21-.35-4.492-.5-6.89-.152-2.39-.519-4.828-.761-7.328-.149-1.242-.238-2.512-.45-3.762-.21-1.25-.41-2.512-.62-3.762-.399-2.539-.778-5.058-1.18-7.547-.2-1.25-.399-2.492-.59-3.71a69.441 69.441 0 0 1-.488-3.641 317.005 317.005 0 0 1-.742-6.942c-.22-2.218-.239-4.296-.348-6.226-.11-1.934-.07-3.692-.07-5.262v-4.058c.12-2.243.21-3.524.21-3.524s.079 1.281.18 3.524c.059 1.109.188 2.476.309 4.027.12 1.55.219 3.3.48 5.21.258 1.9.442 3.97.68 6.15.25 2.183.64 4.452.988 6.831.352 2.371.84 4.801 1.23 7.29.212 1.242.43 2.48.634 3.742l.628 3.808c.211 1.27.391 2.55.59 3.82.2 1.27.27 2.551.418 3.81.242 2.519.532 4.96.602 7.42.07 2.462.262 4.74.238 6.938-.02 2.204 0 4.313-.058 6.23a135.865 135.865 0 0 1-.258 5.263c-.114 1.57-.25 2.918-.34 4.039-.152 2.3-.352 3.539-.352 3.539zm0 0M135.352 195.191l.5-.703c.308-.468.718-1.18 1.238-2.078a32.643 32.643 0 0 0 1.629-3.37 46.002 46.002 0 0 0 1.62-4.552c.54-1.828.962-3.68 1.282-5.558.129-.989.34-1.98.41-3.09.07-1.102.2-2.13.239-3.23.039-1.098 0-2.22 0-3.348 0-1.133-.141-2.282-.211-3.434-.07-1.148-.29-2.297-.418-3.457a34.367 34.367 0 0 0-.63-3.473c-.472-2.34-.933-4.68-1.402-6.937-.218-1.152-.449-2.3-.66-3.43-.219-1.133-.308-2.293-.46-3.41-.278-2.25-.61-4.41-.727-6.48-.133-2.063-.262-3.97-.383-5.79-.117-1.831-.098-3.453-.117-4.96-.024-1.512 0-2.743 0-3.782v-3.289s.117 1.192.316 3.27c.102.988.23 2.308.371 3.762.14 1.449.27 3.09.52 4.859.25 1.777.472 3.687.71 5.719.102.992.301 2.05.47 3.11.171 1.05.351 2.132.53 3.23.18 1.101.333 2.21.54 3.332.21 1.117.5 2.27.742 3.418.48 2.3.988 4.64 1.46 6.94.227 1.188.5 2.368.61 3.58.11 1.21.328 2.401.399 3.589.07 1.191.101 2.383.148 3.55.05 1.173-.09 2.34-.137 3.47-.05 1.132-.23 2.25-.363 3.34-.129 1.09-.387 2.132-.578 3.16-.398 1.921-.96 3.8-1.648 5.64a34.912 34.912 0 0 1-2.032 4.512 34.961 34.961 0 0 1-1.98 3.258c-.461.691-.95 1.351-1.488 1.98-.172.23-.332.441-.5.652zm0 0M199.172 179.148L199 180.61c-.11.922-.281 2.243-.5 3.813-.121.777-.25 1.637-.379 2.527-.133.89-.32 1.852-.473 2.82l-.558 2.981c-.219.988-.399 2.05-.649 3.078-.261 1.024-.46 2.063-.73 3.063-.133.5-.262.988-.383 1.488-.117.5-.277.992-.418 1.45-.14.46-.27.94-.398 1.401-.133.461-.293.891-.434 1.329-.289.851-.527 1.68-.808 2.421-.29.739-.52 1.43-.73 2.032-.22.61-.462 1.117-.63 1.547-.34.87-.539 1.37-.539 1.37l.77-1.25c.238-.398.539-.878.847-1.449.32-.57.633-1.242.992-1.98.36-.738.692-1.52 1.04-2.371l.53-1.309c.16-.46.321-.93.49-1.398.331-.992.64-1.98.91-2.98.269-.993.55-2.051.78-3.102.239-1.04.418-2.102.63-3.14.21-1.028.32-2.06.46-3.06.14-.992.23-1.98.29-2.878.062-.89.12-1.793.152-2.582a36.69 36.69 0 0 0-.09-5.282zm0 0"/></g><mask id="J"><g filter="url(#a)"><path fill-opacity=".302" d="M0 0h410v510H0z"/></g></mask><clipPath id="k"><path d="M0 0h410v510H0z"/></clipPath><g id="I" clip-path="url(#k)"><path d="M328.66 266.121s-4.18-4.41-4.39-8.05c-.032.007-2.622 4.44 4.39 8.05zm0 0"/></g><mask id="L"><g filter="url(#a)"><path fill-opacity=".302" d="M0 0h410v510H0z"/></g></mask><clipPath id="l"><path d="M0 0h410v510H0z"/></clipPath><g id="K" clip-path="url(#l)"><path d="M334.95 255.328s-3.848-4.77-6.24-2.098c-.03.692 6.24 2.098 6.24 2.098zm0 0"/></g><mask id="N"><g filter="url(#a)"><path fill-opacity=".102" d="M0 0h410v510H0z"/></g></mask><clipPath id="m"><path d="M0 0h410v510H0z"/></clipPath><g id="M" clip-path="url(#m)"><path d="M83.379 133.988a54.776 54.776 0 0 0-.348 5.551c-.312 17.211 4.11 38.09 3.367 50.34-.726 12.25 3.493 32.992 7.16 26.59 1.114-15.149.301-30.367-2.417-45.309a193.665 193.665 0 0 1-3.47-32.5v-3.789A16.188 16.188 0 0 0 86 133.11zm0 0"/></g><mask id="P"><g filter="url(#a)"><path fill-opacity=".102" d="M0 0h410v510H0z"/></g></mask><clipPath id="n"><path d="M0 0h410v510H0z"/></clipPath><g id="O" clip-path="url(#n)"><path d="M135.352 195.191s12.226-13.73 6.18-38.84a170.834 170.834 0 0 1-4.134-33.25l-.07-2.32a51.226 51.226 0 0 0-4.078-5.61 215.77 215.77 0 0 0 0 9.419c.281 17.61 7.031 37.539 5.809 49.879-.63 7-1.88 13.93-3.707 20.722zm0 0"/></g><mask id="R"><g filter="url(#a)"><path fill-opacity=".102" d="M0 0h410v510H0z"/></g></mask><clipPath id="o"><path d="M0 0h410v510H0z"/></clipPath><g id="Q" clip-path="url(#o)"><path d="M332.422 199.352c-19.043 5.949-31.57 30.449-31.57 30.449-12.711 5.75-36.313 33.73-37.641 27.777-1.082-4.887-7.45-33.148-8.262-52.258-.449-10.601-2.66-28.11-1.66-39.68.11-1.171.172-3.09.223-5.468-.832 9.027-1.762 18.61-2.703 25.969-1.457 11.437.191 16.398.832 29.43.66 13.53 4.3 27.78 6.28 47.288 2.169 21.36 7.61 17.532 7.61 17.532s-2.98-8.93-.34-12.903c2.637-3.968 27.778-25.136 33.73-29.758a15.287 15.287 0 0 1 11.907-3.308s-5.289-5.313-.648-13.242c3.3-5.72 13.57-15.25 22.242-21.828zm0 0"/></g><mask id="T"><g filter="url(#a)"><path fill-opacity=".102" d="M0 0h410v510H0z"/></g></mask><clipPath id="p"><path d="M0 0h410v510H0z"/></clipPath><g id="S" clip-path="url(#p)"><path d="M202.371 122.3c-3.723 13.391-10.91 1.16-11.41-3.062-.5-4.218-.992-8.93-1.492-12.148-.5-3.219-.5 5.95-.5 12.148 0 6.203.5 24.063 2.48 34.48 1.98 10.423 3.723 35.962 2.23 43.903-1.488 7.938-2.73 18.11.5 11.41 3.22-6.703 13.391-50.601 12.9-60.02-.5-9.433 1.98-56.3 1.98-56.3s-2.97 16.187-6.688 29.59zm-6.45 74.079s1.817-37.367-2.812-58.54c-.488-2.198 4.891 2.622 11.243 6.52-3.614 23.98-8.43 52.02-8.43 52.02zm0 0"/></g><mask id="V"><g filter="url(#a)"><path fill-opacity=".502" d="M0 0h410v510H0z"/></g></mask><linearGradient id="r" x1="-1696.883" x2="-1698.99" y1="2186.19" y2="2136.207" gradientTransform="matrix(3.1362 0 0 -3.1362 5554.397 6889.314)" gradientUnits="userSpaceOnUse"><stop offset=".36" stop-color="#0074d1"/><stop offset=".87" stop-color="#00afd1" stop-opacity="0"/></linearGradient><clipPath id="q"><path d="M0 0h410v510H0z"/></clipPath><g id="U" clip-path="url(#q)"><path fill="url(#r)" d="M254.95 205.309c-.45-10.598-2.66-28.11-1.66-39.68.53-5.95.17-31.207.66-40.68 1.179-22.43-1.49-38.437-2.731-65.73-1.047-23.09-13.25-30.758-26.707-23.559-13.453 7.192-11.91 23.238-13.89 35.719a133.233 133.233 0 0 0-1.321 20.383l-4.961 52.578c-3.61 23.98-8.43 52.02-8.43 52.02l59.168 11.609c-.09-.89-.137-1.778-.129-2.66zm0 0"/></g></defs><use mask="url(#t)" xlink:href="#s"/><use mask="url(#v)" xlink:href="#u"/><use mask="url(#x)" xlink:href="#w"/><use mask="url(#z)" xlink:href="#y"/><use mask="url(#B)" xlink:href="#A"/><use mask="url(#D)" xlink:href="#C"/><use mask="url(#F)" xlink:href="#E"/><use mask="url(#H)" xlink:href="#G"/><use mask="url(#J)" xlink:href="#I"/><use mask="url(#L)" xlink:href="#K"/><use mask="url(#N)" xlink:href="#M"/><use mask="url(#P)" xlink:href="#O"/><use mask="url(#R)" xlink:href="#Q"/><use mask="url(#T)" xlink:href="#S"/><use mask="url(#V)" xlink:href="#U"/></svg>