<svg xmlns="http://www.w3.org/2000/svg" xmlns:xlink="http://www.w3.org/1999/xlink" viewBox="0 0 410 510"><defs><filter id="a" width="100%" height="100%" x="0%" y="0%" filterUnits="objectBoundingBox"><feColorMatrix in="SourceGraphic" values="0 0 0 0 1 0 0 0 0 1 0 0 0 0 1 0 0 0 1 0"/></filter><mask id="t"><g filter="url(#a)"><path fill-opacity=".851" d="M0 0h410v510H0z"/></g></mask><linearGradient id="c" x1="205" x2="205" y1="476.559" y2="33.441" gradientUnits="userSpaceOnUse"><stop offset="0" stop-color="#fff" stop-opacity="0"/><stop offset=".427" stop-color="#d0b5b3"/><stop offset="1" stop-color="#d0b5b3"/></linearGradient><clipPath id="b"><path d="M0 0h410v510H0z"/></clipPath><g id="s" clip-path="url(#b)"><path fill="url(#c)" d="M379.602 226.23c-12.102-6.44-24.063-5.902-34.43-3.742-12.863 3.48-34.57 17.32-38.64 24.301-4.071 6.98-6.052 7.48-8.134 7.691-7.59.711-19.668 13.622-26.726 11.598l-2.024-1.008-5.546-19.672s-3.532-12.668-3.364-32.109c.09-10.789 4.774-29.66 6.39-41.36.84-6.05 12.102-42.03 13.11-51.609 2.364-22.718 4.16-31.36 8.403-58 3.699-23.199-13.192-33.539-27.23-26.898-14.04 6.637-16.891 33.156-19.5 45.726-3.22 15.493-3.7 20.172-11.77 42.704-7.25 20.257-14.47 63.82-25.551 62.207-3.031-.438-9.418-24.438-6.38-45.73.669-4.7 16.47 1.01 23.2-14.118 5.399-12.102-6-25.281-7.738-29.25-2.961-6.77-20.711-15.852-30.942-17.813-9.808-1.898-40.492 5.622-42.16 13.313-.898 4.098-2.27 14.629-2.62 27.48-3.028-5.261-7.25-11.101-12.509-13.902-10.98-5.98-30.082 3.383-34.691 9.43-2.02 2.64-3.352 8.441-3.93 16.14-1.011-1.25-1.601-1.87-1.601-1.87L71.5 133.62c-13.73 3.89-26.82 12.45-27.73 30.89-.91 18.438.16 41.36 5.18 55.958 5.019 14.61 4.03 50.27 8.07 73.812 3.601 21.008 3.921 38.578 5.53 62.43l1.16 12.27c-4.698 34.968-2.64 27.449-15.46 52.449C34.8 447.64 20 476.559 20 476.559l172.148-2.02c2.59-15.96 16.872-47.758 35.133-73.3 4.508-6.29 32.34-31.817 54.969-49.93 15.129-12.098 19.922-23.11 22.379-26.598 10.652-15.133 27.23-27.422 37.543-42.52 10.308-15.101 16.637-18.07 32.277-28.832 15.653-10.757 22.973-17.687 5.153-27.129zm0 0"/></g><mask id="v"><g filter="url(#a)"><path fill-opacity=".502" d="M0 0h410v510H0z"/></g></mask><clipPath id="d"><path d="M0 0h410v510H0z"/></clipPath><g id="u" clip-path="url(#d)"><path fill="#fff" stroke="#000" stroke-width=".25" d="M388.55 241.21c-.222-.62-.71.571-7.39-.62-5.351-1.828-11.18-.8-16.039 1.87-.25.04-.492.071-.71.11a24.997 24.997 0 0 0-5.84 4.489c-5.56 5.742 2.019 15.05 2.019 15.05 1.101-.25 18.84-13.129 23.601-16.23.618-.48 1.207-1 1.758-1.55.04.023.082.05.121.07 2.64-2.028 2.7-2.57 2.48-3.188zm0 0"/></g><mask id="x"><g filter="url(#a)"><path fill-opacity=".502" d="M0 0h410v510H0z"/></g></mask><clipPath id="e"><path d="M0 0h410v510H0z"/></clipPath><g id="w" clip-path="url(#e)"><path fill="#fff" stroke="#000" stroke-width=".25" d="M284.46 49.852c.45-7.704-4.73-14.512-14.82-13.75-6.37.418-10.55 4.707-13.16 9.207-.03.02-.07.05-.101.07-2.738 4.86-3.559 10.16-2.91 10.851.281.29.62.5 1.011.622l8.989-1.352c4.62-.8 11.422.441 15.472 1.441.028.047.047.09.079.137 1.82.363 3.03.75 3.03.75l.141-.328a18.094 18.094 0 0 0 2.2-7.629"/></g><mask id="z"><g filter="url(#a)"><path fill-opacity=".302" d="M0 0h410v510H0z"/></g></mask><clipPath id="f"><path d="M0 0h410v510H0z"/></clipPath><g id="y" clip-path="url(#f)"><path d="M261.488 138.77a31.23 31.23 0 0 0 5.524-.56c-11.102 3.919-24.953-.312-35.23-4.76 1.25.3 2.5.609 3.796 1.01 8.082 3.028 17.442 5.47 25.91 4.31zm0 0M254.02 147.2c1.761.34 3.41.698 5.16 1.01-8.942-.17-21-2.382-28.18-7.69 1.27.59 2.531 1.082 3.79 1.558 5.538 2.863 12.78 4.524 19.23 5.121zm0 0M262.262 130.91c1.566.461 3.11 1.02 4.61 1.66-10.411-2.648-21.571-2.66-32.212-4.539h5.04c7.429 1.078 15.128 1.43 22.562 2.88zm0 0M264.55 117.11a97.03 97.03 0 0 1 4.169 1.55c-9.66-1.672-19.688-4.93-29.64-4.59a26.7 26.7 0 0 1 4.722-.629c7.008.438 13.93 2.32 20.75 3.668zm0 0M255.57 64.91c5.442-.39 11.25.48 16.68 1.012 1.41.328 2.7.617 3.922 1.008-8.211-.41-17.371-2.52-25.543-.48 1.59-.7 3.242-1.212 4.941-1.54zm0 0"/></g><mask id="B"><g filter="url(#a)"><path fill-opacity=".302" d="M0 0h410v510H0z"/></g></mask><clipPath id="g"><path d="M0 0h410v510H0z"/></clipPath><g id="A" clip-path="url(#g)"><path d="M172.988 95.93c-8.41 4.43-18.457 4.761-27.707 4.59 8.89 1.89 20.219 1.3 27.707-4.59zm0 0M174.5 84.828c-8.871-.547-19.29-.308-27.469 3.89 8.848-2.527 18.39-2.577 27.469-3.89zm0 0M145.488 95.52c6.871 1.402 15.602 2.02 22.051-1.59-7.11 1.941-14.73 1.218-22.05 1.59zm0 0"/></g><mask id="D"><g filter="url(#a)"><path fill-opacity=".302" d="M0 0h410v510H0z"/></g></mask><clipPath id="h"><path d="M0 0h410v510H0z"/></clipPath><g id="C" clip-path="url(#h)"><path d="M113.762 119.32l3.34-1.16a31.407 31.407 0 0 1-19.391 5.66l3.238-.8c4.48-.301 8.852-1.56 12.813-3.7zm0 0M112.75 109.469c1.18 0 2.398.12 3.488.172-6.18 1.289-13.289 1.09-18.77 4.39a13.99 13.99 0 0 1 2.872-2.18c3.91-1.37 8.238-1.8 12.41-2.382zm0 0M110.61 115.18l2.581-.57c-4.402 3.03-10.421 3.831-15.652 3.831.86-.312 1.73-.582 2.61-.8a29.561 29.561 0 0 0 10.46-2.461zm0 0"/></g><mask id="F"><g filter="url(#a)"><path fill-opacity=".302" d="M0 0h410v510H0z"/></g></mask><clipPath id="i"><path d="M0 0h410v510H0z"/></clipPath><g id="E" clip-path="url(#i)"><path d="M69.34 152.91c.95-.262 1.93-.422 2.86-.691a42.143 42.143 0 0 1-15.462 5.332c.903-.45 1.82-.82 2.703-1.27a35.827 35.827 0 0 0 9.899-3.37zm0 0M69.82 146.79c1.11-.099 2.23-.2 3.38-.2-5.86 1.832-11.821 2.84-17.63 4.87.89-.64 1.84-1.19 2.828-1.64 3.883-1.242 7.75-2.02 11.422-3.03zm0 0M70.05 139.852a28.806 28.806 0 0 1 3.24-.274c-5.63 1.774-11.02 3.883-16.778 5.16.867-.547 1.879-1.008 2.77-1.488 3.687-.922 7.16-2.2 10.769-3.398zm0 0"/></g><mask id="H"><g filter="url(#a)"><path fill-opacity=".302" d="M0 0h410v510H0z"/></g></mask><clipPath id="j"><path d="M0 0h410v510H0z"/></clipPath><g id="G" clip-path="url(#j)"><path d="M88.55 214.82c0-.308 0-.629.079-.941.082-.617.07-1.5.16-2.64.09-1.137.121-2.52.191-4.11.07-1.578.079-3.367.13-5.32.05-1.95 0-4.028 0-6.29 0-2.257-.13-4.578-.15-7.058-.019-2.48-.269-4.941-.39-7.48-.09-1.282-.12-2.56-.261-3.84l-.418-3.86c-.27-2.582-.54-5.172-.82-7.73a493.09 493.09 0 0 0-.4-3.79c-.14-1.25-.241-2.48-.3-3.71-.16-2.461-.281-4.832-.39-7.063-.11-2.226 0-4.367 0-6.328 0-1.969.12-3.762.199-5.351.082-1.579.148-3.028.25-4.13.23-2.269.39-3.558.39-3.558v3.59c0 1.129.07 2.52.11 4.11.039 1.577.05 3.37.21 5.32.16 1.949.239 4.03.372 6.27.129 2.237.43 4.558.66 6.98.219 2.418.617 4.918.879 7.46l.449 3.829c.14 1.3.281 2.601.43 3.898l.39 3.91c.13 1.293.149 2.59.22 3.883.12 2.57.28 5.11.23 7.57-.051 2.45 0 4.829-.122 7.059-.117 2.23-.207 4.379-.378 6.32-.168 1.95-.34 3.75-.532 5.328-.187 1.57-.398 2.961-.547 4.032-.37 2.37-.64 3.64-.64 3.64zm0 0M132.078 195.379s.192-.23.531-.688c.34-.453.801-1.16 1.371-2.02a34.609 34.609 0 0 0 1.829-3.343c.64-1.316 1.27-2.848 1.89-4.547a46.44 46.44 0 0 0 1.582-5.57c.18-1.012.438-2.02.57-3.11.13-1.09.31-2.16.399-3.28.09-1.122.129-2.25.2-3.4.07-1.151 0-2.32 0-3.5 0-1.183-.169-2.35-.25-3.542a34.995 34.995 0 0 0-.45-3.55 518.85 518.85 0 0 1-1.012-7.18c-.168-1.18-.328-2.36-.5-3.52-.168-1.16-.187-2.34-.277-3.488-.16-2.29-.383-4.512-.41-6.61-.031-2.101-.063-4.09-.082-5.91-.02-1.832.082-3.512.133-5.043.046-1.527.117-2.77.168-3.84.05-1.066.128-1.898.171-2.457.04-.562.079-.883.079-.883s0 1.223.14 3.352c0 1.012.11 2.352.192 3.828.078 1.48.109 3.152.27 4.961.16 1.82.269 3.77.417 5.852a31.28 31.28 0 0 0 .313 3.18l.359 3.308c.117 1.121.219 2.262.367 3.422.152 1.16.383 2.328.57 3.508.372 2.37.75 4.77 1.122 7.171.171 1.22.378 2.442.43 3.668.05 1.23.21 2.454.21 3.672v3.621c0 1.2-.21 2.36-.308 3.508-.102 1.153-.352 2.281-.532 3.38-.18 1.1-.511 2.151-.761 3.183a38.381 38.381 0 0 1-1.97 5.636 33.896 33.896 0 0 1-2.3 4.48 38.605 38.605 0 0 1-2.16 3.212c-.5.672-1.027 1.3-1.61 1.898zm0 0"/></g><mask id="J"><g filter="url(#a)"><path fill-opacity=".302" d="M0 0h410v510H0z"/></g></mask><clipPath id="k"><path d="M0 0h410v510H0z"/></clipPath><g id="I" clip-path="url(#k)"><path d="M331.86 290.61s-4.032-4.712-4.032-8.419c-.008-.011-2.93 4.38 4.031 8.418zm0 0"/></g><mask id="L"><g filter="url(#a)"><path fill-opacity=".302" d="M0 0h410v510H0z"/></g></mask><clipPath id="l"><path d="M0 0h410v510H0z"/></clipPath><g id="K" clip-path="url(#l)"><path d="M338.82 280.059s-3.64-5.04-6.21-2.5c-.079.632 6.21 2.5 6.21 2.5zm0 0"/></g><mask id="N"><g filter="url(#a)"><path fill-opacity=".102" d="M0 0h410v510H0z"/></g></mask><clipPath id="m"><path d="M0 0h410v510H0z"/></clipPath><g id="M" clip-path="url(#m)"><path d="M82.469 130.559a60.477 60.477 0 0 0-.63 5.62c-1.21 17.462 2.192 38.88.821 51.282-1.37 12.398 1.828 33.68 5.89 27.367a182.675 182.675 0 0 0-.109-46.129 196.727 196.727 0 0 1-1.851-33.18l.219-3.87c-1.008-1.25-1.598-1.868-1.598-1.868zm0 0"/></g><mask id="P"><g filter="url(#a)"><path fill-opacity=".102" d="M0 0h410v510H0z"/></g></mask><clipPath id="n"><path d="M0 0h410v510H0z"/></clipPath><g id="O" clip-path="url(#n)"><path d="M132.078 195.379s13.113-13.3 8.293-39.117a172.11 172.11 0 0 1-2.473-33.973l.051-2.36a58.954 58.954 0 0 0-3.847-5.898c-.211 2.89-.391 6.047-.512 9.559-.64 17.898 5.191 38.48 3.308 50.96a126.922 126.922 0 0 1-4.82 20.829zm0 0"/></g><mask id="R"><g filter="url(#a)"><path fill-opacity=".102" d="M0 0h410v510H0z"/></g></mask><clipPath id="o"><path d="M0 0h410v510H0z"/></clipPath><g id="Q" clip-path="url(#o)"><path d="M203.578 199.172c9.082.668 11.434-9.422 17.152-33.293 4.93-20.598 7.11-33.18 9.13-41.219-7.16 20.602-14.34 62.98-25.27 61.39-3.031-.44-9.418-24.44-6.38-45.73.669-4.699 16.47 1.008 23.2-14.12 1.2-2.759 1.66-5.79 1.34-8.79-.488 4.762.05 7.918-5.719 10.8-7.57 3.778-13.953 6.22-20.25-2.35-.781-1.008 20.168-7.82 16.39-14.63 2.52 3.532-18.57 14.18-18.91 12.098-2.152-13.11-3.78-16.637-3.78-16.637s3.03 32.95 2.019 43.707c-1.02 10.762 1.871 48.082 11.078 48.774zm0 0"/></g><mask id="T"><g filter="url(#a)"><path fill-opacity=".102" d="M0 0h410v510H0z"/></g></mask><clipPath id="p"><path d="M0 0h410v510H0z"/></clipPath><g id="S" clip-path="url(#p)"><path d="M306.531 246.79c-4.031 6.98-6.05 7.48-8.133 7.69-7.59.711-19.668 13.622-26.726 11.598l-2.024-1.008-5.546-19.672s-3.532-12.668-3.364-32.109c.09-10.789 4.774-29.66 6.39-41.36.84-6.05 12.102-42.03 13.11-51.609 2.364-22.718 4.16-31.36 8.403-58 .078-.48.14-1.011.187-1.43v-.081s-6.558 17.652-8.566 34.8c-2.024 17.153-9.082 44.891-15.133 65.063-6.05 20.168-13.11 62.707-3.027 103.058 3.898 15.63 13.109 39 12.097 27.899 0 0-.68-11.43-.68-14.45 0-3.03 15.79-14.808 21.512-16.827 5.719-2.024 13.11 1.347 13.11 1.347s-4.38-3.37.328-10.758c4.71-7.39 16.222-18.242 27.992-24.972l.32-.188c-13.12 6.32-26.812 15.11-30.25 21.008zm0 0"/></g><mask id="V"><g filter="url(#a)"><path fill-opacity=".502" d="M0 0h410v510H0z"/></g></mask><linearGradient id="r" x1="-1682.756" x2="-1694.763" y1="2184.121" y2="2139.093" gradientTransform="matrix(3.1362 0 0 -3.1362 5554.397 6889.314)" gradientUnits="userSpaceOnUse"><stop offset=".36" stop-color="#0074d1"/><stop offset=".87" stop-color="#00afd1" stop-opacity="0"/></linearGradient><clipPath id="q"><path d="M0 0h410v510H0z"/></clipPath><g id="U" clip-path="url(#q)"><path fill="url(#r)" d="M261.41 205.078c1.36-10.598 4.469-24.039 5.73-33.148.84-6.051 12.098-42.032 13.11-51.61 2.36-22.718 4.16-31.36 8.398-58 3.704-23.199-13.187-33.539-27.226-26.898-14.043 6.637-16.89 33.156-19.5 45.726-3.223 15.493-3.703 20.172-11.774 42.704-6 16.77-11.976 49.5-20.168 59.359zm0 0"/></g></defs><use mask="url(#t)" xlink:href="#s"/><use mask="url(#v)" xlink:href="#u"/><use mask="url(#x)" xlink:href="#w"/><use mask="url(#z)" xlink:href="#y"/><use mask="url(#B)" xlink:href="#A"/><use mask="url(#D)" xlink:href="#C"/><use mask="url(#F)" xlink:href="#E"/><use mask="url(#H)" xlink:href="#G"/><use mask="url(#J)" xlink:href="#I"/><use mask="url(#L)" xlink:href="#K"/><use mask="url(#N)" xlink:href="#M"/><use mask="url(#P)" xlink:href="#O"/><use mask="url(#R)" xlink:href="#Q"/><use mask="url(#T)" xlink:href="#S"/><use mask="url(#V)" xlink:href="#U"/></svg>