<svg xmlns="http://www.w3.org/2000/svg" xmlns:xlink="http://www.w3.org/1999/xlink" viewBox="0 0 410 510"><defs><filter id="a" width="100%" height="100%" x="0%" y="0%" filterUnits="objectBoundingBox"><feColorMatrix in="SourceGraphic" values="0 0 0 0 1 0 0 0 0 1 0 0 0 0 1 0 0 0 1 0"/></filter><mask id="t"><g filter="url(#a)"><path fill-opacity=".851" d="M0 0h410v510H0z"/></g></mask><linearGradient id="c" x1="205" x2="205" y1="449.958" y2="60.042" gradientUnits="userSpaceOnUse"><stop offset="0" stop-color="#fff" stop-opacity="0"/><stop offset=".427" stop-color="#d0b5b3"/><stop offset="1" stop-color="#d0b5b3"/></linearGradient><clipPath id="b"><path d="M0 0h410v510H0z"/></clipPath><g id="s" clip-path="url(#b)"><path fill="url(#c)" d="M223.07 449.96c-5.07-14.01-26.02-39.03-46.93-59.01-20.91-19.981-29.949-19.962-56.69-43.68-24.63-21.84-26.59-29.11-35.321-38.098-14.867-15.332-23.7-28.352-37.64-46.934-5.009-6.668-37.91-27.43-38.098-29.277-1.63-15.102 26.718-25.41 53.668-12.082 5.453 2.7 21.14 11.082 28.113 22.543 9.988 5.328 15.867 11.539 22.066 15.547C105.73 203.672 81.391 151.3 78.86 142.8c-6-20.172-8.02-28.32-11.148-52.973-3.133-24.656 8.687-32.527 22.527-28.95 13.84 3.583 19.051 29.743 23.32 40.731 5.27 13.63 7.43 18.282 15.493 36.25 8.058 17.961 34.84 73.5 46.18 69.403 3.64-1.32-6.45-40.89-7.31-57.57-.862-16.672 3.15-23.114 9.638-29.66 6.492-6.544 35.78-4.321 38.57 2.347a160.603 160.603 0 0 1 7.05 24.441c1.86-5.28 4.65-11.242 8.962-14.718 8.93-7.293 27.82-2.051 33.02 2.636 2.28 2.051 4.46 7.07 6.308 13.942.703-1.301 1.133-1.961 1.133-1.961l13.09 1.18c13.09 1.19 26.398 6.703 30.359 23.23 3.96 16.531 8.02 40.812 8.02 55.02 0 16.12 5.14 53.132 7.59 78.3.929 9.36 12.19 59.281 20.448 84.262 8.551 25.867 49.57 59.48 49.57 59.48zm0 0"/></g><mask id="v"><g filter="url(#a)"><path fill-opacity=".502" d="M0 0h410v510H0z"/></g></mask><clipPath id="d"><path d="M0 0h410v510H0z"/></clipPath><g id="u" clip-path="url(#d)"><path fill="#fff" stroke="#000" stroke-width=".25" d="M30.61 233.262c-.15-.032-.31-.051-.481-.082-4.457-2.54-9.86-3.602-14.84-2.02-6.18 1-6.61-.082-6.82.461-.207.55-.18 1.07 2.23 2.957.02-.008.04-.02.07-.039.512.531 1.051 1.02 1.622 1.48 4.34 2.922 20.5 15.04 21.507 15.282 0 0 7.114-8.473 2.032-13.832a23.945 23.945 0 0 0-5.32-4.207zm0 0"/></g><mask id="x"><g filter="url(#a)"><path fill-opacity=".502" d="M0 0h410v510H0z"/></g></mask><clipPath id="e"><path d="M0 0h410v510H0z"/></clipPath><g id="w" clip-path="url(#e)"><path fill="#fff" stroke="#000" stroke-width=".25" d="M98.77 79.23c.359-.109.68-.32.93-.609.57-.672-.419-5.512-3.169-9.851-.062-.04-.12-.079-.18-.11-2.601-4.012-6.64-7.719-12.5-7.832C74.5 60.602 70.079 67.09 70.84 74.16l.12.02a16.842 16.842 0 0 0 2.38 6.91l.14.3s1.098-.402 2.79-.82c.03-.058.058-.11.082-.172 3.668-1.07 9.82-2.52 14.058-2 4.79.704 7.05 1.192 8.34.84"/></g><mask id="z"><g filter="url(#a)"><path fill-opacity=".302" d="M0 0h410v510H0z"/></g></mask><clipPath id="f"><path d="M0 0h410v510H0z"/></clipPath><g id="y" clip-path="url(#f)"><path d="M96.379 159.09a30.03 30.03 0 0 1-5.098-.25c10.38 3.09 22.938-1.48 32.2-6.059-1.141.34-2.29.688-3.461 1.117-7.301 3.16-15.79 5.852-23.641 5.192zm0 0M103.672 166.488l-4.703 1.203c8.222-.59 19.21-3.191 25.57-8.363a51.995 51.995 0 0 1-3.418 1.621c-4.98 2.82-11.57 4.68-17.45 5.54zm0 0M95.3 151.89a58.388 58.388 0 0 0-4.152 1.75c9.442-2.93 19.711-3.468 29.422-5.699-1.52 0-3.05.149-4.648.25-6.774 1.32-13.863 2.028-20.621 3.7zm0 0M91.11 136.762c-1.31.539-2.54 1.09-3.72 1.629 8.81-2 17.88-5.47 27.04-5.582a23.036 23.036 0 0 0-4.371-.36c-6.457.672-12.75 2.723-18.95 4.313zm0 0M95.96 88.621c-5 .578-10.1 2.348-14.948 3.719-1.223.55-2.34 1.012-3.383 1.601 7.371-1.77 15.312-5.25 23.062-4.793-1.55-.359-3.14-.539-4.73-.527zm0 0"/></g><mask id="B"><g filter="url(#a)"><path fill-opacity=".302" d="M0 0h410v510H0z"/></g></mask><clipPath id="g"><path d="M0 0h410v510H0z"/></clipPath><g id="A" clip-path="url(#g)"><path d="M181.73 129.559c8.36 2.582 17.532 1.18 25.86-.547-7.711 3.25-18.078 4.629-25.86.547zm0 0M181.59 121.41c7.941-2.02 17.41-3.582 25.531-1.148-8.422-.793-17.02.777-25.531 1.148zm0 0M206.559 124.531c-5.98 2.438-13.778 4.469-20.22 2.309 6.75.539 13.532-1.39 20.22-2.309zm0 0"/></g><mask id="D"><g filter="url(#a)"><path fill-opacity=".302" d="M0 0h410v510H0z"/></g></mask><clipPath id="h"><path d="M0 0h410v510H0z"/></clipPath><g id="C" clip-path="url(#h)"><path d="M241.52 141.102h-3.25a28.958 28.958 0 0 0 18.59-.782l-3.07.258a28.903 28.903 0 0 1-12.27.524zm0 0M239.5 132.16c-1.02.36-2.05.82-2.98 1.18 5.77-.7 11.921-2.969 17.66-1.711a12.34 12.34 0 0 0-3.149-1.05c-3.832-.04-7.73.87-11.531 1.581zm0 0M243.07 136.559l-2.422.261c4.73 1.34 10.223.27 14.793-1.27-.84-.03-1.68 0-2.511.071-3.2.91-6.54 1.23-9.86.938zm0 0"/></g><mask id="F"><g filter="url(#a)"><path fill-opacity=".302" d="M0 0h410v510H0z"/></g></mask><clipPath id="i"><path d="M0 0h410v510H0z"/></clipPath><g id="E" clip-path="url(#i)"><path d="M288.07 163.398c-.93.09-1.789.274-2.699.364a39.4 39.4 0 0 0 15.059-.57c-.93-.102-1.86-.102-2.79-.204-3.14.614-6.37.742-9.57.41zm0 0M285.629 158.309c-.98.293-1.98.582-2.969.93 5.649-.38 11.149-1.489 16.73-1.68a15.706 15.706 0 0 0-3.011-.54c-3.688.31-7.258.95-10.75 1.29zm0 0M283.11 152.398c-.97.23-1.93.512-2.872.852 5.422-.352 10.774-.328 16.14-1.14-.929-.188-1.956-.27-2.878-.36-3.48.43-6.89.5-10.39.648zm0 0"/></g><mask id="H"><g filter="url(#a)"><path fill-opacity=".302" d="M0 0h410v510H0z"/></g></mask><clipPath id="j"><path d="M0 0h410v510H0z"/></clipPath><g id="G" clip-path="url(#j)"><path d="M284.3 217.129s-.081-.3-.222-.84c-.137-.539-.328-1.36-.598-2.367-.28-1.012-.53-2.262-.87-3.723-.34-1.46-.65-3.039-1.02-4.8-.371-1.758-.692-3.72-1.102-5.7-.41-1.98-.668-4.168-1.058-6.379-.39-2.199-.59-4.52-.93-6.84-.14-1.171-.328-2.34-.43-3.52-.09-1.179-.18-2.382-.261-3.57-.2-2.39-.63 2.43-.829.079-.09-1.18-.19-2.348-.28-3.5-.09-1.149-.2-2.297-.348-3.418a692.01 692.01 0 0 0-.852-6.512c-.29-2.078-.73-3.96-1.04-5.738-.32-1.781-.75-3.38-1.1-4.801-.34-1.422-.65-2.672-.93-3.719l-.93-3.16s.2 1.188.621 3.238c.188 1.032.36 2.313.598 3.72.23 1.41.531 3.062.722 4.843.188 1.777.47 3.719.73 5.75.25 2.039.388 4.2.599 6.43.199 2.226.289 4.558.48 6.91.07 1.168.398-4.864.48-3.723.079 1.14.18 2.402.27 3.61l.309 3.613c.101 1.199.312 2.379.46 3.558.34 2.352.622 4.649 1.09 6.89.47 2.24.813 4.38 1.313 6.38.5 2.012.93 3.922 1.418 5.66.488 1.738.93 3.34 1.39 4.73.461 1.391.86 2.61 1.192 3.61.656 2.172 1.129 3.289 1.129 3.289zm0 0M241.59 206.91s-.219-.18-.602-.531c-.379-.348-.93-.93-1.59-1.617a32.687 32.687 0 0 1-2.226-2.711 43.553 43.553 0 0 1-4.863-8.582c-.329-.93-.739-1.77-1.047-2.707-.313-.953-.64-1.864-.934-2.903-.289-1.039-.5-2.02-.758-3.05-.261-1.028-.37-2.098-.57-3.168-.2-1.07-.238-2.172-.379-3.25a31.896 31.896 0 0 1-.2-3.29c-.081-2.242-.421 2.79-.5.54-.062-1.11-.1-2.192-.151-3.27-.051-1.082-.22-2.16-.329-3.223-.242-2.097-.421-4.136-.75-6.046-.332-1.91-.64-3.723-.93-5.372-.292-1.652-.671-3.16-.933-4.492-.258-1.328-.59-2.5-.816-3.457-.23-.96-.442-1.691-.582-2.203l-.211-.77.441 3.051c.14.93.3 2.16.48 3.5.188 1.352.438 2.871.598 4.54.16 1.66.403 3.472.614 5.382.136.93.187 1.918.257 2.93.07 1 .16 2.02.23 3.059.071 1.039.192 2.09.24 3.16.062 1.07.062 2.172.081 3.27.059 2.21.371-2.79.45-.528 0 1.129.1 2.277.23 3.398.129 1.121.219 2.258.43 3.352.199 1.098.44 2.187.652 3.27a25.68 25.68 0 0 0 .93 3.128c.34 1.02.707 2.008 1.058 2.961.352.957.828 1.86 1.219 2.79a40.56 40.56 0 0 0 2.793 4.769 34.958 34.958 0 0 0 2.84 3.66 40.17 40.17 0 0 0 2.5 2.54 23.1 23.1 0 0 0 1.777 1.44c.172.16.352.301.55.43zm0 0"/></g><mask id="J"><g filter="url(#a)"><path fill-opacity=".102" d="M0 0h410v510H0z"/></g></mask><clipPath id="k"><path d="M0 0h410v510H0z"/></clipPath><g id="I" clip-path="url(#k)"><path d="M275.219 146.988a43.865 43.865 0 0 1 1.531 4.98c4.059 15.61 4.871 28.372 8.23 39.372 3.36 10.988 4.06 30.808-.69 25.781a169.148 169.148 0 0 1-7.74-41.82c-.59-11.27-2.28-14.692-4.222-23.14l-.86-3.47c.704-1.3 1.134-1.96 1.134-1.96zm0 0"/></g><mask id="L"><g filter="url(#a)"><path fill-opacity=".102" d="M0 0h410v510H0z"/></g></mask><clipPath id="l"><path d="M0 0h410v510H0z"/></clipPath><g id="K" clip-path="url(#l)"><path d="M170.73 152.79c1.86 18.062 9.758 50.448 10.54 56.46.78 6.012-9.66 11.34-15.329.46-3.34-6.382-21.953-34.8-28.812-50.651a145.626 145.626 0 0 1-4.89-14.329c10.44 22.301 32.87 66.18 43 62.508 3.64-1.316-6.45-40.886-7.31-57.566-.859-16.672 3.15-23.113 9.641-29.66-.03.008-8.699 14.738-6.84 32.777zm0 0"/></g><mask id="N"><g filter="url(#a)"><path fill-opacity=".102" d="M0 0h410v510H0z"/></g></mask><clipPath id="m"><path d="M0 0h410v510H0z"/></clipPath><g id="M" clip-path="url(#m)"><path d="M241.59 206.91s-14.399-2.601-14.41-26.789a160.352 160.352 0 0 0-3.551-31.18l-.45-2.132a54.244 54.244 0 0 1 2.493-6c.68 2.582 1.379 5.453 2.09 8.57 3.617 16.101 2.078 28.52 5.91 39.492a117.574 117.574 0 0 0 7.918 18.04zm0 0"/></g><mask id="P"><g filter="url(#a)"><path fill-opacity=".102" d="M0 0h410v510H0z"/></g></mask><clipPath id="n"><path d="M0 0h410v510H0z"/></clipPath><g id="O" clip-path="url(#n)"><path d="M68.8 225.05c5.321 2.938 17.43 9.06 20.91 19.36 8.13 2.48 15.49 9.762 22.302 14.102-4.09-34.782-15.14-67.473-22.934-90.551L90 166.34s16.52 36.87 23.25 73.351c6.73 36.48-2.148 44.36-3.078 37.848-.934-6.508-6.043-12.55-11.621-17.66-5.582-5.11-8.36-9.29-12.551-6.969 0 0 2.79-7.898-2.79-12.082-4.91-3.719-16.03-18.117-29.51-23 5.109-.25 9.812 4.344 15.1 7.223zm0 0"/></g><mask id="R"><g filter="url(#a)"><path fill-opacity=".302" d="M0 0h410v510H0z"/></g></mask><clipPath id="o"><path d="M0 0h410v510H0z"/></clipPath><g id="Q" clip-path="url(#o)"><path d="M76.719 285.75s3.101-4.781 2.672-8.16c-.04 0 3.129 3.672-2.672 8.16zm0 0"/></g><mask id="T"><g filter="url(#a)"><path fill-opacity=".302" d="M0 0h410v510H0z"/></g></mask><clipPath id="p"><path d="M0 0h410v510H0z"/></clipPath><g id="S" clip-path="url(#p)"><path d="M69.059 276.922s2.722-5.063 5.37-3.012c.141.57-5.37 3.012-5.37 3.012zm0 0"/></g><mask id="V"><g filter="url(#a)"><path fill-opacity=".502" d="M0 0h410v510H0z"/></g></mask><linearGradient id="r" x1="-1498.777" x2="-1508.651" y1="-1684.435" y2="-1635.066" gradientTransform="matrix(-3.1362 0 0 3.1362 -4596.988 5356.145)" gradientUnits="userSpaceOnUse"><stop offset=".36" stop-color="#0074d1"/><stop offset=".87" stop-color="#00afd1" stop-opacity="0"/></linearGradient><clipPath id="q"><path d="M0 0h410v510H0z"/></clipPath><g id="U" clip-path="url(#q)"><path fill="url(#r)" d="M78.86 142.781c-6-20.172-8.02-28.32-11.15-52.972-3.132-24.66 8.688-32.528 22.528-28.95 13.84 3.582 19.051 29.743 23.32 40.73 5.27 13.63 7.43 18.282 15.493 36.25 7.078 15.802 28.347 60.02 41.168 68.282l-59.66 40.89c-8.23-50.683-29.348-96.32-31.7-104.23zm0 0"/></g></defs><use mask="url(#t)" xlink:href="#s"/><use mask="url(#v)" xlink:href="#u"/><use mask="url(#x)" xlink:href="#w"/><use mask="url(#z)" xlink:href="#y"/><use mask="url(#B)" xlink:href="#A"/><use mask="url(#D)" xlink:href="#C"/><use mask="url(#F)" xlink:href="#E"/><use mask="url(#H)" xlink:href="#G"/><use mask="url(#J)" xlink:href="#I"/><use mask="url(#L)" xlink:href="#K"/><use mask="url(#N)" xlink:href="#M"/><use mask="url(#P)" xlink:href="#O"/><use mask="url(#R)" xlink:href="#Q"/><use mask="url(#T)" xlink:href="#S"/><use mask="url(#V)" xlink:href="#U"/></svg>