<svg xmlns="http://www.w3.org/2000/svg" xmlns:xlink="http://www.w3.org/1999/xlink" viewBox="0 0 410 510"><defs><filter id="a" width="100%" height="100%" x="0%" y="0%" filterUnits="objectBoundingBox"><feColorMatrix in="SourceGraphic" values="0 0 0 0 1 0 0 0 0 1 0 0 0 0 1 0 0 0 1 0"/></filter><mask id="t"><g filter="url(#a)"><path fill-opacity=".851" d="M0 0h410v510H0z"/></g></mask><linearGradient id="c" x1="513.43" x2="513.43" y1="478.524" y2="31.476" gradientTransform="matrix(-1 0 0 1 718.43 0)" gradientUnits="userSpaceOnUse"><stop offset="0" stop-color="#fff" stop-opacity="0"/><stop offset=".427" stop-color="#d0b5b3"/><stop offset="1" stop-color="#d0b5b3"/></linearGradient><clipPath id="b"><path d="M0 0h410v510H0z"/></clipPath><g id="s" clip-path="url(#b)"><path fill="url(#c)" d="M112.36 319.559c4.242 3.53 3.82-13.598 2.39-30.2-1.43-16.597-.16-28.058-2.012-40.53-1.847-12.47-15.199-27.18-24.066-49.88-8.863-22.71-22.16-35.328-29.242-49.199-7.09-13.86-3.692-23.82 12.261-30.441 15.95-6.618 27.11 3.511 34.61 12.691 7.488 9.18 22.36 22.328 35.398 45.41 13.031 23.078 19.09 37.54 27.41 37.809 8.32.27 5.73-12.469 4.532-20.559-1.442-9.84-6.121-44.21-8.43-62.52-2.57-20.378-1.59-37.41-5.98-61.53-4.86-26.758 1.84-38.86 13.269-39.13 14.36-.34 22.73 8.641 25.07 19.5 2.34 10.86 3.95 20.348 7.91 40.7 1.25 6.441 4.23 17.57 7.27 28.25 10.922.922 14.84-.918 21.18 1.75 10.511 4.43 22.449 4.16 29.289 7.61 4.472 2.28 9.87 15.839 13.89 34.51 4.16 1.65 8.621 3.372 11.43 4.391 6.82 2.43 18.89 7.868 20.14 16.149s4.16 20.172 2.59 43.082c-1.57 22.898 6.243 42.469 8.79 63.207 2.562 20.73 8.171 80.883 12.82 101.562 4.66 20.68 28.781 73.118 28.781 73.118l-3.52-7.18 6.86 15.93-187.531 4.492c-2.14-2.551-31.309-26.79-46.758-43.57-15.45-16.782-54.152-47.56-63.3-60.34-9.15-12.77-8.72-38.77-16.38-54.7l-4.16-14.632c-5.25-14.91 1.57-23.528 7.52-36.797l.449-.864c5.95-13.27 5.37-20.949 6.02-35.257.59-12.52 9.82-19.082 21.82-11.942 11.43 6.832 17.37 21.551 18.898 34.02.82 6.86.871 13.922 1.172 20.781.281 6.238-3.41 13.031-2.738 18.922.25 2.039 12.347 25.387 12.347 25.387zm0 0"/></g><mask id="v"><g filter="url(#a)"><path fill-opacity=".502" d="M0 0h410v510H0z"/></g></mask><clipPath id="d"><path d="M0 0h410v510H0z"/></clipPath><g id="u" clip-path="url(#d)"><path fill="#fff" stroke="#000" stroke-width=".25" d="M61.34 229.102c.101-.801.262-1.602.48-2.383a.214.214 0 0 1-.082-.047c.434-3.402.903-3.711 1.551-3.863.64-.149-.148.89 4.39 6.242 4.391 3.828 6.5 9.59 6.65 15.347.07.192.14.372.21.543.04 2.54-.289 5.07-.969 7.52-2.191 7.96-14.41 6.05-14.41 6.05-.36-1.1 1.899-23.57 2.18-29.41zm0 0"/></g><mask id="x"><g filter="url(#a)"><path fill-opacity=".502" d="M0 0h410v510H0z"/></g></mask><clipPath id="e"><path d="M0 0h410v510H0z"/></clipPath><g id="w" clip-path="url(#e)"><path fill="#fff" stroke="#000" stroke-width=".25" d="M161.41 47.172a15.8 15.8 0 0 0 1.86 7.27l.109.308s1.21-.441 3-.879c.043-.082.09-.152.133-.223 3.988-1.148 10.699-2.75 15.18-2.226 5.038.68 6.398 1.2 7.769.789h1.02c.39-.14.75-.36 1.039-.652.652-.707.07-5.77-2.418-10.297-.032-.024-.07-.043-.102-.07-2.379-4.212-6.32-8.114-12.55-8.16-9.88-.16-15.25 6.698-15.079 14.09"/></g><mask id="z"><g filter="url(#a)"><path fill-opacity=".302" d="M0 0h410v510H0z"/></g></mask><clipPath id="f"><path d="M0 0h410v510H0z"/></clipPath><g id="y" clip-path="url(#f)"><path d="M99.11 182.52c-1.758.77-3.59 1.39-5.462 1.851 12.051-1.133 23.172-11.11 30.883-19.75-1.043.82-2.082 1.649-3.12 2.59-6.2 6.39-13.891 12.73-22.302 15.309zm0 0M109.75 187.172c-1.5 1.039-2.89 2.078-4.379 3.2 8.309-4.032 18.59-11.321 23.008-19.392-.938 1.098-1.899 2.079-2.867 3.122-3.953 5.078-10.043 9.668-15.762 13.07zm0 0M94.96 175.52a62.879 62.879 0 0 0-3.589 3.55c8.57-6.992 19.008-11.84 28.14-18.199-1.562.649-3.12 1.418-4.73 2.2-6.41 4.19-13.48 7.87-19.82 12.449zm0 0M91.281 166.79a139.638 139.638 0 0 0-3.222 3.26c8.312-5.76 16.27-13.14 25.722-17.128-1.61.328-3.18.816-4.691 1.45-6.371 3.417-12.031 8.179-17.809 12.417zm0 0M61.441 132.512c-1.14 1.097-2.18 2.18-3.222 3.258 8.312-5.758 16.261-13.141 25.71-17.13-1.6.329-3.167.82-4.679 1.45-6.379 3.41-12.04 8.172-17.809 12.422zm0 0M185.59 60.04c-5.621.23-11.43 1.8-16.969 2.92-1.41.509-2.691.95-3.902 1.509 8.312-1.38 17.492-4.61 26.09-3.469-1.688-.52-3.45-.84-5.22-.96zm0 0"/></g><mask id="B"><g filter="url(#a)"><path fill-opacity=".302" d="M0 0h410v510H0z"/></g></mask><clipPath id="g"><path d="M0 0h410v510H0z"/></clipPath><g id="A" clip-path="url(#g)"><path d="M176.059 138.73c9.57 2.079 19.632-.39 28.77-3.12-8.298 4.359-19.727 6.921-28.77 3.12zm0 0M174.55 127.07c8.641-3.011 19.04-5.66 28.329-3.75-9.457-.09-18.918 2.508-28.328 3.75zm0 0M172.43 118.21c8.64-3.01 19.039-5.67 28.332-3.76-9.422-.098-18.922 2.5-28.332 3.76zm0 0M203.23 130.77c-6.421 3.289-14.91 6.32-22.308 4.539 7.578-.09 14.937-2.899 22.308-4.54zm0 0"/></g><mask id="D"><g filter="url(#a)"><path fill-opacity=".302" d="M0 0h410v510H0z"/></g></mask><clipPath id="h"><path d="M0 0h410v510H0z"/></clipPath><g id="C" clip-path="url(#h)"><path d="M250.738 145.621l-3.629-.25c6.7 2.41 14 2.559 20.782.41l-3.442.059c-4.527.922-9.21.84-13.71-.219zm0 0M249.121 135.531c-1.16.328-2.351.778-3.41 1.117 6.48-.378 13.508-2.5 19.84-.707a14.276 14.276 0 0 0-3.442-1.453c-4.257-.258-8.68.442-12.988 1.043zm0 0M252.82 140.648l-2.718.122c5.199 1.82 11.43 1.039 16.628-.418a23.216 23.216 0 0 0-2.808-.082c-3.652.808-7.41.94-11.102.378zm0 0"/></g><mask id="F"><g filter="url(#a)"><path fill-opacity=".302" d="M0 0h410v510H0z"/></g></mask><clipPath id="i"><path d="M0 0h410v510H0z"/></clipPath><g id="E" clip-path="url(#i)"><path d="M294.879 191.57c-.82-.07-1.649 0-2.457-.101a28.885 28.885 0 0 0 13.508 2.16c-.801-.27-1.61-.45-2.41-.719-2.942.059-5.86-.39-8.641-1.34zm0 0M293.629 185.52c-.95.12-1.89.28-2.82.492 5.09.629 10.16.43 15.25 1.27a11.49 11.49 0 0 0-2.59-1.153c-3.367-.39-6.66-.348-9.84-.61zm0 0M292.46 178.578c-.91.07-1.82.211-2.71.41 4.89.614 9.648 1.633 14.55 1.73-.8-.366-1.698-.648-2.5-.937-3.14-.172-6.19-.781-9.34-1.203zm0 0"/></g><mask id="H"><g filter="url(#a)"><path fill-opacity=".302" d="M0 0h410v510H0z"/></g></mask><clipPath id="j"><path d="M0 0h410v510H0z"/></clipPath><g id="G" clip-path="url(#j)"><path d="M300.18 241.77s-.25-.2-.692-.61a31.75 31.75 0 0 1-1.777-1.879 34.824 34.824 0 0 1-2.45-3.172c-.421-.64-.89-1.32-1.34-2.078-.452-.761-.921-1.52-1.382-2.34l-1.367-2.632-1.32-2.868c-.82-2.011-1.66-4.16-2.383-6.39l-.559-1.7c-.16-.581-.308-1.16-.48-1.75-.29-1.18-.68-2.363-.918-3.59-.25-1.23-.543-2.433-.813-3.671-.27-1.238-.418-2.48-.629-3.73-.492-2.481-.699-5.02-1.039-7.489-.34-2.473-.633-4.96-.941-7.351-.3-2.391-.63-4.68-.918-6.848-.16-1.043-.313-2.152-.453-3.121-.14-.973-.418-2.012-.61-2.95-.78-3.773-1.53-6.89-2.007-9.081-.48-2.192-.813-3.418-.813-3.418s.14 1.277.422 3.5c.277 2.218.668 5.378 1.219 9.168.14.949.289 1.921.422 2.94.117 1.02.187 2.08.277 3.188.21 2.18.43 4.493.652 6.883.219 2.39.5 4.828.75 7.328.25 2.493.48 5.102.957 7.641.23 1.27.39 2.559.692 3.8.289 1.25.57 2.5.851 3.74.278 1.241.688 2.44 1.04 3.651.19.59.359 1.18.538 1.778l.621 1.73c.782 2.2 1.68 4.352 2.711 6.442l1.5 2.879c.54.89 1.04 1.761 1.57 2.582a38.533 38.533 0 0 0 3.137 4.257 36.306 36.306 0 0 0 2.762 2.98c.63.61 1.29 1.173 2 1.68zm0 0M256.629 221.988s-.367-.289-1.04-.867l-1.218-1.101-1.601-1.532-1.899-1.957-2.152-2.41-2.32-2.84-2.438-3.242-2.473-3.648c-.816-1.29-1.617-2.641-2.457-4.012-.84-1.367-1.57-2.89-2.39-4.379-.82-1.488-1.493-3.121-2.27-4.672-.781-1.547-1.39-3.27-2.082-4.95-.328-.839-.7-1.679-1.039-2.538-.34-.852-.578-1.75-.879-2.621-1.27-3.48-2.16-7.14-3.121-10.778-.379-1.851-.762-3.691-1.14-5.52-.38-1.831-.731-3.71-1.04-5.542a76.89 76.89 0 0 0-1.11-5.45c-.448-1.788-.839-3.558-1.26-5.308-.419-1.75-.88-3.43-1.348-5.082-.473-1.648-.883-3.277-1.41-4.84l-1.493-4.527c-.48-1.473-1.039-2.844-1.539-4.16-.96-2.692-3.558-8.582-4.262-10.09-.699-1.512 2.293 7.777 3.122 10.5.832 2.707 1.75 5.637 2.652 8.758.488 1.55.816 3.18 1.258 4.832.441 1.648.879 3.34 1.23 5.066l1.14 5.262c.38 1.77.669 3.62 1.04 5.45.37 1.831.68 3.69 1.039 5.53.36 1.84.762 3.75 1.133 5.621.976 3.7 1.91 7.418 3.226 10.957.313.883.614 1.782.922 2.66.309.883.719 1.712 1.04 2.57.741 1.692 1.378 3.411 2.222 4.993.387.809.797 1.61 1.18 2.399.378.789.777 1.57 1.226 2.308.883 1.492 1.684 2.973 2.57 4.352a114.67 114.67 0 0 0 2.653 4c.89 1.27 1.808 2.43 2.668 3.57l2.57 3.172 2.512 2.719 2.32 2.3c.738.68 1.418 1.29 2.078 1.86 1.262 1.039 2.301 1.879 3.012 2.41.367.309.758.559 1.168.777zm0 0"/></g><mask id="J"><g filter="url(#a)"><path fill-opacity=".302" d="M0 0h410v510H0z"/></g></mask><clipPath id="k"><path d="M0 0h410v510H0z"/></clipPath><g id="I" clip-path="url(#k)"><path d="M47.988 299.941s6.364.118 9.352-2.293c-.059 0-1.602 5.192-9.352 2.293zm0 0"/></g><mask id="L"><g filter="url(#a)"><path fill-opacity=".302" d="M0 0h410v510H0z"/></g></mask><clipPath id="l"><path d="M0 0h410v510H0z"/></clipPath><g id="K" clip-path="url(#l)"><path d="M51.871 287.469s6.41-.38 6.027 3.34c-.457.48-6.027-3.34-6.027-3.34zm0 0"/></g><mask id="N"><g filter="url(#a)"><path fill-opacity=".102" d="M0 0h410v510H0z"/></g></mask><clipPath id="m"><path d="M0 0h410v510H0z"/></clipPath><g id="M" clip-path="url(#m)"><path d="M281.91 196.988a270.548 270.548 0 0 0-4.582-31.918l.512-.91 3.46 1.352c.278 4.277.872 8.539 1.77 12.738 2.942 14.48 4.649 41.98 17.121 63.52-.011 0-15.32-10.551-18.28-44.782zm0 0"/></g><mask id="P"><g filter="url(#a)"><path fill-opacity=".102" d="M0 0h410v510H0z"/></g></mask><clipPath id="n"><path d="M0 0h410v510H0z"/></clipPath><g id="O" clip-path="url(#n)"><path d="M225.8 164.121c-4.26-24.172-13.679-46.14-13.1-44.121a95.97 95.97 0 0 0 10.331.25c0 .18.11.352.18.54 5.078 16.331 14.027 64.03 21.93 75.769 7.898 11.742 12.468 25.98 12.468 25.98s-24.597-17.57-31.808-58.418zm0 0"/></g><mask id="R"><g filter="url(#a)"><path fill-opacity=".102" d="M0 0h410v510H0z"/></g></mask><clipPath id="o"><path d="M0 0h410v510H0z"/></clipPath><g id="Q" clip-path="url(#o)"><path d="M155.309 204.18a137.48 137.48 0 0 1-2.16-5.97c6.05 10.661 10.523 16.86 15.94 17.071 8.31.309 5.731-12.472 4.532-20.562-1.441-9.84-6.121-44.207-8.43-62.52-1.332-10.55-1.703-20.199-2.382-30.41 1.101 11.64 3.28 30.691 6.652 42.262 5.09 17.539 10.32 62.12 9.11 76.699-1.2 14.61-14.423 5.57-23.262-16.57zm0 0"/></g><mask id="T"><g filter="url(#a)"><path fill-opacity=".102" d="M0 0h410v510H0z"/></g></mask><clipPath id="p"><path d="M0 0h410v510H0z"/></clipPath><g id="S" clip-path="url(#p)"><path d="M111.27 340.371c.558-5.902.832-8.68.832-8.68A246.059 246.059 0 0 1 99.02 305.36c-5.2-12.699-10.68-12.218-10.68-12.218s3.07-2.153 5.672-8.801a103.09 103.09 0 0 0 6.52-36.48c.488 2.32.859 4.55 1.116 6.628.82 6.864.872 13.922 1.172 20.782.282 6.242-3.41 13.03-2.742 18.921.211 2.079 12.281 25.368 12.281 25.368 4.243 3.53 3.82-13.598 2.391-30.2-1.43-16.597-.16-28.058-2.012-40.53-1.847-12.47-15.199-27.18-24.066-49.88-.32-.84-.684-1.64-1.043-2.46 5.45 6.91 10.39 17.261 16.633 24.44 12.27 14.391 10.988 24.79 14 41.34 3 16.551 7.078 57 .668 71.192-.032-.04-8.22 12.809-7.66 6.91zm0 0"/></g><mask id="V"><g filter="url(#a)"><path fill-opacity=".502" d="M0 0h410v510H0z"/></g></mask><linearGradient id="r" x1="-1608.441" x2="-1612.252" y1="2180.812" y2="2130.114" gradientTransform="matrix(-3.1356 .0629 -.0629 -3.1356 -4705.616 6977.355)" gradientUnits="userSpaceOnUse"><stop offset=".36" stop-color="#0074d1"/><stop offset=".87" stop-color="#00afd1" stop-opacity="0"/></linearGradient><clipPath id="q"><path d="M0 0h410v510H0z"/></clipPath><g id="U" clip-path="url(#q)"><path fill="url(#r)" d="M173.621 194.77c-1.441-9.84-6.121-44.211-8.43-62.52-2.57-20.379-1.59-37.41-5.98-61.531-4.86-26.758 1.84-38.86 13.27-39.13 14.359-.339 22.73 8.641 25.07 19.5 2.34 10.86 3.949 20.352 7.91 40.7 1.25 6.441 4.23 17.57 7.27 28.25h.058c.941 1.742 9.152 22 13.04 44.133 7.19 40.848 31.78 58.406 31.78 58.406l5.801 2.442-88.84-14.22c1.032-4.378-.218-11.09-.949-16.03zm0 0"/></g></defs><use mask="url(#t)" xlink:href="#s"/><use mask="url(#v)" xlink:href="#u"/><use mask="url(#x)" xlink:href="#w"/><use mask="url(#z)" xlink:href="#y"/><use mask="url(#B)" xlink:href="#A"/><use mask="url(#D)" xlink:href="#C"/><use mask="url(#F)" xlink:href="#E"/><use mask="url(#H)" xlink:href="#G"/><use mask="url(#J)" xlink:href="#I"/><use mask="url(#L)" xlink:href="#K"/><use mask="url(#N)" xlink:href="#M"/><use mask="url(#P)" xlink:href="#O"/><use mask="url(#R)" xlink:href="#Q"/><use mask="url(#T)" xlink:href="#S"/><use mask="url(#V)" xlink:href="#U"/></svg>