<svg viewBox="0 0 410 510" xmlns="http://www.w3.org/2000/svg" xmlns:xlink="http://www.w3.org/1999/xlink"><filter id="a" height="100%" width="100%" x="0%" y="0%"><feColorMatrix in="SourceGraphic" values="0 0 0 0 1 0 0 0 0 1 0 0 0 0 1 0 0 0 1 0"/></filter><mask id="b"><g filter="url(#a)"><path d="m0 0h410v510h-410z" fill-opacity=".851"/></g></mask><linearGradient id="c" gradientTransform="matrix(-1 0 0 1 -64.63 0)" gradientUnits="userSpaceOnUse" x1="-269.63" x2="-269.63" y1="492.4" y2="17.664"><stop offset="0" stop-color="#fff" stop-opacity="0"/><stop offset=".427" stop-color="#d0b5b3"/><stop offset="1" stop-color="#d0b5b3"/></linearGradient><clipPath id="d"><path d="m0 0h410v510h-410z"/></clipPath><mask id="e"><g filter="url(#a)"><path d="m0 0h410v510h-410z" fill-opacity=".502"/></g></mask><clipPath id="f"><path d="m0 0h410v510h-410z"/></clipPath><mask id="g"><g filter="url(#a)"><path d="m0 0h410v510h-410z" fill-opacity=".502"/></g></mask><clipPath id="h"><path d="m0 0h410v510h-410z"/></clipPath><mask id="i"><g filter="url(#a)"><path d="m0 0h410v510h-410z" fill-opacity=".502"/></g></mask><clipPath id="j"><path d="m0 0h410v510h-410z"/></clipPath><mask id="k"><g filter="url(#a)"><path d="m0 0h410v510h-410z" fill-opacity=".302"/></g></mask><clipPath id="l"><path d="m0 0h410v510h-410z"/></clipPath><mask id="m"><g filter="url(#a)"><path d="m0 0h410v510h-410z" fill-opacity=".302"/></g></mask><clipPath id="n"><path d="m0 0h410v510h-410z"/></clipPath><mask id="o"><g filter="url(#a)"><path d="m0 0h410v510h-410z" fill-opacity=".302"/></g></mask><clipPath id="p"><path d="m0 0h410v510h-410z"/></clipPath><mask id="q"><g filter="url(#a)"><path d="m0 0h410v510h-410z" fill-opacity=".302"/></g></mask><clipPath id="r"><path d="m0 0h410v510h-410z"/></clipPath><mask id="s"><g filter="url(#a)"><path d="m0 0h410v510h-410z" fill-opacity=".302"/></g></mask><clipPath id="t"><path d="m0 0h410v510h-410z"/></clipPath><mask id="u"><g filter="url(#a)"><path d="m0 0h410v510h-410z" fill-opacity=".102"/></g></mask><clipPath id="v"><path d="m0 0h410v510h-410z"/></clipPath><mask id="w"><g filter="url(#a)"><path d="m0 0h410v510h-410z" fill-opacity=".502"/></g></mask><linearGradient id="x" gradientTransform="matrix(-3.1362 0 0 -3.1362 -5619.026 6889.314)" gradientUnits="userSpaceOnUse" x1="-1869.08" x2="-1884.319" y1="2183.624" y2="2132.368"><stop offset=".36" stop-color="#0074d1"/><stop offset=".87" stop-color="#00afd1" stop-opacity="0"/></linearGradient><clipPath id="y"><path d="m0 0h410v510h-410z"/></clipPath><g clip-path="url(#d)" mask="url(#b)"><path d="m49.68 284.04 5.808 14.44c9.57 15.38 21.212 41.52 31.91 53.52l11.954 10.488c14.968 13.172 31.328 28.313 37.039 38.453 9.218 16.297 42.879 82.399 42.879 82.399l1.43 6.898 82.241.364 30.84.636.489.274 8.69-.09 47.86.988-.558-1.43h2.508s-7.82-17.21-15.372-38.582l-12.757-46.937a92.38 92.38 0 0 1 -1.063-11.371c-1.058-34.84 0-42.5 6.383-74.031 6.379-31.528 12.758-59.868 19.14-76.2 6.38-16.34 17.02-52.257 13.829-69.68-3.192-17.417-10.64-22.85-22.328-37.007-11.704-14.16-17.024-20.692-28.711-20.692a81.76 81.76 0 0 1 -21.98-3.261l-1.29-.5c-2.61-7.828-4.902-14.89-5.8-20.207-1.782-10.532-10.641-29.742-14.54-38.473-3.902-8.73-5.32-20.738-9.57-29.777-4.25-9.043-24.98-12.32-35.102 13.828-6.73 17.422 8.16 51.172 8.16 51.172s.18.816.512 2.226a170.091 170.091 0 0 0 -16.11-6.218c-16.3-5.45-21.273-5.45-30.491-8.348-3.989-1.25-18.61-3.813-21.442-.363-14.008-2.18-15.777-.57-18.968 4.363-5.668 8.707-.348 28.008 12.41 31.2 12.761 3.187 15.949 2.128 15.949 2.128s12.41 14.879 24.812 16.691c0 0 3.887 19.97 6.38 39.2 2.488 19.23 5.32 26.14-1.06 29.03-6.382 2.888-13.113-9.44-19.491-27.23-6.38-17.78-19.13-37.011-28-46.082-8.872-9.07-8.508-8.879-8.508-8.879s-12.051-11.28-23.75-12.37c-11.703-1.079-29.274 7.46-29.782 18.788-.359 7.801-1.242 8.59 6.2 19.23 4.96 7.052 10.449 19.813 10.449 19.813s.71.059 8.16 14.22c7.45 14.16 16.652 37.398 19.492 57.698.707 5.032 1.239 8.84 1.64 11.7 1.2 8.582-.632 11.55-1.5 13.12-7.01 12.56-12.523 28.4-12.523 28.4-14.367-4.227-23.128-18.7-23.57-20.74-1.316-5.91 1.692-13.179.723-19.558-1.051-6.972-1.88-14.133-3.473-21.031-2.969-12.45-10.539-26.77-22.937-32.469-13.032-5.96-21.7 1.719-20.93 14.54.898 14.628 2.34 22.378-2.29 36.53l-.35.93c-4.622 14.149-10.61 23.617-3.641 38.258zm250.84-132.052 4.62-1.058c-.359 5.082 7.079 16.699 7.079 16.699a32.909 32.909 0 0 0 -3.188 5.45c-1.77 3.64-1.41 14.89-1.41 14.89zm0 0" fill="url(#c)"/></g><g clip-path="url(#f)" mask="url(#e)"><path d="m56.262 204.09c-.012 0-.032-.012-.043-.02 0-3.23.43-3.59 1.062-3.8.64-.2-.07.851 5.239 5.32a19.545 19.545 0 0 1 8.742 13.73c.058.102.117.211.18.309a23.408 23.408 0 0 1 0 7.16c-1.232 7.711-13.892 7.371-13.892 7.371-.5-1-1.031-22.3-1.48-27.8.019-.758.077-1.52.19-2.27zm0 0" fill="#fff" stroke="#000" stroke-width=".25"/></g><g clip-path="url(#h)" mask="url(#g)"><path d="m238.469 36.648c-.028 2.641.562 5.25 1.722 7.633l.118.328s1.23-.43 3.082-.847c.02-.032.039-.07.058-.102 4.11-1.12 11.09-2.648 15.7-2 2.25.371 3.98.692 5.32.899a88.238 88.238 0 0 0 -.649-2.438m-.03-.031c-.802-2.988-1.97-7.102-3.028-10.64a37 37 0 0 0 -.84-2.372s-.012 0-.012-.008a23.108 23.108 0 0 0 -2.101-4.191 14.15 14.15 0 0 0 -3.618-.617c-10.152-.403-15.761 6.636-15.832 14.398m6.993 4.488-.082.082c.03-.03.05-.058.082-.082zm-.582.633.011-.011zm0 0" fill="#fff" stroke="#000" stroke-width=".25"/></g><g clip-path="url(#j)" mask="url(#i)"><path d="m147.36 79.25c1.1-2.52 5.511-3.941 10.37-4.422 2.7.274 6.711-.11 6.68.274-.031.378-.398.578-.95 1.058-.05.02-.1.05-.151.07a32.782 32.782 0 0 0 -3.97 4.032c-2.339 2.968-2.679 2.797-3.89 4.539.051-.211.11-.43.18-.64-.61.667-.899.468-1.27.718-.257.09-.55.09-.808 0-.02-.02-.04-.05-.07-.07l-.731-.368c-2.031-.75-6.898-1.78-5.39-5.191zm0 0" fill="#fff" stroke="#000" stroke-width=".25"/></g><g clip-path="url(#l)" mask="url(#k)"><path d="m126.55 150.738c-1.73.57-3.51.98-5.32 1.211 12.122.352 22.77-8.32 30.032-16.05a33.528 33.528 0 0 0 -3 2.23c-5.953 5.61-13.352 11.09-21.711 12.61zm11.04 5.992c-1.45.91-2.79 1.79-4.25 2.692 8.129-3.031 18.082-9.102 22.101-16.692-.87 1-1.8 1.88-2.71 2.782-3.68 4.59-9.532 8.547-15.141 11.218zm-15.64-13.57a45.34 45.34 0 0 0 -3.41 3.192c8.25-5.98 18.51-9.57 27.358-14.891-1.539.48-3.039 1.059-4.66 1.64-6.27 3.36-13.168 6.227-19.289 10.06zm-4.25-9.238c-1.06.969-2.13 1.918-3.06 2.879 8.06-4.781 15.669-11.223 24.97-14.07-1.57.14-3.13.43-4.65.878-6.198 2.66-11.69 6.75-17.26 10.313zm-12.4-15.312c-.89 1.378-.94.93-1.73 2.269 7.04-7.758 13.61-9.059 21.59-13.508-2.289.957-3.52 1.059-4.93 2.129-6.652 2.879-9.308 3.57-14.93 9.11zm72.802-40.462c-2.532 3.082-4 6.461-5.704 9.57a17.68 17.68 0 0 0 -.57 2.313c2.863-4.71 4.473-10.082 9.672-14.601-1.219.789-2.36 1.71-3.398 2.718zm0 0"/></g><g clip-path="url(#n)" mask="url(#m)"><path d="m226.328 126.969c8.422-.32 16.313-5.32 23.402-10.45-6.109 6.56-15.039 12.012-23.402 10.45zm-3.68-11.481c6.59-5.238 14.723-10.566 22.883-10.976-7.93 2.297-15.293 7.328-22.883 10.976zm24.692-3.488c-4.68 4.969-11.149 10.191-17.692 10.238 6.364-2 11.84-6.726 17.692-10.238zm0 0"/></g><g clip-path="url(#p)" mask="url(#o)"><path d="m271.27 119.8-3.68.63a32.455 32.455 0 0 0 20.8-4.66l-3.402.91a32.357 32.357 0 0 1 -13.718 3.12zm-4.122-9.929c-1.058.629-2.128 1.36-3.128 1.98 6.378-1.98 12.851-5.851 19.582-5.562a14.13 14.13 0 0 0 -3.762-.57c-4.309.75-8.57 2.582-12.692 4.152zm4.902 4.379-2.679.8c5.59.579 11.57-1.769 16.41-4.472-.953.14-1.883.344-2.812.582a30.37 30.37 0 0 1 -10.918 3.09zm-3.82-13.95c-.968.38-1.94.86-2.82 1.259 5.32-.547 11.13-2.938 16.352-1.188a9.89 9.89 0 0 0 -2.84-1.371c-3.492-.23-7.14.691-10.692 1.3zm-15.5-47.73c-.968.38-1.94.86-2.82 1.239 5.32-.54 11.13-2.918 16.34-1.18a9.572 9.572 0 0 0 -2.828-1.367c-3.512-.223-7.211.648-10.692 1.308zm0 0"/></g><g clip-path="url(#r)" mask="url(#q)"><path d="m347.012 180.73c-.832-.101-1.684-.07-2.524-.171a29.123 29.123 0 0 0 13.832 2.613c-.808-.313-1.64-.512-2.449-.813a25.207 25.207 0 0 1 -8.86-1.629zm-1.133-6.359a24.97 24.97 0 0 0 -2.899.45c5.2.788 10.391.699 15.57 1.699-.82-.532-1.69-.95-2.62-1.27-3.442-.5-6.82-.5-10.051-.879zm-1.027-7.34a19.7 19.7 0 0 0 -2.793.348c5 .77 9.84 1.95 14.89 2.133a23.056 23.056 0 0 0 -2.527-1.063 82.996 82.996 0 0 1 -9.57-1.418zm0 0"/></g><g clip-path="url(#t)" mask="url(#s)"><path d="m313.988 216.578s-3.25-17.816-3.539-20.137c-.289-2.32-2.89-10.203-3.48-14.171-.278-1.989-.61-4.122-.989-6.38-.359-2.269-.742-4.66-1.199-7.109-.46-2.46-.87-5.02-1.402-7.59-.527-2.57-1.059-5.203-1.578-7.82-.52-2.621-1.211-5.223-1.813-7.793l-.449-1.906c-.18-.633-.36-1.25-.527-1.883l-1.063-3.687c-.18-.614-.328-1.192-.527-1.813l-.613-1.71c-.399-1.138-.809-2.24-1.188-3.317-.793-2.133-1.531-4.184-2.21-6.063-1.38-3.75-2.622-6.847-3.45-9.027a111.489 111.489 0 0 0 -1.352-3.41s.332 1.297.961 3.539c.63 2.238 1.52 5.469 2.68 9.3l1.86 6.18 1.062 3.367.558 1.782c.16.558.31 1.18.461 1.78.598 2.411 1.297 4.868 1.84 7.438.54 2.57 1.149 5.16 1.719 7.75l6.059 28.711c.82 3.91 3.12 13.282 3.613 15.57.488 2.27 4.566 18.4 4.566 18.4zm-41.468-2.918s-.22-.55-.57-1.61c-.348-1.05-.9-2.6-1.509-4.581-.312-1-.68-2.13-1.062-3.297-.379-1.172-.7-2.512-1.059-3.902-.191-.7-.39-1.41-.601-2.13-.2-.71-.36-1.519-.547-2.312-.383-1.578-.793-3.187-1.211-4.969-.43-1.78-.711-3.558-1.063-5.449-.347-1.879-.847-3.82-1.058-5.851-.57-4.028-1.36-8.258-1.68-12.758s-.84-9.04-1.27-13.723c-.218-2.328-.44-4.687-.66-7.047-.109-1.18-.218-2.37-.332-3.562l-.168-1.778-.27-1.78-1.12-7.102c-.18-1.18-.371-2.36-.55-3.528-.18-1.172-.349-2.36-.63-3.5-1.058-4.59-1.969-9.16-3.191-13.453-.297-1.058-.578-2.129-.867-3.187l-.114-.391v-.48l-.289-.77-.277-.762c-.113-.258-.281-.52-.41-.777a18.418 18.418 0 0 0 -4.16-5.063 46.168 46.168 0 0 0 -9.57-6.378 91.273 91.273 0 0 0 -8.782-3.918c-2.672-1.063-5.012-1.864-6.941-2.532-1.938-.672-3.48-1.129-4.528-1.441l-1.61-.488 1.567.597 4.203 1.73c1.899.77 4.25 1.704 6.79 2.884 2.53 1.18 5.48 2.597 8.507 4.25a49.447 49.447 0 0 1 9.121 6.378c.38.329.73.692 1.063 1.06.316.37.68.722.988 1.062l.88 1.207c.26.402.5.82.71 1.242.129.21.238.43.34.648l.27.77.28.77v.3l.098.39c.274 1.06.543 2.13.813 3.192 1.18 4.25 1.98 8.828 3 13.379.277 1.129.43 2.3.61 3.46.179 1.161.35 2.321.53 3.49.36 2.331.707 4.66 1.059 7.01l.27 1.77.18 1.782.35 3.547c.22 2.363.45 4.71.688 7.05.442 4.692.953 9.243 1.461 13.72.512 4.48 1.29 8.741 1.973 12.76.316 2.04.848 3.97 1.27 5.86.41 1.89.847 3.7 1.308 5.43.46 1.73.969 3.383 1.41 4.95.219.792.45 1.55.668 2.292.223.73.48 1.45.711 2.129.461 1.379.883 2.672 1.29 3.86.401 1.19.831 2.269 1.19 3.19.7 1.97 1.372 3.462 1.801 4.49.399 1.038.7 1.87.7 1.87zm0 0"/></g><g clip-path="url(#v)" mask="url(#u)"><path d="m53.629 275.93s6.09-2.32 8.012-5.82c-.051 0 .437 5.671-8.012 5.82zm-.981-13.63s5.961-2.84 6.993.938c-.27.633-6.993-.937-6.993-.937zm249.364-102.82c-1.813-8.8-3.711-17.25-5.383-22.75-2.457-8.05-5.418-16.378-8.008-24v-.058l1.238.488s1.871.578 4.903 1.27c.988 3.742 2.199 8.082 3.61 12.52 3.898 12.34 3.898 14.519 6.026 15.948 2.133 1.442 6.032-2.898 6.032-2.898a21.48 21.48 0 0 0 -.36 11.25c1.43 6.531 5.68 11.98 8.16 13.828 1.418 1 3.07 1.621 4.801 1.793-1.652 0 .32 13.7-.543 22.527-1.41 14.524-8.77 29.133-8.77 29.133l-2.917-20.21s-4.07-14.4-6.653-27.872l3.461 17.54s-.347-11.25 1.41-14.887a33.01 33.01 0 0 1 3.192-5.454s-7.441-11.609-7.082-16.699l-4.617 1.063zm-73.453-98.59c3.543 15.95 3.191 9.79 6.382 13.06 0 0 1.77 4 8.149 14.519 6.379 10.52 12.058 2.902 15.95 33.761 3.89 30.848 7.44 49.72 13.472 68.95 6.027 19.23 10.636 27.582 0 22.492a182.849 182.849 0 0 1 -12.051-53.363c-2.133-30.118-6.031-43.18-8.512-52.61-1.648-6.27-9.719-11.699-19.73-16.3-.328-1.41-.508-2.227-.508-2.227s-12.3-27.89-9.48-46.05c.468-2.134.91-3.872 1.32-5.122.238-.621.488-1.21.738-1.8 1.602-2.321 1.152 10.609 4.27 24.69zm-71.079 66.282c8.782 9.566 20.668 27.789 26.77 44.758 6.379 17.789 13.11 30.12 19.488 27.23 6.383-2.89 3.551-9.808 1.063-29.031-2.492-19.23-6.38-39.2-6.38-39.2-12.401-1.808-24.812-16.69-24.812-16.69s-3.187 1.062-15.949-2.13c-12.762-3.187-18.082-22.488-12.41-31.199.11-.172.238-.32.36-.48-3.02 5.191-3.79 21.898 6.019 25.691 13.121 5.078 20.21 4.54 24.11-3.45a17.887 17.887 0 0 0 6.03 15.95c7.801 6.899 12.403 9.438 15.95 8.348 2.383-.73 5.082-6.047 6.601-9.469-1.199 3.531-2.68 10.281-1.289 19.988 2.13 14.89 16.297 67.5 4.957 75.512-11.347 8.012-24.097-28.3-36.16-55.52-6.578-14.93-11.328-24.601-14.348-30.308zm-57.66 99.066c1.578 6.89 2.41 14.063 3.47 21.032.972 6.378-2.04 13.64-.72 19.558.442 2.043 9.2 16.512 23.57 20.742 0 0 5.508-15.84 12.52-28.398.871-1.57 2.7-4.543 1.5-13.121-.39-2.86-.93-6.672-1.64-11.7-2.84-20.292-12.051-43.542-19.489-57.703-7.441-14.16-8.16-14.218-8.16-14.218s-5.5-12.758-10.45-19.809c-4.96-7.05-6.183-9.723-6.382-12.95a24.502 24.502 0 0 0 6.383 9.759c8.156 7.672 10.637 17.242 17.808 26.808 6.57 8.84 20.29 27.114 24.551 64.121 0 0 3.239 19.141 2.707 28.41-.527 9.262-6.25 12.762-12.629 34.56-6.379 21.8-7.437 28.183-8.507 19.671-1.063-8.512-1.602-17.55-1.602-17.55s-10.102-5.848-15.95-13.829c-5.85-7.98-7.98-12.23-12.23-13.293l-4.25-1.058a23.479 23.479 0 0 0 7.98-14.891c.84-7.508.68-24.508-3.53-39.969a62.618 62.618 0 0 1 5.05 13.828zm0 0"/></g><g clip-path="url(#y)" mask="url(#w)"><path d="m260.469 160.309c-1.43-15.239-4.969-46.079-7.989-53.797-3.02-7.723-20.21-15.09-20.21-15.09-.329-1.41-.508-2.23-.508-2.23s-14.89-33.75-8.16-51.172c10.109-26.141 30.84-22.872 35.097-13.829 4.25 9.04 5.672 21.047 9.57 29.778 3.903 8.73 12.762 27.941 14.54 38.472.89 5.32 3.191 12.38 5.8 20.207a181.85 181.85 0 0 1 9.32 25.41c1.301 4.473 2.41 9.122 3.38 13.723l-.82.188 7.09 35.93v-.38c2.312 12.04 6.132 30.93 6.132 30.93l-41.89-6.379c-2.84-6.62-9.942-36.5-11.352-51.761zm0 0" fill="url(#x)"/></g></svg>