<svg enable-background="new 0 0 410 510" viewBox="0 0 410 510" xmlns="http://www.w3.org/2000/svg" xmlns:xlink="http://www.w3.org/1999/xlink"><linearGradient id="a" gradientUnits="userSpaceOnUse" x1="205" x2="205" y1="482.4025" y2="27.5975"><stop offset="0" stop-color="#fff" stop-opacity="0"/><stop offset=".4274" stop-color="#d0b5b3"/><stop offset="1" stop-color="#d0b5b3"/></linearGradient><linearGradient id="b" gradientTransform="matrix(-3.1362 0 0 3.1362 -4085.0933 -8040.3789)" gradientUnits="userSpaceOnUse" x1="-1343.5427" x2="-1343.5427" y1="2627.1729" y2="2578.866"><stop offset="0" stop-color="#00afd1" stop-opacity="0"/><stop offset=".64" stop-color="#0074d1"/></linearGradient><path d="m272.38 36.68c-3.66-4.47-20.33-6.3-24.69-2.54-5.08 4.47-9.96 11.99-15.75 15.04-1.83-22.76-23.17-28.76-38.41-11.99-3.05 3.46-15.14 21.04-20.12 20.43-1.52-.2-4.27-6-5.79-7.11-4.41-3.3-10.2-4.11-15.35-2.13-9.76 4.06-15.55 16.36-20.32 25.1-6.71 12.19-12.4 25-18.8 37.3-4.98 9.45-13.11 19.31-15.75 29.67-3.35 13.72-6.71 27.54-9.86 41.26-11.61 50.39-26.24 101.51-25.83 153.64.22 12 1.11 23.97 2.64 35.87 1.52 12.91 7.72 28.66 6.1 41.36-1.42 11.69-7.62 22.26-10.77 33.54-1.73 6.1-.1 33.84-4.67 36.28h152.13c7.11 0 6.3-2.44 8.74-8.64 2.85-7.42 5.28-14.94 8.23-22.36 10.47-26.83 32.52-41.36 49.59-63.11 8.94-11.38 17.28-23.27 25.51-35.06 8.43-12.09 20.22-25.1 25.41-38.92 4.57-12.19 4.27-25.71 9.15-37.8 5.49-13.62 10.57-27.24 17.58-40.14 7.32-13.62 2.03-22.97-1.73-36.69s-2.03-25.41-.51-39.33c1.32-12.19-6.61-19.92-19.31-14.84-12.09 4.88-20.32 21.65-23.68 33.43-1.83 6.5-2.95 13.31-4.27 19.92-1.22 6 1.32 13.11-.2 18.7-.51 1.93-12.6 23.17-13.31 22.97 0-51.73 31.3-97.76 44-146.85 4.37-16.97 8.64-54.78-21.14-48.37-24.09 5.18-26.12 43.29-37.5 60.16-6 8.84-12.09 16.06-16.26 26.12-5.59 13.52-10.98 27.03-16.36 40.55-1.32 3.35-13.72 29.27-17.58 22.36-5.18-9.25 3.66-24.19 6.4-33.13 3.56-11.89 4.47-25.1 9.04-36.69 4.37-11.18 12.2-20.93 17.89-31.4 6.2-11.38 14.23-21.75 20.02-33.33 3.93-7.84 3.42-17.18-4.47-23.27z" fill="url(#a)" opacity=".85"/><g fill="#fff" stroke="#000" stroke-width=".25"><path d="m318.89 47.54c-4.57-.81-10.47 1.02-15.65 3.35-3.66 4.27-5.49 9.35-4.98 10.16.23.34.55.62.91.81 1.32.64 3.85.41 9.15.41 4.71.1 11.2 2.67 14.98 4.4.02.06.04.11.06.17 1.73.71 2.85 1.32 2.85 1.32l.2-.3c1.74-2.07 2.99-4.5 3.66-7.11-1.02-4.16-3.86-11.79-11.18-13.21z" opacity=".5"/><path d="m267.67 48.39c1.87.38 3.79.48 5.69.3.43-.18.79-.5 1.02-.91-.3-1.73-2.13-10.37-9.25-12.8-4.37-1.52-11.18-.2-16.56 1.32-2.95 3.46-5.39 8.54-4.98 8.84s1.12.1 2.34 0c.1-.04.19-.07.29-.11 3.05-.22 6.11.06 9.06.82 4.08 1.07 8.21 1.92 12.39 2.54" opacity=".5"/><path d="m223.44 41.77c-2.03-18.6-14.84-13.21-20.02-10.77l-.35.23c-.08.02-.16.04-.24.05-3.96 2.74-7.42 10.87-8.54 14.23h.02c-.14.39-.25.79-.32 1.2.2.61.2.41 2.85.1 1.99-.2 4.86 1.84 9.45 2.78.07.1.14.19.2.29 1.74.31 3.52.42 5.28.3 5.49-.3 9.25-4.57 10.98-7.01-.01-.07-.03-.15-.04-.24.47-.7.73-1.16.73-1.16z" opacity=".5"/><path d="m150.7 55.47c-5.23-1.11-9.47 8.85-9.75 12.4h-.01v.61c.41 2.75 13.55 3.77 15.45 3.05.1 0 .2-.1.3-.1-.11-.17-.23-.36-.37-.54.17.22.33.44.47.65 1.93-1.02 4.37-7.22 4.37-7.22 1.63-2.76-4.87-7.73-10.46-8.85z" opacity=".5"/><path d="m348.81 153.64c.09.81.13 1.62.1 2.44-.61 5.69-1.83 27.74-2.34 28.76 0 0-12.09 0-13.01-8.03-.28-2.47-.21-4.97.2-7.42 2.45-4.17 8.27-13.39 15.05-15.75z" opacity=".5"/></g><g opacity=".3"><path d="m287.28 146.52c1.71.76 3.47 1.37 5.28 1.83-11.79-1.12-22.66-10.87-30.18-19.31 1.02.81 2.03 1.63 3.05 2.54 6.09 6.2 13.62 12.4 21.85 14.94z"/><path d="m298.56 140.12 5.08 1.52c-8.94-1.02-20.83-4.37-27.54-10.37 1.22.71 2.44 1.32 3.66 1.93 5.29 3.36 12.4 5.7 18.8 6.92z"/><path d="m299.48 131.19c1.42.81 2.85 1.73 4.17 2.64-9.65-4.88-20.63-7.32-30.69-11.48 1.63.3 3.25.71 4.98 1.12 7.01 2.64 14.53 4.67 21.54 7.72z"/><path d="m308.11 124.67c1.32.81 2.54 1.63 3.76 2.44-9.15-3.76-18.29-9.15-28.15-10.98 1.6-.02 3.2.12 4.78.41 6.81 1.93 13.21 5.29 19.61 8.13z"/><path d="m305.06 74.78c5.28 1.52 10.47 4.37 15.45 6.71 1.22.81 2.34 1.52 3.35 2.34-7.62-3.25-15.55-8.43-23.98-9.35 1.73-.11 3.47-.01 5.18.3z"/></g><g opacity=".3"><path d="m211.98 122.04c1.54-.14 3.07-.38 4.57-.71-8.84 4.06-20.02 1.52-28.15-3.15 1.32.41 2.74.91 4.17 1.22 6.1 2.64 13.11 4.08 19.41 2.64z"/><path d="m217.16 110.86c1.42.51 2.85 1.12 4.17 1.73-9.04-1.83-18.29-4.88-27.54-5.18 1.54-.29 3.11-.42 4.67-.41 6.2.6 12.5 2.43 18.7 3.86z"/><path d="m208.12 117.46c1.22.1 2.54.2 3.76.2-7.22 1.93-15.55-1.32-21.85-4.67l3.35.91c4.58 2.14 9.76 3.76 14.74 3.56z"/><path d="m207.91 102.14c5.69 1.32 11.28 3.15 16.97 4.57 1.32.51 2.54 1.12 3.76 1.63-8.23-1.73-16.16-4.67-24.49-6.2 1.26-.1 2.51-.1 3.76 0z"/><path d="m244.94 63.39c1.12.2 2.34.41 3.46.71-6.71.3-14.02-.1-20.32-2.64l3.35.3c4.4 1.16 8.95 1.7 13.51 1.63z"/><path d="m257.13 59.46 2.74 1.52c-6.2-1.63-12.09-4.37-18.19-6.2 1.02 0 2.03.1 3.05.2 4.04 1.43 8.2 3.13 12.4 4.48z"/></g><path d="m151.6 128.14h3.56c-6.7 1.91-13.85 1.55-20.32-1.02l3.35.3c4.37 1.21 8.94 1.45 13.41.72z" opacity=".3"/><path d="m154.05 116.37c1.12.41 2.24.91 3.25 1.32-6.3-.81-13.01-3.35-19.31-2.03 1.1-.53 2.26-.9 3.46-1.12 4.17-.03 8.44.99 12.6 1.83z" opacity=".3"/><path d="m149.99 123.15 2.64.3c-5.18 1.42-11.18.2-16.16-1.52.92-.02 1.83.02 2.74.1 3.5 1.03 7.15 1.4 10.78 1.12z" opacity=".3"/><path d="m198.26 60.24c1.12.41 2.24.81 3.25 1.22-6.5-.71-14.02-2.24-19.31-6.2.91.3 1.73.61 2.64.91 4.21 2.12 8.75 3.49 13.42 4.07z" opacity=".3"/><g opacity=".3"><path d="m110.05 147.74c.81 0 1.63.1 2.44.1-4.36 1.4-8.99 1.75-13.52 1.02.81-.2 1.63-.3 2.44-.51 2.89.31 5.82.1 8.64-.61z"/><path d="m111.81 141.95c.92.19 1.84.43 2.74.71-5.08.2-10.06-.41-15.14 0 .84-.41 1.73-.71 2.64-.91 3.33-.11 6.58.2 9.76.2z"/><path d="m113.51 135.25c.89.14 1.78.35 2.64.61-4.88.2-9.65.81-14.53.51.83-.28 1.68-.52 2.54-.71 3.15.09 6.19-.21 9.35-.41z"/><path d="m146.94 79.65c.85-.02 1.7.01 2.54.1-4.37 1.42-9.96 1.93-13.01-1.52.56.28 1.13.52 1.73.71 2.44 1.32 5.69 1.32 8.74.71z"/></g><g opacity=".3"><path d="m231.89 49.3s-1.83 2.13-5.08 5.89-7.83 9.04-13.31 15.55c-5.49 6.5-11.89 13.92-18.6 22.15-1.73 2.03-3.35 4.06-5.08 6.2l-1.32 1.63c-.2.3-.41.51-.61.81l-.61.91c-.68 1.24-1.25 2.53-1.73 3.86-2.03 5.18-3.76 10.57-5.39 15.96-3.25 10.77-6.4 21.65-9.25 31.81s-5.49 19.72-8.03 27.74c-1.01 3.7-2.27 7.34-3.76 10.87-.17.36-.38.7-.61 1.02-.3.3-.51.61-.81.91-.51.61-1.02 1.22-1.52 1.73-.9 1.03-1.85 2.02-2.85 2.95-1.73 1.73-3.15 3.05-4.17 3.96s-1.52 1.32-1.52 1.32.51-.51 1.52-1.32c1.02-.81 2.44-2.13 4.27-3.86 1-.93 1.95-1.91 2.85-2.95.51-.51 1.02-1.12 1.52-1.73.3-.3.51-.61.81-.91.3-.33.54-.71.71-1.12 1.56-3.53 2.89-7.16 3.96-10.87 1.32-4.07 2.64-8.43 4.07-13.11 1.42-4.67 2.85-9.55 4.27-14.63 2.95-10.16 6.1-21.04 9.45-31.81 1.73-5.39 3.35-10.77 5.39-15.96.51-1.32 1.02-2.54 1.63-3.76.2-.3.3-.51.51-.81.22-.26.43-.53.61-.81l1.32-1.63c1.73-2.13 3.46-4.17 5.08-6.2 6.71-8.13 13.01-15.75 18.39-22.26 10.68-12.92 17.89-21.53 17.89-21.53z"/><path d="m173.67 57.7s-1.42 2.03-4.06 5.59-6.3 8.64-10.67 14.74c-2.24 3.05-4.67 6.3-7.32 9.65-.61.81-1.32 1.73-2.03 2.54s-1.52 1.63-2.24 2.44c-1.52 1.73-2.85 3.56-4.27 5.49-2.85 3.76-5.59 7.72-8.33 11.89-.71 1.02-1.32 2.13-1.93 3.15-.5 1.19-.9 2.41-1.22 3.66-.61 2.44-1.12 4.88-1.63 7.32-1.93 9.86-3.56 19.72-5.18 29.06-1.63 9.35-3.05 17.89-4.57 25.3-.41 1.83-.81 3.56-1.22 5.28-.13.8-.45 1.57-.91 2.24-.41.71-.81 1.42-1.22 2.03-1.42 2.74-2.54 5.08-3.46 7.11-1.83 3.96-2.74 6.3-2.74 6.3s1.02-2.34 2.95-6.2c1.02-1.93 2.13-4.37 3.66-7.01.41-.71.81-1.32 1.22-2.03.44-.73.79-1.52 1.02-2.34.51-1.63.91-3.46 1.32-5.28 1.63-7.32 3.25-15.96 4.88-25.2 1.63-9.25 3.35-19.11 5.28-28.96l1.52-7.32c.25-1.19.63-2.34 1.12-3.46.61-1.02 1.22-2.13 1.93-3.15 2.64-4.17 5.49-8.13 8.23-11.89 1.42-1.93 2.85-3.76 4.27-5.49.71-.91 1.42-1.63 2.24-2.54.81-.91 1.42-1.73 2.03-2.54 2.64-3.46 4.98-6.71 7.22-9.86 4.37-6.1 7.93-11.28 10.37-14.94 2.42-3.65 3.74-5.58 3.74-5.58z"/></g><path d="m158.56 193.68c-1.94 2.38-4.05 4.62-6.3 6.71 11.38-25.61 17.99-76.63 19-84.25 1.02-7.83 6.2-13.01 13.52-20.83 7.32-7.83 11.99-18.19 15.14-21.85 2.44-2.85 25.1-24.69 31.2-28.66.31 1.44.52 2.9.61 4.37 0 0-37.91 45.02-43.6 52.34-5.69 7.31-25.44 87.01-29.57 92.17z" opacity=".1"/><path d="m119.5 140.83c.41-8.23 13.31-26.93 13.31-26.93.01.08.05.15.1.2-2.24 5.79-8.23 44.31-11.89 62.5-.91 2.34-1.42 3.66-1.42 3.66 1.12-4.77-.52-31.3-.1-39.43z" opacity=".1"/><path d="m217.66 207.19c-1.93-3.46-.51-13.72-.51-16.67 0-3.46 19.31-66.16 19.31-69.71 0-3.56 22.36-36.99 22.36-40.04 0-2.44 13.52-19.11 20.12-26.63-.41 2.12-1.13 4.18-2.13 6.1-5.79 11.59-13.82 22.05-20.02 33.33-5.69 10.47-13.52 20.22-17.89 31.4-4.57 11.59-5.39 24.69-9.04 36.69-2.64 8.94-11.48 23.88-6.4 33.13 2.85 5.18 10.57-8.23 14.84-16.56-.3 2.24-2.64 9.76-4.17 11.89-7.11 9.58-13 17.71-16.47 17.07z" opacity=".1"/><path d="m288.3 236.16c-.1.68-.23 1.36-.41 2.03 0 0-1.52-12.09-2.74-17.17s15.24-52.34 25-72.97 22.66-63.62 22.66-68.7c0-3.05 1.12-10.47 2.03-15.85 1.42 10.37-.61 22.66-2.64 30.49-12.3 47.45-42.17 92.27-43.9 142.17z" opacity=".1"/><path d="m295.75 283.41c-.41.41-11.28-10.98-11.28-14.84s3.56-22.26 3.56-27.74c.05-.89.15-1.77.3-2.64v2.44c.81.2 12.8-21.04 13.31-22.97 1.52-5.59-1.02-12.7.2-18.7 1.32-6.61 2.44-13.41 4.27-19.92 2.64-9.35 8.54-22.05 16.97-29.27l.91-.3s-17.17 27.34-18.39 42.58-2.34 23.07.41 23.07c2.74 0 7.83 3.15 7.83 3.15s-8.94.41-10.16 2.74c-1.22 2.34-7.83 14.02-7.83 15.65s-6.61 10.57-6.2 15.24c.16 4.58 1.8 24.09 6.1 31.51z" opacity=".1"/><path d="m354.56 225.49s-6.2-.51-8.84-3.15c-.01-.01 1 5.18 8.84 3.15z" opacity=".3"/><path d="m352.02 212.99s-6.2-1.02-6.2 2.64c.41.51 6.2-2.64 6.2-2.64z" opacity=".3"/><path d="m87.42 181.89c3.15-13.72 6.5-27.54 9.86-41.26 2.54-10.37 10.77-20.22 15.75-29.67 6.4-12.4 12.09-25.1 18.8-37.3 4.78-8.74 10.57-21.04 20.32-25.1 5.14-2.02 10.96-1.21 15.35 2.13 1.42 1.12 4.27 6.91 5.79 7.11h.41s-20.83 29.88-24.49 33.54-13.52 17.68-16.16 22.36-11.99 68.7-14.63 72.36c-2.18 3.56-4.11 7.26-5.79 11.08-11.38.71-21.54 1.32-29.27 1.83 1.39-5.79 2.71-11.46 4.06-17.08z" fill="url(#b)" opacity=".5"/></svg>