<?xml version="1.0" encoding="utf-8"?>
<!-- Generator: Adobe Illustrator 23.0.1, SVG Export Plug-In . SVG Version: 6.00 Build 0)  -->
<svg version="1.1" id="Layer_1" xmlns="http://www.w3.org/2000/svg" xmlns:xlink="http://www.w3.org/1999/xlink" x="0px" y="0px"
	 viewBox="0 0 410 510" style="enable-background:new 0 0 410 510;" xml:space="preserve">
<style type="text/css">
	.st0{opacity:0.85;fill:url(#SVGID_1_);enable-background:new    ;}
	.st1{opacity:0.5;fill:#FFFFFF;stroke:#000000;stroke-width:0.25;enable-background:new    ;}
	.st2{opacity:0.3;}
	.st3{opacity:0.1;}
	.st4{opacity:0.5;fill:url(#SVGID_2_);enable-background:new    ;}
</style>
<g>
	<linearGradient id="SVGID_1_" gradientUnits="userSpaceOnUse" x1="205" y1="482.4025" x2="205" y2="27.5975">
		<stop  offset="0" style="stop-color:#FFFFFF;stop-opacity:0"/>
		<stop  offset="0.4274" style="stop-color:#D0B5B3"/>
		<stop  offset="1" style="stop-color:#D0B5B3"/>
	</linearGradient>
	<path class="st0" d="M272.38,36.68c-3.66-4.47-20.33-6.3-24.69-2.54c-5.08,4.47-9.96,11.99-15.75,15.04
		c-1.83-22.76-23.17-28.76-38.41-11.99c-3.05,3.46-15.14,21.04-20.12,20.43c-1.52-0.2-4.27-6-5.79-7.11
		c-4.41-3.3-10.2-4.11-15.35-2.13c-9.76,4.06-15.55,16.36-20.32,25.1c-6.71,12.19-12.4,25-18.8,37.3
		c-4.98,9.45-13.11,19.31-15.75,29.67c-3.35,13.72-6.71,27.54-9.86,41.26C75.93,232.1,61.3,283.22,61.71,335.35
		c0.22,12,1.11,23.97,2.64,35.87c1.52,12.91,7.72,28.66,6.1,41.36c-1.42,11.69-7.62,22.26-10.77,33.54
		c-1.73,6.1-0.1,33.84-4.67,36.28h152.13c7.11,0,6.3-2.44,8.74-8.64c2.85-7.42,5.28-14.94,8.23-22.36
		c10.47-26.83,32.52-41.36,49.59-63.11c8.94-11.38,17.28-23.27,25.51-35.06c8.43-12.09,20.22-25.1,25.41-38.92
		c4.57-12.19,4.27-25.71,9.15-37.8c5.49-13.62,10.57-27.24,17.58-40.14c7.32-13.62,2.03-22.97-1.73-36.69s-2.03-25.41-0.51-39.33
		c1.32-12.19-6.61-19.92-19.31-14.84c-12.09,4.88-20.32,21.65-23.68,33.43c-1.83,6.5-2.95,13.31-4.27,19.92
		c-1.22,6,1.32,13.11-0.2,18.7c-0.51,1.93-12.6,23.17-13.31,22.97c0-51.73,31.3-97.76,44-146.85c4.37-16.97,8.64-54.78-21.14-48.37
		c-24.09,5.18-26.12,43.29-37.5,60.16c-6,8.84-12.09,16.06-16.26,26.12c-5.59,13.52-10.98,27.03-16.36,40.55
		c-1.32,3.35-13.72,29.27-17.58,22.36c-5.18-9.25,3.66-24.19,6.4-33.13c3.56-11.89,4.47-25.1,9.04-36.69
		c4.37-11.18,12.2-20.93,17.89-31.4c6.2-11.38,14.23-21.75,20.02-33.33C280.78,52.11,280.27,42.77,272.38,36.68z"/>
	<path class="st1" d="M318.89,47.54c-4.57-0.81-10.47,1.02-15.65,3.35c-3.66,4.27-5.49,9.35-4.98,10.16
		c0.23,0.34,0.55,0.62,0.91,0.81l0,0c1.32,0.64,3.85,0.41,9.15,0.41c4.71,0.1,11.2,2.67,14.98,4.4c0.02,0.06,0.04,0.11,0.06,0.17
		c1.73,0.71,2.85,1.32,2.85,1.32l0.2-0.3c1.74-2.07,2.99-4.5,3.66-7.11C329.05,56.59,326.21,48.96,318.89,47.54z"/>
	<path class="st1" d="M267.67,48.39c1.87,0.38,3.79,0.48,5.69,0.3c0.43-0.18,0.79-0.5,1.02-0.91c-0.3-1.73-2.13-10.37-9.25-12.8
		c-4.37-1.52-11.18-0.2-16.56,1.32c-2.95,3.46-5.39,8.54-4.98,8.84c0.41,0.3,1.12,0.1,2.34,0c0.1-0.04,0.19-0.07,0.29-0.11
		c3.05-0.22,6.11,0.06,9.06,0.82C259.36,46.92,263.49,47.77,267.67,48.39"/>
	<path class="st1" d="M223.44,41.77c-2.03-18.6-14.84-13.21-20.02-10.77l-0.35,0.23c-0.08,0.02-0.16,0.04-0.24,0.05
		c-3.96,2.74-7.42,10.87-8.54,14.23c0.01,0,0.01,0,0.02,0c-0.14,0.39-0.25,0.79-0.32,1.2c0.2,0.61,0.2,0.41,2.85,0.1
		c1.99-0.2,4.86,1.84,9.45,2.78c0.07,0.1,0.14,0.19,0.2,0.29c1.74,0.31,3.52,0.42,5.28,0.3c5.49-0.3,9.25-4.57,10.98-7.01
		c-0.01-0.07-0.03-0.15-0.04-0.24C223.18,42.23,223.44,41.77,223.44,41.77z"/>
	<path class="st1" d="M150.7,55.47c-5.23-1.11-9.47,8.85-9.75,12.4c0,0-0.01,0-0.01,0v0.61c0.41,2.75,13.55,3.77,15.45,3.05
		c0.1,0,0.2-0.1,0.3-0.1c-0.11-0.17-0.23-0.36-0.37-0.54c0.17,0.22,0.33,0.44,0.47,0.65c1.93-1.02,4.37-7.22,4.37-7.22
		C162.79,61.56,156.29,56.59,150.7,55.47z"/>
	<path class="st1" d="M348.81,153.64c0.09,0.81,0.13,1.62,0.1,2.44c-0.61,5.69-1.83,27.74-2.34,28.76c0,0-12.09,0-13.01-8.03
		c-0.28-2.47-0.21-4.97,0.2-7.42C336.21,165.22,342.03,156,348.81,153.64z"/>
	<g class="st2">
		<path d="M287.28,146.52c1.71,0.76,3.47,1.37,5.28,1.83c-11.79-1.12-22.66-10.87-30.18-19.31c1.02,0.81,2.03,1.63,3.05,2.54
			C271.52,137.78,279.05,143.98,287.28,146.52z"/>
		<path d="M298.56,140.12l5.08,1.52c-8.94-1.02-20.83-4.37-27.54-10.37c1.22,0.71,2.44,1.32,3.66,1.93
			C285.05,136.56,292.16,138.9,298.56,140.12z"/>
		<path d="M299.48,131.19c1.42,0.81,2.85,1.73,4.17,2.64c-9.65-4.88-20.63-7.32-30.69-11.48c1.63,0.3,3.25,0.71,4.98,1.12
			C284.95,126.11,292.47,128.14,299.48,131.19z"/>
		<path d="M308.11,124.67c1.32,0.81,2.54,1.63,3.76,2.44c-9.15-3.76-18.29-9.15-28.15-10.98c1.6-0.02,3.2,0.12,4.78,0.41
			C295.31,118.47,301.71,121.83,308.11,124.67z"/>
		<path d="M305.06,74.78c5.28,1.52,10.47,4.37,15.45,6.71c1.22,0.81,2.34,1.52,3.35,2.34c-7.62-3.25-15.55-8.43-23.98-9.35
			C301.61,74.37,303.35,74.47,305.06,74.78z"/>
	</g>
	<g class="st2">
		<path d="M211.98,122.04c1.54-0.14,3.07-0.38,4.57-0.71c-8.84,4.06-20.02,1.52-28.15-3.15c1.32,0.41,2.74,0.91,4.17,1.22
			C198.67,122.04,205.68,123.48,211.98,122.04z"/>
		<path d="M217.16,110.86c1.42,0.51,2.85,1.12,4.17,1.73c-9.04-1.83-18.29-4.88-27.54-5.18c1.54-0.29,3.11-0.42,4.67-0.41
			C204.66,107.6,210.96,109.43,217.16,110.86z"/>
		<path d="M208.12,117.46c1.22,0.1,2.54,0.2,3.76,0.2c-7.22,1.93-15.55-1.32-21.85-4.67l3.35,0.91
			C197.96,116.04,203.14,117.66,208.12,117.46z"/>
		<path d="M207.91,102.14c5.69,1.32,11.28,3.15,16.97,4.57c1.32,0.51,2.54,1.12,3.76,1.63c-8.23-1.73-16.16-4.67-24.49-6.2
			C205.41,102.04,206.66,102.04,207.91,102.14z"/>
		<path d="M244.94,63.39c1.12,0.2,2.34,0.41,3.46,0.71c-6.71,0.3-14.02-0.1-20.32-2.64l3.35,0.3
			C235.83,62.92,240.38,63.46,244.94,63.39z"/>
		<path d="M257.13,59.46l2.74,1.52c-6.2-1.63-12.09-4.37-18.19-6.2c1.02,0,2.03,0.1,3.05,0.2
			C248.77,56.41,252.93,58.11,257.13,59.46z"/>
	</g>
	<path class="st2" d="M151.6,128.14h3.56c-6.7,1.91-13.85,1.55-20.32-1.02l3.35,0.3C142.56,128.63,147.13,128.87,151.6,128.14z"/>
	<path class="st2" d="M154.05,116.37c1.12,0.41,2.24,0.91,3.25,1.32c-6.3-0.81-13.01-3.35-19.31-2.03c1.1-0.53,2.26-0.9,3.46-1.12
		C145.62,114.51,149.89,115.53,154.05,116.37z"/>
	<path class="st2" d="M149.99,123.15l2.64,0.3c-5.18,1.42-11.18,0.2-16.16-1.52c0.92-0.02,1.83,0.02,2.74,0.1
		C142.71,123.06,146.36,123.43,149.99,123.15z"/>
	<path class="st2" d="M198.26,60.24c1.12,0.41,2.24,0.81,3.25,1.22c-6.5-0.71-14.02-2.24-19.31-6.2c0.91,0.3,1.73,0.61,2.64,0.91
		C189.05,58.29,193.59,59.66,198.26,60.24z"/>
	<g class="st2">
		<path d="M110.05,147.74c0.81,0,1.63,0.1,2.44,0.1c-4.36,1.4-8.99,1.75-13.52,1.02c0.81-0.2,1.63-0.3,2.44-0.51
			C104.3,148.66,107.23,148.45,110.05,147.74z"/>
		<path d="M111.81,141.95c0.92,0.19,1.84,0.43,2.74,0.71c-5.08,0.2-10.06-0.41-15.14,0c0.84-0.41,1.73-0.71,2.64-0.91
			C105.38,141.64,108.63,141.95,111.81,141.95z"/>
		<path d="M113.51,135.25c0.89,0.14,1.78,0.35,2.64,0.61c-4.88,0.2-9.65,0.81-14.53,0.51c0.83-0.28,1.68-0.52,2.54-0.71
			C107.31,135.75,110.35,135.45,113.51,135.25z"/>
		<path d="M146.94,79.65c0.85-0.02,1.7,0.01,2.54,0.1c-4.37,1.42-9.96,1.93-13.01-1.52c0.56,0.28,1.13,0.52,1.73,0.71
			C140.64,80.26,143.89,80.26,146.94,79.65z"/>
	</g>
	<g class="st2">
		<path d="M231.89,49.3c0,0-1.83,2.13-5.08,5.89c-3.25,3.76-7.83,9.04-13.31,15.55c-5.49,6.5-11.89,13.92-18.6,22.15
			c-1.73,2.03-3.35,4.06-5.08,6.2l-1.32,1.63c-0.2,0.3-0.41,0.51-0.61,0.81l-0.61,0.91c-0.68,1.24-1.25,2.53-1.73,3.86
			c-2.03,5.18-3.76,10.57-5.39,15.96c-3.25,10.77-6.4,21.65-9.25,31.81c-2.85,10.16-5.49,19.72-8.03,27.74
			c-1.01,3.7-2.27,7.34-3.76,10.87c-0.17,0.36-0.38,0.7-0.61,1.02c-0.3,0.3-0.51,0.61-0.81,0.91c-0.51,0.61-1.02,1.22-1.52,1.73
			c-0.9,1.03-1.85,2.02-2.85,2.95c-1.73,1.73-3.15,3.05-4.17,3.96c-1.02,0.91-1.52,1.32-1.52,1.32s0.51-0.51,1.52-1.32
			c1.02-0.81,2.44-2.13,4.27-3.86c1-0.93,1.95-1.91,2.85-2.95c0.51-0.51,1.02-1.12,1.52-1.73c0.3-0.3,0.51-0.61,0.81-0.91
			c0.3-0.33,0.54-0.71,0.71-1.12c1.56-3.53,2.89-7.16,3.96-10.87c1.32-4.07,2.64-8.43,4.07-13.11c1.42-4.67,2.85-9.55,4.27-14.63
			c2.95-10.16,6.1-21.04,9.45-31.81c1.73-5.39,3.35-10.77,5.39-15.96c0.51-1.32,1.02-2.54,1.63-3.76c0.2-0.3,0.3-0.51,0.51-0.81
			c0.22-0.26,0.43-0.53,0.61-0.81l1.32-1.63c1.73-2.13,3.46-4.17,5.08-6.2c6.71-8.13,13.01-15.75,18.39-22.26
			C224.68,57.91,231.89,49.3,231.89,49.3z"/>
		<path d="M173.67,57.7c0,0-1.42,2.03-4.06,5.59c-2.64,3.56-6.3,8.64-10.67,14.74c-2.24,3.05-4.67,6.3-7.32,9.65
			c-0.61,0.81-1.32,1.73-2.03,2.54c-0.71,0.81-1.52,1.63-2.24,2.44c-1.52,1.73-2.85,3.56-4.27,5.49c-2.85,3.76-5.59,7.72-8.33,11.89
			c-0.71,1.02-1.32,2.13-1.93,3.15c-0.5,1.19-0.9,2.41-1.22,3.66c-0.61,2.44-1.12,4.88-1.63,7.32c-1.93,9.86-3.56,19.72-5.18,29.06
			c-1.63,9.35-3.05,17.89-4.57,25.3c-0.41,1.83-0.81,3.56-1.22,5.28c-0.13,0.8-0.45,1.57-0.91,2.24c-0.41,0.71-0.81,1.42-1.22,2.03
			c-1.42,2.74-2.54,5.08-3.46,7.11c-1.83,3.96-2.74,6.3-2.74,6.3s1.02-2.34,2.95-6.2c1.02-1.93,2.13-4.37,3.66-7.01
			c0.41-0.71,0.81-1.32,1.22-2.03c0.44-0.73,0.79-1.52,1.02-2.34c0.51-1.63,0.91-3.46,1.32-5.28c1.63-7.32,3.25-15.96,4.88-25.2
			c1.63-9.25,3.35-19.11,5.28-28.96l1.52-7.32c0.25-1.19,0.63-2.34,1.12-3.46c0.61-1.02,1.22-2.13,1.93-3.15
			c2.64-4.17,5.49-8.13,8.23-11.89c1.42-1.93,2.85-3.76,4.27-5.49c0.71-0.91,1.42-1.63,2.24-2.54c0.81-0.91,1.42-1.73,2.03-2.54
			c2.64-3.46,4.98-6.71,7.22-9.86c4.37-6.1,7.93-11.28,10.37-14.94C172.35,59.63,173.67,57.7,173.67,57.7z"/>
	</g>
	<path class="st3" d="M158.56,193.68c-1.94,2.38-4.05,4.62-6.3,6.71c11.38-25.61,17.99-76.63,19-84.25
		c1.02-7.83,6.2-13.01,13.52-20.83c7.32-7.83,11.99-18.19,15.14-21.85c2.44-2.85,25.1-24.69,31.2-28.66
		c0.31,1.44,0.52,2.9,0.61,4.37c0,0-37.91,45.02-43.6,52.34C182.44,108.82,162.69,188.52,158.56,193.68z"/>
	<path class="st3" d="M119.5,140.83c0.41-8.23,13.31-26.93,13.31-26.93c0.01,0.08,0.05,0.15,0.1,0.2
		c-2.24,5.79-8.23,44.31-11.89,62.5c-0.91,2.34-1.42,3.66-1.42,3.66C120.72,175.49,119.08,148.96,119.5,140.83z"/>
	<path class="st3" d="M217.66,207.19c-1.93-3.46-0.51-13.72-0.51-16.67c0-3.46,19.31-66.16,19.31-69.71
		c0-3.56,22.36-36.99,22.36-40.04c0-2.44,13.52-19.11,20.12-26.63c-0.41,2.12-1.13,4.18-2.13,6.1
		c-5.79,11.59-13.82,22.05-20.02,33.33c-5.69,10.47-13.52,20.22-17.89,31.4c-4.57,11.59-5.39,24.69-9.04,36.69
		c-2.64,8.94-11.48,23.88-6.4,33.13c2.85,5.18,10.57-8.23,14.84-16.56c-0.3,2.24-2.64,9.76-4.17,11.89
		C227.02,199.7,221.13,207.83,217.66,207.19z"/>
	<path class="st3" d="M288.3,236.16c-0.1,0.68-0.23,1.36-0.41,2.03c0,0-1.52-12.09-2.74-17.17c-1.22-5.08,15.24-52.34,25-72.97
		c9.76-20.63,22.66-63.62,22.66-68.7c0-3.05,1.12-10.47,2.03-15.85c1.42,10.37-0.61,22.66-2.64,30.49
		C319.9,141.44,290.03,186.26,288.3,236.16z"/>
	<path class="st3" d="M295.75,283.41c-0.41,0.41-11.28-10.98-11.28-14.84c0-3.86,3.56-22.26,3.56-27.74
		c0.05-0.89,0.15-1.77,0.3-2.64v2.44c0.81,0.2,12.8-21.04,13.31-22.97c1.52-5.59-1.02-12.7,0.2-18.7
		c1.32-6.61,2.44-13.41,4.27-19.92c2.64-9.35,8.54-22.05,16.97-29.27l0.91-0.3c0,0-17.17,27.34-18.39,42.58
		c-1.22,15.24-2.34,23.07,0.41,23.07c2.74,0,7.83,3.15,7.83,3.15s-8.94,0.41-10.16,2.74c-1.22,2.34-7.83,14.02-7.83,15.65
		c0,1.63-6.61,10.57-6.2,15.24C289.81,256.48,291.45,275.99,295.75,283.41z"/>
	<path class="st2" d="M354.56,225.49c0,0-6.2-0.51-8.84-3.15C345.71,222.33,346.72,227.52,354.56,225.49z"/>
	<path class="st2" d="M352.02,212.99c0,0-6.2-1.02-6.2,2.64C346.23,216.14,352.02,212.99,352.02,212.99z"/>
	
		<linearGradient id="SVGID_2_" gradientUnits="userSpaceOnUse" x1="-1343.5427" y1="2627.1729" x2="-1343.5427" y2="2578.866" gradientTransform="matrix(-3.1362 0 0 3.1362 -4085.0933 -8040.3789)">
		<stop  offset="0" style="stop-color:#00AFD1;stop-opacity:0"/>
		<stop  offset="0.64" style="stop-color:#0074D1"/>
	</linearGradient>
	<path class="st4" d="M87.42,181.89c3.15-13.72,6.5-27.54,9.86-41.26c2.54-10.37,10.77-20.22,15.75-29.67
		c6.4-12.4,12.09-25.1,18.8-37.3c4.78-8.74,10.57-21.04,20.32-25.1c5.14-2.02,10.96-1.21,15.35,2.13c1.42,1.12,4.27,6.91,5.79,7.11
		h0.41c0,0-20.83,29.88-24.49,33.54c-3.66,3.66-13.52,17.68-16.16,22.36s-11.99,68.7-14.63,72.36c-2.18,3.56-4.11,7.26-5.79,11.08
		c-11.38,0.71-21.54,1.32-29.27,1.83C84.75,193.18,86.07,187.51,87.42,181.89z"/>
</g>
</svg>
