<svg viewBox="0 0 410 510" xmlns="http://www.w3.org/2000/svg" xmlns:xlink="http://www.w3.org/1999/xlink"><filter id="a" height="100%" width="100%" x="0%" y="0%"><feColorMatrix in="SourceGraphic" values="0 0 0 0 1 0 0 0 0 1 0 0 0 0 1 0 0 0 1 0"/></filter><mask id="b"><g filter="url(#a)"><path d="m0 0h410v510h-410z" fill-opacity=".851"/></g></mask><linearGradient id="c" gradientUnits="userSpaceOnUse" x1="205" x2="205" y1="492.824" y2="17.176"><stop offset="0" stop-color="#fff" stop-opacity="0"/><stop offset=".427" stop-color="#d0b5b3"/><stop offset="1" stop-color="#d0b5b3"/></linearGradient><clipPath id="d"><path d="m0 0h410v510h-410z"/></clipPath><mask id="e"><g filter="url(#a)"><path d="m0 0h410v510h-410z" fill-opacity=".502"/></g></mask><clipPath id="f"><path d="m0 0h410v510h-410z"/></clipPath><mask id="g"><g filter="url(#a)"><path d="m0 0h410v510h-410z" fill-opacity=".749"/></g></mask><clipPath id="h"><path d="m0 0h410v510h-410z"/></clipPath><mask id="i"><g filter="url(#a)"><path d="m0 0h410v510h-410z" fill-opacity=".502"/></g></mask><clipPath id="j"><path d="m0 0h410v510h-410z"/></clipPath><mask id="k"><g filter="url(#a)"><path d="m0 0h410v510h-410z" fill-opacity=".502"/></g></mask><clipPath id="l"><path d="m0 0h410v510h-410z"/></clipPath><mask id="m"><g filter="url(#a)"><path d="m0 0h410v510h-410z" fill-opacity=".502"/></g></mask><clipPath id="n"><path d="m0 0h410v510h-410z"/></clipPath><mask id="o"><g filter="url(#a)"><path d="m0 0h410v510h-410z" fill-opacity=".502"/></g></mask><clipPath id="p"><path d="m0 0h410v510h-410z"/></clipPath><mask id="q"><g filter="url(#a)"><path d="m0 0h410v510h-410z" fill-opacity=".302"/></g></mask><clipPath id="r"><path d="m0 0h410v510h-410z"/></clipPath><mask id="s"><g filter="url(#a)"><path d="m0 0h410v510h-410z" fill-opacity=".302"/></g></mask><clipPath id="t"><path d="m0 0h410v510h-410z"/></clipPath><mask id="u"><g filter="url(#a)"><path d="m0 0h410v510h-410z" fill-opacity=".302"/></g></mask><clipPath id="v"><path d="m0 0h410v510h-410z"/></clipPath><mask id="w"><g filter="url(#a)"><path d="m0 0h410v510h-410z" fill-opacity=".302"/></g></mask><clipPath id="x"><path d="m0 0h410v510h-410z"/></clipPath><mask id="y"><g filter="url(#a)"><path d="m0 0h410v510h-410z" fill-opacity=".302"/></g></mask><clipPath id="z"><path d="m0 0h410v510h-410z"/></clipPath><mask id="A"><g filter="url(#a)"><path d="m0 0h410v510h-410z" fill-opacity=".302"/></g></mask><clipPath id="B"><path d="m0 0h410v510h-410z"/></clipPath><mask id="C"><g filter="url(#a)"><path d="m0 0h410v510h-410z" fill-opacity=".302"/></g></mask><clipPath id="D"><path d="m0 0h410v510h-410z"/></clipPath><mask id="E"><g filter="url(#a)"><path d="m0 0h410v510h-410z" fill-opacity=".102"/></g></mask><clipPath id="F"><path d="m0 0h410v510h-410z"/></clipPath><mask id="G"><g filter="url(#a)"><path d="m0 0h410v510h-410z" fill-opacity=".102"/></g></mask><clipPath id="H"><path d="m0 0h410v510h-410z"/></clipPath><mask id="I"><g filter="url(#a)"><path d="m0 0h410v510h-410z" fill-opacity=".102"/></g></mask><clipPath id="J"><path d="m0 0h410v510h-410z"/></clipPath><mask id="K"><g filter="url(#a)"><path d="m0 0h410v510h-410z" fill-opacity=".102"/></g></mask><clipPath id="L"><path d="m0 0h410v510h-410z"/></clipPath><mask id="M"><g filter="url(#a)"><path d="m0 0h410v510h-410z" fill-opacity=".102"/></g></mask><clipPath id="N"><path d="m0 0h410v510h-410z"/></clipPath><mask id="O"><g filter="url(#a)"><path d="m0 0h410v510h-410z" fill-opacity=".302"/></g></mask><clipPath id="P"><path d="m0 0h410v510h-410z"/></clipPath><mask id="Q"><g filter="url(#a)"><path d="m0 0h410v510h-410z" fill-opacity=".302"/></g></mask><clipPath id="R"><path d="m0 0h410v510h-410z"/></clipPath><mask id="S"><g filter="url(#a)"><path d="m0 0h410v510h-410z" fill-opacity=".102"/></g></mask><clipPath id="T"><path d="m0 0h410v510h-410z"/></clipPath><mask id="U"><g filter="url(#a)"><path d="m0 0h410v510h-410z" fill-opacity=".102"/></g></mask><clipPath id="V"><path d="m0 0h410v510h-410z"/></clipPath><mask id="W"><g filter="url(#a)"><path d="m0 0h410v510h-410z" fill-opacity=".502"/></g></mask><linearGradient id="X" gradientTransform="matrix(-3.1362 0 0 3.1362 -4790.335 5356.145)" gradientUnits="userSpaceOnUse" x1="-1628.953" x2="-1624.352" y1="-1652.899" y2="-1697.444"><stop offset=".13" stop-color="#00afd1" stop-opacity="0"/><stop offset=".64" stop-color="#0074d1"/></linearGradient><clipPath id="Y"><path d="m0 0h410v510h-410z"/></clipPath><g clip-path="url(#d)" mask="url(#b)"><path d="m227.781 25.77c-15.14-14.079-35.281-11.41-38.18 12.14-7.042-5.64-19.73-12.2-24.812-17.07-8.45-4.399-17.77-1.238-22.52.879-4.75 2.11-13.097 11.61-9.328 19.89 5.508 12.282 23.73 26.461 29.66 38.54 5.45 11.113 13.137 21.581 17.188 33.37 4.223 12.231 4.602 25.981 7.77 38.481 2.46 9.398 10.98 25.34 5.191 34.66-4.309 7.012-16.05-20.441-17.27-23.98-4.992-14.258-9.992-28.5-15.19-42.801-3.88-10.629-9.9-18.379-15.731-27.828-11.07-17.95-37.348-62.43-50.668-63.34-24.291-5.271-34.672 15.129-23.762 40.117 19.45 47.133 55.582 109.031 53.312 162.73-.75.18-12.363-22.398-12.812-24.43-1.34-5.866 1.61-13.128.61-19.41-1.06-6.91-1.938-14.027-3.56-20.859-2.968-12.379-10.769-30.148-23.109-35.738-12.96-5.84-21.53 1.828-20.691 14.55.973 14.52 2.25 26.72-2.258 40.79-4.512 14.07-10.402 23.55-3.402 38.008 6.71 13.722 11.383 28.062 16.48 42.43 4.54 12.773 3.621 26.78 7.832 39.64 4.77 14.57 16.438 28.59 24.66 41.512 8.02 12.61 16.149 25.34 24.938 37.508 16.762 23.332 39.062 39.382 48.7 67.68 2.73 7.831 4.933 15.741 7.562 23.57 2.257 6.53 1.308 9.043 8.699 9.34l10.558.44 47.364 2.013 99.988 4.218c-4.629-2.73-1.73-31.46-3.25-37.86-2.781-11.839-8.75-23.089-9.71-35.28-1.13-13.258 2.312-70.809 2.948-83.239 2.703-54.09-9.5-84.98-7.918-152.02 2.11-32.73 2.34-43.671-.53-58.062 0 0-2.74-22.53-6.33-38.007-6.858-29.563-9.929-41.5-10.562-45.922-1.058-7.39-3.43-17.07-12.398-17.95-7.988-.78-19.969 6.508-22.43 18.47 0 0-2.73 9.94-.261 27.179 1.57 11 4.492 34.23 4.492 34.23s-18.332-30.75-34.84-53.14c-10.781-14.48-25.25-23.989-26.43-25.45zm0 0" fill="url(#c)"/></g><g clip-path="url(#f)" mask="url(#e)"><path d="m102.71 46.102c.392-.204.712-.5.93-.883.5-.86-1.53-6.078-5.449-10.418-.07-.031-.152-.063-.222-.09-3.688-3.973-8.91-7.34-15.469-6.34-10.559 1.527-14.219 9.66-12.012 17.41" fill="#fff" stroke="#000" stroke-width=".25"/></g><g clip-path="url(#h)" mask="url(#g)"><path d="m70.59 45.75a19.394 19.394 0 0 0 3.98 7.3l.22.31s1.151-.65 2.92-1.45c.009-.02.02-.05.02-.07 3.872-1.899 10.57-4.762 15.48-4.988 5.509-.223 8.13-.043 9.49-.672" fill="#fff" stroke="#a97c50" stroke-width="1.178"/></g><g clip-path="url(#j)" mask="url(#i)"><path d="m164.18 21.18c-2.051-1.64-3.989-2.758-5.371-2.7-4.02.372-17.618-.921-20.18 15.508a9.992 9.992 0 0 0 1.59 4.07v.153c.32.367.742.617 1.21.73 1.97-.21 3.91-.703 5.743-1.46.008-.012.027-.02.039-.04a120.34 120.34 0 0 0 12.078-5.082 29.652 29.652 0 0 1 9-2.66c.133.02.262.04.383.07 1.258-.148 2.027-.07 2.387-.468.363-.403-3.168-5.082-6.86-8" fill="#fff" stroke="#000" stroke-width=".25"/></g><g clip-path="url(#l)" mask="url(#k)"><path d="m227.02 33.77c-1.551-3.329-6.079-11.301-10.56-13.66m.028-.02-1.058-.52c-5.64-1.898-19.5-5.93-19.371 13.5 0 0 .472.649 1.27 1.57 0 .04-.009.09-.009.122 2.11 2.308 6.461 6.258 12.16 5.918a22.63 22.63 0 0 0 5.36-.93c-.02.031-.031.059-.05.09 4.87-1.531 7.608-4.059 9.722-4.102 2.77 0 2.789.211 2.918-.437-.13-.5-.328-.98-.578-1.43" fill="#fff" stroke="#000" stroke-width=".25"/></g><g clip-path="url(#n)" mask="url(#m)"><path d="m316.762 38.879c-.98-13.027-6.332-14.617-9.563-13.73a7.314 7.314 0 0 0 -8.07 4.312c-2.027 4.918-1.059 12.918 0 13.539l.09-.148c2.3 1.308 17.27-.582 17.55-3.282v-.691zm0 0" fill="#fff" stroke="#000" stroke-width=".25"/></g><g clip-path="url(#p)" mask="url(#o)"><path d="m78.879 155.219c-.098-.188-.207-.399-.32-.61-.778-5.73-3.57-11.289-8.43-14.66l-6.27-1.738c.032.008.07.027.102.039a20.56 20.56 0 0 0 -.211 2.488c.379 5.934.68 28.871 1.16 29.953 0 0 12.55.528 13.852-7.761.418-2.551.457-5.149.117-7.711zm0 0" fill="#fff" stroke="#000" stroke-width=".25"/></g><g clip-path="url(#r)" mask="url(#q)"><path d="m128.621 133.55c-1.8.72-3.66 1.278-5.562 1.669 12.293-.64 24-10.29 32.18-18.719-1.06.8-2.18 1.602-3.278 2.5-6.61 6.16-14.691 12.281-23.34 14.55zm-11.43-7.14c-1.82.442-3.53.91-5.34 1.352 9.32-.653 21.81-3.614 29.04-9.5-1.301.687-2.602 1.27-3.891 1.847-5.629 3.192-13.11 5.32-19.809 6.301zm-.511-9.32a62.518 62.518 0 0 0 -4.442 2.558c10.242-4.628 21.742-6.68 32.364-10.558-1.704.238-3.403.59-5.211.941-7.45 2.418-15.32 4.149-22.711 7.059zm-8.72-7.13c-1.401.79-2.71 1.58-4.01 2.36 9.66-3.492 19.378-8.691 29.698-10.148a25.446 25.446 0 0 0 -4.968.207c-7.168 1.7-13.95 4.902-20.72 7.582zm-6.062-52.269c-5.539 1.348-11.046 4.07-16.32 6.329-1.297.78-2.488 1.48-3.578 2.27 8.04-3.04 16.5-8.071 25.34-8.65a23.473 23.473 0 0 0 -5.442.051zm0 0"/></g><g clip-path="url(#t)" mask="url(#s)"><path d="m207.852 111.441c-1.59-.21-3.16-.53-4.711-.941 8.988 4.602 20.71 2.46 29.347-2.04a38.45 38.45 0 0 1 -4.367 1.06c-6.45 2.55-13.793 3.671-20.27 1.921zm-4.892-11.839c-1.5.457-3 1.058-4.39 1.597 9.5-1.5 19.192-4.219 28.809-4.16a24.926 24.926 0 0 0 -4.84-.629c-6.46.371-13.078 1.988-19.578 3.192zm9.099 7.258c-1.27 0-2.637.1-3.91 0 7.39 2.32 16.19-.688 22.882-3.891l-3.52.8c-4.84 2.051-10.292 3.52-15.452 3.09zm.851-15.9c-5.96 1.118-11.84 2.778-17.82 4-1.39.47-2.68 1.06-3.969 1.52 8.61-1.43 16.98-4.14 25.7-5.351-1.301-.16-2.602-.219-3.91-.168zm-36.66-41.831c-1.172.16-2.441.32-3.61.582 6.95.61 14.56.52 21.212-1.852l-3.493.172c-4.64 1-9.379 1.367-14.109 1.098zm-12.48-4.617-2.91 1.468c6.492-1.468 12.742-4.03 19.16-5.69-1.06 0-2.11 0-3.168.07-4.301 1.32-8.704 2.93-13.082 4.152zm0 0"/></g><g clip-path="url(#v)" mask="url(#u)"><path d="m270.238 120.41-3.699-.16a32.826 32.826 0 0 0 21.11-.16l-3.477.172a32.797 32.797 0 0 1 -13.934.148zm-2.019-12.34c-1.18.371-2.36.86-3.43 1.22 6.582-.56 13.652-2.9 20.133-1.259a14.534 14.534 0 0 0 -3.55-1.312c-4.313-.18-8.794.691-13.153 1.351zm3.921 7.25-2.761.192c5.281 1.707 11.61.707 16.89-.871-.949-.051-1.898-.051-2.847 0a30.905 30.905 0 0 1 -11.281.68zm-47.34-67.41c-1.171.38-2.35.75-3.429 1.13 6.79-.45 14.66-1.712 20.32-5.599-.972.29-1.832.559-2.793.829a42.264 42.264 0 0 1 -14.097 3.64zm0 0"/></g><g clip-path="url(#x)" mask="url(#w)"><path d="m316.73 137.672h-2.53a30.452 30.452 0 0 0 13.991 1.648c-.832-.25-1.68-.39-2.511-.629-3.02.18-6.051-.16-8.95-1.02zm0 0"/></g><g clip-path="url(#z)" mask="url(#y)"><path d="m315.2 131.578c-.97.152-1.93.363-2.88.621 5.282.43 10.461 0 15.72.672a11.32 11.32 0 0 0 -2.7-1.062c-3.488-.258-6.86-.118-10.14-.23zm0 0"/></g><g clip-path="url(#B)" mask="url(#A)"><path d="m313.7 124.54c-.938.108-1.86.288-2.778.519 5.058.43 9.988 1.27 15.066 1.171-.828-.351-1.77-.601-2.61-.859a94.502 94.502 0 0 1 -9.679-.832zm0 0"/></g><g clip-path="url(#D)" mask="url(#C)"><path d="m307.121 53.57c-.883-.05-1.762-.05-2.64 0 4.48 1.668 10.25 2.442 13.57-1.058-.59.27-1.192.488-1.82.668-2.59 1.332-5.97 1.18-9.11.39zm0 0"/></g><g clip-path="url(#F)" mask="url(#E)"><path d="m189.238 37.648s1.274.793 4.492 4.84c3.52 5.282 7.7 9.64 13.11 16.633 5.422 6.988 13.41 13.969 20.058 22.8 1.711 2.188 3.301 4.368 5 6.657l1.301 1.742c.2.328.403.551.602.88l.59.972a28.498 28.498 0 0 1 1.629 4.09c1.878 5.468 3.43 11.136 4.89 16.797a1777.043 1777.043 0 0 1 8.2 33.421c2.511 10.668 4.82 20.7 7.1 29.149a94.614 94.614 0 0 0 3.43 11.41c.169.371.372.723.59 1.063.301.328.5.648.801.976.5.652.989 1.313 1.5 1.863 1.059 1.2 1.91 2.297 2.828 3.168 1.72 1.871 3.172 3.301 4.153 4.301.976.988 1.52 1.442 1.52 1.442-.481-.512-.993-.993-1.52-1.442a85.6 85.6 0 0 1 -4.223-4.219 41.813 41.813 0 0 1 -2.82-3.171 18.36 18.36 0 0 1 -1.508-1.872c-.3-.328-.5-.636-.8-.976a4.721 4.721 0 0 1 -.692-1.192 93.024 93.024 0 0 1 -3.64-11.449c-1.18-4.222-2.36-8.87-3.638-13.793a650.258 650.258 0 0 1 -3.78-15.367c-2.622-10.68-5.411-22.11-8.45-33.43-1.563-5.671-3.012-11.332-4.89-16.8-.47-1.391-.95-2.68-1.52-3.97-.2-.331-.301-.55-.5-.87a7.438 7.438 0 0 1 -.602-.88l-1.3-1.741c-1.7-2.29-3.399-4.48-5-6.66-6.598-8.73-15.278-16.34-20.59-23.329-10.59-13.8-16.32-21.043-16.32-21.043zm0 0"/></g><g clip-path="url(#H)" mask="url(#G)"><path d="m289.012 104.422-.203-1.57c.57.949 1.062 1.949 1.59 2.886.46 1.262.831 2.543 1.113 3.852.527 2.558.937 5.11 1.36 7.66 1.57 10.309 2.827 20.621 4.108 30.39 1.282 9.782 2.38 18.7 3.63 26.462.35 1.918.69 3.726 1.062 5.539.11.84.398 1.648.86 2.359.39.75.777 1.512 1.167 2.11 1.36 2.91 2.422 5.39 3.27 7.538 1.73 4.223 2.582 6.66 2.582 6.66s-.95-2.468-2.79-6.558c-.972-2.11-2.03-4.629-3.491-7.441-.391-.758-.782-1.399-1.168-2.11a9.735 9.735 0 0 1 -.954-2.469c-.449-1.71-.796-3.628-1.136-5.539-1.371-7.66-2.672-16.703-3.961-26.39-1.29-9.692-2.64-19.973-4.223-30.301-.418-2.559-.828-5.102-1.258-7.648a17.061 17.061 0 0 0 -1.058-3.641c-.59-1.063-1.172-2.27-1.871-3.352zm0 0"/></g><g clip-path="url(#J)" mask="url(#I)"><path d="m300.262 136.969c-3.524-26.04-9.89-30.489-9.89-30.489 0 .079-.044.16-.122.2 2.11 6.11 6.602 46.351 9.602 65.39a60.519 60.519 0 0 0 8.507 20.852c2.11-6.344-7.988-47.512-8.097-55.953zm0 0"/></g><g clip-path="url(#L)" mask="url(#K)"><path d="m181.871 181.129c-1.43-2.188-3.402-9.5-3.762-12.18 4.02 8.88 11.41 22.961 14.641 17.711 4.29-6.941.719-17.45-2.41-26.27-1.121-3.171-2.168-6.109-2.8-8.6a98.226 98.226 0 0 1 -1.368-6.161c-1.063-5.738-1.832-11.61-2.832-17.438a90.927 90.927 0 0 0 -3.578-14.89c-4.043-11.79-11.73-22.27-17.184-33.371l-.226-.25c-6.172-11.98-23.993-25.961-29.422-38.078a11.646 11.646 0 0 1 -.25-8.563 71.492 71.492 0 0 0 8.53 17.54c6.5 9.85 19.83 15.972 19.83 15.972-.13 3.168 21.6 38.847 21.448 42.539-.148 3.7 17.121 69.61 16.98 73.2-.128 3.062.903 13.78-1.269 17.269-3.61.492-9.37-8.2-16.328-18.43zm0 0"/></g><g clip-path="url(#N)" mask="url(#M)"><path d="m113.852 275.262c.398.437 12.187-10.903 12.359-14.91.168-4.012-2.711-23.23-2.473-28.954a22.576 22.576 0 0 0 -.199-2.757c0 .84-.07 1.687-.11 2.53-.859.169-12.37-22.401-12.82-24.433-1.328-5.867 1.61-13.129.61-19.41-1.059-6.906-1.938-14.027-3.559-20.86-2.32-9.82-7.89-23.23-16.32-31.116l-.93-.352s16.63 29.129 17.219 45c.59 15.879 1.41 24.05-1.438 23.922-2.851-.133-8.261 2.918-8.261 2.918s9.261.82 10.43 3.289c1.171 2.473 7.511 14.91 7.39 16.601-.121 1.692 6.328 11.25 5.762 16.09-.364 4.739-2.903 24.918-7.66 32.442zm0 0"/></g><g clip-path="url(#P)" mask="url(#O)"><path d="m55.32 212.54s6.461-.25 9.32-2.88c0 0-1.288 5.34-9.32 2.88zm0 0"/></g><g clip-path="url(#R)" mask="url(#Q)"><path d="m58.512 199.7s6.476-.778 6.328 3.01c-.45.5-6.328-3.01-6.328-3.01zm0 0"/></g><g clip-path="url(#T)" mask="url(#S)"><path d="m104.82 134.129c3.97 9.41 9.168 24.402 13.508 38.39 5.73 18.47 10.07 35.47 9.23 38.442-1.488 5.23-3.597 17.7-3.597 17.7a23.95 23.95 0 0 1 -.34-2.11l-.101-.223c.07-52.566-34.52-112.238-53.4-157.968-.25-.57-.48-1.14-.7-1.71-1.382-6.95-2.612-13.38-3.593-18.458v-.261c2.8 6.558 4.703 13.61 7.094 20.441.867 2.48 6.328 13.719 12.316 26.738 5.992 13.02 14.953 27.98 19.582 39.02zm0 0"/></g><g clip-path="url(#V)" mask="url(#U)"><path d="m189.61 37.73c.3-2.48.87-4.93 1.69-7.3h.11c1.79 8.879 20.75 27.992 23.23 31.05 3.098 3.942 12.981 14.961 20.231 23.41 7.238 8.45 12.668 18.57 13.379 26.739.719 7.96 7.559 56.672 18.238 83.75a69.199 69.199 0 0 1 -6.238-7.23c-4.11-5.56-21.11-89.13-26.648-96.97 0 0-10.563-14.128-13.422-17.288-2.86-3.172-20.32-22.7-23.489-27.45a104.268 104.268 0 0 0 -7.082-8.71zm0 0"/></g><g clip-path="url(#Y)" mask="url(#W)"><path d="m284.79 43.012c2.46-11.961 14.44-19.262 22.429-18.473 8.972.883 11.351 10.563 12.402 17.95.617 4.421 3.7 16.363 10.559 45.921 3.59 15.48 6.332 38.012 6.332 38.012 2.867 14.387 2.636 25.34.527 58.058v2.27l-35.89-7.012s-6.477-44.699-8.77-58.777c-2.29-14.082-3.34-16.531-3.34-16.531s-2.91-23.23-4.488-34.23c-2.5-17.25.238-27.188.238-27.188zm0 0" fill="url(#X)"/></g></svg>