<svg viewBox="0 0 410 510" xmlns="http://www.w3.org/2000/svg" xmlns:xlink="http://www.w3.org/1999/xlink"><filter id="a" height="100%" width="100%" x="0%" y="0%"><feColorMatrix in="SourceGraphic" values="0 0 0 0 1 0 0 0 0 1 0 0 0 0 1 0 0 0 1 0"/></filter><mask id="b"><g filter="url(#a)"><path d="m0 0h410v510h-410z" fill-opacity=".851"/></g></mask><linearGradient id="c" gradientUnits="userSpaceOnUse" x1="205" x2="205" y1="459.615" y2="50.385"><stop offset="0" stop-color="#fff" stop-opacity="0"/><stop offset=".427" stop-color="#d0b5b3"/><stop offset="1" stop-color="#d0b5b3"/></linearGradient><clipPath id="d"><path d="m0 0h410v510h-410z"/></clipPath><mask id="e"><g filter="url(#a)"><path d="m0 0h410v510h-410z" fill-opacity=".502"/></g></mask><clipPath id="f"><path d="m0 0h410v510h-410z"/></clipPath><mask id="g"><g filter="url(#a)"><path d="m0 0h410v510h-410z" fill-opacity=".502"/></g></mask><clipPath id="h"><path d="m0 0h410v510h-410z"/></clipPath><mask id="i"><g filter="url(#a)"><path d="m0 0h410v510h-410z" fill-opacity=".502"/></g></mask><clipPath id="j"><path d="m0 0h410v510h-410z"/></clipPath><mask id="k"><g filter="url(#a)"><path d="m0 0h410v510h-410z" fill-opacity=".502"/></g></mask><clipPath id="l"><path d="m0 0h410v510h-410z"/></clipPath><mask id="m"><g filter="url(#a)"><path d="m0 0h410v510h-410z" fill-opacity=".502"/></g></mask><clipPath id="n"><path d="m0 0h410v510h-410z"/></clipPath><mask id="o"><g filter="url(#a)"><path d="m0 0h410v510h-410z" fill-opacity=".302"/></g></mask><clipPath id="p"><path d="m0 0h410v510h-410z"/></clipPath><mask id="q"><g filter="url(#a)"><path d="m0 0h410v510h-410z" fill-opacity=".302"/></g></mask><clipPath id="r"><path d="m0 0h410v510h-410z"/></clipPath><mask id="s"><g filter="url(#a)"><path d="m0 0h410v510h-410z" fill-opacity=".302"/></g></mask><clipPath id="t"><path d="m0 0h410v510h-410z"/></clipPath><mask id="u"><g filter="url(#a)"><path d="m0 0h410v510h-410z" fill-opacity=".302"/></g></mask><clipPath id="v"><path d="m0 0h410v510h-410z"/></clipPath><mask id="w"><g filter="url(#a)"><path d="m0 0h410v510h-410z" fill-opacity=".302"/></g></mask><clipPath id="x"><path d="m0 0h410v510h-410z"/></clipPath><mask id="y"><g filter="url(#a)"><path d="m0 0h410v510h-410z" fill-opacity=".302"/></g></mask><clipPath id="z"><path d="m0 0h410v510h-410z"/></clipPath><mask id="A"><g filter="url(#a)"><path d="m0 0h410v510h-410z" fill-opacity=".302"/></g></mask><clipPath id="B"><path d="m0 0h410v510h-410z"/></clipPath><mask id="C"><g filter="url(#a)"><path d="m0 0h410v510h-410z" fill-opacity=".102"/></g></mask><clipPath id="D"><path d="m0 0h410v510h-410z"/></clipPath><mask id="E"><g filter="url(#a)"><path d="m0 0h410v510h-410z" fill-opacity=".102"/></g></mask><clipPath id="F"><path d="m0 0h410v510h-410z"/></clipPath><mask id="G"><g filter="url(#a)"><path d="m0 0h410v510h-410z" fill-opacity=".102"/></g></mask><clipPath id="H"><path d="m0 0h410v510h-410z"/></clipPath><mask id="I"><g filter="url(#a)"><path d="m0 0h410v510h-410z" fill-opacity=".102"/></g></mask><clipPath id="J"><path d="m0 0h410v510h-410z"/></clipPath><mask id="K"><g filter="url(#a)"><path d="m0 0h410v510h-410z" fill-opacity=".302"/></g></mask><clipPath id="L"><path d="m0 0h410v510h-410z"/></clipPath><mask id="M"><g filter="url(#a)"><path d="m0 0h410v510h-410z" fill-opacity=".502"/></g></mask><linearGradient id="N" gradientTransform="matrix(3.1362 0 0 -3.1362 5554.397 6889.314)" gradientUnits="userSpaceOnUse" x1="-1646.553" x2="-1680.13" y1="2160.586" y2="2123.786"><stop offset=".36" stop-color="#0074d1"/><stop offset=".87" stop-color="#00afd1" stop-opacity="0"/></linearGradient><clipPath id="O"><path d="m0 0h410v510h-410z"/></clipPath><g clip-path="url(#d)" mask="url(#b)"><path d="m399.309 139.441c11.863-24.71 3.64-34.21-10.38-37.55-10.378-2.47-35.738 23.05-48.417 36.07-5.813 5.93-21.364 16.66-36.73 31.129-4.731 4.46-9.27 11.05-13.833 15.5-14.078 13.75-26.73 25.8-34.43 26.012-18.28.488-15.32-21.25-10.378-35.082 4.937-13.829 10.379-36.56 10.379-36.56a51.039 51.039 0 0 0 24.21-16.8c9.88-12.851 20.75-39.531 12.348-53.36-8.398-13.831-26.187-10.378-33.11-2.472-6.917 7.91-16.308 25.203-18.777 25.692-.992.21-4.761 2.53-9.421 5.39 11.242-13.66 15.082-20.21 11.39-34.539-4.45-17.293-21.25-13.34-25.2-7.41-2.858 4.277-13.679 10.348-22.26 16.367-3.36-4.598-8.27-10.476-12.321-11.93-6.918-2.468-12.848 9.391-22.23 18.282-9.387 8.89-24.208 27.18-30.63 40.02-6.417 12.85-18.78 27.179-23.218 47.429-4.45 20.262-4.45 36.07-13.34 56.82s-11.861 73.131-13.832 102.771c-1.98 29.652-39.527 82.02-39.527 82.02l-34.602 52.368 1.379-.71-.89.71h186.28s21.25-27.18 29.153-39.03c7.906-11.86 23.719-16.798 55.828-35.079 32.121-18.281 40.52-34.09 43.48-47.93 2.961-13.832 7.41-38.05 21.25-57.808 13.83-19.761 15.32-29.652 19.27-42.991 3.95-13.34 13.34-19.758 18.281-32.61 3.2-8.332-10.633-14.16-20.75-17.238 14.52-14.031 32.95-30.692 41.028-47.48zm0 0" fill="url(#c)"/></g><g clip-path="url(#f)" mask="url(#e)"><path d="m400.512 126.91c4.539-6.031 4.047-14.32-4.614-19.262-5.43-3.097-11.148-1.886-15.718.34h-.211c-4.88 2.473-8.418 6.34-8.27 7.262.082.398.262.77.52 1.078.3 0 .62-.008.93-.008-.29 0-.57 0-.848.008.91 1.043 3.258 1.774 8.07 3.781 4.149 1.82 8.957 6.48 11.73 9.461-.011.09-.011.168-.023.258.73.711 1.41 1.461 2.063 2.25l.3-.2a17.698 17.698 0 0 0 5.93-5.019" fill="#fff" stroke="#000" stroke-width=".25"/></g><g clip-path="url(#h)" mask="url(#g)"><path d="m277.941 78.871c1.54.688 3.18 1.129 4.86 1.3a2.013 2.013 0 0 0 1.05-.69c0-.04 0-.09.008-.141.743-1.16 1.23-2.45 1.45-3.8-1.809-15.303-13.439-13.939-16.849-14.24-1.191-.038-2.871 1.028-4.652 2.579m-.028.09c-3.21 2.781-6.32 7.14-6.031 7.55.3.41.95.29 2.031.41.13-.03.25-.05.38-.077a22.607 22.607 0 0 1 7.55 2.367 91.402 91.402 0 0 0 10.238 4.652" fill="#fff" stroke="#000" stroke-width=".25"/></g><g clip-path="url(#j)" mask="url(#i)"><path d="m210.23 63.762a6.265 6.265 0 0 0 -.671 1.18c.07.597.113.398 2.511.597 1.84.2 4.09 2.652 8.16 4.383-.02-.043-.039-.094-.058-.133 1.476.59 3.02 1 4.59 1.223 4.918.718 9.039-2.442 11.02-4.332v-.16c.73-.72 1.167-1.211 1.167-1.211 1.63-17.137-10.719-14.61-15.758-13.348l-3.722 2.918zm0 0" fill="#fff" stroke="#000" stroke-width=".25"/></g><g clip-path="url(#l)" mask="url(#k)"><path d="m180.969 61.871c-4.77-2.07-10.739 6.578-11.7 9.899h-.007l-.121.582c-.153 2.699 12.14 6.226 14.12 5.878.098.06.208 0 .31 0a9.495 9.495 0 0 0 -.243-.59c.121.25.23.481.32.7 2.043-.59 5.57-6.02 5.57-6.02 2.083-2.289-3.14-8.3-8.25-10.449zm0 0" fill="#fff" stroke="#000" stroke-width=".25"/></g><g clip-path="url(#n)" mask="url(#m)"><path d="m378.871 203.031c-.41-.472-.45.758-7.012 1.93-5.57.16-10.609 3.117-14.187 7.23-.172.09-.332.18-.492.27a25.08 25.08 0 0 0 -3.852 6.11c-3.219 7.16 9.012 12.757 9.012 12.757 1.012-2.379 11.762-17.86 14.11-22.476.421-.66.788-1.352 1.109-2.063.03.012.062.012.09.02 1.761-2.797 1.632-3.309 1.222-3.778zm0 0" fill="#fff" stroke="#000" stroke-width=".25"/></g><g clip-path="url(#p)" mask="url(#o)"><path d="m326.559 191.809a32.407 32.407 0 0 0 4.39 3.16c-10.648-4.36-18.027-16.5-22.648-26.469.71 1.05 1.43 2.09 2.12 3.219 3.95 7.492 9.2 15.383 16.138 20.09zm12.301-2.809c1.468.988 2.84 1.89 4.3 2.852-8.031-3.461-18.148-9.93-22.73-17.403a67.485 67.485 0 0 0 2.87 2.832c3.99 4.649 9.95 8.778 15.56 11.719zm3.378-8.059a53.405 53.405 0 0 1 3.133 3.63c-7.61-7.25-17.14-12.622-25.332-19.333 1.43.742 2.84 1.582 4.32 2.442 5.782 4.441 12.211 8.449 17.88 13.261zm9.883-3.632c.988 1.132 1.899 2.23 2.809 3.332-7.45-6.082-14.45-13.672-23.102-18.141 1.5.441 2.942 1.012 4.332 1.73 5.781 3.711 10.79 8.641 15.961 13.079zm17.641-48.599c4.488 2.911 8.508 7.02 12.476 10.59.91 1.098 1.75 2.079 2.473 3.122-6.191-5.184-12.102-12.23-19.691-15.473 1.64.41 3.23 1 4.742 1.762zm0 0"/></g><g clip-path="url(#r)" mask="url(#q)"><path d="m218.77 138.219c1.48.172 2.968.25 4.468.23-9.207 2.14-19.36-2.449-26.199-8.488 1.18.64 2.43 1.398 3.742 1.98 5.297 3.68 11.7 6.41 17.989 6.278zm7.109-9.66a50.946 50.946 0 0 1 3.633 2.46c-8.25-3.507-16.473-8.218-25.223-10.32 1.531.031 3.05.211 4.54.531 5.78 1.82 11.44 4.79 17.05 7.329zm-9.91 4.551c1.152.34 2.383.69 3.55.93-7.25.429-14.558-4.29-19.898-8.72l2.957 1.52c4 2.93 8.64 5.488 13.39 6.27zm2.812-14.65c5.16 2.368 10.13 5.2 15.278 7.669 1.16.742 2.203 1.562 3.261 2.281-7.5-3.25-14.48-7.61-22.12-10.68 1.21.141 2.41.38 3.581.73zm49.759-32.64c.991.418 2.151.84 3.16 1.352-6.45-.992-13.34-2.844-18.86-6.492l3.14.992a48.74 48.74 0 0 0 12.56 4.148zm0 0"/></g><g clip-path="url(#t)" mask="url(#s)"><path d="m152.59 141.46 3.77 1.24a40.046 40.046 0 0 1 -21.2-8l3.461 1.448a40.3 40.3 0 0 0 13.969 5.313zm6.16-10.05c1.059.77 2.078 1.621 3.04 2.352-6.419-2.961-12.75-7.621-19.759-8.582 1.32-.102 2.649-.051 3.95.16 4.398 1.46 8.609 3.879 12.769 6.07zm-6.371 4.88 2.672 1.17c-5.93-.48-11.86-3.698-16.63-7.019.977.297 1.938.649 2.88 1.047a37.834 37.834 0 0 0 11.078 4.801zm60.761-58.29c.989.61 1.981 1.219 2.872 1.8-6.063-1.98-12.934-4.859-17.184-9.671l2.332 1.39a40.301 40.301 0 0 0 11.98 6.481zm0 0"/></g><g clip-path="url(#v)" mask="url(#u)"><path d="m120.578 151.941c.582.18 1.14.45 1.723.637a17.268 17.268 0 0 1 -10.02-2.098c.64 0 1.25.09 1.91.079 2 .93 4.18 1.402 6.387 1.382zm2.934-4.991c.61.39 1.199.82 1.77 1.269-3.731-.989-7.134-2.64-10.872-3.399.7-.191 1.43-.28 2.16-.261 2.41.671 4.66 1.671 6.942 2.39zm3.179-5.84c.61.34 1.188.73 1.73 1.171-3.57-.91-7.183-1.422-10.6-2.8.667-.083 1.35-.11 2.03-.09 2.227.718 4.52 1.289 6.84 1.718zm45.989-57.59c.808.152 1.61.34 2.398.59-4.437.5-9.879-.098-12.098-3.95.48.371.98.7 1.508.988 2.043 1.723 5.14 2.372 8.192 2.372zm0 0"/></g><g clip-path="url(#x)" mask="url(#w)"><path d="m120.14 215.031s.15-2.703.489-7.41c.191-2.36.422-5.223.672-8.5.258-3.281.558-6.992.988-11.02.422-4.03.84-8.402 1.3-13.023.462-4.617.99-9.488 1.68-14.52.692-5.027 1.38-10.218 2.27-15.48.242-1.308.461-2.637.7-3.95l.831-3.948c.309-1.34.68-2.621 1.059-4.032.371-1.32.871-2.597 1.5-3.808a37.239 37.239 0 0 1 10.242-12.852c2.07-1.726 4.2-3.308 6.23-4.937a30.087 30.087 0 0 0 5.399-5.172l1.219-1.488 1.32-1.422c.902-.899 1.79-1.77 2.73-2.57 1.833-1.649 3.692-3.149 5.493-4.618 3.636-2.91 7.129-5.562 10.308-8.062 3.18-2.5 6.102-4.79 8.57-6.918 2.47-2.121 4.372-4.32 6.34-5.672.918-.77 1.79-1.348 2.532-1.899.738-.539 1.398-.992 1.93-1.32l1.648-1.101-1.55 1.171c-.99.75-2.481 1.899-4.259 3.43-1.781 1.531-3.66 3.711-6.082 5.93a201.286 201.286 0 0 1 -8.37 7.262c-3.13 2.57-6.599 5.308-10.11 8.27-1.758 1.5-3.57 3.038-5.328 4.698-.442.41-.88.82-1.301 1.25-.43.43-.89.852-1.29 1.282l-1.26 1.378-1.15 1.442a31.678 31.678 0 0 1 -5.66 5.52c-2.05 1.648-4.14 3.23-6.14 4.937a35.598 35.598 0 0 0 -9.63 12.21 37.535 37.535 0 0 0 -1.491 3.712c-.32 1.199-.719 2.508-.989 3.777-.27 1.274-.57 2.602-.851 3.89-.277 1.294-.48 2.622-.719 3.954-.93 5.207-1.7 10.379-2.39 15.387-1.38 10.02-2.63 19.39-3.579 27.43-1.992 16.07-3.3 26.792-3.3 26.792zm238.938-28.859-5.398 5.539-2.782 2.96c-.5.54-1.046 1.099-1.57 1.688l-1.617 1.88a53.033 53.033 0 0 0 -3.43 4.21l-3.61 4.832c-.632.848-1.26 1.707-1.98 2.59-.71.879-1.3 1.777-2.062 2.649l-4.527 5.44c-3.141 3.642-6.493 7.45-10.063 11.321l-11.05 11.86c-1.798 2.07-3.77 4.039-5.579 6.18-1.808 2.128-3.66 4.218-5.422 6.378l-2.597 3.34c-.86 1.11-1.711 2.172-2.493 3.352-1.597 2.289-3.09 4.597-4.558 6.918a74.505 74.505 0 0 0 -7.09 14.363 27.018 27.018 0 0 0 -1.512 7.328v1.8c.032.59.121 1.169.262 1.74.121.57.328 1.16.48 1.722.2.59.348 1.187.461 1.797.438 2.363.63 4.77.547 7.171v1.711c0 .559-.066 1.118-.097 1.668 0 1.11-.192 2.18-.29 3.23a75.513 75.513 0 0 1 -2.132 11.36c-.418 1.672-.93 3.192-1.36 4.61a37.2 37.2 0 0 1 -1.41 3.832l-.668 1.609c-.222.5-.453.988-.66 1.39-.41.872-.762 1.598-1.11 2.16-.652 1.15-.991 1.759-.991 1.759s.308-.63.902-1.809c.308-.578.61-1.328.988-2.21.38-.88.77-1.892 1.192-3.04.418-1.16.808-2.45 1.257-3.852a43.2 43.2 0 0 0 1.18-4.628c.82-3.72 1.402-7.5 1.742-11.301.07-.989.188-2.098.207-3.188a15.24 15.24 0 0 1 .063-1.64c.027-.563.027-1.11 0-1.672 0-1.13-.09-2.25-.16-3.41l-.211-1.72c-.059-.577-.211-1.12-.309-1.679a13.079 13.079 0 0 0 -.492-1.719c-.18-.601-.367-1.21-.55-1.82a19.779 19.779 0 0 1 -.34-1.98c-.079-.66-.098-1.32-.067-1.98.117-2.673.617-5.302 1.5-7.833a75.123 75.123 0 0 1 7.137-14.816c1.453-2.364 2.96-4.75 4.562-7.063.758-1.168 1.64-2.3 2.5-3.418l2.578-3.39c1.801-2.172 3.692-4.27 5.512-6.403 1.828-2.129 3.789-4.117 5.66-6.168l11.149-11.86c3.628-3.812 7.09-7.538 10.351-11.089l4.61-5.262c.757-.84 1.44-1.718 2.109-2.59l1.98-2.539 1.899-2.43 1.86-2.32c1.14-1.43 2.35-2.8 3.632-4.109l1.7-1.832c.55-.57 1.12-1.11 1.64-1.629l2.91-2.86c1.77-1.71 3.21-2.96 4.168-3.902zm-194.468 20.957c.402-.11.78-.277 1.128-.52.41-.27.813-.57 1.192-.898.48-.473.941-.992 1.37-1.48a26.283 26.283 0 0 0 3.009-4.54 68.986 68.986 0 0 0 2.921-6.46c.989-2.422 1.829-5.102 2.711-7.961l1.25-4.418 1.18-4.653c.738-3.168 1.43-6.469 2.16-9.828.73-3.36 1.54-6.793 2.438-10.18.902-3.39 1.89-6.761 2.96-10.05 1.083-3.29 2.2-6.493 3.4-9.57a101.493 101.493 0 0 1 7.91-16.18 39.02 39.02 0 0 1 8.152-9.77 13.054 13.054 0 0 1 3.02-1.82c.28-.14.577-.25.878-.34l.313-.11-.301.13c-.29.12-.57.25-.84.41-1.02.578-1.98 1.27-2.84 2.078a29.01 29.01 0 0 0 -3.621 4.081 58.52 58.52 0 0 0 -3.8 5.93 117.162 117.162 0 0 0 -7.24 16.218c-1.151 3.051-2.179 6.262-3.21 9.52a195.169 195.169 0 0 0 -2.852 9.98c-.867 3.371-1.718 6.742-2.476 10.082-.371 1.68-.75 3.328-1.16 4.938-.41 1.652-.762 3.281-1.203 4.87-.438 1.59-.868 3.141-1.29 4.661-.417 1.52-.988 2.96-1.41 4.43-.988 2.87-1.98 5.53-3.058 7.91-.492 1.23-1.121 2.332-1.64 3.422-.52 1.09-1.161 2.039-1.68 2.957a28.305 28.305 0 0 1 -3.36 4.43 10.102 10.102 0 0 1 -2.8 2.222c-.38.23-.79.41-1.212.508zm0 0"/><path d="m359.078 186.172-5.398 5.539-2.782 2.96c-.5.54-1.046 1.099-1.57 1.688l-1.617 1.88a53.033 53.033 0 0 0 -3.43 4.21l-3.61 4.832c-.632.848-1.26 1.707-1.98 2.59-.71.879-1.3 1.777-2.062 2.649l-4.527 5.44c-3.141 3.642-6.493 7.45-10.063 11.321l-11.05 11.86c-1.798 2.07-3.77 4.039-5.579 6.18-1.808 2.128-3.66 4.218-5.422 6.378l-2.597 3.34c-.86 1.11-1.711 2.172-2.493 3.352-1.597 2.289-3.09 4.597-4.558 6.918a74.505 74.505 0 0 0 -7.09 14.363 27.018 27.018 0 0 0 -1.512 7.328v1.8c.032.59.121 1.169.262 1.74.121.57.328 1.16.48 1.722.2.59.348 1.187.461 1.797.438 2.363.63 4.77.547 7.171v1.711c0 .559-.066 1.118-.097 1.668 0 1.11-.192 2.18-.29 3.23a75.513 75.513 0 0 1 -2.132 11.36c-.418 1.672-.93 3.192-1.36 4.61a37.2 37.2 0 0 1 -1.41 3.832l-.668 1.609c-.222.5-.453.988-.66 1.39-.41.872-.762 1.598-1.11 2.16-.652 1.15-.991 1.759-.991 1.759s.308-.63.902-1.809c.308-.578.61-1.328.988-2.21.38-.88.77-1.892 1.192-3.04.418-1.16.808-2.45 1.257-3.852a43.2 43.2 0 0 0 1.18-4.628c.82-3.72 1.402-7.5 1.742-11.301.07-.989.188-2.098.207-3.188a15.24 15.24 0 0 1 .063-1.64c.027-.563.027-1.11 0-1.672 0-1.13-.09-2.25-.16-3.41l-.211-1.72c-.059-.577-.211-1.12-.309-1.679a13.079 13.079 0 0 0 -.492-1.719c-.18-.601-.367-1.21-.55-1.82a19.779 19.779 0 0 1 -.34-1.98c-.079-.66-.098-1.32-.067-1.98.117-2.673.617-5.302 1.5-7.833a75.123 75.123 0 0 1 7.137-14.816c1.453-2.364 2.96-4.75 4.562-7.063.758-1.168 1.64-2.3 2.5-3.418l2.578-3.39c1.801-2.172 3.692-4.27 5.512-6.403 1.828-2.129 3.789-4.117 5.66-6.168l11.149-11.86c3.628-3.812 7.09-7.538 10.351-11.089l4.61-5.262c.757-.84 1.44-1.718 2.109-2.59l1.98-2.539 1.899-2.43 1.86-2.32c1.14-1.43 2.35-2.8 3.632-4.109l1.7-1.832c.55-.57 1.12-1.11 1.64-1.629l2.91-2.86c1.77-1.71 3.21-2.96 4.168-3.902zm0 0"/></g><g clip-path="url(#z)" mask="url(#y)"><path d="m340.281 259.422s-1.8 4.797 5.707 7.117c0-.008-4.867-3.578-5.707-7.117zm0 0"/></g><g clip-path="url(#B)" mask="url(#A)"><path d="m343.8 253.91c.079.63 6.47.988 6.47.988s-4.649-4.007-6.47-.988zm0 0"/></g><g clip-path="url(#D)" mask="url(#C)"><path d="m194.719 71.809a63.465 63.465 0 0 0 -6.969-8.2 194.28 194.28 0 0 1 -17.21 18.512c-10.38 9.39-31.618 30.629-36.56 36.559-4.94 5.93-8.89 12.351-11.859 36.558-2.973 24.211-12.351 64.23-1.98 59.793 0 0 5.93-66.21 10.87-81.531 4.938-15.32 17.79-19.27 23.22-26.68 5.44-7.41 24.71-20.261 32.12-28.16a56.401 56.401 0 0 1 8.649-7.05zm0 0"/></g><g clip-path="url(#F)" mask="url(#E)"><path d="m242.18 62.852c-.11 5.476-1.418 11.859-5.93 16.796-9.879 10.872-35.25 29.32-46.121 37.723-10.867 8.399-10.867 35.41-15.809 57.64-4.941 22.227-20.582 36.56-9.71 32.118 0 0 9.39-.988 17.288-38.05 7.91-37.06 19.762-57.81 28.66-60.77 0 0 15.633-7.829 23.313-14.73 8.84-11.188 11.629-17.798 8.309-30.727zm0 0"/></g><g clip-path="url(#H)" mask="url(#G)"><path d="m255.52 210.59c-18.282.488-15.32-21.25-10.38-35.078 4.938-13.832 10.38-36.563 10.38-36.563a50.985 50.985 0 0 0 24.21-16.8c7.692-9.958 15.98-28.399 15.31-42.57a56.661 56.661 0 0 1 -10.868 25.78c-12.352 16.313-24.211 23.72-24.211 23.72l-8.402-7.407s4.453 4.45-.989 19.758c-5.441 15.32-27.672 52.87-8.89 72.629 14.82 15.62 34-9.82 46.52-27.758-13.38 13.008-25.302 24.09-32.68 24.289zm0 0"/></g><g clip-path="url(#J)" mask="url(#I)"><path d="m346.441 194.77c-19.27 18.78-56.332 57.808-63.742 75.601-7.41 17.79-1.48 33.11-6.918 48.918-5.441 15.813 1.48 31.133 12.848 8.402 11.36-22.73-6.418-36.07 7.91-60.28 14.332-24.212 29.152-23.22 29.152-23.22s-2.472-3.953 1.98-14.332c3.95-9.218 24.708-31.699 35.13-41.449a91.537 91.537 0 0 0 -4.5-1.488c8.11-7.852 17.437-16.492 25.508-25.55-8.18 6.839-23.86 20.237-37.368 33.398zm0 0"/></g><g clip-path="url(#L)" mask="url(#K)"><path d="m233.531 95.95s16.547-7.579 26.27 3.628c0 0 0-4.406-6.262-6.219-6.258-1.808-13.828-.62-13.828-.62zm0 0"/></g><g clip-path="url(#O)" mask="url(#M)"><path d="m358.29 186.922c14.51-14.031 32.92-30.633 41.01-47.48 11.86-24.712 3.641-34.212-10.378-37.551-10.383-2.47-35.742 23.05-48.422 36.07-5.809 5.93-21.36 16.66-36.73 31.129-4.73 4.46-9.27 11.05-13.829 15.5-12.73 12.422-24.27 23.46-32.07 25.62l25.488 68.9s8.38-22.36 26.262-39.18c17.879-16.82 33.598-36.86 40.91-45.621a35.098 35.098 0 0 1 8.32-7.207zm0 0" fill="url(#N)"/></g></svg>