<svg viewBox="0 0 410 510" xmlns="http://www.w3.org/2000/svg" xmlns:xlink="http://www.w3.org/1999/xlink"><filter id="a" height="100%" width="100%" x="0%" y="0%"><feColorMatrix in="SourceGraphic" values="0 0 0 0 1 0 0 0 0 1 0 0 0 0 1 0 0 0 1 0"/></filter><mask id="b"><g filter="url(#a)"><path d="m0 0h410v510h-410z" fill-opacity=".851"/></g></mask><linearGradient id="c" gradientUnits="userSpaceOnUse" x1="205" x2="205" y1="474.25" y2="35.75"><stop offset="0" stop-color="#fff" stop-opacity="0"/><stop offset=".427" stop-color="#d0b5b3"/><stop offset="1" stop-color="#d0b5b3"/></linearGradient><clipPath id="d"><path d="m0 0h410v510h-410z"/></clipPath><mask id="e"><g filter="url(#a)"><path d="m0 0h410v510h-410z" fill-opacity=".502"/></g></mask><clipPath id="f"><path d="m0 0h410v510h-410z"/></clipPath><mask id="g"><g filter="url(#a)"><path d="m0 0h410v510h-410z" fill-opacity=".502"/></g></mask><clipPath id="h"><path d="m0 0h410v510h-410z"/></clipPath><mask id="i"><g filter="url(#a)"><path d="m0 0h410v510h-410z" fill-opacity=".502"/></g></mask><clipPath id="j"><path d="m0 0h410v510h-410z"/></clipPath><mask id="k"><g filter="url(#a)"><path d="m0 0h410v510h-410z" fill-opacity=".502"/></g></mask><clipPath id="l"><path d="m0 0h410v510h-410z"/></clipPath><mask id="m"><g filter="url(#a)"><path d="m0 0h410v510h-410z" fill-opacity=".302"/></g></mask><clipPath id="n"><path d="m0 0h410v510h-410z"/></clipPath><mask id="o"><g filter="url(#a)"><path d="m0 0h410v510h-410z" fill-opacity=".302"/></g></mask><clipPath id="p"><path d="m0 0h410v510h-410z"/></clipPath><mask id="q"><g filter="url(#a)"><path d="m0 0h410v510h-410z" fill-opacity=".302"/></g></mask><clipPath id="r"><path d="m0 0h410v510h-410z"/></clipPath><mask id="s"><g filter="url(#a)"><path d="m0 0h410v510h-410z" fill-opacity=".302"/></g></mask><clipPath id="t"><path d="m0 0h410v510h-410z"/></clipPath><mask id="u"><g filter="url(#a)"><path d="m0 0h410v510h-410z" fill-opacity=".302"/></g></mask><clipPath id="v"><path d="m0 0h410v510h-410z"/></clipPath><mask id="w"><g filter="url(#a)"><path d="m0 0h410v510h-410z" fill-opacity=".302"/></g></mask><clipPath id="x"><path d="m0 0h410v510h-410z"/></clipPath><mask id="y"><g filter="url(#a)"><path d="m0 0h410v510h-410z" fill-opacity=".302"/></g></mask><clipPath id="z"><path d="m0 0h410v510h-410z"/></clipPath><mask id="A"><g filter="url(#a)"><path d="m0 0h410v510h-410z" fill-opacity=".302"/></g></mask><clipPath id="B"><path d="m0 0h410v510h-410z"/></clipPath><mask id="C"><g filter="url(#a)"><path d="m0 0h410v510h-410z" fill-opacity=".302"/></g></mask><clipPath id="D"><path d="m0 0h410v510h-410z"/></clipPath><mask id="E"><g filter="url(#a)"><path d="m0 0h410v510h-410z" fill-opacity=".302"/></g></mask><clipPath id="F"><path d="m0 0h410v510h-410z"/></clipPath><mask id="G"><g filter="url(#a)"><path d="m0 0h410v510h-410z" fill-opacity=".302"/></g></mask><clipPath id="H"><path d="m0 0h410v510h-410z"/></clipPath><mask id="I"><g filter="url(#a)"><path d="m0 0h410v510h-410z" fill-opacity=".302"/></g></mask><clipPath id="J"><path d="m0 0h410v510h-410z"/></clipPath><mask id="K"><g filter="url(#a)"><path d="m0 0h410v510h-410z" fill-opacity=".302"/></g></mask><clipPath id="L"><path d="m0 0h410v510h-410z"/></clipPath><mask id="M"><g filter="url(#a)"><path d="m0 0h410v510h-410z" fill-opacity=".302"/></g></mask><clipPath id="N"><path d="m0 0h410v510h-410z"/></clipPath><mask id="O"><g filter="url(#a)"><path d="m0 0h410v510h-410z" fill-opacity=".302"/></g></mask><clipPath id="P"><path d="m0 0h410v510h-410z"/></clipPath><mask id="Q"><g filter="url(#a)"><path d="m0 0h410v510h-410z" fill-opacity=".302"/></g></mask><clipPath id="R"><path d="m0 0h410v510h-410z"/></clipPath><mask id="S"><g filter="url(#a)"><path d="m0 0h410v510h-410z" fill-opacity=".302"/></g></mask><clipPath id="T"><path d="m0 0h410v510h-410z"/></clipPath><mask id="U"><g filter="url(#a)"><path d="m0 0h410v510h-410z" fill-opacity=".102"/></g></mask><clipPath id="V"><path d="m0 0h410v510h-410z"/></clipPath><mask id="W"><g filter="url(#a)"><path d="m0 0h410v510h-410z" fill-opacity=".302"/></g></mask><clipPath id="X"><path d="m0 0h410v510h-410z"/></clipPath><mask id="Y"><g filter="url(#a)"><path d="m0 0h410v510h-410z" fill-opacity=".302"/></g></mask><clipPath id="Z"><path d="m0 0h410v510h-410z"/></clipPath><mask id="aa"><g filter="url(#a)"><path d="m0 0h410v510h-410z" fill-opacity=".102"/></g></mask><clipPath id="ab"><path d="m0 0h410v510h-410z"/></clipPath><mask id="ac"><g filter="url(#a)"><path d="m0 0h410v510h-410z" fill-opacity=".102"/></g></mask><clipPath id="ad"><path d="m0 0h410v510h-410z"/></clipPath><mask id="ae"><g filter="url(#a)"><path d="m0 0h410v510h-410z" fill-opacity=".102"/></g></mask><clipPath id="af"><path d="m0 0h410v510h-410z"/></clipPath><mask id="ag"><g filter="url(#a)"><path d="m0 0h410v510h-410z" fill-opacity=".502"/></g></mask><linearGradient id="ah" gradientUnits="userSpaceOnUse" x1="307.3629974" x2="332.289515" y1="152.279702" y2="60.3827696"><stop offset=".13" stop-color="#00afd1" stop-opacity="0"/><stop offset=".64" stop-color="#0074d1"/></linearGradient><clipPath id="ai"><path d="m0 0h410v510h-410z"/></clipPath><g clip-path="url(#d)" mask="url(#b)"><path d="m356.148 436.219c-3.289-10.36-12.34-20.88-15.668-31.32-6.94-21.43-14.539-33.45-15.082-47.797-.418-11.102-2.187-40.872-1.398-51.962 4.219-59.211 2.68-90.813 1.71-111.391l1.09-11.93 2.43-18.59c10.079-36.628 10.098-43.34 13.461-60.902 0 0 4.457-42.469 6.13-53.137 1.667-10.671-18.56-22.382-29.231-3.242-4.93 8.832-13.512 52.93-16.18 57.153-4.43 7.02-12.5 27.136-15.789 33.207-4.34 8.011-2.91 4.632-5.223 9.652 0 0-11.93-39.332-11.738-38.383-.52-2.348-2.898-11.308-10.082-15.777l-4.258-2.473-16.672-6.207-.09-.16s-.796-.332-2.558-.95c-.23-.09-6.04-1.59-17.71-4.491a80.934 80.934 0 0 0 -23.63-2.079c-5.11-1.75-10.219-2.953-13.379-3.082-7.031-2.32-33.383-11.39-47.761-5.28-6.239 2.66-10.52 8.32-10.98 13.042-.81 9.8 10.198 15.82 16.46 20.379s19.98 10.852 26.148 11.8c3.801.59 5.532 28.938 11.864 55.99-2.133-5.509-31.703-37.58-39.383-48.868-5.688-8.41-11.39-9.961-20.238-17.563-14.43-12.34-36.88-39.43-59.47-35.109-28.16 5.379-14.05 35.04-2.37 46.5 15.66 15.34 27.039 27.52 39.687 43.34 6.332 7.898 37.73 61.86 40.282 75.531l.39-.43c-.648 10.438-11.238 23.72-13.531 21.98 21.723-5.51-9.129-9.882-11.86-21.19-1.289-5.11 1.22-11.532.231-17.012-1.078-6.04-1.969-12.25-3.531-18.207-2.848-10.801-10.13-26.242-21.27-30.942-11.687-4.91-19.23 1.899-18.27 13.059 1.11 12.7 2.462 23.36-1.35 35.77-3.81 12.402-8.907 20.773-2.407 33.331 6.226 11.899 10.648 24.399 15.437 36.899 4.27 11.11 3.692 23.402 7.672 34.59 4.508 12.691 15.18 24.793 22.77 35.972 3.98 5.868 7.98 11.77 12.078 17.598.16-.18.32-.379.473-.559 5.367 6.961 10.847 13.86 16.558 20.56 16.77 19.679 41.75 27.85 52.43 52.429 3 6.793 5.512 13.691 8.422 20.5 2.476 5.691 1.77 7.96 8.539 7.761l9.62-.289 43.22-1.28 105.328-3.122c-1.528-9.258-9.52-27.71-11.32-33.32zm0 0" fill="url(#c)"/></g><g clip-path="url(#f)" mask="url(#e)"><path d="m138.629 79.14c3.492-1.468 7.723-5.53 11.77-7.562 3.652-1.758 4.91-2.937 6.34-3.629.14-.027.292-.05.433-.07 1.277-.39 1.008-.52 1.348-.809.332-.28-4.282-1.48-8.282-1.968a16.363 16.363 0 0 0 -5.687.07c-4.11.379-14.86 1.476-16.13 9.937 0 0 1.75 2.032 3.118 2.442 0 .02.012.039.012.058.43.07 4.398 2.672 7.078 1.532" fill="#fff" stroke="#000" stroke-width=".25"/></g><g clip-path="url(#h)" mask="url(#g)"><path d="m84.36 189.012c-.098-.16-.06-.371-.169-.551-1-5.191-4.23-9.711-8.691-12.57-4.96-4.02-4.43-5.09-4.988-4.88-.563.208-.953.598-.742 3.72 0 0-.09.609-.06.62.099.91.099.91.142 1.649.726 5.29 2.476 25.84 2.976 26.781 0 0 11.293-.332 11.922-7.86.21-2.3.078-4.632-.39-6.91zm0 0" fill="#fff" stroke="#000" stroke-width=".25"/></g><g clip-path="url(#j)" mask="url(#i)"><path d="m347.45 57.379c2.71-11.688-1.72-16.668-8.99-17.059-6.151-.332-8.05 8.758-8.538 12.168-.113.774-.152 1.262-.152 1.262l17.332 5.078c.109-.398.207-.789.296-1.18.012-.097.032-.18.051-.27zm0 0" fill="#fff" stroke="#000" stroke-width=".25"/></g><g clip-path="url(#l)" mask="url(#k)"><path d="m76.672 74.25c.148-.828-3.082-4.262-7.594-6.43h-.156c-4.223-1.98-9.524-3.05-14.594-.27-8.117 4.372-8.7 11.79-4.558 17.13l5.558 4.93 19.742-13.642c.489-.25.86-.5 1.11-.758l-.239.16.23-.16c.25-.27.43-.602.5-.961zm0 0" fill="#fff" stroke="#000" stroke-width=".25"/></g><g clip-path="url(#n)" mask="url(#m)"><path d="m183.672 99.11c8.797 1.59 17.906-.95 26.148-3.801-7.422 4.293-17.761 6.972-26.148 3.8zm0 0"/></g><g clip-path="url(#p)" mask="url(#o)"><path d="m178.988 91.578c7.653-3.367 16.922-6.539 25.512-5.476-8.621.597-17.031 3.648-25.512 5.476zm0 0"/></g><g clip-path="url(#r)" mask="url(#q)"><path d="m208.219 90.95c-5.759 3.221-13.419 6.23-20.219 4.84 6.922-.278 13.55-3.09 20.219-4.84zm0 0"/></g><g clip-path="url(#t)" mask="url(#s)"><path d="m172.11 88.25c6.8-3.16 14.831-6.46 22.628-6.23-7.699 1.609-15.008 4.539-22.629 6.23zm0 0"/></g><g clip-path="url(#v)" mask="url(#u)"><path d="m249.059 110.07-3.309.102a29.484 29.484 0 0 0 18.98-1.524l-3.12.383a29.163 29.163 0 0 1 -12.551 1.04zm0 0"/></g><g clip-path="url(#x)" mask="url(#w)"><path d="m246.46 99.14c-1.03.41-2.062.95-3 1.32 5.86-.948 12.052-3.491 17.962-2.429a12.875 12.875 0 0 0 -3.25-.953c-3.91.113-7.844 1.192-11.711 2.063zm0 0"/></g><g clip-path="url(#z)" mask="url(#y)"><path d="m250.469 105.379-2.457.351c4.879 1.192 10.437-.109 15.039-1.902-.86 0-1.711.063-2.563.172a27.872 27.872 0 0 1 -10.02 1.379zm0 0"/></g><g clip-path="url(#B)" mask="url(#A)"><path d="m326.922 112.8c-.863-.269-1.762-.44-2.613-.698a38.098 38.098 0 0 0 14.043 5.289c-.813-.45-1.641-.813-2.454-1.243a32.167 32.167 0 0 1 -8.976-3.347zm0 0"/></g><g clip-path="url(#D)" mask="url(#C)"><path d="m326.672 107.07c-1.031-.11-2.05-.242-3.102-.261 5.328 1.832 10.77 2.902 16.051 4.921a14.318 14.318 0 0 0 -2.55-1.68c-3.532-1.128-7.06-1.96-10.4-2.98zm0 0"/></g><g clip-path="url(#F)" mask="url(#E)"><path d="m326.672 100.52c-.98-.16-1.973-.27-2.961-.31 5.11 1.759 10.008 3.849 15.258 5.161a23.872 23.872 0 0 0 -2.508-1.45c-3.36-.94-6.512-2.202-9.79-3.401zm0 0"/></g><g clip-path="url(#H)" mask="url(#G)"><path d="m334.488 66.36c-.718-.32-1.457-.61-2.218-.848 3.242 2.847 7.859 5.289 11.742 3.43a10.81 10.81 0 0 1 -1.742 0c-2.598.238-5.38-.954-7.782-2.583zm0 0"/></g><g clip-path="url(#J)" mask="url(#I)"><path d="m83.371 83.059c-4.562 2.34-8.812 5.87-12.941 8.91-.95.953-1.899 1.812-2.66 2.742 6.402-4.34 12.73-10.512 20.3-12.871a22.23 22.23 0 0 0 -4.699 1.219zm0 0"/></g><g clip-path="url(#L)" mask="url(#K)"><path d="m92.5 118.578c-1.031.953-1.95 1.774-2.852 2.66 7.332-4.578 14.41-10.558 22.633-13.578-1.37.219-2.71.57-4 1.05-5.703 2.661-10.691 6.462-15.781 9.868zm0 0"/></g><g clip-path="url(#N)" mask="url(#M)"><path d="m101 130.93c-1.102.898-2.191 1.898-3.2 2.851 7.59-5.62 16.688-9.332 24.75-14.39-1.359.488-2.69 1.078-4.12 1.687-5.649 3.344-11.828 6.192-17.43 9.852zm0 0"/></g><g clip-path="url(#P)" mask="url(#O)"><path d="m104.25 137.07a27.26 27.26 0 0 1 -4.691 1.38c10.332-.481 20.23-8.54 27.152-15.579-.95.66-1.84 1.328-2.77 2.09-5.57 5.14-12.39 10.238-19.691 12.11zm0 0"/></g><g clip-path="url(#R)" mask="url(#Q)"><path d="m113.148 141.46c-1.308.86-2.539 1.7-3.859 2.56 7.223-3.098 16.332-8.91 20.422-15.622-.832.954-1.711 1.723-2.57 2.532-3.582 4.16-8.942 7.89-13.993 10.53zm0 0"/></g><g clip-path="url(#T)" mask="url(#S)"><path d="m195.14 75.5s.43.09 1.212.309c.777.222 1.898.543 3.34 1.05 1.437.512 3.128 1.211 5.046 2.102a37.736 37.736 0 0 1 6.133 3.629 23.811 23.811 0 0 1 6.02 6.031l1.187 2.02.48 1.07c.141.367.294.75.442 1.117a53.946 53.946 0 0 1 1.43 4.613c1.699 6.278 3.039 13.04 4.511 19.77.7 3.367 1.418 6.738 2.168 10.027.75 3.293 1.48 6.551 2.27 9.672 1.562 6.238 3.23 12.02 4.93 16.871.84 2.43 1.71 4.617 2.52 6.547.41.953.831 1.844 1.21 2.672l1.133 2.21c.75 1.302 1.308 2.34 1.77 3.009.238.332.468.68.66 1.043l-.75-.953c-.512-.63-1.192-1.598-2.012-2.848a186.83 186.83 0 0 0 -1.27-2.152c-.468-.778-.949-1.72-1.39-2.61a83.739 83.739 0 0 1 -2.91-6.46c-.961-2.41-1.899-5.048-2.848-7.887-.953-2.84-1.781-5.832-2.672-8.961a204.252 204.252 0 0 1 -2.45-9.672 682.255 682.255 0 0 1 -2.241-10.047c-.73-3.41-1.399-6.75-2.098-10.063-.691-3.308-1.383-6.578-2.16-9.68-.38-1.558-.832-3.07-1.281-4.507l-.372-1.043-.43-1.027c-.347-.653-.687-1.274-1.027-1.903a24.515 24.515 0 0 0 -5.5-5.93 42.91 42.91 0 0 0 -5.793-3.859c-1.828-.95-3.468-1.789-4.859-2.379-1.39-.59-2.48-1.031-3.25-1.3-.379-.141-.77-.29-1.148-.481zm87.27 70.512s.531 1.008 1.16 2.558c.32.77.66 1.668 1.02 2.64.16.481.37.95.539 1.49.172.538.351 1.01.531 1.53l.52 1.54c.199.48.332 1 .52 1.468.19.473.32.953.5 1.364.179.41.312.847.491 1.207.18.351.297.652.47.953.12.258.269.508.429.738l.45.621s-.259-.101-.72-.34c-.261-.16-.5-.351-.73-.562a6.385 6.385 0 0 1 -.828-.86c-.301-.359-.582-.738-.832-1.129-.29-.43-.54-.878-.77-1.34-.512-.98-.95-2.011-1.308-3.062a28.344 28.344 0 0 1 -.883-3.18c-.2-.937-.36-1.886-.469-2.847a20.288 20.288 0 0 1 -.09-2.79zm0 0"/></g><g clip-path="url(#V)" mask="url(#U)"><path d="m240.66 166.41c-7.7-14.02-12.808-26.23-16.129-43.648-5.691-29.89-7.59-34.614-11.86-38.91-4.273-4.301-16.562-8.09-16.562-8.09s39.11 15.027 37.961 38.91c-.468 9.488 2.852 30.758 5.692 39.86 2.84 9.077 8.59 25.898.898 11.878zm0 0"/></g><g clip-path="url(#X)" mask="url(#W)"><path d="m68.059 243.46s5.77-.651 8.16-3.179c0 0-.797 4.89-8.16 3.18zm0 0"/></g><g clip-path="url(#Z)" mask="url(#Y)"><path d="m70.078 231.73s5.762-1.12 5.863 2.301c-.363.48-5.863-2.3-5.863-2.3zm0 0"/></g><g clip-path="url(#ab)" mask="url(#aa)"><path d="m174.23 108.05c1.051-4.019-9.199-.152-12.34-.472-1.68-.168-7.78.063-9.14-4.039-1.352-3.508-2.41-3.98-1.309-9.918 0 0-4.39 3.14-2.441 7.93-5.191-.621-15.578-7.262-21.11-13.903a18.076 18.076 0 0 1 -3.8-9.796c-.09.226-.168.457-.25.68-.14.519-.23 1.058-.29 1.59-.21 2.698.462 5.39 1.9 7.679a38.057 38.057 0 0 0 7.82 7.98c2.378 1.778 4.742 3.348 6.742 4.75.367.27.77.547 1.187.828l.13.09c6.64 4.45 19.07 9.961 24.831 10.852 3.8.578 5.512 28.539 11.73 55.398 1.84 2.45 2.981 3.91 2.981 3.91l9.008 13.79c-3.8-7.59-4.27-15.66-11.86-51.72-3.417-16.288-4.84-21.609-3.789-25.628zm0 0"/></g><g clip-path="url(#ad)" mask="url(#ac)"><path d="m141.02 231.41c-.82-6.191-23.418-58.289-37.68-78.539s-40.488-34.543-48.2-46.242c-2.628-4-8.07-12.34-12.34-19.09 1.4 9.57 7.9 19.93 13.778 25.742 15.64 15.34 27.031 27.52 39.684 43.34 6.328 7.899 37.726 61.86 40.277 75.527l.39-.43c-.34 5.493-3.429 11.77-6.64 16.243-3.43-3.7-17.008-8.11-18.777-15.45-1.293-5.113 1.218-11.53.226-17.011-1.078-6.04-1.968-12.25-3.527-18.21a69.013 69.013 0 0 0 -2.43-7.411c.188 1.012.29 1.601.29 1.601 4.1 21.06 1.28 10.598 1.519 14.329.89 14.23-8.45 27.28-8.45 27.28 2.829.97 5.57 2.161 8.212 3.56 5.289 2.69 7.32 4.921 13.289 14.23 5.968 9.32 12.75 22.41 16.609 24.2 3.82 1.773 8.531-7.368 3.77-43.669zm-17.63 22.3c.829-.21 1.57-.42 2.25-.62-.98.691-1.78.95-2.25.62zm0 0"/></g><g clip-path="url(#af)" mask="url(#ae)"><path d="m290.48 161.191c.38-2.851 15.829-35.421 17.079-53.14 1.39-19.59 5.203-17.223 4.75-25.153-.418-7.207 6.89-26.93 10.82-41.808a24.729 24.729 0 0 0 -3.52 4.898c-4.93 8.832-13.507 52.934-16.18 57.153-4.429 7.02-12.5 27.14-15.788 33.21-3.45 6.36-3.25 5.54-4.192 7.45-.09.73-.11 1.469-.09 2.199.403 10.781 6.743 18.031 7.121 15.191zm0 0"/></g><g clip-path="url(#ai)" mask="url(#ag)"><path d="m283.36 146.012 4.968 15.789 39.473 12.449 1.43-10.96c10.078-36.63 10.097-43.34 13.46-60.9 0 0 4.457-42.468 6.13-53.14 1.667-10.672-18.56-22.379-29.231-3.238-4.93 8.828-13.512 52.93-16.18 57.148-4.43 7.02-12.5 27.14-15.789 33.211-3.8 7.11-3.172 5.258-4.57 8.25.097.488.199.969.308 1.39zm0 0" fill="url(#ah)"/></g></svg>