<svg viewBox="0 0 410 510" xmlns="http://www.w3.org/2000/svg" xmlns:xlink="http://www.w3.org/1999/xlink"><filter id="a" height="100%" width="100%" x="0%" y="0%"><feColorMatrix in="SourceGraphic" values="0 0 0 0 1 0 0 0 0 1 0 0 0 0 1 0 0 0 1 0"/></filter><mask id="b"><g filter="url(#a)"><path d="m0 0h410v510h-410z" fill-opacity=".851"/></g></mask><linearGradient id="c" gradientUnits="userSpaceOnUse" x1="205" x2="205" y1="483.264" y2="26.741"><stop offset="0" stop-color="#fff" stop-opacity="0"/><stop offset=".427" stop-color="#d0b5b3"/><stop offset="1" stop-color="#d0b5b3"/></linearGradient><clipPath id="d"><path d="m0 0h410v510h-410z"/></clipPath><mask id="e"><g filter="url(#a)"><path d="m0 0h410v510h-410z" fill-opacity=".502"/></g></mask><clipPath id="f"><path d="m0 0h410v510h-410z"/></clipPath><mask id="g"><g filter="url(#a)"><path d="m0 0h410v510h-410z" fill-opacity=".502"/></g></mask><clipPath id="h"><path d="m0 0h410v510h-410z"/></clipPath><mask id="i"><g filter="url(#a)"><path d="m0 0h410v510h-410z" fill-opacity=".502"/></g></mask><clipPath id="j"><path d="m0 0h410v510h-410z"/></clipPath><mask id="k"><g filter="url(#a)"><path d="m0 0h410v510h-410z" fill-opacity=".502"/></g></mask><clipPath id="l"><path d="m0 0h410v510h-410z"/></clipPath><mask id="m"><g filter="url(#a)"><path d="m0 0h410v510h-410z" fill-opacity=".302"/></g></mask><clipPath id="n"><path d="m0 0h410v510h-410z"/></clipPath><mask id="o"><g filter="url(#a)"><path d="m0 0h410v510h-410z" fill-opacity=".302"/></g></mask><clipPath id="p"><path d="m0 0h410v510h-410z"/></clipPath><mask id="q"><g filter="url(#a)"><path d="m0 0h410v510h-410z" fill-opacity=".302"/></g></mask><clipPath id="r"><path d="m0 0h410v510h-410z"/></clipPath><mask id="s"><g filter="url(#a)"><path d="m0 0h410v510h-410z" fill-opacity=".302"/></g></mask><clipPath id="t"><path d="m0 0h410v510h-410z"/></clipPath><mask id="u"><g filter="url(#a)"><path d="m0 0h410v510h-410z" fill-opacity=".302"/></g></mask><clipPath id="v"><path d="m0 0h410v510h-410z"/></clipPath><mask id="w"><g filter="url(#a)"><path d="m0 0h410v510h-410z" fill-opacity=".302"/></g></mask><clipPath id="x"><path d="m0 0h410v510h-410z"/></clipPath><mask id="y"><g filter="url(#a)"><path d="m0 0h410v510h-410z" fill-opacity=".302"/></g></mask><clipPath id="z"><path d="m0 0h410v510h-410z"/></clipPath><mask id="A"><g filter="url(#a)"><path d="m0 0h410v510h-410z" fill-opacity=".302"/></g></mask><clipPath id="B"><path d="m0 0h410v510h-410z"/></clipPath><mask id="C"><g filter="url(#a)"><path d="m0 0h410v510h-410z" fill-opacity=".302"/></g></mask><clipPath id="D"><path d="m0 0h410v510h-410z"/></clipPath><mask id="E"><g filter="url(#a)"><path d="m0 0h410v510h-410z" fill-opacity=".302"/></g></mask><clipPath id="F"><path d="m0 0h410v510h-410z"/></clipPath><mask id="G"><g filter="url(#a)"><path d="m0 0h410v510h-410z" fill-opacity=".302"/></g></mask><clipPath id="H"><path d="m0 0h410v510h-410z"/></clipPath><mask id="I"><g filter="url(#a)"><path d="m0 0h410v510h-410z" fill-opacity=".302"/></g></mask><clipPath id="J"><path d="m0 0h410v510h-410z"/></clipPath><mask id="K"><g filter="url(#a)"><path d="m0 0h410v510h-410z" fill-opacity=".102"/></g></mask><clipPath id="L"><path d="m0 0h410v510h-410z"/></clipPath><mask id="M"><g filter="url(#a)"><path d="m0 0h410v510h-410z" fill-opacity=".302"/></g></mask><clipPath id="N"><path d="m0 0h410v510h-410z"/></clipPath><mask id="O"><g filter="url(#a)"><path d="m0 0h410v510h-410z" fill-opacity=".302"/></g></mask><clipPath id="P"><path d="m0 0h410v510h-410z"/></clipPath><mask id="Q"><g filter="url(#a)"><path d="m0 0h410v510h-410z" fill-opacity=".102"/></g></mask><clipPath id="R"><path d="m0 0h410v510h-410z"/></clipPath><mask id="S"><g filter="url(#a)"><path d="m0 0h410v510h-410z" fill-opacity=".102"/></g></mask><clipPath id="T"><path d="m0 0h410v510h-410z"/></clipPath><mask id="U"><g filter="url(#a)"><path d="m0 0h410v510h-410z" fill-opacity=".102"/></g></mask><clipPath id="V"><path d="m0 0h410v510h-410z"/></clipPath><mask id="W"><g filter="url(#a)"><path d="m0 0h410v510h-410z" fill-opacity=".502"/></g></mask><linearGradient id="X" gradientUnits="userSpaceOnUse" x1="290.5749188" x2="289.1103134" y1="164.5610612" y2="55.308398"><stop offset="0" stop-color="#00afd1" stop-opacity="0"/><stop offset=".64" stop-color="#0074d1"/></linearGradient><clipPath id="Y"><path d="m0 0h410v510h-410z"/></clipPath><g clip-path="url(#d)" mask="url(#b)"><path d="m47.852 103.629c-7.082-15.23-17.692-50.2 11.52-49.367 23.64.687 32.187 36.308 45.847 50.25 7.203 7.297 11.71 13.18 17.761 21.68 8.168 11.386 16.11 22.898 24.06 34.386a105.573 105.573 0 0 0 8.07 8.692c-.372-10.258-3.66-29.211-3.712-31.88-.07-4.359 1.75-22.011-1.187-24.66-1.34-1.199-15.95-7.44-22.441-12-6.489-4.558-10.372-9.07-9.75-19.19.359-4.88 4.628-10.731 10.98-13.661 14.629-6.61 34.309.66 41.59 2.93 3.25.062 8.531 1.18 13.82 2.863 0 0-.37-7.14 18.8-1.621 11.88 3.41 23.59 7.34 23.83 7.418 1.82.64 2.651.98 2.651.98l.09.16 17.29 6 4.429 2.45c7.469 4.43 10.129 13.57 10.73 15.992-.21-.98 2.442 36.847 3.372 33.43 1.847-6.833 6.726-28.29 9.418-36.41 1.628-4.88-.622-51.012 2.12-61.02 5.95-21.723 29.02-15.031 29.981-3.95.957 11.079 6.93 54.57 6.93 54.57.98 19.02.648 26.669-.64 69.59l-.2 26.63c1.437 21.05 11.48 55.308 8.36 119.007-.571 11.422 1.949 41.954 2.628 53.383.88 14.73 8.961 26.91 16.582 48.77 3.688 10.597 13.2 21.21 16.82 31.777 1.95 5.723 10.598 24.492 12.399 33.992l-108.219 5.61-44.383 2.3-9.878.508c-6.93.364-6.25-1.949-8.93-7.797-3.14-6.93-5.852-13.96-9.121-20.87-11.5-25.012-37.399-32.833-55.07-52.673-6.028-6.757-11.81-13.726-17.489-20.77-.16.2-.308.403-.48.59-4.352-5.91-8.59-11.866-12.82-17.808-8.032-11.32-19.27-23.52-24.15-36.45-4.339-11.41-4.019-24.062-8.66-35.37-5.21-12.75-10.038-25.5-16.722-37.578-6.969-12.75-1.887-21.461 1.73-34.313 3.622-12.847 1.954-23.75.57-36.777-1.237-11.41 6.352-18.621 18.481-13.844 11.551 4.594 19.38 20.293 22.563 31.32 1.738 6.09 2.789 12.461 4.039 18.633 1.148 5.617-1.29 12.258.16 17.489.48 1.8 12 21.69 12.68 21.46 2.39 1.782 3.43-13.421 3.898-24.18l-.398.45c-11.29-48.34-49.39-87-69.95-131.121zm0 0" fill="url(#c)"/></g><g clip-path="url(#f)" mask="url(#e)"><path d="m130.57 74.98c2.41-1.652 6.97-4.59 10.59-5.48 1.711-.48 3.461-.8 5.23-.98.61-.11 1.2-.29 1.758-.56.332-.28-2.199-1.66-4.878-2.32m.02 0a8.67 8.67 0 0 0 -3.9-.32c-2.93.75-12.859 2.258-15.07 9.532.16.617.559 1.136 1.102 1.468v.051c.277.117.578.16.879.117a28.234 28.234 0 0 0 4.219-1.468" fill="#fff" stroke="#000" stroke-width=".25"/></g><g clip-path="url(#h)" mask="url(#g)"><path d="m72.578 192.91c-.09-.14-.187-.281-.289-.43-1.238-5.242-4.3-10.101-9.07-12.808-5.188-4.031-4.66-5.133-5.239-4.883-.582.25-.98.633-.671 3.84.03.012.062.02.082.031-.04.75-.04 1.5 0 2.25.87 5.418 3.129 26.5 3.668 27.45 0 0 11.601-.59 12.07-8.34.16-2.391-.02-4.79-.55-7.11zm0 0" fill="#fff" stroke="#000" stroke-width=".25"/></g><g clip-path="url(#j)" mask="url(#i)"><path d="m293 29.012c-7.73.86-6.54 15.078-6.54 15.078l18.43 2.219h.008c.09-.899.172-1.75.172-2.559.399-11.54-4.86-15.54-12.07-14.738zm0 0" fill="#fff" stroke="#000" stroke-width=".25"/></g><g clip-path="url(#l)" mask="url(#k)"><path d="m45.762 69.64c.726 2.212 1.949 4.231 3.547 5.919l.191.25a28.323 28.323 0 0 1 2.398-1.29c.024-.078.043-.148.063-.23 3.2-1.687 8.64-4.21 12.617-4.55 4.613-.259 6.82-.22 7.942-.848.02.007.03.007.05.02.309-.173.57-.43.739-.74.402-.73-1.457-5-4.88-8.48-.058-.02-.12-.05-.19-.07-3.2-3.191-7.669-5.84-13.118-4.812-8.723 1.601-11.562 8.46-9.48 14.82" fill="#fff" stroke="#000" stroke-width=".25"/></g><g clip-path="url(#n)" mask="url(#m)"><path d="m172.64 98.281c9.079 1.418 18.38-1.402 26.79-4.453-7.532 4.524-18.078 7.524-26.79 4.453zm-4.98-7.633c7.8-3.636 17.25-7.109 26.09-6.207-8.79.809-17.422 4.137-26.09 6.207zm29.988-1.269c-5.847 3.422-13.66 6.7-20.668 5.422 7.141-.473 13.891-3.473 20.668-5.422zm-37.128-1.949c6.921-3.399 15.101-6.97 23.12-6.93-7.902 1.8-15.331 4.98-23.12 6.93zm0 0"/></g><g clip-path="url(#p)" mask="url(#o)"><path d="m235.762 110.102-3.41.18c6.52 1.5 13.347.82 19.437-1.954l-3.2.461a30.337 30.337 0 0 1 -12.827 1.313zm-2.934-11.18c-1.047.45-2.098.976-3.047 1.43 6-1.102 12.309-3.903 18.41-2.93a13.122 13.122 0 0 0 -3.37-.902c-3.993.218-8.04 1.421-11.993 2.402zm4.242 6.328-2.53.422c5.038 1.098 10.73-.363 15.41-2.262-.88.031-1.75.11-2.622.23a28.89 28.89 0 0 1 -10.258 1.61zm0 0"/></g><g clip-path="url(#r)" mask="url(#q)"><path d="m296.77 107.02c-.98-.07-1.848 0-2.782-.09a39.146 39.146 0 0 0 15.313 1.949c-.922-.25-1.832-.41-2.742-.66-3.309.09-6.598-.32-9.79-1.2zm0 0"/></g><g clip-path="url(#t)" mask="url(#s)"><path d="m295.191 101.34c-1.043.129-2.101.25-3.16.48 5.758.57 11.457.352 17.219 1.121-.93-.46-1.922-.82-2.93-1.07-3.851-.371-7.582-.3-11.129-.531zm0 0"/></g><g clip-path="url(#v)" mask="url(#u)"><path d="m293.621 94.781c-1.02.07-2.043.2-3.043.39 5.531.56 10.922 1.49 16.5 1.56-.906-.352-1.95-.61-2.848-.872-3.59-.129-7.039-.629-10.609-1.078zm0 0"/></g><g clip-path="url(#x)" mask="url(#w)"><path d="m293.39 56.09c-.788-.211-1.59-.371-2.402-.48 3.762 2.312 8.871 4.038 12.492 1.492-.582.128-1.171.226-1.77.27-2.62.698-5.608-.032-8.32-1.282zm0 0"/></g><g clip-path="url(#z)" mask="url(#y)"><path d="m76.078 77.172c-5.258.379-10.726 2.027-15.828 3.238-1.309.531-2.5.98-3.61 1.531 7.801-1.543 16.27-4.882 24.391-4.043a20.703 20.703 0 0 0 -4.953-.726zm0 0"/></g><g clip-path="url(#B)" mask="url(#A)"><path d="m80.77 115.871c-1.168.75-2.239 1.508-3.329 2.27 8.13-3.59 16.22-8.621 25.028-10.493-1.438.024-2.867.18-4.278.48-6.05 1.892-11.75 5.071-17.421 7.743zm0 0"/></g><g clip-path="url(#D)" mask="url(#C)"><path d="m87.602 129.68a45.687 45.687 0 0 0 -3.68 2.46c8.547-4.59 18.36-7.019 27.308-10.992-1.449.313-2.93.711-4.449 1.114-6.242 2.527-12.941 4.52-19.18 7.418zm0 0"/></g><g clip-path="url(#F)" mask="url(#E)"><path d="m90.012 136.41a28.89 28.89 0 0 1 -4.973.711c10.582 1.02 21.84-5.723 29.922-11.86-1.031.54-2.082 1.079-3.133 1.72-6.43 4.41-14.129 8.597-21.816 9.43zm0 0"/></g><g clip-path="url(#H)" mask="url(#G)"><path d="m98.41 142.18c-1.46.68-2.84 1.36-4.308 2.039 7.796-2.098 17.918-6.66 23.078-12.89a45.6 45.6 0 0 1 -2.989 2.202 51.303 51.303 0 0 1 -15.78 8.649zm0 0"/></g><g clip-path="url(#J)" mask="url(#I)"><path d="m264.352 131.21c.386 3.571.82 7.08 1.238 10.481.86 6.829 1.648 13.137 2.34 18.579.691 5.44 1.23 9.98 1.62 13.152.391 3.168.598 4.988.598 4.988s-.367-1.8-.976-4.941c-.602-3.14-3.844-27.688-4.32-31.09zm-39.832 49.802a50.428 50.428 0 0 1 -3.11-4.184 77.616 77.616 0 0 1 -6.64-11.918 80.432 80.432 0 0 1 -3.211-8.539 75.81 75.81 0 0 1 -2.36-9.93 71.336 71.336 0 0 1 -.86-10.793c0-3.699.083-7.578-.07-11.367a137.11 137.11 0 0 0 -2.578-22.3 84.16 84.16 0 0 0 -2.632-10.02 46.497 46.497 0 0 0 -3.707-8.55 16.195 16.195 0 0 0 -5.23-5.962c-2.153-1.09-3.981-1.8-5.552-2.43a23.84 23.84 0 0 0 -3.71-1.14 6.841 6.841 0 0 0 -.981-.16c.332.062.66.14.98.23 1.22.403 2.41.871 3.57 1.403.75.359 1.583.718 2.481 1.187l1.39.723c.49.226.97.5 1.419.789a16.236 16.236 0 0 1 4.64 5.847c2.57 4.993 4.34 11.41 5.653 18.352a155.716 155.716 0 0 1 2.328 22.05c.172 3.778.148 7.509.14 11.31a66.517 66.517 0 0 0 3.692 21.07 71.05 71.05 0 0 0 3.578 8.558 71.99 71.99 0 0 0 7.34 11.711c1.05 1.43 2.2 2.781 3.43 4.063zm0 0"/></g><g clip-path="url(#L)" mask="url(#K)"><path d="m219.25 173.46c-8.23-14.222-11.43-25.78-11.398-44.01.027-18.231-5.16-43.04-9.622-47.36-4.46-4.32-13.34-8.11-13.34-8.11s20.079 6.13 23.188 15.73c3.113 9.61 7.762 17.83 8.383 29.84.617 12.009 2.59 37.31 5.668 46.598 3.07 9.301 5.351 21.551-2.879 7.313zm0 0"/></g><g clip-path="url(#N)" mask="url(#M)"><path d="m57.18 249.27s5.91-.79 8.32-3.45c-.05.04-.77 5.008-8.32 3.45zm0 0"/></g><g clip-path="url(#P)" mask="url(#O)"><path d="m58.969 237.16s5.851-1.281 6.082 2.219c-.403.512-6.082-2.219-6.082-2.219zm0 0"/></g><g clip-path="url(#R)" mask="url(#Q)"><path d="m127.41 132.43c6.621 9.379 13.149 18.78 19.668 28.18a104.85 104.85 0 0 0 8.07 8.69c-.367-10.26-3.66-29.21-3.707-31.878-.07-4.363 1.75-22.012-1.191-24.66-1.34-1.203-15.95-7.442-22.441-12-.38-.262-.75-.543-1.11-.801l-.34-.262-.718-.55-.391-.32-.61-.509-.39-.34-.55-.511-.391-.36-.508-.52-.352-.378-.488-.57-.3-.352c-.22-.289-.442-.578-.641-.879a4.219 4.219 0 0 1 -.22-.34c-.081-.12-.312-.492-.46-.73-.149-.238-.168-.3-.25-.461-.09-.16-.211-.399-.309-.61-.101-.21-.172-.34-.242-.519-.078-.18-.18-.398-.25-.61l-.2-.57a5.109 5.109 0 0 1 -.198-.629c-.063-.222-.13-.402-.18-.601-.05-.2-.121-.461-.172-.692-.05-.226-.098-.418-.14-.628-.04-.22-.079-.508-.118-.77-.043-.262-.07-.422-.101-.629l-.121-1.32v-.121c4.203 6.148 10.242 15.539 19.043 16.398-2.114-4.879 2.328-8.2 2.328-8.2-.98 6.142.11 6.583 1.57 10.153 1.488 4.18 7.05 6.2 8.781 6.34 3.25.258 7.367-5.351 6.39-1.191-.991 4.16.45 10.48 1.669 27.539 1.219 17.062 1.539 17.23 3 31.86l2.93 18.53s-27.801-35.12-35.122-51.21c-.418-.97-.878-1.97-1.238-2.97zm0 0"/></g><g clip-path="url(#T)" mask="url(#S)"><path d="m51.172 105.398c6.258 12.973 23.828 40.262 38.95 60.743 15.116 20.48 35.116 59.02 36.089 65.359 5.719 37.191 1.39 51.172-2.602 49.43-4-1.75-11.3-16.578-17.648-26.032-6.352-9.437-3.5-7.957-9.012-10.597a56.793 56.793 0 0 0 -8.488-3.461s8.488-5.852 7.25-20.399c-.332-3.82 2.809 6.829-1.883-14.691a83.002 83.002 0 0 0 -17.469-35.469c5.352 2.649 9.832 7.668 13.36 13.328l.61.98.062.102.558.98.09.157c.172.3.34.602.512.922l.12.2c.157.288.31.59.458.878l.14.262c.153.27.282.558.422.84.059.101.11.199.16.3l.387.801c0 .117.114.23.16.34.133.258.243.52.364.777.117.262.117.243.168.372.05.128.218.492.332.742l.18.41.288.7c.07.148.13.288.192.437l.27.671.18.47c.089.198.167.421.237.62l.2.52c.07.2.152.379.21.582l.2.558.18.532c.081.199.14.398.203.597.07.2.109.313.16.47.047.16.148.452.218.671l.122.371c.109.34.199.68.296.98 1.743 6.09 2.793 12.458 4.043 18.63.098.468.16.98.207 1.417v.34c0 .473.07.98.07 1.403v4.199c-.058.66-.128 1.332-.187 1.95-.082.89-.16 1.78-.203 2.651v3.09c.024.45.082.899.184 1.34.058.309.136.629.207.98.48 1.797 12 21.688 12.68 21.458 2.39 1.78 3.43-13.418 3.902-24.18l-.403.45c-11.128-48.13-48.886-86.65-69.507-130.477a956.426 956.426 0 0 1 -6.07-19c2.238 6.16 5.577 13.546 8.85 20.296zm0 0"/></g><g clip-path="url(#V)" mask="url(#U)"><path d="m265.441 138.879c.688 8.992 3.149 22.293 3.778 32.922.64 11.05 3.601 5.699 3.902 2.77.3-2.93 1.328-24.04 2.207-42.282.98-20.148 5.852-21.46 5.203-29.59-.652-8.129-3.52-29.918-.3-45.52 1.16-5.667.328-14.468-.2-22.91a25.614 25.614 0 0 0 -2.93 6.762c-2.742 10.02-.46 56.149-2.12 61.02-2.47 7.57-7.45 28.71-9.54 36.828zm0 0"/></g><g clip-path="url(#Y)" mask="url(#W)"><path d="m265.61 138.48c0 .192-.11.239-.169.2v.199l4.387 36.82 43.422 6.75.16-21.219c1.3-42.921 1.64-50.57.64-69.59 0 0-5.98-43.492-6.929-54.57-.95-11.082-24.031-17.77-29.98 3.95-2.743 10.02-.493 56.152-2.121 61.02-2.68 8.12-7.56 29.589-9.41 36.44zm0 0" fill="url(#X)"/></g></svg>