<svg viewBox="0 0 410 510" xmlns="http://www.w3.org/2000/svg" xmlns:xlink="http://www.w3.org/1999/xlink"><filter id="a" height="100%" width="100%" x="0%" y="0%"><feColorMatrix in="SourceGraphic" values="0 0 0 0 1 0 0 0 0 1 0 0 0 0 1 0 0 0 1 0"/></filter><mask id="b"><g filter="url(#a)"><path d="m0 0h410v510h-410z" fill-opacity=".851"/></g></mask><linearGradient id="c" gradientUnits="userSpaceOnUse" x1="205" x2="205" y1="471.166" y2="38.842"><stop offset="0" stop-color="#fff" stop-opacity="0"/><stop offset=".427" stop-color="#d0b5b3"/><stop offset="1" stop-color="#d0b5b3"/></linearGradient><clipPath id="d"><path d="m0 0h410v510h-410z"/></clipPath><mask id="e"><g filter="url(#a)"><path d="m0 0h410v510h-410z" fill-opacity=".502"/></g></mask><clipPath id="f"><path d="m0 0h410v510h-410z"/></clipPath><mask id="g"><g filter="url(#a)"><path d="m0 0h410v510h-410z" fill-opacity=".502"/></g></mask><clipPath id="h"><path d="m0 0h410v510h-410z"/></clipPath><mask id="i"><g filter="url(#a)"><path d="m0 0h410v510h-410z" fill-opacity=".502"/></g></mask><clipPath id="j"><path d="m0 0h410v510h-410z"/></clipPath><mask id="k"><g filter="url(#a)"><path d="m0 0h410v510h-410z" fill-opacity=".502"/></g></mask><clipPath id="l"><path d="m0 0h410v510h-410z"/></clipPath><mask id="m"><g filter="url(#a)"><path d="m0 0h410v510h-410z" fill-opacity=".302"/></g></mask><clipPath id="n"><path d="m0 0h410v510h-410z"/></clipPath><mask id="o"><g filter="url(#a)"><path d="m0 0h410v510h-410z" fill-opacity=".302"/></g></mask><clipPath id="p"><path d="m0 0h410v510h-410z"/></clipPath><mask id="q"><g filter="url(#a)"><path d="m0 0h410v510h-410z" fill-opacity=".302"/></g></mask><clipPath id="r"><path d="m0 0h410v510h-410z"/></clipPath><mask id="s"><g filter="url(#a)"><path d="m0 0h410v510h-410z" fill-opacity=".302"/></g></mask><clipPath id="t"><path d="m0 0h410v510h-410z"/></clipPath><mask id="u"><g filter="url(#a)"><path d="m0 0h410v510h-410z" fill-opacity=".302"/></g></mask><clipPath id="v"><path d="m0 0h410v510h-410z"/></clipPath><mask id="w"><g filter="url(#a)"><path d="m0 0h410v510h-410z" fill-opacity=".302"/></g></mask><clipPath id="x"><path d="m0 0h410v510h-410z"/></clipPath><mask id="y"><g filter="url(#a)"><path d="m0 0h410v510h-410z" fill-opacity=".302"/></g></mask><clipPath id="z"><path d="m0 0h410v510h-410z"/></clipPath><mask id="A"><g filter="url(#a)"><path d="m0 0h410v510h-410z" fill-opacity=".302"/></g></mask><clipPath id="B"><path d="m0 0h410v510h-410z"/></clipPath><mask id="C"><g filter="url(#a)"><path d="m0 0h410v510h-410z" fill-opacity=".302"/></g></mask><clipPath id="D"><path d="m0 0h410v510h-410z"/></clipPath><mask id="E"><g filter="url(#a)"><path d="m0 0h410v510h-410z" fill-opacity=".302"/></g></mask><clipPath id="F"><path d="m0 0h410v510h-410z"/></clipPath><mask id="G"><g filter="url(#a)"><path d="m0 0h410v510h-410z" fill-opacity=".102"/></g></mask><clipPath id="H"><path d="m0 0h410v510h-410z"/></clipPath><mask id="I"><g filter="url(#a)"><path d="m0 0h410v510h-410z" fill-opacity=".302"/></g></mask><clipPath id="J"><path d="m0 0h410v510h-410z"/></clipPath><mask id="K"><g filter="url(#a)"><path d="m0 0h410v510h-410z" fill-opacity=".302"/></g></mask><clipPath id="L"><path d="m0 0h410v510h-410z"/></clipPath><mask id="M"><g filter="url(#a)"><path d="m0 0h410v510h-410z" fill-opacity=".102"/></g></mask><clipPath id="N"><path d="m0 0h410v510h-410z"/></clipPath><mask id="O"><g filter="url(#a)"><path d="m0 0h410v510h-410z" fill-opacity=".102"/></g></mask><clipPath id="P"><path d="m0 0h410v510h-410z"/></clipPath><mask id="Q"><g filter="url(#a)"><path d="m0 0h410v510h-410z" fill-opacity=".102"/></g></mask><clipPath id="R"><path d="m0 0h410v510h-410z"/></clipPath><mask id="S"><g filter="url(#a)"><path d="m0 0h410v510h-410z" fill-opacity=".502"/></g></mask><linearGradient id="T" gradientTransform="matrix(-3.1362 0 0 3.1362 -4790.335 5356.145)" gradientUnits="userSpaceOnUse" x1="-1617.255" x2="-1603.555" y1="-1652.661" y2="-1694.382"><stop offset=".13" stop-color="#00afd1" stop-opacity="0"/><stop offset=".64" stop-color="#0074d1"/></linearGradient><clipPath id="U"><path d="m0 0h410v510h-410z"/></clipPath><g clip-path="url(#d)" mask="url(#b)"><path d="m88.738 90.129a37.066 37.066 0 0 0 -20.566-14.009c-18.66-4.832-25.832 14.027-24.3 21 2.167 9.938 4.089 16.61 11.448 25.738 6.328 7.871 5.961 11.243 16.09 24.282.77.738 1.442 1.59 1.988 2.5 10.012 22.847 17.32 55.12 21.793 78.28l2.34 7.079s7.867 32.04 8.43 40.328c-.68.242-13.77-19.156-14.39-20.957-1.84-5.223.179-12.14-1.38-17.762-1.71-6.199-3.23-12.597-5.41-18.66-3.972-10.988-13.07-26.39-25.12-30.25-12.661-3.969-19.872 3.86-17.802 15.36 2.36 13.132 4.782 24.132 1.993 37.41-2.793 13.27-7.313 22.511.66 34.98 7.629 11.813 13.43 24.43 19.617 37.02 5.5 11.18 6.07 24.043 11.293 35.332 5.957 12.8 18.18 24.398 27.137 35.34 4.703 5.738 9.441 11.507 14.27 17.21l.452-.64c6.258 6.75 12.63 13.418 19.23 19.867 19.36 18.883 46.208 25.063 59.618 49.684 3.77 6.797 176.32-6.711 173.883-12.383-4.422-10.488-6.582-13.34-9.34-24.438-3.094-12.05-32.383-42.421-32.39-55.05 0-11.63-6.962-55.903-8.313-67.47-5.688-50.312-3.13-71.76-20.438-118.96l-4.582-28.68c-3.969-44.21-5.3-55.57-14.898-70.05l-19.871-31.8s-13.559-20.668-18.692-21.461c-9.129-1.45-24.039 6.152-17.34 28.582 2.614 8.758 8.48 11.918 15.07 26.64a86.41 86.41 0 0 1 8.122 35.957c-1.488-25.09-11.121-34.386-15.84-37.468-1.57-.989-10.79-3.59-10.79-3.59l-9.788-2.66-.113-.16s-.86-.27-2.758-.79c-.25-.07-12.422-3.242-24.742-5.878-19.868-4.262-18.989 2.976-18.989 2.976a60.327 60.327 0 0 0 -14.25-1.988c-7.55-1.762-19.332-5.34-33.78 2.422-6.25 3.36-8.278 8.258-8.302 13.218.082 10.31 11.453 22.782 11.453 22.782 4.829 3.75 11.387 4.5 12.829 5.617 3.171 2.48 2.558 20.55 2.98 24.973.32 3.75 2.29 17.609 2.45 21.468-2.41-7.11-8.098-22.172-10.571-29.28-1.52-4.368-3.48-13.278-8.688-20.31zm0 0" fill="url(#c)"/></g><g clip-path="url(#f)" mask="url(#e)"><path d="m135.91 78.77c-.172.03-.351.07-.52.109l.54-.117a10.688 10.688 0 0 0 -3.828.058c-2.98.828-12.922 2.82-15.641 8.72.129.491.5.882.969 1.062 0 .02 0 .039-.008.058.277.059.578.059.86 0a41.417 41.417 0 0 0 4.296-1.5c.043-.031.094-.058.14-.082 2.634-.988 5.954-2.406 9.044-3.777a56.587 56.587 0 0 1 6.66-2.442c.117-.02.238-.039.36-.058a8.452 8.452 0 0 0 1.777-.582c.363-.258-2.059-1.14-4.649-1.45zm0 0" fill="#fff" stroke="#000" stroke-width=".25"/></g><g clip-path="url(#h)" mask="url(#g)"><path d="m59 211.691c-.121-.16-.238-.32-.371-.492-1.559-5.25-5.04-10-10.117-12.398-5.563-3.73-5.102-4.89-5.672-4.61-.578.278-.91.707-.418 3.97.039.01.09.019.129.03.008.79.078 1.579.187 2.36 1.262 5.437 5.043 26.71 5.653 27.629 0 0 11.73-1.418 11.668-9.32-.008-2.43-.36-4.84-1.059-7.169zm0 0" fill="#fff" stroke="#000" stroke-width=".25"/></g><g clip-path="url(#j)" mask="url(#i)"><path d="m73.879 78.121c-.078-.02-.16-.031-.238-.05-4.27-2.91-8.782-2.75-13.871-1.833-9.758 1.692-13.649 5.992-11.36 10.953l.16-.011a11.834 11.834 0 0 0 3.91 4.43l.211.19c.868-.429 1.758-.8 2.668-1.128.012-.031.02-.063.032-.094 3.55-1.488 9.687-3.797 14.25-4.27 5.07-.41 7.5-.519 8.78-1.038h.02c.329-.13.618-.348.829-.63.468-.62-1.598-3.921-5.391-6.519zm0 0" fill="#fff" stroke="#000" stroke-width=".25"/></g><g clip-path="url(#l)" mask="url(#k)"><path d="m237.84 57.621c.101.168.172.277.2.328v.012c.01.008.01.02.01.02 0 .007.009.007.009.007l13.52-6.078c-.298-.71-.61-1.37-.93-2.012-5.25-10.777-10.848-12.136-15.399-8.226-4.238 3.648 1.16 13.52 2.512 15.828.008.02.02.04.027.059.031.02.04.043.05.062zm0 0" fill="#fff" stroke="#000" stroke-width=".25"/></g><g clip-path="url(#n)" mask="url(#m)"><path d="m80.809 90.86c-5.36.53-10.84 2.331-16.047 3.699a34.125 34.125 0 0 0 -3.653 1.652c7.95-1.77 16.45-5.34 24.73-4.711a21.76 21.76 0 0 0 -5.03-.64zm0 0"/></g><g clip-path="url(#p)" mask="url(#o)"><path d="m84.281 122.238a106.285 106.285 0 0 0 -3.8 2.192c9.128-3.18 18.34-7.95 28.07-9.2a24.33 24.33 0 0 0 -4.68.141c-6.762 1.54-13.18 4.457-19.59 6.867zm0 0"/></g><g clip-path="url(#r)" mask="url(#q)"><path d="m90.512 137.84a53.401 53.401 0 0 0 -4.203 2.36c9.68-4.24 20.53-6.028 30.57-9.56-1.598.212-3.207.52-4.969.82-6.93 2.2-14.39 3.778-21.398 6.38zm0 0"/></g><g clip-path="url(#t)" mask="url(#s)"><path d="m92.531 145.36c-1.8.269-3.633.378-5.453.34 11.402 1.991 24.192-4.302 33.48-10.27-1.167.511-2.328.992-3.538 1.601-7.36 4.219-16.07 8.059-24.489 8.328zm0 0"/></g><g clip-path="url(#v)" mask="url(#u)"><path d="m101.172 152.36c-1.652.62-3.203 1.218-4.852 1.831 8.64-1.59 20.02-5.671 26.149-11.972-1.13.77-2.29 1.453-3.438 2.133-4.953 3.628-11.722 6.386-17.86 8.007zm0 0"/></g><g clip-path="url(#x)" mask="url(#w)"><path d="m154.031 108.441c9.328.809 18.578-2.722 26.918-6.402-7.347 5.121-17.87 8.902-26.918 6.402zm-5.601-7.421c7.648-4.239 17.02-8.43 26.07-8.141-8.91 1.46-17.41 5.441-26.07 8.14zm30.422-3.442c-5.704 3.902-13.403 7.781-20.633 6.961 7.191-.93 13.832-4.488 20.633-6.96zm-37.942.641c6.79-3.969 14.899-8.16 23-8.66-7.87 2.421-15.21 6.16-23 8.66zm0 0"/></g><g clip-path="url(#z)" mask="url(#y)"><path d="m218.988 116.02-3.457.43a31.07 31.07 0 0 0 19.61-3.391l-3.22.703a30.97 30.97 0 0 1 -12.933 2.258zm-3.718-11.149c-.989.527-2.07 1.14-2.98 1.66 6.019-1.531 12.23-4.793 18.5-4.242-1.13-.379-2.302-.61-3.49-.68-4.081.493-8.12 1.98-12.03 3.262zm4.71 6.129c-.87.2-1.66.398-2.53.61 5.21.761 10.929-1.122 15.51-3.391a24.2 24.2 0 0 0 -2.651.43 29.345 29.345 0 0 1 -10.329 2.351zm0 0"/></g><g clip-path="url(#B)" mask="url(#A)"><path d="m270.422 113.71c-.934.13-1.863.349-2.793.481 5.25.68 10.582.32 15.68-1.07-.989-.082-1.91-.05-2.868-.133a33.78 33.78 0 0 1 -10.02.723zm-2.742-5.382c-.989.332-2.051.672-3.059 1.102 5.867-.578 11.527-1.93 17.418-2.309-1.027-.27-2.09-.43-3.16-.492-3.828.422-7.57 1.21-11.2 1.7zm-2.84-6.238c-1.012.27-2.012.601-2.98.988 5.628-.547 11.21-.687 16.78-1.719-.992-.18-2.05-.23-2.98-.308-3.59.59-7.172.738-10.82 1.039zm0 0"/></g><g clip-path="url(#D)" mask="url(#C)"><path d="m243.54 64.54c-.821.132-1.63.32-2.419.55 4.45.601 9.938.11 12.238-3.762-.48.371-.988.703-1.53.992-2.118 1.711-5.25 2.29-8.29 2.22zm0 0"/></g><g clip-path="url(#F)" mask="url(#E)"><path d="m223.219 89.86 5.652 1.53c2.7 1.481 5.168 3.36 7.309 5.56a33.593 33.593 0 0 1 3.191 3.91 35.07 35.07 0 0 1 2.598 4.581 46.196 46.196 0 0 1 3.41 10.399c.793 3.629 1.21 7.398 1.723 11.039.507 3.64 1.168 7.312 1.847 10.93.68 3.62 1.332 7.14 1.992 10.562 1.34 6.848 2.59 13.23 3.68 18.719 1.078 5.48 1.988 10.058 2.57 13.25l.989 5.031s-.5-1.8-1.32-4.973c-.829-3.168-5.848-27.82-6.579-31.289-1.46-6.84-3.18-14.539-4.3-21.96-.29-1.86-.493-3.708-.743-5.52a92.295 92.295 0 0 0 -.898-5.39 49.374 49.374 0 0 0 -3.13-10.06 32.615 32.615 0 0 0 -5.3-8.21c-2.11-2.29-5.27-4.149-7.601-5.578a39.08 39.08 0 0 0 -5.09-2.532zm-10.679 99a52.115 52.115 0 0 1 -3.462-4.02 81.57 81.57 0 0 1 -7.558-11.7 84.188 84.188 0 0 1 -3.86-8.46 75.79 75.79 0 0 1 -3.05-9.88 70.823 70.823 0 0 1 -1.63-10.929c-.23-3.762-.449-7.7-.87-11.562a140.575 140.575 0 0 0 -4.169-22.47 86.004 86.004 0 0 0 -3.382-10 47.075 47.075 0 0 0 -4.36-8.429 16.373 16.373 0 0 0 -5.738-5.691 57.243 57.243 0 0 0 -5.8-2.078c-1.263-.403-2.54-.7-3.84-.891a8.511 8.511 0 0 0 -.993-.09c.332.04.672.09.992.168 1.282.313 2.54.703 3.77 1.172.781.32 1.66.629 2.59.988l1.46.633c.52.207 1.02.45 1.508.719a16.453 16.453 0 0 1 5.133 5.629c2.98 4.89 5.207 11.293 7.008 18.242a154.865 154.865 0 0 1 3.91 22.238c.45 3.84.68 7.63.93 11.48a70.49 70.49 0 0 0 9.43 29.75 74.584 74.584 0 0 0 8.28 11.4 43.312 43.312 0 0 0 3.7 3.78zm-75.302-18.43s.203.691.563 1.89c.36 1.2.847 2.899 1.488 4.97.64 2.07 1.32 4.401 2.082 6.96.379 1.27.738 2.59 1.16 3.91.418 1.32.79 2.692 1.168 4.05.39 1.36.813 2.7 1.2 4.028.402 1.332.742 2.66 1.09 3.973.363 1.309.722 2.508 1.062 3.68.347 1.16.648 2.289.93 3.32 1.109 4.11 1.988 6.828 1.988 6.828s-.27-2.918-.989-7.23c-.171-1.079-.332-2.27-.609-3.47-.281-1.198-.52-2.5-.812-3.82-.297-1.308-.579-2.699-.989-4.058l-1.148-4.11c-.422-1.37-.793-2.75-1.25-4.07-.461-1.32-.902-2.61-1.332-3.883-.43-1.257-.918-2.418-1.36-3.546a70.028 70.028 0 0 0 -1.3-3.141c-.43-.95-.828-1.82-1.192-2.582-.36-.77-.707-1.41-.988-1.988a12.558 12.558 0 0 0 -.762-1.711zm0 0"/></g><g clip-path="url(#H)" mask="url(#G)"><path d="m206.66 181.559c-9.36-13.91-13.422-25.387-14.68-43.93-1.25-18.54-8.261-43.367-13.101-47.45-4.84-4.077-14.129-7.269-14.129-7.269s20.871 4.82 24.66 14.36c3.8 9.539 9.14 17.582 10.61 29.742 1.468 12.16 5.25 37.758 9.03 46.949 3.802 9.18 6.962 21.48-2.39 7.598zm0 0"/></g><g clip-path="url(#J)" mask="url(#I)"><path d="m47.23 269.96s5.961-1.222 8.211-4.1c.02 0-.382 5.16-8.21 4.1zm0 0"/></g><g clip-path="url(#L)" mask="url(#K)"><path d="m48.219 257.531s5.902-1.722 6.332 1.828c-.34.551-6.332-1.828-6.332-1.828zm0 0"/></g><g clip-path="url(#N)" mask="url(#M)"><path d="m62.52 188.922c.671.328 1.308.68 1.992 1.058a38.643 38.643 0 0 1 10.258 9.63c.5.652.992 1.288 1.43 1.992a66.255 66.255 0 0 1 3.85 6.168c.372.671.731 1.34 1.06 1.992l.081.168c.329.64.637 1.27.93 1.898.05.07.078.152.11.23.28.622.558 1.231.828 1.852.043.07.082.149.101.23.27.61.52 1.212.762 1.81.027.05.047.1.066.16.25.62.48 1.23.703 1.82 2.188 6.058 3.707 12.46 5.41 18.66 1.56 5.61-.46 12.539 1.38 17.762.62 1.808 13.71 21.199 14.39 20.957-.562-8.29-8.43-40.329-8.43-40.329l-2.34-7.082c-4.472-23.168-11.812-55.457-21.75-78.277a11.985 11.985 0 0 0 -1.992-2.5c-10.097-13.05-9.757-16.41-16.058-24.281-7.352-9.13-9.281-15.809-11.45-25.738a12.731 12.731 0 0 1 .06-4.864c2.237 6.211.46 9.864 5.41 17.89 6.827 11.02 8.21 5.731 8.21 5.731l2.23 7.95c3.439 13.62 17.599 19.421 17.599 19.421s1.32-.308 1.282 3.668c-.04 3.973 9.937 32.954 9.937 32.954 7.313 21.796 16.23 56.738 20.41 80.257 4.184 23.52-2.047 43.621-6.226 42.13-4.184-1.489 1.468-20.868-5.64-30.02-7.11-9.149-4.122-7.84-9.942-10.14a59.078 59.078 0 0 0 -8.86-2.919s8.22-6.512 5.961-21.238c-1.8-12.203-6.742-38.113-21.761-49zm0 0"/></g><g clip-path="url(#P)" mask="url(#O)"><path d="m111.66 105.922c2.82 5.957 4.969 6.387 8.512 8.668a9.745 9.745 0 0 1 -.281-8.828c-.59 6.297 1.879 8.59 3.859 9.937 4.629 2.68 8.16 4.32 9.941 4.34 3.32 0 5.028-4.238 4.309.063-.719 4.296 1.191 10.609 3.629 27.82 2.43 17.207 6.883 55.207 6.883 55.207s-4.782-14.828-10.801-32.11c-.16-3.898-2.133-17.699-2.441-21.43-.38-4.417.23-22.487-2.98-24.968-1.438-1.121-7.95-1.883-12.83-5.621 0 0-6.96-7.672-10.05-15.96a7.424 7.424 0 0 1 2.25 2.882zm0 0"/></g><g clip-path="url(#R)" mask="url(#Q)"><path d="m256.738 178.71s-7.617-35.35-8.277-42.57c-.36-3.902-.68-6.511-1.29-10.21a87.34 87.34 0 0 0 -7.952-31.692c-6.59-14.718-12.457-17.886-15.07-26.636-2.227-7.5-2.047-13.332-.489-17.743.121 3.25.649 14.54 2.711 19.012 2.41 5.25 4.149 5.758 4.149 5.758s2.582-2.34 3.53 2.14c.938 4.481 6.212 15.653 12.25 24.922 6.04 9.27 1.2 5.43 4.47 22.11 1.449 7.398 9.84 48.039 9.94 57.55.13 11.958-3.972-2.64-3.972-2.64zm0 0"/></g><path d="m246.422 121.73a262.903 262.903 0 0 0 -.992-5.128c.379 1.66.718 3.32.992 5.128zm0 0"/><g clip-path="url(#U)" mask="url(#S)"><path d="m295 162.309 3.29 20.761-40.552.282a64.74 64.74 0 0 1 -2.867-13.551c-.492-5.29-4.5-27.621-7.723-44.36a87.725 87.725 0 0 0 -7.949-31.18c-6.59-14.722-12.46-17.89-15.07-26.64-6.68-22.441 8.16-30.05 17.422-28.61 5.129.79 18.687 21.458 18.687 21.458l19.871 31.8c9.59 14.493 10.91 25.82 14.891 70.04zm0 0" fill="url(#T)"/></g></svg>