<svg viewBox="0 0 410 510" xmlns="http://www.w3.org/2000/svg" xmlns:xlink="http://www.w3.org/1999/xlink"><filter id="a" height="100%" width="100%" x="0%" y="0%"><feColorMatrix in="SourceGraphic" values="0 0 0 0 1 0 0 0 0 1 0 0 0 0 1 0 0 0 1 0"/></filter><mask id="b"><g filter="url(#a)"><path d="m0 0h410v510h-410z" fill-opacity=".851"/></g></mask><linearGradient id="c" gradientUnits="userSpaceOnUse" x1="205" x2="205" y1="464.434" y2="45.566"><stop offset="0" stop-color="#fff" stop-opacity="0"/><stop offset=".427" stop-color="#d0b5b3"/><stop offset="1" stop-color="#d0b5b3"/></linearGradient><clipPath id="d"><path d="m0 0h410v510h-410z"/></clipPath><mask id="e"><g filter="url(#a)"><path d="m0 0h410v510h-410z" fill-opacity=".502"/></g></mask><clipPath id="f"><path d="m0 0h410v510h-410z"/></clipPath><mask id="g"><g filter="url(#a)"><path d="m0 0h410v510h-410z" fill-opacity=".502"/></g></mask><clipPath id="h"><path d="m0 0h410v510h-410z"/></clipPath><mask id="i"><g filter="url(#a)"><path d="m0 0h410v510h-410z" fill-opacity=".502"/></g></mask><clipPath id="j"><path d="m0 0h410v510h-410z"/></clipPath><mask id="k"><g filter="url(#a)"><path d="m0 0h410v510h-410z" fill-opacity=".502"/></g></mask><clipPath id="l"><path d="m0 0h410v510h-410z"/></clipPath><mask id="m"><g filter="url(#a)"><path d="m0 0h410v510h-410z" fill-opacity=".302"/></g></mask><clipPath id="n"><path d="m0 0h410v510h-410z"/></clipPath><mask id="o"><g filter="url(#a)"><path d="m0 0h410v510h-410z" fill-opacity=".302"/></g></mask><clipPath id="p"><path d="m0 0h410v510h-410z"/></clipPath><mask id="q"><g filter="url(#a)"><path d="m0 0h410v510h-410z" fill-opacity=".302"/></g></mask><clipPath id="r"><path d="m0 0h410v510h-410z"/></clipPath><mask id="s"><g filter="url(#a)"><path d="m0 0h410v510h-410z" fill-opacity=".302"/></g></mask><clipPath id="t"><path d="m0 0h410v510h-410z"/></clipPath><mask id="u"><g filter="url(#a)"><path d="m0 0h410v510h-410z" fill-opacity=".302"/></g></mask><clipPath id="v"><path d="m0 0h410v510h-410z"/></clipPath><mask id="w"><g filter="url(#a)"><path d="m0 0h410v510h-410z" fill-opacity=".302"/></g></mask><clipPath id="x"><path d="m0 0h410v510h-410z"/></clipPath><mask id="y"><g filter="url(#a)"><path d="m0 0h410v510h-410z" fill-opacity=".302"/></g></mask><clipPath id="z"><path d="m0 0h410v510h-410z"/></clipPath><mask id="A"><g filter="url(#a)"><path d="m0 0h410v510h-410z" fill-opacity=".102"/></g></mask><clipPath id="B"><path d="m0 0h410v510h-410z"/></clipPath><mask id="C"><g filter="url(#a)"><path d="m0 0h410v510h-410z" fill-opacity=".102"/></g></mask><clipPath id="D"><path d="m0 0h410v510h-410z"/></clipPath><mask id="E"><g filter="url(#a)"><path d="m0 0h410v510h-410z" fill-opacity=".102"/></g></mask><clipPath id="F"><path d="m0 0h410v510h-410z"/></clipPath><mask id="G"><g filter="url(#a)"><path d="m0 0h410v510h-410z" fill-opacity=".102"/></g></mask><clipPath id="H"><path d="m0 0h410v510h-410z"/></clipPath><mask id="I"><g filter="url(#a)"><path d="m0 0h410v510h-410z" fill-opacity=".102"/></g></mask><clipPath id="J"><path d="m0 0h410v510h-410z"/></clipPath><mask id="K"><g filter="url(#a)"><path d="m0 0h410v510h-410z" fill-opacity=".502"/></g></mask><linearGradient id="L" gradientTransform="matrix(3.1362 0 0 -3.1362 5554.397 6889.314)" gradientUnits="userSpaceOnUse" x1="-1713.81" x2="-1722.055" y1="2153.523" y2="2131.777"><stop offset=".36" stop-color="#0074d1"/><stop offset=".87" stop-color="#00afd1" stop-opacity="0"/></linearGradient><clipPath id="M"><path d="m0 0h410v510h-410z"/></clipPath><g clip-path="url(#d)" mask="url(#b)"><path d="m220.84 464.43c1.87-19.852 27.719-56.211 41.601-74.942 13.868-18.726 64.45-54.718 79.82-73.457 15.368-18.742 7.118-42.722 14.227-64.832 7.121-22.097 6-34.847 7.133-46.097 1.129-11.25-1.512-25.122 0-33.73 1.508-8.61 7.117-37.294 7.117-37.294s-16.86-13.297-40.847 5.063c-23.98 18.359-21.743 62.21-21.743 62.21-5.988 11.63-7.867 36.727-7.867 36.727-5.62 4.133-14.62 18.742-14.62 18.742s-5.99-.379-16.11-1.12c-10.121-.74-19.871 3.37-19.871 3.37s-6.75-20.62-.739-37.851c6-17.239 19.11-48.34 23.98-67.457 4.868-19.114 13.49-31.48 20.99-69.711 7.5-38.23-15.372-38.602-26.981-36.73-11.61 1.87-21.739 31.109-25.121 40.1-.918 2.47-1.25 5.31-2.387 8.13-3.64-.43-17.461-1.88-24.594-.262-8.238 1.883-16.86-.75-20.61-1.117-1.64-.172-7.359-1.05-13.75-1.613a60.3 60.3 0 0 1 2.512-2.329c23.61-20.8 14.622-39.351 5.06-43.851-9.56-4.5-26.981 10.68-32.599 13.492-5.62 2.809-16.863 2.809-25.3 12.93l-.88 1.027a30.415 30.415 0 0 0 -19.363-20.707c-13.476-5.043-15.726 13.509-15.726 16.879 0 3.371-4.5 15.738-6.184 35.98-.117 1.5-.289 3-.508 4.5-5.332 5.329-9.468 13.348-10.742 26.47-.418 4.25-.75 8.8-1.047 13.491-1.03 2.649-1.87 4.778-2.332 6.168-2.25 6.75-16.3 34.852-16.859 50.59-.559 15.742-13.488 28.11-16.86 54.531-3.37 26.418 16.669 44.97 21.919 65.211 1.793 6.88 11.07 27.989 12.37 35.98a91.086 91.086 0 0 1 -1.12 33.169c-1.5 7.5-25.86 67.648-25.86 67.648zm0 0" fill="url(#c)"/></g><g clip-path="url(#f)" mask="url(#e)"><path d="m279.27 49.66c-6.668-1.422-12.051 1.899-15.872 5.93-.046.02-.09.031-.136.05-4.063 4.372-6.223 9.801-5.711 10.739.219.39.539.73.918.973-.008 0-.02.007-.028.007 1.368.782 4.059.762 9.649 1.211 4.988.54 11.789 3.88 15.68 6.13.011.05.03.09.039.128 1.02.5 2 1.07 2.953 1.692l.218-.31a19.595 19.595 0 0 0 4.18-7.5c0 .02.012.04.012.06 2.379-8.13-1.242-16.918-11.902-19.11zm.23 18.18c-.02-.02-.04-.031-.059-.05a.34.34 0 0 1 .059.05zm0 0" fill="#fff" stroke="#000" stroke-width=".25"/></g><g clip-path="url(#h)" mask="url(#g)"><path d="m164.61 56.98c-.34.38-.641.79-.919 1.211-.082.637 0 .45 2.25 1.118 1.637.543 3.11 3.671 6.59 6.332-.011-.051-.011-.102-.02-.153 1.227.922 2.59 1.66 4.028 2.211 4.512 1.723 9.29-.988 11.68-2.699l.031-.121c.93-.668 1.5-1.16 1.5-1.16 6.102-18.57-6.36-18.098-11.512-17.66l-.988.25c-4.29 1.18-10.48 7.703-12.73 10.511m12.73-10.511c1.031.14 2.05.34 3.05.601a47.168 47.168 0 0 0 -3.05-.601zm0 0" fill="#fff" stroke="#000" stroke-width=".25"/></g><g clip-path="url(#j)" mask="url(#i)"><path d="m102.43 53.488c-4.59-.949-7.328 10.242-7.23 14.153h-.009c.008.02.008.05.008.07v.027c.031.192.051.383.04.57.581 2.981 11.921 3.372 13.5 2.551.09-.007.171-.14.261-.14-.102-.168-.21-.348-.34-.54.149.22.3.442.43.641 1.558-1.23 3.09-8.172 3.09-8.172 1.148-3.09-4.871-8.226-9.75-9.16zm0 0" fill="#fff" stroke="#000" stroke-width=".25"/></g><g clip-path="url(#l)" mask="url(#k)"><path d="m370.21 134.34c-.6-.371-1.562 1.11-7.87 4.582-5.649 2.027-9.781 6.93-11.988 12.59-.141.16-.282.308-.41.457a29.945 29.945 0 0 0 -1.794 7.87c-.757 8.833 15.622 10.391 15.622 10.391-.329-4.218 3.878-22.859 4.652-28.66.289-.93.578-2.191.726-2.941.043 0 .07-.008.114-.008.828-3.59 1.547-3.91.949-4.281zm0 0" fill="#fff" stroke="#000" stroke-width=".25"/></g><g clip-path="url(#n)" mask="url(#m)"><path d="m245.531 162.469c1.809.84 3.688 1.52 5.617 2.02-12.468-1.259-24.226-12.02-32.41-21.36 1.121.902 2.25 1.8 3.293 2.8 6.64 6.9 14.739 13.731 23.5 16.54zm11.66-7.019c1.829.55 3.559 1.12 5.399 1.69-9.461-1.12-22.078-4.859-29.328-11.468 1.297.789 2.61 1.457 3.91 2.137 5.687 3.703 13.27 6.28 20.02 7.64zm.719-9.848a66.547 66.547 0 0 1 4.5 2.91c-10.32-5.39-21.969-8.09-32.691-12.692 1.722.34 3.453.79 5.281 1.239 7.39 2.921 15.441 5.171 22.91 8.543zm8.899-7.114a137.07 137.07 0 0 1 4.043 2.692c-9.75-4.149-19.551-10.121-30.012-12.13a24.36 24.36 0 0 1 5.05.462c7.239 2.09 14.09 5.789 20.919 8.976zm-5.629-60.91c5.68 1.473 11.34 4.41 16.75 6.75 1.34.852 2.57 1.594 3.699 2.453-8.258-3.293-16.98-8.703-25.93-9.39a21.807 21.807 0 0 1 5.48.187zm0 0"/></g><g clip-path="url(#p)" mask="url(#o)"><path d="m175.629 119.219c1.59.312 3.2.52 4.82.61-10.12 1.69-20.62-4.36-27.449-11.778 1.21.828 2.512 1.8 3.852 2.55 5.367 4.63 12.027 8.31 18.777 8.618zm8.481-10.34a54.085 54.085 0 0 1 3.69 3.082c-8.581-4.652-17.01-10.672-26.241-13.762 1.64.16 3.261.48 4.832.973 6.09 2.5 11.918 6.34 17.718 9.707zm-11.032 4.321c1.203.472 2.5.98 3.73 1.35-7.867-.109-15.277-6.07-20.648-11.519l3.11 1.98c3.98 3.63 8.742 6.919 13.808 8.188zm4.282-16.41c5.35 3.108 10.44 6.75 15.742 9.96 1.117.93 2.25 1.941 3.367 2.86-7.79-4.31-14.918-9.82-22.867-13.938 1.289.27 2.546.648 3.757 1.117zm0 0"/></g><g clip-path="url(#r)" mask="url(#q)"><path d="m100.73 136.52 4.18.968a41.915 41.915 0 0 1 -23.691-6.629l3.883 1.25a42.176 42.176 0 0 0 15.628 4.41zm5.399-12.079c1.23.75 2.441 1.61 3.543 2.32-7.242-2.59-14.621-7.16-22.281-7.44 1.418-.27 2.859-.36 4.308-.27 4.903 1.129 9.7 3.39 14.43 5.39zm-6.239 6.25 3.09 1.059c-6.41.121-13.199-2.828-18.69-6.05 1.081.23 2.151.51 3.198.85a39.568 39.568 0 0 0 12.403 4.141zm68.72-56.281c.94.84 1.89 1.692 2.742 2.5-6.122-3.191-12.93-7.601-16.641-13.719.789.66 1.469 1.278 2.25 1.938a42.213 42.213 0 0 0 11.648 9.281zm0 0"/></g><g clip-path="url(#t)" mask="url(#s)"><path d="m103.66 82.172c.89.066 1.77.2 2.64.387-4.698 1.12-10.59 1.011-13.491-3.137.55.367 1.132.7 1.73.976 2.473 1.73 5.871 2.09 9.121 1.774zm0 0"/></g><g clip-path="url(#v)" mask="url(#u)"><path d="m64.941 230.21s.278-.651.73-1.89c.45-1.242 1.118-3.082 1.907-5.41l1.242-3.898c.418-1.434.809-2.992 1.27-4.64.46-1.653.781-3.45 1.21-5.333.438-1.879.72-3.867 1.052-5.95.199-1.05.347-2.109.437-3.179.07-1.12.152-2.25.223-3.37.207-2.25.199-4.61.258-7.04.09-4.86.152-9.98.351-15.281.09-2.649.18-5.34.27-8.07.12-2.72.25-5.489.37-8.258.118-2.782.22-5.621.419-8.41.191-2.79.422-5.622.62-8.47l.348-4.23c.192-1.46.293-2.8.563-4.25.437-2.82 1.11-5.61 1.98-8.332a35.226 35.226 0 0 1 8.45-14.289 34.46 34.46 0 0 1 6.25-4.941l3.129-2.14 2.91-2.25c3.832-2.907 7.379-5.849 10.601-8.579 1.64-1.34 3.13-2.719 4.598-3.969 1.473-1.25 2.84-2.46 4.101-3.633l3.56-3.238 2.929-2.84c1.8-1.699 3.09-3.14 4.011-4.09l1.41-1.43-1.3 1.598c-.88 1-2.07 2.551-3.8 4.32-.849.903-1.79 1.903-2.821 2.981l-3.367 3.371c-1.211 1.23-2.543 2.48-3.961 3.809-1.422 1.332-2.891 2.73-4.5 4.133-3.172 2.828-6.621 5.86-10.43 8.93l-2.922 2.328-3.07 2.25a37.034 37.034 0 0 0 -5.91 4.789 33.17 33.17 0 0 0 -7.868 13.62 66.005 66.005 0 0 0 -2.64 16.36c-.223 2.813-.461 5.621-.692 8.422-.218 2.8-.328 5.617-.488 8.36-.172 2.738-.3 5.53-.45 8.25-.151 2.718-.222 5.41-.331 8.05-.238 5.3-.461 10.41-.668 15.27-.121 2.418-.172 4.78-.453 7.078l-.328 3.37c-.102 1.122-.36 2.173-.532 3.231-.66 3.801-1.57 7.559-2.71 11.239-.528 1.64-1 3.191-1.477 4.613l-1.422 3.86c-1.8 4.64-3.059 7.179-3.059 7.179zm41.028-20.23s.37-.449 1-1.332c.633-.878 1.531-2.187 2.64-3.867 1.11-1.68 2.391-3.781 3.77-6.23.672-1.242 1.422-2.531 2.121-3.93.71-1.41 1.5-2.871 2.25-4.43.75-1.562 1.512-3.18 2.25-4.89.738-1.711 1.48-3.473 2.25-5.301.762-1.82 1.43-3.738 2.172-5.621.738-1.879 1.367-3.969 2.066-6 .703-2.027 1.274-4.16 1.91-6.27.641-2.109 1.122-4.32 1.73-6.5.61-2.18 1.122-4.43 1.743-6.66l1.957-6.75c1.434-4.418 2.922-8.808 4.602-13.078.43-1.07.84-2.121 1.261-3.18l1.34-3.101c.88-2.07 1.867-4.059 2.778-6.04 3.863-7.87 8.043-14.87 12.671-20.241a15.99 15.99 0 0 1 3.829-3.368c1.43-.62 2.953-1 4.5-1.12 2.441-.243 4.89-.29 7.34-.16 2.023.089 3.613.25 4.69.35l1.65.18s-2.298-.12-6.34-.09c-2.419 0-4.829.18-7.22.54-1.417.199-2.788.629-4.077 1.257-1.301.93-2.442 2.07-3.372 3.372a76.505 76.505 0 0 0 -6.16 9.19c-1.98 3.368-3.851 7.13-5.699 11.02-1.86 3.891-3.543 8.02-5.133 12.239-1.59 4.23-3.09 8.59-4.5 12.972l-1.957 6.59c-.601 2.25-1.191 4.43-1.781 6.617a219.996 219.996 0 0 1 -1.828 6.551c-.64 2.153-1.344 4.25-2.031 6.32-.7 2.07-1.43 4.083-2.25 6.032s-1.532 3.86-2.36 5.68c-1.601 3.648-3.242 7.058-4.902 10.12a149.607 149.607 0 0 1 -4.777 8.208 101.848 101.848 0 0 1 -4.133 6.05 57.338 57.338 0 0 1 -4 4.871zm64.652 1.872c.457-.192.899-.41 1.328-.672a25.024 25.024 0 0 0 3.371-2.442 37.613 37.613 0 0 0 4.621-4.578c.809-.96 1.68-1.98 2.508-3.11.832-1.14 1.7-2.34 2.57-3.6.88-1.259 1.7-2.66 2.57-4.079a64.373 64.373 0 0 0 2.513-4.5c1.68-3.133 3.199-6.512 4.828-10.121 1.629-3.61 3.28-7.2 4.968-10.922l2.59-5.617 2.703-5.621c1.829-3.73 3.649-7.48 5.45-11.149 1.8-3.68 3.8-7.18 5.62-10.64 1.817-3.45 3.79-6.68 5.618-9.77l2.66-4.5c.902-1.422 1.781-2.781 2.621-4.09 1.68-2.62 3.219-5.03 4.59-7.152 1.371-2.117 2.469-4.039 3.371-5.617l2.77-4.98-.63 1.359c-.402.879-.991 2.25-1.792 3.82l-3.059 5.938c-1.25 2.25-2.62 4.71-4.2 7.402l-2.44 4.2-2.5 4.5c-1.7 3.14-3.598 6.359-5.301 9.859-1.7 3.5-3.59 7.039-5.43 10.68-1.84 3.64-3.578 7.41-5.367 11.14l-2.723 5.62-2.539 5.63-5.12 10.781c-1.661 3.5-3.368 6.93-5.15 10.027-.87 1.57-1.831 3.051-2.71 4.5-.88 1.454-1.86 2.774-2.79 4.024-1.699 2.308-3.57 4.5-5.6 6.527a39.219 39.219 0 0 1 -4.962 4.352 21.348 21.348 0 0 1 -3.617 2.25 7.27 7.27 0 0 1 -1.34.55zm0 0"/></g><g clip-path="url(#x)" mask="url(#w)"><path d="m349.129 210.988s.84 5.742 9.242 4.262c0 0-6.562-1.14-9.242-4.262zm0 0"/></g><g clip-path="url(#z)" mask="url(#y)"><path d="m349.54 203.7c.401.6 6.69-2.25 6.69-2.25s-6.539-1.75-6.69 2.25zm0 0"/></g><g clip-path="url(#B)" mask="url(#A)"><path d="m64.941 230.21s8.43-18.55 8.989-35.98c.43-13.378.87-29.73 1.808-44.492v.64c-1.027 2.653-1.867 4.782-2.328 6.173-.46 1.39-1.332 3.449-2.48 6.148-.36 10.41-.559 19.832-1.121 25.86-1.13 13.171-4.868 41.652-4.868 41.652zm0 0"/></g><g clip-path="url(#D)" mask="url(#C)"><path d="m87.48 110.39c1.7-1.699 3.59-3.21 5.622-4.5 7.609-4.89 27.296-21.87 36.218-32.128a31.303 31.303 0 0 0 -5.73-11.153c-3.871 12.903-22.059 28.032-35.41 41.801l-.13 1.48c-.19 1.551-.359 3.051-.57 4.5zm0 0"/></g><g clip-path="url(#F)" mask="url(#E)"><path d="m112.16 191.621c-3.738 10.86-6.18 18.36-6.18 18.36s16.301-18.551 25.301-54.532c8.989-35.98 22.86-56.777 28.48-61.27 2.91-2.327 11.06-2.35 18.75-1.769l3.227-1c.403-.39.82-.781 1.262-1.12 10.621-9.349 14.621-18.25 14.98-25.618-3.28 4.867-8.261 10.668-14.62 13.488-11.981 5.238-24.731 5.988-35.59 19.48-10.86 13.489-19.48 23.15-23.23 47.88s-8.642 35.218-12.38 46.101zm0 0"/></g><g clip-path="url(#H)" mask="url(#G)"><path d="m237.988 98.828s.332-1.328.782-3.367a150.89 150.89 0 0 0 -7.07-.64c-1.802 4.71-3.438 9.32-4.5 12.449-3.372 10.12-11.981 26.23-13.86 25.859-1.88-.367-4.86-13.09-4.86-13.09s-1.878 17.992-7.5 27.742c-5.62 9.75-10.12 9.739-16.492 29.598-6.367 19.871-20.61 28.11-13.86 34.48 0 0 12-3.757 24.36-30.738 12.371-26.98 22.102-46.84 30.364-60.332 5.058-8.309 9.57-15.48 12.636-21.96zm0 0"/></g><g clip-path="url(#J)" mask="url(#I)"><path d="m292.04 264.691c5.25 2.25 5.62-20.992 13.858-19.492 0 0-1.867-16.86 2.633-28.11 4.5-11.237 13.11-11.609 13.11-11.609s-6.75-2.62-8.243-17.62c-1.02-10.231 4.07-29.551 10.5-43.04-17.597 20.41-15.738 56.532-15.738 56.532-5.988 11.628-7.87 36.726-7.87 36.726-5.618 4.133-14.618 18.742-14.618 18.742s-5.992-.379-16.113-1.12c-10.118-.74-19.868 3.37-19.868 3.37s-6.75-20.62-.742-37.851c6-17.239 19.11-48.34 23.98-67.457 4.872-19.121 13.493-31.48 20.993-69.711 1.637-8.403 1.816-14.961.976-20.09-.878 8.52-2.878 25.039-5.859 33.95-4.11 12.37-14.988 34.109-16.86 42.35-1.878 8.239-12 45.72-19.5 62.59-7.5 16.86-17.238 47.59-9.37 67.829 0 0 3.37-5.989 14.23-9.371 10.883-3.36 29.25 1.14 34.5 3.382zm0 0"/></g><g clip-path="url(#M)" mask="url(#K)"><path d="m200.219 171c10.87-26.23 22.011-44.969 28.11-53.79a119.782 119.782 0 0 0 11.111-21.65c-3.68-.43-17.453-1.88-24.55-.258-8.243 1.879-16.86-.75-20.61-1.121-1.64-.168-7.36-1.051-13.75-1.61l.239-.218c-6.59-.372-14.13-.692-17.598.34-6.363 1.867-22.863 25.109-30.363 58.456a165.023 165.023 0 0 1 -25.79 57.512l64.352 4.7 6.8-3.27-2.82-1.34c0-.012 14.008-11.512 24.868-37.75zm0 0" fill="url(#L)"/></g></svg>