<svg viewBox="0 0 410 510" xmlns="http://www.w3.org/2000/svg" xmlns:xlink="http://www.w3.org/1999/xlink"><filter id="a" height="100%" width="100%" x="0%" y="0%"><feColorMatrix in="SourceGraphic" values="0 0 0 0 1 0 0 0 0 1 0 0 0 0 1 0 0 0 1 0"/></filter><mask id="b"><g filter="url(#a)"><path d="m0 0h410v510h-410z" fill-opacity=".851"/></g></mask><linearGradient id="c" gradientUnits="userSpaceOnUse" x1="205" x2="205" y1="476.947" y2="33.053"><stop offset="0" stop-color="#fff" stop-opacity="0"/><stop offset=".427" stop-color="#d0b5b3"/><stop offset="1" stop-color="#d0b5b3"/></linearGradient><clipPath id="d"><path d="m0 0h410v510h-410z"/></clipPath><mask id="e"><g filter="url(#a)"><path d="m0 0h410v510h-410z" fill-opacity=".502"/></g></mask><clipPath id="f"><path d="m0 0h410v510h-410z"/></clipPath><mask id="g"><g filter="url(#a)"><path d="m0 0h410v510h-410z" fill-opacity=".502"/></g></mask><clipPath id="h"><path d="m0 0h410v510h-410z"/></clipPath><mask id="i"><g filter="url(#a)"><path d="m0 0h410v510h-410z" fill-opacity=".502"/></g></mask><clipPath id="j"><path d="m0 0h410v510h-410z"/></clipPath><mask id="k"><g filter="url(#a)"><path d="m0 0h410v510h-410z" fill-opacity=".502"/></g></mask><clipPath id="l"><path d="m0 0h410v510h-410z"/></clipPath><mask id="m"><g filter="url(#a)"><path d="m0 0h410v510h-410z" fill-opacity=".502"/></g></mask><clipPath id="n"><path d="m0 0h410v510h-410z"/></clipPath><mask id="o"><g filter="url(#a)"><path d="m0 0h410v510h-410z" fill-opacity=".302"/></g></mask><clipPath id="p"><path d="m0 0h410v510h-410z"/></clipPath><mask id="q"><g filter="url(#a)"><path d="m0 0h410v510h-410z" fill-opacity=".302"/></g></mask><clipPath id="r"><path d="m0 0h410v510h-410z"/></clipPath><mask id="s"><g filter="url(#a)"><path d="m0 0h410v510h-410z" fill-opacity=".302"/></g></mask><clipPath id="t"><path d="m0 0h410v510h-410z"/></clipPath><mask id="u"><g filter="url(#a)"><path d="m0 0h410v510h-410z" fill-opacity=".302"/></g></mask><clipPath id="v"><path d="m0 0h410v510h-410z"/></clipPath><mask id="w"><g filter="url(#a)"><path d="m0 0h410v510h-410z" fill-opacity=".302"/></g></mask><clipPath id="x"><path d="m0 0h410v510h-410z"/></clipPath><mask id="y"><g filter="url(#a)"><path d="m0 0h410v510h-410z" fill-opacity=".302"/></g></mask><clipPath id="z"><path d="m0 0h410v510h-410z"/></clipPath><mask id="A"><g filter="url(#a)"><path d="m0 0h410v510h-410z" fill-opacity=".302"/></g></mask><clipPath id="B"><path d="m0 0h410v510h-410z"/></clipPath><mask id="C"><g filter="url(#a)"><path d="m0 0h410v510h-410z" fill-opacity=".102"/></g></mask><clipPath id="D"><path d="m0 0h410v510h-410z"/></clipPath><mask id="E"><g filter="url(#a)"><path d="m0 0h410v510h-410z" fill-opacity=".102"/></g></mask><clipPath id="F"><path d="m0 0h410v510h-410z"/></clipPath><mask id="G"><g filter="url(#a)"><path d="m0 0h410v510h-410z" fill-opacity=".302"/></g></mask><clipPath id="H"><path d="m0 0h410v510h-410z"/></clipPath><mask id="I"><g filter="url(#a)"><path d="m0 0h410v510h-410z" fill-opacity=".302"/></g></mask><clipPath id="J"><path d="m0 0h410v510h-410z"/></clipPath><mask id="K"><g filter="url(#a)"><path d="m0 0h410v510h-410z" fill-opacity=".102"/></g></mask><clipPath id="L"><path d="m0 0h410v510h-410z"/></clipPath><mask id="M"><g filter="url(#a)"><path d="m0 0h410v510h-410z" fill-opacity=".102"/></g></mask><clipPath id="N"><path d="m0 0h410v510h-410z"/></clipPath><mask id="O"><g filter="url(#a)"><path d="m0 0h410v510h-410z" fill-opacity=".102"/></g></mask><clipPath id="P"><path d="m0 0h410v510h-410z"/></clipPath><mask id="Q"><g filter="url(#a)"><path d="m0 0h410v510h-410z" fill-opacity=".102"/></g></mask><clipPath id="R"><path d="m0 0h410v510h-410z"/></clipPath><mask id="S"><g filter="url(#a)"><path d="m0 0h410v510h-410z" fill-opacity=".102"/></g></mask><clipPath id="T"><path d="m0 0h410v510h-410z"/></clipPath><mask id="U"><g filter="url(#a)"><path d="m0 0h410v510h-410z" fill-opacity=".502"/></g></mask><linearGradient id="V" gradientTransform="matrix(3.1362 0 0 -3.1362 5554.397 6889.314)" gradientUnits="userSpaceOnUse" x1="-1739.438" x2="-1735.143" y1="2139.997" y2="2181.572"><stop offset=".13" stop-color="#00afd1" stop-opacity="0"/><stop offset=".64" stop-color="#0074d1"/></linearGradient><clipPath id="W"><path d="m0 0h410v510h-410z"/></clipPath><g clip-path="url(#d)" mask="url(#b)"><path d="m183.73 41.07c14.122-13.14 32.93-10.648 35.641 11.328 6.559-5.257 18.418-11.386 23.149-15.93 7.878-4.109 16.582-1.148 21.02.821 4.429 1.973 12.222 10.84 8.698 18.563-5.129 11.457-22.136 24.687-27.68 35.968-5.078 10.371-12.269 20.14-16.038 31.149-3.942 11.41-4.301 24.25-7.258 35.91-2.293 8.77-10.242 23.652-4.84 32.351 4.02 6.54 14.969-19.082 16.11-22.378 4.66-13.313 9.327-26.602 14.187-39.942 3.633-9.922 9.23-17.14 14.691-26.012 10.34-16.75 34.86-58.27 47.29-59.117 22.66-4.93 32.359 14.117 22.171 37.438-18.14 43.992-51.871 101.77-49.75 151.883.7.168 11.55-20.91 11.957-22.801 1.242-5.48-1.508-12.262-.566-18.121.988-6.45 1.808-13.09 3.316-19.47 2.762-11.562 10.05-28.14 21.563-33.35 12.097-5.45 20.097 1.699 19.32 13.581-.91 13.547-2.11 24.938 2.098 38.07 4.21 13.13 9.71 21.977 3.18 35.47-6.27 12.808-10.63 26.19-15.387 39.597-4.23 11.922-3.383 25-7.313 37-4.45 13.602-15.34 26.684-23.008 38.742-7.5 11.758-15.082 23.649-23.27 35.008-15.652 21.781-36.46 36.75-45.452 63.172-2.547 7.309-4.61 14.691-7.059 22-2.11 6.102-1.219 8.43-8.11 8.719l-9.85.41-44.2 1.871-93.34 3.95c4.34-2.552 1.629-29.36 3.04-35.329 2.589-11.062 8.16-21.55 9.062-32.93 1.046-12.382-2.16-66.082-2.75-77.691-2.532-50.488 8.867-79.32 7.386-141.879-1.968-30.543-2.199-40.762.492-54.191 0 0 2.56-21.032 5.91-35.47 6.4-27.589 9.258-38.73 9.848-42.858.992-6.903 3.203-15.93 11.582-16.75 7.461-.73 18.64 6.078 20.942 17.238 0 0 2.539 9.281.25 25.37-1.473 10.27-4.192 31.938-4.192 31.938s17.102-28.699 32.52-49.597c10.02-13.492 23.5-22.371 24.64-23.73zm0 0" fill="url(#c)"/></g><g clip-path="url(#f)" mask="url(#e)"><path d="m318.691 44.39c-6.132-.94-11.011 2.22-14.453 5.919-.058.03-.129.05-.187.082-3.66 4.05-5.563 8.93-5.082 9.718.21.34.511.63.87.82l.513-.007c1.378.367 3.84.258 8.347.43 4.57.207 10.82 2.886 14.442 4.66.007.027.02.047.02.078a31.525 31.525 0 0 1 2.718 1.351l.21-.293a17.462 17.462 0 0 0 3.63-6.527c2.05-7.223-1.18-14.8-11.028-16.23zm0 0" fill="#fff" stroke="#000" stroke-width=".25"/></g><g clip-path="url(#h)" mask="url(#g)"><path d="m244.012 38.148c-3.453 2.73-6.742 7.09-6.403 7.473.34.367 1.04.309 2.23.438.102-.02.192-.028.29-.047 2.93.367 5.781 1.199 8.441 2.488a112.58 112.58 0 0 0 11.301 4.73c.008.008.027.02.04.032 1.71.699 3.51 1.16 5.35 1.36.438-.102.848-.34 1.137-.68v-.153a9.093 9.093 0 0 0 1.48-3.789c-2.378-15.328-15.077-14.129-18.827-14.469-1.29-.05-3.11 1-5.02 2.52m22.278 13.648" fill="#fff" stroke="#000" stroke-width=".25"/></g><g clip-path="url(#j)" mask="url(#i)"><path d="m212.71 48.328c.118-18.137-12.82-14.379-18.081-12.598l-.559.27-.422.21c.051-.01.09-.01.133-.019l-.043.028c-.02 0-.027 0-.047.011-4.171 2.211-8.402 9.649-9.851 12.75l.101.051c-.21.399-.382.809-.511 1.239.129.609.16.41 2.73.41 1.88.03 4.371 2.18 8.48 3.62l.489.24c1.64.5 3.34.8 5.05.89 5.321.32 9.38-3.371 11.352-5.532 0-.039-.011-.09-.011-.128a24.343 24.343 0 0 0 1.19-1.442zm-18.87-12.148c.5-.059.441-.008.289.03-.04-.01-.129-.01-.29 0v-.03zm0 0" fill="#fff" stroke="#000" stroke-width=".25"/></g><g clip-path="url(#l)" mask="url(#k)"><path d="m117.07 44.2a6.798 6.798 0 0 0 -7.539-4.02c-2.953-.828-7.953.66-8.86 12.82h-.01v.64c.26 2.508 14.05 4.258 16.339 3.09.02.04.05.079.07.11.989-.578 1.899-8.05 0-12.64zm0 0" fill="#fff" stroke="#000" stroke-width=".25"/></g><g clip-path="url(#n)" mask="url(#m)"><path d="m336.059 146.09-1.79-3.899c-.597-.171 1.442.899-3.398 5.45-4.531 3.148-7.14 8.34-7.871 13.687-.11.203-.21.39-.3.57-.31 2.391-.27 4.813.1 7.192 1.22 7.73 12.938 7.238 12.938 7.238.442-1.008.723-22.418 1.082-27.95-.011-.776-.64-1.519-.761-2.288zm0 0" fill="#fff" stroke="#000" stroke-width=".25"/></g><g clip-path="url(#p)" mask="url(#o)"><path d="m276.281 141.66a31.213 31.213 0 0 0 5.188 1.559c-11.469-.598-22.41-9.61-30.028-17.469.989.75 2.04 1.5 3.047 2.34 6.172 5.75 13.711 11.46 21.793 13.57zm10.66-6.66c1.688.41 3.29.852 4.989 1.262-8.711-.614-20.371-3.371-27.11-8.871 1.211.64 2.41 1.18 3.63 1.718 5.25 3 12.23 4.98 18.491 5.891zm.519-8.7c1.411.731 2.83 1.56 4.142 2.38-9.551-4.328-20.282-6.239-30.204-9.852 1.59.23 3.18.55 4.872.883 6.91 2.27 14.27 3.879 21.19 6.59zm8.099-6.652c1.312.743 2.52 1.48 3.742 2.211-9.02-3.257-18.102-8.109-27.73-9.468 1.55-.09 3.109-.02 4.648.199 6.68 1.57 13.02 4.558 19.34 7.058zm5.613-48.777c5.18 1.258 10.316 3.8 15.238 5.91 1.211.73 2.328 1.38 3.34 2.117-7.52-2.84-15.41-7.527-23.648-8.07a20.97 20.97 0 0 1 5.07.043zm0 0"/></g><g clip-path="url(#r)" mask="url(#q)"><path d="m202.29 121.031a34.707 34.707 0 0 0 4.401-.883c-8.39 4.301-19.332 2.301-27.402-1.898 1.34.398 2.711.73 4.09.988 6.05 2.383 12.902 3.434 18.91 1.793zm4.6-11.043c1.4.434 2.81.992 4.11 1.5-8.871-1.398-17.922-3.937-26.89-3.879 1.48-.34 2.992-.539 4.511-.59 6.027.333 12.207 1.84 18.27 2.97zm-8.492 6.774c1.18 0 2.461.09 3.653 0-6.903 2.168-15.11-.64-21.352-3.633l3.281.75c4.52 1.91 9.598 3.281 14.418 2.883zm-.828-14.84c5.57 1.039 11.059 2.59 16.621 3.726 1.297.442 2.508.993 3.707 1.422-8.046-1.332-15.84-3.86-23.976-5a24.304 24.304 0 0 1 3.648-.148zm34.282-39.043c1.09.152 2.289.3 3.378.543-6.48.566-13.59.476-19.789-1.723l3.258.16a49.903 49.903 0 0 0 13.153 1.02zm11.617-4.32 2.722 1.37c-6.07-1.32-11.89-3.73-17.87-5.257.988 0 1.968 0 2.96.066 3.989 1.184 8.098 2.692 12.188 3.82zm0 0"/></g><g clip-path="url(#t)" mask="url(#s)"><path d="m144.102 129.41 3.449-.148a30.682 30.682 0 0 1 -19.711-.153l3.262.16c4.277.981 8.707 1.02 13 .141zm1.878-11.52c1.09.34 2.2.801 3.2 1.141-6.14-.52-12.739-2.71-18.79-1.172 1.04-.55 2.15-.96 3.301-1.218 4.047-.18 8.22.629 12.29 1.25zm-3.628 6.77 2.57.18c-4.934 1.601-10.844.66-15.762-.809.89-.05 1.781-.05 2.668 0 3.434.848 7 1.059 10.524.63zm44.179-62.922c1.098.352 2.2.703 3.2 1.051-6.333-.418-13.68-1.598-18.961-5.219.902.27 1.69.52 2.601.782a40.002 40.002 0 0 0 13.16 3.386zm0 0"/></g><g clip-path="url(#v)" mask="url(#u)"><path d="m100.7 145.52h2.359a28.246 28.246 0 0 1 -13.047 1.539c.777-.239 1.558-.36 2.34-.59 2.82.172 5.636-.149 8.347-.95zm0 0"/></g><g clip-path="url(#x)" mask="url(#w)"><path d="m102.14 139.828c.91.14 1.81.332 2.688.582-4.93.399-9.758 0-14.668.621.8-.43 1.64-.77 2.52-.992 3.199-.238 6.398-.11 9.46-.21zm0 0"/></g><g clip-path="url(#z)" mask="url(#y)"><path d="m103.54 133.262c.87.11 1.73.27 2.581.476-4.723.403-9.32 1.184-14.05 1.09a36.38 36.38 0 0 1 2.417-.797 88.74 88.74 0 0 0 9.051-.77zm0 0"/></g><g clip-path="url(#B)" mask="url(#A)"><path d="m109.672 67.02c.816-.051 1.637-.051 2.457 0-4.168 1.558-9.57 2.28-12.66-.989.55.239 1.12.45 1.703.617 2.406 1.243 5.547 1.114 8.5.372zm0 0"/></g><g clip-path="url(#D)" mask="url(#C)"><path d="m219.691 52.16s-1.191.738-4.191 4.512c-3.281 4.93-7.191 9-12.238 15.52-5.043 6.519-12.524 13.038-18.723 21.277-1.59 2.043-3.07 4.082-4.66 6.222l-1.238 1.63c-.192.308-.371.507-.563.82-.187.308-.367.597-.547.91a27.15 27.15 0 0 0 -1.52 3.808c-1.75 5.102-3.21 10.391-4.562 15.68-2.71 10.57-5.308 21.23-7.66 31.191-2.348 9.961-4.5 19.32-6.64 27.2a87.775 87.775 0 0 1 -3.137 10.648c-.16.344-.352.672-.551.992-.29.309-.461.61-.75.918-.473.614-.992 1.223-1.41 1.73a35.05 35.05 0 0 1 -2.63 2.962c-1.612 1.742-2.96 3.082-3.87 4.011-.922.93-1.43 1.34-1.43 1.34.45-.472.938-.922 1.43-1.34a85.711 85.711 0 0 0 3.937-3.941 35.113 35.113 0 0 0 2.64-2.96c.513-.552.974-1.13 1.403-1.74.29-.312.469-.6.75-.921.278-.328.5-.707.649-1.11a86.9 86.9 0 0 0 3.39-10.69c1.11-3.938 2.22-8.278 3.399-12.868 1.18-4.59 2.36-9.371 3.543-14.352 2.43-9.968 5.039-20.629 7.879-31.199 1.449-5.289 2.808-10.57 4.558-15.68.41-1.261.89-2.492 1.422-3.699.188-.312.277-.511.457-.812.211-.258.39-.528.55-.82l1.212-1.63c1.59-2.14 3.18-4.18 4.672-6.218 6.168-8.153 14.27-15.25 19.207-21.781 9.8-12.848 15.222-19.61 15.222-19.61zm0 0"/></g><g clip-path="url(#F)" mask="url(#E)"><path d="m126.578 114.48.192-1.468c-.54.886-.989 1.816-1.5 2.699a28.189 28.189 0 0 0 -.989 3.598c-.492 2.382-.89 4.77-1.281 7.152-1.469 9.629-2.629 19.238-3.82 28.367-1.192 9.121-2.23 17.453-3.399 24.692-.32 1.789-.64 3.48-.992 5.171a5.212 5.212 0 0 1 -.8 2.207c-.329.68-.7 1.332-1.098 1.973a137.5 137.5 0 0 0 -3.051 7.04c-1.61 3.94-2.39 6.218-2.39 6.218s.89-2.309 2.6-6.117c.91-1.973 1.88-4.332 3.25-6.953.36-.707.74-1.309 1.098-1.97.403-.73.704-1.5.891-2.308.422-1.601.742-3.39 1.063-5.172 1.27-7.148 2.488-15.59 3.687-24.629 1.2-9.039 2.461-18.64 3.941-28.28.38-2.38.782-4.759 1.168-7.141.211-1.16.543-2.297.993-3.399.55-.988 1.09-2.12 1.738-3.12zm0 0"/></g><g clip-path="url(#H)" mask="url(#G)"><path d="m344.68 215.398s-6.02-.238-8.692-2.687c0 0 1.192 4.98 8.692 2.687zm0 0"/></g><g clip-path="url(#J)" mask="url(#I)"><path d="m341.71 203.398s-6.038-.726-5.91 2.813c.43.48 5.91-2.813 5.91-2.813zm0 0"/></g><g clip-path="url(#L)" mask="url(#K)"><path d="m116.07 144.86c3.29-24.31 9.23-28.462 9.23-28.462.009.07.052.141.11.192-1.922 5.7-6.16 43.262-8.96 61.031a56.262 56.262 0 0 1 -7.88 19.457c-2.02-5.906 7.442-44.34 7.5-52.219zm0 0"/></g><g clip-path="url(#N)" mask="url(#M)"><path d="m226.578 186.07c1.332-2.039 3.172-8.87 3.512-11.37-3.75 8.288-10.649 21.429-13.668 16.53-4-6.468-.684-16.289 2.25-24.511 1.027-2.957 2.027-5.707 2.61-8.028.48-1.89.898-3.812 1.269-5.742.988-5.36 1.71-10.84 2.648-16.277.73-4.711 1.84-9.363 3.332-13.89 3.77-11.012 10.957-20.782 16.04-31.153l.21-.238c5.79-11.153 22.399-24.23 27.469-35.54 1.09-2.542 1.18-5.39.238-7.992a65.466 65.466 0 0 1 -7.949 16.371c-6.078 9.192-18.508 14.91-18.508 14.91.13 2.962-20.16 36.258-20.011 39.712.152 3.449-16 64.968-15.829 68.32.118 2.86-.84 12.86 1.168 16.117 3.34.45 8.72-7.668 15.22-17.219zm0 0"/></g><g clip-path="url(#P)" mask="url(#O)"><path d="m290.059 273.93c-.368.41-11.368-10.168-11.528-13.91-.16-3.739 2.528-21.68 2.309-27.02.012-.86.082-1.719.191-2.57 0 .789.07 1.582.098 2.36.8.16 11.543-20.911 11.95-22.802 1.25-5.476-1.509-12.258-.567-18.117.988-6.45 1.808-13.09 3.316-19.473 2.184-9.16 7.371-21.68 15.242-29.046l.871-.34s-15.511 27.18-16.03 42c-.52 14.816-1.31 22.449 1.339 22.328 2.648-.121 7.719 2.73 7.719 2.73s-8.649.77-9.73 3.07c-1.079 2.31-7.009 13.91-6.9 15.489.11 1.582-5.968 10.5-5.378 15.02.289 4.43 2.66 23.261 7.098 30.28zm0 0"/></g><g clip-path="url(#R)" mask="url(#Q)"><path d="m298.488 142.21c-3.699 8.778-8.558 22.77-12.61 35.83-5.347 17.241-9.41 33.108-8.608 35.882 1.39 4.879 3.359 16.52 3.359 16.52.152-.653.25-1.313.312-1.973.04-.07.07-.13.09-.207 0-49.063 32.239-104.75 49.848-147.434.242-.527.45-1.058.66-1.598 1.281-6.48 2.422-12.48 3.352-17.23v-.25c-2.602 6.121-4.38 12.7-6.61 19.078-.82 2.32-5.91 12.813-11.5 24.961-5.601 12.14-13.98 26.121-18.293 36.422zm0 0"/></g><g clip-path="url(#T)" mask="url(#S)"><path d="m219.352 52.238a31.508 31.508 0 0 0 -1.582-6.808h-.11c-1.672 8.289-19.37 26.12-21.62 28.98-2.9 3.68-12.118 13.961-18.892 21.84-6.77 7.879-11.82 17.328-12.468 24.96-.668 7.43-7.051 52.892-17.04 78.161a62.273 62.273 0 0 0 5.829-6.75c3.82-5.191 19.761-83.191 24.87-90.5 0 0 9.852-13.18 12.52-16.14 2.672-2.961 18.97-21.18 21.922-25.622a101.801 101.801 0 0 1 6.57-8.12zm0 0"/></g><g clip-path="url(#W)" mask="url(#U)"><path d="m130.52 57.16c-2.301-11.16-13.48-17.969-20.942-17.238-8.379.816-10.59 9.848-11.578 16.75-.59 4.129-3.45 15.27-9.852 42.86-3.347 14.448-5.91 35.468-5.91 35.468-2.687 13.43-2.457 23.648-.488 54.191v2.118l33.5-6.54s6.05-41.718 8.18-54.859c2.129-13.14 3.148-15.43 3.148-15.43s2.723-21.68 4.192-31.94c2.3-16.09-.25-25.38-.25-25.38zm0 0" fill="url(#V)"/></g></svg>