<svg viewBox="0 0 410 510" xmlns="http://www.w3.org/2000/svg" xmlns:xlink="http://www.w3.org/1999/xlink"><filter id="a" height="100%" width="100%" x="0%" y="0%"><feColorMatrix in="SourceGraphic" values="0 0 0 0 1 0 0 0 0 1 0 0 0 0 1 0 0 0 1 0"/></filter><mask id="b"><g filter="url(#a)"><path d="m0 0h410v510h-410z" fill-opacity=".851"/></g></mask><linearGradient id="c" gradientUnits="userSpaceOnUse" x1="204.959" x2="204.959" y1="463.026" y2="47.056"><stop offset="0" stop-color="#fff" stop-opacity="0"/><stop offset=".427" stop-color="#d0b5b3"/><stop offset="1" stop-color="#d0b5b3"/></linearGradient><clipPath id="d"><path d="m0 0h410v510h-410z"/></clipPath><mask id="e"><g filter="url(#a)"><path d="m0 0h410v510h-410z" fill-opacity=".502"/></g></mask><clipPath id="f"><path d="m0 0h410v510h-410z"/></clipPath><mask id="g"><g filter="url(#a)"><path d="m0 0h410v510h-410z" fill-opacity=".502"/></g></mask><clipPath id="h"><path d="m0 0h410v510h-410z"/></clipPath><mask id="i"><g filter="url(#a)"><path d="m0 0h410v510h-410z" fill-opacity=".302"/></g></mask><clipPath id="j"><path d="m0 0h410v510h-410z"/></clipPath><mask id="k"><g filter="url(#a)"><path d="m0 0h410v510h-410z" fill-opacity=".302"/></g></mask><clipPath id="l"><path d="m0 0h410v510h-410z"/></clipPath><mask id="m"><g filter="url(#a)"><path d="m0 0h410v510h-410z" fill-opacity=".302"/></g></mask><clipPath id="n"><path d="m0 0h410v510h-410z"/></clipPath><mask id="o"><g filter="url(#a)"><path d="m0 0h410v510h-410z" fill-opacity=".302"/></g></mask><clipPath id="p"><path d="m0 0h410v510h-410z"/></clipPath><mask id="q"><g filter="url(#a)"><path d="m0 0h410v510h-410z" fill-opacity=".302"/></g></mask><clipPath id="r"><path d="m0 0h410v510h-410z"/></clipPath><mask id="s"><g filter="url(#a)"><path d="m0 0h410v510h-410z" fill-opacity=".302"/></g></mask><clipPath id="t"><path d="m0 0h410v510h-410z"/></clipPath><mask id="u"><g filter="url(#a)"><path d="m0 0h410v510h-410z" fill-opacity=".302"/></g></mask><clipPath id="v"><path d="m0 0h410v510h-410z"/></clipPath><mask id="w"><g filter="url(#a)"><path d="m0 0h410v510h-410z" fill-opacity=".102"/></g></mask><clipPath id="x"><path d="m0 0h410v510h-410z"/></clipPath><mask id="y"><g filter="url(#a)"><path d="m0 0h410v510h-410z" fill-opacity=".102"/></g></mask><clipPath id="z"><path d="m0 0h410v510h-410z"/></clipPath><mask id="A"><g filter="url(#a)"><path d="m0 0h410v510h-410z" fill-opacity=".102"/></g></mask><clipPath id="B"><path d="m0 0h410v510h-410z"/></clipPath><mask id="C"><g filter="url(#a)"><path d="m0 0h410v510h-410z" fill-opacity=".102"/></g></mask><clipPath id="D"><path d="m0 0h410v510h-410z"/></clipPath><mask id="E"><g filter="url(#a)"><path d="m0 0h410v510h-410z" fill-opacity=".502"/></g></mask><linearGradient id="F" gradientTransform="matrix(-3.10480157 -.43911471 -.43911471 3.10480157 -5380.692397 4379.940443)" gradientUnits="userSpaceOnUse" x1="-1609.532" x2="-1615.385" y1="-1616.794" y2="-1591.912"><stop offset=".36" stop-color="#0074d1"/><stop offset=".87" stop-color="#00afd1" stop-opacity="0"/></linearGradient><clipPath id="G"><path d="m0 0h410v510h-410z"/></clipPath><g clip-path="url(#d)" mask="url(#b)"><path d="m151.02 134.68c6.23 1.71 12.64 1.379 15.761-2.27a63.255 63.255 0 0 1 10.219-8.629c-1.11 4.219-1.2 8.508 1.309 11.528 4.242 5.101 10 4.562 13.793 3.402 3.726 8.86 7.59 17.84 8.859 20.25 6.89 13.64 1.52 26.8-9.852 18.539-7.988-5.809-31.238-25.11-47.738-39.398l-14.691-10.352c-11.13-7.879-25.2-17.73-36.532-17.64-11.007.081-29.91 10.18-24.367 32.3 5.54 22.11 14.578 23.309 38.278 49.461 13.191 14.54 39.011 39.738 40.543 49.11 1.527 9.37-10.614 38.968-10.614 38.968a89.929 89.929 0 0 1 -10.75-16.738c-5.398-10.57-11.648-14.32-11.648-14.32s-5.13-21.98-11.578-32.23c-6.453-10.24-19.934-22.97-30.41-23.06-10.454-.09-16.602 8.18-16.602 8.18s5.98 27.68 7.52 37.528c1.55 9.851-2.508 25.043 3.68 36.73 6.198 11.691 21.671 51.82 24.48 60.371 2.808 8.55 19.808 24.98 37.511 36.5 17.7 11.52 9.848 25.961 24.168 36.8 14.32 10.84 28.332 36.86 28.332 36.86l145.457 16.47c-16.277-86.09 1.48-73.868 10.34-138.868 4.48-32.852 7.024-63.73 7.133-91.05.11-27.313.348-31.923 1.629-41.673s4.02-33.398 4.922-40.71c.906-7.31 5.168-20.298 4.7-30.9-.61-13.5-.833-67.96-.833-67.96s-3.867-4.399-7.34-4.66c-2.828-.207-11.82-1.297-18.308 7.402-3.512 4.7-6.43 15.469-7.18 21.668-.75 6.2-1.84 26.242-1.352 30.43.493 4.203-9.847 21.91-9.847 21.91l-5.133 10.21c-17.36-45.058-15.39-33.308-20.18-48.94-2.129-6.887-12.12-11.919-24.34-13.348-12.21-1.43-30.097.5-30.097.5s-2.41-10.48-14.91-10.473c-12.5.012-24.141-1.797-32.403-.45-8.258 1.352-19.558 1.384-28.16 18.392-7.52 14.851-18.617 30.628-15.27 40.378a16.99 16.99 0 0 0 11.5 9.782zm0 0" fill="url(#c)"/></g><g clip-path="url(#f)" mask="url(#e)"><path d="m72.719 216.71c-.11-.12-.219-.25-.34-.37a16.745 16.745 0 0 0 -9.68-9.809c-5.238-2.851-4.847-3.84-5.37-3.59-.52.258-.817.649-.278 3.34.027 0 .058.008.09.008.039.64.12 1.281.23 1.922 1.32 4.5 5.39 22.16 5.98 22.91 0 0 10.829-1.812 10.547-8.441a18.94 18.94 0 0 0 -1.18-5.97zm0 0" fill="#fff" stroke="#000" stroke-width=".25"/></g><g clip-path="url(#h)" mask="url(#g)"><path d="m352.73 51.25c-4.492-.98-6.53.102-8.66 4.488 0 0-3.468 6-2.511 7.563.113-.082.23-.153.351-.223-.082.05-.16.113-.23.16.07 0 .11.172.18.203 3.21 3.809 11.511 2.72 11.519 2.688l.223-.45v.001l.039-.078c0-.262.5-1.743.379-2.993.62-4.43 1.32-10.37-1.29-11.359zm0 0" fill="#fff" stroke="#000" stroke-width=".25"/></g><g clip-path="url(#j)" mask="url(#i)"><path d="m101.262 152.059a28.802 28.802 0 0 1 -4.614 2.09c10.551-1.97 19.543-11.72 25.614-19.97-.852.821-1.703 1.641-2.543 2.54-4.969 6.07-11.239 12.3-18.457 15.34zm8.316 3.121c-1.226 1.07-2.367 2.12-3.61 3.191 6.973-4.25 15.473-11.543 18.712-19.031-.73 1.039-1.5 1.969-2.27 2.95-3.07 4.85-8.07 9.44-12.832 12.89zm-12.387-7a57.972 57.972 0 0 0 -2.87 3.441c6.988-6.89 15.757-12.031 23.34-18.41-1.321.719-2.622 1.52-4 2.34-5.38 4.277-11.29 8.058-16.47 12.629zm.25-9.578c3.938-3.024 7.88-6.891 12.29-8.98-.743.187-4.243 3.628-4.922 3.937-3.008 2.39-6.82 4.472-7.368 5.043zm0 0"/></g><g clip-path="url(#l)" mask="url(#k)"><path d="m208.04 92.39c8.491-1.82 15.76-7.48 22.12-13.011-5.11 6.55-13.379 12.77-22.12 13.012zm-7.49-2.949c4.2-6.953 9.79-14.66 17.212-18.62-6.524 5.308-11.5 12.44-17.211 18.62zm-4.562-6.151c3.711-7.22 3.992-8.95 11.121-13.4-6.09 5.72-5.847 6.84-11.12 13.4zm31.102-7.278c-3.942 5.008-9.762 10.547-16.39 11.816 6.128-2.816 11-7.777 16.39-11.816zm0 0"/></g><g clip-path="url(#n)" mask="url(#m)"><path d="m266.852 96.91-2.954 1.192a28.754 28.754 0 0 0 16.743-7.66c-.922.449-1.82.917-2.73 1.378a28.76 28.76 0 0 1 -11.06 5.09zm-7.473-4.93c-.5.98-.98 1.97-1.39 2.872 3.741-4.372 6.71-10.16 11.75-13.114-1.04.32-2.028.774-2.95 1.352-2.89 2.5-5.11 5.781-7.41 8.89zm-2.919-4.039c-.222.688-.358 1.45-.538 2.098 2.11-2.89 3.316-7.09 6.707-8.559a6.07 6.07 0 0 0 -2.098.54c-1.722 1.55-2.851 3.82-4.07 5.921zm10.552 4.859c-.66.509-1.242.981-1.903 1.49 4.692-1.349 8.75-5.142 11.82-8.86-.71.422-1.398.89-2.07 1.379a27.202 27.202 0 0 1 -7.847 5.992zm0 0"/></g><g clip-path="url(#p)" mask="url(#o)"><path d="m339.55 143.7c-.66 0-1.312.179-1.972.23a21.36 21.36 0 0 0 11.024.261c-.672-.14-1.332-.191-1.973-.32a17.92 17.92 0 0 1 -7.078-.172zm-1.73-5.15c-.742.22-1.468.49-2.18.79 4.122-.078 8.11-.899 12.239-.79-.7-.32-1.43-.562-2.188-.69-2.71.081-5.332.53-7.87.69zm-1.8-5.98c-.711.192-1.41.418-2.098.692 3.937-.07 7.879.238 11.816-.301a14.93 14.93 0 0 0 -2.097-.512c-2.532.18-5.082.223-7.621.121zm8.558-58.851c-.719.02-1.437.09-2.148.222 3.77.79 7.41 1.97 11.25 2.27-.602-.371-1.23-.7-1.88-.98a66.436 66.436 0 0 1 -7.222-1.512zm0 0"/></g><g clip-path="url(#r)" mask="url(#q)"><path d="m305.629 142.488s2.293 10.024 3.101 13.121c.399 1.563.918 3.371 1.508 5.282.301.98.582 1.968.934 2.949.34.98.668 1.969.976 3.02.32 1.05.723 2.019 1.07 3 .352.98.731 1.968 1.083 2.902.719 1.867 1.43 3.61 2.07 5.078 1.258 2.95 2.27 4.922 2.27 4.922s-.38-2.14-1.211-5.242c-.39-1.56-.91-3.36-1.5-5.282-.301-.976-.578-1.968-.93-2.949-.34-.98-.672-1.969-.98-3.02-.32-1.05-.72-1.968-1.07-2.949-.348-.98-.74-1.968-1.079-2.898a131.992 131.992 0 0 0 -2.07-5.082c-1.27-3.05-4.172-12.852-4.172-12.852zm-75.059-64.297s.48 1.547 1.371 4.239c.887 2.691 2.18 6.53 3.797 11.11 1.633 4.581 3.551 9.91 5.692 15.581 2.148 5.668 4.5 11.707 6.89 17.73l3.7 8.93c1.218 2.95 2.492 5.82 3.71 8.598a359.583 359.583 0 0 0 3.622 7.973c1.18 2.52 2.328 4.918 3.437 7.058a305.831 305.831 0 0 0 3.11 5.91 70.924 70.924 0 0 0 2.632 4.399c.32.543.68 1.062 1.059 1.57.32.441.59.832.851 1.11l.75.902-.66-.98c-.261-.391-.511-.782-.742-1.18-.289-.47-.61-.98-.98-1.641-1.38-2.46-3.07-6.129-5.04-10.55-.98-2.22-1.968-4.63-3.109-7.18l-3.379-8.06-3.562-8.64-3.617-8.949c-4.774-11.992-9.692-23.973-13.332-32.973l-4.49-10.828zm0 0"/></g><g clip-path="url(#t)" mask="url(#s)"><path d="m71.16 274.84s5.38-1.668 7.2-4.54c0-.038.12 4.778-7.2 4.54zm0 0"/></g><g clip-path="url(#v)" mask="url(#u)"><path d="m70.941 263.27s5.278-2.13 6.008 1.109c-.258.543-6.008-1.11-6.008-1.11zm0 0"/></g><g clip-path="url(#x)" mask="url(#w)"><path d="m316.102 169.379s-6.813-15.758-11.672-31.64v-.298l.5 1.309 5.129-10.21s10.312-17.731 9.851-21.911c-.46-4.188.59-24.25 1.352-30.43.629-5.18 2.797-13.59 5.539-18.937a33.754 33.754 0 0 0 -2.54 14.91c.169 2.398.41 5.45-.613 7.61-2.668 5.64.493 18.23-.128 20.198-1.29 4.098 9.359 9.079 3.878 10.192-3.207.656-8.699 13.398-8.699 13.398-3.64 9.97-1.449 25-.98 26.59.46 1.61 6.203 19.719-1.617 19.219zm0 0"/></g><g clip-path="url(#z)" mask="url(#y)"><path d="m243.05 107.328c-4.25-10.277-9.96-22.5-12.741-30.328 2.52-.281 7.652-.809 7.652-.57.16 8.75 5.559 23.492 12.11 34.968 6.55 11.473 17.8 30.211 19.257 35.332 7.402 25.872.98 24.739.98 24.739s-9.038-19.79-17.347-39.29c-3.84-9-7.012-17.96-9.91-24.85zm0 0"/></g><g clip-path="url(#B)" mask="url(#A)"><path d="m203.7 148.7c-8.552-17.4-7.552-21.509-9.49-27.481-3.019-9.36-10.12-22.918-10.12-22.918a73.584 73.584 0 0 1 -14.45 13.59c-8.12 5.59-17.788-4.422-18.468-5.153.668.73 9.848 10.832 4.5 15.172-5.594 4.531-6.57 4.39-10.492 1.54-3.051-2.231-4.301-6.009-4.72-10.348-.32.968-.589 1.93-.831 2.867v.14c-.059.27-.117.52-.168.79v.261c-.02.25-.07.488-.14.73v.301c0 .098-.071.47-.102.707v.172c-.047.43-.078.871-.09 1.301v1.758c-.008.16.012.32.062.473.008.136.028.277.059.418.02.18.05.351.102.52a.47.47 0 0 0 .078.35c.07.282.148.551.25.829.03.14.082.261.148.383a17.03 17.03 0 0 0 6.32 7.347l-.668-.699c1.122.8 2.31 1.5 3.57 2.078.712.32 1.43.602 2.15.863 5.8 1.57 11.73 1.368 15.062-1.64.226-.211.449-.43.648-.672a63.455 63.455 0 0 1 10.219-8.629c-1.11 4.219-1.2 8.512 1.312 11.531 4.239 5.098 10 4.559 13.79 3.399 3.73 8.86 7.59 17.84 8.859 20.25 6.89 13.64 1.52 26.8-9.852 18.539-4.047-2.95-12.027-9.36-21.058-16.828 11.332 12.53 28 30.078 38.539 26.898 13.422-4.14 3.531-21.398-5.02-38.84zm0 0"/></g><g clip-path="url(#D)" mask="url(#C)"><path d="m88.578 201.5a66.594 66.594 0 0 1 13.422 15.16c6.45 10.281 11.559 32.3 11.559 32.3s6.25 3.75 11.652 14.321a89.263 89.263 0 0 0 10.75 16.739s12.18-29.598 10.648-38.961c-1.539-9.368-27.37-34.637-40.539-49.18-19.57-21.579-29.129-26.189-34.992-39.559-1.2-5.172-2.187-10.02-2.86-14.039 2.423 7.34 6.704 15.43 11.052 20.68 6.718 8.039 49.57 39.187 55.96 45.77 8.532 8.769 20.48 29.8 21.73 36.44 1.56 8.4 5.5 17.868 2.68 23.18 0 0-4.16 14.977-17.64 33.489s-13.86-.41-13.79-4.871c.071-4.45-8.538-28.028-14.07-34.719-5.538-6.691-16.93.172-12.98-3.27 3.95-3.44 4.121-11.87 1.18-26.68-1.738-8.69-8.45-19.41-13.762-26.8zm0 0"/></g><g clip-path="url(#G)" mask="url(#E)"><path d="m345.89 185.852c-13.788-3.133-28.492-5.91-28.492-5.91l-13.046-42.551v-.243l.628 1.641 7.09-13.45s8.352-14.487 7.88-18.71c-.47-4.23.59-24.25 1.35-30.43.759-6.187 3.669-16.96 7.18-21.668 6.48-8.703 15.48-7.601 18.31-7.402 3.472.262 7.339 4.66 7.339 4.66s.223 54.473.832 67.961c.469 10.602-2.762 18.422-3.711 25.73-.84 6.23-4.059 27.989-5.36 40.372zm0 0" fill="url(#F)"/></g></svg>