<svg xmlns="http://www.w3.org/2000/svg" xmlns:xlink="http://www.w3.org/1999/xlink" viewBox="0 0 410 510"><defs><filter id="a" width="100%" height="100%" x="0%" y="0%" filterUnits="objectBoundingBox"><feColorMatrix in="SourceGraphic" values="0 0 0 0 1 0 0 0 0 1 0 0 0 0 1 0 0 0 1 0"/></filter><mask id="x"><g filter="url(#a)"><path fill-opacity=".851" d="M0 0h410v510H0z"/></g></mask><linearGradient id="c" x1="205" x2="205" y1="502.491" y2="7.509" gradientUnits="userSpaceOnUse"><stop offset="0" stop-color="#fff" stop-opacity="0"/><stop offset=".427" stop-color="#d0b5b3"/><stop offset="1" stop-color="#d0b5b3"/></linearGradient><clipPath id="b"><path d="M0 0h410v510H0z"/></clipPath><g id="w" clip-path="url(#b)"><path fill="url(#c)" d="M349.64 219.762c-3.761-13.723-2.03-25.41-.511-39.332 1.32-12.2-6.61-19.918-19.309-14.84-12.09 4.879-20.332 21.648-23.68 33.441-1.831 6.5-2.949 13.309-4.269 19.918-1.223 6 1.32 13.11-.2 18.7-.51 1.93-12.6 23.171-13.312 22.972 0-51.73 31.301-97.77 44.012-146.86 4.367-16.972 8.64-54.78-21.14-48.382-24.09 5.18-26.122 43.3-37.5 60.172-6 8.84-12.09 16.058-16.262 26.12-5.59 13.52-10.98 27.028-16.36 40.548-1.32 3.351-17.37 30.281-17.578 22.36 0-1.528 0-3.61.188-6.099h.351a15.416 15.416 0 0 1-.191-2.242c.351-4.379.91-9.816 1.672-16.039.777-4.238 1.918-9.328 3.558-15.39 6.782-25.07 12.2-60.98 12.2-60.98 10.84-18.63 14.23-48.45 14.23-48.45 7.461-21 4.941-41.668 4.941-41.668-9.98-27.152-29.332-12.832-32.039-9.152-2.703 3.68-4.261 7.113-8.03 18.23-2.56 6.64-4.673 13.45-5.212 15.04-6.918-1.02-14.879 1.952-21.64 9.382-3.047 3.46-15.137 21.039-20.118 20.43-1.52-.2-4.27-6-5.793-7.11-4.41-3.3-10.199-4.11-15.347-2.133-9.762 4.07-15.551 16.364-20.332 25.102-6.707 12.2-12.399 25-18.797 37.3-4.98 9.45-13.113 19.31-15.75 29.68-3.352 13.72-6.711 27.54-9.863 41.258C75.94 252.16 61.3 303.29 61.71 355.43c.219 12 1.11 23.98 2.64 35.879 1.52 12.91 7.72 28.66 6.098 41.37-1.418 11.692-7.62 22.262-10.77 33.54-1.73 6.101-.1 33.84-4.679 36.281h152.191c7.11 0 6.297-2.441 8.739-8.64 2.851-7.419 5.289-14.938 8.23-22.36 10.469-26.828 32.52-41.371 49.602-63.121 8.937-11.379 17.277-23.27 25.508-35.059 8.44-12.09 20.23-25.101 25.41-38.93 4.57-12.199 4.27-25.71 9.148-37.812 5.492-13.617 10.57-27.238 17.582-40.148 7.211-13.602 1.942-22.95-1.77-36.668zm0 0"/></g><mask id="z"><g filter="url(#a)"><path fill-opacity=".502" d="M0 0h410v510H0z"/></g></mask><clipPath id="d"><path d="M0 0h410v510H0z"/></clipPath><g id="y" clip-path="url(#d)"><path fill="#fff" stroke="#000" stroke-width=".25" d="M298.922 83.29c1.316.608 3.86.41 9.148.41 4.72.1 11.211 2.679 14.989 4.402.02.046.03.097.05.148 1.73.71 2.852 1.32 2.852 1.32l.2-.3a17.932 17.932 0 0 0 3.648-7.09h.113c1.93-7.52-1.832-15.25-11.992-16.461-6.352-.809-11.29 2.582-14.739 6.5-.07.031-.132.062-.203.09-3.66 4.27-5.488 9.351-4.976 10.16.226.34.547.62.91.812"/></g><mask id="B"><g filter="url(#a)"><path fill-opacity=".502" d="M0 0h410v510H0z"/></g></mask><clipPath id="e"><path d="M0 0h410v510H0z"/></clipPath><g id="A" clip-path="url(#e)"><path fill="#fff" stroke="#000" stroke-width=".25" d="M230.02 16.05c-2.66 4.34-4.75 10.641-4.329 11 .418.36 1.09.079 2.27-.1.11-.071.23-.122.34-.188 2.91-.371 5.86-.16 8.687.617a92.443 92.443 0 0 0 12.121 2.55m.051.02c1.82.38 3.692.422 5.52.121.398-.14.66-.64.93-1.16-.008-.058-.032-.14-.04-.219.47-1.64.64-3.351.5-5.062-6.14-18.098-18.12-12.957-21.832-12.3-1.258.3-2.75 2.112-4.226 4.542"/></g><mask id="D"><g filter="url(#a)"><path fill-opacity=".502" d="M0 0h410v510H0z"/></g></mask><clipPath id="f"><path d="M0 0h410v510H0z"/></clipPath><g id="C" clip-path="url(#f)"><path fill="#fff" stroke="#000" stroke-width=".25" d="M150.691 75.36c-5.242-1.11-9.472 8.85-9.75 12.402h-.011v.61c.41 2.737 13.57 3.757 15.449 3.05.101 0 .2-.102.3-.102-.199-.308-.429-.648-.699-1 .32.38.579.758.81 1.102 1.929-1.024 4.37-7.223 4.37-7.223 1.621-2.738-4.879-7.719-10.469-8.84zm0 0"/></g><mask id="F"><g filter="url(#a)"><path fill-opacity=".502" d="M0 0h410v510H0z"/></g></mask><clipPath id="g"><path d="M0 0h410v510H0z"/></clipPath><g id="E" clip-path="url(#g)"><path fill="#fff" stroke="#000" stroke-width=".25" d="M349.379 174.191c.101-3.351-.3-3.761-.91-3.96-.61-.2 0 .91-5.18 5.39-4.84 3.059-7.7 8.309-8.738 13.82-.102.18-.211.348-.301.508a25.965 25.965 0 0 0-.2 7.422c.91 8.027 13.009 8.027 13.009 8.027.511-1.02 1.73-23.07 2.34-28.757.03-.801-.008-1.61-.098-2.403.02-.027.05-.039.078-.047zm0 0"/></g><mask id="H"><g filter="url(#a)"><path fill-opacity=".502" d="M0 0h410v510H0z"/></g></mask><clipPath id="h"><path d="M0 0h410v510H0z"/></clipPath><g id="G" clip-path="url(#h)"><path fill="#fff" stroke="#000" stroke-width=".25" d="M205.32 71.07l6.61-15.25c.21-.3.332-.629.36-.968l.66-1.493c-4.13-4.77-6.919-2.718-9.65-1.468l-.628.43.02.109c-3.32 2.09-6.883 8.718-8.18 11.648h-.032c-.218.383-.41.781-.558 1.192.058.57 6.848 4.03 10.719 5.52"/></g><mask id="J"><g filter="url(#a)"><path fill-opacity=".302" d="M0 0h410v510H0z"/></g></mask><clipPath id="i"><path d="M0 0h410v510H0z"/></clipPath><g id="I" clip-path="url(#i)"><path d="M287.922 165.469a32.565 32.565 0 0 0 5.289 1.832c-11.79-1.121-22.66-10.871-30.191-19.313a70.098 70.098 0 0 1 3.05 2.543c6.09 6.2 13.61 12.399 21.852 14.938zm0 0M299.2 159.07l5.081 1.52c-8.941-1.02-20.84-4.371-27.543-10.371 1.223.71 2.442 1.32 3.66 1.93 5.282 3.382 12.391 5.703 18.801 6.921zm0 0M300.11 150.121a58.01 58.01 0 0 1 4.171 2.64c-9.66-4.882-20.633-7.32-30.691-11.48 1.629.297 3.25.707 4.98 1.117 7.04 2.641 14.532 4.672 21.54 7.723zm0 0M308.75 143.621c1.32.809 2.54 1.629 3.762 2.438-9.153-3.758-18.293-9.149-28.153-10.98 1.602-.02 3.2.12 4.782.41 6.808 1.933 13.21 5.28 19.609 8.132zm0 0M305.7 93.719c5.288 1.52 10.472 4.37 15.448 6.71 1.223.81 2.34 1.52 3.352 2.34-7.621-3.25-15.55-8.44-23.988-9.347a21.367 21.367 0 0 1 5.187.297zm0 0"/></g><mask id="L"><g filter="url(#a)"><path fill-opacity=".302" d="M0 0h410v510H0z"/></g></mask><clipPath id="j"><path d="M0 0h410v510H0z"/></clipPath><g id="K" clip-path="url(#j)"><path d="M216.238 125.988a36.461 36.461 0 0 0 4.57-.707c-8.828 4.07-20.007 1.52-28.136-3.152 1.316.41 2.726.91 4.168 1.223 6.101 2.636 13.11 4.058 19.398 2.636zm0 0M218.898 109.3a53.047 53.047 0 0 1 4.172 1.731c-9.05-1.832-18.289-4.883-27.539-5.18 1.54-.292 3.11-.421 4.68-.41 6.18.598 12.48 2.43 18.687 3.86zm0 0M213.57 115.059c1.22.101 2.54.203 3.758.203-7.219 1.93-15.547-1.32-21.848-4.684l3.348.91c4.582 2.153 9.762 3.813 14.742 3.57zm0 0M204.98 95.309c5.692 1.32 11.282 3.152 16.97 4.57 1.32.512 2.538 1.121 3.76 1.633-8.23-1.73-16.16-4.684-24.491-6.203a24.187 24.187 0 0 1 3.761 0zm0 0M241.91 48.879c1.121.2 2.34.41 3.461.71-6.71.302-14.031-.1-20.332-2.64l3.352.301c4.41 1.148 8.96 1.7 13.52 1.629zm0 0M242.07 42.879l2.739 1.52c-6.207-1.63-12.09-4.368-18.188-6.2 1.02 0 2.027.102 3.05.2 4.11 1.43 8.22 3.16 12.4 4.48zm0 0"/></g><mask id="N"><g filter="url(#a)"><path fill-opacity=".302" d="M0 0h410v510H0z"/></g></mask><clipPath id="k"><path d="M0 0h410v510H0z"/></clipPath><g id="M" clip-path="url(#k)"><path d="M155.281 140.98h3.559a31.624 31.624 0 0 1-20.328-1.02l3.347.302c4.38 1.199 8.95 1.449 13.422.718zm0 0M157.719 129.191c1.12.41 2.242.91 3.25 1.32-6.297-.812-13.008-3.35-19.309-2.03a13.537 13.537 0 0 1 3.461-1.122c4.14 0 8.438 1.012 12.598 1.832zm0 0M153.66 136l2.64.3c-5.179 1.419-11.179.2-16.16-1.519.919-.02 1.829.02 2.739.098A30.207 30.207 0 0 0 153.66 136zm0 0M201.93 73.078c1.12.41 2.242.813 3.25 1.223-6.5-.711-14.032-2.242-19.309-6.2.91.297 1.73.61 2.64.91a40.806 40.806 0 0 0 13.419 4.067zm0 0"/></g><mask id="P"><g filter="url(#a)"><path fill-opacity=".302" d="M0 0h410v510H0z"/></g></mask><clipPath id="l"><path d="M0 0h410v510H0z"/></clipPath><g id="O" clip-path="url(#l)"><path d="M110.629 166.71c.812 0 1.633.099 2.441.099a29.041 29.041 0 0 1-13.52 1.02c.81-.2 1.63-.298 2.438-.509 2.903.309 5.82.102 8.64-.61zm0 0M112.39 160.898c.919.192 1.84.43 2.739.711-5.078.2-10.059-.41-15.14 0 .84-.41 1.73-.71 2.64-.91 3.36-.09 6.61.2 9.762.2zm0 0M114.121 154.191c.89.137 1.777.348 2.64.61-4.882.199-9.66.808-14.53.508a24.41 24.41 0 0 1 2.539-.707c3.152.097 6.199-.211 9.351-.41zm0 0M147.559 98.621c.851-.02 1.703.008 2.543.098-4.372 1.422-9.961 1.93-13.012-1.52.558.281 1.129.52 1.73.711 2.47 1.29 5.692 1.29 8.739.711zm0 0"/></g><mask id="R"><g filter="url(#a)"><path fill-opacity=".302" d="M0 0h410v510H0z"/></g></mask><clipPath id="m"><path d="M0 0h410v510H0z"/></clipPath><g id="Q" clip-path="url(#m)"><path d="M172.29 77.781s-1.392 2.028-3.97 5.578c-2.582 3.551-6.172 8.63-10.441 14.72-2.2 3.05-4.578 6.3-7.168 9.651a31.763 31.763 0 0 1-2.031 2.54c-.739.808-1.48 1.628-2.192 2.43-1.476 1.73-2.777 3.562-4.18 5.491-2.769 3.75-5.468 7.707-8.128 11.868-.692 1.02-1.29 2.132-1.89 3.152a29.239 29.239 0 0 0-1.188 3.648c-.602 2.442-1.102 4.88-1.602 7.313-1.879 9.848-3.48 19.7-5.078 29.039-1.613 9.34-2.953 17.91-4.48 25.277a550.02 550.02 0 0 1-1.192 5.274 5.737 5.737 0 0 1-.89 2.238c-.4.71-.79 1.422-1.188 2.031a129.691 129.691 0 0 0-3.383 7.11c-1.789 3.96-2.68 6.3-2.68 6.3s1.02-2.34 2.88-6.203c1.023-1.918 2.09-4.36 3.59-7 .401-.707.792-1.308 1.19-2.027.442-.73.79-1.52 1.02-2.34.5-1.633.89-3.46 1.29-5.27 1.6-7.312 3.183-15.94 4.78-25.171 1.602-9.239 3.27-19.09 5.16-28.93l1.493-7.32c.25-1.18.617-2.34 1.097-3.45.59-1.02 1.192-2.128 1.891-3.152 2.578-4.156 5.371-8.129 8.05-11.867 1.4-1.93 2.79-3.762 4.18-5.492.692-.899 1.391-1.617 2.192-2.528.789-.91 1.387-1.73 2.027-2.543 2.582-3.449 4.871-6.699 7.051-9.847a619.3 619.3 0 0 0 10.16-14.922 652.08 652.08 0 0 0 3.63-5.598zm0 0M211.078 58.64c-5.328 13.11-16.258 28.462-22.02 46.07-5.757 17.61-23.038 106.04-23.038 106.04l25.07-108.07s14.66-30.93 19.988-44.04zm0 0"/></g><mask id="T"><g filter="url(#a)"><path fill-opacity=".102" d="M0 0h410v510H0z"/></g></mask><clipPath id="n"><path d="M0 0h410v510H0z"/></clipPath><g id="S" clip-path="url(#n)"><path d="M119.36 160.352c.41-8.23 13.312-26.93 13.312-26.93a.334.334 0 0 0 .098.2c-2.239 5.788-8.23 44.308-11.891 62.507-.91 2.34-1.418 3.66-1.418 3.66 1.11-4.777-.531-31.309-.102-39.437zm0 0"/></g><mask id="V"><g filter="url(#a)"><path fill-opacity=".102" d="M0 0h410v510H0z"/></g></mask><clipPath id="o"><path d="M0 0h410v510H0z"/></clipPath><g id="U" clip-path="url(#o)"><path d="M174.66 128.172c.852-8.082 14.41-23.203 14.45-23.633-2.84 6.91-11.391 49.55-13.212 57.09-1.02 2.262-2.84 5.3-2.84 5.3 1.34-4.648.75-30.78 1.602-38.757zm0 0"/></g><mask id="X"><g filter="url(#a)"><path fill-opacity=".102" d="M0 0h410v510H0z"/></g></mask><clipPath id="p"><path d="M0 0h410v510H0z"/></clipPath><g id="W" clip-path="url(#p)"><path d="M288.172 255.68c-.102.68-.23 1.36-.41 2.03 0 0-1.524-12.089-2.742-17.179-1.22-5.082 15.25-52.34 25-72.972 9.761-20.63 22.66-63.618 22.66-68.707 0-3.051 1.12-10.473 2.03-15.852 1.419 10.371-.608 22.66-2.64 30.488-12.289 47.473-42.172 92.274-43.898 142.192zm0 0"/></g><mask id="Z"><g filter="url(#a)"><path fill-opacity=".102" d="M0 0h410v510H0z"/></g></mask><clipPath id="q"><path d="M0 0h410v510H0z"/></clipPath><g id="Y" clip-path="url(#q)"><path d="M295.61 302.898c-.41.41-11.282-10.976-11.282-14.84 0-3.859 3.563-22.257 3.563-27.75.05-.886.148-1.769.3-2.636v2.437c.809.2 12.809-21.039 13.309-22.968 1.52-5.59-1.02-12.7.2-18.7 1.32-6.613 2.44-13.421 4.269-19.921 2.64-9.348 8.543-22.051 16.972-29.27l.91-.3s-17.18 27.34-18.402 42.581c-1.219 15.25-2.34 23.07.41 23.07 2.743 0 7.832 3.149 7.832 3.149s-8.941.41-10.16 2.738c-1.222 2.34-7.832 14.032-7.832 15.653 0 1.629-6.61 10.57-6.199 15.25.172 4.62 1.82 24.129 6.11 31.507zm0 0"/></g><mask id="ab"><g filter="url(#a)"><path fill-opacity=".302" d="M0 0h410v510H0z"/></g></mask><clipPath id="r"><path d="M0 0h410v510H0z"/></clipPath><g id="aa" clip-path="url(#r)"><path d="M354.441 244.969s-6.203-.508-8.84-3.149c-.03.04.989 5.18 8.84 3.149zm0 0"/></g><mask id="ad"><g filter="url(#a)"><path fill-opacity=".302" d="M0 0h410v510H0z"/></g></mask><clipPath id="s"><path d="M0 0h410v510H0z"/></clipPath><g id="ac" clip-path="url(#s)"><path d="M351.89 232.512s-6.199-1.024-6.199 2.636c.41.512 6.2-2.636 6.2-2.636zm0 0"/></g><mask id="af"><g filter="url(#a)"><path fill-opacity=".102" d="M0 0h410v510H0z"/></g></mask><clipPath id="t"><path d="M0 0h410v510H0z"/></clipPath><g id="ae" clip-path="url(#t)"><path d="M251.05 167.262a2260.207 2260.207 0 0 0-10 24.957c-1.32 3.351-17.37 30.281-17.581 22.36 0-1.528 0-3.61.191-6.099h.352a14.89 14.89 0 0 1-.192-2.242c.352-4.379.91-9.816 1.668-16.039.782-4.238 1.922-9.328 3.563-15.39 6.777-25.07 12.199-60.98 12.199-60.98 10.84-18.63 14.23-48.45 14.23-48.45 7.461-21 4.942-41.668 4.942-41.668a39.114 39.114 0 0 0-2.242-5.191c-.16 11.94-.871 38.62-4.07 42.5-2.31 2.89-4.282 3.308-5.56 3.14 1.24 1.02 2.54 4.012 1.02 12.102-2.539 13.207-8.129 31.508-10.16 32.52a46.361 46.361 0 0 1-5.082 2.027s3.05 0 2.031 9.66c-1.02 9.66-14.23 54.883-16.257 67.082-2.032 12.199-4.07 37.597 4.07 33.027 8.11-4.558 20.258-30.488 26.879-53.316zm0 0"/></g><mask id="ah"><g filter="url(#a)"><path fill-opacity=".502" d="M0 0h410v510H0z"/></g></mask><linearGradient id="v" x1="-1702.823" x2="-1702.823" y1="2133.913" y2="2194.273" gradientTransform="matrix(3.1362 0 0 -3.1362 5554.397 6889.314)" gradientUnits="userSpaceOnUse"><stop offset="0" stop-color="#00afd1" stop-opacity="0"/><stop offset=".64" stop-color="#0074d1"/></linearGradient><clipPath id="u"><path d="M0 0h410v510H0z"/></clipPath><g id="ag" clip-path="url(#u)"><path fill="url(#v)" d="M174.32 173.82l-7.11 32.52s41.88 10.37 56.731 1.781c0-.36-.101-.96-.132-1.86.351-4.382.91-9.82 1.671-16.042.782-4.239 1.918-9.328 3.56-15.39 6.78-25.067 12.198-60.977 12.198-60.977 10.84-18.633 14.23-48.454 14.23-48.454 7.462-21 4.942-41.668 4.942-41.668-9.98-27.152-29.332-12.832-32.039-9.152-2.7 3.684-4.262 7.113-8.031 18.23-2.559 6.641-4.668 13.454-5.211 15.044-.098 0-7.29 18.367-7.379 18.289l-16.648 36.468zm0 0"/></g></defs><use mask="url(#x)" xlink:href="#w"/><use mask="url(#z)" xlink:href="#y"/><use mask="url(#B)" xlink:href="#A"/><use mask="url(#D)" xlink:href="#C"/><use mask="url(#F)" xlink:href="#E"/><use mask="url(#H)" xlink:href="#G"/><use mask="url(#J)" xlink:href="#I"/><use mask="url(#L)" xlink:href="#K"/><use mask="url(#N)" xlink:href="#M"/><use mask="url(#P)" xlink:href="#O"/><use mask="url(#R)" xlink:href="#Q"/><use mask="url(#T)" xlink:href="#S"/><use mask="url(#V)" xlink:href="#U"/><use mask="url(#X)" xlink:href="#W"/><use mask="url(#Z)" xlink:href="#Y"/><use mask="url(#ab)" xlink:href="#aa"/><use mask="url(#ad)" xlink:href="#ac"/><use mask="url(#af)" xlink:href="#ae"/><path d="M246.988 63.55c.461.329.992.54 1.563.598a2.344 2.344 0 0 0-1.563-.597zm0 0"/><use mask="url(#ah)" xlink:href="#ag"/></svg>