<svg viewBox="0 0 410 510" xmlns="http://www.w3.org/2000/svg" xmlns:xlink="http://www.w3.org/1999/xlink"><filter id="a" height="100%" width="100%" x="0%" y="0%"><feColorMatrix in="SourceGraphic" values="0 0 0 0 1 0 0 0 0 1 0 0 0 0 1 0 0 0 1 0"/></filter><mask id="b"><g filter="url(#a)"><path d="m0 0h410v510h-410z" fill-opacity=".851"/></g></mask><linearGradient id="c" gradientUnits="userSpaceOnUse" x1="205" x2="205" y1="489.017" y2="20.983"><stop offset="0" stop-color="#fff" stop-opacity="0"/><stop offset=".427" stop-color="#d0b5b3"/><stop offset="1" stop-color="#d0b5b3"/></linearGradient><clipPath id="d"><path d="m0 0h410v510h-410z"/></clipPath><mask id="e"><g filter="url(#a)"><path d="m0 0h410v510h-410z" fill-opacity=".502"/></g></mask><clipPath id="f"><path d="m0 0h410v510h-410z"/></clipPath><mask id="g"><g filter="url(#a)"><path d="m0 0h410v510h-410z" fill-opacity=".502"/></g></mask><clipPath id="h"><path d="m0 0h410v510h-410z"/></clipPath><mask id="i"><g filter="url(#a)"><path d="m0 0h410v510h-410z" fill-opacity=".502"/></g></mask><clipPath id="j"><path d="m0 0h410v510h-410z"/></clipPath><mask id="k"><g filter="url(#a)"><path d="m0 0h410v510h-410z" fill-opacity=".502"/></g></mask><clipPath id="l"><path d="m0 0h410v510h-410z"/></clipPath><mask id="m"><g filter="url(#a)"><path d="m0 0h410v510h-410z" fill-opacity=".502"/></g></mask><clipPath id="n"><path d="m0 0h410v510h-410z"/></clipPath><mask id="o"><g filter="url(#a)"><path d="m0 0h410v510h-410z" fill-opacity=".302"/></g></mask><clipPath id="p"><path d="m0 0h410v510h-410z"/></clipPath><mask id="q"><g filter="url(#a)"><path d="m0 0h410v510h-410z" fill-opacity=".302"/></g></mask><clipPath id="r"><path d="m0 0h410v510h-410z"/></clipPath><mask id="s"><g filter="url(#a)"><path d="m0 0h410v510h-410z" fill-opacity=".302"/></g></mask><clipPath id="t"><path d="m0 0h410v510h-410z"/></clipPath><mask id="u"><g filter="url(#a)"><path d="m0 0h410v510h-410z" fill-opacity=".302"/></g></mask><clipPath id="v"><path d="m0 0h410v510h-410z"/></clipPath><mask id="w"><g filter="url(#a)"><path d="m0 0h410v510h-410z" fill-opacity=".302"/></g></mask><clipPath id="x"><path d="m0 0h410v510h-410z"/></clipPath><mask id="y"><g filter="url(#a)"><path d="m0 0h410v510h-410z" fill-opacity=".302"/></g></mask><clipPath id="z"><path d="m0 0h410v510h-410z"/></clipPath><mask id="A"><g filter="url(#a)"><path d="m0 0h410v510h-410z" fill-opacity=".302"/></g></mask><clipPath id="B"><path d="m0 0h410v510h-410z"/></clipPath><mask id="C"><g filter="url(#a)"><path d="m0 0h410v510h-410z" fill-opacity=".302"/></g></mask><clipPath id="D"><path d="m0 0h410v510h-410z"/></clipPath><mask id="E"><g filter="url(#a)"><path d="m0 0h410v510h-410z" fill-opacity=".102"/></g></mask><clipPath id="F"><path d="m0 0h410v510h-410z"/></clipPath><mask id="G"><g filter="url(#a)"><path d="m0 0h410v510h-410z" fill-opacity=".502"/></g></mask><linearGradient id="H" gradientTransform="matrix(3.13060156 -.18730801 .18730801 3.13060156 6095.52761 5096.916321)" gradientUnits="userSpaceOnUse" x1="-1743.714" x2="-1744.176" y1="-1682.302" y2="-1716.807"><stop offset=".13" stop-color="#00afd1" stop-opacity="0"/><stop offset=".64" stop-color="#0074d1"/></linearGradient><clipPath id="I"><path d="m0 0h410v510h-410z"/></clipPath><g clip-path="url(#d)" mask="url(#b)"><path d="m336.578 206.781c0-16.781 6.8-52.761 6.8-52.761 8.653-41.07 5.981-38.73 8.513-58.329 0 0 1.93-41.21 3.058-53.113 1.13-11.898-22.02-23.43-32.5-1.598-4.828 10.07-11.969 52.989-13.87 58.18-5.95 16.328-12.028 35.649-14.227 41.34 0 0-6.723-29.93-8.391-34.512-5.04-13.687-25.39-32.718-43.121-53.918-11.531-13.77-26.442-22.308-27.7-23.699-15.85-13.043-35.652-9.172-37.12 14.34-7.34-5.16-20.301-10.91-25.63-15.422-8.64-3.86-17.69-.16-22.28 2.23-4.59 2.391-12.282 12.27-8.04 20.27 6.2 11.84 25.16 24.8 31.739 36.422 6.07 10.68 14.32 20.598 19.043 32.039 4.937 11.871 6.128 25.48 10.027 37.672 3 9.168 12.402 24.418 7.23 34.047-3.847 7.203-17.129-19.29-18.558-22.719-5.82-13.84-11.63-27.68-17.66-41.52-4.493-10.3-10.91-17.628-17.27-26.628-12.031-17.18-40.8-59.66-54.062-59.66-24.43-3.77-33.45 17.097-21.13 41.206 22.122 45.551 61.68 104.73 62.673 158.09-.723.23-13.633-21.449-14.172-23.43-1.68-5.738.808-13.128-.57-19.277-1.489-6.793-2.782-13.8-4.79-20.472-3.68-12.137-12.492-29.278-25.07-34.079-13.2-5-21.23 3.149-19.64 15.66 1.812 14.34 3.91 26.36.242 40.622-3.672 14.258-8.891 23.968-1.051 37.867 7.48 13.18 7.34 27.262 13.21 41.21 5.239 12.38 5.239 26.333 10.16 38.79 5.61 14.152 12.579 55.86 39.63 78.281 18.02 22.102 35.969 35.95 47.289 63.418 3.148 7.594 5.84 15.313 8.922 22.91 2.629 6.293 1.84 8.883 9.168 8.742l10.48-.199 47.07-.87 99.391-1.821c-4.77-2.43-3.621-31.09-5.512-37.34-3.468-11.531-10.07-22.36-11.75-34.39-1.918-13.07.13-65.22 0-77.59 0 0 7.82-32.032 6.29-59.758-1.919-35.192 3.18-53.461 3.18-70.23zm0 0" fill="url(#c)"/></g><g clip-path="url(#f)" mask="url(#e)"><path d="m60.559 57.672a19.02 19.02 0 0 0 4.39 6.95l.23.288s1.051-.719 2.81-1.601a.297.297 0 0 0 .023-.098c3.726-2.102 10.18-5.352 15.027-5.871 5.43-.5 8.063-.5 9.36-1.238.37-.223.671-.532.87-.91.45-.883-1.89-5.954-6.03-10-.048-.02-.11-.044-.16-.063-3.9-3.738-9.29-6.8-15.77-5.41-10.329 2.171-13.509 10.5-10.849 17.991" fill="#fff" stroke="#000" stroke-width=".25"/></g><g clip-path="url(#h)" mask="url(#g)"><path d="m135.29 45.18c4.01-1.711 7.929-3.64 11.722-5.782a28.89 28.89 0 0 1 8.828-3.187c.101.008.2.02.3.039 1.25-.219 2.008-.2 2.34-.621.32-.418-3.44-4.828-7.28-7.52m-.028-.12c-2.102-1.509-4.121-2.509-5.492-2.36-3.961.601-17.52.152-19.059 16.59a9.894 9.894 0 0 0 1.809 3.902c.011.078.011.149.02.207.34.344.769.57 1.25.652 1.948-.332 3.831-.93 5.609-1.789" fill="#fff" stroke="#000" stroke-width=".25"/></g><g clip-path="url(#j)" mask="url(#i)"><path d="m215.73 36.02c-1.742-3.149-6.718-10.829-11.242-12.91m0 .011-1.047-.45c-5.703-1.542-19.68-4.71-18.39 14.548 0 0 .508.61 1.347 1.46v.083c2.204 2.16 6.793 5.816 12.43 5.136a23.207 23.207 0 0 0 5.293-1.25c-.02.051-.05.09-.07.141 4.687-1.789 7.3-4.488 9.39-4.66 2.739-.16 2.778 0 2.868-.61a5.647 5.647 0 0 0 -.668-1.37" fill="#fff" stroke="#000" stroke-width=".25"/></g><g clip-path="url(#l)" mask="url(#k)"><path d="m348.422 36.21a7.252 7.252 0 0 0 -8.813 2.24c-3.148 4.26-4.09 12.19-3.218 13.05.05-.05.097-.11.16-.16 1.91 1.82 16.77 3.558 17.687 1.02 0-.22.07-.34.153-.669-.012 0-.012-.011-.02-.011 2.129-12.75-2.66-15.602-5.95-15.47zm0 0" fill="#fff" stroke="#000" stroke-width=".25"/></g><g clip-path="url(#n)" mask="url(#m)"><path d="m75.469 165.691c-.13-.21-.27-.43-.418-.66-1.18-5.601-4.281-10.91-9.27-13.941l-6.32-1.352c.05.012.098.032.14.051-.062.82-.062 1.652 0 2.473.727 5.86 2.41 28.578 2.958 29.617 0 0 12.472-.23 13.261-8.52.258-2.57.14-5.148-.351-7.668zm0 0" fill="#fff" stroke="#000" stroke-width=".25"/></g><g clip-path="url(#p)" mask="url(#o)"><path d="m123.379 141.16a33.6 33.6 0 0 1 -5.418 1.988c12.14-1.378 23.168-11.648 30.77-20.5-1.051.864-2.102 1.723-3.153 2.68-6.117 6.563-13.758 13.102-22.2 15.832zm-11.758-6.289c-1.781.559-3.441 1.11-5.242 1.668 9.21-1.219 21.41-4.91 28.223-11.219-1.25.77-2.5 1.418-3.73 2.102-5.372 3.469-12.673 6.02-19.25 7.45zm-1.121-9.261c-1.441.859-2.84 1.8-4.191 2.8 9.87-5.238 21.152-7.941 31.46-12.43-1.68.348-3.34.801-5.12 1.25-7.25 2.86-14.97 5.06-22.149 8.38zm-9.031-6.54c-1.348.86-2.59 1.72-3.84 2.578 9.36-4.046 18.7-9.777 28.832-11.859-1.66.012-3.313.191-4.93.512-6.972 2.11-13.52 5.699-20.062 8.77zm-9.109-51.449c-5.43 1.68-10.72 4.707-15.81 7.207-1.241.863-2.378 1.633-3.421 2.473 7.8-3.492 15.883-9 24.57-10.102a24.023 24.023 0 0 0 -5.34.422zm0 0"/></g><g clip-path="url(#r)" mask="url(#q)"><path d="m200.59 114.512a39.437 39.437 0 0 1 -4.68-.614c9.2 4.032 20.68 1.18 28.98-3.789a36.16 36.16 0 0 1 -4.28 1.332c-6.29 2.809-13.489 4.41-20.02 3.07zm-5.559-11.442a52.322 52.322 0 0 0 -4.27 1.871c9.298-2.101 18.778-5.382 28.31-5.87-1.59-.27-3.212-.38-4.821-.34-6.379.757-12.852 2.757-19.219 4.34zm9.438 6.64c-1.258.13-2.617.25-3.88.278 7.49 1.852 16.02-1.668 22.45-5.238l-3.437 1.05c-4.653 2.25-9.973 4.028-15.133 3.91zm-.059-15.831c-5.851 1.48-11.531 3.473-17.422 5.043-1.36.558-2.597 1.207-3.847 1.75 8.449-1.942 16.578-5.133 25.16-6.863a24.422 24.422 0 0 0 -3.89.07zm-51.558-43.089-2.801 1.632c6.36-1.8 12.39-4.742 18.64-6.742-1.05.03-2.101.12-3.152.261-4.148 1.547-8.418 3.41-12.687 4.848zm0 0"/></g><g clip-path="url(#t)" mask="url(#s)"><path d="m263.02 119.648-3.668.063a32.608 32.608 0 0 0 20.968-1.441l-3.46.43a32.515 32.515 0 0 1 -13.84.948zm-2.782-12.117c-1.136.438-2.289.989-3.328 1.43 6.488-.95 13.36-3.7 19.918-2.461a13.9 13.9 0 0 0 -3.59-1.05c-4.34.062-8.718 1.171-13 2.081zm4.321 6.981c-.93.117-1.77.238-2.72.367 5.372 1.36 11.532 0 16.641-1.89-.949 0-1.89.05-2.832.16a30.628 30.628 0 0 1 -11.09 1.363zm-51-63.962c-1.137.438-2.29.88-3.32 1.31 6.69-.848 14.421-2.57 19.8-6.758-.93.34-1.77.668-2.71 1.046a42.548 42.548 0 0 1 -13.77 4.403zm0 0"/></g><g clip-path="url(#v)" mask="url(#u)"><path d="m336.578 114.879c-.828-.149-1.668-.18-2.5-.32a30.058 30.058 0 0 0 13.563 3.421c-.79-.359-1.59-.601-2.38-.949-3-.21-5.933-.941-8.683-2.152zm0 0"/></g><g clip-path="url(#x)" mask="url(#w)"><path d="m335.852 108.66c-.98.02-1.954.102-2.922.23 5.129 1.11 10.3 1.36 15.39 2.669a11.003 11.003 0 0 0 -2.53-1.387c-3.38-.66-6.75-.902-9.938-1.512zm0 0"/></g><g clip-path="url(#z)" mask="url(#y)"><path d="m335.27 101.559a20.87 20.87 0 0 0 -2.79.16c4.918 1.05 9.668 2.531 14.68 3.07-.8-.43-1.62-.82-2.45-1.16-3.222-.45-6.269-1.258-9.44-2.07zm0 0"/></g><g clip-path="url(#B)" mask="url(#A)"><path d="m341.48 63.922c-.832-.274-1.68-.48-2.539-.64 3.91 2.667 9.297 4.788 13.32 2.25-.632.116-1.273.187-1.921.206-2.79.602-6.02-.34-8.86-1.816zm0 0"/></g><g clip-path="url(#D)" mask="url(#C)"><path d="m177.691 42.48s1.309.7 4.739 4.532c3.808 5.008 8.218 9.09 14 15.726 5.78 6.64 14.14 12.98 21.218 21.371 1.813 2.102 3.532 4.13 5.364 6.29l1.386 1.652c.223.308.43.508.641.828.211.312.441.621.652.93a27.084 27.084 0 0 1 1.848 3.93c2.191 5.312 4.082 10.831 5.86 16.363a1792.155 1792.155 0 0 1 10.152 32.628c3.14 10.418 6.039 20.239 8.808 28.47a93.184 93.184 0 0 0 4.09 11.152c.192.359.41.707.653 1.046.308.301.527.622.847.93.551.621 1.051 1.242 1.602 1.75a40.745 40.745 0 0 0 3 2.98c1.808 1.75 3.3 3.153 4.37 4.02a62.873 62.873 0 0 1 1.59 1.332s-.53-.512-1.59-1.332c-1.062-.816-2.562-2.156-4.48-3.898-.953-.828-1.921-1.86-2.992-2.989-.527-.511-1.05-1.132-1.597-1.75-.32-.312-.532-.62-.864-.93a4.787 4.787 0 0 1 -.758-1.132 93.442 93.442 0 0 1 -4.3-11.149c-1.442-4.19-2.88-8.652-4.45-13.44-1.558-4.79-3.152-9.802-4.68-15.009-3.241-10.43-6.69-21.59-10.359-32.64-1.89-5.512-3.66-11.04-5.863-16.36a37.921 37.921 0 0 0 -1.75-3.851c-.207-.301-.316-.508-.527-.828a5.728 5.728 0 0 1 -.653-.82l-1.359-1.653c-1.82-2.168-3.64-4.188-5.36-6.29-7.077-8.25-16.14-15.288-21.82-21.89-11.27-13.129-17.418-19.969-17.418-19.969zm116.778 104.668c1.86 9.512 5.242 22.723 7.11 30.243.46 1.879.91 3.75 1.472 5.418.25.84.597 1.64 1.05 2.39.438.73.868 1.352 1.297 2.102 1.633 2.687 2.82 5.238 3.91 7.16 2.102 3.95 3.153 6.289 3.153 6.289s-.992-2.398-2.95-6.45a144.43 144.43 0 0 0 -3.702-7.28c-.43-.622-.868-1.34-1.297-2.098a5.79 5.79 0 0 1 -.992-2.293c-.45-1.77-.899-3.54-1.348-5.43-1.723-7.62-5.602-27.258-7.453-36.777zm0 0"/></g><g clip-path="url(#F)" mask="url(#E)"><path d="m294.738 139.59c1.711 10.129 5.242 23.762 8.172 37.16 2.852 11.469 4.66 7.86 4.66 7.86 1.711-6.41 2.98-9.622 2.399-18 .351-11.532-4.57-17.579-1.278-32.5 3.29-14.919 12.02-27.43 10.13-46.919-1.891-19.492 2.929-35.48 4.827-44.351.954-4.418 4.532-8.84 7.864-12.14-3.383 1.87-6.543 5.14-9.024 10.28-4.828 10.07-11.968 52.989-13.867 58.18-5.66 15.55-11.43 33.8-13.883 40.43zm-115.707 45.61c-1.543-2.098-3.941-9.24-4.46-11.86 4.519 8.57 12.699 22.082 15.577 16.68 3.84-7.141-.34-17.348-3.968-25.899-1.29-3.062-2.52-5.922-3.282-8.39-.648-1.981-1.207-4-1.726-6.02-1.434-5.633-2.524-11.43-3.871-17.121a89.152 89.152 0 0 0 -4.461-14.559c-4.719-11.453-12.98-21.37-19.05-32.05l-.24-.243c-6.84-11.527-25.34-24.277-31.46-35.968a11.518 11.518 0 0 1 -.77-8.47 70.537 70.537 0 0 0 9.57 16.872c7.051 9.367 20.622 14.68 20.622 14.68 0 3.148 23.758 37.207 23.816 40.886.063 3.684 21.192 67.98 21.25 71.551 0 3.04 1.723 13.633-.207 17.2-3.601.671-9.812-7.598-17.34-17.29zm-61.75 97.378c.43.41 11.43-11.527 11.36-15.52-.07-3.98-4.09-22.886-4.192-28.546-.07-.91-.187-1.82-.37-2.723v2.512c-.829.23-13.63-21.45-14.169-23.43-1.68-5.742.809-13.121-.57-19.281-1.488-6.79-2.781-13.79-4.79-20.469-2.89-9.59-9.222-22.582-18.07-29.871l-.94-.29s18.23 27.868 19.788 43.58c1.55 15.71 2.852 23.75 0 23.8-2.848.05-8.008 3.398-8.008 3.398s9.239.25 10.489 2.64c1.25 2.392 8.39 14.313 8.39 15.993s7.012 10.777 6.692 15.61c-.04 4.699-1.34 24.87-5.61 32.597zm-61.793-58.578s6.39-.64 9.063-3.422c0-.058-.961 5.313-9.063 3.422zm2.383-13.031s6.367-1.16 6.45 2.61c-.41.542-6.45-2.61-6.45-2.61zm0 0"/><path d="m99.82 143.262c4.508 9.09 10.57 23.629 15.73 37.226 6.79 17.973 12.13 34.602 11.47 37.563-1.16 5.238-2.508 17.82-2.508 17.82a21.19 21.19 0 0 1 -.461-2.101l-.102-.22c-3.148-52.109-41.008-109.171-62.48-153.37-.278-.551-.528-1.102-.797-1.649-1.781-6.8-3.39-13.11-4.672-18.09a1.038 1.038 0 0 1 0-.27c3.148 6.29 5.48 13.208 8.262 19.84 1.047 2.4 7.148 13.25 13.828 25.77 6.68 12.528 16.469 26.79 21.73 37.48zm78.27-100.66c.148-2.48.558-4.942 1.23-7.34h.121c2.309 8.687 22.258 26.5 24.84 29.36 3.309 3.706 13.77 14.05 21.469 22.019 7.71 7.968 13.629 17.66 14.871 25.71 1.2 7.84 10.899 55.727 23.14 81.93a67.717 67.717 0 0 1 -6.632-6.8c-4.399-5.243-26.36-87.032-32.27-94.52 0 0-11.27-13.36-14.34-16.332-3.07-2.969-21.519-21.34-24.89-25.86a110.507 110.507 0 0 0 -7.54-8.167zm0 0"/></g><g clip-path="url(#I)" mask="url(#G)"><path d="m302.91 176.75 38.238 6.672c.692-14.524 2.23-29.363 2.23-29.363 8.653-41.07 5.981-38.73 8.513-58.329 0 0 1.93-41.21 3.058-53.109 1.13-11.902-22.02-23.43-32.5-1.601-4.828 10.07-11.969 52.992-13.87 58.18-5.657 15.55-11.438 33.8-13.88 40.429zm0 0" fill="url(#H)"/></g></svg>