<svg viewBox="0 0 410 510" xmlns="http://www.w3.org/2000/svg" xmlns:xlink="http://www.w3.org/1999/xlink"><filter id="a" height="100%" width="100%" x="0%" y="0%"><feColorMatrix in="SourceGraphic" values="0 0 0 0 1 0 0 0 0 1 0 0 0 0 1 0 0 0 1 0"/></filter><mask id="b"><g filter="url(#a)"><path d="m0 0h410v510h-410z" fill-opacity=".851"/></g></mask><linearGradient id="c" gradientUnits="userSpaceOnUse" x1="205" x2="205" y1="482.402" y2="27.598"><stop offset="0" stop-color="#fff" stop-opacity="0"/><stop offset=".427" stop-color="#d0b5b3"/><stop offset="1" stop-color="#d0b5b3"/></linearGradient><clipPath id="d"><path d="m0 0h410v510h-410z"/></clipPath><mask id="e"><g filter="url(#a)"><path d="m0 0h410v510h-410z" fill-opacity=".502"/></g></mask><clipPath id="f"><path d="m0 0h410v510h-410z"/></clipPath><mask id="g"><g filter="url(#a)"><path d="m0 0h410v510h-410z" fill-opacity=".502"/></g></mask><clipPath id="h"><path d="m0 0h410v510h-410z"/></clipPath><mask id="i"><g filter="url(#a)"><path d="m0 0h410v510h-410z" fill-opacity=".502"/></g></mask><clipPath id="j"><path d="m0 0h410v510h-410z"/></clipPath><mask id="k"><g filter="url(#a)"><path d="m0 0h410v510h-410z" fill-opacity=".502"/></g></mask><clipPath id="l"><path d="m0 0h410v510h-410z"/></clipPath><mask id="m"><g filter="url(#a)"><path d="m0 0h410v510h-410z" fill-opacity=".502"/></g></mask><clipPath id="n"><path d="m0 0h410v510h-410z"/></clipPath><mask id="o"><g filter="url(#a)"><path d="m0 0h410v510h-410z" fill-opacity=".302"/></g></mask><clipPath id="p"><path d="m0 0h410v510h-410z"/></clipPath><mask id="q"><g filter="url(#a)"><path d="m0 0h410v510h-410z" fill-opacity=".302"/></g></mask><clipPath id="r"><path d="m0 0h410v510h-410z"/></clipPath><mask id="s"><g filter="url(#a)"><path d="m0 0h410v510h-410z" fill-opacity=".302"/></g></mask><clipPath id="t"><path d="m0 0h410v510h-410z"/></clipPath><mask id="u"><g filter="url(#a)"><path d="m0 0h410v510h-410z" fill-opacity=".302"/></g></mask><clipPath id="v"><path d="m0 0h410v510h-410z"/></clipPath><mask id="w"><g filter="url(#a)"><path d="m0 0h410v510h-410z" fill-opacity=".302"/></g></mask><clipPath id="x"><path d="m0 0h410v510h-410z"/></clipPath><mask id="y"><g filter="url(#a)"><path d="m0 0h410v510h-410z" fill-opacity=".102"/></g></mask><clipPath id="z"><path d="m0 0h410v510h-410z"/></clipPath><mask id="A"><g filter="url(#a)"><path d="m0 0h410v510h-410z" fill-opacity=".102"/></g></mask><clipPath id="B"><path d="m0 0h410v510h-410z"/></clipPath><mask id="C"><g filter="url(#a)"><path d="m0 0h410v510h-410z" fill-opacity=".102"/></g></mask><clipPath id="D"><path d="m0 0h410v510h-410z"/></clipPath><mask id="E"><g filter="url(#a)"><path d="m0 0h410v510h-410z" fill-opacity=".102"/></g></mask><clipPath id="F"><path d="m0 0h410v510h-410z"/></clipPath><mask id="G"><g filter="url(#a)"><path d="m0 0h410v510h-410z" fill-opacity=".102"/></g></mask><clipPath id="H"><path d="m0 0h410v510h-410z"/></clipPath><mask id="I"><g filter="url(#a)"><path d="m0 0h410v510h-410z" fill-opacity=".302"/></g></mask><clipPath id="J"><path d="m0 0h410v510h-410z"/></clipPath><mask id="K"><g filter="url(#a)"><path d="m0 0h410v510h-410z" fill-opacity=".302"/></g></mask><clipPath id="L"><path d="m0 0h410v510h-410z"/></clipPath><mask id="M"><g filter="url(#a)"><path d="m0 0h410v510h-410z" fill-opacity=".502"/></g></mask><linearGradient id="N" gradientTransform="matrix(-3.1362 0 0 3.1362 -4089.002 -8039.61)" gradientUnits="userSpaceOnUse" x1="-1388.979" x2="-1399.477" y1="2636.088" y2="2576.576"><stop offset=".13" stop-color="#00afd1" stop-opacity="0"/><stop offset=".64" stop-color="#0074d1"/></linearGradient><clipPath id="O"><path d="m0 0h410v510h-410z"/></clipPath><g clip-path="url(#d)" mask="url(#b)"><path d="m272.379 36.68c-3.66-4.47-20.32-6.301-24.688-2.54-5.082 4.47-9.96 11.989-15.75 15.04-1.832-22.758-23.171-28.758-38.41-11.989-3.05 3.457-15.14 21.04-20.12 20.43-1.52-.2-4.27-6-5.79-7.11a16.014 16.014 0 0 0 -15.351-2.132c-9.758 4.062-15.551 16.36-20.32 25.101-6.712 12.192-12.4 25-18.802 37.301-4.976 9.45-13.109 19.309-15.75 29.668-3.347 13.723-6.707 27.54-9.859 41.262-11.61 50.39-26.238 101.508-25.828 153.64.219 12 1.11 23.97 2.64 35.868 1.52 12.91 7.72 28.66 6.098 41.36-1.418 11.69-7.62 22.26-10.77 33.542-1.73 6.098-.1 33.84-4.667 36.277h152.128c7.109 0 6.3-2.437 8.738-8.636 2.851-7.422 5.281-14.942 8.23-22.364 10.47-26.828 32.52-41.359 49.59-63.109 8.942-11.379 17.281-23.27 25.512-35.059 8.43-12.09 20.219-25.101 25.41-38.921 4.57-12.188 4.27-25.707 9.149-37.797 5.492-13.621 10.57-27.242 17.582-40.14 7.32-13.622 2.027-22.974-1.73-36.692-3.763-13.72-2.032-25.41-.513-39.328 1.32-12.192-6.609-19.922-19.308-14.84-12.09 4.879-20.32 21.648-23.68 33.43-1.832 6.5-2.95 13.308-4.27 19.917-1.222 6 1.32 13.11-.203 18.7-.507 1.93-12.597 23.171-13.308 22.972 0-51.73 31.3-97.761 44-146.851 4.37-16.97 8.64-54.782-21.14-48.371-24.09 5.18-26.122 43.293-37.5 60.16-6 8.84-12.09 16.062-16.259 26.12-5.59 13.52-10.98 27.032-16.363 40.552-1.316 3.347-13.719 29.27-17.578 22.359-5.18-9.25 3.66-24.191 6.398-33.129 3.563-11.89 4.473-25.101 9.043-36.691 4.368-11.18 12.188-20.93 17.887-31.399 6.203-11.383 14.23-21.75 20.024-33.332 3.93-7.84 3.418-17.18-4.473-23.27zm0 0" fill="url(#c)"/></g><g clip-path="url(#f)" mask="url(#e)"><path d="m330.82 62.05c1.93-7.519-1.832-15.241-11.992-16.46-6.36-.809-11.316 2.601-14.77 6.531-.058.02-.109.05-.167.07-3.66 4.27-5.493 9.348-4.98 10.16.23.34.55.618.91.81 1.32.64 3.85.41 9.148.41 4.71.1 11.203 2.667 14.98 4.398.02.062.04.11.063.172 1.726.71 2.847 1.32 2.847 1.32l.2-.3a17.96 17.96 0 0 0 3.66-7.11" fill="#fff" stroke="#000" stroke-width=".25"/></g><g clip-path="url(#h)" mask="url(#g)"><path d="m267.672 49.36c1.867.378 3.789.48 5.687.3.43-.18.79-.5 1.02-.91-.008-.05-.02-.11-.027-.172a9.307 9.307 0 0 0 .738-4.098c-5.488-15.03-18.09-11.27-21.95-10.87-1.32.199-2.949 1.628-4.57 3.562m-.011.098c-2.95 3.46-5.387 8.539-4.98 8.84.41.3 1.12.1 2.343 0 .098-.04.187-.07.289-.11 3.05-.219 6.11.059 9.059.82a116.104 116.104 0 0 0 12.402 2.54" fill="#fff" stroke="#000" stroke-width=".25"/></g><g clip-path="url(#j)" mask="url(#i)"><path d="m195.05 45.93c-.19.46-.32.941-.41 1.422.2.609.2.41 2.848.097 2.032-.199 4.98 1.93 9.762 2.852a.975.975 0 0 0 -.07-.102c1.73.313 3.492.41 5.25.301 5.492-.3 9.25-4.57 10.98-7.012-.012-.027-.012-.078-.02-.117.66-.95 1.04-1.61 1.04-1.61-2.032-18.6-14.84-13.21-20.02-10.773l-.91.614c-3.96 2.738-7.422 10.867-8.54 14.226m8.52-14.226" fill="#fff" stroke="#000" stroke-width=".25"/></g><g clip-path="url(#l)" mask="url(#k)"><path d="m150.7 55.469c-5.231-1.11-9.47 8.851-9.75 12.402h-.009v.61c.41 2.75 13.547 3.769 15.45 3.05.097 0 .199-.101.3-.101-.113-.168-.23-.36-.37-.551.167.223.327.441.468.652 1.93-1.02 4.371-7.222 4.371-7.222 1.63-2.75-4.87-7.73-10.46-8.84zm0 0" fill="#fff" stroke="#000" stroke-width=".25"/></g><g clip-path="url(#n)" mask="url(#m)"><path d="m349.05 155.578c.098-3.348-.3-3.758-.91-3.957-.609-.2 0 .91-5.18 5.39-4.831 3.06-7.722 8.317-8.75 13.817-.1.172-.198.352-.3.512a25.965 25.965 0 0 0 -.2 7.422c.911 8.027 13.009 8.027 13.009 8.027.511-1.02 1.73-23.07 2.34-28.758.03-.8-.008-1.61-.098-2.402a.409.409 0 0 1 .09-.05zm0 0" fill="#fff" stroke="#000" stroke-width=".25"/></g><g clip-path="url(#p)" mask="url(#o)"><path d="m287.281 146.52a32.827 32.827 0 0 0 5.278 1.832c-11.79-1.122-22.66-10.872-30.18-19.313a72.88 72.88 0 0 1 3.05 2.54c6.09 6.202 13.622 12.401 21.852 14.94zm11.278-6.399 5.082 1.52c-8.942-1.02-20.832-4.371-27.54-10.371 1.22.71 2.438 1.32 3.66 1.93 5.29 3.359 12.4 5.698 18.798 6.921zm.921-8.93a60.201 60.201 0 0 1 4.168 2.637c-9.648-4.879-20.628-7.316-30.687-11.476 1.629.296 3.25.707 4.98 1.117 7.008 2.64 14.528 4.672 21.54 7.722zm8.63-6.519c1.32.808 2.538 1.629 3.761 2.437-9.152-3.757-18.293-9.148-28.152-10.98 1.601-.02 3.203.121 4.781.41 6.809 1.93 13.21 5.29 19.61 8.133zm-3.051-49.891c5.28 1.52 10.472 4.367 15.453 6.707 1.218.813 2.34 1.524 3.347 2.34-7.62-3.25-15.55-8.43-23.98-9.348 1.73-.109 3.473-.011 5.18.301zm0 0"/></g><g clip-path="url(#r)" mask="url(#q)"><path d="m211.98 122.04a36.58 36.58 0 0 0 4.57-.712c-8.84 4.063-20.019 1.524-28.152-3.148 1.32.41 2.743.91 4.172 1.218 6.102 2.641 13.11 4.082 19.41 2.641zm5.18-11.18a52.591 52.591 0 0 1 4.168 1.73c-9.039-1.828-18.289-4.88-27.539-5.18a24.36 24.36 0 0 1 4.672-.41c6.2.602 12.5 2.43 18.7 3.86zm-9.039 6.6c1.219.099 2.54.2 3.758.2-7.219 1.93-15.55-1.32-21.848-4.672l3.348.91c4.582 2.141 9.762 3.762 14.742 3.563zm-.211-15.32c5.692 1.32 11.281 3.15 16.969 4.57 1.32.509 2.543 1.118 3.762 1.63-8.23-1.73-16.16-4.668-24.493-6.2a23.26 23.26 0 0 1 3.762 0zm37.031-38.75c1.118.2 2.34.41 3.457.712-6.707.296-14.02-.102-20.32-2.641l3.352.3c4.398 1.16 8.949 1.7 13.511 1.63zm12.188-3.93 2.742 1.52c-6.2-1.628-12.09-4.37-18.191-6.199 1.02 0 2.03.098 3.05.2 4.04 1.43 8.2 3.128 12.399 4.48zm0 0"/></g><g clip-path="url(#t)" mask="url(#s)"><path d="m151.602 128.14h3.558a31.598 31.598 0 0 1 -20.32-1.019l3.351.3a31.346 31.346 0 0 0 13.41.72zm2.448-11.769c1.122.41 2.24.91 3.25 1.32-6.3-.812-13.01-3.351-19.312-2.03a13.69 13.69 0 0 1 3.461-1.122c4.172-.027 8.442.992 12.602 1.832zm-4.062 6.777 2.64.301c-5.179 1.422-11.179.2-16.16-1.52.923-.019 1.833.02 2.743.102a30.008 30.008 0 0 0 10.777 1.117zm48.274-62.91c1.117.41 2.238.813 3.25 1.223-6.5-.711-14.024-2.242-19.313-6.2.91.298 1.73.61 2.64.91a41.109 41.109 0 0 0 13.423 4.067zm0 0"/></g><g clip-path="url(#v)" mask="url(#u)"><path d="m110.05 147.738c.81 0 1.63.102 2.438.102a29.089 29.089 0 0 1 -13.52 1.02c.813-.2 1.634-.301 2.442-.508 2.89.308 5.82.097 8.64-.614zm1.759-5.788c.921.19 1.84.429 2.742.71-5.082.2-10.063-.41-15.14 0 .839-.41 1.73-.71 2.64-.91 3.328-.11 6.578.2 9.758.2zm1.703-6.7c.886.14 1.777.352 2.636.61-4.878.199-9.648.812-14.527.511.828-.281 1.68-.52 2.54-.71 3.148.089 6.19-.212 9.35-.411zm33.429-55.602c.848-.02 1.7.012 2.54.102-4.372 1.422-9.961 1.93-13.012-1.52.562.282 1.133.52 1.73.711 2.442 1.32 5.692 1.32 8.742.707zm0 0"/></g><g clip-path="url(#x)" mask="url(#w)"><path d="m231.89 49.3s-1.831 2.13-5.081 5.891c-3.25 3.758-7.829 9.04-13.309 15.547-5.488 6.5-11.89 13.922-18.602 22.153-1.726 2.03-3.347 4.058-5.078 6.199l-1.32 1.629c-.2.3-.41.511-.61.812l-.609.91a27.13 27.13 0 0 0 -1.73 3.86c-2.031 5.18-3.762 10.57-5.39 15.96a1721.513 1721.513 0 0 0 -9.25 31.81c-2.852 10.16-5.49 19.718-8.032 27.738a86.524 86.524 0 0 1 -3.758 10.87c-.172.36-.383.7-.61 1.02-.3.301-.511.61-.812.91-.508.61-1.02 1.22-1.52 1.73a39.09 39.09 0 0 1 -2.85 2.95 100.442 100.442 0 0 1 -4.169 3.961c-1.02.91-1.52 1.32-1.52 1.32s.508-.511 1.52-1.32c1.02-.809 2.442-2.129 4.27-3.86 1-.93 1.949-1.91 2.851-2.949.508-.511 1.02-1.12 1.52-1.73.3-.3.508-.61.808-.91.301-.332.54-.711.711-1.121a85.863 85.863 0 0 0 3.961-10.871c1.32-4.07 2.64-8.43 4.059-13.11a652.146 652.146 0 0 0 4.27-14.629c2.949-10.16 6.1-21.039 9.449-31.808 1.73-5.39 3.351-10.774 5.39-15.961.512-1.32 1.02-2.54 1.63-3.762.202-.3.3-.508.51-.809.22-.261.43-.53.61-.808l1.32-1.633c1.731-2.129 3.461-4.168 5.083-6.2 6.707-8.128 13.007-15.75 18.386-22.26 10.692-12.919 17.903-21.529 17.903-21.529zm-58.218 8.4s-1.422 2.03-4.07 5.59c-2.641 3.562-6.301 8.64-10.672 14.741-2.239 3.047-4.668 6.297-7.32 9.649-.61.808-1.32 1.73-2.032 2.539-.707.812-1.52 1.633-2.238 2.441-1.52 1.73-2.852 3.559-4.27 5.488-2.851 3.762-5.59 7.723-8.332 11.891-.707 1.02-1.316 2.133-1.93 3.152-.5 1.188-.91 2.41-1.218 3.66-.61 2.438-1.121 4.88-1.63 7.32-1.929 9.86-3.562 19.72-5.179 29.06-1.633 9.347-3.05 17.89-4.57 25.3-.41 1.828-.813 3.559-1.223 5.278-.129.8-.449 1.57-.91 2.242-.406.71-.808 1.418-1.219 2.027a153.456 153.456 0 0 0 -3.46 7.113c-1.829 3.957-2.739 6.297-2.739 6.297s1.02-2.34 2.95-6.199c1.019-1.93 2.128-4.367 3.66-7.008.41-.71.808-1.32 1.218-2.031.442-.73.793-1.52 1.024-2.34.508-1.629.91-3.46 1.316-5.281 1.633-7.32 3.25-15.957 4.883-25.2 1.629-9.25 3.348-19.109 5.277-28.96l1.524-7.32c.25-1.188.629-2.34 1.117-3.458.61-1.02 1.223-2.132 1.93-3.152 2.64-4.168 5.492-8.129 8.23-11.89a135.144 135.144 0 0 1 4.27-5.489c.71-.91 1.421-1.629 2.242-2.539.808-.91 1.418-1.73 2.027-2.543 2.64-3.457 4.98-6.707 7.223-9.86 4.37-6.097 7.93-11.277 10.37-14.937 2.43-3.652 3.75-5.582 3.75-5.582zm0 0"/></g><g clip-path="url(#z)" mask="url(#y)"><path d="m158.559 193.68a66.395 66.395 0 0 1 -6.297 6.71c11.379-25.609 17.988-76.62 19-84.25 1.02-7.831 6.199-13.011 13.52-20.831 7.32-7.829 11.988-18.188 15.14-21.848 2.437-2.852 25.098-24.691 31.2-28.66.308 1.437.519 2.898.608 4.37 0 0-37.91 45.02-43.601 52.34-5.688 7.31-25.438 87.009-29.57 92.169zm0 0"/></g><g clip-path="url(#B)" mask="url(#A)"><path d="m119.5 140.828c.41-8.226 13.309-26.93 13.309-26.93a.36.36 0 0 0 .101.204c-2.238 5.789-8.23 44.308-11.89 62.5-.91 2.34-1.418 3.66-1.418 3.66 1.117-4.774-.524-31.301-.102-39.434zm0 0"/></g><g clip-path="url(#D)" mask="url(#C)"><path d="m217.66 207.191c-1.93-3.46-.512-13.722-.512-16.671 0-3.461 19.313-66.16 19.313-69.711 0-3.547 22.36-36.989 22.36-40.04 0-2.44 13.519-19.109 20.12-26.628a22.415 22.415 0 0 1 -2.132 6.097c-5.79 11.59-13.82 22.051-20.02 33.332-5.687 10.47-13.52 20.22-17.89 31.399-4.57 11.59-5.387 24.691-9.04 36.691-2.64 8.942-11.48 23.88-6.398 33.13 2.848 5.179 10.57-8.231 14.84-16.56-.301 2.239-2.64 9.758-4.172 11.891-7.11 9.578-13 17.707-16.469 17.07zm0 0"/></g><g clip-path="url(#F)" mask="url(#E)"><path d="m288.3 236.16c-.1.68-.23 1.36-.41 2.031 0 0-1.519-12.09-2.742-17.171-1.218-5.079 15.243-52.34 25-72.97 9.762-20.628 22.66-63.62 22.66-68.698 0-3.051 1.122-10.473 2.032-15.852 1.422 10.371-.61 22.66-2.64 30.488-12.302 47.453-42.169 92.274-43.9 142.172zm0 0"/></g><g clip-path="url(#H)" mask="url(#G)"><path d="m295.75 283.41c-.41.41-11.281-10.98-11.281-14.84s3.562-22.261 3.562-27.742c.047-.887.149-1.77.297-2.637v2.438c.813.2 12.8-21.04 13.313-22.969 1.52-5.59-1.02-12.7.199-18.7 1.32-6.608 2.441-13.41 4.27-19.92 2.64-9.349 8.538-22.052 16.968-29.27l.91-.301s-17.168 27.34-18.386 42.582c-1.223 15.238-2.34 23.07.41 23.07 2.738 0 7.828 3.149 7.828 3.149s-8.942.41-10.16 2.742c-1.22 2.34-7.828 14.02-7.828 15.648 0 1.63-6.614 10.57-6.204 15.238.16 4.582 1.801 24.09 6.102 31.512zm0 0"/></g><g clip-path="url(#J)" mask="url(#I)"><path d="m354.559 225.488s-6.2-.508-8.84-3.148c-.008-.012 1 5.18 8.84 3.148zm0 0"/></g><g clip-path="url(#L)" mask="url(#K)"><path d="m352.02 212.988s-6.2-1.02-6.2 2.64c.41.513 6.2-2.64 6.2-2.64zm0 0"/></g><g clip-path="url(#O)" mask="url(#M)"><path d="m233.219 187.172c.203-.203.3-.512.511-.711.2-.2.098-.2.2-.3.199-.302.3-.61.511-.911 0-.102.098-.102.098-.2.2-.3.41-.71.61-1.019.101-.101.101-.203.203-.3.16-.22.296-.461.41-.711a.985.985 0 0 1 .199-.301c.098-.297.3-.508.41-.809a.345.345 0 0 1 .098-.2c.203-.3.3-.71.511-1.019.098-.101.098-.203.2-.3.12-.23.218-.47.3-.711.098-.102.098-.2.2-.41.101-.2.199-.508.3-.711.098-.2.098-.2.098-.297 1.422-2.742 2.442-4.98 2.742-5.793 5.39-13.52 10.77-27.028 16.36-40.547 4.172-10.063 10.261-17.281 16.261-26.121 11.079-16.461 13.309-53.153 35.77-59.762 2.7-1.469 5.789-2.07 8.84-1.73 2.18.191 4.289.851 6.199 1.93 6.398 2.741 9.352 9.452 10.371 17.28v.102c.098.61.098 1.117.2 1.73v.2c.09.61.12 1.219.1 1.828v.101c.099 1.32.099 2.641.099 3.961v.098c.02.61-.008 1.223-.098 1.832v.2c0 .609-.102 1.218-.102 1.827v.204c0 .609-.101 1.218-.101 1.828v.199c-.098.61-.098 1.223-.2 1.832v.2c-.097.609-.097 1.218-.199 1.827l-.3 1.832v.102c-.098.61-.2 1.219-.301 1.726v.204c-.098.507-.2 1.117-.297 1.628v.2l-.3 1.52v.198l-.302 1.524v.2c-.101.507-.199 1.019-.3 1.417v.102c-.098.507-.2 1.02-.301 1.418l-1.219 4.57c-.102.512-.3 1.02-.41 1.52l-.91 3.05-.61 1.832c-.3.91-.511 1.828-.808 2.64-.203.61-.41 1.22-.614 1.93-.199.708-.578 1.68-.808 2.54-.192.66-.418 1.308-.711 1.93-.3.808-.61 1.73-.91 2.538-.2.61-.508 1.32-.707 1.93-.301.813-.614 1.73-.91 2.54-.204.612-.512 1.32-.711 1.933-.29.86-.63 1.707-1.02 2.539-.2.61-.512 1.219-.71 1.828-.302.91-.712 1.73-1.02 2.64-.2.61-.512 1.22-.711 1.833-.301.91-.711 1.828-1.121 2.738a9.688 9.688 0 0 1 -.707 1.629c-.41 1.02-.813 1.93-1.122 2.953-.21.418-.378.867-.511 1.316-.508 1.121-.91 2.34-1.418 3.461-1.52 3.66-2.95 7.32-4.473 10.98-.098.301-.297.712-.406 1.02-.41 1.02-.813 2.13-1.32 3.153-.204.507-.41.91-.614 1.418-.41 1.02-.808 1.93-1.117 2.949-.2.511-.41 1.02-.61 1.633-.41.91-.71 1.828-1.12 2.847-.2.61-.41 1.121-.61 1.73-.3.91-.71 1.833-1.02 2.743a8.415 8.415 0 0 1 -.71 1.726c-.301.91-.711 1.832-1.02 2.641l-.61 1.832c-.3.91-.612 1.73-.91 2.64l-.613 1.829c-.296.91-.609 1.73-.91 2.64l-.61 1.829c-.32.863-.577 1.75-.808 2.64-.199.61-.41 1.223-.61 1.93-.3.91-.51 1.73-.812 2.64-.226.63-.386 1.27-.507 1.93-.2.91-.512 1.73-.711 2.64-.2.61-.301 1.321-.508 1.93-.203.91-.512 1.731-.711 2.641-.2.61-.3 1.32-.512 1.93-.199.91-.41 1.73-.61 2.64-.1.61-.3 1.32-.41 1.93-.199.91-.41 1.828-.507 2.64-.082.65-.223 1.302-.41 1.93-.203.91-.301 1.829-.512 2.739-.102.61-.2 1.32-.3 1.93-.098.91-.302 1.831-.41 2.742-.11.64-.18 1.28-.2 1.93l-.3 2.738c-.099.613-.099 1.222-.2 1.832-.11.949-.18 1.89-.2 2.847v.203c-9.35-8.132-43.09-36.992-56.1-42.992.23-.32.44-.66.608-1.02-.027-.05.07-.16.07-.257zm0 0" fill="url(#N)"/></g></svg>