<svg xmlns="http://www.w3.org/2000/svg" xmlns:xlink="http://www.w3.org/1999/xlink" viewBox="0 0 410 510"><defs><filter id="a" width="100%" height="100%" x="0%" y="0%" filterUnits="objectBoundingBox"><feColorMatrix in="SourceGraphic" values="0 0 0 0 1 0 0 0 0 1 0 0 0 0 1 0 0 0 1 0"/></filter><mask id="q"><g filter="url(#a)"><path fill-opacity=".851" d="M0 0h410v510H0z"/></g></mask><linearGradient id="c" x1="204.403" x2="204.403" y1="465.209" y2="44.791" gradientUnits="userSpaceOnUse"><stop offset="0" stop-color="#fff" stop-opacity="0"/><stop offset=".427" stop-color="#d0b5b3"/><stop offset="1" stop-color="#d0b5b3"/></linearGradient><clipPath id="b"><path d="M0 0h410v510H0z"/></clipPath><g id="p" clip-path="url(#b)"><path fill="url(#c)" d="M66.871 257.84c-2.242-29.7 3.918-42.59 11.207-52.68 7.293-10.09 8.41-15.691 8.41-15.691-4.476-19.617-6.16-51.559-5.597-59.41.558-7.848-2.243-27.457-.563-40.91 1.684-13.45 9.531-27.458 9.531-27.458-.558-3.921 5.602-12.89 18.493-12.89 12.886 0 14.007 10.09 14.007 10.09 5.602 2.8 5.602 11.21 7.29 22.98 1.68 11.77 14.98 90.258 18.32 105.93 4.48 20.87 7.582 21.16 8.41 19.25.832-1.922-2.238-23.352-5.04-46.153a2464.79 2464.79 0 0 0-3.179-24.847c-1.59-12.04-6.91-57.54-6.91-57.54-1.871-24.292 1.988-31.902 19.988-33.632 13.64-1.309 21.114 14.57 21.114 14.57 5.039 8.973 12.148 33.262 18.488 59.781 5 20.872 16.808 89.301 16.808 89.301s-8.41-73.422-11.207-87.43c-2.8-14.011-10.55-32.23-12.23-40.632-1.68-8.41-2.05-16.278 1.398-22.14 4.48-7.567 13.282-10.438 21.02-8.97 5.89 1.121 11.14 6.141 14.473 10.09 4.02 4.762 10.84 15.973 15.226 25.5 5.063 10.992 4.942 8.13 16.152 39.512 11.211 31.39 14.008 86.867 14.008 93.598 0 6.73 14.762-3.168 16.25-13.637 1.59-11.102 5.043-24.844 6.73-28.762 1.68-3.922 0-29.531 0-29.531-6.16-11.207-7.847-32.129-4.48-41.469 5.602-15.582 22.98-16.62 25.782-3.172 2.8 13.453 10.652 23.543 14.57 37.551 3.922 14.012 4.3 22.422 6.55 38.11 2.239 15.69-3.18 36.8-7.671 53.05-4.489 16.25-3.36 25.973-3.918 42.781-.563 16.81-8.973 41.47-10.09 64.45-1.121 22.98-7.852 50.441-6.16 75.101 1.68 24.66 20.738 52.117 20.738 52.117l-191.117.563s-17.371-23.54-30.82-44.281c-13.454-20.739-19.32-40.52-26.34-53.239-9.532-17.18-18.692-39.98-19.25-54.55-.582-14.582 1.86-25.602-.39-55.301zm0 0"/></g><mask id="s"><g filter="url(#a)"><path fill-opacity=".502" d="M0 0h410v510H0z"/></g></mask><clipPath id="d"><path d="M0 0h410v510H0z"/></clipPath><g id="r" clip-path="url(#d)"><path fill="#fff" stroke="#000" stroke-width=".25" d="M122 58.422c-.031-.031-.09-.242-.129-.274-2.64-4.867-5.96-8.277-12.77-8.609-10.831-.617-18.722 5.23-18.492 13.633l.082.047c0 2.722-1.05 5.48.309 8.222l.148.36s1.301-.442 3.262-.871c.149-.078.3-.11.238-.09 4.34-1.121 11.551-2.762 16.5-1.98 5.442 1 8.032 1.69 9.543 1.288.43-.136.809-.367 1.118-.699.722-.789 2.972-5.789.191-11.027zm0 0"/></g><mask id="u"><g filter="url(#a)"><path fill-opacity=".502" d="M0 0h410v510H0z"/></g></mask><clipPath id="e"><path d="M0 0h410v510H0z"/></clipPath><g id="t" clip-path="url(#e)"><path fill="#fff" stroke="#000" stroke-width=".25" d="M175.46 50.941c-1.66-2.312-3.358-4.02-4.82-4.34-4.28-.671-19.66-6.03-26.98 10.958 0 0-.2.71.5 2.492-.02.058.13.187.121.238.36.602.207 2.172 3.309 1.8.031-.019.46-.07.488-.077 4.094-.364 14.313.718 19.121-.332 3.301-.711 6.68-.871 10.031-.48.16.07.45.062.598.14 1.344.18 2 .539 2.473.21.469-.34-1.832-6.472-4.84-10.609"/></g><mask id="w"><g filter="url(#a)"><path fill-opacity=".502" d="M0 0h410v510H0z"/></g></mask><clipPath id="f"><path d="M0 0h410v510H0z"/></clipPath><g id="v" clip-path="url(#f)"><path fill="#fff" stroke="#000" stroke-width=".25" d="M220.2 53.96l-.84-.69c-4.801-2.79-18.731-9.52-20.489 9.949 0 0 .328.71.879 1.75-.012.043.059.101.059.14 1.191 2.832 1.832 6.77 7.14 7.422 1.723.219 3.45.219 5.172 0 0 0 9.61-2.101 11.758-2.18 2.14-.09 6.691 1.938 5.332-2.78-1.012-3.5-5.422-10.5-9.031-13.602"/></g><mask id="y"><g filter="url(#a)"><path fill-opacity=".502" d="M0 0h410v510H0z"/></g></mask><clipPath id="g"><path d="M0 0h410v510H0z"/></clipPath><g id="x" clip-path="url(#g)"><path fill="#fff" stroke="#000" stroke-width=".25" d="M313.512 94.36c-5.32.87-10.23 3.14-8.973 6.25 0 0 0 9.73 1.742 10.96.02-.03.04-.058.059-.09.082.02.16.11.238.11 1.762.91 14.082.62 14.73-2.36v-.582c.02.012.032.012.051.024.141-3.8-2.84-15.211-7.847-14.313zm0 0"/></g><mask id="A"><g filter="url(#a)"><path fill-opacity=".302" d="M0 0h410v510H0z"/></g></mask><clipPath id="h"><path d="M0 0h410v510H0z"/></clipPath><g id="z" clip-path="url(#h)"><path d="M106.422 165.512c-2.05.308-4.121.449-6.192.418 12.848 2.34 27.32-4.75 37.82-11.442-1.32.551-2.652 1.121-3.991 1.782-8.297 4.69-18.13 9.011-27.637 9.242zm0 0M96.371 155.328c-1.98 0-3.871.07-5.851.094 9.8 1.598 23.43 1.61 32.34-2.75-1.5.387-2.981.668-4.481.95-6.598 1.98-14.848 2.327-22.008 1.706zm0 0M98.078 145.559c-1.758.441-3.539.992-5.207 1.562 11.7-2.242 24.09-1.582 36.02-2.98-1.82-.172-3.672-.22-5.602-.313-8.258.703-16.86.602-25.21 1.73zm0 0M97.59 135.5c-1.649.469-3.18.96-4.73 1.469 10.84-1.258 22.16-4.23 33.18-3.207-1.688-.5-3.43-.84-5.188-1.012-7.82.02-15.622 1.66-23.262 2.75zm0 0M113.5 80.512c-6-.852-12.5-.34-18.57-.242-1.59.261-3.04.468-4.48.832 9.14.18 19.46-1.454 28.359 1.449a24.334 24.334 0 0 0-5.309-2.04zm0 0"/></g><mask id="C"><g filter="url(#a)"><path fill-opacity=".302" d="M0 0h410v510H0z"/></g></mask><clipPath id="i"><path d="M0 0h410v510H0z"/></clipPath><g id="B" clip-path="url(#i)"><path d="M164.93 153.852c-1.89-.32-3.758-.75-5.602-1.293 10.543 5.441 24.66 3.89 35.133-.348-1.68.3-3.492.7-5.281.867-7.782 2.242-16.59 3.031-24.25.774zm0 0M166.672 139.602c-1.8.398-3.621.918-5.32 1.437 11.378-1.008 23.109-3.36 34.578-2.648-1.88-.48-3.801-.813-5.739-.961-7.742-.032-15.71 1.289-23.52 2.172zm0 0M170.172 149.25c-1.524 0-3.172-.059-4.672-.191 8.73 2.93 19.36.27 27.488-2.707l-4.238.628c-5.879 1.829-12.48 3.051-18.578 2.27zm0 0M184.469 129.871c-7.16.82-14.258 2.238-21.43 3.14-1.687.41-3.258.95-4.82 1.38 10.36-1 20.453-3.36 30.902-4.102a30.467 30.467 0 0 0-4.652-.418zm0 0M157.29 72.59l-3.36.8c7.058.13 14.148-1.011 21.16-1.12-1.09-.29-2.192-.52-3.3-.7-4.74.282-9.68.871-14.5 1.02zm0 0"/></g><mask id="E"><g filter="url(#a)"><path fill-opacity=".302" d="M0 0h410v510H0z"/></g></mask><clipPath id="j"><path d="M0 0h410v510H0z"/></clipPath><g id="D" clip-path="url(#j)"><path d="M239.23 149.11l-4.48.1a45.09 45.09 0 0 0 25.93-1.73l-4.27.45a45.205 45.205 0 0 1-17.18 1.18zm0 0M235.86 135.828c-1.41.48-2.82 1.121-4.11 1.594 8.031-1.121 16.52-4.184 24.66-2.852a18.881 18.881 0 0 0-4.48-1.12c-5.36.062-10.79 1.34-16.07 2.378zm0 0M241.2 143.512l-3.36.43c6.66 1.468 14.281-.09 20.59-2.192-1.168 0-2.34.07-3.5.191a43.119 43.119 0 0 1-13.73 1.57zm0 0M219.148 84.012c-1.27.316-2.539.648-3.699 1 7.223-.09 15.692-.953 21.86-4.742-1.028.242-1.957.48-2.989.718a45.567 45.567 0 0 1-15.172 3.024zm0 0"/></g><mask id="G"><g filter="url(#a)"><path fill-opacity=".302" d="M0 0h410v510H0z"/></g></mask><clipPath id="k"><path d="M0 0h410v510H0z"/></clipPath><g id="F" clip-path="url(#k)"><path d="M329.379 195.672c-1.05-.063-2.11 0-3.149-.063a43.468 43.468 0 0 0 17.36 2.04c-1.031-.278-2.07-.45-3.121-.727-3.73.148-7.48-.274-11.09-1.25zm0 0M327.488 189.18c-1.199.14-2.398.332-3.59.59 6.551.57 13 .242 19.543 1.02a17.473 17.473 0 0 0-3.363-1.188c-4.316-.332-8.539-.204-12.59-.422zm0 0M325.64 181.672c-1.16.098-2.3.258-3.44.488 6.28.55 12.41 1.55 18.722 1.55-1.031-.39-2.242-.679-3.242-.96-4.07-.102-7.989-.66-12.04-1.078zm0 0M316.57 122.879c-.93.14-1.84.34-2.75.59 5.02.722 11.211.203 13.84-4.117-.55.418-1.129.796-1.738 1.117-2.453 1.87-5.992 2.5-9.352 2.41zm0 0"/></g><mask id="I"><g filter="url(#a)"><path fill-opacity=".302" d="M0 0h410v510H0z"/></g></mask><clipPath id="l"><path d="M0 0h410v510H0z"/></clipPath><g id="H" clip-path="url(#l)"><path d="M86.488 189.46s.32 1.368.871 3.75c.551 2.392 1.36 5.81 2.243 9.911.468 2.05.949 4.27 1.449 6.617.488 2.352 1.02 4.832 1.488 7.403.473 2.57 1.02 5.23 1.41 7.949.211 1.34.43 2.71.653 4.082.218 1.367.289 2.758.449 4.137.16 1.382.308 2.77.43 4.101.109 1.328.12 2.79.18 4.168.109 2.762.28 5.473.417 8.094.133 2.617.184 5.148.281 7.558.102 2.41.18 4.668.27 6.73l.5 14.009s.121-1.399.293-3.86c.168-2.46.348-5.949.488-10.16 0-2.11.07-4.39.11-6.808.05-2.422.12-4.97 0-7.602-.122-2.629-.11-5.34-.22-8.09 0-1.379-.09-2.77-.152-4.168-.058-1.402-.257-2.82-.386-4.242-.133-1.41-.262-2.84-.5-4.21-.25-1.38-.461-2.77-.703-4.138-.399-2.761-1.047-5.41-1.61-7.992-.558-2.578-1.187-5.039-1.8-7.39-.297-1.118-.61-2.239-.887-3.36-.282-1.12-.633-2.14-.934-3.16-.578-2.02-1.117-3.867-1.687-5.488-.57-1.63-.97-3.051-1.38-4.2-.773-2.32-1.273-3.64-1.273-3.64zm0 0"/></g><mask id="K"><g filter="url(#a)"><path fill-opacity=".102" d="M0 0h410v510H0z"/></g></mask><clipPath id="m"><path d="M0 0h410v510H0z"/></clipPath><g id="J" clip-path="url(#m)"><path d="M81.809 236.309s-2.43 5.261-10.09 1.48c.043 0 6.633.762 10.09-1.48zm0 0M83.48 229.172c-.558.457-5.75-4.082-5.75-4.082s6.72.238 5.75 4.082zm0 0M131.71 107.27s.071-4.73.09-11.872c4.34 26.461 13.45 79.774 16.16 92.391 4.481 20.871 7.58 21.16 8.411 19.25.828-1.918-2.242-23.348-5.043-46.148-1.207-9.86-2.047-16.301-3.18-24.852-1.117-8.25-3.93-32.23-5.597-46.48v-.207s4.86 29.507 6.73 43.328c1.367 10.09 13.078 81.832 8.23 85.191-4.85 3.36-10.472-12.332-13.081-31.39-2.61-19.06-5.149-28.34-7.102-43.333-2.258-17.207-5.617-35.878-5.617-35.878zm0 0M82.54 198.32c3.358-5.75 3.948-8.851 3.948-8.851-3.648-16.02-5.449-40.239-5.68-52.86.84 9.52 2.09 21.73 3.633 31.57 2.989 19.06 14.938 47.083 16.438 70.622 1.5 23.539 2.61 39.597-3.36 47.828-5.968 8.23-5.218 1.492-3.73-5.598 1.492-7.101-2.238-34.75-2.61-43.351-.359-7.86-4.488-32.52-8.64-39.36zm0 0M257.281 110.18c1.41 3.78 3.11 8.43 5.188 14.27.96 2.69 1.86 5.6 2.703 8.562a119.322 119.322 0 0 1-7.89-22.832zm0 0M301.14 191.52c-1.492 10.09-8.968 41.101-16.44 40.73-4.481-.219-6.891-5.46-8.079-13.27 1.418 4.72 14.707-4.671 16.117-14.57 1.59-11.101 5.043-24.84 6.73-28.762 1.68-3.918 0-29.527 0-29.527-5.398-9.82-7.359-27.121-5.488-37.52.57 9.47 1.258 21.5 2.692 27.25 3.36 13.45 10.09 12.329 10.09 12.329s-2.242 2.242-2.992 10.832 5.601 18.316 5.601 18.316-6.73 4.102-8.23 14.192zm0 0M276.48 218.059c-.609-5.16-.878-10.348-.78-15.547.562 7.937.78 13.648.78 15.539zm0 0M215.219 147.43c1.492 14.57 8.781 75.468 6.16 79.582-2.61 4.11-8.79-21.492-12.52-45.032-3.73-23.539-8.25-60.011-11.02-69.03a287.304 287.304 0 0 1-6.73-30.259c3.192 10.5 6.563 23.2 9.73 36.457 5 20.872 16.81 89.301 16.81 89.301s-8.41-73.418-11.208-87.43c-2.332-11.66-8.07-26.199-10.921-35.609a196.78 196.78 0 0 1-1.41-5.531c-.2-1.117-.391-2.238-.57-3.36l-.58-7.03a.892.892 0 0 1 0-.25 15.24 15.24 0 0 1 .188-2.15c.641 5.36 2.723 18.833 8.063 27.532 7.09 11.707 12.5 38.238 14.008 52.809zm0 0"/></g><mask id="M"><g filter="url(#a)"><path fill-opacity=".502" d="M0 0h410v510H0z"/></g></mask><linearGradient id="o" x1="-1625.094" x2="-1627.721" y1="-1677.863" y2="-1635.846" gradientTransform="matrix(-3.1362 0 0 3.1362 -4790.335 5356.145)" gradientUnits="userSpaceOnUse"><stop offset=".36" stop-color="#0074d1"/><stop offset=".87" stop-color="#00afd1" stop-opacity="0"/></linearGradient><clipPath id="n"><path d="M0 0h410v510H0z"/></clipPath><g id="L" clip-path="url(#n)"><path fill="url(#o)" d="M292.738 204.41c1.59-11.101 5.043-24.84 6.73-28.762 1.68-3.918 0-29.527 0-29.527-6.16-11.21-7.847-32.133-4.48-41.473 5.602-15.578 22.98-16.617 25.782-3.168 2.8 13.45 10.652 23.54 14.57 37.551 3.922 14.008 4.3 22.418 6.55 38.11 2.25 15.687-3.18 36.8-7.671 53.05a96.466 96.466 0 0 0-2.75 13.547L283.5 218.121c4.031-2.871 8.41-8.223 9.238-13.71zm0 0"/></g></defs><use mask="url(#q)" xlink:href="#p"/><use mask="url(#s)" xlink:href="#r"/><use mask="url(#u)" xlink:href="#t"/><use mask="url(#w)" xlink:href="#v"/><use mask="url(#y)" xlink:href="#x"/><use mask="url(#A)" xlink:href="#z"/><use mask="url(#C)" xlink:href="#B"/><use mask="url(#E)" xlink:href="#D"/><use mask="url(#G)" xlink:href="#F"/><use mask="url(#I)" xlink:href="#H"/><use mask="url(#K)" xlink:href="#J"/><use mask="url(#M)" xlink:href="#L"/></svg>