<svg xmlns="http://www.w3.org/2000/svg" xmlns:xlink="http://www.w3.org/1999/xlink" viewBox="0 0 410 510"><defs><filter id="a" width="100%" height="100%" x="0%" y="0%" filterUnits="objectBoundingBox"><feColorMatrix in="SourceGraphic" values="0 0 0 0 1 0 0 0 0 1 0 0 0 0 1 0 0 0 1 0"/></filter><mask id="w"><g filter="url(#a)"><path fill-opacity=".851" d="M0 0h410v510H0z"/></g></mask><linearGradient id="c" x1="205" x2="205" y1="478.552" y2="31.448" gradientUnits="userSpaceOnUse"><stop offset="0" stop-color="#fff" stop-opacity="0"/><stop offset=".427" stop-color="#d0b5b3"/><stop offset="1" stop-color="#d0b5b3"/></linearGradient><clipPath id="b"><path d="M0 0h410v510H0z"/></clipPath><g id="v" clip-path="url(#b)"><path fill="url(#c)" d="M347.3 41.879c-23.98-4.629-43.378 37.75-58.269 54.152-7.832 8.59-15.39 15.36-21.75 25.66-8.531 13.86-16.87 27.739-25.222 41.63-1.13 1.898-8.32 12.648-12.688 17.218L219 192.531s-6.191 5.989-7.91 3c-5.102-9.09 3.601-23.781 6.289-32.57 3.5-11.691 4.402-24.68 8.89-36.07 4.301-10.993 11.993-20.582 17.583-30.871 6.09-11.192 13.988-21.38 19.68-32.77 3.898-7.691 3.398-16.879-4.403-22.879-3.598-4.402-19.98-6.191-24.277-2.5-5 4.399-9.793 11.79-15.493 14.79-1.8-22.38-22.78-28.27-37.757-11.79-3 3.399-14.891 20.68-19.782 20.078-1.5-.199-4.199-5.89-5.691-6.988a15.75 15.75 0 0 0-15.09-2.102c-9.59 4-15.289 16.082-19.98 24.68-6.59 11.992-12.188 24.582-18.48 36.66-4.9 9.29-12.888 18.98-15.49 29.172-3.3 13.488-6.589 27.07-9.69 40.559-11.387 49.55-25.778 99.8-25.38 151.05.22 11.79 1.09 23.57 2.602 35.27 1.5 12.691 7.59 28.172 5.988 40.66-1.398 11.488-7.488 21.88-10.59 32.969-1.699 5.992-.097 33.27-4.597 35.672H195c6.988 0 6.191-2.403 8.59-8.492 2.8-7.29 5.2-14.688 8.09-21.98 10.289-26.368 31.968-40.657 48.75-62.04 8.789-11.187 16.98-22.879 25.082-34.469 8.289-11.89 19.879-24.68 24.976-38.261 4.5-11.989 4.203-25.278 8.992-37.16 5.391-13.387 10.391-26.77 17.282-39.458 7.187-13.39 2-22.582-1.703-36.07-3.7-13.492-2-24.98-.5-38.66 1.05-9.652-3.797-16.441-12.25-16.133 9.761-18.297 22.703-34.219 29.972-49.156 10.489-21.524 23.489-49.293-4.98-54.793zM287.923 218.21c-.48 1.828-11.543 21.289-12.992 22.508 3.73-9.25 8.28-19.219 13.351-29.598.278 2.367.149 4.77-.36 7.09zm0 0"/></g><mask id="y"><g filter="url(#a)"><path fill-opacity=".502" d="M0 0h410v510H0z"/></g></mask><clipPath id="d"><path d="M0 0h410v510H0z"/></clipPath><g id="x" clip-path="url(#d)"><path fill="#fff" stroke="#000" stroke-width=".25" d="M359.309 62.281c3.28-6.89 1.113-15.062-8.47-18.14-5.948-1.961-11.339.347-15.398 3.468-.082.02-.171.04-.25.063-4.34 3.43-7.05 7.976-6.71 8.86.14.39.39.738.718.988-.008 0-.02 0-.027.011 1.156.84 3.687 1.117 8.77 2.117 4.538.98 10.32 4.692 13.648 7.07 0 .044.012.083.02.122a43.8 43.8 0 0 1 2.5 1.82l.25-.262a17.82 17.82 0 0 0 4.878-6.168"/></g><mask id="A"><g filter="url(#a)"><path fill-opacity=".502" d="M0 0h410v510H0z"/></g></mask><clipPath id="e"><path d="M0 0h410v510H0z"/></clipPath><g id="z" clip-path="url(#e)"><path fill="#fff" stroke="#000" stroke-width=".25" d="M235.77 39.371c-2.899 3.399-5.29 8.39-4.899 8.688.399.3 1.098.101 2.3 0 .09-.04.188-.07.278-.11 2.992-.219 6 .063 8.91.813a118.297 118.297 0 0 0 12.192 2.5m0 0c1.84.367 3.73.468 5.59.297.43-.18.78-.489 1-.899-.012-.05-.02-.11-.032-.172.54-1.27.79-2.648.73-4.027-5.39-14.79-17.78-11.09-21.577-10.691-1.301.199-2.903 1.601-4.5 3.5"/></g><mask id="C"><g filter="url(#a)"><path fill-opacity=".502" d="M0 0h410v510H0z"/></g></mask><clipPath id="f"><path d="M0 0h410v510H0z"/></clipPath><g id="B" clip-path="url(#f)"><path fill="#fff" stroke="#000" stroke-width=".25" d="M182.52 49.172c-.18.45-.32.918-.399 1.398.2.602.2.399 2.8.102 2-.203 4.9 1.898 9.59 2.797-.023-.028-.042-.059-.07-.09 1.7.3 3.43.402 5.16.293 5.387-.3 9.09-4.5 10.79-6.89-.012-.032-.012-.083-.02-.11.649-.942 1.02-1.582 1.02-1.582-2-18.281-14.59-12.988-19.68-10.59l-.902.602c-3.899 2.699-7.29 10.687-8.387 13.988"/></g><mask id="E"><g filter="url(#a)"><path fill-opacity=".502" d="M0 0h410v510H0z"/></g></mask><clipPath id="g"><path d="M0 0h410v510H0z"/></clipPath><g id="D" clip-path="url(#g)"><path fill="#fff" stroke="#000" stroke-width=".25" d="M139.559 58.86c-5.149-1.09-9.309 8.699-9.579 12.19h-.011v.598c.383 2.711 13.293 3.711 15.191 3 .102 0 .2-.097.3-.097-.089-.14-.179-.281-.288-.43.137.18.27.36.387.527 1.902-1 4.3-7.09 4.3-7.09 1.59-2.706-4.808-7.609-10.3-8.699zm0 0"/></g><mask id="G"><g filter="url(#a)"><path fill-opacity=".502" d="M0 0h410v510H0z"/></g></mask><clipPath id="h"><path d="M0 0h410v510H0z"/></clipPath><g id="F" clip-path="url(#h)"><path fill="#fff" stroke="#000" stroke-width=".25" d="M334.871 155.36c.098-3.301-.3-3.7-.902-3.9-.598-.198 0 .9-5.098 5.29-4.75 3.012-7.61 8.191-8.601 13.59-.098.172-.2.34-.29.488a25.78 25.78 0 0 0-.199 7.293c.899 7.89 12.79 7.89 12.79 7.89.5-1 1.699-22.683 2.3-28.273.027-.789-.012-1.578-.101-2.36.039.013.07-.007.101-.019zm0 0"/></g><mask id="I"><g filter="url(#a)"><path fill-opacity=".302" d="M0 0h410v510H0z"/></g></mask><clipPath id="i"><path d="M0 0h410v510H0z"/></clipPath><g id="H" clip-path="url(#i)"><path d="M291.59 145.46a29.42 29.42 0 0 0 5 2.27c-11.442-2.16-21.211-12.69-27.8-21.62.92.89 1.839 1.769 2.76 2.761 5.41 6.617 12.212 13.418 20.04 16.59zm0 0M303.18 140.219c1.64.652 3.191 1.3 4.84 1.953-8.66-1.8-19.98-6.152-25.98-12.633 1.132.8 2.269 1.512 3.41 2.223 4.84 3.75 11.6 6.687 17.73 8.457zm0 0M304.91 131.55a52.496 52.496 0 0 1 3.852 3c-8.992-5.64-19.543-8.991-28.973-13.991 1.57.453 3.121 1 4.781 1.543 6.621 3.199 13.782 5.828 20.34 9.449zm0 0M313.95 125.96c1.222.911 2.35 1.821 3.472 2.731-8.613-4.511-17.082-10.613-26.563-13.293a25.3 25.3 0 0 1 4.641.832c6.48 2.5 12.45 6.36 18.45 9.73zm0 0M321.59 79.352c5 2 9.851 5.218 14.52 7.988 1.12.898 2.152 1.7 3.07 2.59-7.16-3.871-14.461-9.66-22.63-11.32 1.7.05 3.4.3 5.04.742zm0 0"/></g><mask id="K"><g filter="url(#a)"><path fill-opacity=".302" d="M0 0h410v510H0z"/></g></mask><clipPath id="j"><path d="M0 0h410v510H0z"/></clipPath><g id="J" clip-path="url(#j)"><path d="M199.8 124.3a36.87 36.87 0 0 0 4.5-.698c-8.69 4-19.679 1.5-27.671-3.102 1.3.398 2.7.898 4.101 1.2 5.98 2.6 12.88 4.019 19.07 2.6zm0 0M204.898 113.309c1.403.5 2.801 1.101 4.102 1.703-8.89-1.801-17.98-4.801-27.07-5.102 1.52-.281 3.05-.422 4.601-.398 6.078.597 12.27 2.386 18.367 3.797zm0 0M196 119.8c1.2.098 2.5.2 3.7.2-7.09 1.898-15.29-1.3-21.481-4.602l3.3.903c4.493 2.097 9.59 3.699 14.481 3.5zm0 0M195.8 104.738c5.59 1.301 11.09 3.102 16.68 4.5 1.301.5 2.5 1.102 3.7 1.602-8.09-1.7-15.88-4.602-24.078-6.09 1.238-.11 2.468-.11 3.699-.012zm0 0M232.172 66.648c1.098.204 2.297.403 3.398.704-6.59.296-13.789-.102-19.98-2.602l3.3.3a49.57 49.57 0 0 0 13.282 1.598zm0 0M244.16 62.781l2.7 1.5c-6.09-1.601-11.891-4.3-17.88-6.09 1 0 2 .098 3 .2 3.989 1.39 8.079 3.058 12.18 4.39zm0 0"/></g><mask id="M"><g filter="url(#a)"><path fill-opacity=".302" d="M0 0h410v510H0z"/></g></mask><clipPath id="k"><path d="M0 0h410v510H0z"/></clipPath><g id="L" clip-path="url(#k)"><path d="M140.5 130.3h3.5a31.067 31.067 0 0 1-19.98-1l3.3.302a31.01 31.01 0 0 0 13.18.699zm0 0M142.852 118.73c1.097.399 2.199.899 3.199 1.301-6.192-.8-12.79-3.3-18.98-2 1.077-.52 2.218-.89 3.398-1.101 4.09-.032 8.293.968 12.383 1.8zm0 0M138.86 125.39l2.6.301c-5.1 1.399-10.991.2-15.882-1.5.902-.02 1.8.02 2.703.098a29.207 29.207 0 0 0 10.578 1.102zm0 0M186.29 63.55c1.1.4 2.198.802 3.198 1.2-6.386-.7-13.789-2.2-18.976-6.09.898.3 1.699.602 2.597.899a40.578 40.578 0 0 0 13.18 3.992zm0 0"/></g><mask id="O"><g filter="url(#a)"><path fill-opacity=".302" d="M0 0h410v510H0z"/></g></mask><clipPath id="l"><path d="M0 0h410v510H0z"/></clipPath><g id="N" clip-path="url(#l)"><path d="M99.602 149.57c.796 0 1.597.102 2.398.102a28.534 28.534 0 0 1-13.29 1c.802-.203 1.599-.3 2.4-.5 2.84.297 5.71.098 8.492-.602zm0 0M101.29 143.871c.91.188 1.812.418 2.698.7-5 .199-9.886-.4-14.886 0 .828-.4 1.699-.7 2.597-.9 3.301-.1 6.5.2 9.59.2zm0 0M102.988 137.29c.883.14 1.75.339 2.602.6-4.8.2-9.488.801-14.29.5.821-.28 1.65-.511 2.5-.699 3.098.09 6.098-.21 9.188-.402zm0 0M135.86 82.629c.831-.02 1.671.012 2.5.101-4.301 1.399-9.79 1.899-12.79-1.5.551.282 1.121.508 1.7.7 2.402 1.3 5.59 1.3 8.59.699zm0 0"/></g><mask id="Q"><g filter="url(#a)"><path fill-opacity=".302" d="M0 0h410v510H0z"/></g></mask><clipPath id="m"><path d="M0 0h410v510H0z"/></clipPath><g id="P" clip-path="url(#m)"><path d="M219.422 52.79s-1.8 2.1-5 5.788c-3.203 3.703-7.692 8.89-13.094 15.293-5.387 6.39-11.687 13.688-18.277 21.777-1.7 2-3.301 4-5 6.09l-1.301 1.602c-.2.3-.398.5-.602.8l-.597.9a26.243 26.243 0 0 0-1.7 3.8c-2 5.101-3.703 10.39-5.292 15.68-3.2 10.59-6.29 21.28-9.09 31.27-2.797 9.991-5.39 19.382-7.89 27.269-1 3.64-2.227 7.21-3.7 10.691-.168.352-.367.68-.598 1-.3.3-.5.602-.8.898-.5.602-1 1.204-1.5 1.704a38.382 38.382 0 0 1-2.801 2.898c-1.7 1.7-3.102 3-4.102 3.898-1 .903-1.5 1.301-1.5 1.301s.5-.5 1.5-1.3c1-.797 2.402-2.098 4.203-3.797a35.045 35.045 0 0 0 2.797-2.903c.5-.5 1-1.097 1.5-1.699.3-.3.5-.602.8-.898.294-.332.532-.704.7-1.102a83.459 83.459 0 0 0 3.902-10.691c1.301-4 2.598-8.29 4-12.887 1.399-4.602 2.801-9.39 4.2-14.39 2.898-9.993 5.992-20.68 9.289-31.27 1.703-5.293 3.3-10.59 5.293-15.684.5-1.297 1-2.5 1.597-3.7.2-.3.301-.5.5-.8.22-.25.422-.52.602-.797l1.3-1.601c1.7-2.102 3.4-4.102 5-6.09 6.59-7.988 12.79-15.488 18.079-21.88 10.43-12.71 17.582-21.17 17.582-21.17zm0 0M162.14 61.05s-1.402 2-4 5.49c-2.6 3.5-6.19 8.491-10.492 14.491-2.199 3-4.597 6.188-7.187 9.489-.602.8-1.3 1.699-2 2.5-.7.8-1.5 1.601-2.2 2.402-1.5 1.7-2.8 3.5-4.202 5.387-2.797 3.703-5.489 7.59-8.188 11.691-.7 1-1.3 2.102-1.902 3.102a25.235 25.235 0 0 0-1.2 3.597c-.597 2.403-1.097 4.801-1.597 7.192-1.902 9.687-3.5 19.379-5.102 28.57-1.601 9.187-3 17.578-4.5 24.879-.398 1.8-.8 3.5-1.199 5.191a5.41 5.41 0 0 1-.902 2.2c-.399.699-.797 1.398-1.2 2-1.398 2.699-2.5 5-3.398 6.988-1.8 3.902-2.7 6.191-2.7 6.191s1-2.3 2.9-6.09c1-1.898 2.1-4.3 3.6-6.89.4-.7.798-1.301 1.2-2a9.274 9.274 0 0 0 1-2.301c.5-1.598.899-3.399 1.3-5.188 1.599-7.191 3.2-15.68 4.798-24.78 1.601-9.09 3.3-18.782 5.191-28.47l1.5-7.191c.25-1.172.621-2.3 1.102-3.398.597-1 1.199-2.102 1.898-3.102 2.602-4.102 5.39-7.988 8.09-11.691 1.398-1.899 2.8-3.7 4.2-5.387.698-.902 1.402-1.602 2.198-2.5.801-.902 1.403-1.703 2-2.5 2.602-3.402 4.903-6.594 7.09-9.692 4.301-5.992 7.793-11.09 10.192-14.69 2.41-3.59 3.71-5.49 3.71-5.49zm0 0"/></g><mask id="S"><g filter="url(#a)"><path fill-opacity=".102" d="M0 0h410v510H0z"/></g></mask><clipPath id="n"><path d="M0 0h410v510H0z"/></clipPath><g id="R" clip-path="url(#n)"><path d="M218.578 48.379c-5.988 3.902-28.27 25.383-30.668 28.172-3.101 3.597-7.691 13.789-14.89 21.48-7.192 7.688-12.29 12.79-13.29 20.48-1 7.489-7.492 57.637-18.68 82.817a62.832 62.832 0 0 0 6.188-6.59c4.102-5.097 23.582-83.418 29.07-90.61 5.493-7.187 42.864-51.448 42.864-51.448a26.935 26.935 0 0 0-.594-4.301zm0 0"/></g><mask id="U"><g filter="url(#a)"><path fill-opacity=".102" d="M0 0h410v510H0z"/></g></mask><clipPath id="o"><path d="M0 0h410v510H0z"/></clipPath><g id="T" clip-path="url(#o)"><path d="M108.89 142.781c-.402 7.989 1.2 34.07.098 38.758 0 0 .5-1.3 1.403-3.598 3.597-17.882 9.488-55.75 11.687-61.441-.098-.102-.098-.102-.098-.2 0-.1-12.69 18.41-13.09 26.481zm0 0"/></g><mask id="W"><g filter="url(#a)"><path fill-opacity=".302" d="M0 0h410v510H0z"/></g></mask><clipPath id="p"><path d="M0 0h410v510H0z"/></clipPath><g id="V" clip-path="url(#p)"><path d="M331.309 222.898s1 5.102 8.691 3.102c-.031-.012-6.129-.5-8.691-3.102zm0 0"/></g><mask id="Y"><g filter="url(#a)"><path fill-opacity=".302" d="M0 0h410v510H0z"/></g></mask><clipPath id="q"><path d="M0 0h410v510H0z"/></clipPath><g id="X" clip-path="url(#q)"><path d="M331.371 216.3c.399.5 6.09-2.6 6.09-2.6s-6.09-.99-6.09 2.6zm0 0"/></g><mask id="aa"><g filter="url(#a)"><path fill-opacity=".102" d="M0 0h410v510H0z"/></g></mask><clipPath id="r"><path d="M0 0h410v510H0z"/></clipPath><g id="Z" clip-path="url(#r)"><path d="M246.238 83.48c0 3-21.976 35.872-21.976 39.36 0 3.5-18.98 65.14-18.98 68.531 0 2.899-1.403 12.988.5 16.379 1.519.27 4-2.121 6.679-4.922v.07a28.09 28.09 0 0 0 1.14-1.25l.297-.308c2.48-2.86 5.204-6.559 7.993-10.34 1.5-2.14 15.328-14.55 23.78-33.578-4.542 10.039-23.98 32.969-29.51 37.59l-.59.328c-1.391.89-3.52 1.73-4.41.21-5.24-8.859 3.37-23.152 6.237-32.57 3.602-11.789 4.332-24.789 8.993-36.48 3.55-8.91 11.07-19.07 17.437-30.68 6.082-11.101 13.613-20.86 19.64-32.351 1-2.008 1.712-4.16 2.134-6.36-6.512 7.36-19.364 23.97-19.364 26.371zm0 0"/></g><mask id="ac"><g filter="url(#a)"><path fill-opacity=".102" d="M0 0h410v510H0z"/></g></mask><clipPath id="s"><path d="M0 0h410v510H0z"/></clipPath><g id="ab" clip-path="url(#s)"><path d="M363.57 53.79c-1.61 18.67-11.992 38.96-18.601 50.241-2.54 4.309-22.48 33.63-37.297 55.95-15.223 22.917-35.3 62.769-34.973 64.097.27 1.121-3.328 12.613-3.328 12.91 0 3.762.91 19.282-.5 25.063-1.32 5.39 11.18 15.43 11.578 14.988-4.199-7.289-3.89-26.34-4.09-30.84-.398-4.597 7.993-11.719 7.993-13.32 0-1.598 7.937-9.988 6.988-15.328-.45-2.551 17.98-1.66 17.98-1.66s-12.558-9.45-17.648-7.332a7.298 7.298 0 0 0-3.332-1c11.148-22.508 22.832-41.36 34.12-61.72h-.151c9.761-18.3 22.703-34.218 29.972-49.16 7.008-14.34 15.098-31.48 11.29-42.89zm-77.21 158.32a.86.86 0 0 1-.079.28 35.7 35.7 0 0 1-2 4c.68-1.421 1.36-2.87 2.078-4.28zm1.59 6.09c-.481 1.831-11.54 21.288-12.99 22.51 3.731-9.25 8.278-19.222 13.349-29.6.27 2.37.14 4.769-.387 7.1zm0 0"/></g><mask id="ae"><g filter="url(#a)"><path fill-opacity=".502" d="M0 0h410v510H0z"/></g></mask><linearGradient id="u" x1="-1685.159" x2="-1674.249" y1="2120.143" y2="2182.017" gradientTransform="matrix(3.1362 0 0 -3.1362 5554.397 6889.314)" gradientUnits="userSpaceOnUse"><stop offset=".196" stop-color="#00afd1" stop-opacity="0"/><stop offset=".64" stop-color="#0074d1"/></linearGradient><clipPath id="t"><path d="M0 0h410v510H0z"/></clipPath><g id="ad" clip-path="url(#t)"><path fill="url(#u)" d="M352.29 96.66c10.48-21.512 23.48-49.281-5-54.781-23.981-4.629-43.38 37.75-58.27 54.152-7.829 8.59-15.391 15.36-21.75 25.66-8.532 13.86-16.872 27.739-25.22 41.63-1.128 1.898-8.32 12.648-12.69 17.218L219 192.531s-3.23 3.13-5.66 3.719l-.238.621 62.597 40.328 5.32-10.648c1.09-2.41 2.211-4.852 3.38-7.313a82.532 82.532 0 0 0 4-11.68c.671-2.328 33.972-61.73 33.972-61.73 9.707-18.308 22.649-34.219 29.918-49.168zm0 0"/></g></defs><use mask="url(#w)" xlink:href="#v"/><use mask="url(#y)" xlink:href="#x"/><use mask="url(#A)" xlink:href="#z"/><use mask="url(#C)" xlink:href="#B"/><use mask="url(#E)" xlink:href="#D"/><use mask="url(#G)" xlink:href="#F"/><use mask="url(#I)" xlink:href="#H"/><use mask="url(#K)" xlink:href="#J"/><use mask="url(#M)" xlink:href="#L"/><use mask="url(#O)" xlink:href="#N"/><use mask="url(#Q)" xlink:href="#P"/><use mask="url(#S)" xlink:href="#R"/><use mask="url(#U)" xlink:href="#T"/><use mask="url(#W)" xlink:href="#V"/><use mask="url(#Y)" xlink:href="#X"/><use mask="url(#aa)" xlink:href="#Z"/><use mask="url(#ac)" xlink:href="#ab"/><use mask="url(#ae)" xlink:href="#ad"/></svg>