<svg viewBox="0 0 410 510" xmlns="http://www.w3.org/2000/svg" xmlns:xlink="http://www.w3.org/1999/xlink"><filter id="a" height="100%" width="100%" x="0%" y="0%"><feColorMatrix in="SourceGraphic" values="0 0 0 0 1 0 0 0 0 1 0 0 0 0 1 0 0 0 1 0"/></filter><mask id="b"><g filter="url(#a)"><path d="m0 0h410v510h-410z" fill-opacity=".851"/></g></mask><linearGradient id="c" gradientTransform="matrix(-1 0 0 1 517.007 0)" gradientUnits="userSpaceOnUse" x1="312.007" x2="312.007" y1="478.552" y2="31.448"><stop offset="0" stop-color="#fff" stop-opacity="0"/><stop offset=".427" stop-color="#d0b5b3"/><stop offset="1" stop-color="#d0b5b3"/></linearGradient><clipPath id="d"><path d="m0 0h410v510h-410z"/></clipPath><mask id="e"><g filter="url(#a)"><path d="m0 0h410v510h-410z" fill-opacity=".502"/></g></mask><clipPath id="f"><path d="m0 0h410v510h-410z"/></clipPath><mask id="g"><g filter="url(#a)"><path d="m0 0h410v510h-410z" fill-opacity=".502"/></g></mask><clipPath id="h"><path d="m0 0h410v510h-410z"/></clipPath><mask id="i"><g filter="url(#a)"><path d="m0 0h410v510h-410z" fill-opacity=".502"/></g></mask><clipPath id="j"><path d="m0 0h410v510h-410z"/></clipPath><mask id="k"><g filter="url(#a)"><path d="m0 0h410v510h-410z" fill-opacity=".502"/></g></mask><clipPath id="l"><path d="m0 0h410v510h-410z"/></clipPath><mask id="m"><g filter="url(#a)"><path d="m0 0h410v510h-410z" fill-opacity=".502"/></g></mask><clipPath id="n"><path d="m0 0h410v510h-410z"/></clipPath><mask id="o"><g filter="url(#a)"><path d="m0 0h410v510h-410z" fill-opacity=".302"/></g></mask><clipPath id="p"><path d="m0 0h410v510h-410z"/></clipPath><mask id="q"><g filter="url(#a)"><path d="m0 0h410v510h-410z" fill-opacity=".302"/></g></mask><clipPath id="r"><path d="m0 0h410v510h-410z"/></clipPath><mask id="s"><g filter="url(#a)"><path d="m0 0h410v510h-410z" fill-opacity=".302"/></g></mask><clipPath id="t"><path d="m0 0h410v510h-410z"/></clipPath><mask id="u"><g filter="url(#a)"><path d="m0 0h410v510h-410z" fill-opacity=".302"/></g></mask><clipPath id="v"><path d="m0 0h410v510h-410z"/></clipPath><mask id="w"><g filter="url(#a)"><path d="m0 0h410v510h-410z" fill-opacity=".302"/></g></mask><clipPath id="x"><path d="m0 0h410v510h-410z"/></clipPath><mask id="y"><g filter="url(#a)"><path d="m0 0h410v510h-410z" fill-opacity=".102"/></g></mask><clipPath id="z"><path d="m0 0h410v510h-410z"/></clipPath><mask id="A"><g filter="url(#a)"><path d="m0 0h410v510h-410z" fill-opacity=".102"/></g></mask><clipPath id="B"><path d="m0 0h410v510h-410z"/></clipPath><mask id="C"><g filter="url(#a)"><path d="m0 0h410v510h-410z" fill-opacity=".302"/></g></mask><clipPath id="D"><path d="m0 0h410v510h-410z"/></clipPath><mask id="E"><g filter="url(#a)"><path d="m0 0h410v510h-410z" fill-opacity=".302"/></g></mask><clipPath id="F"><path d="m0 0h410v510h-410z"/></clipPath><mask id="G"><g filter="url(#a)"><path d="m0 0h410v510h-410z" fill-opacity=".102"/></g></mask><clipPath id="H"><path d="m0 0h410v510h-410z"/></clipPath><mask id="I"><g filter="url(#a)"><path d="m0 0h410v510h-410z" fill-opacity=".102"/></g></mask><clipPath id="J"><path d="m0 0h410v510h-410z"/></clipPath><mask id="K"><g filter="url(#a)"><path d="m0 0h410v510h-410z" fill-opacity=".502"/></g></mask><linearGradient id="L" gradientTransform="matrix(-3.1362 0 0 -3.1362 -5037.39 6889.314)" gradientUnits="userSpaceOnUse" x1="-1651.039" x2="-1640.129" y1="2120.143" y2="2182.017"><stop offset=".196" stop-color="#00afd1" stop-opacity="0"/><stop offset=".64" stop-color="#0074d1"/></linearGradient><clipPath id="M"><path d="m0 0h410v510h-410z"/></clipPath><g clip-path="url(#d)" mask="url(#b)"><path d="m57.71 96.66c7.27 14.95 20.212 30.86 29.97 49.16-8.45-.308-13.301 6.48-12.25 16.13 1.5 13.69 3.199 25.179-.5 38.66-3.7 13.492-8.89 22.68-1.7 36.07 6.891 12.691 11.891 26.07 17.282 39.46 4.797 11.891 4.5 25.18 8.988 37.16 5.102 13.59 16.68 26.372 24.98 38.259 8.09 11.59 16.282 23.28 25.079 34.472 16.78 21.38 38.46 35.668 48.75 62.04 2.902 7.288 5.293 14.69 8.09 21.98 2.402 6.09 1.601 8.488 8.59 8.488h149.561c-4.5-2.398-2.903-29.668-4.602-35.668-3.097-11.09-9.187-21.48-10.59-32.973-1.597-12.488 4.5-27.968 5.993-40.66a322.658 322.658 0 0 0 2.597-35.27c.403-51.25-13.988-101.5-25.379-151.046-3.101-13.492-6.39-27.07-9.691-40.563-2.598-10.187-10.59-19.879-15.488-29.168-6.29-12.09-11.891-24.68-18.48-36.66-4.7-8.59-10.391-20.68-19.981-24.68a15.748 15.748 0 0 0 -15.09 2.098c-1.5 1.102-4.2 6.79-5.692 6.992-4.898.598-16.777-16.68-19.777-20.082-14.992-16.48-35.973-10.59-37.762 11.79-5.687-3-10.488-10.387-15.488-14.79-4.3-3.699-20.68-1.898-24.281 2.5-7.79 5.993-8.29 15.192-4.399 22.88 5.688 11.39 13.59 21.581 19.68 32.773 5.59 10.289 13.29 19.879 17.578 30.867 4.5 11.39 5.39 24.383 8.89 36.07 2.7 8.79 11.391 23.48 6.29 32.57-1.719 3-7.91-3-7.91-3l-10.367-11.988c-4.372-4.582-11.563-15.332-12.692-17.222-8.34-13.887-16.68-27.77-25.219-41.63-6.363-10.3-13.921-17.058-21.75-25.66-14.902-16.39-34.3-58.769-58.27-54.148-28.44 5.508-15.44 33.277-4.96 54.79zm64.368 121.55a21.22 21.22 0 0 1 -.36-7.089c5.071 10.379 9.622 20.348 13.352 29.598-1.449-1.219-12.511-20.68-12.992-22.508zm0 0" fill="url(#c)"/></g><g clip-path="url(#f)" mask="url(#e)"><path d="m50.781 62.219a17.567 17.567 0 0 0 4.88 6.172l.25.257s1-.796 2.5-1.82c0-.039.01-.078.019-.117 3.332-2.383 9.11-6.102 13.648-7.07 5.094-1 7.613-1.282 8.774-2.121-.012 0-.024 0-.032-.008.328-.25.578-.602.72-.992.339-.88-2.38-5.43-6.712-8.86-.078-.02-.168-.039-.25-.058-4.058-3.122-9.45-5.43-15.398-3.473-9.578 3.09-11.75 11.25-8.47 18.14" fill="#fff" stroke="#000" stroke-width=".25"/></g><g clip-path="url(#h)" mask="url(#g)"><path d="m155.45 51.262a117.088 117.088 0 0 0 12.19-2.5 27.61 27.61 0 0 1 8.91-.813c.09.04.188.07.278.11 1.203.101 1.902.3 2.3 0 .403-.297-2-5.29-4.898-8.688m0-.101c-1.601-1.899-3.199-3.301-4.5-3.5-3.8-.399-16.18-4.098-21.582 10.69a9.305 9.305 0 0 0 .73 4.028c-.007.063-.019.121-.026.172.218.41.57.719 1 .899 1.867.171 3.75.07 5.59-.297" fill="#fff" stroke="#000" stroke-width=".25"/></g><g clip-path="url(#j)" mask="url(#i)"><path d="m227.578 49.07c-1.098-3.3-4.5-11.289-8.387-13.992l-.902-.598c-5.098-2.402-17.68-7.69-19.68 10.59 0 0 .371.649 1.02 1.578-.008.043-.008.082-.02.114 1.7 2.398 5.391 6.59 10.79 6.886 1.73.114 3.46.012 5.16-.289-.02.032-.04.063-.07.09 4.702-.898 7.59-3 9.59-2.8 2.6.3 2.6.5 2.8-.098a6.756 6.756 0 0 0 -.399-1.403" fill="#fff" stroke="#000" stroke-width=".25"/></g><g clip-path="url(#l)" mask="url(#k)"><path d="m270.441 58.86c5.149-1.09 9.309 8.699 9.579 12.19h.011v.598c-.383 2.711-13.293 3.711-15.191 3-.102 0-.2-.097-.3-.097.089-.14.179-.281.288-.43-.137.18-.27.36-.387.527-1.902-1-4.3-7.09-4.3-7.09-1.59-2.706 4.808-7.609 10.3-8.699zm0 0" fill="#fff" stroke="#000" stroke-width=".25"/></g><g clip-path="url(#n)" mask="url(#m)"><path d="m75.129 155.36c-.098-3.301.3-3.7.902-3.9.598-.198 0 .9 5.098 5.29 4.75 3.012 7.61 8.191 8.601 13.59.098.172.2.34.29.488.41 2.41.48 4.863.199 7.293-.899 7.89-12.79 7.89-12.79 7.89-.5-1-1.699-22.683-2.3-28.273-.027-.789.012-1.578.101-2.36-.039.013-.07-.007-.101-.019zm0 0" fill="#fff" stroke="#000" stroke-width=".25"/></g><g clip-path="url(#p)" mask="url(#o)"><path d="m118.41 145.46a29.42 29.42 0 0 1 -5 2.27c11.442-2.16 21.211-12.69 27.8-21.62-.92.89-1.839 1.769-2.76 2.761-5.41 6.617-12.212 13.418-20.04 16.59zm-11.59-5.241c-1.64.652-3.191 1.3-4.84 1.953 8.66-1.8 19.98-6.152 25.97-12.633-1.13.8-2.27 1.512-3.41 2.223-4.83 3.75-11.59 6.687-17.72 8.457zm-1.73-8.669a52.496 52.496 0 0 0 -3.852 3c8.992-5.64 19.543-8.991 28.973-13.991-1.57.453-3.121 1-4.781 1.543-6.621 3.199-13.782 5.828-20.34 9.449zm-9.04-5.59c-1.222.911-2.35 1.821-3.472 2.731 8.613-4.511 17.082-10.613 26.563-13.293a25.3 25.3 0 0 0 -4.641.832c-6.48 2.5-12.45 6.36-18.45 9.73zm-7.64-46.608c-5 2-9.851 5.218-14.52 7.988-1.12.898-2.152 1.7-3.07 2.59 7.16-3.871 14.461-9.66 22.63-11.32-1.7.05-3.4.3-5.04.742zm0 0"/></g><g clip-path="url(#r)" mask="url(#q)"><path d="m210.2 124.3a36.87 36.87 0 0 1 -4.5-.698c8.69 4 19.679 1.5 27.671-3.102-1.3.398-2.7.898-4.101 1.2-5.98 2.6-12.88 4.019-19.07 2.6zm-5.098-10.991c-1.403.5-2.801 1.101-4.102 1.703 8.89-1.801 17.98-4.801 27.07-5.102a23.277 23.277 0 0 0 -4.601-.398c-6.078.597-12.27 2.386-18.367 3.797zm8.898 6.491c-1.2.098-2.5.2-3.7.2 7.09 1.898 15.29-1.3 21.481-4.602l-3.3.903c-4.493 2.097-9.59 3.699-14.481 3.5zm.2-15.062c-5.59 1.301-11.09 3.102-16.68 4.5-1.301.5-2.5 1.102-3.7 1.602 8.09-1.7 15.88-4.602 24.078-6.09a22.074 22.074 0 0 0 -3.699-.012zm-36.372-38.09c-1.098.204-2.297.403-3.398.704 6.59.296 13.789-.102 19.98-2.602l-3.3.3a49.57 49.57 0 0 1 -13.282 1.598zm-11.988-3.867-2.7 1.5c6.09-1.601 11.891-4.3 17.88-6.09-1 0-2 .098-3 .2-3.989 1.39-8.079 3.058-12.18 4.39zm0 0"/></g><g clip-path="url(#t)" mask="url(#s)"><path d="m269.5 130.3h-3.5a31.067 31.067 0 0 0 19.98-1l-3.3.302a31.01 31.01 0 0 1 -13.18.699zm-2.352-11.57c-1.097.399-2.199.899-3.199 1.301 6.192-.8 12.79-3.3 18.98-2a13.156 13.156 0 0 0 -3.398-1.101c-4.09-.032-8.293.968-12.383 1.8zm3.992 6.66-2.6.301c5.1 1.399 10.991.2 15.882-1.5-.902-.02-1.8.02-2.703.098a29.207 29.207 0 0 1 -10.578 1.102zm-47.43-61.84c-1.1.4-2.198.802-3.198 1.2 6.386-.7 13.789-2.2 18.976-6.09-.898.3-1.699.602-2.597.899a40.578 40.578 0 0 1 -13.18 3.992zm0 0"/></g><g clip-path="url(#v)" mask="url(#u)"><path d="m310.398 149.57c-.796 0-1.597.102-2.398.102a28.534 28.534 0 0 0 13.29 1c-.802-.203-1.599-.3-2.4-.5-2.84.297-5.71.098-8.492-.602zm-1.688-5.699c-.91.188-1.812.418-2.698.7 5 .199 9.886-.4 14.886 0-.828-.4-1.699-.7-2.597-.9-3.301-.1-6.5.2-9.59.2zm-1.698-6.581c-.883.14-1.75.339-2.602.6 4.8.2 9.488.801 14.29.5a22.777 22.777 0 0 0 -2.5-.699c-3.098.09-6.098-.21-9.188-.402zm-32.872-54.661c-.831-.02-1.671.012-2.5.101 4.301 1.399 9.79 1.899 12.79-1.5-.551.282-1.121.508-1.7.7-2.402 1.3-5.59 1.3-8.59.699zm0 0"/></g><g clip-path="url(#x)" mask="url(#w)"><path d="m190.578 52.79s1.8 2.1 5 5.788c3.203 3.703 7.692 8.89 13.094 15.293 5.387 6.39 11.687 13.688 18.277 21.777 1.7 2 3.301 4 5 6.09l1.301 1.602c.2.3.398.5.602.8l.597.9a26.243 26.243 0 0 1 1.7 3.8c2 5.101 3.703 10.39 5.292 15.68 3.2 10.59 6.29 21.28 9.09 31.27 2.797 9.991 5.39 19.382 7.89 27.269 1 3.64 2.227 7.21 3.7 10.691.168.352.367.68.598 1 .3.3.5.602.8.898.5.602 1 1.204 1.5 1.704a38.382 38.382 0 0 0 2.801 2.898c1.7 1.7 3.102 3 4.102 3.898 1 .903 1.5 1.301 1.5 1.301s-.5-.5-1.5-1.3c-1-.797-2.402-2.098-4.203-3.797a35.045 35.045 0 0 1 -2.797-2.903c-.5-.5-1-1.097-1.5-1.699-.3-.3-.5-.602-.8-.898a4.047 4.047 0 0 1 -.7-1.102 83.459 83.459 0 0 1 -3.902-10.691c-1.301-4-2.598-8.29-4-12.887-1.399-4.602-2.801-9.39-4.2-14.39-2.898-9.993-5.992-20.68-9.289-31.27-1.703-5.293-3.3-10.59-5.293-15.684-.5-1.297-1-2.5-1.597-3.7-.2-.3-.301-.5-.5-.8a6.982 6.982 0 0 1 -.602-.797l-1.3-1.601c-1.7-2.102-3.4-4.102-5-6.09a17961.13 17961.13 0 0 0 -18.079-21.88c-10.43-12.71-17.582-21.17-17.582-21.17zm57.282 8.26s1.402 2 4 5.49c2.6 3.5 6.19 8.491 10.492 14.491 2.199 3 4.597 6.188 7.187 9.489.602.8 1.3 1.699 2 2.5.7.8 1.5 1.601 2.2 2.402 1.5 1.7 2.8 3.5 4.202 5.387 2.797 3.703 5.489 7.59 8.188 11.691.7 1 1.3 2.102 1.902 3.102.489 1.168.89 2.367 1.2 3.597.597 2.403 1.097 4.801 1.597 7.192 1.902 9.687 3.5 19.379 5.102 28.57 1.601 9.187 3 17.578 4.5 24.879.398 1.8.8 3.5 1.199 5.191.133.79.441 1.54.902 2.2.399.699.797 1.398 1.2 2 1.398 2.699 2.5 5 3.398 6.988 1.8 3.902 2.7 6.191 2.7 6.191s-1-2.3-2.9-6.09c-1-1.898-2.1-4.3-3.6-6.89-.4-.7-.798-1.301-1.2-2a9.274 9.274 0 0 1 -1-2.301c-.5-1.598-.899-3.399-1.3-5.188-1.599-7.191-3.2-15.68-4.798-24.78-1.601-9.09-3.3-18.782-5.191-28.47l-1.5-7.191c-.25-1.172-.621-2.3-1.102-3.398-.597-1-1.199-2.102-1.898-3.102-2.602-4.102-5.39-7.988-8.09-11.691-1.398-1.899-2.8-3.7-4.2-5.387-.698-.902-1.402-1.602-2.198-2.5-.801-.902-1.403-1.703-2-2.5-2.602-3.402-4.903-6.594-7.09-9.692a522.961 522.961 0 0 1 -10.192-14.69c-2.41-3.59-3.71-5.49-3.71-5.49zm0 0"/></g><g clip-path="url(#z)" mask="url(#y)"><path d="m191.422 48.379c5.988 3.902 28.27 25.383 30.668 28.172 3.101 3.597 7.691 13.789 14.89 21.48 7.192 7.688 12.29 12.79 13.29 20.48 1 7.489 7.492 57.637 18.68 82.817a62.832 62.832 0 0 1 -6.188-6.59c-4.102-5.097-23.582-83.418-29.07-90.61-5.493-7.187-42.864-51.448-42.864-51.448.082-1.45.281-2.89.594-4.301zm0 0"/></g><g clip-path="url(#B)" mask="url(#A)"><path d="m301.11 142.781c.402 7.989-1.2 34.07-.098 38.758 0 0-.5-1.3-1.403-3.598-3.597-17.882-9.488-55.75-11.687-61.441.098-.102.098-.102.098-.2 0-.1 12.69 18.41 13.09 26.481zm0 0"/></g><g clip-path="url(#D)" mask="url(#C)"><path d="m78.691 222.898s-1 5.102-8.691 3.102c.031-.012 6.129-.5 8.691-3.102zm0 0"/></g><g clip-path="url(#F)" mask="url(#E)"><path d="m78.629 216.3c-.399.5-6.09-2.6-6.09-2.6s6.09-.99 6.09 2.6zm0 0"/></g><g clip-path="url(#H)" mask="url(#G)"><path d="m163.762 83.48c0 3 21.976 35.872 21.976 39.36 0 3.5 18.98 65.14 18.98 68.531 0 2.899 1.403 12.988-.5 16.379-1.519.27-4-2.121-6.679-4.922v.07a28.09 28.09 0 0 1 -1.14-1.25l-.297-.308c-2.48-2.86-5.204-6.559-7.993-10.34-1.5-2.14-15.328-14.55-23.78-33.578 4.542 10.039 23.98 32.969 29.51 37.59l.59.328c1.391.89 3.52 1.73 4.41.21 5.24-8.859-3.37-23.152-6.237-32.57-3.602-11.789-4.332-24.789-8.993-36.48-3.55-8.91-11.07-19.07-17.437-30.68-6.082-11.101-13.613-20.86-19.64-32.351a24.74 24.74 0 0 1 -2.134-6.36c6.512 7.36 19.364 23.97 19.364 26.371zm0 0"/></g><g clip-path="url(#J)" mask="url(#I)"><path d="m57.71 96.672c7.27 14.95 20.212 30.86 29.97 49.156h-.149c11.29 20.363 22.969 39.211 34.117 61.723a7.217 7.217 0 0 0 -3.328 1c-5.101-2.121-17.648 7.328-17.648 7.328s18.43-.89 17.976 1.66c-.949 5.332 6.993 13.73 6.993 15.332 0 1.598 8.39 8.719 7.988 13.32-.2 4.5.11 23.547-4.09 30.84.402.438 12.902-9.59 11.582-14.992-1.41-5.77-.5-21.3-.5-25.059 0-.3-3.601-11.789-3.332-12.91.332-1.332-19.75-41.18-34.969-64.101-14.832-22.32-34.77-51.64-37.3-55.95-6.61-11.28-16.989-31.57-18.598-50.238-3.8 11.418 4.289 28.559 11.289 42.89zm68.009 119.707a34.729 34.729 0 0 1 -2-4 .866.866 0 0 1 -.078-.277c.718 1.418 1.398 2.867 2.078 4.277zm-3.64 1.832a21.283 21.283 0 0 1 -.388-7.102c5.07 10.38 9.618 20.352 13.348 29.602-1.45-1.223-12.508-20.68-12.988-22.512zm0 0"/></g><g clip-path="url(#M)" mask="url(#K)"><path d="m57.71 96.66c-10.48-21.512-23.48-49.281 5-54.781 23.981-4.629 43.38 37.75 58.27 54.152 7.829 8.59 15.391 15.36 21.75 25.66 8.532 13.86 16.872 27.739 25.22 41.63 1.128 1.898 8.32 12.648 12.69 17.218l10.36 11.992s3.23 3.13 5.66 3.719l.238.621-62.597 40.328-5.32-10.648c-1.09-2.41-2.211-4.852-3.38-7.313a82.532 82.532 0 0 1 -4-11.68c-.671-2.328-33.972-61.73-33.972-61.73-9.707-18.308-22.649-34.218-29.919-49.168zm0 0" fill="url(#L)"/></g></svg>