<svg viewBox="0 0 410 510" xmlns="http://www.w3.org/2000/svg" xmlns:xlink="http://www.w3.org/1999/xlink"><filter id="a" height="100%" width="100%" x="0%" y="0%"><feColorMatrix in="SourceGraphic" values="0 0 0 0 1 0 0 0 0 1 0 0 0 0 1 0 0 0 1 0"/></filter><mask id="b"><g filter="url(#a)"><path d="m0 0h410v510h-410z" fill-opacity=".851"/></g></mask><linearGradient id="c" gradientUnits="userSpaceOnUse" x1="205" x2="205" y1="498.72" y2="11.28"><stop offset="0" stop-color="#fff" stop-opacity="0"/><stop offset=".427" stop-color="#d0b5b3"/><stop offset="1" stop-color="#d0b5b3"/></linearGradient><clipPath id="d"><path d="m0 0h410v510h-410z"/></clipPath><mask id="e"><g filter="url(#a)"><path d="m0 0h410v510h-410z" fill-opacity=".502"/></g></mask><clipPath id="f"><path d="m0 0h410v510h-410z"/></clipPath><mask id="g"><g filter="url(#a)"><path d="m0 0h410v510h-410z" fill-opacity=".502"/></g></mask><clipPath id="h"><path d="m0 0h410v510h-410z"/></clipPath><mask id="i"><g filter="url(#a)"><path d="m0 0h410v510h-410z" fill-opacity=".502"/></g></mask><clipPath id="j"><path d="m0 0h410v510h-410z"/></clipPath><mask id="k"><g filter="url(#a)"><path d="m0 0h410v510h-410z" fill-opacity=".502"/></g></mask><clipPath id="l"><path d="m0 0h410v510h-410z"/></clipPath><mask id="m"><g filter="url(#a)"><path d="m0 0h410v510h-410z" fill-opacity=".502"/></g></mask><clipPath id="n"><path d="m0 0h410v510h-410z"/></clipPath><mask id="o"><g filter="url(#a)"><path d="m0 0h410v510h-410z" fill-opacity=".302"/></g></mask><clipPath id="p"><path d="m0 0h410v510h-410z"/></clipPath><mask id="q"><g filter="url(#a)"><path d="m0 0h410v510h-410z" fill-opacity=".302"/></g></mask><clipPath id="r"><path d="m0 0h410v510h-410z"/></clipPath><mask id="s"><g filter="url(#a)"><path d="m0 0h410v510h-410z" fill-opacity=".302"/></g></mask><clipPath id="t"><path d="m0 0h410v510h-410z"/></clipPath><mask id="u"><g filter="url(#a)"><path d="m0 0h410v510h-410z" fill-opacity=".302"/></g></mask><clipPath id="v"><path d="m0 0h410v510h-410z"/></clipPath><mask id="w"><g filter="url(#a)"><path d="m0 0h410v510h-410z" fill-opacity=".302"/></g></mask><clipPath id="x"><path d="m0 0h410v510h-410z"/></clipPath><mask id="y"><g filter="url(#a)"><path d="m0 0h410v510h-410z" fill-opacity=".102"/></g></mask><clipPath id="z"><path d="m0 0h410v510h-410z"/></clipPath><mask id="A"><g filter="url(#a)"><path d="m0 0h410v510h-410z" fill-opacity=".502"/></g></mask><linearGradient id="B" gradientUnits="userSpaceOnUse" x1="162.8782634" x2="210.2881988" y1="192.5046032" y2="28.7698736"><stop offset=".13" stop-color="#00afd1" stop-opacity="0"/><stop offset=".64" stop-color="#0074d1"/></linearGradient><clipPath id="C"><path d="m0 0h410v510h-410z"/></clipPath><g clip-path="url(#d)" mask="url(#b)"><path d="m350.328 462.43c-3.148-11.282-9.348-21.852-10.77-33.532-1.628-12.699 4.57-28.449 6.102-41.359a321.118 321.118 0 0 0 2.64-35.867c.41-52.133-14.23-103.242-25.812-153.64-3.148-13.723-6.5-27.544-9.86-41.25-2.64-10.36-10.769-20.223-15.75-29.673-6.398-12.289-12.089-25.097-18.8-37.289-4.777-8.742-10.566-21.03-20.316-25.101a16.022 16.022 0 0 0 -15.34 2.133c-1.524 1.117-4.57 8.058-5.793 7.109-3.59-2.77-17.07-16.973-20.117-20.422-4.532-4.988-12.32-10.84-23.442-3.687-9.48 6.097-.672 20.66-.672 21.34-.718-1.52-17.449-30.883-20.726-37.204-4.992-10.668-6.902-13.808-10.012-17.207-3.11-3.402-23.96-15.472-30.808 12.617 0 0-.204 20.852 9.546 40.891 0 0 6.692 29.242 19.532 46.55 0 0 9.39 35.083 18.922 59.231 2.296 5.828 3.988 10.758 5.25 14.899 1.43 6.101 1.738 7.18 2.027 11.562 0 .75-.059 1.5-.18 2.239h.352c.16 2.5.23 4.57.187 6.101-.218 7.918-16.258-19-17.578-22.351-5.39-13.508-10.77-27.032-16.36-40.54-4.171-10.058-10.26-17.27-16.26-26.109-11.38-16.871-13.412-54.973-37.49-60.151-29.769-6.399-25.5 31.402-21.14 48.37 12.7 49.083 44 95.11 44 146.833-.71.2-12.8-21.031-13.308-22.961-1.524-5.59 1.02-12.7-.204-18.7-1.32-6.613-2.437-13.41-4.27-19.921-3.347-11.79-11.577-28.55-23.679-33.43-12.699-5.082-20.629 2.64-19.308 14.84 1.52 13.922 3.25 25.61-.512 39.32-3.758 13.72-9.04 23.07-1.73 36.68 7.011 12.898 12.09 26.52 17.581 40.14 4.88 12.09 4.57 25.61 9.141 37.801 5.18 13.82 16.969 26.829 25.399 38.918 8.23 11.79 16.558 23.68 25.5 35.063 17.07 21.738 39.12 36.277 49.59 63.098 2.949 7.421 5.39 14.94 8.23 22.351 2.441 6.2 1.629 8.64 8.738 8.64h152.172c-4.57-2.5-2.91-30.241-4.672-36.331zm-135.93-351.27 14.23 30.82 4.75 28.801zm0 0" fill="url(#c)"/></g><g clip-path="url(#f)" mask="url(#e)"><path d="m111.078 79.559c.371-.18.692-.457.91-.809.512-.809-1.316-5.89-4.976-10.16l-.203-.09c-3.45-3.922-8.399-7.3-14.739-6.5-10.16 1.219-13.922 8.941-11.992 16.46h.113c.68 2.599 1.93 5.02 3.649 7.09l.2.31s1.12-.61 2.839-1.32c.012-.052.031-.099.05-.15 3.782-1.73 10.27-4.3 14.993-4.402 5.27 0 7.816.203 9.137-.41" fill="#fff" stroke="#000" stroke-width=".25"/></g><g clip-path="url(#h)" mask="url(#g)"><path d="m160.191 18.21c-1.73-2.25-3.41-3.87-4.703-4.062-3.758-.238-16.258-4.058-20.316 14.653.058 1.71.418 3.39 1.058 4.969-.011.082-.011.152-.02.21.321.48.65.95 1.02 1.02 1.848.09 3.7-.16 5.47-.73l11.85-3.86a21.843 21.843 0 0 1 8.77-1.558c.04.02.078.027.121.046 1.188 0 1.88.25 2.258-.136.38-.403-2.43-6.434-5.48-10.461" fill="#fff" stroke="#000" stroke-width=".25"/></g><g clip-path="url(#j)" mask="url(#i)"><path d="m269.031 84.04c-.281-3.552-4.511-13.5-9.742-12.392-5.59 1.122-12.09 6.102-10.469 8.84 0 0 2.442 6.203 4.371 7.211.118-.168.25-.36.399-.55-.11.152-.211.3-.3.453.1 0 .198.097.312.097 1.968.711 15.039-.308 15.437-3.05l-.008-.61c0 .012 0 .012 0 0zm0 0" fill="#fff" stroke="#000" stroke-width=".25"/></g><g clip-path="url(#l)" mask="url(#k)"><path d="m75.48 185.059c-.968-5.508-3.921-10.778-8.75-13.829-5.18-4.468-4.57-5.59-5.18-5.39-.609.2-1.019.61-.91 3.96.032.009.07.02.098.04-.078.8-.11 1.601-.097 2.398.609 5.692 1.828 27.742 2.34 28.762 0 0 12.09 0 13.007-8.031a25.802 25.802 0 0 0 -.199-7.418c-.11-.153-.21-.32-.309-.492zm0 0" fill="#fff" stroke="#000" stroke-width=".25"/></g><g clip-path="url(#n)" mask="url(#m)"><path d="m207.32 48.61-.629-.43c-2.722-1.25-10.652.492-14.78 5.25 0 0 2.91 13.12 13.48 13.64 3.828-1.48 10.55-4.949 10.71-5.52a5.243 5.243 0 0 0 -.55-1.19h-.07c-1.31-2.97-4.97-9.77-8.34-11.75" fill="#fff" stroke="#000" stroke-width=".25"/></g><g clip-path="url(#p)" mask="url(#o)"><path d="m122.078 161.738a31.48 31.48 0 0 1 -5.277 1.832c11.8-1.12 22.668-10.87 30.18-19.308a67.275 67.275 0 0 0 -3.051 2.539c-6.07 6.199-13.61 12.398-21.852 14.937zm-11.269-6.398c-1.739.512-3.348 1.02-5.079 1.52 8.93-1.02 20.829-4.372 27.532-10.36-1.211.71-2.434 1.32-3.653 1.93-5.3 3.37-12.41 5.691-18.8 6.91zm-.93-8.95a60.47 60.47 0 0 0 -4.16 2.641c9.652-4.883 20.62-7.32 30.691-11.48-1.64.308-3.25.71-4.988 1.12-6.992 2.638-14.512 4.68-21.543 7.72zm-8.598-6.5c-1.32.81-2.543 1.63-3.761 2.438 9.14-3.758 18.289-9.137 28.152-10.969a24.809 24.809 0 0 0 -4.774.41c-6.84 1.922-13.238 5.282-19.617 8.122zm3.047-49.89c-5.277 1.52-10.469 4.371-15.437 6.71-1.211.81-2.34 1.52-3.352 2.34 7.621-3.25 15.55-8.429 23.992-9.35-1.75-.11-3.492 0-5.203.3zm0 0"/></g><g clip-path="url(#r)" mask="url(#q)"><path d="m191.852 125.898c-1.532.18-3.082.262-4.622.23 9.48 2.173 19.91-2.608 26.91-8.847a42.697 42.697 0 0 1 -3.831 2.028c-5.387 3.863-12 6.691-18.457 6.59zm-6-15.758a49.256 49.256 0 0 0 -3.73 2.551c8.48-3.652 16.91-8.53 25.89-10.722-1.57.031-3.121.222-4.653.562-5.949 1.84-11.738 4.918-17.507 7.61zm6.378 4.489a97.74 97.74 0 0 1 -3.64 1.02c7.46.41 14.95-4.477 20.422-9.047l-3.051 1.578c-4.09 2.98-8.813 5.66-13.73 6.449zm4.399-21.059c-5.3 2.461-10.39 5.399-15.668 7.961-1.191.77-2.262 1.617-3.352 2.36 7.7-3.371 14.86-7.88 22.7-11.09-1.25.16-2.48.418-3.68.77zm-44.609-41.23c-1.09.34-2.282.672-3.348 1.101 6.7-.453 13.93-1.671 19.906-4.89l-3.297.668a50.809 50.809 0 0 1 -13.261 3.12zm-.829-5.93-2.562 1.82c5.98-2.308 11.531-5.69 17.39-8.128-1.019.109-2.03.32-3.05.539-3.848 1.847-7.79 3.988-11.778 5.77zm0 0"/></g><g clip-path="url(#t)" mask="url(#s)"><path d="m256.988 139.738-3.527.492a31.694 31.694 0 0 0 20-3.78l-3.281.75a31.446 31.446 0 0 1 -13.192 2.538zm-4.028-11.308c-1.019.558-2.089 1.218-3.05 1.761 6.102-1.671 12.43-5.082 18.84-4.64a13.14 13.14 0 0 0 -3.57-.64c-4.11.519-8.2 2.109-12.22 3.519zm4.962 6.16-2.582.66c5.332.7 11.11-1.328 15.8-3.719-.91.11-1.812.27-2.699.48a29.961 29.961 0 0 1 -10.52 2.579zm-49.872-65.219c-1.12.41-2.241.809-3.25 1.219 6.5-.711 14.02-2.238 19.31-6.2-.91.31-1.731.61-2.641.91a40.813 40.813 0 0 1 -13.418 4.071zm0 0"/></g><g clip-path="url(#v)" mask="url(#u)"><path d="m299.262 162.98c-.813 0-1.64.098-2.453.098 4.363 1.402 9 1.75 13.52 1.024-.817-.204-1.638-.313-2.438-.512-2.891.3-5.813.101-8.63-.61zm-1.703-5.808c-.899.2-1.82.406-2.739.707 5.078.2 10.07-.41 15.149 0a12.137 12.137 0 0 0 -2.649-.91c-3.36-.09-6.61.203-9.761.203zm-1.731-6.712c-.887.142-1.77.349-2.629.61 4.871.2 9.653.809 14.52.508a24.41 24.41 0 0 0 -2.54-.707c-3.14.098-6.19-.21-9.35-.41zm-33.418-55.562c-.851-.02-1.7.012-2.539.102 4.367 1.422 9.957 1.93 13.008-1.52-.559.282-1.14.52-1.738.711-2.442 1.297-5.68 1.297-8.73.707zm0 0"/></g><g clip-path="url(#x)" mask="url(#w)"><path d="m237.691 74.07s1.387 2.032 3.97 5.578c2.577 3.551 6.167 8.633 10.44 14.711 2.18 3.051 4.57 6.301 7.11 9.641.59.809 1.289 1.73 2.027 2.54.742.812 1.492 1.632 2.184 2.429 1.488 1.73 2.777 3.562 4.18 5.492 2.777 3.75 5.468 7.71 8.128 11.867.7 1.024 1.301 2.133 1.891 3.152.488 1.18.89 2.399 1.2 3.649.59 2.441 1.09 4.883 1.577 7.312 1.891 9.848 3.493 19.688 5.082 29.028 1.598 9.34 2.989 17.86 4.47 25.27.402 1.82.8 3.55 1.198 5.273.133.797.442 1.558.891 2.238.402.71.79 1.422 1.191 2.031a138.57 138.57 0 0 1 3.38 7.11c1.788 3.96 2.68 6.3 2.68 6.3s-1.02-2.34-2.892-6.203c-1.02-1.918-2.027-4.36-3.578-7-.398-.707-.789-1.308-1.191-2.027-.438-.73-.777-1.52-1.02-2.34-.5-1.633-.89-3.46-1.289-5.27-1.601-7.312-3.18-15.93-4.78-25.171-1.599-9.239-3.278-19.078-5.169-28.918-.5-2.442-1.02-4.883-1.48-7.32a18.11 18.11 0 0 0 -1.102-3.442c-.598-1.02-1.187-2.129-1.89-3.148-2.579-4.16-5.36-8.133-8.047-11.872a125.146 125.146 0 0 0 -4.18-5.492c-.703-.898-1.39-1.617-2.184-2.527-.789-.91-1.386-1.73-2.027-2.54-2.582-3.44-4.871-6.702-7.05-9.85a619.301 619.301 0 0 1 -10.161-14.923c-2.379-3.648-3.559-5.578-3.559-5.578zm-52.241-14.5c6.48 12.578 18.76 26.88 26.07 43.899 7.32 17.02 32.52 103.5 32.52 103.5l-34.759-105.34s-17.383-29.48-23.832-42.059zm0 0"/></g><g clip-path="url(#z)" mask="url(#y)"><path d="m290.61 156.621c-.419-8.23-13.32-26.93-13.32-26.93 0 .079-.04.149-.099.2 2.25 5.789 8.23 44.3 11.899 62.488l1.41 3.66c-1.121-4.77.512-31.289.11-39.418zm-50.81-10.921c-6.769-16.938-28.062-39.88-28.109-40.31 2.829 6.91 16.09 29.391 17.938 36.93.601 1.258 1.11 16.57 3.73 29.47 2.032 10.16 7.79 28.448 7.79 28.448-1.387-4.648 3.82-16.34-1.348-54.539zm-117.98 106.23c.102.68.239 1.36.41 2.03 0 0 1.52-12.089 2.75-17.17 1.23-5.08-15.242-52.33-25.011-72.962-9.758-20.629-22.66-63.61-22.66-68.687 0-3.051-1.11-10.47-2.028-15.852-1.422 10.36.61 22.66 2.64 30.48 12.298 47.461 42.188 92.25 43.9 142.16zm0 0"/><path d="m114.41 299.14c.418.41 11.29-10.968 11.29-14.84 0-3.859-3.56-22.25-3.56-27.741-.05-.887-.152-1.77-.312-2.637v2.437c-.808.2-12.797-21.03-13.308-22.96-1.52-5.59 1.02-12.7-.2-18.7-1.32-6.597-2.441-13.41-4.27-19.918-2.64-9.351-8.53-22.05-16.972-29.261l-.906-.31s17.168 27.33 18.387 42.58c1.222 15.241 2.34 23.07-.399 23.07-2.73 0-7.832 3.152-7.832 3.152s8.942.41 10.16 2.738c1.223 2.34 7.84 14.04 7.84 15.648 0 1.614 6.613 10.57 6.192 15.243-.22 4.609-1.848 24.12-6.11 31.5zm-58.86-57.921s6.2-.508 8.84-3.149c.02.04-.992 5.18-8.84 3.149zm2.56-12.457s6.199-1.024 6.199 2.636c-.399.512-6.2-2.636-6.2-2.636zm100.84-65.231c3.39 8.32 6.722 16.64 10 24.957 1.32 3.352 17.359 30.274 17.581 22.352 0-1.531 0-3.61-.191-6.102h-.352c.121-.738.184-1.488.184-2.238-.344-4.379-.64-5.469-2.031-11.559-1.262-4.14-2.961-9.062-5.25-14.902-9.532-24.148-18.922-59.23-18.922-59.23-12.84-17.27-19.528-46.547-19.528-46.547-9.75-20.043-9.55-40.89-9.55-40.89a46.039 46.039 0 0 1 1.68-5.423c1.488 11.852 5.167 38.242 8.73 41.781 2.61 2.598 4.62 2.801 5.87 2.5-1.12 1.2-2.03 4.27.368 12.13 4 12.84 11.59 30.402 13.73 31.18a49.632 49.632 0 0 0 5.27 1.448s-3.05.34-.937 9.82c2.097 9.481 20.25 52.942 23.628 64.84 3.38 11.903 4.82 33.711-3.308 29.141-8.14-4.55-20.363-30.437-26.973-53.258zm0 0"/><path d="m148.602 67.46c-.41.392-.922.661-1.473.77.371-.43.902-.71 1.473-.77zm0 0"/></g><g clip-path="url(#C)" mask="url(#A)"><path d="m233.04 168.719.339 2.031-18.738-58.93-3.95-10.558-19.992-34c.871 2.199 1.723 3.718 1.723 3.93-.723-1.52-17.453-30.883-20.73-37.204-4.993-10.668-6.903-13.808-10.012-17.207-3.11-3.402-23.93-15.472-30.809 12.617 0 0-.2 20.852 9.55 40.891 0 0 6.688 29.242 19.528 46.55 0 0 9.39 35.083 18.922 59.231 2.3 5.828 3.988 10.758 5.25 14.899 1.43 6.101 1.738 7.18 2.027 11.562 0 .75-.058 1.5-.18 2.239h.352c.16 2.5.23 4.57.192 6.101 0 1.219-.453 1.61-1.114 1.39l.192.54 55.21-15.582zm0 0" fill="url(#B)"/></g></svg>