<svg viewBox="0 0 410 510" xmlns="http://www.w3.org/2000/svg" xmlns:xlink="http://www.w3.org/1999/xlink"><filter id="a" height="100%" width="100%" x="0%" y="0%"><feColorMatrix in="SourceGraphic" values="0 0 0 0 1 0 0 0 0 1 0 0 0 0 1 0 0 0 1 0"/></filter><mask id="b"><g filter="url(#a)"><path d="m0 0h410v510h-410z" fill-opacity=".851"/></g></mask><linearGradient id="c" gradientTransform="matrix(-1 0 0 1 -63.847 0)" gradientUnits="userSpaceOnUse" x1="-268.847" x2="-268.847" y1="482.402" y2="27.598"><stop offset="0" stop-color="#fff" stop-opacity="0"/><stop offset=".427" stop-color="#d0b5b3"/><stop offset="1" stop-color="#d0b5b3"/></linearGradient><clipPath id="d"><path d="m0 0h410v510h-410z"/></clipPath><mask id="e"><g filter="url(#a)"><path d="m0 0h410v510h-410z" fill-opacity=".502"/></g></mask><clipPath id="f"><path d="m0 0h410v510h-410z"/></clipPath><mask id="g"><g filter="url(#a)"><path d="m0 0h410v510h-410z" fill-opacity=".502"/></g></mask><clipPath id="h"><path d="m0 0h410v510h-410z"/></clipPath><mask id="i"><g filter="url(#a)"><path d="m0 0h410v510h-410z" fill-opacity=".502"/></g></mask><clipPath id="j"><path d="m0 0h410v510h-410z"/></clipPath><mask id="k"><g filter="url(#a)"><path d="m0 0h410v510h-410z" fill-opacity=".502"/></g></mask><clipPath id="l"><path d="m0 0h410v510h-410z"/></clipPath><mask id="m"><g filter="url(#a)"><path d="m0 0h410v510h-410z" fill-opacity=".502"/></g></mask><clipPath id="n"><path d="m0 0h410v510h-410z"/></clipPath><mask id="o"><g filter="url(#a)"><path d="m0 0h410v510h-410z" fill-opacity=".302"/></g></mask><clipPath id="p"><path d="m0 0h410v510h-410z"/></clipPath><mask id="q"><g filter="url(#a)"><path d="m0 0h410v510h-410z" fill-opacity=".302"/></g></mask><clipPath id="r"><path d="m0 0h410v510h-410z"/></clipPath><mask id="s"><g filter="url(#a)"><path d="m0 0h410v510h-410z" fill-opacity=".302"/></g></mask><clipPath id="t"><path d="m0 0h410v510h-410z"/></clipPath><mask id="u"><g filter="url(#a)"><path d="m0 0h410v510h-410z" fill-opacity=".302"/></g></mask><clipPath id="v"><path d="m0 0h410v510h-410z"/></clipPath><mask id="w"><g filter="url(#a)"><path d="m0 0h410v510h-410z" fill-opacity=".302"/></g></mask><clipPath id="x"><path d="m0 0h410v510h-410z"/></clipPath><mask id="y"><g filter="url(#a)"><path d="m0 0h410v510h-410z" fill-opacity=".302"/></g></mask><clipPath id="z"><path d="m0 0h410v510h-410z"/></clipPath><mask id="A"><g filter="url(#a)"><path d="m0 0h410v510h-410z" fill-opacity=".302"/></g></mask><clipPath id="B"><path d="m0 0h410v510h-410z"/></clipPath><mask id="C"><g filter="url(#a)"><path d="m0 0h410v510h-410z" fill-opacity=".302"/></g></mask><clipPath id="D"><path d="m0 0h410v510h-410z"/></clipPath><mask id="E"><g filter="url(#a)"><path d="m0 0h410v510h-410z" fill-opacity=".102"/></g></mask><clipPath id="F"><path d="m0 0h410v510h-410z"/></clipPath><mask id="G"><g filter="url(#a)"><path d="m0 0h410v510h-410z" fill-opacity=".102"/></g></mask><clipPath id="H"><path d="m0 0h410v510h-410z"/></clipPath><mask id="I"><g filter="url(#a)"><path d="m0 0h410v510h-410z" fill-opacity=".102"/></g></mask><clipPath id="J"><path d="m0 0h410v510h-410z"/></clipPath><mask id="K"><g filter="url(#a)"><path d="m0 0h410v510h-410z" fill-opacity=".102"/></g></mask><clipPath id="L"><path d="m0 0h410v510h-410z"/></clipPath><mask id="M"><g filter="url(#a)"><path d="m0 0h410v510h-410z" fill-opacity=".102"/></g></mask><clipPath id="N"><path d="m0 0h410v510h-410z"/></clipPath><mask id="O"><g filter="url(#a)"><path d="m0 0h410v510h-410z" fill-opacity=".302"/></g></mask><clipPath id="P"><path d="m0 0h410v510h-410z"/></clipPath><mask id="Q"><g filter="url(#a)"><path d="m0 0h410v510h-410z" fill-opacity=".302"/></g></mask><clipPath id="R"><path d="m0 0h410v510h-410z"/></clipPath><g clip-path="url(#d)" mask="url(#b)"><path d="m137.621 36.68c3.66-4.47 20.32-6.301 24.688-2.54 5.082 4.47 9.96 11.989 15.75 15.04 1.832-22.758 23.171-28.758 38.41-11.989 3.05 3.457 15.14 21.04 20.12 20.43 1.52-.2 4.27-6 5.79-7.11 4.41-3.3 10.2-4.113 15.351-2.132 9.758 4.062 15.551 16.36 20.32 25.101 6.712 12.192 12.4 25 18.802 37.301 4.976 9.45 13.109 19.309 15.75 29.668 3.347 13.723 6.707 27.54 9.859 41.262 11.59 50.41 26.219 101.52 25.809 153.66a327.76 327.76 0 0 1 -2.641 35.867c-1.52 12.91-7.719 28.66-6.098 41.364 1.418 11.687 7.617 22.257 10.77 33.539 1.73 6.097.097 33.84 4.668 36.28h-152.099c-7.11 0-6.3-2.44-8.742-8.64-2.848-7.422-5.277-14.941-8.23-22.36-10.47-26.831-32.52-41.362-49.59-63.112-8.938-11.38-17.278-23.27-25.508-35.059-8.43-12.09-20.223-25.102-25.41-38.922-4.57-12.187-4.27-25.707-9.153-37.797-5.488-13.62-10.566-27.242-17.578-40.14-7.32-13.621-2.031-22.97 1.73-36.692 3.758-13.719 2.032-25.41.508-39.328-1.32-12.191 6.614-19.922 19.313-14.84 12.09 4.88 20.32 21.649 23.68 33.43 1.828 6.5 2.949 13.309 4.27 19.918 1.218 6-1.321 13.11.198 18.7.512 1.933 12.602 23.171 13.313 22.972 0-51.73-31.3-97.762-44-146.852-4.371-16.979-8.639-54.789 21.129-48.389 24.09 5.18 26.12 43.293 37.5 60.16 6 8.84 12.09 16.062 16.258 26.12 5.59 13.52 10.98 27.032 16.363 40.552 1.316 3.347 13.719 29.27 17.578 22.359 5.18-9.25-3.66-24.191-6.398-33.129-3.563-11.89-4.473-25.101-9.043-36.691-4.368-11.18-12.2-20.93-17.887-31.399-6.203-11.383-14.23-21.75-20.024-33.332-3.93-7.84-3.418-17.18 4.473-23.27zm0 0" fill="url(#c)"/></g><g clip-path="url(#f)" mask="url(#e)"><path d="m79.93 60.75a17.983 17.983 0 0 0 3.66 7.11l.2.3s1.12-.61 2.85-1.32c.02-.059.04-.121.06-.168 3.78-1.73 10.269-4.3 14.98-4.402 5.289 0 7.832.23 9.148-.41.371-.188.684-.47.91-.81.512-.812-1.316-5.89-4.976-10.16-5.184-2.34-11.082-4.171-15.653-3.35-7.32 1.42-10.16 9.05-11.18 13.21zm0 0" fill="#fff" stroke="#000" stroke-width=".25"/></g><g clip-path="url(#h)" mask="url(#g)"><path d="m142.328 48.39c-1.867.38-3.789.481-5.687.301-.43-.18-.79-.5-1.02-.91.3-1.73 2.129-10.37 9.25-12.8 4.367-1.52 11.18-.2 16.559 1.32 2.949 3.46 5.39 8.539 4.98 8.84-.41.3-1.12.097-2.34 0-.101-.04-.191-.07-.289-.11-3.05-.222-6.11.059-9.062.82a115.697 115.697 0 0 1 -12.39 2.54" fill="#fff" stroke="#000" stroke-width=".25"/></g><g clip-path="url(#j)" mask="url(#i)"><path d="m186.559 41.77c2.03-18.598 14.84-13.211 20.02-10.77l.35.23c.083.02.16.04.243.051 3.957 2.739 7.418 10.867 8.539 14.23h-.02c.137.387.25.79.32 1.2-.202.61-.202.41-2.85.098-1.99-.2-4.86 1.84-9.45 2.78-.07.102-.14.192-.2.29a21.584 21.584 0 0 1 -5.28.3c-5.493-.3-9.25-4.57-10.981-7.007.012-.07.031-.152.04-.242-.47-.7-.731-1.16-.731-1.16zm0 0" fill="#fff" stroke="#000" stroke-width=".25"/></g><g clip-path="url(#l)" mask="url(#k)"><path d="m259.3 55.469c5.231-1.11 9.47 8.851 9.75 12.402h.009v.61c-.41 2.75-13.547 3.769-15.45 3.05-.097 0-.199-.101-.3-.101.113-.168.23-.36.37-.54-.167.22-.327.438-.468.65-1.93-1.02-4.371-7.22-4.371-7.22-1.63-2.761 4.87-7.73 10.46-8.851zm0 0" fill="#fff" stroke="#000" stroke-width=".25"/></g><g clip-path="url(#n)" mask="url(#m)"><path d="m61.191 153.64c-.09.81-.132 1.622-.101 2.438.61 5.692 1.832 27.742 2.34 28.762 0 0 12.09 0 13.011-8.031a26.818 26.818 0 0 0 -.203-7.418c-2.449-4.172-8.27-13.391-15.047-15.75zm0 0" fill="#fff" stroke="#000" stroke-width=".25"/></g><g clip-path="url(#p)" mask="url(#o)"><path d="m122.719 146.52a32.827 32.827 0 0 1 -5.278 1.832c11.79-1.122 22.66-10.872 30.18-19.313a72.88 72.88 0 0 0 -3.05 2.54c-6.09 6.202-13.622 12.401-21.852 14.94zm-11.278-6.399-5.082 1.52c8.942-1.02 20.832-4.371 27.54-10.371-1.22.71-2.438 1.32-3.66 1.93-5.29 3.359-12.4 5.698-18.798 6.921zm-.921-8.93a60.201 60.201 0 0 0 -4.168 2.637c9.648-4.879 20.628-7.316 30.687-11.476-1.629.296-3.25.707-4.98 1.117-7.008 2.64-14.528 4.672-21.54 7.722zm-8.63-6.519c-1.32.808-2.538 1.629-3.761 2.437 9.152-3.757 18.293-9.148 28.152-10.98a24.863 24.863 0 0 0 -4.781.41c-6.809 1.93-13.21 5.29-19.61 8.133zm3.051-49.891c-5.28 1.52-10.472 4.367-15.453 6.707-1.218.813-2.34 1.524-3.347 2.34 7.62-3.25 15.55-8.43 23.98-9.348a21.316 21.316 0 0 0 -5.18.301zm0 0"/></g><g clip-path="url(#r)" mask="url(#q)"><path d="m198.02 122.04a36.58 36.58 0 0 1 -4.57-.712c8.84 4.063 20.019 1.524 28.152-3.148-1.32.41-2.743.91-4.172 1.218-6.102 2.641-13.11 4.082-19.41 2.641zm-5.18-11.18a52.591 52.591 0 0 0 -4.168 1.73c9.039-1.828 18.289-4.88 27.539-5.18a24.36 24.36 0 0 0 -4.672-.41c-6.2.602-12.5 2.43-18.7 3.86zm9.039 6.6c-1.219.099-2.54.2-3.758.2 7.219 1.93 15.55-1.32 21.848-4.672l-3.348.91c-4.582 2.141-9.762 3.762-14.742 3.563zm.211-15.32c-5.692 1.32-11.281 3.15-16.969 4.57-1.32.509-2.543 1.118-3.762 1.63 8.23-1.73 16.16-4.668 24.493-6.2a23.26 23.26 0 0 0 -3.762 0zm-37.031-38.75c-1.118.2-2.34.41-3.457.712 6.707.296 14.02-.102 20.32-2.641l-3.352.3a49.972 49.972 0 0 1 -13.511 1.63zm-12.188-3.93-2.742 1.52c6.2-1.628 12.09-4.37 18.191-6.199-1.02 0-2.03.098-3.05.2-4.04 1.43-8.2 3.128-12.399 4.48zm0 0"/></g><g clip-path="url(#t)" mask="url(#s)"><path d="m258.398 128.14h-3.558a31.598 31.598 0 0 0 20.32-1.019l-3.351.3a31.346 31.346 0 0 1 -13.41.72zm0 0"/></g><g clip-path="url(#v)" mask="url(#u)"><path d="m255.95 116.371c-1.122.41-2.24.91-3.25 1.32 6.3-.812 13.01-3.351 19.312-2.03a13.69 13.69 0 0 0 -3.461-1.122c-4.172-.027-8.442.992-12.602 1.832zm0 0"/></g><g clip-path="url(#x)" mask="url(#w)"><path d="m260.012 123.148-2.64.301c5.179 1.422 11.179.2 16.16-1.52-.923-.019-1.833.02-2.743.102a30.008 30.008 0 0 1 -10.777 1.117zm0 0"/></g><g clip-path="url(#z)" mask="url(#y)"><path d="m211.738 60.238c-1.117.41-2.238.813-3.25 1.223 6.5-.711 14.024-2.242 19.313-6.2-.91.298-1.73.61-2.64.91a41.109 41.109 0 0 1 -13.423 4.067zm0 0"/></g><g clip-path="url(#B)" mask="url(#A)"><path d="m299.95 147.738c-.81 0-1.63.102-2.438.102a29.089 29.089 0 0 0 13.52 1.02c-.813-.2-1.634-.301-2.442-.508-2.89.308-5.82.097-8.64-.614zm-1.759-5.788c-.921.19-1.84.429-2.742.71 5.082.2 10.063-.41 15.14 0-.839-.41-1.73-.71-2.64-.91-3.328-.11-6.578.2-9.758.2zm-1.703-6.7a20.31 20.31 0 0 0 -2.636.61c4.878.199 9.648.812 14.527.511-.828-.281-1.68-.52-2.54-.71-3.148.089-6.19-.212-9.35-.411zm-33.429-55.602c-.848-.02-1.7.012-2.54.102 4.372 1.422 9.961 1.93 13.012-1.52-.562.282-1.133.52-1.73.711-2.442 1.32-5.692 1.32-8.742.707zm0 0"/></g><g clip-path="url(#D)" mask="url(#C)"><path d="m178.11 49.3s1.831 2.13 5.081 5.891c3.25 3.758 7.829 9.04 13.309 15.547 5.488 6.5 11.89 13.922 18.602 22.153 1.726 2.03 3.347 4.058 5.078 6.199l1.32 1.629c.2.3.41.511.61.812l.609.91a27.13 27.13 0 0 1 1.73 3.86c2.031 5.18 3.762 10.57 5.39 15.96 3.25 10.77 6.4 21.65 9.25 31.81 2.852 10.16 5.49 19.718 8.032 27.738a86.524 86.524 0 0 0 3.758 10.87c.172.36.383.7.61 1.02.3.301.511.61.812.91.508.61 1.02 1.22 1.52 1.73a39.09 39.09 0 0 0 2.85 2.95c1.727 1.73 3.15 3.05 4.169 3.961 1.02.91 1.52 1.32 1.52 1.32s-.508-.511-1.52-1.32c-1.02-.809-2.442-2.129-4.27-3.86-1-.93-1.949-1.91-2.851-2.949-.508-.511-1.02-1.12-1.52-1.73-.3-.3-.508-.61-.808-.91-.301-.332-.54-.711-.711-1.121a85.863 85.863 0 0 1 -3.961-10.871c-1.32-4.07-2.64-8.43-4.059-13.11a652.146 652.146 0 0 1 -4.27-14.629c-2.949-10.16-6.1-21.039-9.449-31.808-1.73-5.39-3.351-10.774-5.39-15.961-.512-1.32-1.02-2.54-1.63-3.762-.202-.3-.3-.508-.51-.809a8.424 8.424 0 0 1 -.61-.808l-1.32-1.633c-1.731-2.129-3.461-4.168-5.083-6.2-6.707-8.128-13.007-15.75-18.386-22.26-10.692-12.919-17.903-21.529-17.903-21.529zm58.218 8.4s1.422 2.03 4.063 5.59c2.64 3.562 6.3 8.64 10.668 14.741 2.242 3.047 4.671 6.297 7.32 9.649.61.808 1.32 1.73 2.031 2.539.711.812 1.52 1.633 2.238 2.441 1.524 1.73 2.852 3.559 4.274 5.488 2.848 3.762 5.59 7.723 8.328 11.891.71 1.02 1.32 2.133 1.93 3.152.5 1.188.898 2.41 1.218 3.66.614 2.438 1.122 4.88 1.633 7.32 1.93 9.86 3.559 19.72 5.18 29.06 1.629 9.347 3.05 17.89 4.57 25.3.41 1.828.809 3.559 1.219 5.278.129.8.45 1.57.91 2.242.41.71.809 1.418 1.219 2.027a145.865 145.865 0 0 1 3.46 7.113c1.833 3.957 2.74 6.297 2.74 6.297s-1.02-2.34-2.95-6.199c-1.02-1.93-2.129-4.367-3.66-7.008-.41-.71-.809-1.32-1.219-2.031a9.514 9.514 0 0 1 -1.02-2.34c-.511-1.629-.91-3.46-1.32-5.281-1.629-7.32-3.25-15.957-4.879-25.2-1.633-9.25-3.351-19.109-5.281-28.96l-1.52-7.32a17.513 17.513 0 0 0 -1.12-3.458c-.61-1.02-1.22-2.132-1.93-3.152-2.64-4.168-5.489-8.129-8.23-11.89a128.504 128.504 0 0 0 -4.27-5.489c-.711-.91-1.418-1.629-2.239-2.539-.812-.91-1.421-1.73-2.03-2.543-2.641-3.457-4.981-6.707-7.22-9.86-4.37-6.097-7.93-11.277-10.37-14.937-2.423-3.652-3.743-5.582-3.743-5.582zm0 0"/></g><g clip-path="url(#F)" mask="url(#E)"><path d="m251.441 193.68a66.395 66.395 0 0 0 6.297 6.71c-11.379-25.609-17.988-76.628-19-84.25-1.02-7.831-6.199-13.011-13.52-20.831-7.32-7.829-11.988-18.188-15.14-21.848-2.437-2.852-25.098-24.691-31.2-28.66a29.352 29.352 0 0 0 -.608 4.37s37.91 45.02 43.601 52.34c5.688 7.31 25.438 87.009 29.57 92.169zm0 0"/></g><g clip-path="url(#H)" mask="url(#G)"><path d="m290.5 140.828c-.41-8.226-13.309-26.93-13.309-26.93a.36.36 0 0 1 -.101.204c2.238 5.789 8.23 44.308 11.89 62.5.91 2.34 1.418 3.66 1.418 3.66-1.117-4.774.524-31.301.102-39.434zm0 0"/></g><g clip-path="url(#J)" mask="url(#I)"><path d="m192.34 207.191c1.93-3.46.512-13.722.512-16.671 0-3.461-19.313-66.16-19.313-69.711 0-3.559-22.36-36.989-22.36-40.04 0-2.44-13.519-19.109-20.12-26.628a22.415 22.415 0 0 0 2.132 6.097c5.79 11.59 13.82 22.051 20.02 33.332 5.687 10.47 13.52 20.22 17.89 31.399 4.57 11.59 5.387 24.691 9.04 36.691 2.64 8.942 11.48 23.88 6.398 33.13-2.848 5.179-10.57-8.231-14.84-16.56.301 2.239 2.64 9.758 4.172 11.891 7.11 9.578 13 17.707 16.469 17.07zm0 0"/></g><g clip-path="url(#L)" mask="url(#K)"><path d="m121.7 236.16c.1.68.23 1.36.41 2.031 0 0 1.519-12.09 2.742-17.171 1.218-5.079-15.243-52.34-25-72.97-9.762-20.628-22.66-63.62-22.66-68.698 0-3.051-1.122-10.473-2.032-15.852-1.422 10.371.61 22.66 2.64 30.488 12.302 47.453 42.169 92.274 43.9 142.172zm0 0"/></g><g clip-path="url(#N)" mask="url(#M)"><path d="m114.25 283.41c.41.41 11.281-10.98 11.281-14.84s-3.562-22.261-3.562-27.742a22.78 22.78 0 0 0 -.297-2.637v2.438c-.813.2-12.8-21.04-13.313-22.969-1.52-5.59 1.02-12.7-.199-18.7-1.32-6.608-2.441-13.41-4.27-19.92-2.64-9.349-8.538-22.052-16.968-29.27l-.91-.301s17.168 27.34 18.386 42.582c1.223 15.238 2.34 23.07-.41 23.07-2.738 0-7.828 3.149-7.828 3.149s8.942.41 10.16 2.742c1.22 2.34 7.828 14.02 7.828 15.648 0 1.63 6.614 10.57 6.204 15.238-.16 4.582-1.801 24.09-6.102 31.512zm0 0"/></g><g clip-path="url(#P)" mask="url(#O)"><path d="m55.441 225.488s6.2-.508 8.84-3.148c.008-.012-1 5.18-8.84 3.148zm0 0"/></g><g clip-path="url(#R)" mask="url(#Q)"><path d="m57.98 212.988s6.2-1.02 6.2 2.64c-.41.513-6.2-2.64-6.2-2.64zm0 0"/></g></svg>