<svg xmlns="http://www.w3.org/2000/svg" xmlns:xlink="http://www.w3.org/1999/xlink" viewBox="0 0 410 510"><defs><filter id="a" width="100%" height="100%" x="0%" y="0%" filterUnits="objectBoundingBox"><feColorMatrix in="SourceGraphic" values="0 0 0 0 1 0 0 0 0 1 0 0 0 0 1 0 0 0 1 0"/></filter><mask id="D"><g filter="url(#a)"><path fill-opacity=".851" d="M0 0h410v510H0z"/></g></mask><linearGradient id="c" x1="-266.324" x2="-266.324" y1="482.402" y2="27.598" gradientTransform="matrix(-1 0 0 1 -61.324 0)" gradientUnits="userSpaceOnUse"><stop offset="0" stop-color="#fff" stop-opacity="0"/><stop offset=".427" stop-color="#d0b5b3"/><stop offset="1" stop-color="#d0b5b3"/></linearGradient><clipPath id="b"><path d="M0 0h410v510H0z"/></clipPath><g id="C" clip-path="url(#b)"><path fill="url(#c)" d="M137.621 36.68c3.66-4.47 20.32-6.301 24.688-2.54 5.082 4.47 9.96 11.989 15.75 15.04 1.832-22.758 23.171-28.758 38.41-11.989 3.05 3.457 15.14 21.04 20.12 20.43 1.52-.2 4.27-6 5.79-7.11 4.41-3.3 10.2-4.113 15.351-2.132 9.758 4.062 15.551 16.36 20.32 25.101 6.712 12.192 12.4 25 18.802 37.301 4.976 9.45 13.109 19.309 15.75 29.668 3.347 13.723 6.707 27.54 9.859 41.262 11.59 50.41 26.219 101.52 25.809 153.66a327.76 327.76 0 0 1-2.641 35.867c-1.52 12.91-7.719 28.66-6.098 41.364 1.418 11.687 7.617 22.257 10.77 33.539 1.73 6.097.097 33.84 4.668 36.28H202.87c-7.11 0-6.3-2.44-8.742-8.64-2.848-7.422-5.277-14.941-8.23-22.36-10.47-26.831-32.52-41.362-49.59-63.112-8.938-11.38-17.278-23.27-25.508-35.059-8.43-12.09-20.223-25.102-25.41-38.922-4.57-12.187-4.27-25.707-9.153-37.797-5.488-13.62-10.566-27.242-17.578-40.14-7.32-13.621-2.031-22.97 1.73-36.692 3.758-13.719 2.032-25.41.508-39.328-1.32-12.191 6.614-19.922 19.313-14.84 12.09 4.88 20.32 21.649 23.68 33.43 1.828 6.5 2.949 13.309 4.27 19.918 1.218 6-1.321 13.11.198 18.7.512 1.933 12.602 23.171 13.313 22.972 0-51.73-31.3-97.762-44-146.852C73.3 76.72 69.032 38.91 98.8 45.31c24.09 5.18 26.12 43.293 37.5 60.16 6 8.84 12.09 16.062 16.258 26.12 5.59 13.52 10.98 27.032 16.363 40.552 1.316 3.347 13.719 29.27 17.578 22.359 5.18-9.25-3.66-24.191-6.398-33.129-3.563-11.89-4.473-25.101-9.043-36.691-4.368-11.18-12.188-20.93-17.887-31.399-6.203-11.383-14.23-21.75-20.024-33.332-3.93-7.84-3.418-17.18 4.473-23.27zm0 0"/></g><mask id="F"><g filter="url(#a)"><path fill-opacity=".502" d="M0 0h410v510H0z"/></g></mask><clipPath id="d"><path d="M0 0h410v510H0z"/></clipPath><g id="E" clip-path="url(#d)"><path fill="#fff" stroke="#000" stroke-width=".25" d="M78.96 62.05a17.882 17.882 0 0 0 3.661 7.11l.2.3s1.12-.608 2.85-1.32c.02-.062.04-.12.06-.171 3.78-1.73 10.269-4.297 14.98-4.399 5.289 0 7.828.23 9.148-.41.371-.191.68-.469.91-.808.512-.813-1.32-5.891-4.98-10.16-.059-.02-.11-.051-.168-.07-3.45-3.93-8.41-7.34-14.77-6.532-10.16 1.219-13.921 8.941-11.992 16.46"/></g><mask id="H"><g filter="url(#a)"><path fill-opacity=".502" d="M0 0h410v510H0z"/></g></mask><clipPath id="e"><path d="M0 0h410v510H0z"/></clipPath><g id="G" clip-path="url(#e)"><path fill="#fff" stroke="#000" stroke-width=".25" d="M161.441 37.488c-1.632-1.93-3.25-3.347-4.57-3.558-3.86-.41-16.46-4.168-21.95 10.87a9.362 9.362 0 0 0 .74 4.098c-.013.063-.02.122-.032.172a2 2 0 0 0 1.02.91c1.902.168 3.82.07 5.69-.3m-.01.011a116.515 116.515 0 0 0 12.401-2.543c2.961-.77 6.02-1.039 9.06-.82.1.043.19.07.288.113 1.223.098 1.934.297 2.344 0 .406-.3-2.031-5.39-4.98-8.84m-25.32 9.36"/></g><mask id="J"><g filter="url(#a)"><path fill-opacity=".502" d="M0 0h410v510H0z"/></g></mask><clipPath id="f"><path d="M0 0h410v510H0z"/></clipPath><g id="I" clip-path="url(#f)"><path fill="#fff" stroke="#000" stroke-width=".25" d="M215.7 45.512c-1.122-3.352-4.571-11.48-8.54-14.23l-.91-.61c-5.18-2.442-17.988-7.832-20.02 10.77 0 0 .38.66 1.04 1.609-.008.039-.02.078-.02.12 1.73 2.438 5.488 6.708 10.98 7.009 1.758.11 3.52.011 5.25-.301a.975.975 0 0 1-.07.101c4.781-.91 7.719-3.05 9.762-2.851 2.637.3 2.637.512 2.848-.098a6.234 6.234 0 0 0-.41-1.422m-8.45-14.328"/></g><mask id="L"><g filter="url(#a)"><path fill-opacity=".502" d="M0 0h410v510H0z"/></g></mask><clipPath id="g"><path d="M0 0h410v510H0z"/></clipPath><g id="K" clip-path="url(#g)"><path fill="#fff" stroke="#000" stroke-width=".25" d="M259.3 55.469c5.231-1.11 9.47 8.851 9.75 12.402h.009v.61c-.41 2.75-13.547 3.769-15.45 3.05-.097 0-.199-.101-.3-.101.113-.168.23-.36.37-.54-.167.22-.327.438-.468.65-1.93-1.02-4.371-7.22-4.371-7.22-1.63-2.761 4.87-7.742 10.46-8.851zm0 0"/></g><mask id="N"><g filter="url(#a)"><path fill-opacity=".502" d="M0 0h410v510H0z"/></g></mask><clipPath id="h"><path d="M0 0h410v510H0z"/></clipPath><g id="M" clip-path="url(#h)"><path fill="#fff" stroke="#000" stroke-width=".25" d="M60.621 153.64c-.101-3.35.3-3.761.91-3.96.61-.2 0 .91 5.18 5.39 4.828 3.059 7.719 8.32 8.75 13.82.098.169.2.348.3.508.419 2.454.489 4.954.2 7.422-.91 8.032-13.012 8.032-13.012 8.032-.508-1.024-1.73-23.07-2.34-28.762-.03-.8.012-1.61.102-2.399-.02-.03-.05-.043-.09-.05zm0 0"/></g><mask id="P"><g filter="url(#a)"><path fill-opacity=".302" d="M0 0h410v510H0z"/></g></mask><clipPath id="i"><path d="M0 0h410v510H0z"/></clipPath><g id="O" clip-path="url(#i)"><path d="M122.719 146.52a32.827 32.827 0 0 1-5.278 1.832c11.79-1.122 22.66-10.872 30.18-19.313a72.88 72.88 0 0 0-3.05 2.54c-6.09 6.202-13.622 12.401-21.852 14.94zm0 0M111.441 140.121l-5.082 1.52c8.942-1.02 20.832-4.371 27.54-10.371-1.22.71-2.438 1.32-3.66 1.93-5.29 3.359-12.4 5.698-18.798 6.921zm0 0M110.52 131.191a60.201 60.201 0 0 0-4.168 2.637c9.648-4.879 20.628-7.316 30.687-11.476-1.629.296-3.25.707-4.98 1.117-7.008 2.64-14.528 4.672-21.54 7.722zm0 0M101.89 124.672c-1.32.808-2.538 1.629-3.761 2.437 9.152-3.757 18.293-9.148 28.152-10.98a24.863 24.863 0 0 0-4.781.41c-6.809 1.93-13.21 5.29-19.61 8.133zm0 0M104.941 74.781c-5.28 1.52-10.472 4.367-15.453 6.707-1.218.813-2.34 1.524-3.347 2.34 7.62-3.25 15.55-8.43 23.98-9.348a21.316 21.316 0 0 0-5.18.301zm0 0"/></g><mask id="R"><g filter="url(#a)"><path fill-opacity=".302" d="M0 0h410v510H0z"/></g></mask><linearGradient id="k" x1="-283.17" x2="-254.562" y1="120.782" y2="120.782" gradientTransform="matrix(-1 0 0 1 -61.324 0)" gradientUnits="userSpaceOnUse"><stop offset="0" stop-color="#fff"/><stop offset="1"/></linearGradient><linearGradient id="l" x1="-277.626" x2="-249.785" y1="109.79" y2="109.79" gradientTransform="matrix(-1 0 0 1 -61.324 0)" gradientUnits="userSpaceOnUse"><stop offset="0" stop-color="#fff"/><stop offset="1"/></linearGradient><linearGradient id="m" x1="-281.53" x2="-259.316" y1="115.622" y2="115.622" gradientTransform="matrix(-1 0 0 1 -61.324 0)" gradientUnits="userSpaceOnUse"><stop offset="0" stop-color="#fff"/><stop offset="1"/></linearGradient><linearGradient id="n" x1="-267.259" x2="-242.485" y1="105.199" y2="105.199" gradientTransform="matrix(-1 0 0 1 -61.324 0)" gradientUnits="userSpaceOnUse"><stop offset="0" stop-color="#fff"/><stop offset="1"/></linearGradient><linearGradient id="o" x1="-243.444" x2="-222.8" y1="62.829" y2="62.829" gradientTransform="matrix(-1 0 0 1 -61.324 0)" gradientUnits="userSpaceOnUse"><stop offset="0" stop-color="#fff"/><stop offset="1"/></linearGradient><linearGradient id="p" x1="-229.783" x2="-211.205" y1="57.878" y2="57.878" gradientTransform="matrix(-1 0 0 1 -61.324 0)" gradientUnits="userSpaceOnUse"><stop offset="0" stop-color="#fff"/><stop offset="1"/></linearGradient><clipPath id="j"><path d="M0 0h410v510H0z"/></clipPath><g id="Q" clip-path="url(#j)"><path stroke="url(#k)" d="M198.02 122.04a36.58 36.58 0 0 1-4.57-.712c8.84 4.063 20.019 1.524 28.152-3.148-1.32.41-2.743.91-4.172 1.218-6.102 2.641-13.11 4.082-19.41 2.641zm0 0"/><path stroke="url(#l)" d="M192.84 110.86a52.591 52.591 0 0 0-4.168 1.73c9.039-1.828 18.289-4.88 27.539-5.18a24.36 24.36 0 0 0-4.672-.41c-6.2.602-12.5 2.43-18.7 3.86zm0 0"/><path stroke="url(#m)" d="M201.879 117.46c-1.219.099-2.54.2-3.758.2 7.219 1.93 15.55-1.32 21.848-4.672l-3.348.91c-4.582 2.141-9.762 3.762-14.742 3.563zm0 0"/><path stroke="url(#n)" d="M202.09 102.14c-5.692 1.32-11.281 3.15-16.969 4.57-1.32.509-2.543 1.118-3.762 1.63 8.23-1.73 16.16-4.668 24.493-6.2a23.26 23.26 0 0 0-3.762 0zm0 0"/><path stroke="url(#o)" d="M165.059 63.39c-1.118.2-2.34.41-3.457.712 6.707.296 14.02-.102 20.32-2.641l-3.352.3a49.972 49.972 0 0 1-13.511 1.63zm0 0"/><path stroke="url(#p)" d="M152.871 59.46l-2.742 1.52c6.2-1.628 12.09-4.37 18.191-6.199-1.02 0-2.03.098-3.05.2-4.04 1.43-8.2 3.128-12.399 4.48zm0 0"/></g><mask id="T"><g filter="url(#a)"><path fill-opacity=".302" d="M0 0h410v510H0z"/></g></mask><clipPath id="q"><path d="M0 0h410v510H0z"/></clipPath><g id="S" clip-path="url(#q)"><path d="M258.398 128.14h-3.558a31.598 31.598 0 0 0 20.32-1.019l-3.351.3a31.346 31.346 0 0 1-13.41.72zm0 0M255.95 116.371c-1.122.41-2.24.91-3.25 1.32 6.3-.812 13.01-3.351 19.312-2.03a13.69 13.69 0 0 0-3.461-1.122c-4.172-.027-8.442.992-12.602 1.832zm0 0M260.012 123.148l-2.64.301c5.179 1.422 11.179.2 16.16-1.52-.923-.019-1.833.02-2.743.102a30.008 30.008 0 0 1-10.777 1.117zm0 0M211.738 60.238c-1.117.41-2.238.813-3.25 1.223 6.5-.711 14.024-2.242 19.313-6.2-.91.298-1.73.61-2.64.91a41.109 41.109 0 0 1-13.423 4.067zm0 0"/></g><mask id="V"><g filter="url(#a)"><path fill-opacity=".302" d="M0 0h410v510H0z"/></g></mask><clipPath id="r"><path d="M0 0h410v510H0z"/></clipPath><g id="U" clip-path="url(#r)"><path d="M299.95 147.738c-.81 0-1.63.102-2.438.102a29.089 29.089 0 0 0 13.52 1.02c-.813-.2-1.634-.301-2.442-.508-2.89.308-5.82.097-8.64-.614zm0 0M298.191 141.95c-.921.19-1.84.429-2.742.71 5.082.2 10.063-.41 15.14 0-.839-.41-1.73-.71-2.64-.91-3.328-.11-6.578.2-9.758.2zm0 0M296.488 135.25a20.31 20.31 0 0 0-2.636.61c4.878.199 9.648.812 14.527.511-.828-.281-1.68-.52-2.54-.71-3.148.089-6.198-.212-9.35-.411zm0 0M263.059 79.648c-.848-.02-1.7.012-2.54.102 4.372 1.422 9.961 1.93 13.012-1.52-.562.282-1.133.52-1.73.711-2.442 1.32-5.692 1.32-8.742.707zm0 0"/></g><mask id="X"><g filter="url(#a)"><path fill-opacity=".302" d="M0 0h410v510H0z"/></g></mask><clipPath id="s"><path d="M0 0h410v510H0z"/></clipPath><g id="W" clip-path="url(#s)"><path d="M178.11 49.3s1.831 2.13 5.081 5.891c3.25 3.758 7.829 9.04 13.309 15.547 5.488 6.5 11.89 13.922 18.602 22.153 1.726 2.03 3.347 4.058 5.078 6.199l1.32 1.629c.2.3.41.511.61.812l.609.91a27.13 27.13 0 0 1 1.73 3.86c2.031 5.18 3.762 10.57 5.39 15.96 3.25 10.77 6.4 21.65 9.25 31.81 2.852 10.16 5.49 19.718 8.032 27.738a86.524 86.524 0 0 0 3.758 10.87c.172.36.383.7.61 1.02.3.301.511.61.812.91.508.61 1.02 1.22 1.52 1.73a39.09 39.09 0 0 0 2.85 2.95c1.727 1.73 3.15 3.05 4.169 3.961 1.02.91 1.52 1.32 1.52 1.32s-.508-.511-1.52-1.32c-1.02-.809-2.442-2.129-4.27-3.86-1-.93-1.949-1.91-2.851-2.949-.508-.511-1.02-1.12-1.52-1.73-.3-.3-.508-.61-.808-.91-.301-.332-.54-.711-.711-1.121a85.863 85.863 0 0 1-3.961-10.871c-1.32-4.059-2.64-8.43-4.059-13.11a652.146 652.146 0 0 1-4.27-14.629c-2.949-10.16-6.1-21.039-9.449-31.808-1.73-5.39-3.351-10.774-5.39-15.961-.512-1.32-1.02-2.54-1.63-3.762-.202-.3-.3-.508-.51-.809a8.424 8.424 0 0 1-.61-.808l-1.32-1.633c-1.731-2.129-3.461-4.168-5.083-6.2-6.707-8.128-13.007-15.75-18.386-22.26C185.32 57.91 178.109 49.3 178.109 49.3zm0 0M236.328 57.7s1.422 2.03 4.07 5.59c2.641 3.562 6.301 8.64 10.672 14.741 2.239 3.047 4.668 6.297 7.32 9.649.61.808 1.32 1.73 2.032 2.539.707.812 1.52 1.633 2.238 2.441 1.52 1.73 2.852 3.559 4.27 5.488 2.851 3.762 5.59 7.723 8.332 11.891.707 1.02 1.316 2.133 1.93 3.152.5 1.188.91 2.41 1.218 3.66.61 2.438 1.121 4.88 1.63 7.32 1.929 9.86 3.562 19.72 5.179 29.06 1.633 9.347 3.05 17.89 4.57 25.3.41 1.828.813 3.559 1.223 5.278.129.8.449 1.57.91 2.242.406.71.808 1.418 1.219 2.027a153.456 153.456 0 0 1 3.46 7.113c1.829 3.957 2.739 6.297 2.739 6.297s-1.02-2.34-2.95-6.199c-1.019-1.93-2.128-4.367-3.66-7.008-.41-.71-.808-1.32-1.218-2.031a9.526 9.526 0 0 1-1.024-2.34c-.508-1.629-.91-3.46-1.316-5.281-1.633-7.32-3.25-15.957-4.883-25.2-1.629-9.25-3.348-19.109-5.277-28.96l-1.524-7.32a17.762 17.762 0 0 0-1.117-3.458c-.61-1.02-1.223-2.132-1.93-3.152-2.64-4.168-5.492-8.129-8.23-11.89a135.144 135.144 0 0 0-4.27-5.489c-.71-.91-1.421-1.629-2.242-2.539-.808-.91-1.418-1.73-2.027-2.543-2.64-3.457-4.98-6.707-7.223-9.86-4.37-6.097-7.93-11.277-10.37-14.937-2.43-3.652-3.75-5.582-3.75-5.582zm0 0"/></g><mask id="Z"><g filter="url(#a)"><path fill-opacity=".102" d="M0 0h410v510H0z"/></g></mask><clipPath id="t"><path d="M0 0h410v510H0z"/></clipPath><g id="Y" clip-path="url(#t)"><path d="M251.441 193.68a66.395 66.395 0 0 0 6.297 6.71c-11.379-25.609-17.988-76.62-19-84.25-1.02-7.831-6.199-13.011-13.52-20.831-7.32-7.82-11.988-18.188-15.14-21.848-2.437-2.852-25.098-24.691-31.2-28.66a29.352 29.352 0 0 0-.608 4.37s37.91 45.02 43.601 52.34c5.688 7.31 25.438 87.009 29.57 92.169zm0 0"/></g><mask id="ab"><g filter="url(#a)"><path fill-opacity=".102" d="M0 0h410v510H0z"/></g></mask><clipPath id="u"><path d="M0 0h410v510H0z"/></clipPath><g id="aa" clip-path="url(#u)"><path d="M290.5 140.828c-.41-8.226-13.309-26.93-13.309-26.93a.36.36 0 0 1-.101.204c2.238 5.789 8.23 44.308 11.89 62.5.91 2.34 1.418 3.66 1.418 3.66-1.117-4.774.524-31.301.102-39.434zm0 0"/></g><mask id="ad"><g filter="url(#a)"><path fill-opacity=".102" d="M0 0h410v510H0z"/></g></mask><clipPath id="v"><path d="M0 0h410v510H0z"/></clipPath><g id="ac" clip-path="url(#v)"><path d="M192.34 207.191c1.93-3.46.512-13.722.512-16.671 0-3.461-19.313-66.16-19.313-69.711 0-3.547-22.36-36.989-22.36-40.04 0-2.44-13.519-19.109-20.12-26.628a22.415 22.415 0 0 0 2.132 6.097c5.79 11.59 13.82 22.051 20.02 33.332 5.687 10.47 13.52 20.22 17.89 31.399 4.57 11.59 5.387 24.691 9.04 36.691 2.64 8.942 11.48 23.88 6.398 33.13-2.848 5.179-10.57-8.231-14.84-16.56.301 2.239 2.64 9.758 4.172 11.891 7.11 9.578 13 17.707 16.469 17.07zm0 0"/></g><mask id="af"><g filter="url(#a)"><path fill-opacity=".102" d="M0 0h410v510H0z"/></g></mask><clipPath id="w"><path d="M0 0h410v510H0z"/></clipPath><g id="ae" clip-path="url(#w)"><path d="M121.7 236.16c.1.68.23 1.36.41 2.031 0 0 1.519-12.09 2.742-17.171 1.218-5.079-15.243-52.34-25-72.97-9.762-20.628-22.66-63.62-22.66-68.698 0-3.051-1.122-10.473-2.032-15.852-1.422 10.371.61 22.66 2.64 30.488 12.302 47.453 42.169 92.274 43.9 142.172zm0 0"/></g><mask id="ah"><g filter="url(#a)"><path fill-opacity=".102" d="M0 0h410v510H0z"/></g></mask><clipPath id="x"><path d="M0 0h410v510H0z"/></clipPath><g id="ag" clip-path="url(#x)"><path d="M114.25 283.41c.41.41 11.281-10.98 11.281-14.84 0-3.86-3.562-22.261-3.562-27.742a22.78 22.78 0 0 0-.297-2.637v2.438c-.813.2-12.8-21.04-13.313-22.969-1.52-5.59 1.02-12.7-.199-18.7-1.32-6.608-2.441-13.41-4.27-19.92-2.64-9.349-8.538-22.052-16.968-29.27l-.91-.301s17.168 27.34 18.386 42.582c1.223 15.238 2.34 23.07-.41 23.07-2.738 0-7.828 3.149-7.828 3.149s8.942.41 10.16 2.742c1.22 2.34 7.828 14.02 7.828 15.648 0 1.63 6.614 10.57 6.204 15.238-.16 4.582-1.801 24.09-6.102 31.512zm0 0"/></g><mask id="aj"><g filter="url(#a)"><path fill-opacity=".302" d="M0 0h410v510H0z"/></g></mask><clipPath id="y"><path d="M0 0h410v510H0z"/></clipPath><g id="ai" clip-path="url(#y)"><path d="M55.441 225.488s6.2-.508 8.84-3.148c.008-.012-1 5.18-8.84 3.148zm0 0"/></g><mask id="al"><g filter="url(#a)"><path fill-opacity=".302" d="M0 0h410v510H0z"/></g></mask><clipPath id="z"><path d="M0 0h410v510H0z"/></clipPath><g id="ak" clip-path="url(#z)"><path d="M57.98 212.988s6.2-1.02 6.2 2.64c-.41.513-6.2-2.64-6.2-2.64zm0 0"/></g><mask id="an"><g filter="url(#a)"><path fill-opacity=".502" d="M0 0h410v510H0z"/></g></mask><linearGradient id="B" x1="-1223.283" x2="-1223.283" y1="2625.373" y2="2573.496" gradientTransform="translate(4027.679 -8039.61) scale(3.1362)" gradientUnits="userSpaceOnUse"><stop offset="0" stop-color="#00afd1" stop-opacity="0"/><stop offset=".64" stop-color="#0074d1"/></linearGradient><clipPath id="A"><path d="M0 0h410v510H0z"/></clipPath><g id="am" clip-path="url(#A)"><path fill="url(#B)" d="M221.809 101.602c-5.688-7.32-43.598-52.34-43.598-52.34-5.79-3.153-10.77-10.672-15.75-15.043a9.672 9.672 0 0 0-4.57-1.73 5.064 5.064 0 0 0-1.121-.41c-2.95-.298-10.872-2.54-16.97 2.952a6.834 6.834 0 0 0-2.128 1.63 17.065 17.065 0 0 0-6.5 17.48c0 .199.098.3.098.507.101.41.101.711.199 1.024.05.18.12.348.203.508.098.199.2.71.297 1.02.101.3.21.472.3.71.083.281.18.55.301.809.192.531.43 1.043.711 1.52 3.66 7.222 8.13 14.023 12.5 20.933 2.64 4.066 5.18 8.226 7.52 12.5l3.347 5.789c2.743 4.469 5.692 8.937 8.43 13.52a80.402 80.402 0 0 1 6.102 12.09c2.539 6.5 3.96 13.519 5.28 20.53.2.81.302 1.52.509 2.34.91 4.668 1.93 9.348 3.25 13.82 1.222 3.86 3.562 8.938 5.39 14.227.282.73.52 1.48.711 2.242a34.168 34.168 0 0 1 1.828 10.57c11.383 1.52 36.692 3.462 63.524 5.278-.102-.098-.203-.2-.203-.297-4.16-5.261-23.98-84.953-29.66-92.18zm0 0"/></g></defs><use mask="url(#D)" xlink:href="#C"/><use mask="url(#F)" xlink:href="#E"/><use mask="url(#H)" xlink:href="#G"/><use mask="url(#J)" xlink:href="#I"/><use mask="url(#L)" xlink:href="#K"/><use mask="url(#N)" xlink:href="#M"/><use mask="url(#P)" xlink:href="#O"/><use mask="url(#R)" xlink:href="#Q"/><use mask="url(#T)" xlink:href="#S"/><use mask="url(#V)" xlink:href="#U"/><use mask="url(#X)" xlink:href="#W"/><use mask="url(#Z)" xlink:href="#Y"/><use mask="url(#ab)" xlink:href="#aa"/><use mask="url(#ad)" xlink:href="#ac"/><use mask="url(#af)" xlink:href="#ae"/><use mask="url(#ah)" xlink:href="#ag"/><use mask="url(#aj)" xlink:href="#ai"/><use mask="url(#al)" xlink:href="#ak"/><use mask="url(#an)" xlink:href="#am"/></svg>