<svg xmlns="http://www.w3.org/2000/svg" xmlns:xlink="http://www.w3.org/1999/xlink" viewBox="0 0 410 510"><defs><filter id="a" width="100%" height="100%" x="0%" y="0%" filterUnits="objectBoundingBox"><feColorMatrix in="SourceGraphic" values="0 0 0 0 1 0 0 0 0 1 0 0 0 0 1 0 0 0 1 0"/></filter><mask id="x"><g filter="url(#a)"><path fill-opacity=".851" d="M0 0h410v510H0z"/></g></mask><linearGradient id="c" x1="-276.539" x2="-276.539" y1="482.411" y2="27.606" gradientTransform="matrix(-1 0 0 1 -71.54 0)" gradientUnits="userSpaceOnUse"><stop offset="0" stop-color="#fff" stop-opacity="0"/><stop offset=".427" stop-color="#d0b5b3"/><stop offset="1" stop-color="#d0b5b3"/></linearGradient><clipPath id="b"><path d="M0 0h410v510H0z"/></clipPath><g id="w" clip-path="url(#b)"><path fill="url(#c)" d="M137.621 36.691c3.66-4.472 20.32-6.3 24.688-2.543 5.082 4.473 9.96 11.993 15.75 15.043C179.89 26.43 201.23 20.43 216.469 37.2c3.05 3.461 15.14 21.04 20.12 20.43 1.52-.2 4.27-6 5.79-7.11 4.41-3.3 10.2-4.109 15.351-2.128 9.758 4.058 15.551 16.359 20.32 25.097 6.712 12.192 12.4 25 18.802 37.301 4.976 9.45 13.109 19.313 15.75 29.672 3.347 13.719 6.707 27.539 9.859 41.258 11.59 50.41 26.219 101.52 25.809 153.66a327.83 327.83 0 0 1-2.641 35.871c-1.52 12.91-7.719 28.66-6.098 41.36 1.418 11.69 7.617 22.261 10.77 33.538 1.73 6.102.097 33.84 4.668 36.282H202.87c-7.11 0-6.3-2.442-8.742-8.64-2.848-7.419-5.277-14.938-8.23-22.36-10.47-26.828-32.52-41.36-49.59-63.11-8.938-11.379-17.278-23.27-25.508-35.058-8.43-12.09-20.223-25.102-25.41-38.922-4.57-12.192-4.27-25.711-9.153-37.8-5.488-13.618-10.566-27.24-17.578-40.142-7.32-13.617-2.031-22.968 1.73-36.687 3.758-13.723 2.032-25.41.508-39.332-1.32-12.2 6.614-19.918 19.313-14.84 12.09 4.883 20.32 21.652 23.68 33.43 1.828 6.5 2.949 13.312 4.27 19.922 1.218 6-1.321 13.109.198 18.699.512 1.93 12.602 23.172 13.313 22.969 0-51.73-31.3-97.758-44-146.848C73.3 76.73 69.032 38.92 98.8 45.32c24.078 5.179 26.12 43.288 37.5 60.16 6 8.84 12.09 16.058 16.258 26.12 5.59 13.52 10.98 27.028 16.363 40.547 1.316 3.352 13.719 29.274 17.578 22.364 5.18-9.25-3.66-24.192-6.398-33.133-3.563-11.89-4.473-25.098-9.043-36.688-4.368-11.18-12.188-20.93-17.887-31.402-6.203-11.379-14.23-21.75-20.024-33.328-3.93-7.84-3.418-17.18 4.473-23.27zm0 0"/></g><mask id="z"><g filter="url(#a)"><path fill-opacity=".502" d="M0 0h410v510H0z"/></g></mask><clipPath id="d"><path d="M0 0h410v510H0z"/></clipPath><g id="y" clip-path="url(#d)"><path fill="#fff" stroke="#000" stroke-width=".25" d="M79.93 60.762a18.009 18.009 0 0 0 3.66 7.11l.2.3s1.12-.613 2.85-1.32c.02-.063.04-.122.06-.172 3.78-1.73 10.269-4.301 14.98-4.399 5.289 0 7.832.23 9.148-.41.371-.191.684-.473.91-.812.512-.809-1.316-5.887-4.976-10.16-.063-.02-.114-.047-.172-.07-3.45-3.93-8.41-7.34-14.77-6.528-10.16 1.219-13.922 8.937-11.992 16.46"/></g><mask id="B"><g filter="url(#a)"><path fill-opacity=".502" d="M0 0h410v510H0z"/></g></mask><clipPath id="e"><path d="M0 0h410v510H0z"/></clipPath><g id="A" clip-path="url(#e)"><path fill="#fff" stroke="#000" stroke-width=".25" d="M142.328 47.75a116.5 116.5 0 0 0 12.402-2.54c2.961-.769 6.02-1.038 9.06-.82.1.04.19.07.288.11 1.223.102 1.934.3 2.344 0 .406-.3-2.031-5.39-4.98-8.84m0-.101c-1.633-1.93-3.25-3.348-4.57-3.559-3.86-.41-16.462-4.172-21.95 10.871a9.362 9.362 0 0 0 .738 4.098c-.012.062-.02.12-.031.172a2 2 0 0 0 1.02.91c1.902.168 3.82.07 5.69-.301"/></g><mask id="D"><g filter="url(#a)"><path fill-opacity=".502" d="M0 0h410v510H0z"/></g></mask><clipPath id="f"><path d="M0 0h410v510H0z"/></clipPath><g id="C" clip-path="url(#f)"><path fill="#fff" stroke="#000" stroke-width=".25" d="M215.7 45.52c-1.122-3.348-4.571-11.48-8.54-14.23l-.91-.61c-5.18-2.442-17.988-7.828-20.02 10.77 0 0 .38.66 1.04 1.609-.008.043-.02.082-.02.12 1.73 2.442 5.488 6.712 10.98 7.012 1.758.11 3.52.008 5.25-.3a.97.97 0 0 1-.07.097c4.781-.91 7.719-3.047 9.762-2.847 2.637.3 2.637.507 2.848-.102a6.203 6.203 0 0 0-.41-1.418m-8.45-14.332"/></g><mask id="F"><g filter="url(#a)"><path fill-opacity=".502" d="M0 0h410v510H0z"/></g></mask><clipPath id="g"><path d="M0 0h410v510H0z"/></clipPath><g id="E" clip-path="url(#g)"><path fill="#fff" stroke="#000" stroke-width=".25" d="M259.3 55.48c5.231-1.109 9.47 8.848 9.75 12.399h.009v.61c-.41 2.75-13.547 3.773-15.45 3.05-.097 0-.199-.098-.3-.098.113-.171.23-.363.37-.543-.167.223-.327.442-.468.653-1.93-1.02-4.371-7.223-4.371-7.223-1.63-2.758 4.87-7.738 10.46-8.848zm0 0"/></g><mask id="H"><g filter="url(#a)"><path fill-opacity=".502" d="M0 0h410v510H0z"/></g></mask><clipPath id="h"><path d="M0 0h410v510H0z"/></clipPath><g id="G" clip-path="url(#h)"><path fill="#fff" stroke="#000" stroke-width=".25" d="M60.621 153.648c-.101-3.347.3-3.757.91-3.957.61-.203 0 .91 5.18 5.387 4.828 3.063 7.719 8.32 8.75 13.82.098.172.2.352.3.512.419 2.45.489 4.95.2 7.418-.91 8.031-13.012 8.031-13.012 8.031-.508-1.02-1.73-23.07-2.34-28.757-.03-.801.012-1.614.102-2.403-.02-.027-.05-.039-.09-.05zm0 0"/></g><mask id="J"><g filter="url(#a)"><path fill-opacity=".302" d="M0 0h410v510H0z"/></g></mask><clipPath id="i"><path d="M0 0h410v510H0z"/></clipPath><g id="I" clip-path="url(#i)"><path d="M122.719 146.531a33.197 33.197 0 0 1-5.278 1.828c11.79-1.12 22.66-10.87 30.18-19.308a67.275 67.275 0 0 0-3.05 2.539c-6.09 6.2-13.622 12.398-21.852 14.941zm0 0M111.441 140.129l-5.082 1.52c8.942-1.02 20.832-4.368 27.54-10.368-1.22.707-2.438 1.32-3.66 1.93-5.29 3.36-12.4 5.7-18.798 6.918zm0 0M110.52 131.2a60.243 60.243 0 0 0-4.168 2.64c9.648-4.88 20.628-7.32 30.687-11.48-1.629.3-3.25.71-4.98 1.12-7.008 2.63-14.528 4.668-21.54 7.72zm0 0M101.89 124.68c-1.32.808-2.538 1.629-3.761 2.441 9.152-3.762 18.293-9.152 28.152-10.98a24.863 24.863 0 0 0-4.781.41c-6.809 1.93-13.21 5.289-19.61 8.129zm0 0M104.941 74.781c-5.28 1.52-10.472 4.367-15.453 6.707-1.218.813-2.34 1.524-3.347 2.34 7.62-3.25 15.55-8.43 23.98-9.348a22.34 22.34 0 0 0-5.18.301zm0 0"/></g><mask id="L"><g filter="url(#a)"><path fill-opacity=".302" d="M0 0h410v510H0z"/></g></mask><clipPath id="j"><path d="M0 0h410v510H0z"/></clipPath><g id="K" clip-path="url(#j)"><path d="M198.02 122.05a36.58 36.58 0 0 1-4.57-.71c8.84 4.07 20.019 1.52 28.152-3.149-1.32.41-2.743.91-4.172 1.22-6.102 2.64-13.11 4.077-19.41 2.64zm0 0M192.84 110.871a49.81 49.81 0 0 0-4.168 1.73c9.039-1.831 18.289-4.882 27.539-5.18a24.05 24.05 0 0 0-4.672-.41c-6.2.598-12.5 2.43-18.7 3.86zm0 0M201.879 117.469c-1.219.101-2.54.203-3.758.203 7.219 1.93 15.55-1.32 21.848-4.672l-3.348.91c-4.582 2.13-9.762 3.762-14.742 3.559zm0 0M202.09 102.148c-5.692 1.32-11.281 3.153-16.969 4.57-1.32.512-2.543 1.122-3.762 1.634 8.23-1.73 16.16-4.672 24.493-6.204a24.187 24.187 0 0 0-3.762 0zm0 0M165.059 63.398c-1.118.204-2.34.41-3.457.711 6.707.301 14.02-.097 20.32-2.64l-3.352.3a49.972 49.972 0 0 1-13.511 1.63zm0 0M152.871 59.469l-2.742 1.52c6.2-1.63 12.09-4.368 18.191-6.2-1.02 0-2.03.102-3.05.2-4.04 1.433-8.2 3.132-12.399 4.48zm0 0"/></g><mask id="N"><g filter="url(#a)"><path fill-opacity=".302" d="M0 0h410v510H0z"/></g></mask><clipPath id="k"><path d="M0 0h410v510H0z"/></clipPath><g id="M" clip-path="url(#k)"><path d="M258.398 128.148h-3.558a31.598 31.598 0 0 0 20.32-1.02l-3.351.302a31.47 31.47 0 0 1-13.41.718zm0 0M255.95 116.379c-1.122.41-2.24.91-3.25 1.32 6.3-.808 13.01-3.347 19.312-2.027a13.537 13.537 0 0 0-3.461-1.121c-4.172-.031-8.442.988-12.602 1.828zm0 0M260.012 123.16l-2.64.3c5.179 1.419 11.179.2 16.16-1.519-.923-.02-1.833.02-2.743.098a30.185 30.185 0 0 1-10.777 1.121zm0 0M211.738 60.25c-1.117.41-2.238.809-3.25 1.219 6.5-.707 14.024-2.239 19.313-6.2-.91.301-1.73.61-2.64.91a41.021 41.021 0 0 1-13.423 4.071zm0 0"/></g><mask id="P"><g filter="url(#a)"><path fill-opacity=".302" d="M0 0h410v510H0z"/></g></mask><clipPath id="l"><path d="M0 0h410v510H0z"/></clipPath><g id="O" clip-path="url(#l)"><path d="M299.95 147.75c-.81 0-1.63.102-2.438.102a29.089 29.089 0 0 0 13.52 1.02c-.813-.2-1.634-.302-2.442-.513-2.89.313-5.82.102-8.64-.609zm0 0M298.191 141.96c-.921.188-1.84.43-2.742.712 5.082.2 10.063-.41 15.14 0-.839-.41-1.73-.711-2.64-.91-3.328-.114-6.578.199-9.758.199zm0 0M296.488 135.262c-.886.136-1.777.347-2.636.61 4.878.198 9.648.808 14.527.507a24.41 24.41 0 0 0-2.54-.707c-3.148.09-6.19-.223-9.35-.41zm0 0M263.059 79.66c-.848-.02-1.7.012-2.54.102 4.372 1.418 9.961 1.93 13.012-1.524-.562.282-1.133.524-1.73.711-2.442 1.32-5.692 1.32-8.742.711zm0 0"/></g><mask id="R"><g filter="url(#a)"><path fill-opacity=".302" d="M0 0h410v510H0z"/></g></mask><clipPath id="m"><path d="M0 0h410v510H0z"/></clipPath><g id="Q" clip-path="url(#m)"><path d="M178.11 49.309s1.831 2.132 5.081 5.89c3.25 3.762 7.829 9.04 13.309 15.551 5.48 6.512 11.89 13.922 18.602 22.148 1.726 2.032 3.347 4.063 5.078 6.204l1.32 1.628c.2.301.41.508.61.81l.609.91a27.528 27.528 0 0 1 1.73 3.859c2.031 5.18 3.762 10.57 5.39 15.96 3.25 10.77 6.4 21.653 9.25 31.81 2.852 10.16 5.49 19.722 8.032 27.741a86.74 86.74 0 0 0 3.758 10.871c.172.36.383.7.61 1.02.3.3.511.61.812.91.508.61 1.02 1.219 1.52 1.73a39.841 39.841 0 0 0 2.85 2.95c1.727 1.73 3.15 3.05 4.169 3.96a49.03 49.03 0 0 0 1.52 1.317s-.508-.508-1.52-1.316c-1.02-.813-2.442-2.133-4.27-3.864-1-.93-1.949-1.91-2.851-2.949-.508-.508-1.02-1.12-1.52-1.73-.3-.297-.508-.61-.808-.91-.301-.329-.54-.707-.711-1.118a85.863 85.863 0 0 1-3.961-10.87c-1.32-4.071-2.64-8.43-4.07-13.11a696.658 696.658 0 0 1-4.27-14.633c-2.95-10.156-6.098-21.039-9.45-31.808-1.73-5.391-3.35-10.77-5.39-15.961-.508-1.32-1.02-2.54-1.629-3.758-.2-.301-.3-.512-.512-.813a7.552 7.552 0 0 1-.609-.808l-1.32-1.63c-1.73-2.128-3.457-4.171-5.078-6.198-6.711-8.133-13.012-15.75-18.391-22.262-10.68-12.93-17.89-21.531-17.89-21.531zm0 0M236.328 57.71s1.422 2.028 4.063 5.59c2.64 3.56 6.3 8.641 10.668 14.74 2.242 3.05 4.671 6.3 7.32 9.651.61.809 1.32 1.73 2.031 2.54.711.808 1.52 1.628 2.238 2.44 1.524 1.727 2.852 3.56 4.274 5.49 2.848 3.76 5.59 7.718 8.328 11.89.71 1.02 1.32 2.129 1.93 3.148.5 1.192.898 2.41 1.218 3.66.614 2.442 1.122 4.88 1.633 7.32 1.93 9.86 3.559 19.72 5.18 29.06 1.629 9.35 3.05 17.89 4.57 25.3.41 1.832.809 3.563 1.219 5.281.129.801.45 1.57.91 2.239.41.71.809 1.421 1.219 2.03a145.925 145.925 0 0 1 3.46 7.11c1.833 3.961 2.74 6.301 2.74 6.301s-1.02-2.34-2.95-6.2c-1.02-1.929-2.129-4.37-3.66-7.01-.41-.712-.809-1.321-1.219-2.028a9.579 9.579 0 0 1-1.02-2.34c-.511-1.633-.91-3.461-1.32-5.281-1.629-7.32-3.25-15.961-4.879-25.2-1.633-9.25-3.351-19.113-5.281-28.96l-1.52-7.32a17.549 17.549 0 0 0-1.12-3.462c-.61-1.02-1.22-2.129-1.93-3.148-2.64-4.172-5.489-8.13-8.23-11.89a126.092 126.092 0 0 0-4.27-5.49c-.711-.91-1.418-1.632-2.239-2.542-.812-.91-1.421-1.73-2.03-2.54-2.641-3.46-4.981-6.71-7.22-9.859-4.37-6.101-7.93-11.28-10.37-14.94a535.255 535.255 0 0 0-3.743-5.58zm0 0"/></g><mask id="T"><g filter="url(#a)"><path fill-opacity=".102" d="M0 0h410v510H0z"/></g></mask><clipPath id="n"><path d="M0 0h410v510H0z"/></clipPath><g id="S" clip-path="url(#n)"><path d="M251.441 193.691a66.354 66.354 0 0 0 6.297 6.707c-11.379-25.609-17.988-76.617-19-84.25-1.02-7.828-6.199-13.007-13.52-20.828-7.32-7.832-11.988-18.191-15.14-21.851-2.437-2.848-25.098-24.688-31.2-28.66a29.496 29.496 0 0 0-.608 4.37s37.91 45.02 43.601 52.34c5.688 7.31 25.438 87.012 29.57 92.172zm0 0"/></g><mask id="V"><g filter="url(#a)"><path fill-opacity=".102" d="M0 0h410v510H0z"/></g></mask><clipPath id="o"><path d="M0 0h410v510H0z"/></clipPath><g id="U" clip-path="url(#o)"><path d="M290.5 140.84c-.41-8.23-13.309-26.93-13.309-26.93a.362.362 0 0 1-.101.2c2.238 5.788 8.23 44.312 11.89 62.5.91 2.34 1.418 3.66 1.418 3.66-1.117-4.782.524-31.301.102-39.43zm0 0"/></g><mask id="X"><g filter="url(#a)"><path fill-opacity=".102" d="M0 0h410v510H0z"/></g></mask><clipPath id="p"><path d="M0 0h410v510H0z"/></clipPath><g id="W" clip-path="url(#p)"><path d="M192.34 207.2c1.93-3.462.512-13.72.512-16.669 0-3.46-19.313-66.16-19.313-69.71 0-3.56-22.36-36.993-22.36-40.04 0-2.441-13.519-19.11-20.12-26.633a22.486 22.486 0 0 0 2.132 6.102c5.79 11.59 13.82 22.05 20.02 33.328 5.687 10.473 13.52 20.223 17.89 31.402 4.57 11.59 5.387 24.692 9.04 36.692 2.64 8.937 11.48 23.879 6.398 33.129-2.848 5.18-10.57-8.23-14.84-16.563.301 2.242 2.64 9.762 4.172 11.89 7.11 9.583 13 17.712 16.469 17.071zm0 0"/></g><mask id="Z"><g filter="url(#a)"><path fill-opacity=".102" d="M0 0h410v510H0z"/></g></mask><clipPath id="q"><path d="M0 0h410v510H0z"/></clipPath><g id="Y" clip-path="url(#q)"><path d="M121.7 236.16c.1.68.23 1.36.41 2.031 0 0 1.519-12.09 2.742-17.171 1.218-5.079-15.243-52.34-25-72.97-9.762-20.628-22.66-63.62-22.66-68.698 0-3.051-1.122-10.473-2.032-15.852-1.422 10.371.61 22.66 2.64 30.488 12.302 47.461 42.169 92.282 43.9 142.172zm0 0"/></g><mask id="ab"><g filter="url(#a)"><path fill-opacity=".102" d="M0 0h410v510H0z"/></g></mask><clipPath id="r"><path d="M0 0h410v510H0z"/></clipPath><g id="aa" clip-path="url(#r)"><path d="M114.25 283.422c.41.406 11.281-10.98 11.281-14.844 0-3.86-3.562-22.258-3.562-27.738-.047-.89-.149-1.77-.297-2.64v2.44c-.813.2-12.8-21.038-13.313-22.968-1.52-5.594 1.02-12.703-.199-18.703-1.32-6.61-2.441-13.41-4.27-19.918-2.64-9.352-8.538-22.051-16.968-29.27l-.91-.3s17.168 27.34 18.386 42.578c1.223 15.242 2.34 23.07-.41 23.07-2.738 0-7.828 3.152-7.828 3.152s8.942.41 10.16 2.739c1.22 2.34 7.828 14.02 7.828 15.652 0 1.629 6.614 10.566 6.204 15.238-.16 4.578-1.801 24.09-6.102 31.512zm0 0"/></g><mask id="ad"><g filter="url(#a)"><path fill-opacity=".302" d="M0 0h410v510H0z"/></g></mask><clipPath id="s"><path d="M0 0h410v510H0z"/></clipPath><g id="ac" clip-path="url(#s)"><path d="M55.441 225.488s6.2-.508 8.84-3.148c.008 0-1 5.191-8.84 3.148zm0 0"/></g><mask id="af"><g filter="url(#a)"><path fill-opacity=".302" d="M0 0h410v510H0z"/></g></mask><clipPath id="t"><path d="M0 0h410v510H0z"/></clipPath><g id="ae" clip-path="url(#t)"><path d="M57.98 212.988s6.2-1.02 6.2 2.64c-.41.513-6.2-2.64-6.2-2.64zm0 0"/></g><mask id="ah"><g filter="url(#a)"><path fill-opacity=".502" d="M0 0h410v510H0z"/></g></mask><linearGradient id="v" x1="-1214.283" x2="-1195.162" y1="2617.522" y2="2584.428" gradientTransform="translate(4017.463 -8039.61) scale(3.1362)" gradientUnits="userSpaceOnUse"><stop offset="0" stop-color="#00afd1" stop-opacity="0"/><stop offset=".64" stop-color="#0074d1"/></linearGradient><clipPath id="u"><path d="M0 0h410v510H0z"/></clipPath><g id="ag" clip-path="url(#u)"><path fill="url(#v)" d="M276.98 113.5c-2.64-4.672-12.5-18.7-16.16-22.36s-24.492-33.538-24.492-33.538c-5.078-.301-16.668-17.07-19.719-20.43-14.23-15.652-33.738-11.48-37.8 7.617a32.958 32.958 0 0 0-.61 4.371s37.91 45.02 43.602 52.34c5.687 7.32 25.508 86.89 29.668 92.172.101.098.203.2.203.297 15.45 1.12 31.5 2.133 45.629 3.05a92.387 92.387 0 0 0-5.79-11.078c-2.632-3.64-11.991-67.761-14.53-72.441zm0 0"/></g></defs><use mask="url(#x)" xlink:href="#w"/><use mask="url(#z)" xlink:href="#y"/><use mask="url(#B)" xlink:href="#A"/><use mask="url(#D)" xlink:href="#C"/><use mask="url(#F)" xlink:href="#E"/><use mask="url(#H)" xlink:href="#G"/><use mask="url(#J)" xlink:href="#I"/><use mask="url(#L)" xlink:href="#K"/><use mask="url(#N)" xlink:href="#M"/><use mask="url(#P)" xlink:href="#O"/><use mask="url(#R)" xlink:href="#Q"/><use mask="url(#T)" xlink:href="#S"/><use mask="url(#V)" xlink:href="#U"/><use mask="url(#X)" xlink:href="#W"/><use mask="url(#Z)" xlink:href="#Y"/><use mask="url(#ab)" xlink:href="#aa"/><use mask="url(#ad)" xlink:href="#ac"/><use mask="url(#af)" xlink:href="#ae"/><use mask="url(#ah)" xlink:href="#ag"/></svg>