<svg xmlns="http://www.w3.org/2000/svg" xmlns:xlink="http://www.w3.org/1999/xlink" viewBox="0 0 410 510"><defs><filter id="a" width="100%" height="100%" x="0%" y="0%" filterUnits="objectBoundingBox"><feColorMatrix in="SourceGraphic" values="0 0 0 0 1 0 0 0 0 1 0 0 0 0 1 0 0 0 1 0"/></filter><mask id="x"><g filter="url(#a)"><path fill-opacity=".851" d="M0 0h410v510H0z"/></g></mask><linearGradient id="c" x1="-338.268" x2="-338.268" y1="460.671" y2="49.329" gradientTransform="matrix(-1 0 0 1 -133.248 0)" gradientUnits="userSpaceOnUse"><stop offset="0" stop-color="#fff" stop-opacity="0"/><stop offset=".427" stop-color="#d0b5b3"/><stop offset="1" stop-color="#d0b5b3"/></linearGradient><clipPath id="b"><path d="M0 0h410v510H0z"/></clipPath><g id="w" clip-path="url(#b)"><path fill="url(#c)" d="M34.86 179.238c4.71 12.91 12.98 30.114 13.91 54.293.671 17.219 2.652 16.89 14.242 45.688 8.886 22.12 7.61 29.32 9.597 43.383 3.32 23.84 28.48 28.808 53.41 63.57 20.762 29.008 28.04 26.816 42.61 40.398 10.312 9.621 38.383 34.102 38.383 34.102h177.52l-.84-.723 1.308.723-32.96-52.652s-43.599-52.149-45.462-81.95c-1.867-29.8-1.887-81.949-10.36-102.808-8.468-20.864-11.25-34.274-15.538-54.633-4.282-20.36-12.739-39.238-18.871-52.149-6.13-12.91-15.7-30.3-24.637-39.242-8.942-8.937-14.621-20.86-21.25-18.379-3.871 1.461-8.543 7.36-11.75 11.993-8.184-6.063-18.5-12.16-21.223-16.461-3.758-5.961-19.777-9.93-24.008 7.449-3.52 14.422.098 20.988 10.848 34.719-4.398-2.868-7.95-5.2-8.937-5.41-2.34-.5-11.282-17.88-17.883-25.829-6.598-7.949-23.54-11.422-31.547 2.48-8.012 13.91 2.348 40.731 11.77 53.641 9.417 12.91 30.206 24.008 30.206 24.008s3.891 16.223 8.602 30.13c4.71 13.91 16.23 34.44 3.32 39.401-10.27 3.95-28.3-28.558-41.718-42.378-4.313-4.461-12.704-16.711-17.223-21.192-14.649-14.57-17.809-20.531-23.34-26.488C70.95 111.84 56.961 92.75 46.781 91.969c-11.492-.867-22.61 8.61-21.68 22.52.297 4.523 2.36 6.55 6.13 12.91 9.757 16.562 12.91 22.023 26.82 44.203-11.602-3.633-26.242-.743-23.192 7.636zm72.968 76.64c.211-6.456-2.77-16.05-2.77-16.05l3.653 4.473c5.96 7.61 18.867 25.988 18.867 30.949 0 4.969-4.308 2.309-8.61-.988-4.308-3.313-11.34-11.934-11.14-18.383zm0 0"/></g><mask id="z"><g filter="url(#a)"><path fill-opacity=".502" d="M0 0h410v510H0z"/></g></mask><clipPath id="d"><path d="M0 0h410v510H0z"/></clipPath><g id="y" clip-path="url(#d)"><path fill="#fff" stroke="#000" stroke-width=".25" d="M30.309 114.281a17.194 17.194 0 0 0 4.972 5.77l.258.23s.86-.86 2.242-1.992c0-.07.008-.14.008-.21 3.012-2.599 8.223-6.657 12.41-7.958 4.75-1.36 7.082-1.82 8.13-2.73H58.3c.289-.27.508-.61.629-.993.27-.886-2.551-5.207-6.82-8.289-.032-.007-.07-.007-.098-.02-4.024-2.827-9.274-4.78-14.852-2.39-8.84 3.762-10.441 12.012-6.95 18.59"/></g><mask id="B"><g filter="url(#a)"><path fill-opacity=".502" d="M0 0h410v510H0z"/></g></mask><clipPath id="e"><path d="M0 0h410v510H0z"/></clipPath><g id="A" clip-path="url(#e)"><path fill="#fff" stroke="#000" stroke-width=".25" d="M138.398 62.89c-1.699-1.562-3.296-2.628-4.43-2.59-3.25.302-14.327-1.062-16.046 14.31.2 1.32.648 2.59 1.316 3.742 0 .078.012.16.012.226.238.344.59.582.988.703a14.663 14.663 0 0 0 4.633-1.312m.05-.008a85.157 85.157 0 0 0 9.74-4.64 20.935 20.935 0 0 1 7.28-2.4c.079.02.16.028.239.048.992-.117 1.648 0 1.93-.41.28-.41-2.68-4.797-5.75-7.59"/></g><mask id="D"><g filter="url(#a)"><path fill-opacity=".502" d="M0 0h410v510H0z"/></g></mask><clipPath id="f"><path d="M0 0h410v510H0z"/></clipPath><g id="C" clip-path="url(#f)"><path fill="#fff" stroke="#000" stroke-width=".25" d="M189.46 62.73c.24.391.438.801.599 1.22-.07.609-.11.402-2.387.609-1.742.203-3.852 2.66-7.742 4.363.011-.031.03-.063.039-.102a17.514 17.514 0 0 1-4.38 1.23c-4.69.731-8.62-2.448-10.51-4.35v-.079c-.727-.742-1.157-1.27-1.157-1.27-1.55-17.222 10.219-14.68 15.027-13.421l.801.36h.07c3.828 1.769 8.18 8.5 9.711 11.331"/></g><mask id="F"><g filter="url(#a)"><path fill-opacity=".502" d="M0 0h410v510H0z"/></g></mask><clipPath id="g"><path d="M0 0h410v510H0z"/></clipPath><g id="E" clip-path="url(#g)"><path fill="#fff" stroke="#000" stroke-width=".25" d="M217.309 60.871c4.543-2.09 10.242 6.61 11.152 9.95h.02c.05.19.078.39.109.59.14 2.71-11.57 6.26-13.461 5.91-.09.058-.2 0-.3 0a6.07 6.07 0 0 1 .183-.47c-.09.2-.184.399-.25.59-1.942-.601-5.301-6.05-5.301-6.05-1.992-2.313 2.98-8.352 7.848-10.52zm0 0"/></g><mask id="H"><g filter="url(#a)"><path fill-opacity=".502" d="M0 0h410v510H0z"/></g></mask><clipPath id="h"><path d="M0 0h410v510H0z"/></clipPath><g id="G" clip-path="url(#h)"><path fill="#fff" stroke="#000" stroke-width=".25" d="M35.52 179.82c.511-.41 1.5.758 7.46 2.98 5.2 1.122 9.442 4.84 12.079 9.509.132.113.261.222.37.32A25.686 25.686 0 0 1 58 199.3c1.79 7.629-12.34 11.07-12.34 11.07-.25-3.723-6.3-19.492-7.71-24.46a56.36 56.36 0 0 1-.981-2.481h-.098c-1.152-3.02-1.851-3.2-1.351-3.61zm0 0"/></g><mask id="J"><g filter="url(#a)"><path fill-opacity=".302" d="M0 0h410v510H0z"/></g></mask><clipPath id="i"><path d="M0 0h410v510H0z"/></clipPath><g id="I" clip-path="url(#i)"><path d="M91.078 185.602a29.9 29.9 0 0 1-4.738 2.32c10.832-2.262 20.148-12.813 26.469-21.75-.868.887-1.758 1.789-2.618 2.77-5.191 6.648-11.68 13.367-19.113 16.66zm0 0M80.148 180.559c-1.57.671-2.976 1.32-4.59 1.992 8.192-1.89 18.954-6.332 24.704-12.813-1.07.813-2.16 1.524-3.242 2.23-4.63 3.743-11.04 6.723-16.872 8.59zm0 0M78.621 171.93c-1.25.93-2.5 1.992-3.66 2.98 8.559-5.691 18.539-9.16 27.527-14.21a79.797 79.797 0 0 0-4.52 1.59c-6.269 3.26-13.09 5.98-19.347 9.64zm0 0M70.129 166.48c-1.16.918-2.219 1.829-3.3 2.739 8.183-4.559 16.241-10.707 25.23-13.457a22.35 22.35 0 0 0-4.387.86c-6.16 2.57-11.832 6.48-17.543 9.858zm0 0M59.86 118.45c-4.7 2.179-9.16 5.62-13.489 8.538-.992.992-1.992 1.793-2.832 2.711 6.672-4.16 13.39-10.23 21.063-12.238-1.622.14-3.211.469-4.743.988zm0 0"/></g><mask id="L"><g filter="url(#a)"><path fill-opacity=".302" d="M0 0h410v510H0z"/></g></mask><clipPath id="j"><path d="M0 0h410v510H0z"/></clipPath><g id="K" clip-path="url(#j)"><path d="M181.29 137.621c-1.419.168-2.849.25-4.278.219 8.777 2.16 18.457-2.461 24.957-8.531-1.117.652-2.309 1.41-3.559 1.992-5.039 3.699-11.14 6.449-17.12 6.32zm0 0M174.512 127.91c-1.203.762-2.371 1.63-3.473 2.469 7.883-3.527 15.7-8.258 24.04-10.367a20.59 20.59 0 0 0-4.317.539c-5.512 1.82-10.89 4.8-16.25 7.36zm0 0M183.941 132.48c-1.09.34-2.261.7-3.382.93 6.953.442 13.91-4.308 18.972-8.762l-2.883 1.532c-3.75 2.941-8.16 5.52-12.707 6.3zm0 0M181.27 117.75c-4.97 2.379-9.649 5.219-14.551 7.71-1.11.75-2.11 1.571-3.11 2.29 7.153-3.27 13.801-7.648 21.082-10.738-1.16.148-2.3.398-3.421.738zm0 0M133.86 84.95c-1.02.402-2.008.85-2.981 1.359 6.152-.989 12.71-2.848 17.96-6.528l-2.98.989a44.774 44.774 0 0 1-12 4.18zm0 0"/></g><mask id="N"><g filter="url(#a)"><path fill-opacity=".302" d="M0 0h410v510H0z"/></g></mask><clipPath id="k"><path d="M0 0h410v510H0z"/></clipPath><g id="M" clip-path="url(#k)"><path d="M244.36 140.871l-3.59 1.238a37.008 37.008 0 0 0 20.23-8.05l-3.29 1.46a36.95 36.95 0 0 1-13.35 5.352zm0 0M238.488 130.77c-.988.77-1.988 1.628-2.886 2.359 6.109-2.98 12.136-7.66 18.867-8.617a14.884 14.884 0 0 0-3.797.16c-4.211 1.457-8.223 3.898-12.184 6.098zm0 0M244.559 135.68l-2.57 1.199c5.632-.488 11.32-3.707 15.89-7.05-.957.3-1.91.651-2.828 1.062a34.928 34.928 0 0 1-10.492 4.789zm0 0M186.672 77.078c-.934.621-1.883 1.223-2.723 1.813 5.77-1.993 12.32-4.891 16.38-9.72l-2.24 1.4a37.356 37.356 0 0 1-11.417 6.507zm0 0"/></g><mask id="P"><g filter="url(#a)"><path fill-opacity=".302" d="M0 0h410v510H0z"/></g></mask><clipPath id="l"><path d="M0 0h410v510H0z"/></clipPath><g id="O" clip-path="url(#l)"><path d="M225.25 82.64c-.77.15-1.54.348-2.281.598 4.23.512 9.402-.097 11.52-3.968-.45.37-.93.699-1.438.992-1.98 1.718-4.93 2.379-7.801 2.379zm0 0"/></g><mask id="R"><g filter="url(#a)"><path fill-opacity=".302" d="M0 0h410v510H0z"/></g></mask><clipPath id="m"><path d="M0 0h410v510H0z"/></clipPath><g id="Q" clip-path="url(#m)"><path d="M275.29 214.828s-.15-2.707-.481-7.45c-.18-2.366-.399-5.237-.637-8.538-.242-3.3-.55-7.02-.922-11.078-.379-4.051-.79-8.442-1.238-13.09a642.075 642.075 0 0 0-1.602-14.594 395.47 395.47 0 0 0-2.172-15.558c-.218-1.32-.449-2.649-.668-3.97-.218-1.32-.53-2.66-.78-3.972-.259-1.308-.661-2.629-.99-4.047-.34-1.332-.82-2.61-1.429-3.832a36.624 36.624 0 0 0-9.762-12.91c-1.988-1.738-3.968-3.328-5.96-4.969a29.772 29.772 0 0 1-5.137-5.191l-1.16-1.5-1.262-1.43c-.86-.898-1.711-1.777-2.59-2.578-1.75-1.66-3.531-3.172-5.238-4.652-3.473-2.918-6.793-5.59-9.82-8.11-3.032-2.52-5.813-4.82-8.172-6.949-2.348-2.14-4.168-4.34-6.032-5.75-.867-.77-1.707-1.36-2.41-1.91A34.44 34.44 0 0 0 205 71.422l-1.54-1.082 1.481 1.172c.989.75 2.36 1.91 4.059 3.449 1.7 1.539 3.488 3.719 5.79 5.96a195.55 195.55 0 0 0 7.948 7.298c2.98 2.582 6.242 5.36 9.633 8.34 1.668 1.511 3.399 3.062 5.07 4.73.43.41.84.82 1.25 1.262.41.437.84.847 1.23 1.289l1.24 1.37 1.14 1.47a31.127 31.127 0 0 0 5.39 5.55c1.989 1.66 3.97 3.25 5.84 4.97a35.31 35.31 0 0 1 9.18 12.28c.539 1.22.988 2.461 1.418 3.72.43 1.26.691 2.519.992 3.8.309 1.281.55 2.61.809 3.91l.691 3.969c.879 5.23 1.61 10.43 2.27 15.473 1.32 10.07 2.5 19.488 3.418 27.57zm0 0M232.898 206.879a3.3 3.3 0 0 1-1.07-.527 11.657 11.657 0 0 1-1.129-.903 16.899 16.899 0 0 1-1.308-1.488 26.743 26.743 0 0 1-2.871-4.563 65.724 65.724 0 0 1-2.77-6.5c-.898-2.43-1.75-5.128-2.578-8l-1.192-4.437c-.37-1.531-.742-3.09-1.109-4.68-.723-3.191-1.371-6.511-2.082-9.883-.71-3.378-1.469-6.82-2.309-10.226-.84-3.41-1.808-6.793-2.8-10.102-.989-3.308-2.102-6.53-3.239-9.62a105.377 105.377 0 0 0-7.53-16.259 38.606 38.606 0 0 0-7.77-9.82 12.553 12.553 0 0 0-2.891-1.883c-.27-.136-.55-.25-.828-.34l-.293-.109.281.133c.27.117.54.258.79.406.98.594 1.89 1.293 2.698 2.094a27.058 27.058 0 0 1 3.454 4.098 63.99 63.99 0 0 1 3.628 5.96c2.711 5.258 5.04 10.7 6.95 16.301 1.082 3.07 2.082 6.29 3.05 9.57a238.313 238.313 0 0 1 2.72 10.028c.84 3.39 1.64 6.77 2.359 10.133.34 1.687.71 3.34 1.101 4.968.39 1.66.719 3.301 1.13 4.899.42 1.601.831 3.16 1.23 4.691.402 1.532.91 2.98 1.351 4.45a79.989 79.989 0 0 0 2.918 7.949c.473 1.23 1.063 2.34 1.563 3.441.5 1.09 1.097 2.05 1.609 2.98a26.985 26.985 0 0 0 3.2 4.45 9.86 9.86 0 0 0 2.66 2.23c.327.239.69.43 1.077.559zm0 0M58.371 171.46l2.98 5.18c1.989 3.282 5.958 7.27 9.368 12.82 1.742 2.77 2.601 5.25 4.601 8.419 2 3.172 3.97 7.742 6.301 11.101 1.168 1.68 2.3 3.43 3.55 5.13 1.24 1.699 3.567 4.199 4.849 5.96 2.62 3.39 4.57 6.418 7.242 9.86 2.668 3.449 6.289 7.879 8.937 11.25a260.914 260.914 0 0 1 7.45 9.93c1.19 1.66 3.101 3.3 4.132 4.968 1.028 1.672 3.528 5.05 4.39 6.684 1.7 3.316 3.97 6.808 5.048 9.867.86 2.52 1.36 5.152 1.492 7.812a8.523 8.523 0 0 1-1.89 6.27 11.744 11.744 0 0 1-3.27 2.89c-.442.278-.91.508-1.403.708.5-.168.98-.38 1.442-.637a11.864 11.864 0 0 0 3.46-2.781c.68-.832 1.231-1.75 1.65-2.743.1-.277.23-.527.312-.828.078-.308.129-.62.199-.93.07-.32 0-.64.07-.992.02-.328.02-.66 0-.988-.011-2.73-.43-5.45-1.25-8.058-1.05-3.122-3.23-6.68-4.87-10.082-.84-1.692-3.29-5.141-4.333-6.848-1.039-1.723-2.976-3.402-4.11-5.07-2.347-3.372-4.827-6.602-7.398-10.032-2.57-3.441-6.21-7.879-8.87-11.32-2.66-3.45-4.669-6.441-7.321-9.8-1.277-1.712-3.61-4.18-4.848-5.86-1.242-1.68-2.39-3.418-3.582-5.09-2.34-3.34-4.34-7.86-6.46-10.93-2.118-3.07-2.977-5.55-4.798-8.27a154.504 154.504 0 0 0-13.07-17.59zm0 0"/></g><mask id="T"><g filter="url(#a)"><path fill-opacity=".302" d="M0 0h410v510H0z"/></g></mask><clipPath id="n"><path d="M0 0h410v510H0z"/></clipPath><g id="S" clip-path="url(#n)"><path d="M65.48 259.45s1.72 4.831-5.44 7.152c0-.012 4.651-3.602 5.44-7.153zm0 0"/></g><mask id="V"><g filter="url(#a)"><path fill-opacity=".302" d="M0 0h410v510H0z"/></g></mask><clipPath id="o"><path d="M0 0h410v510H0z"/></clipPath><g id="U" clip-path="url(#o)"><path d="M62.14 253.898c-.081.641-6.18.993-6.18.993s4.4-4.032 6.18-.993zm0 0"/></g><mask id="X"><g filter="url(#a)"><path fill-opacity=".102" d="M0 0h410v510H0z"/></g></mask><clipPath id="p"><path d="M0 0h410v510H0z"/></clipPath><g id="W" clip-path="url(#p)"><path d="M204.21 70.871A23.035 23.035 0 0 1 208.36 66a188.12 188.12 0 0 0 16.39 18.379c9.93 9.441 24.66 24.832 35.43 35.09 5.492 5.242 9.43 12.422 12.25 36.75 2.82 24.34 12.742 63.082 2.86 58.61 0 0-5.65-66.548-10.36-81.95-4.711-15.399-16.961-19.367-22.13-26.82-5.179-7.45-23.538-20.36-30.6-28.309a56.54 56.54 0 0 0-8.25-7.078zm0 0"/></g><mask id="Z"><g filter="url(#a)"><path fill-opacity=".102" d="M0 0h410v510H0z"/></g></mask><clipPath id="q"><path d="M0 0h410v510H0z"/></clipPath><g id="Y" clip-path="url(#q)"><path d="M158.98 61.86c.098 5.511 1.36 11.921 5.649 16.89 9.422 10.93 33.582 29.469 43.941 37.91 10.36 8.442 13.692 34.602 18.371 56.95 4.68 22.35 16.32 37.75 5.957 33.28 0 0-8.937-.992-16.476-38.242-7.543-37.25-18.871-58.109-27.313-61.09 0 0-14.898-7.867-22.23-14.808-8.41-11.262-11.07-17.89-7.899-30.89zm0 0"/></g><mask id="ab"><g filter="url(#a)"><path fill-opacity=".102" d="M0 0h410v510H0z"/></g></mask><clipPath id="r"><path d="M0 0h410v510H0z"/></clipPath><g id="aa" clip-path="url(#r)"><path d="M36.121 135.73c6.43 10.88 10.617 17.86 21.918 35.891a33.068 33.068 0 0 0-6.46-1.332c-.06.133-.188.133-.438.133 3.52.656 7.34 4.469 15.828 21.726 9.601 19.532 21.18 30.782 27.48 38.403 6.301 7.62 8.942 21.187 11.922 37.75 2.98 16.558 18.219 26.5 25.168 25.168 6.95-1.328.66-27.489-6.629-39.078-7.281-11.582-37.68-39.73-44.87-54.461-7.188-14.73-15.892-24.008-26.15-37.578-2.93-3.891-11.53-17.133-17.769-26.622zm69.09 105.47c-.25-.86-.41-1.391-.41-1.391l3.648 4.472c5.961 7.61 18.871 25.989 18.871 30.95 0 4.968-4.308 2.308-8.61-.993-4.3-3.308-11.331-11.93-11.14-18.379v-2.71l-.09-.989a.569.569 0 0 1 0-.2c-.05-.41-.101-.82-.16-1.23v-.289l-.148-.992-.063-.347c-.05-.352-.109-.68-.168-.993v-.21l-.242-1.188v-.191c-.07-.32-.14-.641-.21-.93-.02-.121-.028-.11-.079-.36-.05-.25-.172-.609-.172-.73a1.692 1.692 0 0 1-.078-.36l-.18-.73-.152-.601c-.039-.13-.058-.22-.11-.399-.046-.18-.14-.46-.14-.52 0-.062.05 0 0-.18a1.867 1.867 0 0 1-.137-.51zm-7.02-11.7a44.017 44.017 0 0 1 5.02 7.559zm0 0"/></g><mask id="ad"><g filter="url(#a)"><path fill-opacity=".102" d="M0 0h410v510H0z"/></g></mask><clipPath id="s"><path d="M0 0h410v510H0z"/></clipPath><g id="ac" clip-path="url(#s)"><path d="M163 215.648c16.781-4.718 3.71-26.148-.988-40.058-4.711-13.91-8.602-30.13-8.602-30.13s-2.59-1.382-6.351-3.73c-.5-2.12-.778-3.39-.778-3.39a47.854 47.854 0 0 1-23.07-16.89c-.41-.56-.82-1.15-1.23-1.77-.09-.14-.192-.27-.282-.418a53.367 53.367 0 0 1-1.21-1.903c0-.078-.098-.16-.137-.238-.383-.61-.743-1.242-1.114-1.89a7.714 7.714 0 0 1-.25-.43 80.41 80.41 0 0 1-1.18-2.18c-.058-.121-.117-.242-.187-.36-.36-.702-.723-1.402-1.062-2.12l-.16-.332c-.38-.79-.75-1.61-1.118-2.418l-.18-.422a34.612 34.612 0 0 1-.992-2.438c-.46-1.23 0-.07 0-.11a55.835 55.835 0 0 1-.988-2.612 1.429 1.429 0 0 0-.16-.43c-.66-1.77-1.25-3.57-1.762-5.379a2.434 2.434 0 0 0-.11-.39 64.493 64.493 0 0 1-.73-2.739v-.09a65.553 65.553 0 0 1-.597-2.672l-.063-.308a69.861 69.861 0 0 1-.469-2.7v-.25c-.12-.863-.23-1.73-.308-2.581v-.168a42.805 42.805 0 0 1-.16-2.614v-2.847a58.252 58.252 0 0 0 10.207 25.918c11.77 16.39 23.07 23.84 23.07 23.84l17 9.761s-.867 3.149 4.313 18.55c5.187 15.4 29.117 46.36 11.238 66.22-10.668 11.832-29.89-12.23-43.11-36.282 11.32 14.5 23.72 31.204 31.52 29zm0 0"/></g><mask id="af"><g filter="url(#a)"><path fill-opacity=".102" d="M0 0h410v510H0z"/></g></mask><clipPath id="t"><path d="M0 0h410v510H0z"/></clipPath><g id="ae" clip-path="url(#t)"><path d="M167.219 95.129s-15.77-7.617-25.028 3.652c0 0 0-4.43 5.957-6.25 5.961-1.82 13.192-.633 13.192-.633zm0 0"/></g><mask id="ah"><g filter="url(#a)"><path fill-opacity=".502" d="M0 0h410v510H0z"/></g></mask><linearGradient id="v" x1="-1825.562" x2="-1855.549" y1="2167.793" y2="2124.617" gradientTransform="rotate(180 -2843.823 3444.657) scale(3.1362)" gradientUnits="userSpaceOnUse"><stop offset=".36" stop-color="#0074d1"/><stop offset=".87" stop-color="#00afd1" stop-opacity="0"/></linearGradient><clipPath id="u"><path d="M0 0h410v510H0z"/></clipPath><g id="ag" clip-path="url(#u)"><path fill="url(#v)" d="M58 171.621c-13.91-22.18-17.059-27.64-26.82-44.2-3.758-6.37-5.828-8.39-6.13-12.91-.921-13.91 10.188-23.39 21.68-22.523 10.168.774 24.168 19.871 36.258 32.953 5.532 5.957 8.692 11.918 23.34 26.489 4.524 4.48 12.91 16.73 17.223 21.191 11.828 12.18 27.219 38.848 37.75 42.328l-40.852 45.582s-1.847-2.633-4.62-6.5a251.617 251.617 0 0 0-5.067-7.02c-4.492-6.16-9.692-13.14-13.66-18.023A299.63 299.63 0 0 1 72.52 192.73 215.686 215.686 0 0 0 58 171.621zm0 0"/></g></defs><use mask="url(#x)" xlink:href="#w"/><use mask="url(#z)" xlink:href="#y"/><use mask="url(#B)" xlink:href="#A"/><use mask="url(#D)" xlink:href="#C"/><use mask="url(#F)" xlink:href="#E"/><use mask="url(#H)" xlink:href="#G"/><use mask="url(#J)" xlink:href="#I"/><use mask="url(#L)" xlink:href="#K"/><use mask="url(#N)" xlink:href="#M"/><use mask="url(#P)" xlink:href="#O"/><use mask="url(#R)" xlink:href="#Q"/><use mask="url(#T)" xlink:href="#S"/><use mask="url(#V)" xlink:href="#U"/><use mask="url(#X)" xlink:href="#W"/><use mask="url(#Z)" xlink:href="#Y"/><use mask="url(#ab)" xlink:href="#aa"/><use mask="url(#ad)" xlink:href="#ac"/><use mask="url(#af)" xlink:href="#ae"/><use mask="url(#ah)" xlink:href="#ag"/></svg>