<svg viewBox="0 0 410 510" xmlns="http://www.w3.org/2000/svg" xmlns:xlink="http://www.w3.org/1999/xlink"><filter id="a" height="100%" width="100%" x="0%" y="0%"><feColorMatrix in="SourceGraphic" values="0 0 0 0 1 0 0 0 0 1 0 0 0 0 1 0 0 0 1 0"/></filter><mask id="b"><g filter="url(#a)"><path d="m0 0h410v510h-410z" fill-opacity=".851"/></g></mask><linearGradient id="c" gradientTransform="matrix(-1 0 0 1 -187.241 0)" gradientUnits="userSpaceOnUse" x1="-392.241" x2="-392.241" y1="483.074" y2="26.926"><stop offset="0" stop-color="#fff" stop-opacity="0"/><stop offset=".427" stop-color="#d0b5b3"/><stop offset="1" stop-color="#d0b5b3"/></linearGradient><clipPath id="d"><path d="m0 0h410v510h-410z"/></clipPath><mask id="e"><g filter="url(#a)"><path d="m0 0h410v510h-410z" fill-opacity=".502"/></g></mask><clipPath id="f"><path d="m0 0h410v510h-410z"/></clipPath><mask id="g"><g filter="url(#a)"><path d="m0 0h410v510h-410z" fill-opacity=".502"/></g></mask><clipPath id="h"><path d="m0 0h410v510h-410z"/></clipPath><mask id="i"><g filter="url(#a)"><path d="m0 0h410v510h-410z" fill-opacity=".302"/></g></mask><clipPath id="j"><path d="m0 0h410v510h-410z"/></clipPath><mask id="k"><g filter="url(#a)"><path d="m0 0h410v510h-410z" fill-opacity=".302"/></g></mask><clipPath id="l"><path d="m0 0h410v510h-410z"/></clipPath><mask id="m"><g filter="url(#a)"><path d="m0 0h410v510h-410z" fill-opacity=".302"/></g></mask><clipPath id="n"><path d="m0 0h410v510h-410z"/></clipPath><mask id="o"><g filter="url(#a)"><path d="m0 0h410v510h-410z" fill-opacity=".302"/></g></mask><clipPath id="p"><path d="m0 0h410v510h-410z"/></clipPath><mask id="q"><g filter="url(#a)"><path d="m0 0h410v510h-410z" fill-opacity=".302"/></g></mask><mask id="r"><g filter="url(#a)"><path d="m0 0h410v510h-410z" fill-opacity=".302"/></g></mask><clipPath id="s"><path d="m0 0h410v510h-410z"/></clipPath><mask id="t"><g filter="url(#a)"><path d="m0 0h410v510h-410z" fill-opacity=".302"/></g></mask><clipPath id="u"><path d="m0 0h410v510h-410z"/></clipPath><clipPath id="v"><path d="m0 0h410v510h-410z"/></clipPath><mask id="w"><g filter="url(#a)"><path d="m0 0h410v510h-410z" fill-opacity=".302"/></g></mask><clipPath id="x"><path d="m0 0h410v510h-410z"/></clipPath><mask id="y"><g filter="url(#a)"><path d="m0 0h410v510h-410z" fill-opacity=".302"/></g></mask><clipPath id="z"><path d="m0 0h410v510h-410z"/></clipPath><mask id="A"><g filter="url(#a)"><path d="m0 0h410v510h-410z" fill-opacity=".102"/></g></mask><clipPath id="B"><path d="m0 0h410v510h-410z"/></clipPath><mask id="C"><g filter="url(#a)"><path d="m0 0h410v510h-410z" fill-opacity=".102"/></g></mask><clipPath id="D"><path d="m0 0h410v510h-410z"/></clipPath><mask id="E"><g filter="url(#a)"><path d="m0 0h410v510h-410z" fill-opacity=".102"/></g></mask><clipPath id="F"><path d="m0 0h410v510h-410z"/></clipPath><mask id="G"><g filter="url(#a)"><path d="m0 0h410v510h-410z" fill-opacity=".102"/></g></mask><clipPath id="H"><path d="m0 0h410v510h-410z"/></clipPath><mask id="I"><g filter="url(#a)"><path d="m0 0h410v510h-410z" fill-opacity=".502"/></g></mask><linearGradient id="J" gradientTransform="matrix(-3.13619973 .15645851 -.15645851 -3.13619973 -5435.621305 7140.379688)" gradientUnits="userSpaceOnUse" x1="-1917.331" x2="-1929.305" y1="2169.189" y2="2124.804"><stop offset=".36" stop-color="#0074d1"/><stop offset=".87" stop-color="#00afd1" stop-opacity="0"/></linearGradient><clipPath id="K"><path d="m0 0h410v510h-410z"/></clipPath><g clip-path="url(#d)" mask="url(#b)"><path d="m21.36 243.191c5.64 13.559 9.538 20.43 9.8 35.348v.992c.23 14.918-2.3 25.86 9.078 37.418l10.23 11.723c14.063 11.457 33.692 32.36 47.743 40.226l14.758 6.012 19.86 8.531c18.51 6.547 34.843 14.278 44.093 28.77 9.25 14.488 22.648 26.629 26.566 41.379l7.84 29.488 123.942-6.156 33.73 1.066 21.309-.5s-50.547-105.886-51.778-131.457c-1.242-25.582-11.16-76.293-19.37-113.242-8.22-36.95-6.102-25.84-12.15-41.02-6.05-15.18-9.702-45.41-15.64-57.917-5.95-12.512-12.91-23.954-17.84-37.532-4.93-13.59-7.46-32.16-11.722-43.691-4.258-11.527-8.41-30.559-22.57-24.527-13.91 5.976-17.84 25.128-10.009 52.218a29.006 29.006 0 0 0 -11.539-1.48c-19.632.922-30.511-3.352-40.5-.149l-9.972 3.2s-.45.52-1.14 1.449a24.258 24.258 0 0 0 -7.329 0c-10.578 1.59-30.621-4.371-47.82 3.941-11.2 5.41-25.13 27.297-26.192 35.028-.367 2.66.934 6 3.133 9.062-9.793-4.91-9.43-4.86-9.43-4.86s-15.16-6.8-26.562-4c-11.39 2.798-25.25 16.65-22.05 27.548 2.222 7.5 1.612 8.511 12.183 16.18 7.02 5.09 16.367 15.292 16.367 15.292s.71-.07 12.402 10.88c11.688 10.96 28.028 29.948 37.36 48.25 2.328 4.57 4.078 8 5.398 10.57 3.93 7.75 3.191 11.148 2.871 12.93a211.606 211.606 0 0 0 -2.55 30.987c-14.989.692-28.04-10.117-29.098-11.91-3.192-5.18-2.73-13.078-5.723-18.758-3.277-6.261-6.418-12.78-10.18-18.789-6.84-10.89-18.757-21.953-32.359-23.293-14.281-1.32-19.96 8.793-15.14 20.793zm109.66-76.59a150.562 150.562 0 0 0 -27.95-25.98 8.339 8.339 0 0 0 1.649-.23c7.492-1.88 17.351-11.012 17.351-11.012l7.04 2.312s19.43 18 24.96 30.25c9.258 20.54 4.328 24.008 4.328 24.008-5.09 4.832-15.52-4.648-27.378-19.398zm0 0" fill="url(#c)"/></g><g clip-path="url(#f)" mask="url(#e)"><path d="m20.371 234.441c.55-.402.277.918 6.82 3.86 5.758 1.62 10.258 6.039 12.93 11.277l.438.41a28.31 28.31 0 0 1 2.421 7.403c1.5 8.34-10.66 11.968-10.66 11.968-.82-.87-8.64-22.668-10.96-28.21-.27-.79-.47-1.61-.622-2.43-.027 0-.066-.008-.11-.008-1.097-3.352-.808-3.871-.257-4.27zm0 0" fill="#fff" stroke="#000" stroke-width=".25"/></g><g clip-path="url(#h)" mask="url(#g)"><path d="m240.512 46.89c-2.082-.94-4.961-7.331-4.961-7.331-1.84-2.79 4.719-8.34 10.52-9.79 5.5-1.44 10.41 8.88 10.85 12.532h.028v.62c-.289 2.868-13.96 4.599-15.988 4.009-.11.011-.223-.09-.332-.09" fill="#fff" stroke="#000" stroke-width=".25"/></g><g clip-path="url(#j)" mask="url(#i)"><path d="m86.172 183.79a32.354 32.354 0 0 1 -5.192 2.722c12.051-2.98 21.81-14.782 28.32-24.692-.929 1-1.85 2-2.769 3.102-5.37 7.387-12.203 14.969-20.36 18.867zm11.528 3.1c-1.34 1.32-2.598 2.59-3.95 3.91 7.781-5.331 17.14-14.3 20.398-23.16-.777 1.258-1.609 2.419-2.437 3.59-3.281 5.7-8.68 11.372-14.012 15.66zm-16.802-9.57a72.285 72.285 0 0 0 -3.09 4.13c7.633-8.391 17.481-14.919 25.782-22.72-1.48.91-2.918 1.918-4.469 2.961-5.86 5.22-12.48 10.008-18.223 15.63zm-10.008-10.789c-.992 1.29-1.89 2.54-2.769 3.79 7.54-7.11 14.5-15.801 23.45-21.31a26.17 26.17 0 0 0 -4.532 2.13c-5.898 4.488-10.918 10.16-16.148 15.39zm-21.152-39.321c-4.629 3.438-8.66 8.15-12.687 12.278-.903 1.25-1.742 2.364-2.43 3.532 6.277-6 12.149-14.008 20.098-18.02a23.359 23.359 0 0 0 -4.98 2.21zm0 0"/></g><g clip-path="url(#l)" mask="url(#k)"><path d="m147.73 111.34c9.872-1.86 18.399-8.18 25.942-14.399-6.102 7.418-15.871 14.368-25.942 14.399zm-8.539-8.14c6.97-6.29 15.75-12.93 25.29-14.81-8.993 3.669-16.872 9.938-25.29 14.81zm-2.991-8.27c6.98-6.29 7.98-8.051 17.519-9.93-8.969 3.672-9.13 5.012-17.52 9.93zm33.96-1.93c-4.75 5.672-11.582 11.898-19.281 13.16 7.21-3.12 13.043-8.691 19.281-13.16zm0 0"/></g><g clip-path="url(#n)" mask="url(#m)"><path d="m220 100.129-3.54 1.172c7.302-.301 14.29-3 19.9-7.692l-3.2 1.41a33.156 33.156 0 0 1 -13.16 5.11zm-5.52-8.949c-.98.77-1.921 1.64-2.8 2.39 6.011-2.89 11.851-7.62 18.558-8.379-1.27-.16-2.547-.16-3.816 0-4.14 1.418-8.07 3.797-11.942 5.989zm5.489 3.46-2.528 1.169c5.63-.29 11.188-3.47 15.579-6.829-.918.282-1.82.622-2.7 1a30.866 30.866 0 0 1 -10.351 4.66zm0 0"/></g><g clip-path="url(#p)" mask="url(#o)"><path d="m272.719 129.82c-.98.32-1.938.739-2.93 1.07a44.92 44.92 0 0 0 16.762-4.261c-1.07.121-2.13.332-3.13.441a38.225 38.225 0 0 1 -10.702 2.75zm-3.949-5.101a23.705 23.705 0 0 0 -3.11 1.77c6.238-1.77 12.102-4.259 18.399-5.88a17.289 17.289 0 0 0 -3.508.121c-4.09 1.18-7.95 2.758-11.781 3.989zm-4.239-6.039a33.053 33.053 0 0 0 -3.02 1.629c5.989-1.68 11.989-2.938 17.817-5.137-1.11.027-2.219.129-3.308.277-3.79 1.332-7.598 2.211-11.489 3.23zm-15.921-59.72c-.739.392-1.462.84-2.13 1.34 4.258-1.152 8.649-1.878 12.79-3.53-.81-.051-1.63-.051-2.442 0-2.7.89-5.437 1.62-8.219 2.19zm0 0"/></g><g clip-path="url(#v)" mask="url(#q)"><g clip-path="url(#s)" mask="url(#r)"><path d="m278.422 184.7a5.994 5.994 0 0 1 -1.07-.712 16.345 16.345 0 0 1 -2.633-2.59 24.81 24.81 0 0 1 -3.09-4.82 44.135 44.135 0 0 1 -2.66-6.918c-.207-.648-.348-1.332-.528-2.012s-.363-1.386-.492-2.128c-.129-.75-.3-1.45-.449-2.2-.148-.75-.328-1.52-.5-2.3-.328-1.551-.672-3.13-1.07-4.739-.39-1.61-.899-3.261-1.36-4.93-.879-3.37-2.02-6.742-3.129-10.203-1.113-3.457-2.402-6.898-3.64-10.359-1.25-3.46-2.582-6.89-3.903-10.258l-3.878-9.883c-1.258-3.199-2.442-6.308-3.579-9.25a85.968 85.968 0 0 0 -3.562-8.226 33.868 33.868 0 0 0 -4.149-6.39 21.097 21.097 0 0 0 -4.32-3.954l-.96-.637c-.31-.191-.622-.332-.9-.48-.46-.262-.94-.492-1.44-.68l-1.231-.5 1.172.598c.469.242.93.5 1.36.8.6.38 1.179.79 1.737 1.243 1.5 1.18 2.82 2.566 3.942 4.11 1.43 2 2.648 4.148 3.66 6.39 1.129 2.476 2.129 5.328 3.2 8.238 1.07 2.91 2.128 6.14 3.312 9.38 2.41 6.39 4.976 13.32 7.527 20.25 1.27 3.429 2.512 6.882 3.7 10.28 1.183 3.399 2.363 6.77 3.28 10.04.5 1.64.981 3.199 1.461 4.831l1.18 4.7c.38 1.53.762 3.03 1.07 4.48.168.719.38 1.438.61 2.129.219.691.39 1.371.64 2.04a38.281 38.281 0 0 0 3.13 6.92c.96 1.712 2.128 3.29 3.468 4.72.852.922 1.82 1.73 2.871 2.41.39.23.79.45 1.223.61zm0 0"/></g><g clip-path="url(#u)" mask="url(#t)"><path d="m242.55 182.2a30.274 30.274 0 0 1 -4.76-3.259 55.706 55.706 0 0 1 -4.911-4.43c-.438-.46-.899-.94-1.367-1.421l-1.39-1.57c-.974-1.07-1.903-2.239-2.903-3.442-1-1.2-1.938-2.558-2.93-3.918a59.09 59.09 0 0 1 -2.91-4.36c-.93-1.55-1.938-3.081-2.828-4.75l-1.403-2.491-1.328-2.59-5.539-10.86c-.922-1.847-1.992-3.668-3.031-5.507l-3.2-5.532-3.3-5.39c-1.07-1.801-2.2-3.59-3.352-5.328l-3.378-5.172-3.399-4.989c-2.223-3.27-4.48-6.39-6.531-9.34l-1.531-2.132a84.329 84.329 0 0 0 -1.399-2.13l-1.37-2.128-.759-1.07-.8-.95a20.84 20.84 0 0 0 -3.481-3.101 20.415 20.415 0 0 0 -3.691-1.969 20.34 20.34 0 0 0 -6.579-1.43c-1.421-.062-2.851 0-4.261.188l-1.5.223 1.511-.122a26.267 26.267 0 0 1 4.258.11 19.391 19.391 0 0 1 9.703 3.832 21.537 21.537 0 0 1 3.2 3.058c.218.31.468.61.699.918l.648.973 1.274 2.129c.43.71.91 1.48 1.367 2.25.473.77.98 1.48 1.473 2.25l6.277 9.59 3.2 5.012 3.3 5.187c2.262 3.473 4.36 7.121 6.55 10.66l3.2 5.473c1.07 1.816 2.133 3.598 3.043 5.457 1.937 3.672 3.86 7.281 5.7 10.77l1.398 2.613 1.492 2.488c.949 1.66 2.008 3.2 3.02 4.73 1 1.532 2.128 2.942 3.09 4.34.956 1.399 2.128 2.64 3.128 3.852a64.52 64.52 0 0 0 6.05 6.219 53.72 53.72 0 0 0 5.212 4.199 34.678 34.678 0 0 0 3.636 2.27c.454.218.922.421 1.403.59zm0 0"/></g></g><g clip-path="url(#x)" mask="url(#w)"><path d="m40.238 310.57s5.172-3.98 5.992-7.8c0 0 2.051 5.14-5.992 7.8zm0 0"/></g><g clip-path="url(#z)" mask="url(#y)"><path d="m35.36 298.11s4.89-4.419 6.968-1.2c-.047.7-6.969 1.2-6.969 1.2zm0 0"/></g><g clip-path="url(#B)" mask="url(#A)"><path d="m235.238 76.398c5.64 6.133 14.832 19.543 20.403 35.282 5.558 15.742 13.468 46.34 17.668 55.68 4.203 9.35 16.261 16.269 5.12 17.35 0 0-8.16-3.339-11.718-21.312-3.563-17.976-15.02-45.136-19.973-58.77-3.699-10.218-7.09-20.16-16.86-24.077 0 0-.269-.18-.687-.531-5.082-17.75-5.55-35.399-.75-43.06.34 7.778 2.23 34.47 6.797 39.438zm0 0"/></g><g clip-path="url(#D)" mask="url(#C)"><path d="m166.078 83.3c.692-.929 1.14-1.448 1.14-1.448l9.052-2.872c4.71 1.329 8.87 3.68 10.39 7.782 4.262 11.527 19 28.41 27.149 42.418 8.152 14.011 11.98 26.64 21.41 34.101 9.43 7.457 18.48 17.758 7.32 18.848 0 0-15.258-6.719-28.879-34.34-13.62-27.61-30.129-48.668-33.629-54.898a19.143 19.143 0 0 0 -13.953-9.66zm0 0"/></g><g clip-path="url(#F)" mask="url(#E)"><path d="m142.29 183.219c12.788 13.851 25.132 11.722 25.132 11.722 8.687-.613 3.457-20.27-3.14-31.68-6.61-11.41-25.692-30.75-29.891-36.59a40.031 40.031 0 0 1 -5.461-9.702s.3 6.031-5.79 5.261c-6.081-.77-5.12-2.949-5.12-2.949a14.472 14.472 0 0 1 -3.32 4.797c-1.04.98-7.93 8.152-15.391 7.633-4.98-.34-10.18-2.852-14.008-5.16.48 1.34 1.11 2.61 1.898 3.789 4.223 3.789 8.75 7.219 13.531 10.25 13.5 8.539 28.77 28.781 41.56 42.629zm-39.22-42.559a8.339 8.339 0 0 0 1.649-.23c7.492-1.88 17.351-11.008 17.351-11.008l7.04 2.308s19.43 18 24.96 30.25c9.258 20.54 4.328 24.008 4.328 24.008-5.09 4.832-15.52-4.648-27.378-19.398a151.334 151.334 0 0 0 -27.95-25.93zm0 0"/></g><g clip-path="url(#H)" mask="url(#G)"><path d="m68.871 245.71c3.758 6.009 6.89 12.528 10.18 18.79 2.988 5.68 2.539 13.578 5.719 18.762 1.07 1.789 14.109 12.61 29.101 11.91.09-10.383.938-20.742 2.55-30.992.317-1.782 1.067-5.18-2.87-12.93-1.32-2.57-3.07-6-5.403-10.57-9.34-18.309-25.668-37.301-37.359-48.25-11.687-10.961-12.398-10.88-12.398-10.88s-9.352-10.198-16.371-15.288c-10.57-7.66-9.961-8.672-12.18-16.184a9.899 9.899 0 0 1 -.3-1.316 32.683 32.683 0 0 0 4.05 7.457c6.82 9.242 20.832 17.672 30.672 24.812 0 0 6.629 8.59 19.77 19.95 13.14 11.359 37.66 55.78 39.429 59.68 1.77 3.898-3.2 18.12-3.2 30.198 0 12.082 2.13 32.672-3.902 22.02-6.03-10.66-7.109-6.738-18.828-11.348-11.722-4.61-12.441-14.57-20.601-13.5l-8.168 1.07s10.66-7.812 8.168-17.402c-2.489-9.59-8.168-28.418-20.961-39.078a151.14 151.14 0 0 1 -6.899-6.133c8.22 4.434 15.18 11.89 19.801 19.223zm0 0"/></g><g clip-path="url(#K)" mask="url(#I)"><path d="m303.379 180.39-26.918 1.598s-8.14-6.386-12.43-28.547c-4.281-22.16-15.07-46.21-19.05-54.902-3.993-8.7-7.2-15.32-15.13-17.95a3.532 3.532 0 0 1 -.62-.28c-7.81-27.059-3.872-46.188 9.988-52.13 14.11-6.019 18.242 12.981 22.543 24.512 4.289 11.528 6.789 30.11 11.718 43.688 4.93 13.59 11.95 25.02 17.891 37.57 4.707 9.813 7.938 30.59 12.008 46.442zm0 0" fill="url(#J)"/></g></svg>