<svg viewBox="0 0 410 510" xmlns="http://www.w3.org/2000/svg" xmlns:xlink="http://www.w3.org/1999/xlink"><filter id="a" height="100%" width="100%" x="0%" y="0%"><feColorMatrix in="SourceGraphic" values="0 0 0 0 1 0 0 0 0 1 0 0 0 0 1 0 0 0 1 0"/></filter><mask id="b"><g filter="url(#a)"><path d="m0 0h410v510h-410z" fill-opacity=".851"/></g></mask><linearGradient id="c" gradientTransform="matrix(-1 0 0 1 638.765 0)" gradientUnits="userSpaceOnUse" x1="433.765" x2="433.765" y1="464.257" y2="45.743"><stop offset="0" stop-color="#fff" stop-opacity="0"/><stop offset=".427" stop-color="#d0b5b3"/><stop offset="1" stop-color="#d0b5b3"/></linearGradient><clipPath id="d"><path d="m0 0h410v510h-410z"/></clipPath><mask id="e"><g filter="url(#a)"><path d="m0 0h410v510h-410z" fill-opacity=".502"/></g></mask><clipPath id="f"><path d="m0 0h410v510h-410z"/></clipPath><mask id="g"><g filter="url(#a)"><path d="m0 0h410v510h-410z" fill-opacity=".502"/></g></mask><clipPath id="h"><path d="m0 0h410v510h-410z"/></clipPath><mask id="i"><g filter="url(#a)"><path d="m0 0h410v510h-410z" fill-opacity=".502"/></g></mask><clipPath id="j"><path d="m0 0h410v510h-410z"/></clipPath><mask id="k"><g filter="url(#a)"><path d="m0 0h410v510h-410z" fill-opacity=".502"/></g></mask><clipPath id="l"><path d="m0 0h410v510h-410z"/></clipPath><mask id="m"><g filter="url(#a)"><path d="m0 0h410v510h-410z" fill-opacity=".302"/></g></mask><clipPath id="n"><path d="m0 0h410v510h-410z"/></clipPath><mask id="o"><g filter="url(#a)"><path d="m0 0h410v510h-410z" fill-opacity=".302"/></g></mask><clipPath id="p"><path d="m0 0h410v510h-410z"/></clipPath><mask id="q"><g filter="url(#a)"><path d="m0 0h410v510h-410z" fill-opacity=".302"/></g></mask><clipPath id="r"><path d="m0 0h410v510h-410z"/></clipPath><mask id="s"><g filter="url(#a)"><path d="m0 0h410v510h-410z" fill-opacity=".102"/></g></mask><clipPath id="t"><path d="m0 0h410v510h-410z"/></clipPath><mask id="u"><g filter="url(#a)"><path d="m0 0h410v510h-410z" fill-opacity=".302"/></g></mask><clipPath id="v"><path d="m0 0h410v510h-410z"/></clipPath><mask id="w"><g filter="url(#a)"><path d="m0 0h410v510h-410z" fill-opacity=".302"/></g></mask><clipPath id="x"><path d="m0 0h410v510h-410z"/></clipPath><mask id="y"><g filter="url(#a)"><path d="m0 0h410v510h-410z" fill-opacity=".302"/></g></mask><clipPath id="z"><path d="m0 0h410v510h-410z"/></clipPath><mask id="A"><g filter="url(#a)"><path d="m0 0h410v510h-410z" fill-opacity=".102"/></g></mask><clipPath id="B"><path d="m0 0h410v510h-410z"/></clipPath><mask id="C"><g filter="url(#a)"><path d="m0 0h410v510h-410z" fill-opacity=".102"/></g></mask><clipPath id="D"><path d="m0 0h410v510h-410z"/></clipPath><mask id="E"><g filter="url(#a)"><path d="m0 0h410v510h-410z" fill-opacity=".102"/></g></mask><clipPath id="F"><path d="m0 0h410v510h-410z"/></clipPath><mask id="G"><g filter="url(#a)"><path d="m0 0h410v510h-410z" fill-opacity=".502"/></g></mask><linearGradient id="H" gradientTransform="matrix(-3.1362 0 0 -3.1362 -4915.632 6889.314)" gradientUnits="userSpaceOnUse" x1="-1658.047" x2="-1658.047" y1="2157.444" y2="2126.572"><stop offset=".36" stop-color="#0074d1"/><stop offset=".87" stop-color="#00afd1" stop-opacity="0"/></linearGradient><clipPath id="I"><path d="m0 0h410v510h-410z"/></clipPath><g clip-path="url(#d)" mask="url(#b)"><path d="m173.828 464.262c0-1.551-15.59-28.051-26.5-38.172-10.906-10.121-16.75-13.25-32.726-34.29-15.98-21.038-27.274-35.84-41.692-52.6-14.422-16.76-10.52-25.713-10.91-35.45-.39-9.738-4.68-55.719-6.629-72.469-1.95-16.75 4.29-33.902 4.29-33.902s.78-12.86 1.948-15.98c1.172-3.118-2.34-39.34-2.34-44.419 0-5.082 10.91-6.62 19.47-5.058 8.57 1.547 29.62 21.43 35.85 49.867 6.231 28.45-3.12 36.23-3.12 36.23 11.3 14.032 10.52 43.25 10.52 43.25 7.011 3.11 6.241 14.801 6.241 14.801 5.06-5.449 12.86-7.398 12.86-7.398s-.399-3.512-1.57-17.922a198.977 198.977 0 0 0 -14.801-60.781c-10.13-23.77-14.418-55.719-16.758-65.848-2.34-10.133-7.781-20.262-6.621-48.691 1.172-28.442 17.14-30.79 30.781-25.328 13.64 5.457 18.7 37.398 20.258 45.578 1.55 8.18 4.68 16.36 12.86 30.39 8.183 14.032 17.152 34.282 28.05 64.29 2.672 7.39 6.063 14.5 10.133 21.23 5.937-10.84 2.187-27.77-1.172-34.078-4.29-8.184-12.07-43.25-12.07-43.25s-17.93-15.582-22.211-25.332c-4.278-9.75-15.2-40.508-6.63-53.77 8.571-13.25 26.102-10.12 31.942-5.058 5.84 5.058 19.867 35.449 19.867 35.449l7.801 3.898c7.801 3.89 14.41 13.63 14.41 13.63a32.791 32.791 0 0 1 6.352 5.523h.277c4.692-.801 9.473-.942 14.203-.43.758-14.742 5.32-35.14 16.188-43.602 14.031-10.91 29.61.399 30.39 7.801.692 6.55-.44 40.129-.718 47.86 4.16.75 8.129 2.359 11.629 4.73 8.18 6.23 11.3 20.258 12.86 34.277 1.55 14.032-1.938 65.852-1.169 75.973.77 10.117 14.809 40.52 14.027 50.66-.777 10.129-2.34 82.59-4.68 101.29-1.366 10.96 13.852 55.19 20.27 73.25zm0 0" fill="url(#c)"/></g><g clip-path="url(#f)" mask="url(#e)"><path d="m106.73 67.61a20.137 20.137 0 0 0 3.18 8.35l.211.349c1.07-.489 2.16-.93 3.27-1.297l.058-.153c4.36-1.687 11.781-4.148 16.98-3.918 5.77.348 8.532.758 10.083.2m-.032-.04a2.805 2.805 0 0 0 1.098-.863c.652-.886-.75-6.777-4.27-11.886-.038-.024-.078-.043-.117-.07-3.332-4.723-8.37-8.981-15.472-8.512-11.29.652-16.36 9.152-15.09 17.84" fill="#fff" stroke="#000" stroke-width=".25"/></g><g clip-path="url(#h)" mask="url(#g)"><path d="m175.2 67.7c4.198-.54 8.37-1.34 12.472-2.41 2.957-.75 6.02-.938 9.047-.571.09.05.18.09.27.14 1.171.16 1.89.43 2.34.09.44-.34-1.638-6.25-4.31-10.32m.012-.117c-1.472-2.274-2.98-3.961-4.281-4.25-3.8-.621-16.012-5.453-22.52 11.566-.16 1.563-.011 3.14.418 4.64-.02.102-.039.192-.058.27.281.48.55.961.95 1.102 1.882.27 3.788.219 5.66-.13" fill="#fff" stroke="#000" stroke-width=".25"/></g><g clip-path="url(#j)" mask="url(#i)"><path d="m288.352 73.86c-.41-3.41 4.718-4.68 9.886-4.438 4.871.148 4.922 12.078 3.89 16.039.013.008.032.02.044.02-.121.328-.152.44-.223.648-1.308 2.89-12.89.601-14.25-.649-.078-.039-.129-.199-.219-.199.36-.37.782-.781 1.282-1.18-.563.419-1.043.848-1.453 1.25-1.297-1.613 1.043-11.492 1.043-11.492zm0 0" fill="#fff" stroke="#000" stroke-width=".25"/></g><g clip-path="url(#l)" mask="url(#k)"><path d="m59.262 137.48c.597-.32 1.476 1.329 7.61 5.622 5.608 2.757 9.32 8.289 10.937 14.378.132.18.25.348.363.508.707 2.73 1.02 5.543.95 8.364-.224 9.207-17.321 8.93-17.321 8.93.82-4.313-1.39-24.052-1.52-30.134-.191-1-.34-2.32-.422-3.128-.039-.008-.07-.02-.109-.032-.488-3.77-1.09-4.187-.488-4.508zm0 0" fill="#fff" stroke="#000" stroke-width=".25"/></g><g clip-path="url(#n)" mask="url(#m)"><path d="m143.238 174.488c-2.039.383-4.11.602-6.18.633 12.864 1.86 27.462-6.05 38.032-13.383-1.32.633-2.649 1.262-4.02 2-8.36 5.274-18.289 10.133-27.832 10.75zm-10.028-9.988c-2 .11-3.882.23-5.839.352 9.828 1.168 23.508.628 32.48-4.223-1.523.473-3 .82-4.492 1.172a62.683 62.683 0 0 1 -22.148 2.699zm1.77-10.121c-1.761.531-3.511 1.172-5.242 1.82 11.762-2.847 24.184-2.66 36.184-4.68-1.844-.078-3.684-.07-5.652-.07-8.258 1.13-16.899 1.403-25.29 2.93zm-7.19-9.438c-1.661.547-3.2 1.168-4.75 1.707 10.882-1.75 22.21-5.289 33.312-4.68a27.394 27.394 0 0 0 -5.211-.808c-7.832.3-15.66 2.32-23.352 3.781zm7.85-57.371c-6.1.13-12.53 1.72-18.581 2.82-1.57.532-2.98.981-4.34 1.57 9.152-1.32 19.27-4.679 28.5-3.19a24.175 24.175 0 0 0 -5.578-1.2zm0 0"/></g><g clip-path="url(#p)" mask="url(#o)"><path d="m223.898 136.84c-1.68-.07-3.359-.25-5.007-.55 9.808 4.14 21.898.562 30.59-5.29-1.43.55-2.961 1.172-4.5 1.648-6.551 3.403-14.153 5.442-21.083 4.192zm-6.089-12.52c-1.528.668-3.059 1.461-4.48 2.23 9.792-2.64 19.773-6.69 29.85-7.6-1.699-.231-3.41-.29-5.12-.18-6.739 1.082-13.59 3.55-20.25 5.55zm10.171 7.04c-1.32.199-2.761.39-4.09.468 7.95 1.781 16.91-2.45 23.66-6.668l-3.62 1.25c-4.961 2.719-10.551 4.89-15.95 4.95zm-.421-17.65c-6.16 1.86-12.18 4.29-18.34 6.259-1.43.652-2.739 1.441-4.028 2.09 8.91-2.48 17.438-6.34 26.47-8.579a23.646 23.646 0 0 0 -4.102.23zm-27.438-36.73c-6.16 1.86-12.18 4.29-18.34 6.258-1.43.653-2.742 1.442-4.031 2.09 8.91-2.476 17.441-6.34 26.469-8.578-1.367-.04-2.75.04-4.098.23zm0 0"/></g><g clip-path="url(#r)" mask="url(#q)"><path d="m298.66 147.89-4.351 1.008c8.722.223 17.3-2.18 24.64-6.898l-4.027 1.3a43.82 43.82 0 0 1 -16.262 4.59zm-5.601-12.562c-1.29.781-2.54 1.672-3.688 2.41 7.527-2.687 15.2-7.449 23.18-7.738a18.243 18.243 0 0 0 -4.492-.281c-5.09 1.18-10.09 3.531-15 5.61zm6.491 6.5-3.171 1.102c6.652.129 13.723-2.95 19.43-6.29-1.168.25-2.239.54-3.329.891a41.21 41.21 0 0 1 -12.93 4.297zm0 0"/></g><g clip-path="url(#t)" mask="url(#s)"><path d="m290.43 97.469c-.918-.11-1.852-.16-2.782-.16 4.551 2.12 10.524 3.32 14.352-.27-.64.262-1.3.461-1.98.621-2.891 1.23-6.399.852-9.59-.191zm0 0"/></g><g clip-path="url(#v)" mask="url(#u)"><path d="m289.93 222.309a31.595 31.595 0 0 1 -3.758-3.86 40.718 40.718 0 0 1 -3.73-4.91 55.653 55.653 0 0 1 -7.204-15.668 92.392 92.392 0 0 1 -2.047-10.312c-.632-3.649-1.312-7.418-2.132-11.207-.82-3.793-1.668-7.641-2.618-11.48-.953-3.833-1.992-7.634-3.05-11.372-1.063-3.738-2.262-7.379-3.442-10.879-1.18-3.512-2.48-6.86-3.808-9.992-.68-1.55-1.32-3.09-2.051-4.52l-1.04-2.12-1.171-2a40.892 40.892 0 0 0 -2.27-3.637c-.808-1.172-1.62-2.082-2.34-3.043l-2.09-2.63a25.672 25.672 0 0 0 -1.84-2.167c-2.339-2.543-3.737-3.942-3.737-3.942s1.226 1.551 3.378 4.211c.598.75 1.168 1.528 1.68 2.34.512.809 1.23 1.777 1.91 2.77.68.988 1.461 2.03 2.13 3.14a49.999 49.999 0 0 1 2.019 3.649l.992 2c.3.699.617 1.398.918 2.129.652 1.441 1.242 2.972 1.851 4.52 1.168 3.132 2.34 6.5 3.508 9.98.543 1.75 1.09 3.511 1.64 5.351.552 1.852 1.044 3.649 1.583 5.512 1.027 3.719 2.027 7.5 2.96 11.308.919 3.81 1.86 7.622 2.688 11.399.832 3.781 1.61 7.48 2.34 11.082a80.747 80.747 0 0 0 2.41 10.52c.97 3.07 2.23 6.05 3.762 8.878a44.663 44.663 0 0 0 4.367 6.782 49.538 49.538 0 0 0 4.09 4.68 31.36 31.36 0 0 0 2.98 2.69c.364.278.731.548 1.122.798zm-69.352 9.741s-.578-.55-1.527-1.538a63.637 63.637 0 0 1 -1.68-1.82c-.64-.704-1.32-1.544-2.09-2.422a45.545 45.545 0 0 1 -2.34-2.95c-.78-1.058-1.66-2.199-2.52-3.37-.862-1.169-1.683-2.45-2.593-3.68-.906-1.23-1.687-2.579-2.52-3.899-.828-1.32-1.66-2.633-2.417-3.96-.762-1.333-1.54-2.63-2.243-3.923-.699-1.289-1.359-2.539-2.007-3.718-.653-1.18-1.172-2.34-1.73-3.38-.56-1.038-1.052-2-1.45-2.859l-1.102-2.23a58.532 58.532 0 0 0 -1.007-1.942s.199.77.57 2.102c.2.668.43 1.469.7 2.398.269.922.628 1.961 1.05 3.07.418 1.11.84 2.34 1.379 3.59s1.168 2.57 1.758 3.922c.601 1.34 1.363 2.707 2.101 4.079.75 1.37 1.602 2.718 2.41 4.101.809 1.379 1.758 2.649 2.649 3.938a48.096 48.096 0 0 0 2.82 3.652 78.29 78.29 0 0 0 2.832 3.25c.938 1.008 1.867 1.89 2.719 2.738a48.574 48.574 0 0 0 4.441 3.672c.578.43 1.18.828 1.797 1.18zm0 0"/></g><g clip-path="url(#x)" mask="url(#w)"><path d="m74.86 221.922s-.88 5.969-9.61 4.43c0 0 6.82-1.18 9.61-4.43zm0 0"/></g><g clip-path="url(#z)" mask="url(#y)"><path d="m74.441 214.32c-.421.621-7.011-2.34-7.011-2.34s6.851-1.75 7.011 2.34zm0 0"/></g><g clip-path="url(#B)" mask="url(#A)"><path d="m289.93 222.309s-13.64-10.118-17.149-31.16c-3.511-21.04-12.46-57.27-21.812-70.91a94.46 94.46 0 0 0 -9.25-11.688h.281c2.898-.52 5.84-.762 8.79-.711 4.562 4.289 8.78 9.14 9.91 13.18 2.722 9.742 7.8 19.468 11.3 27.27 3.512 7.8 5.45 7.8 5.45 7.8s-3.11 20.262 1.171 34.672c4.29 14.398 14.82 31.16 11.309 31.547zm0 0"/></g><g clip-path="url(#D)" mask="url(#C)"><path d="m113.05 264s4.278-15.578 1.169-27.27c-3.11-11.69-16.36-15.98-16.36-15.98s8.95-5.059 10.91-14.809c1.391-6.941 3.57-25.71-.09-41.511a83.82 83.82 0 0 1 5.942 17.36c6.23 28.44-3.121 36.23-3.121 36.23 11.3 14.03 10.52 43.25 10.52 43.25 7.011 3.109 6.242 14.8 6.242 14.8 5.058-5.449 12.86-7.398 12.86-7.398s-.403-3.512-1.571-17.922a198.977 198.977 0 0 0 -14.801-60.781c-10.129-23.77-14.422-55.719-16.762-65.848-1.367-5.742-3.707-11.582-5.218-20.68 2.468 8.38 5.66 19.04 7.96 26.137 4.282 13.242 12.461 44.422 18.7 57.66 6.242 13.242 15.191 46.75 16.36 64.684 1.17 17.93 5.448 28.816 5.448 28.816s-11.687-2.34-17.918 5.07c-6.23 7.41-10.129 3.512-10.91-5.456-.781-8.954-9.36-16.352-9.36-16.352zm0 0"/></g><g clip-path="url(#F)" mask="url(#E)"><path d="m302.29 113.57c-.08 2.551-.15 4.68-.2 6.09a50.395 50.395 0 0 0 -7.48-1.379l-7.4-.77s-21.241-9.35-29.42-9.35l-1.61-.43c.601-7.43 2.34-18.192 5.05-25.782 2.34 6.63 5.84 14.262 10.391 16.922 6.188 3.578 22.32 8.5 30.668 14.7zm0 0"/></g><g clip-path="url(#I)" mask="url(#G)"><path d="m289.93 222.309c-6.942-.559-12.86-18.207-14.692-24.547-1.84-6.34-4.68-22.512-6.207-30.114a209.862 209.862 0 0 0 -10.66-34.328c-5.402-13.441-16.64-24.78-16.64-24.78h.28c4.688-.802 9.47-.938 14.2-.43v-.43l1.55.422c8.18 0 29.419 9.347 29.419 9.347l7.398.77c2.524.27 5.031.73 7.48 1.383v.507a30.592 30.592 0 0 1 11.633 4.68c8.18 6.23 11.297 20.262 12.86 34.281 1.168 10.75-.57 43.66-1.172 63.02-5.809.148-34.918.32-35.45.219zm0 0" fill="url(#H)"/></g></svg>