<?xml version="1.0" encoding="utf-8"?>
<!-- Generator: Adobe Illustrator 23.0.1, SVG Export Plug-In . SVG Version: 6.00 Build 0)  -->
<svg version="1.1" id="Layer_1" xmlns="http://www.w3.org/2000/svg" xmlns:xlink="http://www.w3.org/1999/xlink" x="0px" y="0px"
	 viewBox="0 0 410 510" style="enable-background:new 0 0 410 510;" xml:space="preserve">
<style type="text/css">
	.st0{opacity:0.85;fill:url(#SVGID_1_);enable-background:new    ;}
	.st1{opacity:0.5;fill:#FFFFFF;stroke:#000000;stroke-width:0.25;enable-background:new    ;}
	.st2{opacity:0.3;}
	.st3{opacity:0.3;enable-background:new    ;}
	.st4{opacity:0.1;}
	.st5{opacity:0.5;fill:url(#SVGID_2_);enable-background:new    ;}
</style>
<g>
	
		<linearGradient id="SVGID_1_" gradientUnits="userSpaceOnUse" x1="-391.1154" y1="485.7286" x2="-391.1154" y2="29.5808" gradientTransform="matrix(-1 0 0 1 -185.351 0)">
		<stop  offset="0" style="stop-color:#FFFFFF;stop-opacity:0"/>
		<stop  offset="0.4274" style="stop-color:#D0B5B3"/>
		<stop  offset="1" style="stop-color:#D0B5B3"/>
	</linearGradient>
	<path class="st0" d="M22.13,245.84c5.64,13.56,9.54,20.43,9.8,35.35v0.99c0.23,14.92-2.3,25.86,9.08,37.42l10.23,11.72
		c14.06,11.46,33.69,32.36,47.74,40.23l14.76,6.01l19.86,8.53c18.51,6.55,34.84,14.28,44.09,28.77
		c9.25,14.49,22.65,26.63,26.57,41.38l7.84,29.49l123.94-6.16l33.73,1.07l21.31-0.5c0,0-50.55-105.89-51.78-131.46
		c-1.24-25.58-11.16-76.29-19.37-113.24c-8.22-36.95-6.1-25.84-12.15-41.02c-6.05-15.18-9.7-45.41-15.64-57.92
		c-5.95-12.51-12.91-23.95-17.84-37.53s-7.46-32.16-11.72-43.69c-4.26-11.53-8.41-30.56-22.57-24.53
		C226.1,36.71,222.17,55.86,230,82.95c-3.71-1.27-7.63-1.77-11.54-1.48c-19.63,0.92-30.51-3.35-40.5-0.15l-9.97,3.2
		c0,0-0.45,0.52-1.14,1.45c-2.43-0.37-4.9-0.37-7.33,0c-10.58,1.59-30.62-4.37-47.82,3.94c-11.2,5.41-25.13,27.3-26.19,35.03
		c-0.37,2.66,0.93,6,3.13,9.06c-9.79-4.91-9.43-4.86-9.43-4.86s-15.16-6.8-26.56-4c-11.39,2.8-25.25,16.65-22.05,27.55
		c2.22,7.5,1.61,8.51,12.18,16.18c7.02,5.09,16.37,15.29,16.37,15.29s0.71-0.07,12.4,10.88c11.69,10.96,28.03,29.95,37.36,48.25
		c2.33,4.57,4.08,8,5.4,10.57c3.93,7.75,3.19,11.15,2.87,12.93c-1.61,10.25-2.46,20.61-2.55,30.99
		c-14.99,0.69-28.04-10.12-29.1-11.91c-3.19-5.18-2.73-13.08-5.72-18.76c-3.28-6.26-6.42-12.78-10.18-18.79
		c-6.85-10.87-18.77-21.93-32.38-23.27C22.98,223.73,17.3,233.84,22.13,245.84z M131.79,169.25c-8.18-9.81-17.57-18.54-27.95-25.98
		c0.56-0.02,1.11-0.1,1.65-0.23c7.49-1.88,17.35-11.01,17.35-11.01l7.04,2.31c0,0,19.43,18,24.96,30.25
		c9.26,20.54,4.33,24.01,4.33,24.01c-5.09,4.83-15.52-4.65-27.38-19.4L131.79,169.25z"/>
	<path class="st1" d="M21.14,237.09c0.55-0.4,0.28,0.92,6.82,3.86c5.76,1.62,10.26,6.04,12.93,11.28c0.15,0.14,0.3,0.28,0.44,0.41
		c1.14,2.34,1.96,4.83,2.42,7.4c1.5,8.34-10.66,11.97-10.66,11.97c-0.82-0.87-8.64-22.67-10.96-28.21
		c-0.27-0.79-0.47-1.61-0.62-2.43c-0.03,0-0.07-0.01-0.11-0.01C20.29,238.01,20.58,237.5,21.14,237.09z"/>
	<path class="st1" d="M241.27,49.54c-2.08-0.94-4.96-7.33-4.96-7.33c-1.84-2.79,4.72-8.34,10.52-9.79
		c5.5-1.44,10.41,8.88,10.85,12.53c0.01,0,0.02,0,0.03,0v0.62c-0.29,2.87-13.96,4.6-15.99,4.01c-0.11,0.01-0.22-0.09-0.33-0.09"/>
	<g class="st2">
		<path d="M86.93,186.44c-1.64,1.06-3.38,1.97-5.19,2.72c12.05-2.98,21.81-14.78,28.32-24.69c-0.93,1-1.85,2-2.77,3.1
			C101.93,174.96,95.09,182.54,86.93,186.44z"/>
		<path d="M98.46,189.54c-1.34,1.32-2.6,2.59-3.95,3.91c7.78-5.33,17.14-14.3,20.4-23.16c-0.78,1.26-1.61,2.42-2.44,3.59
			C109.19,179.59,103.79,185.26,98.46,189.54z"/>
		<path d="M81.67,179.97c-1.07,1.32-2.13,2.75-3.09,4.13c7.63-8.39,17.48-14.92,25.78-22.72c-1.48,0.91-2.92,1.92-4.47,2.96
			C94.03,169.56,87.4,174.36,81.67,179.97z"/>
		<path d="M71.65,169.19c-0.99,1.29-1.89,2.54-2.77,3.79c7.55-7.11,14.5-15.8,23.45-21.31c-1.57,0.56-3.09,1.28-4.53,2.13
			C81.9,158.29,76.88,163.96,71.65,169.19z"/>
		<path d="M50.51,129.86c-4.63,3.44-8.66,8.15-12.69,12.28c-0.9,1.25-1.74,2.36-2.43,3.53c6.28-6,12.15-14.01,20.1-18.02
			C53.74,128.19,52.07,128.93,50.51,129.86z"/>
	</g>
	<g class="st2">
		<path d="M148.5,114c9.87-1.86,18.4-8.18,25.94-14.4C168.34,107.02,158.57,113.96,148.5,114z"/>
		<path d="M139.95,105.85c6.97-6.29,15.75-12.93,25.29-14.81C156.25,94.72,148.38,100.98,139.95,105.85z"/>
		<path d="M136.97,97.58c6.98-6.29,7.98-8.05,17.52-9.93C145.51,91.33,145.35,92.66,136.97,97.58z"/>
		<path d="M170.93,95.66c-4.75,5.67-11.58,11.9-19.28,13.16C158.85,105.69,164.68,100.12,170.93,95.66z"/>
	</g>
	<g class="st2">
		<path d="M220.76,102.79l-3.54,1.17c7.3-0.3,14.29-3,19.9-7.69l-3.2,1.41C229.95,100.3,225.46,102.05,220.76,102.79z"/>
		<path d="M215.24,93.83c-0.98,0.77-1.92,1.64-2.8,2.39c6.01-2.89,11.85-7.62,18.56-8.38c-1.27-0.16-2.55-0.16-3.82,0
			C223.04,89.26,219.12,91.65,215.24,93.83z"/>
		<path d="M220.74,97.3l-2.53,1.17c5.63-0.29,11.19-3.47,15.58-6.83c-0.92,0.28-1.82,0.62-2.7,1
			C227.96,94.81,224.45,96.39,220.74,97.3z"/>
	</g>
	<g class="st2">
		<path d="M273.48,132.48c-0.98,0.32-1.94,0.74-2.93,1.07c5.81-0.32,11.5-1.77,16.76-4.26c-1.07,0.12-2.13,0.33-3.13,0.44
			C280.77,131.15,277.16,132.08,273.48,132.48z"/>
		<path d="M269.54,127.37c-1.08,0.51-2.12,1.1-3.11,1.77c6.24-1.77,12.1-4.26,18.4-5.88c-1.17-0.08-2.34-0.04-3.51,0.12
			C277.22,124.57,273.36,126.14,269.54,127.37z"/>
		<path d="M265.3,121.34c-1.03,0.49-2.04,1.03-3.02,1.63c5.99-1.68,11.99-2.94,17.82-5.14c-1.11,0.03-2.22,0.13-3.31,0.28
			C272.99,119.43,269.19,120.32,265.3,121.34z"/>
		<path d="M249.37,61.62c-0.74,0.39-1.46,0.84-2.13,1.34c4.26-1.15,8.65-1.88,12.79-3.53c-0.81-0.05-1.63-0.05-2.44,0
			C254.89,60.31,252.15,61.04,249.37,61.62z"/>
	</g>
	<g class="st2">
		<path class="st3" d="M279.18,187.36c-0.38-0.2-0.74-0.44-1.07-0.71c-0.97-0.76-1.85-1.63-2.63-2.59c-1.21-1.48-2.25-3.1-3.09-4.82
			c-1.08-2.23-1.97-4.54-2.66-6.92c-0.21-0.65-0.35-1.33-0.53-2.01c-0.18-0.68-0.36-1.39-0.49-2.13c-0.13-0.75-0.3-1.45-0.45-2.2
			c-0.15-0.75-0.33-1.52-0.5-2.3c-0.33-1.55-0.67-3.13-1.07-4.74c-0.39-1.61-0.9-3.26-1.36-4.93c-0.88-3.37-2.02-6.74-3.13-10.2
			c-1.11-3.46-2.4-6.89-3.64-10.36c-1.25-3.46-2.58-6.9-3.9-10.26l-3.88-9.88c-1.26-3.2-2.44-6.31-3.58-9.25
			c-1.04-2.8-2.23-5.55-3.56-8.23c-1.14-2.28-2.53-4.42-4.15-6.39c-1.25-1.51-2.7-2.84-4.32-3.95l-0.96-0.64
			c-0.31-0.19-0.62-0.33-0.9-0.48c-0.46-0.26-0.94-0.49-1.44-0.68l-1.23-0.5l1.17,0.6c0.47,0.24,0.93,0.5,1.36,0.8
			c0.6,0.38,1.18,0.79,1.74,1.24c1.5,1.18,2.82,2.57,3.94,4.11c1.43,2,2.65,4.15,3.66,6.39c1.13,2.48,2.13,5.33,3.2,8.24
			c1.07,2.91,2.13,6.14,3.31,9.38c2.41,6.39,4.98,13.32,7.53,20.25c1.27,3.43,2.52,6.88,3.7,10.28c1.18,3.4,2.36,6.77,3.28,10.04
			c0.5,1.64,0.98,3.2,1.46,4.83l1.18,4.7c0.38,1.53,0.76,3.03,1.07,4.48c0.17,0.72,0.38,1.44,0.61,2.13
			c0.22,0.69,0.39,1.37,0.64,2.04c0.81,2.4,1.86,4.72,3.13,6.92c0.96,1.71,2.13,3.29,3.47,4.72c0.85,0.92,1.82,1.73,2.87,2.41
			C278.35,186.98,278.76,187.19,279.18,187.36z"/>
		<path class="st3" d="M243.31,184.85c-1.69-0.93-3.28-2.03-4.76-3.26c-1.73-1.38-3.37-2.86-4.91-4.43
			c-0.44-0.46-0.9-0.94-1.37-1.42l-1.39-1.57c-0.97-1.07-1.9-2.24-2.9-3.44c-1-1.2-1.94-2.56-2.93-3.92
			c-0.99-1.36-1.98-2.81-2.91-4.36c-0.93-1.55-1.94-3.08-2.83-4.75l-1.4-2.49l-1.33-2.59l-5.54-10.86
			c-0.92-1.85-1.99-3.67-3.03-5.51l-3.2-5.53l-3.3-5.39c-1.07-1.8-2.2-3.59-3.35-5.33l-3.38-5.17l-3.4-4.99
			c-2.22-3.27-4.48-6.39-6.53-9.34l-1.53-2.13c-0.47-0.74-0.94-1.45-1.4-2.13l-1.37-2.13l-0.76-1.07l-0.8-0.95
			c-1.04-1.16-2.21-2.2-3.48-3.1c-1.16-0.78-2.4-1.44-3.69-1.97c-2.1-0.84-4.32-1.32-6.58-1.43c-1.42-0.06-2.85,0-4.26,0.19
			l-1.5,0.22l1.51-0.12c1.42-0.08,2.85-0.04,4.26,0.11c2.18,0.23,4.31,0.82,6.29,1.76c1.21,0.57,2.35,1.26,3.41,2.07
			c1.17,0.91,2.24,1.93,3.2,3.06c0.22,0.31,0.47,0.61,0.7,0.92l0.65,0.97l1.27,2.13c0.43,0.71,0.91,1.48,1.37,2.25
			c0.47,0.77,0.98,1.48,1.47,2.25l6.28,9.59l3.2,5.01l3.3,5.19c2.26,3.47,4.36,7.12,6.55,10.66l3.2,5.47
			c1.07,1.82,2.13,3.6,3.04,5.46c1.94,3.67,3.86,7.28,5.7,10.77l1.4,2.61l1.49,2.49c0.95,1.66,2.01,3.2,3.02,4.73
			c1,1.53,2.13,2.94,3.09,4.34c0.96,1.4,2.13,2.64,3.13,3.85c1.88,2.21,3.9,4.29,6.05,6.22c1.65,1.51,3.39,2.91,5.21,4.2
			c1.17,0.83,2.38,1.59,3.64,2.27C242.37,184.48,242.83,184.68,243.31,184.85z"/>
	</g>
	<path class="st2" d="M41,313.23c0,0,5.17-3.98,5.99-7.8C46.99,305.43,49.05,310.56,41,313.23z"/>
	<path class="st2" d="M36.12,300.77c0,0,4.89-4.42,6.97-1.2C43.05,300.27,36.12,300.77,36.12,300.77z"/>
	<path class="st4" d="M236,79.05c5.64,6.13,14.83,19.54,20.4,35.28c5.56,15.74,13.47,46.34,17.67,55.68
		c4.2,9.35,16.26,16.27,5.12,17.35c0,0-8.16-3.34-11.72-21.31c-3.56-17.98-15.02-45.14-19.97-58.77
		c-3.7-10.22-7.09-20.16-16.86-24.08c0,0-0.27-0.18-0.69-0.53c-5.08-17.75-5.55-35.4-0.75-43.06
		C229.54,47.39,231.44,74.09,236,79.05z"/>
	<path class="st4" d="M166.85,85.96c0.69-0.93,1.14-1.45,1.14-1.45l9.05-2.87c4.71,1.33,8.87,3.68,10.39,7.78
		c4.26,11.53,19,28.41,27.15,42.42c8.15,14.01,11.98,26.64,21.41,34.1s18.48,17.76,7.32,18.85c0,0-15.26-6.72-28.88-34.34
		c-13.62-27.61-30.13-48.67-33.63-54.9c-2.89-5.22-8.05-8.79-13.95-9.66V85.96z"/>
	<path class="st4" d="M143.05,185.88c12.79,13.85,25.13,11.72,25.13,11.72c8.69-0.61,3.46-20.27-3.14-31.68
		c-6.61-11.41-25.69-30.75-29.89-36.59c-2.26-2.96-4.1-6.23-5.46-9.7c0,0,0.3,6.03-5.79,5.26c-6.08-0.77-5.12-2.95-5.12-2.95
		c-0.77,1.81-1.9,3.44-3.33,4.8c-1.04,0.98-7.93,8.15-15.39,7.63c-4.98-0.34-10.18-2.85-14.01-5.16c0.48,1.34,1.11,2.61,1.9,3.79
		c4.22,3.79,8.75,7.22,13.53,10.25C114.99,151.79,130.26,172.02,143.05,185.88z M103.83,143.31c0.56-0.02,1.11-0.1,1.65-0.23
		c7.49-1.88,17.35-11.01,17.35-11.01l7.04,2.31c0,0,19.43,18,24.96,30.25c9.26,20.54,4.33,24.01,4.33,24.01
		c-5.09,4.83-15.52-4.65-27.38-19.4C123.6,159.46,114.21,150.74,103.83,143.31z"/>
	<path class="st4" d="M69.64,248.37c3.76,6.01,6.89,12.53,10.18,18.79c2.99,5.68,2.54,13.58,5.72,18.76
		c1.07,1.79,14.11,12.61,29.1,11.91c0.09-10.38,0.94-20.74,2.55-30.99c0.32-1.78,1.07-5.18-2.87-12.93c-1.32-2.57-3.07-6-5.4-10.57
		c-9.34-18.31-25.67-37.3-37.36-48.25c-11.69-10.96-12.4-10.88-12.4-10.88S49.8,174,42.78,168.91c-10.57-7.66-9.96-8.67-12.18-16.18
		c-0.13-0.43-0.23-0.87-0.3-1.32c1.02,2.65,2.38,5.16,4.05,7.46c6.82,9.24,20.83,17.67,30.67,24.81c0,0,6.63,8.59,19.77,19.95
		c13.14,11.36,37.66,55.78,39.43,59.68c1.77,3.9-3.2,18.12-3.2,30.2c0,12.08,2.13,32.67-3.9,22.02
		c-6.03-10.66-7.11-6.74-18.83-11.35c-11.72-4.61-12.44-14.57-20.6-13.5l-8.17,1.07c0,0,10.66-7.81,8.17-17.4
		c-2.48-9.59-8.17-28.42-20.96-39.08c-2.47-2.06-4.77-4.12-6.9-6.13C58.05,233.58,65.01,241.04,69.64,248.37z"/>
	<g>
		
			<linearGradient id="SVGID_2_" gradientUnits="userSpaceOnUse" x1="-1916.2917" y1="2168.822" x2="-1928.2664" y2="2124.437" gradientTransform="matrix(-3.1362 0.1568 -0.1568 -3.1362 -5431.2739 7142.0244)">
			<stop  offset="0.36" style="stop-color:#0074D1"/>
			<stop  offset="0.87" style="stop-color:#00AFD1;stop-opacity:0"/>
		</linearGradient>
		<path class="st5" d="M304.14,183.04l-26.92,1.6c0,0-8.14-6.39-12.43-28.55c-4.28-22.16-15.07-46.21-19.05-54.9
			c-3.99-8.7-7.2-15.32-15.13-17.95c-0.21-0.07-0.42-0.17-0.62-0.28c-7.81-27.06-3.87-46.19,9.99-52.13
			c14.11-6.02,18.24,12.98,22.54,24.51c4.29,11.53,6.79,30.11,11.72,43.69c4.93,13.59,11.95,25.02,17.89,37.57
			C296.84,146.41,300.08,167.2,304.14,183.04z"/>
	</g>
</g>
</svg>
