<svg enable-background="new 0 0 410 510" viewBox="0 0 410 510" xmlns="http://www.w3.org/2000/svg" xmlns:xlink="http://www.w3.org/1999/xlink"><linearGradient id="a" gradientTransform="matrix(-1 0 0 1 -185.351 0)" gradientUnits="userSpaceOnUse" x1="-391.1154" x2="-391.1154" y1="485.7286" y2="29.5808"><stop offset="0" stop-color="#fff" stop-opacity="0"/><stop offset=".4274" stop-color="#d0b5b3"/><stop offset="1" stop-color="#d0b5b3"/></linearGradient><linearGradient id="b" gradientTransform="matrix(-3.1362 .1568 -.1568 -3.1362 -5431.2739 7142.0244)" gradientUnits="userSpaceOnUse" x1="-1916.2917" x2="-1928.2664" y1="2168.822" y2="2124.437"><stop offset=".36" stop-color="#0074d1"/><stop offset=".87" stop-color="#00afd1" stop-opacity="0"/></linearGradient><path d="m22.13 245.84c5.64 13.56 9.54 20.43 9.8 35.35v.99c.23 14.92-2.3 25.86 9.08 37.42l10.23 11.72c14.06 11.46 33.69 32.36 47.74 40.23l14.76 6.01 19.86 8.53c18.51 6.55 34.84 14.28 44.09 28.77s22.65 26.63 26.57 41.38l7.84 29.49 123.94-6.16 33.73 1.07 21.31-.5s-50.55-105.89-51.78-131.46c-1.24-25.58-11.16-76.29-19.37-113.24-8.22-36.95-6.1-25.84-12.15-41.02s-9.7-45.41-15.64-57.92c-5.95-12.51-12.91-23.95-17.84-37.53s-7.46-32.16-11.72-43.69-8.41-30.56-22.57-24.53c-13.91 5.96-17.84 25.11-10.01 52.2-3.71-1.27-7.63-1.77-11.54-1.48-19.63.92-30.51-3.35-40.5-.15l-9.97 3.2s-.45.52-1.14 1.45c-2.43-.37-4.9-.37-7.33 0-10.58 1.59-30.62-4.37-47.82 3.94-11.2 5.41-25.13 27.3-26.19 35.03-.37 2.66.93 6 3.13 9.06-9.79-4.91-9.43-4.86-9.43-4.86s-15.16-6.8-26.56-4c-11.39 2.8-25.25 16.65-22.05 27.55 2.22 7.5 1.61 8.51 12.18 16.18 7.02 5.09 16.37 15.29 16.37 15.29s.71-.07 12.4 10.88c11.69 10.96 28.03 29.95 37.36 48.25 2.33 4.57 4.08 8 5.4 10.57 3.93 7.75 3.19 11.15 2.87 12.93-1.61 10.25-2.46 20.61-2.55 30.99-14.99.69-28.04-10.12-29.1-11.91-3.19-5.18-2.73-13.08-5.72-18.76-3.28-6.26-6.42-12.78-10.18-18.79-6.85-10.87-18.77-21.93-32.38-23.27-14.27-1.32-19.95 8.79-15.12 20.79zm109.66-76.59c-8.18-9.81-17.57-18.54-27.95-25.98.56-.02 1.11-.1 1.65-.23 7.49-1.88 17.35-11.01 17.35-11.01l7.04 2.31s19.43 18 24.96 30.25c9.26 20.54 4.33 24.01 4.33 24.01-5.09 4.83-15.52-4.65-27.38-19.4z" fill="url(#a)" opacity=".85"/><path d="m21.14 237.09c.55-.4.28.92 6.82 3.86 5.76 1.62 10.26 6.04 12.93 11.28.15.14.3.28.44.41 1.14 2.34 1.96 4.83 2.42 7.4 1.5 8.34-10.66 11.97-10.66 11.97-.82-.87-8.64-22.67-10.96-28.21-.27-.79-.47-1.61-.62-2.43-.03 0-.07-.01-.11-.01-1.11-3.35-.82-3.86-.26-4.27z" fill="#fff" opacity=".5" stroke="#000" stroke-width=".25"/><path d="m241.27 49.54c-2.08-.94-4.96-7.33-4.96-7.33-1.84-2.79 4.72-8.34 10.52-9.79 5.5-1.44 10.41 8.88 10.85 12.53h.03v.62c-.29 2.87-13.96 4.6-15.99 4.01-.11.01-.22-.09-.33-.09" fill="#fff" opacity=".5" stroke="#000" stroke-width=".25"/><g opacity=".3"><path d="m86.93 186.44c-1.64 1.06-3.38 1.97-5.19 2.72 12.05-2.98 21.81-14.78 28.32-24.69-.93 1-1.85 2-2.77 3.1-5.36 7.39-12.2 14.97-20.36 18.87z"/><path d="m98.46 189.54c-1.34 1.32-2.6 2.59-3.95 3.91 7.78-5.33 17.14-14.3 20.4-23.16-.78 1.26-1.61 2.42-2.44 3.59-3.28 5.71-8.68 11.38-14.01 15.66z"/><path d="m81.67 179.97c-1.07 1.32-2.13 2.75-3.09 4.13 7.63-8.39 17.48-14.92 25.78-22.72-1.48.91-2.92 1.92-4.47 2.96-5.86 5.22-12.49 10.02-18.22 15.63z"/><path d="m71.65 169.19c-.99 1.29-1.89 2.54-2.77 3.79 7.55-7.11 14.5-15.8 23.45-21.31-1.57.56-3.09 1.28-4.53 2.13-5.9 4.49-10.92 10.16-16.15 15.39z"/><path d="m50.51 129.86c-4.63 3.44-8.66 8.15-12.69 12.28-.9 1.25-1.74 2.36-2.43 3.53 6.28-6 12.15-14.01 20.1-18.02-1.75.54-3.42 1.28-4.98 2.21z"/></g><g opacity=".3"><path d="m148.5 114c9.87-1.86 18.4-8.18 25.94-14.4-6.1 7.42-15.87 14.36-25.94 14.4z"/><path d="m139.95 105.85c6.97-6.29 15.75-12.93 25.29-14.81-8.99 3.68-16.86 9.94-25.29 14.81z"/><path d="m136.97 97.58c6.98-6.29 7.98-8.05 17.52-9.93-8.98 3.68-9.14 5.01-17.52 9.93z"/><path d="m170.93 95.66c-4.75 5.67-11.58 11.9-19.28 13.16 7.2-3.13 13.03-8.7 19.28-13.16z"/></g><g opacity=".3"><path d="m220.76 102.79-3.54 1.17c7.3-.3 14.29-3 19.9-7.69l-3.2 1.41c-3.97 2.62-8.46 4.37-13.16 5.11z"/><path d="m215.24 93.83c-.98.77-1.92 1.64-2.8 2.39 6.01-2.89 11.85-7.62 18.56-8.38-1.27-.16-2.55-.16-3.82 0-4.14 1.42-8.06 3.81-11.94 5.99z"/><path d="m220.74 97.3-2.53 1.17c5.63-.29 11.19-3.47 15.58-6.83-.92.28-1.82.62-2.7 1-3.13 2.17-6.64 3.75-10.35 4.66z"/></g><g opacity=".3"><path d="m273.48 132.48c-.98.32-1.94.74-2.93 1.07 5.81-.32 11.5-1.77 16.76-4.26-1.07.12-2.13.33-3.13.44-3.41 1.42-7.02 2.35-10.7 2.75z"/><path d="m269.54 127.37c-1.08.51-2.12 1.1-3.11 1.77 6.24-1.77 12.1-4.26 18.4-5.88-1.17-.08-2.34-.04-3.51.12-4.1 1.19-7.96 2.76-11.78 3.99z"/><path d="m265.3 121.34c-1.03.49-2.04 1.03-3.02 1.63 5.99-1.68 11.99-2.94 17.82-5.14-1.11.03-2.22.13-3.31.28-3.8 1.32-7.6 2.21-11.49 3.23z"/><path d="m249.37 61.62c-.74.39-1.46.84-2.13 1.34 4.26-1.15 8.65-1.88 12.79-3.53-.81-.05-1.63-.05-2.44 0-2.7.88-5.44 1.61-8.22 2.19z"/></g><g opacity=".3"><path d="m279.18 187.36c-.38-.2-.74-.44-1.07-.71-.97-.76-1.85-1.63-2.63-2.59-1.21-1.48-2.25-3.1-3.09-4.82-1.08-2.23-1.97-4.54-2.66-6.92-.21-.65-.35-1.33-.53-2.01s-.36-1.39-.49-2.13c-.13-.75-.3-1.45-.45-2.2s-.33-1.52-.5-2.3c-.33-1.55-.67-3.13-1.07-4.74-.39-1.61-.9-3.26-1.36-4.93-.88-3.37-2.02-6.74-3.13-10.2s-2.4-6.89-3.64-10.36c-1.25-3.46-2.58-6.9-3.9-10.26l-3.88-9.88c-1.26-3.2-2.44-6.31-3.58-9.25-1.04-2.8-2.23-5.55-3.56-8.23-1.14-2.28-2.53-4.42-4.15-6.39-1.25-1.51-2.7-2.84-4.32-3.95l-.96-.64c-.31-.19-.62-.33-.9-.48-.46-.26-.94-.49-1.44-.68l-1.23-.5 1.17.6c.47.24.93.5 1.36.8.6.38 1.18.79 1.74 1.24 1.5 1.18 2.82 2.57 3.94 4.11 1.43 2 2.65 4.15 3.66 6.39 1.13 2.48 2.13 5.33 3.2 8.24s2.13 6.14 3.31 9.38c2.41 6.39 4.98 13.32 7.53 20.25 1.27 3.43 2.52 6.88 3.7 10.28s2.36 6.77 3.28 10.04c.5 1.64.98 3.2 1.46 4.83l1.18 4.7c.38 1.53.76 3.03 1.07 4.48.17.72.38 1.44.61 2.13.22.69.39 1.37.64 2.04.81 2.4 1.86 4.72 3.13 6.92.96 1.71 2.13 3.29 3.47 4.72.85.92 1.82 1.73 2.87 2.41.39.23.8.44 1.22.61z" opacity=".3"/><path d="m243.31 184.85c-1.69-.93-3.28-2.03-4.76-3.26-1.73-1.38-3.37-2.86-4.91-4.43-.44-.46-.9-.94-1.37-1.42l-1.39-1.57c-.97-1.07-1.9-2.24-2.9-3.44s-1.94-2.56-2.93-3.92-1.98-2.81-2.91-4.36-1.94-3.08-2.83-4.75l-1.4-2.49-1.33-2.59-5.54-10.86c-.92-1.85-1.99-3.67-3.03-5.51l-3.2-5.53-3.3-5.39c-1.07-1.8-2.2-3.59-3.35-5.33l-3.38-5.17-3.4-4.99c-2.22-3.27-4.48-6.39-6.53-9.34l-1.53-2.13c-.47-.74-.94-1.45-1.4-2.13l-1.37-2.13-.76-1.07-.8-.95c-1.04-1.16-2.21-2.2-3.48-3.1-1.16-.78-2.4-1.44-3.69-1.97-2.1-.84-4.32-1.32-6.58-1.43-1.42-.06-2.85 0-4.26.19l-1.5.22 1.51-.12c1.42-.08 2.85-.04 4.26.11 2.18.23 4.31.82 6.29 1.76 1.21.57 2.35 1.26 3.41 2.07 1.17.91 2.24 1.93 3.2 3.06.22.31.47.61.7.92l.65.97 1.27 2.13c.43.71.91 1.48 1.37 2.25.47.77.98 1.48 1.47 2.25l6.28 9.59 3.2 5.01 3.3 5.19c2.26 3.47 4.36 7.12 6.55 10.66l3.2 5.47c1.07 1.82 2.13 3.6 3.04 5.46 1.94 3.67 3.86 7.28 5.7 10.77l1.4 2.61 1.49 2.49c.95 1.66 2.01 3.2 3.02 4.73 1 1.53 2.13 2.94 3.09 4.34s2.13 2.64 3.13 3.85c1.88 2.21 3.9 4.29 6.05 6.22 1.65 1.51 3.39 2.91 5.21 4.2 1.17.83 2.38 1.59 3.64 2.27.46.22.92.42 1.4.59z" opacity=".3"/></g><path d="m41 313.23s5.17-3.98 5.99-7.8c0 0 2.06 5.13-5.99 7.8z" opacity=".3"/><path d="m36.12 300.77s4.89-4.42 6.97-1.2c-.04.7-6.97 1.2-6.97 1.2z" opacity=".3"/><path d="m236 79.05c5.64 6.13 14.83 19.54 20.4 35.28 5.56 15.74 13.47 46.34 17.67 55.68 4.2 9.35 16.26 16.27 5.12 17.35 0 0-8.16-3.34-11.72-21.31-3.56-17.98-15.02-45.14-19.97-58.77-3.7-10.22-7.09-20.16-16.86-24.08 0 0-.27-.18-.69-.53-5.08-17.75-5.55-35.4-.75-43.06.34 7.78 2.24 34.48 6.8 39.44z" opacity=".1"/><path d="m166.85 85.96c.69-.93 1.14-1.45 1.14-1.45l9.05-2.87c4.71 1.33 8.87 3.68 10.39 7.78 4.26 11.53 19 28.41 27.15 42.42s11.98 26.64 21.41 34.1 18.48 17.76 7.32 18.85c0 0-15.26-6.72-28.88-34.34-13.62-27.61-30.13-48.67-33.63-54.9-2.89-5.22-8.05-8.79-13.95-9.66z" opacity=".1"/><path d="m143.05 185.88c12.79 13.85 25.13 11.72 25.13 11.72 8.69-.61 3.46-20.27-3.14-31.68-6.61-11.41-25.69-30.75-29.89-36.59-2.26-2.96-4.1-6.23-5.46-9.7 0 0 .3 6.03-5.79 5.26-6.08-.77-5.12-2.95-5.12-2.95-.77 1.81-1.9 3.44-3.33 4.8-1.04.98-7.93 8.15-15.39 7.63-4.98-.34-10.18-2.85-14.01-5.16.48 1.34 1.11 2.61 1.9 3.79 4.22 3.79 8.75 7.22 13.53 10.25 13.51 8.54 28.78 28.77 41.57 42.63zm-39.22-42.57c.56-.02 1.11-.1 1.65-.23 7.49-1.88 17.35-11.01 17.35-11.01l7.04 2.31s19.43 18 24.96 30.25c9.26 20.54 4.33 24.01 4.33 24.01-5.09 4.83-15.52-4.65-27.38-19.4-8.18-9.78-17.57-18.5-27.95-25.93z" opacity=".1"/><path d="m69.64 248.37c3.76 6.01 6.89 12.53 10.18 18.79 2.99 5.68 2.54 13.58 5.72 18.76 1.07 1.79 14.11 12.61 29.1 11.91.09-10.38.94-20.74 2.55-30.99.32-1.78 1.07-5.18-2.87-12.93-1.32-2.57-3.07-6-5.4-10.57-9.34-18.31-25.67-37.3-37.36-48.25-11.69-10.96-12.4-10.88-12.4-10.88s-9.36-10.21-16.38-15.3c-10.57-7.66-9.96-8.67-12.18-16.18-.13-.43-.23-.87-.3-1.32 1.02 2.65 2.38 5.16 4.05 7.46 6.82 9.24 20.83 17.67 30.67 24.81 0 0 6.63 8.59 19.77 19.95s37.66 55.78 39.43 59.68-3.2 18.12-3.2 30.2 2.13 32.67-3.9 22.02c-6.03-10.66-7.11-6.74-18.83-11.35s-12.44-14.57-20.6-13.5l-8.17 1.07s10.66-7.81 8.17-17.4c-2.48-9.59-8.17-28.42-20.96-39.08-2.47-2.06-4.77-4.12-6.9-6.13 8.22 4.44 15.18 11.9 19.81 19.23z" opacity=".1"/><path d="m304.14 183.04-26.92 1.6s-8.14-6.39-12.43-28.55c-4.28-22.16-15.07-46.21-19.05-54.9-3.99-8.7-7.2-15.32-15.13-17.95-.21-.07-.42-.17-.62-.28-7.81-27.06-3.87-46.19 9.99-52.13 14.11-6.02 18.24 12.98 22.54 24.51 4.29 11.53 6.79 30.11 11.72 43.69 4.93 13.59 11.95 25.02 17.89 37.57 4.71 9.81 7.95 30.6 12.01 46.44z" fill="url(#b)" opacity=".5"/></svg>