<svg viewBox="0 0 410 510" xmlns="http://www.w3.org/2000/svg" xmlns:xlink="http://www.w3.org/1999/xlink"><filter id="a" height="100%" width="100%" x="0%" y="0%"><feColorMatrix in="SourceGraphic" values="0 0 0 0 1 0 0 0 0 1 0 0 0 0 1 0 0 0 1 0"/></filter><mask id="b"><g filter="url(#a)"><path d="m0 0h410v510h-410z" fill-opacity=".851"/></g></mask><linearGradient id="c" gradientUnits="userSpaceOnUse" x1="205" x2="205" y1="484.249" y2="25.751"><stop offset="0" stop-color="#fff" stop-opacity="0"/><stop offset=".427" stop-color="#d0b5b3"/><stop offset="1" stop-color="#d0b5b3"/></linearGradient><clipPath id="d"><path d="m0 0h410v510h-410z"/></clipPath><mask id="e"><g filter="url(#a)"><path d="m0 0h410v510h-410z" fill-opacity=".749"/></g></mask><mask id="f"><g filter="url(#a)"><path d="m0 0h410v510h-410z" fill-opacity=".4"/></g></mask><clipPath id="g"><path d="m0 0h410v510h-410z"/></clipPath><mask id="h"><g filter="url(#a)"><path d="m0 0h410v510h-410z" fill-opacity=".502"/></g></mask><clipPath id="i"><path d="m0 0h410v510h-410z"/></clipPath><clipPath id="j"><path d="m0 0h410v510h-410z"/></clipPath><mask id="k"><g filter="url(#a)"><path d="m0 0h410v510h-410z" fill-opacity=".502"/></g></mask><clipPath id="l"><path d="m0 0h410v510h-410z"/></clipPath><mask id="m"><g filter="url(#a)"><path d="m0 0h410v510h-410z" fill-opacity=".502"/></g></mask><clipPath id="n"><path d="m0 0h410v510h-410z"/></clipPath><mask id="o"><g filter="url(#a)"><path d="m0 0h410v510h-410z" fill-opacity=".502"/></g></mask><clipPath id="p"><path d="m0 0h410v510h-410z"/></clipPath><mask id="q"><g filter="url(#a)"><path d="m0 0h410v510h-410z" fill-opacity=".302"/></g></mask><clipPath id="r"><path d="m0 0h410v510h-410z"/></clipPath><mask id="s"><g filter="url(#a)"><path d="m0 0h410v510h-410z" fill-opacity=".302"/></g></mask><clipPath id="t"><path d="m0 0h410v510h-410z"/></clipPath><mask id="u"><g filter="url(#a)"><path d="m0 0h410v510h-410z" fill-opacity=".302"/></g></mask><clipPath id="v"><path d="m0 0h410v510h-410z"/></clipPath><mask id="w"><g filter="url(#a)"><path d="m0 0h410v510h-410z" fill-opacity=".302"/></g></mask><clipPath id="x"><path d="m0 0h410v510h-410z"/></clipPath><mask id="y"><g filter="url(#a)"><path d="m0 0h410v510h-410z" fill-opacity=".302"/></g></mask><clipPath id="z"><path d="m0 0h410v510h-410z"/></clipPath><mask id="A"><g filter="url(#a)"><path d="m0 0h410v510h-410z" fill-opacity=".302"/></g></mask><clipPath id="B"><path d="m0 0h410v510h-410z"/></clipPath><mask id="C"><g filter="url(#a)"><path d="m0 0h410v510h-410z" fill-opacity=".302"/></g></mask><clipPath id="D"><path d="m0 0h410v510h-410z"/></clipPath><mask id="E"><g filter="url(#a)"><path d="m0 0h410v510h-410z" fill-opacity=".302"/></g></mask><clipPath id="F"><path d="m0 0h410v510h-410z"/></clipPath><mask id="G"><g filter="url(#a)"><path d="m0 0h410v510h-410z" fill-opacity=".302"/></g></mask><clipPath id="H"><path d="m0 0h410v510h-410z"/></clipPath><mask id="I"><g filter="url(#a)"><path d="m0 0h410v510h-410z" fill-opacity=".302"/></g></mask><clipPath id="J"><path d="m0 0h410v510h-410z"/></clipPath><mask id="K"><g filter="url(#a)"><path d="m0 0h410v510h-410z" fill-opacity=".102"/></g></mask><clipPath id="L"><path d="m0 0h410v510h-410z"/></clipPath><mask id="M"><g filter="url(#a)"><path d="m0 0h410v510h-410z" fill-opacity=".302"/></g></mask><clipPath id="N"><path d="m0 0h410v510h-410z"/></clipPath><mask id="O"><g filter="url(#a)"><path d="m0 0h410v510h-410z" fill-opacity=".302"/></g></mask><clipPath id="P"><path d="m0 0h410v510h-410z"/></clipPath><mask id="Q"><g filter="url(#a)"><path d="m0 0h410v510h-410z" fill-opacity=".102"/></g></mask><clipPath id="R"><path d="m0 0h410v510h-410z"/></clipPath><mask id="S"><g filter="url(#a)"><path d="m0 0h410v510h-410z" fill-opacity=".102"/></g></mask><clipPath id="T"><path d="m0 0h410v510h-410z"/></clipPath><mask id="U"><g filter="url(#a)"><path d="m0 0h410v510h-410z" fill-opacity=".102"/></g></mask><clipPath id="V"><path d="m0 0h410v510h-410z"/></clipPath><mask id="W"><g filter="url(#a)"><path d="m0 0h410v510h-410z" fill-opacity=".502"/></g></mask><linearGradient id="X" gradientTransform="matrix(3.1362 0 0 -3.1362 5554.397 6889.314)" gradientUnits="userSpaceOnUse" x1="-1731.601" x2="-1717.073" y1="2143.103" y2="2187.354"><stop offset="0" stop-color="#00afd1" stop-opacity="0"/><stop offset=".64" stop-color="#0074d1"/></linearGradient><clipPath id="Y"><path d="m0 0h410v510h-410z"/></clipPath><g clip-path="url(#d)" mask="url(#b)"><path d="m296.91 113.488c-5.531 7.453-7.61 16.864-9.219 21.551-2.62 7.54-8.652 23.512-11.203 31.04.16-4.09 2.262-18.79 2.59-22.759.402-4.699-.238-23.851 3.16-26.48 1.532-1.2 8.48-2 13.602-5.969 0 0 12.05-13.21 12.14-24.152 0-5.27-2.171-10.45-8.8-14.028-15.282-8.222-27.77-4.43-35.828-2.57-3.512-.172-9.274.64-15.114 2.11 0 0 .934-7.672-20.136-3.16-13.07 2.8-25.98 6.16-26.243 6.23-2.007.558-2.93.847-2.93.847l-.109.16-10.39 2.82s-9.77 2.712-11.442 3.802c-5.008 3.27-15.218 13.129-16.797 39.742a91.944 91.944 0 0 1 8.57-38.152c6.989-15.61 13.208-18.97 15.989-28.258 7.078-23.793-8.648-31.852-18.469-30.332-5.43.84-19.82 22.761-19.82 22.761l-21.07 33.72c-10.192 15.339-11.59 27.398-15.813 74.288l-4.816 30.41c-18.364 50.063-15.64 72.813-21.684 126.172-1.379 12.27-8.808 59.219-8.808 71.559 0 13.379-31.079 45.601-34.348 58.379-2.934 11.77-5.274 14.75-9.91 25.922-2.563 6.02 180.437 20.34 184.41 13.129 14.27-26.098 42.75-32.668 63.219-52.692 7-6.828 13.75-13.918 20.39-21.078l.469.672c5.121-6.043 10.148-12.152 15.14-18.242 9.481-11.59 22.508-23.91 28.79-37.48 5.52-11.981 6.12-25.63 11.96-37.481 6.598-13.328 12.758-26.719 20.84-39.25 8.43-13.219 3.649-23.008.7-37.098-2.95-14.09-.38-25.75 2.11-39.672 2.179-12.199-5.47-20.539-18.892-16.289-12.777 4.09-22.386 20.418-26.636 32.078-2.32 6.434-3.934 13.211-5.73 19.782-1.66 5.96.468 13.308-1.481 18.84-.653 1.91-14.54 22.492-15.262 22.23.59-8.8 8.941-42.77 8.941-42.77l2.489-7.511c4.742-24.547 12.5-58.82 23.11-83.02.593-.969 1.3-1.86 2.112-2.66 10.72-13.828 10.348-17.399 17.059-25.738 7.8-9.68 9.84-16.782 12.14-27.301 1.61-7.38-5.992-27.399-25.769-22.29a39.5 39.5 0 0 0 -21.812 14.86zm0 0" fill="url(#c)"/></g><g clip-path="url(#j)" mask="url(#e)"><g clip-path="url(#g)" mask="url(#f)"><path d="m292.46 76.95c-2.64-1.579-7.698-4.419-11.538-5.509a44.252 44.252 0 0 0 -5.582-1.242" fill="#fff" stroke="#a97c50"/></g><g clip-path="url(#i)" mask="url(#h)"><path d="m278.34 68.05c-2.738.329-5.309 1.25-4.942 1.52.614.27 1.243.48 1.891.621 1.89.278 3.75.688 5.582 1.23 3.879 1.06 8.93 3.93 11.59 5.509 1.488.62 3.02 1.16 4.578 1.59.3.058.61.058.922 0v-.04a1.65 1.65 0 0 0 1.02-1.14c-2.891-6.262-13.422-8.371-16.59-9.238a11.54 11.54 0 0 0 -4.063-.063" fill="#fff" stroke="#000" stroke-width=".25"/></g></g><g clip-path="url(#l)" mask="url(#k)"><path d="m377.031 190.488c-.601-.277-.12.942-6.011 4.903-5.34 2.539-9 7.57-10.72 13.12-.128.169-.26.34-.378.5a26.903 26.903 0 0 0 -1.133 7.618c-.059 8.383 12.383 9.883 12.383 9.883.648-.98 4.656-23.532 6-29.32.129-.813.187-1.641.2-2.462.038-.011.07-.02.108-.02.52-3.46.149-3.929-.449-4.222zm0 0" fill="#fff" stroke="#000" stroke-width=".25"/></g><g clip-path="url(#n)" mask="url(#m)"><path d="m358.219 66.328a20.903 20.903 0 0 0 -15.52 3.39c-.07.02-.14.032-.21.052-4.028 2.75-6.22 6.261-5.75 6.89.241.29.542.52.89.668l13.68 1.973-13.68-1.922c1.332.512 3.941.582 9.32 1.11 4.852.491 11.403 2.952 15.16 4.55 0 .012 0 .012.012.02 1.777.66 2.828 1.21 2.828 1.21l.23-.199c1.79-1.199 3.231-2.851 4.2-4.78l.121.01c2.422-5.26-.93-11.19-11.281-12.972zm0 0" fill="#fff" stroke="#000" stroke-width=".25"/></g><g clip-path="url(#p)" mask="url(#o)"><path d="m173.031 28.75c-4.77-4.11-10.562-2.738-16.152 8.352h-.027c-.391.789-.782 1.609-1.172 2.5l.02.007c-.009.012-.009.02-.02.032l14.379 6.41c0 .008 8.082-12.89 2.972-17.301zm0 0" fill="#fff" stroke="#000" stroke-width=".25"/></g><g clip-path="url(#r)" mask="url(#q)"><path d="m336.79 80.871c5.679.55 11.5 2.48 17.019 3.91 1.402.598 2.68 1.117 3.87 1.75-8.429-1.87-17.449-5.66-26.23-4.992 1.75-.43 3.54-.66 5.34-.668zm0 0"/></g><g clip-path="url(#t)" mask="url(#s)"><path d="m333.121 114.23c1.41.758 2.719 1.54 4.027 2.31-9.68-3.368-19.449-8.43-29.77-9.759 1.661-.11 3.321-.062 4.974.149 7.148 1.61 13.968 4.718 20.77 7.3zm0 0"/></g><g clip-path="url(#v)" mask="url(#u)"><path d="m326.512 130.75a61.087 61.087 0 0 1 4.468 2.5c-10.27-4.5-21.78-6.398-32.43-10.14 1.7.218 3.4.562 5.27.87 7.36 2.34 15.25 4.02 22.692 6.77zm0 0"/></g><g clip-path="url(#x)" mask="url(#w)"><path d="m324.36 138.7c1.91.288 3.85.41 5.788.359-12.09 2.113-25.66-4.559-35.507-10.899 1.238.531 2.48 1.05 3.75 1.692 7.77 4.52 17.09 8.617 25.968 8.847zm0 0"/></g><g clip-path="url(#z)" mask="url(#y)"><path d="m315.219 146.14c1.75.65 3.39 1.301 5.152 1.95-9.18-1.7-21.242-6.02-27.75-12.649 1.207.82 2.418 1.54 3.649 2.258 5.23 3.801 12.421 6.723 18.949 8.442zm0 0"/></g><g clip-path="url(#B)" mask="url(#A)"><path d="m259.14 99.559c-9.89.863-19.71-2.88-28.538-6.79 7.777 5.45 18.937 9.45 28.539 6.79zm5.93-7.849c-8.12-4.5-18.05-8.948-27.66-8.64 9.48 1.532 18.488 5.758 27.66 8.64zm-32.25-3.651c6.051 4.132 14.211 8.242 21.88 7.382-7.63-.992-14.669-4.77-21.88-7.382zm40.2.671c-7.2-4.21-15.75-8.64-24.391-9.19 8.371 2.57 16.14 6.53 24.39 9.19zm0 0"/></g><g clip-path="url(#D)" mask="url(#C)"><path d="m190.25 107.61 3.672.44a32.807 32.807 0 0 1 -20.8-3.581l3.41.73a32.858 32.858 0 0 0 13.718 2.41zm3.98-11.84c1.11.558 2.192 1.218 3.16 1.77-6.39-1.618-12.968-5.08-19.62-4.509 1.199-.402 2.44-.64 3.699-.722 4.312.52 8.61 2.14 12.761 3.46zm-5.03 6.5 2.69.64c-5.511.82-11.53-1.191-16.44-3.582.94.094 1.878.242 2.8.442a30.55 30.55 0 0 0 10.95 2.5zm0 0"/></g><g clip-path="url(#F)" mask="url(#E)"><path d="m135.71 105.121c.99.129 1.97.367 2.962.5-5.563.73-11.223.34-16.633-1.14 1.05-.07 2.02-.051 3.05-.13 3.481.79 7.06 1.047 10.622.77zm2.911-5.68c1.05.36 2.168.72 3.25 1.18-6.23-.61-12.223-2.043-18.473-2.441a16.044 16.044 0 0 1 3.352-.52c4.078.43 8.012 1.27 11.871 1.781zm2.989-6.621c1.07.29 2.128.64 3.16 1.051-5.97-.582-11.891-.723-17.801-1.82 1.05-.18 2.18-.242 3.16-.32 3.86.609 7.621.8 11.48 1.09zm0 0"/></g><g clip-path="url(#H)" mask="url(#G)"><path d="m164.21 53.012c.868.136 1.731.328 2.571.566-4.722.64-10.543.121-12.98-3.969.508.391 1.058.743 1.62 1.051 2.25 1.79 5.567 2.399 8.79 2.352zm0 0"/></g><g clip-path="url(#J)" mask="url(#I)"><path d="m185.77 79.82-6 1.63a33.525 33.525 0 0 0 -7.758 5.89 39.488 39.488 0 0 0 -3.383 4.148 43.225 43.225 0 0 0 -2.758 4.864 49.626 49.626 0 0 0 -3.61 11.039c-.831 3.84-1.292 7.84-1.82 11.699-.543 3.86-1.242 7.77-1.96 11.59-.72 3.832-1.41 7.582-2.11 11.199l-3.89 19.851c-1.141 5.82-2.11 10.66-2.743 14.06l-1.047 5.339s.528-1.91 1.399-5.27c.87-3.359 6.21-29.507 6.98-33.18 1.551-7.25 3.371-15.417 4.559-23.28.312-1.977.531-3.938.793-5.868.258-1.93.578-3.84.957-5.722a53.58 53.58 0 0 1 3.34-10.649 34.257 34.257 0 0 1 5.62-8.7c2.231-2.429 5.583-4.401 8.06-5.92a40.027 40.027 0 0 1 5.37-2.72zm11.32 105.04c1.3-1.36 2.52-2.79 3.672-4.282a83.542 83.542 0 0 0 12.136-21.367 79.58 79.58 0 0 0 3.243-10.473 75.778 75.778 0 0 0 1.73-11.59c.238-3.976.469-8.168.93-12.238.84-8.05 2.32-16.02 4.43-23.84.98-3.601 2.18-7.14 3.578-10.601a50.857 50.857 0 0 1 4.632-8.95 17.404 17.404 0 0 1 6.079-6.039 57.351 57.351 0 0 1 6.152-2.199 27.99 27.99 0 0 1 4.078-.96c.352-.051.7-.083 1.05-.083-.35.043-.71.114-1.05.192-1.34.34-2.672.75-3.96 1.242-.83.34-1.759.656-2.75 1.047l-1.552.672c-.547.21-1.09.46-1.597.75a17.557 17.557 0 0 0 -5.43 5.968c-3.16 5.18-5.531 11.97-7.45 19.352a171.058 171.058 0 0 0 -4.222 23.578c-.469 4.082-.719 8.09-.988 12.18a74.619 74.619 0 0 1 -10.04 31.422 77.442 77.442 0 0 1 -8.78 12.097 45.712 45.712 0 0 1 -3.891 4.121zm79.86-19.551s-.212.73-.59 2c-.38 1.27-.91 3.082-1.579 5.27-.672 2.19-1.39 4.671-2.203 7.382-.398 1.34-.789 2.75-1.226 4.148-.442 1.403-.832 2.852-1.243 4.29-.41 1.44-.847 2.87-1.257 4.28l-1.172 4.212c-.371 1.359-.758 2.668-1.13 3.898-.37 1.23-.679 2.422-.991 3.512-1.18 4.36-2.11 7.238-2.11 7.238s.281-3.09 1.051-7.668c.18-1.14.352-2.39.64-3.68.301-1.293.551-2.64.86-4.05.32-1.403.61-2.871 1.05-4.301.438-1.43.81-2.91 1.212-4.371.398-1.457.84-2.918 1.328-4.309.48-1.39.96-2.781 1.41-4.11.45-1.331.98-2.581 1.441-3.769a68.1 68.1 0 0 1 1.38-3.32c.449-1.012.89-1.93 1.257-2.742.383-.809.75-1.508 1.05-2.11.25-.609.52-1.218.821-1.8zm0 0"/></g><g clip-path="url(#L)" mask="url(#K)"><path d="m203.34 177.121c9.922-14.75 14.23-26.93 15.55-46.59 1.329-19.652 8.77-46 13.891-50.332 5.117-4.328 14.98-7.73 14.98-7.73s-22.132 5.101-26.152 15.23c-4.03 10.13-9.687 18.63-11.25 31.54-1.558 12.91-5.558 40.042-9.57 49.792-4.008 9.75-7.379 22.809 2.55 8.09zm0 0"/></g><g clip-path="url(#N)" mask="url(#M)"><path d="m372.379 270.86s-6.32-1.301-8.7-4.34c.032 0 .442 5.46 8.7 4.34zm0 0"/></g><g clip-path="url(#P)" mask="url(#O)"><path d="m371.328 257.68s-6.258-1.82-6.707 1.949c.379.57 6.707-1.95 6.707-1.95zm0 0"/></g><g clip-path="url(#R)" mask="url(#Q)"><path d="m356.191 184.922c-.722.34-1.421.719-2.113 1.129a40.928 40.928 0 0 0 -10.848 10.168c-.539.672-1.05 1.383-1.52 2.11a74.049 74.049 0 0 0 -4.081 6.542c-.39.707-.758 1.41-1.129 2.11a.953.953 0 0 1 -.078.167c-.352.672-.672 1.352-.992 2.024 0 .066-.07.156-.121.238-.309.649-.598 1.309-.887 1.95-.043.081-.07.16-.113.242-.278.648-.547 1.289-.797 1.918-.032.058-.051.12-.07.18-.25.652-.512 1.3-.743 1.929-2.32 6.43-3.93 13.21-5.73 19.781-1.66 5.961.472 13.309-1.48 18.84-.65 1.91-14.54 22.488-15.259 22.23.59-8.8 8.942-42.77 8.942-42.77l2.488-7.51c4.738-24.552 12.5-58.821 23.11-83.02.59-.97 1.3-1.86 2.109-2.66 10.742-13.829 10.351-17.399 17.062-25.739 7.797-9.68 9.84-16.781 12.137-27.3.313-1.711.281-3.45-.058-5.153-2.372 6.594-.48 10.442-5.73 18.973-7.231 11.68-8.7 6.078-8.7 6.078l-2.36 8.43c-3.69 14.46-18.71 20.613-18.71 20.613s-1.399-.344-1.348 3.879c.047 4.219-10.602 34.937-10.602 34.937-7.761 23.121-17.21 60.192-21.64 85.121-4.442 24.93 2.172 46.262 6.61 44.68 4.44-1.578-1.56-22.129 5.991-31.82 7.54-9.688 4.367-8.309 10.54-10.758 3.038-1.3 6.19-2.36 9.398-3.16 0 0-8.707-6.89-6.32-22.52 1.87-12.832 7.12-40.312 23.042-51.86zm0 0"/></g><g clip-path="url(#T)" mask="url(#S)"><path d="m304.05 96.89c-3 6.32-5.269 6.782-9.019 9.2a10.336 10.336 0 0 0 .27-9.36c.62 6.692-1.992 9.11-4.09 10.54-4.91 2.859-8.652 4.582-10.54 4.62-3.523 0-5.331-4.5-4.57 0 .758 4.5-1.261 11.25-3.851 29.508-2.578 18.25-7.2 58.653-7.2 58.653s5.098-15.672 11.419-33.942c.172-4.14 2.261-18.77 2.59-22.73.402-4.7-.239-23.848 3.16-26.48 1.531-1.2 8.48-2 13.601-5.97 0 0 7.38-8.128 10.649-16.917a7.948 7.948 0 0 0 -2.418 2.879zm0 0"/></g><g clip-path="url(#V)" mask="url(#U)"><path d="m150.21 174.09s8.08-37.48 8.778-45.13c.383-4.14.723-6.91 1.371-10.831a93.408 93.408 0 0 1 8.43-33.598c6.992-15.61 13.211-18.971 15.992-28.261 2.36-7.961 2.18-14.141.52-18.81-.121 3.45-.68 15.43-2.88 20.169-2.562 5.562-4.39 6.11-4.39 6.11s-2.75-2.5-3.742 2.273c-.988 4.758-6.59 16.61-13.05 26.437-6.458 9.832-1.278 5.75-4.739 23.45-1.54 7.84-10.43 50.953-10.54 61.03-.14 12.641 4.25-2.84 4.25-2.84zm0 0"/></g><path d="m161.16 113.672c.3-1.582.63-3.371 1.05-5.442a63.529 63.529 0 0 0 -1.05 5.442zm0 0"/><g clip-path="url(#Y)" mask="url(#W)"><path d="m109.64 156.7-3.492 22.038 43 .301a67.34 67.34 0 0 0 3.051-14.398c.52-5.61 4.77-29.29 8.192-47.051a93.206 93.206 0 0 1 8.43-33.07c6.988-15.61 13.21-18.97 15.988-28.258 7.082-23.793-8.649-31.852-18.47-30.332-5.429.84-19.82 22.761-19.82 22.761l-21.07 33.72c-10.187 15.339-11.597 27.398-15.808 74.288zm0 0" fill="url(#X)"/></g></svg>