<svg viewBox="0 0 410 510" xmlns="http://www.w3.org/2000/svg" xmlns:xlink="http://www.w3.org/1999/xlink"><filter id="a" height="100%" width="100%" x="0%" y="0%"><feColorMatrix in="SourceGraphic" values="0 0 0 0 1 0 0 0 0 1 0 0 0 0 1 0 0 0 1 0"/></filter><mask id="b"><g filter="url(#a)"><path d="m0 0h410v510h-410z" fill-opacity=".851"/></g></mask><linearGradient id="c" gradientUnits="userSpaceOnUse" x1="205" x2="205" y1="485.742" y2="24.258"><stop offset="0" stop-color="#fff" stop-opacity="0"/><stop offset=".427" stop-color="#d0b5b3"/><stop offset="1" stop-color="#d0b5b3"/></linearGradient><clipPath id="d"><path d="m0 0h410v510h-410z"/></clipPath><mask id="e"><g filter="url(#a)"><path d="m0 0h410v510h-410z" fill-opacity=".502"/></g></mask><clipPath id="f"><path d="m0 0h410v510h-410z"/></clipPath><mask id="g"><g filter="url(#a)"><path d="m0 0h410v510h-410z" fill-opacity=".502"/></g></mask><clipPath id="h"><path d="m0 0h410v510h-410z"/></clipPath><mask id="i"><g filter="url(#a)"><path d="m0 0h410v510h-410z" fill-opacity=".502"/></g></mask><clipPath id="j"><path d="m0 0h410v510h-410z"/></clipPath><mask id="k"><g filter="url(#a)"><path d="m0 0h410v510h-410z" fill-opacity=".302"/></g></mask><clipPath id="l"><path d="m0 0h410v510h-410z"/></clipPath><mask id="m"><g filter="url(#a)"><path d="m0 0h410v510h-410z" fill-opacity=".302"/></g></mask><clipPath id="n"><path d="m0 0h410v510h-410z"/></clipPath><mask id="o"><g filter="url(#a)"><path d="m0 0h410v510h-410z" fill-opacity=".302"/></g></mask><clipPath id="p"><path d="m0 0h410v510h-410z"/></clipPath><mask id="q"><g filter="url(#a)"><path d="m0 0h410v510h-410z" fill-opacity=".302"/></g></mask><clipPath id="r"><path d="m0 0h410v510h-410z"/></clipPath><mask id="s"><g filter="url(#a)"><path d="m0 0h410v510h-410z" fill-opacity=".302"/></g></mask><clipPath id="t"><path d="m0 0h410v510h-410z"/></clipPath><mask id="u"><g filter="url(#a)"><path d="m0 0h410v510h-410z" fill-opacity=".102"/></g></mask><clipPath id="v"><path d="m0 0h410v510h-410z"/></clipPath><mask id="w"><g filter="url(#a)"><path d="m0 0h410v510h-410z" fill-opacity=".102"/></g></mask><clipPath id="x"><path d="m0 0h410v510h-410z"/></clipPath><mask id="y"><g filter="url(#a)"><path d="m0 0h410v510h-410z" fill-opacity=".302"/></g></mask><clipPath id="z"><path d="m0 0h410v510h-410z"/></clipPath><mask id="A"><g filter="url(#a)"><path d="m0 0h410v510h-410z" fill-opacity=".302"/></g></mask><clipPath id="B"><path d="m0 0h410v510h-410z"/></clipPath><mask id="C"><g filter="url(#a)"><path d="m0 0h410v510h-410z" fill-opacity=".102"/></g></mask><clipPath id="D"><path d="m0 0h410v510h-410z"/></clipPath><mask id="E"><g filter="url(#a)"><path d="m0 0h410v510h-410z" fill-opacity=".102"/></g></mask><clipPath id="F"><path d="m0 0h410v510h-410z"/></clipPath><mask id="G"><g filter="url(#a)"><path d="m0 0h410v510h-410z" fill-opacity=".502"/></g></mask><linearGradient id="H" gradientTransform="matrix(3.1362 0 0 -3.1362 5554.397 6889.314)" gradientUnits="userSpaceOnUse" x1="-1672.018" x2="-1684.175" y1="2188.435" y2="2131.987"><stop offset=".36" stop-color="#0074d1"/><stop offset="1" stop-color="#00afd1" stop-opacity="0"/></linearGradient><clipPath id="I"><path d="m0 0h410v510h-410z"/></clipPath><g clip-path="url(#d)" mask="url(#b)"><path d="m351.18 217c-4.25-12.54-3.2-23.469-2.45-36.469.641-11.383-7.261-18.14-19.039-12.77-11.222 5.137-18.18 21.118-20.77 32.227-1.41 6.133-2.132 12.5-3.05 18.692-.851 5.629 1.938 12.09.75 17.36-.39 1.82-10.793 22.14-11.473 21.991-.437-8.09 3.422-40.043 3.422-40.043l1.442-7.129c3.129-44.738 15.61-88.25 19.816-132.597.652-6.942 4.48-19.203 3.39-28.59-1.988-17.192-9.527-30.442-27.038-23.57-15.121 5.93-21.059 44.117-21.418 43.68-.973 4.847-1.461 10.577-2.684 15.14-.61-4.852-3.137-9.3-9.59-11.82-14.86-5.813-25.84-.973-32.949 1.609-3.219.23-8.39 1.617-13.57 3.559 0 0 0-7.098-18.73-.649-18.727 6.45-25.848 9.688-25.848 9.688s-19.38-10.98-30.36-3.88c-10.98 7.102-25.203 9.051-32.953 20.032-12.918 18.3-8.398 10.34-10.34 74.3v21.317c-11.198 47.742-6.198 68.212-5.808 117.594.101 11.36 5.09 34.61 6.46 45.867 1.47 12.223-23.331 45.07-24.902 57.102-1.379 11.07-7.379 21.078-10.43 31.738-1.667 5.812-9.257 24.851-10.538 34.36h161.66c6.879 0 6.101-2.31 8.449-8.18 2.762-7.028 5.121-14.149 7.973-21.18 10.136-25.348 35.468-34.469 51.949-55.078 5.629-7.012 11.008-14.23 16.277-21.5.16.18.332.379.5.558 4.012-6.09 7.922-12.218 11.8-18.328 7.384-11.633 17.911-24.332 22.134-37.422 3.726-11.55 2.758-24.07 6.777-35.539 4.52-12.922 8.652-25.82 14.652-38.148 6.239-12.992.758-21.39-3.511-33.922zm-98.7-98.352c1.258-1.257 6.961-6.128 11.192-10.32-1.652 4.293-3.39 8.852-5.14 13.473.777-1.52 1.558-3.02 2.366-4.52a87.27 87.27 0 0 0 -3.66 12.239 2343.765 2343.765 0 0 0 -4.566 21.511c-.3-3.75-.55-7.57-.684-11.23-.148-4.352-2.289-18.38.492-21.153zm0 0" fill="url(#c)"/></g><g clip-path="url(#f)" mask="url(#e)"><path d="m242.969 71.172c-2.469.598-4.707 1.726-4.348 1.937.59.172 1.188.29 1.79.352.109 0 .23.008.339.02 2.29.39 4.559.917 6.781 1.59 3.18.968 6.598 1.94 9.29 2.62.019.008.038.02.05.02 1.43.398 2.879.719 4.34.969.277.02.57-.032.828-.13 0-.01-.008-.03-.008-.038.438-.223.75-.653.809-1.153-3.3-5.398-13.192-6.14-16.168-6.597-1.25-.09-2.512.039-3.723.386m18.88 6.743" fill="#fff" stroke="#000" stroke-width=".25"/></g><g clip-path="url(#h)" mask="url(#g)"><path d="m347.46 175.84c.02-.012.04-.012.06-.02.101-3.199-.29-3.59-.872-3.78-.578-.188 0 .87-4.937 5.14-4.633 2.93-7.422 7.992-8.36 13.27-.081.128-.152.269-.23.39a24.942 24.942 0 0 0 -.191 7.07c.87 7.66 12.398 7.66 12.398 7.66.48-.968 1.652-22 2.23-27.43.02-.761-.007-1.53-.097-2.3zm0 0" fill="#fff" stroke="#000" stroke-width=".25"/></g><g clip-path="url(#j)" mask="url(#i)"><path d="m302.5 25.559c-6.14.402-10.191 4.543-12.71 8.87h.01c-.019.02-.05.032-.07.051-2.66 4.598-3.449 9.739-2.832 10.418.274.282.602.48.973.59.008-.008.02-.02.04-.02 1.35.321 3.698-.327 8.62-1.269 4.43-.758 10.93.45 14.828 1.422.032.059.07.11.102.168 1.738.36 2.91.73 2.91.73l.14-.32a17.503 17.503 0 0 0 2.13-7.328c-.012-.02-.02-.043-.032-.062l.102.02c.437-7.458-4.52-13.958-14.211-13.27zm0 0" fill="#fff" stroke="#000" stroke-width=".25"/></g><g clip-path="url(#l)" mask="url(#k)"><path d="m228.95 102.059c-8.938 1.882-18.31-.45-26.81-3.028 7.7 4.098 18.36 6.528 26.81 3.028zm4.562-7.829c-7.922-3.21-17.442-6.16-26.223-4.851 8.82.39 17.5 3.25 26.223 4.851zm-29.864.25c5.98 3.09 13.891 5.95 20.793 4.31-7.082-.06-13.93-2.731-20.793-4.31zm36.782-3.851c-7.051-3.02-15.34-6.14-23.258-5.688 7.887 1.43 15.43 4.18 23.258 5.688zm0 0"/></g><g clip-path="url(#n)" mask="url(#m)"><path d="m166.95 117.031h3.39a30.13 30.13 0 0 1 -19.38-.972l3.2.293a29.887 29.887 0 0 0 12.79.68zm2.312-11.222c1.078.39 2.136.87 3.11 1.261-6.02-.78-12.403-3.199-18.411-1.941 1.05-.5 2.148-.86 3.3-1.07 3.97-.008 8 .96 12 1.75zm-3.872 6.472 2.532.29c-4.953 1.359-10.66.19-15.41-1.45.867-.02 1.75.02 2.617.098 3.32.972 6.8 1.34 10.262 1.062zm0 0"/></g><g clip-path="url(#p)" mask="url(#o)"><path d="m297.45 123.54c1.769-.169 3.519-.5 5.23-.97-10.282 4.668-23.91 1.75-34.121-1.66 1.222.18 2.453.38 3.722.649 7.989 2.261 17.149 3.77 25.168 1.98zm-6.462 8.679c1.711.18 3.32.39 5.032.562-8.57.57-20.29-.543-27.61-5.031 1.27.469 2.512.82 3.762 1.191 5.508 2.239 12.598 3.23 18.816 3.278zm6.571-16.278c1.52.329 3.082.758 4.55 1.207-10.18-1.68-20.87-.77-31.21-1.68 1.57-.187 3.16-.288 4.851-.41 7.129.442 14.531.102 21.809.883zm2.141-16.231c1.429.368 2.769.759 4.12 1.15-9.398-.81-19.261-3.098-28.75-1.938 1.461-.461 2.95-.793 4.47-.973 6.71-.21 13.491 1.012 20.16 1.762zm-11.88-49.019c5.239-.132 10.782.97 15.97 1.688 1.35.402 2.562.723 3.722 1.172-7.864-.781-16.551-3.242-24.492-1.66 1.539-.59 3.152-1 4.8-1.2zm0 0"/></g><g clip-path="url(#r)" mask="url(#q)"><path d="m116.16 122.102c.77.16 1.5.398 2.27.546-4.34.48-8.739-.078-12.82-1.628h2.37c2.649.84 5.41 1.199 8.18 1.082zm2.73-5.071c.829.36 1.641.758 2.43 1.188-4.789-.79-9.32-2.309-14.148-2.91.86-.22 1.75-.34 2.648-.348 3.11.539 6.13 1.45 9.07 2.07zm2.891-5.961c.797.309 1.59.668 2.348 1.078-4.59-.738-9.168-1.078-13.668-2.296.828-.114 1.668-.16 2.508-.172 2.922.691 5.832.98 8.812 1.39zm0 0"/></g><g clip-path="url(#t)" mask="url(#s)"><path d="m137.148 188.75s.122-1.809.332-4.98c.211-3.168.551-7.7.97-13.141.421-5.438.859-11.77 1.37-18.55.239-3.388.48-6.9.7-10.47.21-3.57.43-7.18.511-10.78.09-3.599 0-7.29.36-10.888.28-3.562.98-7.082 2.078-10.48a35.71 35.71 0 0 1 1.992-4.742 32.793 32.793 0 0 1 2.629-4.168 29.987 29.987 0 0 1 6.43-6.242 33.677 33.677 0 0 1 6.558-3.68c.973-.469 2.012-.79 2.91-1.149l2.512-.82c1.54-.441 2.75-.738 3.59-.898l1.281-.282-1.25.391c-.812.219-2 .649-3.492 1.16l-2.43.969c-.86.41-1.82.79-2.789 1.32a37.035 37.035 0 0 0 -6.18 3.88c-2.101 1.671-4.93 3.878-6.71 6.3a31.803 31.803 0 0 0 -4.168 8.57c-.973 3.301-1.59 6.68-1.852 10.11-.14 1.75-.21 3.539-.238 5.332-.032 1.789 0 3.597-.07 5.437-.223 7.32-.973 14.973-1.59 21.762-.301 3.398-2.293 27.918-2.692 31.07-.43 3.13-.762 4.969-.762 4.969zm44.582-1.941a46.5 46.5 0 0 0 2.91-4.309 76.683 76.683 0 0 0 5.97-12.219 71.44 71.44 0 0 0 2.75-8.66 70.8 70.8 0 0 0 1.78-9.922c.38-3.57.481-7.16.29-10.75-.22-3.66-.47-7.508-.508-11.289a140.82 140.82 0 0 1 1.406-22.289 86.987 86.987 0 0 1 2.102-10.082 47.296 47.296 0 0 1 3.23-8.719 15.995 15.995 0 0 1 4.852-6.172c2.058-1.187 3.879-1.988 5.379-2.687a25.975 25.975 0 0 1 3.609-1.332c.32-.09.64-.149.969-.2-.328.083-.649.173-.969.282-1.191.45-2.352.98-3.48 1.578-.72.402-1.532.8-2.38 1.313l-1.35.789c-.481.3-.938.62-1.392.968a16.155 16.155 0 0 0 -4.289 6.063c-2.3 5.078-3.718 11.539-4.66 18.488a156.86 156.86 0 0 0 -1.129 22c0 3.77.239 7.461.45 11.219.3 7.152-.56 14.3-2.56 21.172a68.119 68.119 0 0 1 -3.108 8.668 71.02 71.02 0 0 1 -6.672 12.011 42.422 42.422 0 0 1 -3.2 4.079zm64.079 7.75.3-1.938c.192-1.25.47-2.91.82-4.95l1.13-6.98c.203-1.27.39-2.601.632-3.882.239-1.278.43-2.7.618-4.07.191-1.368.441-2.708.652-4.048l.57-3.953c.168-1.277.38-2.508.559-3.68.18-1.167.34-2.296.48-3.32.559-4.117 1.11-6.86 1.11-6.86s.11 2.86 0 7.11a24.564 24.564 0 0 1 -.16 3.434c-.149 1.2-.18 2.488-.31 3.797-.132 1.312-.21 2.68-.41 4.043-.19 1.36-.402 2.75-.59 4.129a68.928 68.928 0 0 1 -.698 4.097c-.274 1.34-.543 2.653-.801 3.883-.262 1.23-.582 2.457-.871 3.61-.29 1.14-.559 2.218-.86 3.199-.3.98-.57 1.86-.82 2.648-.25.793-.5 1.453-.7 2.012-.17.57-.39 1.16-.651 1.719zm0 0"/></g><g clip-path="url(#v)" mask="url(#u)"><path d="m141.27 127.21c.968-12.87.48-32.948 30.039-39.73 0 0-21.559 5.008-28.028 12.43-6.472 7.418-8.722 23.59-9.36 37.8-.64 14.212 3.548 48.79 3.548 48.79s2.832-46.21 3.8-59.29zm0 0"/></g><g clip-path="url(#x)" mask="url(#w)"><path d="m186.578 179.059c7.434-14.54 10.012-26.168 9.043-44.258-.973-18.09 2.91-42.961 7.11-47.492 4.21-4.528 12.82-8.72 12.82-8.72s-19.61 7.11-22.192 16.802c-2.59 9.687-6.78 18.078-6.78 30.039 0 11.96-.65 37.148-3.227 46.52-2.57 9.378-4.204 21.64 3.226 7.109zm0 0"/></g><g clip-path="url(#z)" mask="url(#y)"><path d="m351.328 245.93s-5.906-.48-8.43-3c0-.008.973 4.941 8.43 3zm0 0"/></g><g clip-path="url(#B)" mask="url(#A)"><path d="m348.91 234.012s-5.91-.973-5.91 2.52c.43.48 5.91-2.52 5.91-2.52zm0 0"/></g><g clip-path="url(#D)" mask="url(#C)"><path d="m248.61 183.422c.82-10.133 2.03-23.063 3.878-35.512-.187-2.719-.347-5.46-.449-8.101-.16-4.329-2.3-18.41.48-21.16 1.262-1.258 6.961-6.13 11.192-10.32 0 0 7.668-17.72 8.41-23.4a13.544 13.544 0 0 0 -3.883-8.25c.14 3.59 2.703 9.833-1.66 16.61-5.398 8.402-11.629 16.961-15.508 18.902-3.879 1.938-9.21.48-9.21.48a50.19 50.19 0 0 1 4.359 15.02c.972 8.239-2.418 41.188-3.88 51.36-1.429 10.18 4.981 20.187 6.27 4.37zm0 0"/></g><g clip-path="url(#F)" mask="url(#E)"><path d="m319.84 239.14s-8.719-5.331-8.238-19.87c.398-12.051 2.136-37.72 15.41-50.032-9.64 6.262-15.703 20.551-18.07 30.742-1.41 6.13-2.133 12.5-3.051 18.692-.852 5.629 1.937 12.09.75 17.36-.391 1.82-10.79 22.14-11.47 21.988-.44-8.09 3.419-40.04 3.419-40.04l1.441-7.128c3.13-44.743 15.61-88.25 19.82-132.602.649-6.941 4.477-19.2 3.387-28.59a59.855 59.855 0 0 0 -1.508-8.308c.301 7.226.34 18.218-1.718 23.976-3.242 9.043-4.532 14.211-4.532 14.211s0 20.031-3.23 30.371-7.11 12.918-7.11 12.918a225.465 225.465 0 0 1 -4.519 40.703c-4.531 21.969-9.05 56.86-10.34 80.117-1.293 23.262 7.098 41.993 10.98 40.051 3.88-1.937-3.882-20.027 1.938-29.719 5.813-9.69 3.07-8.07 8.403-10.98a61.32 61.32 0 0 1 8.238-3.86zm0 0"/></g><g clip-path="url(#I)" mask="url(#G)"><path d="m295.77 238.82.671-1.218c.97-10.012 2.13-19.614 2.13-19.614l1.44-7.129c3.13-44.738 15.61-88.25 19.817-132.597.652-6.942 4.48-19.203 3.39-28.59-1.988-17.192-9.527-30.442-27.038-23.57-15.121 5.93-21.059 44.117-21.418 43.68-.973 4.847-1.461 10.546-2.672 15.09l.09 1.14-10.168 23.93 1.68-1.622a2687.85 2687.85 0 0 0 -5.141 13.47c.777-1.52 1.558-3.02 2.37-4.52a86.29 86.29 0 0 0 -3.66 12.242 2219.909 2219.909 0 0 0 -4.57 21.508l-6.18 41.851zm0 0" fill="url(#H)"/></g></svg>