<svg viewBox="0 0 410 510" xmlns="http://www.w3.org/2000/svg" xmlns:xlink="http://www.w3.org/1999/xlink"><filter id="a" height="100%" width="100%" x="0%" y="0%"><feColorMatrix in="SourceGraphic" values="0 0 0 0 1 0 0 0 0 1 0 0 0 0 1 0 0 0 1 0"/></filter><mask id="b"><g filter="url(#a)"><path d="m0 0h410v510h-410z" fill-opacity=".851"/></g></mask><linearGradient id="c" gradientUnits="userSpaceOnUse" x1="205" x2="205" y1="482.403" y2="27.597"><stop offset="0" stop-color="#fff" stop-opacity="0"/><stop offset=".427" stop-color="#d0b5b3"/><stop offset="1" stop-color="#d0b5b3"/></linearGradient><clipPath id="d"><path d="m0 0h410v510h-410z"/></clipPath><mask id="e"><g filter="url(#a)"><path d="m0 0h410v510h-410z" fill-opacity=".502"/></g></mask><clipPath id="f"><path d="m0 0h410v510h-410z"/></clipPath><mask id="g"><g filter="url(#a)"><path d="m0 0h410v510h-410z" fill-opacity=".502"/></g></mask><clipPath id="h"><path d="m0 0h410v510h-410z"/></clipPath><mask id="i"><g filter="url(#a)"><path d="m0 0h410v510h-410z" fill-opacity=".502"/></g></mask><clipPath id="j"><path d="m0 0h410v510h-410z"/></clipPath><mask id="k"><g filter="url(#a)"><path d="m0 0h410v510h-410z" fill-opacity=".502"/></g></mask><clipPath id="l"><path d="m0 0h410v510h-410z"/></clipPath><mask id="m"><g filter="url(#a)"><path d="m0 0h410v510h-410z" fill-opacity=".502"/></g></mask><clipPath id="n"><path d="m0 0h410v510h-410z"/></clipPath><mask id="o"><g filter="url(#a)"><path d="m0 0h410v510h-410z" fill-opacity=".302"/></g></mask><clipPath id="p"><path d="m0 0h410v510h-410z"/></clipPath><mask id="q"><g filter="url(#a)"><path d="m0 0h410v510h-410z" fill-opacity=".302"/></g></mask><clipPath id="r"><path d="m0 0h410v510h-410z"/></clipPath><mask id="s"><g filter="url(#a)"><path d="m0 0h410v510h-410z" fill-opacity=".302"/></g></mask><clipPath id="t"><path d="m0 0h410v510h-410z"/></clipPath><mask id="u"><g filter="url(#a)"><path d="m0 0h410v510h-410z" fill-opacity=".302"/></g></mask><clipPath id="v"><path d="m0 0h410v510h-410z"/></clipPath><mask id="w"><g filter="url(#a)"><path d="m0 0h410v510h-410z" fill-opacity=".302"/></g></mask><clipPath id="x"><path d="m0 0h410v510h-410z"/></clipPath><mask id="y"><g filter="url(#a)"><path d="m0 0h410v510h-410z" fill-opacity=".102"/></g></mask><clipPath id="z"><path d="m0 0h410v510h-410z"/></clipPath><mask id="A"><g filter="url(#a)"><path d="m0 0h410v510h-410z" fill-opacity=".502"/></g></mask><linearGradient id="B" gradientTransform="matrix(-1 0 0 -1 176.23 511.28)" gradientUnits="userSpaceOnUse" x1="-104.734" x2="-104.734" y1="313.465" y2="464.068"><stop offset="0" stop-color="#00afd1" stop-opacity="0"/><stop offset=".64" stop-color="#0074d1"/><stop offset="1" stop-color="#0074d1"/></linearGradient><clipPath id="C"><path d="m0 0h410v510h-410z"/></clipPath><g clip-path="url(#d)" mask="url(#b)"><path d="m137.621 36.68c3.66-4.47 20.32-6.301 24.688-2.54 5.082 4.47 9.96 11.989 15.75 15.04 1.832-22.758 23.171-28.758 38.41-11.989 3.05 3.457 15.14 21.04 20.12 20.43 1.52-.2 4.27-6 5.79-7.11 4.41-3.3 10.2-4.113 15.351-2.132 9.758 4.07 15.551 16.36 20.32 25.101 6.712 12.192 12.4 25 18.802 37.301 4.976 9.45 13.109 19.309 15.75 29.668 3.347 13.723 6.707 27.54 9.859 41.262 11.59 50.41 26.219 101.52 25.809 153.66-.211 12-1.098 23.969-2.641 35.867-1.52 12.91-7.719 28.66-6.098 41.364 1.418 11.687 7.617 22.257 10.77 33.539 1.73 6.097.097 33.84 4.668 36.28h-152.099c-7.11 0-6.3-2.44-8.742-8.64-2.848-7.422-5.277-14.941-8.23-22.36-10.47-26.831-32.52-41.362-49.59-63.112-8.938-11.38-17.278-23.27-25.508-35.059-8.43-12.09-20.223-25.102-25.41-38.922-4.57-12.2-4.27-25.707-9.153-37.797-5.488-13.62-10.566-27.242-17.578-40.14-7.32-13.621-2.031-22.97 1.73-36.692 3.758-13.719 2.032-25.41.508-39.328-1.32-12.191 6.614-19.922 19.313-14.84 12.09 4.88 20.32 21.649 23.68 33.43 1.828 6.5 2.949 13.309 4.27 19.918 1.218 6-1.321 13.11.198 18.7.512 1.933 12.602 23.171 13.313 22.972 0-51.73-31.3-97.762-44-146.852-4.371-16.979-8.639-54.789 21.129-48.389 24.078 5.18 26.12 43.293 37.5 60.16 6 8.84 12.09 16.062 16.258 26.12 5.59 13.52 10.98 27.032 16.363 40.552 1.316 3.347 13.719 29.27 17.578 22.359 5.18-9.25-3.66-24.191-6.398-33.129-3.563-11.89-4.473-25.101-9.043-36.691-4.368-11.18-12.188-20.93-17.887-31.399-6.203-11.383-14.23-21.75-20.024-33.332-3.93-7.84-3.449-17.18 4.473-23.27zm0 0" fill="url(#c)"/></g><g clip-path="url(#f)" mask="url(#e)"><path d="m110.8 63.172c.372-.184.688-.461.91-.813.509-.808-1.32-5.89-4.98-10.16-.058-.02-.109-.05-.171-.07-3.45-3.93-8.41-7.34-14.77-6.527-10.16 1.199-13.918 8.93-11.988 16.449h.097c.68 2.61 1.93 5.039 3.66 7.11l.204.3s1.117-.61 2.847-1.32c.02-.063.04-.13.063-.192 3.789-1.73 10.25-4.277 14.95-4.379 5.308 0 7.858.23 9.148-.41" fill="#fff" stroke="#000" stroke-width=".25"/></g><g clip-path="url(#h)" mask="url(#g)"><path d="m162.05 37.82c-1.628-1.93-3.25-3.351-4.57-3.558-3.859-.41-16.46-4.172-21.949 10.867-.062 1.402.2 2.8.739 4.101-.008.06-.02.122-.032.168.23.41.59.73 1.024.91 1.898.172 3.816.07 5.687-.296 0 0 .012 0 .012-.012 4.16-.621 8.289-1.469 12.36-2.531 2.968-.77 6.038-1.04 9.1-.82.09.042.188.07.278.113 1.223.097 1.93.297 2.34 0 .41-.301-2.027-5.39-4.98-8.84m-16.869 10.867" fill="#fff" stroke="#000" stroke-width=".25"/></g><g clip-path="url(#j)" mask="url(#i)"><path d="m215.672 46.8c-1.121-3.35-4.57-11.48-8.543-14.23l-.91-.61c-5.18-2.44-17.989-7.831-20.02 10.77 0 0 .38.66 1.04 1.61-.009.039-.02.082-.02.12 1.73 2.438 5.492 6.712 10.98 7.009 1.762.11 3.52.011 5.25-.297-.02.027-.039.058-.07.098 4.781-.91 7.723-3.051 9.762-2.848 2.64.297 2.64.508 2.847-.102a5.16 5.16 0 0 0 -.41-1.422m-8.437-14.32" fill="#fff" stroke="#000" stroke-width=".25"/></g><g clip-path="url(#l)" mask="url(#k)"><path d="m269.02 67.86c-.282-3.551-4.508-13.5-9.75-12.4-5.59 1.118-12.09 6.099-10.47 8.84 0 0 2.438 6.2 4.372 7.22.117-.18.258-.36.398-.56-.11.161-.21.31-.3.45.101 0 .199.102.3.102 1.93.718 15.04-.293 15.45-3.051zm0 0" fill="#fff" stroke="#000" stroke-width=".25"/></g><g clip-path="url(#n)" mask="url(#m)"><path d="m75.738 169.39a16.43 16.43 0 0 0 -.297-.511c-1.011-5.5-3.921-10.758-8.75-13.82-5.18-4.47-3.312-5.79-3.921-5.59-.61.203-1.442 3.3-1.88 6.68-.32 5.351 1.54 27.671 2.051 28.68 0 0 12.09 0 13.008-8.028.281-2.461.211-4.961-.21-7.41zm0 0" fill="#fff" stroke="#000" stroke-width=".25"/></g><g clip-path="url(#p)" mask="url(#o)"><path d="m122.691 146.52a32 32 0 0 1 -5.28 1.832c11.788-1.122 22.66-10.872 30.179-19.313a72.88 72.88 0 0 0 -3.05 2.54c-6.099 6.202-13.618 12.401-21.849 14.94zm-11.281-6.399-5.082 1.52c8.942-1.02 20.832-4.371 27.543-10.371-1.223.71-2.441 1.32-3.66 1.93-5.29 3.359-12.402 5.698-18.8 6.921zm-.922-8.93a60.201 60.201 0 0 0 -4.168 2.637c9.649-4.879 20.63-7.316 30.692-11.476-1.633.296-3.25.707-4.98 1.117-7.044 2.64-14.532 4.672-21.544 7.722zm-8.636-6.519c-1.32.808-2.543 1.629-3.762 2.437 9.148-3.757 18.289-9.148 28.148-10.98-1.597-.02-3.199.121-4.777.41-6.8 1.93-13.2 5.29-19.61 8.133zm3.046-49.891c-5.277 1.52-10.468 4.367-15.449 6.707-1.219.813-2.34 1.524-3.347 2.34 7.617-3.25 15.546-8.43 23.976-9.348a21.339 21.339 0 0 0 -5.18.301zm0 0"/></g><g clip-path="url(#r)" mask="url(#q)"><path d="m197.988 122.04a36.52 36.52 0 0 1 -4.566-.712c8.84 4.07 20.02 1.524 28.148-3.148-1.32.41-2.742.91-4.172 1.218-6.097 2.641-13.136 4.082-19.41 2.641zm-5.179-11.18a53.208 53.208 0 0 0 -4.168 1.73c9.039-1.828 18.289-4.88 27.539-5.18-1.54-.289-3.11-.422-4.668-.41-6.23.602-12.5 2.43-18.703 3.86zm9.043 6.6c-1.223.099-2.543.2-3.762.2 7.219 1.93 15.55-1.32 21.851-4.672l-3.351.91c-4.578 2.141-9.762 3.762-14.738 3.563zm.198-15.32c-5.69 1.32-11.28 3.15-16.972 4.57-1.316.509-2.539 1.118-3.758 1.63 8.23-1.73 16.16-4.668 24.489-6.2-1.25-.1-2.5-.1-3.758 0zm-36.991-38.75c-1.118.2-2.34.41-3.457.712 6.707.296 14.02-.102 20.32-2.641l-3.352.3a49.972 49.972 0 0 1 -13.511 1.63zm-12.188-3.93-2.742 1.52c6.2-1.628 12.09-4.37 18.191-6.199-1.02 0-2.03.098-3.05.2-4.07 1.43-8.23 3.128-12.399 4.48zm0 0"/></g><g clip-path="url(#t)" mask="url(#s)"><path d="m258.352 128.14h-3.563a31.598 31.598 0 0 0 20.32-1.019l-3.347.3a31.34 31.34 0 0 1 -13.41.72zm-2.43-11.769c-1.121.41-2.242.91-3.25 1.32 6.297-.812 13.008-3.351 19.308-2.03a13.1 13.1 0 0 0 -3.46-1.122c-4.141-.027-8.442.992-12.598 1.832zm4.058 6.777-2.64.301c5.18 1.422 11.18.2 16.16-1.52-.922-.019-1.828.02-2.738.102a29.77 29.77 0 0 1 -10.782 1.117zm-48.27-62.91c-1.12.41-2.241.813-3.25 1.223 6.5-.711 14.02-2.242 19.31-6.2-.91.298-1.73.61-2.641.91a40.806 40.806 0 0 1 -13.418 4.067zm0 0"/></g><g clip-path="url(#v)" mask="url(#u)"><path d="m299.95 147.738c-.81 0-1.63.102-2.438.102a29.089 29.089 0 0 0 13.52 1.02c-.813-.2-1.634-.301-2.442-.508-2.89.308-5.82.097-8.64-.614zm-1.759-5.788c-.921.19-1.84.429-2.742.71 5.082.2 10.063-.41 15.14 0-.839-.41-1.73-.71-2.64-.91-3.36-.11-6.61.2-9.758.2zm-1.731-6.7c-.89.14-1.78.352-2.64.61 4.88.199 9.649.812 14.532.511-.832-.281-1.68-.52-2.543-.71-3.149.089-6.2-.212-9.348-.411zm-33.429-55.602c-.851-.02-1.703.012-2.543.102 4.371 1.422 9.961 1.93 13.012-1.52-.55.282-1.129.52-1.73.711-2.47 1.32-5.692 1.32-8.739.707zm0 0"/></g><g clip-path="url(#x)" mask="url(#w)"><path d="m178.07 49.3s1.828 2.13 5.078 5.891c3.25 3.758 7.832 9.04 13.313 15.547 5.488 6.5 11.89 13.922 18.598 22.153 1.73 2.03 3.351 4.058 5.082 6.199l1.32 1.629c.2.3.41.511.61.812l.609.91a25.877 25.877 0 0 1 1.73 3.86c2.031 5.18 3.762 10.57 5.39 15.96 3.25 10.77 6.4 21.65 9.25 31.81 2.848 10.16 5.49 19.718 8.028 27.738a90.936 90.936 0 0 0 3.762 10.87c.18.352.379.692.61 1.02.3.301.51.61.812.91.508.61 1.02 1.22 1.52 1.73a39.038 39.038 0 0 0 2.847 2.95c1.73 1.73 3.152 3.05 4.172 3.961 1.02.91 1.52 1.32 1.52 1.32s-.512-.511-1.52-1.32c-1.02-.809-2.442-2.129-4.27-3.86-1-.93-1.953-1.91-2.851-2.949-.508-.511-1.02-1.12-1.52-1.73-.3-.3-.512-.61-.808-.91a4.431 4.431 0 0 1 -.711-1.121 89.952 89.952 0 0 1 -3.961-10.871c-1.32-4.07-2.64-8.43-4.07-13.11a696.134 696.134 0 0 1 -4.27-14.629c-2.95-10.16-6.102-21.039-9.45-31.808-1.73-5.39-3.35-10.774-5.39-15.961-.512-1.32-1.02-2.54-1.629-3.762-.2-.3-.3-.508-.512-.809a8.424 8.424 0 0 1 -.609-.808l-1.32-1.633c-1.73-2.129-3.461-4.168-5.078-6.2-6.711-8.128-13.012-15.75-18.391-22.26-10.672-12.919-17.891-21.529-17.891-21.529zm58.23 8.4s1.419 2.03 4.071 5.59c2.64 3.562 6.3 8.64 10.668 14.741 2.242 3.047 4.672 6.297 7.32 9.649.61.808 1.32 1.73 2.032 2.539.71.812 1.52 1.633 2.238 2.441 1.52 1.73 2.851 3.559 4.27 5.488 2.851 3.762 5.59 7.723 8.331 11.891.711 1.02 1.32 2.133 1.93 3.152.5 1.188.91 2.41 1.219 3.66.61 2.438 1.121 4.88 1.633 7.32 1.93 9.86 3.558 19.72 5.18 29.06 1.628 9.347 3.046 17.89 4.57 25.3.41 1.828.808 3.559 1.218 5.278.141.8.45 1.57.91 2.242.41.71.81 1.418 1.22 2.027a149.564 149.564 0 0 1 3.46 7.113c1.828 3.957 2.739 6.297 2.739 6.297s-1.02-2.34-2.95-6.199c-1.02-1.93-2.129-4.367-3.66-7.008-.41-.71-.808-1.32-1.219-2.031a9.818 9.818 0 0 1 -1.02-2.34c-.51-1.629-.91-3.46-1.32-5.281-1.628-7.32-3.25-15.957-4.878-25.2-1.633-9.25-3.352-19.109-5.282-28.96l-1.52-7.32a16.397 16.397 0 0 0 -1.12-3.458c-.61-1.02-1.219-2.132-1.93-3.152-2.64-4.168-5.488-8.129-8.23-11.89a131.74 131.74 0 0 0 -4.27-5.489c-.71-.91-1.422-1.629-2.238-2.539-.813-.91-1.422-1.73-2.031-2.543-2.641-3.457-4.98-6.707-7.22-9.86-4.37-6.097-7.933-11.277-10.37-14.937-2.43-3.652-3.75-5.582-3.75-5.582zm0 0"/></g><g clip-path="url(#z)" mask="url(#y)"><path d="m251.441 193.68a66.395 66.395 0 0 0 6.297 6.71c-11.379-25.609-17.988-76.62-19-84.25-1.02-7.831-6.199-13.011-13.52-20.831-7.32-7.829-11.988-18.188-15.14-21.848-2.437-2.852-25.098-24.691-31.2-28.66a29.352 29.352 0 0 0 -.608 4.37s37.91 45.02 43.601 52.34c5.688 7.317 25.41 87.009 29.57 92.169zm39.028-52.852c-.41-8.226-13.309-26.93-13.309-26.93a.26.26 0 0 1 -.101.204c2.242 5.789 8.23 44.308 11.89 62.5l1.422 3.66c-1.121-4.774.5-31.301.098-39.434zm-98.169 66.363c1.93-3.46.509-13.722.509-16.671 0-3.461-19.309-66.16-19.309-69.711 0-3.559-22.36-36.989-22.36-40.04 0-2.44-13.519-19.109-20.12-26.628a23.37 23.37 0 0 0 2.128 6.097c5.793 11.59 13.82 22.051 20.024 33.332 5.687 10.47 13.52 20.22 17.887 31.399 4.57 11.59 5.39 24.691 9.043 36.691 2.636 8.942 11.476 23.88 6.398 33.13-2.852 5.179-10.57-8.231-14.84-16.56.3 2.239 2.64 9.758 4.168 11.891 7.094 9.578 13.012 17.707 16.473 17.07zm-70.628 28.969c.098.68.238 1.36.406 2.031 0 0 1.524-12.09 2.742-17.171 1.22-5.079-15.242-52.34-25-72.97-9.761-20.628-22.66-63.62-22.66-68.698 0-3.051-1.12-10.473-2.031-15.852-1.418 10.371.61 22.66 2.64 30.488 12.29 47.453 42.141 92.274 43.903 142.172zm0 0"/><path d="m114.25 283.41c.41.41 11.281-10.98 11.281-14.84s-3.562-22.261-3.562-27.742a22.78 22.78 0 0 0 -.297-2.637v2.438c-.813.2-12.8-21.04-13.313-22.969-1.52-5.59 1.02-12.7-.199-18.7-1.32-6.608-2.441-13.41-4.27-19.92-2.64-9.349-8.538-22.052-16.968-29.27l-.91-.301s17.168 27.34 18.386 42.582c1.223 15.238 2.34 23.07-.41 23.07-2.738 0-7.828 3.149-7.828 3.149s8.942.41 10.16 2.742c1.22 2.34 7.828 14.02 7.828 15.648 0 1.63 6.614 10.57 6.204 15.238-.204 4.582-1.832 24.09-6.102 31.512zm-58.84-57.922s6.2-.508 8.84-3.148c0-.012-1.012 5.18-8.84 3.148zm2.512-12.5s6.2-1.02 6.2 2.64c-.384.513-6.2-2.64-6.2-2.64zm0 0"/></g><g clip-path="url(#C)" mask="url(#A)"><path d="m236.46 57.5c1.52-.2 4.34-5.96 5.759-7.07a15.68 15.68 0 0 1 15.25-2.121c9.703 4.043 15.46 16.261 20.203 24.953 6.668 12.117 12.316 24.75 18.687 37.078 4.95 9.398 13.13 19.191 15.66 29.5 3.333 13.64 6.672 27.379 9.801 41.02 1.34 5.59 2.66 11.218 4.04 16.968h-.02c-7.68-.5-17.77-1.11-29.078-1.816a90.753 90.753 0 0 0 -5.762-11.012c-2.629-3.64-11.922-67.281-14.55-71.93-2.63-4.648-12.43-18.59-16.06-22.23-3.64-3.64-24.35-33.34-24.35-33.34zm0 0" fill="url(#B)"/></g></svg>