<svg viewBox="0 0 410 510" xmlns="http://www.w3.org/2000/svg" xmlns:xlink="http://www.w3.org/1999/xlink"><filter id="a" height="100%" width="100%" x="0%" y="0%"><feColorMatrix in="SourceGraphic" values="0 0 0 0 1 0 0 0 0 1 0 0 0 0 1 0 0 0 1 0"/></filter><mask id="b"><g filter="url(#a)"><path d="m0 0h410v510h-410z" fill-opacity=".851"/></g></mask><linearGradient id="c" gradientTransform="matrix(-1 0 0 1 -94.718 0)" gradientUnits="userSpaceOnUse" x1="-299.717" x2="-299.717" y1="466.612" y2="43.388"><stop offset="0" stop-color="#fff" stop-opacity="0"/><stop offset=".427" stop-color="#d0b5b3"/><stop offset="1" stop-color="#d0b5b3"/></linearGradient><clipPath id="d"><path d="m0 0h410v510h-410z"/></clipPath><mask id="e"><g filter="url(#a)"><path d="m0 0h410v510h-410z" fill-opacity=".502"/></g></mask><clipPath id="f"><path d="m0 0h410v510h-410z"/></clipPath><mask id="g"><g filter="url(#a)"><path d="m0 0h410v510h-410z" fill-opacity=".502"/></g></mask><clipPath id="h"><path d="m0 0h410v510h-410z"/></clipPath><mask id="i"><g filter="url(#a)"><path d="m0 0h410v510h-410z" fill-opacity=".502"/></g></mask><clipPath id="j"><path d="m0 0h410v510h-410z"/></clipPath><mask id="k"><g filter="url(#a)"><path d="m0 0h410v510h-410z" fill-opacity=".502"/></g></mask><clipPath id="l"><path d="m0 0h410v510h-410z"/></clipPath><mask id="m"><g filter="url(#a)"><path d="m0 0h410v510h-410z" fill-opacity=".302"/></g></mask><clipPath id="n"><path d="m0 0h410v510h-410z"/></clipPath><mask id="o"><g filter="url(#a)"><path d="m0 0h410v510h-410z" fill-opacity=".302"/></g></mask><clipPath id="p"><path d="m0 0h410v510h-410z"/></clipPath><mask id="q"><g filter="url(#a)"><path d="m0 0h410v510h-410z" fill-opacity=".302"/></g></mask><clipPath id="r"><path d="m0 0h410v510h-410z"/></clipPath><mask id="s"><g filter="url(#a)"><path d="m0 0h410v510h-410z" fill-opacity=".302"/></g></mask><clipPath id="t"><path d="m0 0h410v510h-410z"/></clipPath><mask id="u"><g filter="url(#a)"><path d="m0 0h410v510h-410z" fill-opacity=".302"/></g></mask><clipPath id="v"><path d="m0 0h410v510h-410z"/></clipPath><mask id="w"><g filter="url(#a)"><path d="m0 0h410v510h-410z" fill-opacity=".302"/></g></mask><clipPath id="x"><path d="m0 0h410v510h-410z"/></clipPath><mask id="y"><g filter="url(#a)"><path d="m0 0h410v510h-410z" fill-opacity=".302"/></g></mask><clipPath id="z"><path d="m0 0h410v510h-410z"/></clipPath><mask id="A"><g filter="url(#a)"><path d="m0 0h410v510h-410z" fill-opacity=".102"/></g></mask><clipPath id="B"><path d="m0 0h410v510h-410z"/></clipPath><mask id="C"><g filter="url(#a)"><path d="m0 0h410v510h-410z" fill-opacity=".102"/></g></mask><clipPath id="D"><path d="m0 0h410v510h-410z"/></clipPath><mask id="E"><g filter="url(#a)"><path d="m0 0h410v510h-410z" fill-opacity=".102"/></g></mask><clipPath id="F"><path d="m0 0h410v510h-410z"/></clipPath><mask id="G"><g filter="url(#a)"><path d="m0 0h410v510h-410z" fill-opacity=".102"/></g></mask><clipPath id="H"><path d="m0 0h410v510h-410z"/></clipPath><mask id="I"><g filter="url(#a)"><path d="m0 0h410v510h-410z" fill-opacity=".502"/></g></mask><linearGradient id="J" gradientTransform="matrix(-3.10949782 -.40837939 .40837939 -3.10949782 -6403.460927 6146.097161)" gradientUnits="userSpaceOnUse" x1="-1878.295" x2="-1880.97" y1="2193.03" y2="2150.249"><stop offset=".36" stop-color="#0074d1"/><stop offset="1" stop-color="#00afd1" stop-opacity="0"/></linearGradient><clipPath id="K"><path d="m0 0h410v510h-410z"/></clipPath><g clip-path="url(#d)" mask="url(#b)"><path d="m73.75 46.07c13.121-.14 24.719 16.66 30 30.489 4.328 11.312 35.7 82.171 43.96 107.761 6.68 20.68 9.669 21.258 10.481 19.301h.168c-.32-36.09-9.828-48.36-13.16-67.191-.84-4.801-9.129-18.48-13.98-28.532a280.751 280.751 0 0 1 -14.64-36.328c-3.81-11.8 1.523-25.02 15.21-27.87 13.7-2.848 25.68 14.562 25.68 14.562s36.52 57.629 43.941 74.75c7.418 17.117 18.828 74.75 18.828 74.75s-6.277-58.203-9.699-70.192c-3.418-11.98-22.059-42.23-26.629-50.789-4.57-8.562-13.601-25.11-3.05-34.52 13.902-12.41 30.812-.863 37.66 6.56 6.851 7.417 43.37 56.488 46.789 69.62 3.421 13.118 11.41 62.2 15.41 77.61a24.005 24.005 0 0 0 7.27 11.808c4.21.32 14.132-6.238 16.32-14.14 3.05-11 8.332-24.43 10.55-28.18 2.211-3.738 3.852-29.8 3.852-29.8-4.762-12.118-3.73-33.47.879-42.47 7.7-15 25.37-13.789 26.45.16 1.081 13.95 7.679 25.11 9.812 39.821 2.128 14.71 1.418 23.191 1.628 39.328.22 16.14-7.992 36.75-14.652 52.582-6.668 15.828-5.348 32.649-7.988 49.442l.14.187c-.39 17.121-7.62 26.36-8.511 49.77-.89 23.41-7.438 51.441-5.457 76.53 1.988 25.102 21.68 52.84 21.68 52.84l-194.57 2.66s-17.942-23.78-31.86-44.737c-13.922-20.954-20.07-41.09-27.39-53.922-9.884-17.39-19.403-40.489-20.192-55.328-.79-14.84 1.629-26.082-.98-56.301-2.61-30.223 3.53-43.371 10.84-53.75 7.32-10.39 8.382-16.07 8.382-16.07-4.774-19.93-13.91-37.18-16.64-44.711-4.122-11.41-7.993-30.918-11.91-46.47-3.423-13.378-5.18-22.01-5.18-22.01-2.993-11.661 4.038-23.54 15.706-26.54h.024c1.578-.41 3.2-.64 4.828-.68zm0 0" fill="url(#c)"/></g><g clip-path="url(#f)" mask="url(#e)"><path d="m56.29 64.41c-.009.031-.009.07-.02.102.789 2.66.43 5.707 2.511 7.988l.23.328a31.357 31.357 0 0 1 2.977-1.726c.024-.07.043-.141.07-.223 3.942-2.277 10.802-5.777 15.904-6.329 5.539-.43 8.27-.45 9.668-1.25a.03.03 0 0 1 .02.008c.39-.25.71-.59.94-.989.5-.949 1.302-6.648-2.839-11.07-.031-.012-.07-.031-.11-.04-3.89-4.07-8.05-6.53-14.8-5.038-10.771 2.259-16.943 10.079-14.551 18.239zm0 0" fill="#fff" stroke="#000" stroke-width=".25"/></g><g clip-path="url(#h)" mask="url(#g)"><path d="m152.871 58.379c1.14 0 1.879.21 2.277-.219.403-.422-5.027-4.71-8.18-8.84m-.097-.18c-1.75-2.28-3.422-3.98-4.723-4.12-3.738-.16-17.617-3.989-21.488 15.68-.02.972.262 1.921.8 2.73 0 .039-.01.09-.01.129.331.492.75 5.472 3.34 4.703.03-.032.07-.063.1-.09 3.489-1.024 15.16-5.121 19.122-6.922 4.289-1.84 7-2.719 8.75-2.762" fill="#fff" stroke="#000" stroke-width=".25"/></g><g clip-path="url(#j)" mask="url(#i)"><path d="m219.012 60.64c-1.032-3.359-5.871-5.949-10.184-8.878-.008 0-.02 0-.027-.012l-.98-.629c-1.212-.582-14.622-9.402-24.333 6.14 0 0 .403.669 1.07 1.66a.882.882 0 0 1 -.027.079c1.79 2.488 8.77 11.45 10.68 11.328l-.102.102c5.52-.602 17.313-6.47 20.352-7.239 3.238-.57 4.289 0 4.57-.57-.441-.601-.82-1.23-1.14-1.89" fill="#fff" stroke="#000" stroke-width=".25"/></g><g clip-path="url(#l)" mask="url(#k)"><path d="m333.238 114.11c.121-.16.23-.329.352-.508-.09.128-.168.257-.25.386.09 0 .18.133.27.14 1.831.903 12.468.661 13.1-2.39v-.668h-.01c.09-3.98-.31-14.949-5.38-14-5.41.95-7.61 1.711-8.949 6.852.02 0-.871 8.937.867 10.187zm0 0" fill="#fff" stroke="#000" stroke-width=".25"/></g><g clip-path="url(#n)" mask="url(#m)"><path d="m96.738 161.602a37.417 37.417 0 0 1 -6.11 1.468c13.302 0 26.513-9.691 35.84-18.261-1.218.8-2.437 1.601-3.687 2.5-7.48 6.23-16.57 12.351-26.043 14.293zm-11.918-8.383-5.84 1.14c10.11-.16 23.758-2.609 31.961-8.578-1.441.66-2.863 1.207-4.3 1.758-6.32 3.172-14.52 5.012-21.82 5.68zm-.039-10.098c-1.68.75-3.422 1.617-4.941 2.5 11.32-4.41 23.851-5.93 35.55-9.5-1.85.16-3.71.45-5.71.707-8.102 2.192-16.711 3.613-24.899 6.293zm-2.312-9.992c-1.559.762-3.02 1.543-4.469 2.281 10.64-3.21 21.441-8.23 32.66-9.2-1.789-.21-3.59-.23-5.39-.07-7.81 1.462-15.329 4.508-22.801 6.989zm3.511-58.169c-6 1.43-11.968 4.349-17.68 6.7-1.421.86-2.698 1.59-3.89 2.442 8.719-3.243 17.899-8.633 27.39-9.204-1.94-.199-3.89-.18-5.82.063zm0 0"/></g><g clip-path="url(#p)" mask="url(#o)"><path d="m170.578 153.078a46.13 46.13 0 0 1 -5.808-.5c11.41 3.992 25.37.434 35.378-5.316-1.636.539-3.418 1.136-5.187 1.629-7.5 3.347-16.281 5.39-24.383 4.187zm-.207-14.609c-1.77.652-3.531 1.43-5.16 2.203 11.309-2.64 22.828-6.64 34.48-7.57a33.363 33.363 0 0 0 -5.921-.16c-7.801 1.128-15.649 3.538-23.399 5.527zm4.891 9.293c-1.532.187-3.203.398-4.742.468 9.218 1.711 19.558-2.468 27.332-6.628l-4.192 1.238c-5.64 2.64-12.101 4.789-18.398 4.922zm11.679-21.622c-7.113 1.84-14.062 4.25-21.171 6.212-1.641.648-3.141 1.418-4.66 2.046 10.269-2.449 20.14-6.27 30.57-8.5-1.57-.039-3.16.043-4.739.243zm-46.722-54.03-3.008 1.831c6.848-2.09 13.39-5.421 20.148-7.742-1.14.07-2.28.18-3.418.371-4.5 1.758-9.101 3.871-13.722 5.54zm0 0"/></g><g clip-path="url(#r)" mask="url(#q)"><path d="m241.21 141.73-4.882.961a53.087 53.087 0 0 0 27.703-6.652l-4.57 1.262a53.808 53.808 0 0 1 -18.25 4.43zm-5.98-12.71c-1.449.761-2.859 1.64-4.18 2.39 8.481-2.64 17.122-7.34 26.079-7.539a22.12 22.12 0 0 0 -5-.332c-5.73 1.102-11.36 3.41-16.899 5.48zm7.11 6.609-3.559 1.062c7.43.22 15.399-2.8 21.84-6.113-1.242.25-2.5.492-3.742.863a49.858 49.858 0 0 1 -14.54 4.188zm-32.871-57.348c-1.29.34-2.59.68-3.77 1.04 7.352-.16 15.91-1.141 22.211-5.06-1.05.25-2 .509-3.05.759a45.72 45.72 0 0 1 -15.391 3.261zm0 0"/></g><g clip-path="url(#t)" mask="url(#s)"><path d="m338.219 191.57c-1.028-.27-2.098-.422-3.13-.699a44.24 44.24 0 0 0 16.95 5.488c-.98-.488-1.988-.87-2.969-1.347a38.428 38.428 0 0 1 -10.851-3.442zm-.579-6.87c-1.218-.079-2.44-.16-3.69-.13 6.41 1.88 12.929 2.852 19.288 4.961a16.73 16.73 0 0 0 -3.117-1.86c-4.242-1.21-8.473-1.94-12.48-2.972zm-.32-7.872a32.548 32.548 0 0 0 -3.539-.187c6.16 1.808 12.07 4.039 18.36 5.308a30.884 30.884 0 0 0 -3.04-1.61c-4.03-.917-7.82-2.237-11.78-3.51zm1.211-50.359c-.941.152-1.87.36-2.781.64 5.121.672 11.41.082 14.05-4.359-.55.43-1.14.809-1.76 1.14-2.392 1.962-5.99 2.622-9.509 2.579zm0 0"/></g><g clip-path="url(#v)" mask="url(#u)"><path d="m86.84 186.5.941 3.809c.617 2.43 1.438 5.902 2.41 10.07.5 2.082 1.02 4.34 1.54 6.723.519 2.378 1.14 4.91 1.597 7.52.461 2.608 1.14 5.32 1.524 8.07.238 1.378.476 2.757.707 4.148.23 1.39.332 2.8.5 4.2.171 1.401.351 2.82.48 4.179.133 1.36.16 2.84.242 4.25.14 2.8.34 5.562.5 8.23.16 2.672.239 5.242.367 7.692.133 2.449.243 4.757.34 6.847.41 8.551.672 14.25.672 14.25s.11-1.43.25-3.93.3-6.058.39-10.347v-6.93c0-2.453 0-5.07-.07-7.742a310.74 310.74 0 0 0 -.32-8.238c-.058-1.403-.129-2.82-.191-4.25-.07-1.43-.297-2.88-.45-4.313-.148-1.43-.3-2.879-.55-4.289-.25-1.418-.508-2.808-.758-4.199-.45-2.8-1.14-5.488-1.723-8.102-.578-2.609-1.27-5.136-1.918-7.507-.332-1.141-.64-2.282-.949-3.422-.312-1.14-.66-2.18-.98-3.207-.602-2.051-1.211-3.934-1.782-5.582-.57-1.649-1.03-3.09-1.46-4.27-.77-2.34-1.31-3.66-1.31-3.66zm0 0"/></g><g clip-path="url(#x)" mask="url(#w)"><path d="m82.59 234.25s-2.41 5.379-10.2 1.61c.04 0 6.72.699 10.2-1.61zm0 0"/></g><g clip-path="url(#z)" mask="url(#y)"><path d="m84.219 227c-.57.469-5.899-4.102-5.899-4.102s6.852.192 5.899 4.102zm0 0"/></g><g clip-path="url(#B)" mask="url(#A)"><path d="m109.281 89.89c10.528 24.782 31.809 74.02 38.418 94.391 6.68 20.68 9.672 21.258 10.48 19.297h.173c-.32-36.09-9.832-48.36-13.16-67.187-.84-4.801-9.133-18.48-13.981-28.532a280.42 280.42 0 0 1 -14.64-36.328 23.601 23.601 0 0 1 -.743-11.96 65.707 65.707 0 0 0 6.063 20.34c6.847 13.32 9.129 12.55 9.129 12.55s3.808 14.84 10.27 26.629c6.46 11.789 12.179 19.398 13.32 22.832 1.14 3.418-2.282-1.14 4.94 27.387 7.22 28.53 8.38 36.52 4.571 42.23-3.812 5.711-14.152-1.14-22.101-25.469-6.079-18.629-10.899-37.14-16.54-51.468-7.039-17.891-16.171-44.622-16.171-44.622zm0 0"/></g><g clip-path="url(#D)" mask="url(#C)"><path d="m82.879 195.559c3.32-5.887 3.91-9.059 3.91-9.059-3.89-16.262-18.398-43.82-18.77-56.68 1.532 9.13 11.41 24.7 14.653 35.79 5.539 18.84 17.527 46.992 19.308 70.94 1.782 23.962 3.09 40.29-2.902 48.731-5.988 8.45-5.308 1.57-3.867-5.71 1.437-7.282-2.66-35.38-3.14-44.102-.38-7.989-4.801-32.989-9.192-39.91zm0 0"/></g><g clip-path="url(#F)" mask="url(#E)"><path d="m315.25 193.219c-2.672 10.031-13.82 40.543-21.328 39.312-4.461-.742-13.281-18.812-13.582-26.84.422 2.348 5.14 11.79 7.789 12.168 5.77.82 14.922-8.34 16.262-13.5 2.89-11.05 8.398-25.32 10.558-29.097 2.16-3.782 3.832-28.14 3.832-28.14-4.332-10.563-4.312-28.282-1.222-38.59-.508 9.64 2.02 18.519 2.812 24.5 1.848 13.988 5.55 17 5.55 17s-2.523 2.007-4.273 10.609c-1.75 8.609 3.551 19.168 3.551 19.168s-7.277 3.332-9.949 13.41zm0 0"/></g><g clip-path="url(#H)" mask="url(#G)"><path d="m216.61 199.02c-2.66-16.31-10.27-50.668-16.22-68.18.38.781.72 1.52 1 2.18 7.419 17.12 18.829 74.75 18.829 74.75s-6.278-58.2-9.7-70.192c-3.417-11.976-22.058-42.226-26.628-50.789-3.782-7.078-10.602-19.617-6.852-29.078.371 6.93 1.813 15.3 6.121 21.469 8.75 12.55 9.512 10.27 9.512 10.27s4.95 15.222 11.797 24.35c6.851 9.13 10.992 17.5 14.043 20.15 3.047 2.66-1.91 7.609 1.136 22.448 3.051 14.84 8.75 57.063 7.614 64.68-1.14 7.621-7.614-3.406-10.653-22.058zm0 0"/></g><g clip-path="url(#K)" mask="url(#I)"><path d="m304.29 203.578c3.07-10.988 8.382-24.406 10.589-28.156 2.21-3.742 3.902-29.8 3.902-29.8-4.75-12.134-3.691-33.474.95-42.474 7.71-14.976 25.39-13.699 26.44.211 1.048 13.903 7.65 25.11 9.759 39.832 2.11 14.72 1.37 23.2 1.558 39.34.192 16.14-8.066 36.739-14.726 52.5a94.609 94.609 0 0 0 -4.563 13.278l-45.058-32.207c4.43-2.282 9.609-7.082 11.148-12.524zm0 0" fill="url(#J)"/></g></svg>