<svg xmlns="http://www.w3.org/2000/svg" xmlns:xlink="http://www.w3.org/1999/xlink" viewBox="0 0 410 510"><defs><filter id="a" width="100%" height="100%" x="0%" y="0%" filterUnits="objectBoundingBox"><feColorMatrix in="SourceGraphic" values="0 0 0 0 1 0 0 0 0 1 0 0 0 0 1 0 0 0 1 0"/></filter><mask id="v"><g filter="url(#a)"><path fill-opacity=".851" d="M0 0h410v510H0z"/></g></mask><linearGradient id="c" x1="205" x2="205" y1="466.612" y2="43.388" gradientUnits="userSpaceOnUse"><stop offset="0" stop-color="#fff" stop-opacity="0"/><stop offset=".427" stop-color="#d0b5b3"/><stop offset="1" stop-color="#d0b5b3"/></linearGradient><clipPath id="b"><path d="M0 0h410v510H0z"/></clipPath><g id="u" clip-path="url(#b)"><path fill="url(#c)" d="M336.25 46.07c-13.121-.14-24.719 16.66-30 30.489-4.328 11.312-35.7 82.171-43.96 107.761-6.68 20.68-9.669 21.258-10.481 19.301h-.168c.32-36.09 9.828-48.36 13.16-67.191.84-4.801 9.129-18.48 13.98-28.532a280.751 280.751 0 0 0 14.64-36.328c3.81-11.8-1.523-25.02-15.21-27.87-13.7-2.848-25.68 14.562-25.68 14.562S216 115.898 208.578 133.02c-7.418 17.12-18.828 74.75-18.828 74.75s6.281-58.2 9.7-70.192c3.421-11.976 22.062-42.226 26.628-50.789 4.57-8.559 13.602-25.11 3.05-34.52-13.898-12.41-30.808-.859-37.66 6.56-6.847 7.421-43.366 56.491-46.788 69.62-3.418 13.121-11.41 62.2-15.41 77.61A24.006 24.006 0 0 1 122 217.87c-4.21.32-14.129-6.242-16.32-14.14-3.051-11-8.328-24.43-10.551-28.18-2.207-3.742-3.848-29.801-3.848-29.801 4.758-12.121 3.73-33.469-.883-42.469-7.699-15-25.367-13.793-26.449.16-1.078 13.95-7.68 25.11-9.808 39.82-2.13 14.708-1.422 23.188-1.63 39.329-.21 16.14 7.989 36.75 14.65 52.582 6.667 15.828 5.35 32.648 7.987 49.437l-.136.192c.386 17.12 7.617 26.36 8.508 49.77.89 23.41 7.44 51.44 5.46 76.53-1.992 25.098-21.68 52.84-21.68 52.84l194.571 2.66s17.938-23.78 31.86-44.742c13.917-20.949 20.07-41.09 27.39-53.918 9.879-17.39 19.399-40.492 20.188-55.332.793-14.84-1.63-26.078.98-56.3 2.61-30.22-3.527-43.368-10.84-53.75-7.308-10.38-8.379-16.07-8.379-16.07 4.77-19.93 13.91-37.18 16.64-44.708 4.118-11.41 7.99-30.922 11.911-46.472 3.418-13.38 5.18-22.008 5.18-22.008 2.988-11.672-4.04-23.551-15.711-26.54h-.02a20.484 20.484 0 0 0-4.82-.69zm0 0"/></g><mask id="x"><g filter="url(#a)"><path fill-opacity=".502" d="M0 0h410v510H0z"/></g></mask><clipPath id="d"><path d="M0 0h410v510H0z"/></clipPath><g id="w" clip-path="url(#d)"><path fill="#fff" stroke="#000" stroke-width=".25" d="M339.172 46.16c-6.75-1.488-10.91.969-14.8 5.04-.032.01-.071.03-.11.038-4.14 4.422-3.34 10.121-2.84 11.07.219.41.539.75.937.993.012 0 .02-.012.02-.012 1.402.813 4.133.832 9.672 1.25 5.097.563 11.96 4.05 15.898 6.332.02.07.051.149.07.219A31.95 31.95 0 0 1 351 72.82l.23-.332c2.079-2.277 1.72-5.328 2.508-7.988-.008-.031-.008-.07-.02-.102 2.384-8.148-3.788-15.968-14.546-18.238zm0 0"/></g><mask id="z"><g filter="url(#a)"><path fill-opacity=".502" d="M0 0h410v510H0z"/></g></mask><clipPath id="e"><path d="M0 0h410v510H0z"/></clipPath><g id="y" clip-path="url(#e)"><path fill="#fff" stroke="#000" stroke-width=".25" d="M263.031 49.32c-3.152 4.13-8.582 8.418-8.18 8.84.399.418 1.137.219 2.278.219m.11.101c1.761.051 4.46.918 8.75 2.758 3.96 1.801 15.64 5.903 19.12 6.922.032.031.07.059.102.09 2.59.762 3.008-4.21 3.34-4.7 0-.038-.012-.09-.012-.128.54-.8.82-1.762.8-2.73-3.87-19.68-17.75-15.84-21.487-15.68-1.301.136-2.98 1.84-4.723 4.117"/></g><mask id="B"><g filter="url(#a)"><path fill-opacity=".502" d="M0 0h410v510H0z"/></g></mask><clipPath id="f"><path d="M0 0h410v510H0z"/></clipPath><g id="A" clip-path="url(#f)"><path fill="#fff" stroke="#000" stroke-width=".25" d="M191.11 60.738c-.32.66-.7 1.301-1.141 1.89.27.571 1.32 0 4.57.571 3.04.762 14.832 6.63 20.352 7.242-.032-.03-.07-.07-.102-.101 1.922.12 8.902-8.84 10.68-11.328a.667.667 0 0 0-.028-.082c.668-.989 1.07-1.66 1.07-1.66-9.71-15.54-23.12-6.72-24.331-6.141l-.98.633c-.009 0-.02 0-.028.008-4.313 2.93-9.152 5.52-10.184 8.878"/></g><mask id="D"><g filter="url(#a)"><path fill-opacity=".502" d="M0 0h410v510H0z"/></g></mask><clipPath id="g"><path d="M0 0h410v510H0z"/></clipPath><g id="C" clip-path="url(#g)"><path fill="#fff" stroke="#000" stroke-width=".25" d="M77.61 103.922c-1.34-5.14-3.54-5.902-8.95-6.852-5.058-.949-5.469 10.02-5.379 14h-.011v.668c.628 3.051 11.28 3.293 13.101 2.39.09-.007.18-.14.27-.14-.082-.129-.172-.258-.25-.386.12.168.238.34.347.507 1.762-1.25.871-10.187.871-10.187zm0 0"/></g><mask id="F"><g filter="url(#a)"><path fill-opacity=".302" d="M0 0h410v510H0z"/></g></mask><clipPath id="h"><path d="M0 0h410v510H0z"/></clipPath><g id="E" clip-path="url(#h)"><path d="M313.262 161.602a37.417 37.417 0 0 0 6.11 1.468c-13.302 0-26.513-9.691-35.84-18.261 1.218.8 2.437 1.601 3.687 2.5 7.48 6.23 16.57 12.351 26.043 14.293zm0 0M325.18 153.219l5.84 1.14c-10.11-.16-23.758-2.609-31.961-8.578 1.441.66 2.863 1.207 4.3 1.758 6.32 3.172 14.52 5.012 21.82 5.68zm0 0M325.219 143.121c1.68.75 3.422 1.617 4.941 2.5-11.32-4.41-23.851-5.93-35.55-9.5 1.85.16 3.71.45 5.71.707 8.102 2.192 16.711 3.613 24.899 6.293zm0 0M327.531 133.129c1.559.762 3.02 1.543 4.469 2.281-10.64-3.21-21.441-8.23-32.66-9.2 1.789-.21 3.59-.23 5.39-.07 7.81 1.462 15.329 4.508 22.801 6.989zm0 0M324.02 74.96c6 1.43 11.968 4.349 17.68 6.7 1.421.86 2.698 1.59 3.89 2.442-8.719-3.243-17.899-8.633-27.39-9.204 1.94-.199 3.89-.18 5.82.063zm0 0"/></g><mask id="H"><g filter="url(#a)"><path fill-opacity=".302" d="M0 0h410v510H0z"/></g></mask><clipPath id="i"><path d="M0 0h410v510H0z"/></clipPath><g id="G" clip-path="url(#i)"><path d="M239.422 153.078a46.13 46.13 0 0 0 5.808-.5c-11.41 3.992-25.37.434-35.378-5.316 1.636.539 3.418 1.136 5.187 1.629 7.5 3.347 16.281 5.39 24.383 4.187zm0 0M239.629 138.469c1.77.652 3.531 1.43 5.16 2.203-11.309-2.64-22.828-6.64-34.48-7.57a33.363 33.363 0 0 1 5.921-.16c7.801 1.128 15.649 3.538 23.399 5.527zm0 0M234.738 147.762c1.532.187 3.203.398 4.742.468-9.218 1.711-19.558-2.468-27.332-6.628l4.192 1.238c5.64 2.64 12.101 4.789 18.398 4.922zm0 0M223.059 126.14c7.113 1.84 14.062 4.25 21.171 6.212 1.641.648 3.141 1.418 4.66 2.046-10.269-2.449-20.14-6.27-30.57-8.5 1.57-.039 3.16.043 4.739.243zm0 0M269.781 72.11l3.008 1.831c-6.848-2.09-13.39-5.421-20.148-7.742 1.14.07 2.28.18 3.418.371 4.5 1.758 9.101 3.871 13.722 5.54zm0 0"/></g><mask id="J"><g filter="url(#a)"><path fill-opacity=".302" d="M0 0h410v510H0z"/></g></mask><clipPath id="j"><path d="M0 0h410v510H0z"/></clipPath><g id="I" clip-path="url(#j)"><path d="M168.79 141.73l4.882.961a53.087 53.087 0 0 1-27.703-6.652l4.57 1.262a53.808 53.808 0 0 0 18.25 4.43zm0 0M174.77 129.02c1.449.761 2.859 1.64 4.18 2.39-8.481-2.64-17.122-7.34-26.079-7.539a22.12 22.12 0 0 1 5-.332c5.73 1.102 11.36 3.41 16.899 5.48zm0 0M167.66 135.629l3.559 1.062c-7.43.22-15.399-2.8-21.84-6.113 1.242.25 2.5.492 3.742.863a49.858 49.858 0 0 0 14.54 4.188zm0 0M200.531 78.281c1.29.34 2.59.68 3.77 1.04-7.352-.16-15.91-1.141-22.211-5.06 1.05.25 2 .509 3.05.759a45.72 45.72 0 0 0 15.391 3.261zm0 0"/></g><mask id="L"><g filter="url(#a)"><path fill-opacity=".302" d="M0 0h410v510H0z"/></g></mask><clipPath id="k"><path d="M0 0h410v510H0z"/></clipPath><g id="K" clip-path="url(#k)"><path d="M71.781 191.57c1.028-.27 2.098-.422 3.13-.699a44.24 44.24 0 0 1-16.95 5.488c.98-.488 1.988-.87 2.969-1.347a38.428 38.428 0 0 0 10.851-3.442zm0 0M72.36 184.7c1.218-.079 2.44-.16 3.69-.13-6.41 1.88-12.929 2.852-19.288 4.961a16.73 16.73 0 0 1 3.117-1.86c4.242-1.21 8.473-1.94 12.48-2.972zm0 0M72.68 176.828c1.18-.129 2.36-.187 3.539-.187-6.16 1.808-12.07 4.039-18.36 5.308.98-.59 1.993-1.129 3.04-1.61 4.03-.917 7.82-2.237 11.78-3.51zm0 0M71.469 126.469c.941.152 1.87.36 2.781.64-5.121.672-11.41.082-14.05-4.359.55.43 1.14.809 1.76 1.14 2.392 1.962 5.99 2.622 9.509 2.579zm0 0"/></g><mask id="N"><g filter="url(#a)"><path fill-opacity=".302" d="M0 0h410v510H0z"/></g></mask><clipPath id="l"><path d="M0 0h410v510H0z"/></clipPath><g id="M" clip-path="url(#l)"><path d="M323.16 186.5l-.941 3.809c-.617 2.43-1.438 5.902-2.41 10.07-.5 2.082-1.02 4.34-1.54 6.723-.519 2.378-1.14 4.91-1.597 7.52-.461 2.608-1.14 5.32-1.524 8.07a610.405 610.405 0 0 0-.707 4.148c-.23 1.39-.332 2.8-.5 4.2-.171 1.401-.351 2.82-.48 4.179-.133 1.36-.16 2.84-.242 4.25-.14 2.8-.34 5.562-.5 8.23-.16 2.672-.239 5.242-.367 7.692-.133 2.449-.243 4.757-.34 6.847-.41 8.551-.672 14.25-.672 14.25s-.11-1.43-.25-3.93-.3-6.058-.39-10.347v-6.93c0-2.453 0-5.07.07-7.742.07-2.668.171-5.437.32-8.238.058-1.403.129-2.82.191-4.25.07-1.43.297-2.88.45-4.313.148-1.43.3-2.879.55-4.289.25-1.418.508-2.808.758-4.199.45-2.8 1.14-5.488 1.723-8.102.578-2.609 1.27-5.136 1.918-7.507.332-1.141.64-2.282.949-3.422.312-1.14.66-2.18.98-3.207.602-2.051 1.211-3.934 1.782-5.582.57-1.649 1.03-3.09 1.46-4.27.77-2.34 1.31-3.66 1.31-3.66zm0 0"/></g><mask id="P"><g filter="url(#a)"><path fill-opacity=".302" d="M0 0h410v510H0z"/></g></mask><clipPath id="m"><path d="M0 0h410v510H0z"/></clipPath><g id="O" clip-path="url(#m)"><path d="M327.41 234.25s2.41 5.379 10.2 1.61c-.04 0-6.72.699-10.2-1.61zm0 0"/></g><mask id="R"><g filter="url(#a)"><path fill-opacity=".302" d="M0 0h410v510H0z"/></g></mask><clipPath id="n"><path d="M0 0h410v510H0z"/></clipPath><g id="Q" clip-path="url(#n)"><path d="M325.781 227c.57.469 5.899-4.102 5.899-4.102s-6.852.192-5.899 4.102zm0 0"/></g><mask id="T"><g filter="url(#a)"><path fill-opacity=".102" d="M0 0h410v510H0z"/></g></mask><clipPath id="o"><path d="M0 0h410v510H0z"/></clipPath><g id="S" clip-path="url(#o)"><path d="M300.719 89.89c-10.528 24.782-31.809 74.02-38.418 94.391-6.68 20.68-9.672 21.258-10.48 19.297h-.173c.32-36.09 9.832-48.36 13.16-67.187.84-4.801 9.133-18.48 13.981-28.532a280.42 280.42 0 0 0 14.64-36.328c1.27-3.86 1.532-7.98.743-11.96a65.707 65.707 0 0 1-6.063 20.34c-6.847 13.32-9.129 12.55-9.129 12.55s-3.808 14.84-10.27 26.629c-6.46 11.789-12.179 19.398-13.32 22.832-1.14 3.418 2.282-1.14-4.94 27.387-7.22 28.53-8.38 36.52-4.571 42.23 3.812 5.711 14.152-1.14 22.09-25.469 6.082-18.629 10.902-37.14 16.543-51.468C291.55 116.71 300.68 89.98 300.68 89.98zm0 0"/></g><mask id="V"><g filter="url(#a)"><path fill-opacity=".102" d="M0 0h410v510H0z"/></g></mask><clipPath id="p"><path d="M0 0h410v510H0z"/></clipPath><g id="U" clip-path="url(#p)"><path d="M327.121 195.559c-3.32-5.887-3.91-9.059-3.91-9.059 3.89-16.262 18.398-43.82 18.77-56.68-1.532 9.13-11.41 24.7-14.653 35.79-5.539 18.84-17.527 46.992-19.308 70.94-1.782 23.95-3.09 40.29 2.902 48.731 5.988 8.45 5.308 1.57 3.867-5.71-1.437-7.282 2.66-35.38 3.14-44.102.38-7.989 4.801-32.989 9.192-39.91zm0 0"/></g><mask id="X"><g filter="url(#a)"><path fill-opacity=".102" d="M0 0h410v510H0z"/></g></mask><clipPath id="q"><path d="M0 0h410v510H0z"/></clipPath><g id="W" clip-path="url(#q)"><path d="M94.75 193.219c2.672 10.031 13.82 40.543 21.328 39.312 4.461-.742 13.281-18.812 13.582-26.84-.422 2.348-5.14 11.79-7.789 12.168-5.77.82-14.922-8.34-16.262-13.5-2.89-11.05-8.398-25.32-10.558-29.097-2.16-3.782-3.832-28.14-3.832-28.14 4.332-10.563 4.312-28.282 1.222-38.59.508 9.64-2.02 18.519-2.812 24.5-1.848 13.988-5.55 17-5.55 17s2.523 2.007 4.273 10.609c1.75 8.609-3.551 19.168-3.551 19.168s7.277 3.332 9.949 13.41zm0 0"/></g><mask id="Z"><g filter="url(#a)"><path fill-opacity=".102" d="M0 0h410v510H0z"/></g></mask><clipPath id="r"><path d="M0 0h410v510H0z"/></clipPath><g id="Y" clip-path="url(#r)"><path d="M193.39 199.02c2.66-16.31 10.27-50.668 16.22-68.18-.38.781-.72 1.52-1 2.18-7.419 17.12-18.829 74.75-18.829 74.75s6.278-58.2 9.7-70.192c3.417-11.976 22.058-42.226 26.628-50.789 3.782-7.078 10.602-19.617 6.852-29.078-.371 6.93-1.813 15.3-6.121 21.469-8.75 12.55-9.512 10.27-9.512 10.27s-4.95 15.222-11.797 24.35c-6.851 9.13-10.992 17.5-14.043 20.15-3.047 2.66 1.91 7.609-1.136 22.448-3.051 14.84-8.75 57.063-7.614 64.68 1.14 7.621 7.614-3.406 10.653-22.058zm0 0"/></g><mask id="ab"><g filter="url(#a)"><path fill-opacity=".502" d="M0 0h410v510H0z"/></g></mask><linearGradient id="t" x1="-1718.732" x2="-1721.406" y1="2172.078" y2="2129.298" gradientTransform="matrix(3.1095 -.4083 -.4083 -3.1095 6308.662 6146.175)" gradientUnits="userSpaceOnUse"><stop offset=".36" stop-color="#0074d1"/><stop offset="1" stop-color="#00afd1" stop-opacity="0"/></linearGradient><clipPath id="s"><path d="M0 0h410v510H0z"/></clipPath><g id="aa" clip-path="url(#s)"><path fill="url(#t)" d="M105.71 203.578c-3.07-10.988-8.382-24.406-10.589-28.156-2.21-3.742-3.902-29.8-3.902-29.8 4.75-12.134 3.691-33.474-.95-42.474-7.71-14.976-25.39-13.699-26.44.211-1.048 13.903-7.65 25.11-9.759 39.832-2.11 14.72-1.37 23.2-1.558 39.34-.192 16.14 8.066 36.739 14.726 52.5a95.657 95.657 0 0 1 4.57 13.278l45.063-32.207c-4.441-2.282-9.621-7.082-11.16-12.524zm0 0"/></g></defs><use mask="url(#v)" xlink:href="#u"/><use mask="url(#x)" xlink:href="#w"/><use mask="url(#z)" xlink:href="#y"/><use mask="url(#B)" xlink:href="#A"/><use mask="url(#D)" xlink:href="#C"/><use mask="url(#F)" xlink:href="#E"/><use mask="url(#H)" xlink:href="#G"/><use mask="url(#J)" xlink:href="#I"/><use mask="url(#L)" xlink:href="#K"/><use mask="url(#N)" xlink:href="#M"/><use mask="url(#P)" xlink:href="#O"/><use mask="url(#R)" xlink:href="#Q"/><use mask="url(#T)" xlink:href="#S"/><use mask="url(#V)" xlink:href="#U"/><use mask="url(#X)" xlink:href="#W"/><use mask="url(#Z)" xlink:href="#Y"/><use mask="url(#ab)" xlink:href="#aa"/></svg>