<svg xmlns="http://www.w3.org/2000/svg" xmlns:xlink="http://www.w3.org/1999/xlink" viewBox="0 0 410 510"><defs><filter id="a" width="100%" height="100%" x="0%" y="0%" filterUnits="objectBoundingBox"><feColorMatrix in="SourceGraphic" values="0 0 0 0 1 0 0 0 0 1 0 0 0 0 1 0 0 0 1 0"/></filter><mask id="t"><g filter="url(#a)"><path fill-opacity=".851" d="M0 0h410v510H0z"/></g></mask><linearGradient id="c" x1="205" x2="205" y1="494.615" y2="15.385" gradientUnits="userSpaceOnUse"><stop offset="0" stop-color="#fff" stop-opacity="0"/><stop offset=".427" stop-color="#d0b5b3"/><stop offset="1" stop-color="#d0b5b3"/></linearGradient><clipPath id="b"><path d="M0 0h410v510H0z"/></clipPath><g id="s" clip-path="url(#b)"><path fill="url(#c)" d="M346.54 291.441c3-26.011 15.331-61.351 9.331-74.351s-34.012-36.012-34.012-36.012 3.86-13.86 8.13-30.297c2.78-10.66 3.91-30.922 5.87-36.011 6-15.668 8.672-30.008 10.77-43.32 2-12.598 4.82-26.34 6.23-33.372 2.672-13.328-11.668-23.34-21.68-22.68-10 .66-13.327 4.633-20.007 18.633-3.711 7.797-7.633 21.41-11.3 33.88a205.899 205.899 0 0 1-10 26.14c-2.392 5.09-5.474 17.57-10.833 33.57-6.57 19.64-13.559 41.559-16.5 51.117 0 0 0-22.68-.668-41.347-.16-4.47-2.2-19.13.668-22.012 2-2 11.14-12.45 12.66-16 2-4.66 10.723-24.129-6-30.668-15.328-6-26.668-1-34.008 1.66-3.32.238-8.66 1.668-14 3.668 0 0 0-7.328-19.332-.668-19.328 6.66-26.68 10-26.68 10s-20-11.332-31.34-4c-11.327 7.328-26.01 9.34-34.01 20.68-13.329 18.879-8.669 10.668-10.669 76.687v22.012c-11.558 49.27-6.398 70.398-6 121.36.102 11.718 5.25 35.718 6.668 47.34 1.524 12.609-24.078 46.519-25.7 58.929-1.417 11.422-7.608 21.762-10.757 32.762-1.723 6-9.55 25.648-10.883 35.46H219.29c7.102 0 6.29-2.382 8.723-8.44 2.847-7.25 5.277-14.602 8.218-21.86 10.442-26.23 32.45-40.43 49.532-61.692 8.93-11.129 17.25-22.757 25.476-34.28 8.422-11.817 20.203-24.54 25.383-38.009 4.57-11.922 4.258-25.14 9.129-36.949zm0 0"/></g><mask id="v"><g filter="url(#a)"><path fill-opacity=".502" d="M0 0h410v510H0z"/></g></mask><clipPath id="d"><path d="M0 0h410v510H0z"/></clipPath><g id="u" clip-path="url(#d)"><path fill="#fff" stroke="#000" stroke-width=".25" d="M346.8 33.21c1.9-7.401-1.8-15-11.8-16.198-6.262-.801-11.14 2.558-14.54 6.43-.05.019-.108.046-.16.07-3.6 4.199-5.402 9.199-4.902 10 .23.34.543.61.903.797 1.3.601 3.8.402 9 .402 4.64.098 11.02 2.629 14.75 4.328.02.063.039.11.058.172 1.7.7 2.801 1.3 2.801 1.3l.2-.3a17.765 17.765 0 0 0 3.6-7"/></g><mask id="x"><g filter="url(#a)"><path fill-opacity=".502" d="M0 0h410v510H0z"/></g></mask><clipPath id="e"><path d="M0 0h410v510H0z"/></clipPath><g id="w" clip-path="url(#e)"><path fill="#fff" stroke="#000" stroke-width=".25" d="M264.031 73.64a40.57 40.57 0 0 0 4.48 1c.29.02.59-.03.86-.128 0-.012-.012-.032-.012-.051.461-.23.782-.672.84-1.18-3.41-5.57-13.61-6.34-16.68-6.812-1.289-.09-2.59.043-3.84.402m0 .02c-2.55.62-4.859 1.789-4.488 2 .598.18 1.22.3 1.848.359.04 0 .082 0 .121.012 2.442.398 4.86.957 7.23 1.68a230.69 230.69 0 0 0 9.641 2.718"/></g><mask id="z"><g filter="url(#a)"><path fill-opacity=".302" d="M0 0h410v510H0z"/></g></mask><clipPath id="f"><path d="M0 0h410v510H0z"/></clipPath><g id="y" clip-path="url(#f)"><path d="M318.422 125.96a30.2 30.2 0 0 0 5.469-.562c-11 3.891-24.743-.308-34.95-4.718 1.25.308 2.489.61 3.778 1 7.98 3.011 17.293 5.39 25.703 4.28zm0 0M311 134.328c1.738.344 3.379.692 5.121 1-8.86-.168-20.832-2.36-27.95-7.61 1.259.583 2.509 1.063 3.759 1.552 5.5 2.8 12.68 4.46 19.07 5.058zm0 0M319.2 118.16c1.538.48 3.1 1.059 4.562 1.649-10.313-2.618-21.383-2.63-31.942-4.48 1.63-.06 3.282 0 5 0 7.32 1.05 14.98 1.401 22.38 2.831zm0 0M322.871 101.68c1.438.5 2.79 1 4.129 1.539-9.578-1.66-19.52-4.88-29.39-4.54a24.56 24.56 0 0 1 4.68-.628c6.91.437 13.78 2.258 20.581 3.629zm0 0M314.941 50.2c5.41.34 11 2 16.27 3.152 1.348.52 2.57 1 3.719 1.527-8-1.5-16.73-4.79-25.008-3.867a23.164 23.164 0 0 1 5.02-.813zm0 0"/></g><mask id="B"><g filter="url(#a)"><path fill-opacity=".302" d="M0 0h410v510H0z"/></g></mask><clipPath id="g"><path d="M0 0h410v510H0z"/></clipPath><g id="A" clip-path="url(#g)"><path d="M234.559 98.621c-9.22 1.938-18.887-.46-27.668-3.133 7.949 4.23 18.949 6.742 27.668 3.133zm0 0M239.27 90.531c-8.168-3.312-18-6.36-27.06-5 9.099.399 18.06 3.348 27.06 5zm0 0M208.45 90.79c6.171 3.19 14.331 6.14 21.46 4.448-7.308-.058-14.379-2.808-21.46-4.449zm0 0M246.41 86.82c-7.27-3.12-15.832-6.34-24.012-5.87 8.153 1.472 15.93 4.312 24.012 5.87zm0 0"/></g><mask id="D"><g filter="url(#a)"><path fill-opacity=".302" d="M0 0h410v510H0z"/></g></mask><clipPath id="h"><path d="M0 0h410v510H0z"/></clipPath><g id="C" clip-path="url(#h)"><path d="M170.57 114.07h3.5a31.096 31.096 0 0 1-20-1l3.301.301c4.3 1.18 8.8 1.418 13.2.7zm0 0M172.96 102.488c1.11.403 2.212.903 3.212 1.301-6.211-.8-12.8-3.3-19-2a13 13 0 0 1 3.398-1.098c4.102-.02 8.258.98 12.39 1.797zm0 0M168.96 109.172l2.61.297c-5.11 1.402-11 .203-15.898-1.5.898-.02 1.797.02 2.7.101a29.47 29.47 0 0 0 10.589 1.102zm0 0"/></g><mask id="F"><g filter="url(#a)"><path fill-opacity=".302" d="M0 0h410v510H0z"/></g></mask><clipPath id="i"><path d="M0 0h410v510H0z"/></clipPath><g id="E" clip-path="url(#i)"><path d="M118.16 119.3c.79.16 1.55.41 2.34.571-4.48.5-9.02-.082-13.23-1.68h2.449a24.406 24.406 0 0 0 8.441 1.11zm0 0M120.969 114.07c.86.371 1.691.782 2.511 1.23-4.94-.812-9.62-2.378-14.601-3 .89-.23 1.812-.35 2.73-.359 3.211.547 6.332 1.489 9.36 2.13zm0 0M123.96 107.922c.83.316 1.642.687 2.419 1.11-4.738-.762-9.457-1.11-14.11-2.372.86-.11 1.72-.172 2.59-.18 3.02.711 6.02 1.008 9.102 1.442zm0 0"/></g><mask id="H"><g filter="url(#a)"><path fill-opacity=".302" d="M0 0h410v510H0z"/></g></mask><clipPath id="j"><path d="M0 0h410v510H0z"/></clipPath><g id="G" clip-path="url(#j)"><path d="M139.82 188.09s.121-1.871.34-5.14c.219-3.27.57-7.95 1-13.56.43-5.609.89-12.14 1.41-19.14.25-3.5.5-7.121.72-10.8.222-3.68.44-7.41.53-11.122.09-3.707 0-7.52.371-11.238a46.679 46.679 0 0 1 2.149-10.809c.57-1.68 1.25-3.312 2.05-4.89.801-1.5 1.7-2.942 2.712-4.301a30.944 30.944 0 0 1 6.628-6.442 35.112 35.112 0 0 1 6.77-3.796c1-.493 2.07-.82 3-1.192l2.59-.851c1.59-.45 2.84-.758 3.7-.93l1.32-.29-1.29.4c-.84.23-2.058.671-3.601 1.202l-2.508 1c-.89.418-1.883.809-2.883 1.36a38.573 38.573 0 0 0-6.379 4c-2.168 1.719-5.09 4-6.918 6.5a32.595 32.595 0 0 0-4.3 8.84c-1 3.398-1.641 6.898-1.91 10.43a90.873 90.873 0 0 0-.25 5.5c-.032 1.85 0 3.71-.071 5.609-.23 7.55-1 15.449-1.64 22.46-.31 3.508-2.36 28.82-2.782 32.07-.418 3.25-.758 5.13-.758 5.13zm0 0M185.828 186.09a48.717 48.717 0 0 0 3-4.45 77.474 77.474 0 0 0 6.16-12.609 75.2 75.2 0 0 0 2.84-8.941 74.21 74.21 0 0 0 1.844-10.238c.387-3.68.488-7.391.297-11.09-.23-3.782-.48-7.75-.528-11.653-.132-7.687.36-15.39 1.45-23.007a89.719 89.719 0 0 1 2.168-10.403 48.92 48.92 0 0 1 3.332-9 16.793 16.793 0 0 1 5-6.37c2.129-1.227 4-2.048 5.55-2.778a25.69 25.69 0 0 1 3.73-1.371c.329-.09.657-.16 1-.211-.343.082-.671.18-1 .293a30.961 30.961 0 0 0-3.593 1.629c-.738.41-1.578.828-2.457 1.347l-1.39.813c-.5.308-.97.64-1.43 1a16.616 16.616 0 0 0-4.43 6.25c-2.371 5.238-3.84 11.91-4.812 19.078a162.793 162.793 0 0 0-1.168 22.71c0 3.891.25 7.7.46 11.583a68.166 68.166 0 0 1-2.64 21.848 71.396 71.396 0 0 1-3.211 8.949 72.908 72.908 0 0 1-6.879 12.39c-1 1.47-2.101 2.891-3.293 4.23zm0 0M321.871 181.09s-.441 1.469-1.223 4c-.777 2.531-1.886 6.238-3.187 10.648-.652 2.211-1.383 4.582-2.102 7.121-.718 2.54-1.52 5.192-2.28 8-.759 2.813-1.54 5.63-2.329 8.54-.79 2.91-1.5 5.87-2.2 8.851-.698 2.98-1.32 6-1.87 8.89-.551 2.891-1 5.86-1.25 8.7a65.78 65.78 0 0 0-.36 8.18c.04 2.44.29 4.87.739 7.261.402 2.028.98 4.008 1.742 5.93.59 1.488 1.289 2.93 2.097 4.309.672 1.16 1.211 2.058 1.622 2.66l.601.922-.691-.864a30.908 30.908 0 0 1-1.86-2.508 34.739 34.739 0 0 1-2.449-4.218 30.55 30.55 0 0 1-2.18-6 39.074 39.074 0 0 1-1.113-7.453 58.917 58.917 0 0 1 .094-8.387l.18-2.192c.058-.742.148-1.48.27-2.218.148-1.5.417-3 .648-4.453.539-3 1.218-6 1.84-9 .62-3 1.53-6 2.28-8.887.75-2.89 1.7-5.762 2.5-8.531.801-2.77 1.739-5.391 2.551-7.91.809-2.52 1.66-4.852 2.43-7 .77-2.153 1.5-4.153 2.18-5.891l1.73-4.531c.989-2.547 1.59-3.97 1.59-3.97zm0 0"/></g><mask id="J"><g filter="url(#a)"><path fill-opacity=".102" d="M0 0h410v510H0z"/></g></mask><clipPath id="k"><path d="M0 0h410v510H0z"/></clipPath><g id="I" clip-path="url(#k)"><path d="M145.82 128.352c-1-13.282-.449-36.012 29.309-44.793 0 0-22.258 5.171-28.93 12.832-6.668 7.66-9 24.347-9.66 39.007-.66 14.66 3.66 50.352 3.66 50.352s6.531-44.11 5.621-57.398zm0 0"/></g><mask id="L"><g filter="url(#a)"><path fill-opacity=".102" d="M0 0h410v510H0z"/></g></mask><clipPath id="l"><path d="M0 0h410v510H0z"/></clipPath><g id="K" clip-path="url(#l)"><path d="M190.828 178.09c7.672-15 10.332-27.012 9.332-45.68-1-18.672 3-44.34 7.34-49.012 4.34-4.668 13.23-9 13.23-9s-20.242 7.34-22.91 17.34c-2.672 10-7 18.66-7 31.012 0 12.34-.672 38.34-3.332 48.012-2.66 9.668-4.328 22.328 3.34 7.328zm0 0"/></g><mask id="N"><g filter="url(#a)"><path fill-opacity=".102" d="M0 0h410v510H0z"/></g></mask><clipPath id="m"><path d="M0 0h410v510H0z"/></clipPath><g id="M" clip-path="url(#m)"><path d="M262.52 178.762s0-22.684-.668-41.352c-.16-4.469-2.204-19.129.668-22.012 2-2 11.14-12.449 12.66-16 1.34-3.117-2 1.34-8.328 5.672-3.5 2.399-13 6.328-15 6a49.336 49.336 0 0 1 3 17.5c0 10.328-3 31.008-6 52.008-3 21.012-2.672 35.531 2.828 26.192a93.204 93.204 0 0 0 12.058-32.008c-.457 1.527-.886 2.847-1.218 4zm0 0"/></g><mask id="P"><g filter="url(#a)"><path fill-opacity=".102" d="M0 0h410v510H0z"/></g></mask><clipPath id="n"><path d="M0 0h410v510H0z"/></clipPath><g id="O" clip-path="url(#n)"><path d="M330 150.79c2.781-10.661 3.91-30.919 5.871-36.009 6-15.672 8.668-30.011 10.77-43.32 2-12.602 4.82-26.34 6.23-33.371 1.41-7.031-1.922-13.13-6.832-17.23 2.223 3 4.8 9 2.5 19.902-3.668 17.328-3 19.328-5.668 25.008l-2.672 5.71s2 3.668-2 21.008c-4 17.332-8 20.684-8 20.684s2 4.668 1 12c-1 7.328-13 52.008-15 56.68-2 4.668-16 51.296-15.328 67.308.668 16 12 30.012 12 30.012s-5.59-16.133-4.332-31.012c.68-8 12.332-8.332 12.332-8.332s-8.562-2-8-7.34c2.668-25.34 14-40.648 17-43.34.18-.207.328-.437.43-.699-4.86-4.36-8.43-7.3-8.43-7.3s3.84-13.93 8.129-30.36zm0 0"/></g><mask id="R"><g filter="url(#a)"><path fill-opacity=".302" d="M0 0h410v510H0z"/></g></mask><clipPath id="o"><path d="M0 0h410v510H0z"/></clipPath><g id="Q" clip-path="url(#o)"><path d="M351.238 230.52s-6.097-.5-8.699-3.098c0 .008 1 5.098 8.7 3.098zm0 0"/></g><mask id="T"><g filter="url(#a)"><path fill-opacity=".302" d="M0 0h410v510H0z"/></g></mask><clipPath id="p"><path d="M0 0h410v510H0z"/></clipPath><g id="S" clip-path="url(#p)"><path d="M348.71 218.23s-6.1-1-6.1 2.598c.43.5 6.1-2.598 6.1-2.598zm0 0"/></g><mask id="V"><g filter="url(#a)"><path fill-opacity=".502" d="M0 0h410v510H0z"/></g></mask><linearGradient id="r" x1="-1661.533" x2="-1680.669" y1="2192.234" y2="2130.523" gradientTransform="matrix(3.1362 0 0 -3.1362 5554.397 6889.314)" gradientUnits="userSpaceOnUse"><stop offset=".36" stop-color="#0074d1"/><stop offset="1" stop-color="#00afd1" stop-opacity="0"/></linearGradient><clipPath id="q"><path d="M0 0h410v510H0z"/></clipPath><g id="U" clip-path="url(#q)"><path fill="url(#r)" d="M305.531 239.43l16.328-58.34s3.86-13.86 8.13-30.3c2.78-10.661 3.91-30.919 5.87-36.009 6-15.672 8.672-30.011 10.77-43.32 2-12.602 4.82-26.34 6.23-33.371 2.672-13.328-11.668-23.34-21.68-22.68-10 .66-13.327 4.63-20.007 18.63-3.711 7.8-7.633 21.41-11.3 33.882a205.845 205.845 0 0 1-10 26.137c-2.392 5.09-5.474 17.57-10.833 33.57-6.57 19.64-13.559 41.562-16.5 51.121v-.2c-3.777 12.329-12 32.25-12 32.25zm0 0"/></g></defs><use mask="url(#t)" xlink:href="#s"/><use mask="url(#v)" xlink:href="#u"/><use mask="url(#x)" xlink:href="#w"/><use mask="url(#z)" xlink:href="#y"/><use mask="url(#B)" xlink:href="#A"/><use mask="url(#D)" xlink:href="#C"/><use mask="url(#F)" xlink:href="#E"/><use mask="url(#H)" xlink:href="#G"/><use mask="url(#J)" xlink:href="#I"/><use mask="url(#L)" xlink:href="#K"/><use mask="url(#N)" xlink:href="#M"/><use mask="url(#P)" xlink:href="#O"/><use mask="url(#R)" xlink:href="#Q"/><use mask="url(#T)" xlink:href="#S"/><use mask="url(#V)" xlink:href="#U"/></svg>