<svg viewBox="0 0 410 510" xmlns="http://www.w3.org/2000/svg" xmlns:xlink="http://www.w3.org/1999/xlink"><filter id="a" height="100%" width="100%" x="0%" y="0%"><feColorMatrix in="SourceGraphic" values="0 0 0 0 1 0 0 0 0 1 0 0 0 0 1 0 0 0 1 0"/></filter><mask id="b"><g filter="url(#a)"><path d="m0 0h410v510h-410z" fill-opacity=".851"/></g></mask><linearGradient id="c" gradientUnits="userSpaceOnUse" x1="205" x2="205" y1="487.421" y2="22.579"><stop offset="0" stop-color="#fff" stop-opacity="0"/><stop offset=".427" stop-color="#d0b5b3"/><stop offset="1" stop-color="#d0b5b3"/></linearGradient><clipPath id="d"><path d="m0 0h410v510h-410z"/></clipPath><mask id="e"><g filter="url(#a)"><path d="m0 0h410v510h-410z" fill-opacity=".4"/></g></mask><clipPath id="f"><path d="m0 0h410v510h-410z"/></clipPath><mask id="g"><g filter="url(#a)"><path d="m0 0h410v510h-410z" fill-opacity=".502"/></g></mask><clipPath id="h"><path d="m0 0h410v510h-410z"/></clipPath><mask id="i"><g filter="url(#a)"><path d="m0 0h410v510h-410z" fill-opacity=".502"/></g></mask><clipPath id="j"><path d="m0 0h410v510h-410z"/></clipPath><mask id="k"><g filter="url(#a)"><path d="m0 0h410v510h-410z" fill-opacity=".502"/></g></mask><clipPath id="l"><path d="m0 0h410v510h-410z"/></clipPath><mask id="m"><g filter="url(#a)"><path d="m0 0h410v510h-410z" fill-opacity=".502"/></g></mask><clipPath id="n"><path d="m0 0h410v510h-410z"/></clipPath><mask id="o"><g filter="url(#a)"><path d="m0 0h410v510h-410z" fill-opacity=".302"/></g></mask><clipPath id="p"><path d="m0 0h410v510h-410z"/></clipPath><mask id="q"><g filter="url(#a)"><path d="m0 0h410v510h-410z" fill-opacity=".302"/></g></mask><clipPath id="r"><path d="m0 0h410v510h-410z"/></clipPath><mask id="s"><g filter="url(#a)"><path d="m0 0h410v510h-410z" fill-opacity=".302"/></g></mask><clipPath id="t"><path d="m0 0h410v510h-410z"/></clipPath><mask id="u"><g filter="url(#a)"><path d="m0 0h410v510h-410z" fill-opacity=".302"/></g></mask><clipPath id="v"><path d="m0 0h410v510h-410z"/></clipPath><mask id="w"><g filter="url(#a)"><path d="m0 0h410v510h-410z" fill-opacity=".302"/></g></mask><clipPath id="x"><path d="m0 0h410v510h-410z"/></clipPath><mask id="y"><g filter="url(#a)"><path d="m0 0h410v510h-410z" fill-opacity=".302"/></g></mask><clipPath id="z"><path d="m0 0h410v510h-410z"/></clipPath><mask id="A"><g filter="url(#a)"><path d="m0 0h410v510h-410z" fill-opacity=".302"/></g></mask><clipPath id="B"><path d="m0 0h410v510h-410z"/></clipPath><mask id="C"><g filter="url(#a)"><path d="m0 0h410v510h-410z" fill-opacity=".302"/></g></mask><clipPath id="D"><path d="m0 0h410v510h-410z"/></clipPath><mask id="E"><g filter="url(#a)"><path d="m0 0h410v510h-410z" fill-opacity=".302"/></g></mask><clipPath id="F"><path d="m0 0h410v510h-410z"/></clipPath><mask id="G"><g filter="url(#a)"><path d="m0 0h410v510h-410z" fill-opacity=".302"/></g></mask><clipPath id="H"><path d="m0 0h410v510h-410z"/></clipPath><mask id="I"><g filter="url(#a)"><path d="m0 0h410v510h-410z" fill-opacity=".302"/></g></mask><clipPath id="J"><path d="m0 0h410v510h-410z"/></clipPath><mask id="K"><g filter="url(#a)"><path d="m0 0h410v510h-410z" fill-opacity=".302"/></g></mask><clipPath id="L"><path d="m0 0h410v510h-410z"/></clipPath><mask id="M"><g filter="url(#a)"><path d="m0 0h410v510h-410z" fill-opacity=".102"/></g></mask><clipPath id="N"><path d="m0 0h410v510h-410z"/></clipPath><mask id="O"><g filter="url(#a)"><path d="m0 0h410v510h-410z" fill-opacity=".302"/></g></mask><clipPath id="P"><path d="m0 0h410v510h-410z"/></clipPath><mask id="Q"><g filter="url(#a)"><path d="m0 0h410v510h-410z" fill-opacity=".302"/></g></mask><clipPath id="R"><path d="m0 0h410v510h-410z"/></clipPath><mask id="S"><g filter="url(#a)"><path d="m0 0h410v510h-410z" fill-opacity=".102"/></g></mask><clipPath id="T"><path d="m0 0h410v510h-410z"/></clipPath><mask id="U"><g filter="url(#a)"><path d="m0 0h410v510h-410z" fill-opacity=".102"/></g></mask><clipPath id="V"><path d="m0 0h410v510h-410z"/></clipPath><mask id="W"><g filter="url(#a)"><path d="m0 0h410v510h-410z" fill-opacity=".102"/></g></mask><clipPath id="X"><path d="m0 0h410v510h-410z"/></clipPath><mask id="Y"><g filter="url(#a)"><path d="m0 0h410v510h-410z" fill-opacity=".502"/></g></mask><linearGradient id="Z" gradientTransform="matrix(3.1362 0 0 -3.1362 5554.397 6889.314)" gradientUnits="userSpaceOnUse" x1="-1733.248" x2="-1730.079" y1="2144.377" y2="2182.406"><stop offset="0" stop-color="#00afd1" stop-opacity="0"/><stop offset=".64" stop-color="#0074d1"/></linearGradient><clipPath id="aa"><path d="m0 0h410v510h-410z"/></clipPath><g clip-path="url(#d)" mask="url(#b)"><path d="m365.969 104.05c7.902-15.21 20.293-50.288-9.48-50.75-24.09-.37-34.43 35.49-48.989 49.06-7.66 7.109-15.07 12.64-21.25 21.312-8.309 11.648-16.422 23.34-24.531 35.027a106.752 106.752 0 0 1 -8.219 8.86c.39-10.457 3.738-29.758 3.79-32.48.07-4.438-1.778-22.419 1.21-25.13 1.36-1.219 16.25-7.578 22.86-12.219 6.609-4.64 10.562-9.242 9.94-19.55-.359-4.97-4.722-10.93-11.19-13.91-14.91-6.739-34.95.68-42.372 2.98-3.308.059-8.687 1.2-14.078 2.91 0 0 .38-7.281-19.148-1.648-12.114 3.476-24.043 7.476-24.282 7.558-1.859.66-2.699.989-2.699.989l-.101.16-17.63 6.081-4.472 2.488c-7.617 4.512-10.328 13.832-10.93 16.29a160.177 160.177 0 0 0 3.672-29.47c.2-12.64-.992-22.23-2.082-32.8-2.398-22.86-26.707-19.88-29.488-8.938-2.781 10.93-11.86 55.418-11.86 55.418-4.128 18.961-1.992 14.05-7.34 79.461l-1.128 21.871c-1.461 21.418-15.383 55.207-12.192 120.09.57 11.64-1.992 42.738-2.68 54.379-.902 15.012-9.14 27.422-16.902 49.691-3.77 10.797-13.449 21.61-17.128 32.38-1.989 5.82-10.801 24.96-12.63 34.64l110.32 5.71 45.22 2.348 10.082.52c7.047.371 6.36-1.988 9.09-7.95 3.187-7.058 5.957-14.218 9.277-21.269 11.73-25.48 38.101-33.45 56.121-53.672 6.129-6.886 12.04-13.988 17.809-21.16.171.203.332.41.492.613 4.43-6.02 8.77-12.101 13.058-18.152 8.192-11.539 19.641-23.96 24.66-37.14 4.43-11.63 4.102-24.508 8.84-36.04 5.262-13.007 10.18-25.93 17-38.289 7.102-12.992 1.993-21.87-1.75-34.949-3.738-13.09-1.988-24.2-.578-37.473 1.258-11.628-6.472-18.968-18.832-14.097-11.758 4.668-19.738 20.668-22.98 31.91-1.77 6.2-2.84 12.687-4.11 18.98-1.18 5.72 1.313 12.489-.168 17.82-.492 1.84-12.21 22.098-12.921 21.868-2.43 1.812-3.489-13.68-3.93-24.64l.398.46c11.34-49.21 51.313-86.18 74.23-130.148zm0 0" fill="url(#c)"/></g><g clip-path="url(#f)" mask="url(#e)"><path d="m262.52 64.941a41.81 41.81 0 0 1 6.96 2.57c3.11 1.43 6.489 2.91 9.13 3.977-2.45-1.68-7.141-4.66-10.758-5.558a30.164 30.164 0 0 0 -5.332-.989zm0 0" fill="#fff"/></g><g clip-path="url(#h)" mask="url(#g)"><path d="m265.621 61.95c-2.723.679-5.312 2.081-4.973 2.37.57.282 1.172.47 1.793.57 1.797.18 3.579.508 5.32.989 3.727.91 8.4 3.941 10.848 5.621 1.391.61 2.832 1.11 4.301 1.5.3.04.61 0 .89-.121v-.04a2.42 2.42 0 0 0 1.122-1.51c-2.262-7.4-12.371-8.938-15.363-9.708a8.828 8.828 0 0 0 -3.98.328" fill="#fff" stroke="#000" stroke-width=".25"/></g><g clip-path="url(#j)" mask="url(#i)"><path d="m352.52 173.14c-.59-.261-.051.86-5.34 4.97-4.88 2.742-7.98 7.761-9.25 13.09-.102.16-.2.312-.301.448a26.366 26.366 0 0 0 -.578 7.243c.488 7.89 12.289 8.5 12.289 8.5.558-.961 2.86-22.442 3.75-27.97.05-.773.05-1.55 0-2.331.031-.012.058-.02.101-.031.32-3.27-.09-3.66-.671-3.918zm0 0" fill="#fff" stroke="#000" stroke-width=".25"/></g><g clip-path="url(#l)" mask="url(#k)"><path d="m132.02 25.148c-7.63-2.136-13.891 1.66-14.79 15.43l18.88.813v-.012h.03s.098-.488.25-1.3c.66-3.548 1.829-13.188-4.37-14.93zm0 0" fill="#fff" stroke="#000" stroke-width=".25"/></g><g clip-path="url(#n)" mask="url(#m)"><path d="m369.738 69.57c2.434-6.379-.136-13.53-8.937-15.511-5.512-1.309-10.172 1.203-13.57 4.3-.04.012-.07.02-.11.04-3.621 3.382-5.7 7.652-5.332 8.41.16.332.422.601.73.8l7.95 1.22c4.172.53 9.61 3.39 12.77 5.25.011.062.03.112.042.16a32.62 32.62 0 0 1 2.38 1.421l.21-.238a15.887 15.887 0 0 0 3.879-5.871" fill="#fff" stroke="#000" stroke-width=".25"/></g><g clip-path="url(#p)" mask="url(#o)"><path d="m235.7 95.16c-9.25 1.461-18.731-1.43-27.302-4.531 7.672 4.64 18.43 7.691 27.301 4.531zm5.07-7.738c-7.95-3.711-17.56-7.25-26.59-6.332 9.058.832 17.761 4.219 26.59 6.332zm-30.59-1.332c5.96 3.488 13.91 6.832 21.058 5.531-7.238-.43-14.117-3.543-21.058-5.531zm37.91-1.988c-7.05-3.473-15.39-7.114-23.55-7.063 8.01 1.871 15.6 5.102 23.55 7.063zm0 0"/></g><g clip-path="url(#r)" mask="url(#q)"><path d="m171.39 107.238 3.47.184a31.031 31.031 0 0 1 -19.801-1.992l3.261.468a30.76 30.76 0 0 0 13.07 1.34zm2.981-11.386c1.07.457 2.14.988 3.11 1.457-6.11-1.118-12.532-3.98-18.75-2.98 1.097-.45 2.25-.75 3.43-.907 4.07.207 8.179 1.418 12.21 2.43zm-4.321 6.448 2.571.43c-5.14 1.122-10.93-.37-15.71-2.308.89.027 1.788.11 2.667.238a29.679 29.679 0 0 0 10.473 1.64zm0 0"/></g><g clip-path="url(#t)" mask="url(#s)"><path d="m119.172 104.11c.937-.07 1.887 0 2.828-.09a39.857 39.857 0 0 1 -15.59 1.992c.918-.262 1.871-.422 2.79-.684 3.359.094 6.722-.316 9.972-1.219zm0 0"/></g><g clip-path="url(#v)" mask="url(#u)"><path d="m120.8 98.309c1.071.132 2.15.261 3.231.492-5.87.578-11.691.36-17.543 1.14a14.814 14.814 0 0 1 2.98-1.09c3.891-.363 7.68-.3 11.333-.542zm0 0"/></g><g clip-path="url(#x)" mask="url(#w)"><path d="m122.379 91.629c1.043.07 2.07.2 3.09.402-5.64.57-11.13 1.52-16.797 1.59.918-.36 1.988-.633 2.898-.883 3.66-.136 7.168-.668 10.809-1.11zm0 0"/></g><g clip-path="url(#z)" mask="url(#y)"><path d="m127.18 52.309c.832-.079 1.66-.098 2.48-.079-4.148 1.7-9.57 2.59-12.789-.57.559.238 1.14.43 1.73.578 2.43 1.114 5.637.883 8.579.07zm0 0"/></g><g clip-path="url(#B)" mask="url(#A)"><path d="m338.441 75.86c5.34.64 10.79 2.55 15.97 3.98 1.3.59 2.487 1.09 3.609 1.719-7.872-1.93-16.348-5.668-24.63-5.22 1.66-.359 3.36-.519 5.051-.48zm0 0"/></g><g clip-path="url(#D)" mask="url(#C)"><path d="m331.922 115.04c1.148.82 2.219 1.64 3.277 2.46-8.11-3.98-16.12-9.512-25.008-11.809 1.457.09 2.91.32 4.329.68 6.12 2.168 11.742 5.688 17.402 8.668zm0 0"/></g><g clip-path="url(#F)" mask="url(#E)"><path d="m324.328 128.75c1.242.828 2.48 1.762 3.64 2.672-8.507-5.063-18.366-7.953-27.288-12.422 1.468.379 2.922.852 4.468 1.328 6.243 2.863 12.973 5.23 19.18 8.422zm0 0"/></g><g clip-path="url(#H)" mask="url(#G)"><path d="m321.578 135.488a29.5 29.5 0 0 0 5.031.942c-10.82.57-21.968-6.809-29.918-13.43.989.602 2.07 1.191 3.11 1.89 6.34 4.801 13.988 9.4 21.777 10.598zm0 0"/></g><g clip-path="url(#J)" mask="url(#I)"><path d="m312.762 140.988c1.457.774 2.828 1.512 4.289 2.274-7.852-2.48-17.942-7.59-22.91-14.16.988.847 1.988 1.617 2.98 2.386 4.129 3.922 10.11 7.274 15.64 9.5zm0 0"/></g><g clip-path="url(#L)" mask="url(#K)"><path d="m151.55 89.379a23.308 23.308 0 0 1 3.77-3.57c-5.18 3.062-8.082 8.351-9.601 12.191a48.67 48.67 0 0 0 -2.418 9.86c-.54 3.671-.7 7.46-.992 11.128-.297 3.672-.68 7.371-1.098 11.012-.43 3.64-.832 7.219-1.27 10.672a4625.79 4625.79 0 0 1 -2.382 18.879c-.7 5.488-1.207 10.219-1.61 13.46-.398 3.239-.61 5.09-.61 5.09s.38-1.831.99-5.042c.62-3.207 3.98-28.22 4.41-31.668.991-6.961 2.171-14.72 2.78-22.2.16-1.882.243-3.742.36-5.57.121-1.832.3-3.66.543-5.45a49.415 49.415 0 0 1 2.45-10.25 33.034 33.034 0 0 1 4.679-8.542zm31.278 90.101a47.017 47.017 0 0 0 3.184-4.261 79.355 79.355 0 0 0 6.77-12.188 79.266 79.266 0 0 0 3.257-8.703 76.386 76.386 0 0 0 2.36-10.066c.581-3.64.863-7.313.863-10.992 0-3.77-.082-7.72.078-11.59.262-7.63 1.14-15.23 2.62-22.72.688-3.448 1.59-6.858 2.68-10.21a46.225 46.225 0 0 1 3.77-8.71c1.25-2.43 3.09-4.52 5.34-6.071 2.191-1.11 4.05-1.828 5.66-2.469a27.418 27.418 0 0 1 3.84-1.18c.328-.082.66-.129.988-.16-.34.059-.668.14-.988.238-1.238.41-2.46.891-3.648 1.43-.762.371-1.614.742-2.512 1.211l-1.418.742c-.5.239-.98.508-1.453.809a16.744 16.744 0 0 0 -4.719 5.96c-2.621 5.09-4.422 11.63-5.75 18.688a159.469 159.469 0 0 0 -2.379 22.461c-.18 3.86-.152 7.653-.14 11.52a67.134 67.134 0 0 1 -3.82 21.52 69.298 69.298 0 0 1 -3.641 8.73 73.323 73.323 0 0 1 -7.47 11.93 43.162 43.162 0 0 1 -3.472 4.081zm0 0"/></g><g clip-path="url(#N)" mask="url(#M)"><path d="m188.21 171.8c8.36-14.44 11.65-26.269 11.618-44.84-.027-18.581 5.262-43.85 9.8-48.25 4.544-4.401 13.622-8.26 13.622-8.26s-20.46 6.241-23.621 16.03c-3.16 9.79-7.95 18.168-8.54 30.399-.589 12.23-2.62 38.02-5.8 47.48-3.187 9.461-5.46 21.942 2.922 7.442zm0 0"/></g><g clip-path="url(#P)" mask="url(#O)"><path d="m353.441 249.031s-6.03-.8-8.48-3.52c-.05.009.687 5.11 8.48 3.52zm0 0"/></g><g clip-path="url(#R)" mask="url(#Q)"><path d="m351.54 236.7s-5.962-1.302-6.188 2.269c.367.511 6.187-2.27 6.187-2.27zm0 0"/></g><g clip-path="url(#T)" mask="url(#S)"><path d="m281.77 129.95c-6.758 9.562-13.399 19.128-20.051 28.71a106.135 106.135 0 0 1 -8.219 8.86c.39-10.461 3.738-29.758 3.79-32.48.07-4.438-1.778-22.419 1.21-25.118 1.36-1.223 16.25-7.582 22.86-12.223l1.14-.82.352-.27c.25-.18.488-.37.726-.558l.402-.332c.22-.168.43-.34.63-.52l.41-.347.558-.524.39-.367.52-.531c.121-.13.25-.258.364-.39l.507-.58.301-.358c.23-.301.45-.59.66-.891.09-.11.16-.23.239-.352.082-.12.32-.5.472-.75.098-.148.18-.3.25-.468.078-.16.23-.41.328-.63l.243-.53c.078-.18.18-.41.257-.63.082-.222.153-.382.22-.581l.21-.649.18-.621c.062-.23.11-.469.172-.71.058-.24.09-.43.129-.65.039-.218.09-.519.128-.788.043-.274.07-.43.102-.653 0-.437.09-.879.11-1.34v-.14c-4.27 6.261-10.43 15.832-19.4 16.71 2.161-4.968-2.37-8.359-2.37-8.359.988 6.25-.121 6.711-1.61 10.352-1.511 4.258-7.19 6.316-8.94 6.457-3.302.27-7.5-5.45-6.5-1.207 1 4.226-.462 10.668-1.7 28.058-1.238 17.38-1.55 17.57-3.04 32.48l-2.98 18.88s28.328-35.781 35.782-52.18c.449-1.05.859-2.039 1.168-2.96zm0 0"/></g><g clip-path="url(#V)" mask="url(#U)"><path d="m362.54 105.68c-6.962 12.922-27.33 37.77-42.74 58.64-15.41 20.871-35.78 60.13-36.769 66.59-5.832 37.899-1.422 52.14 2.649 50.36 4.07-1.782 11.511-16.899 17.968-26.52 6.461-9.621 3.582-8.11 9.192-10.8a59.739 59.739 0 0 1 8.64-3.528s-8.652-5.961-7.37-20.781c.331-3.903-2.86 6.96 1.91-14.97a85 85 0 0 1 17.8-36.14c-5.449 2.7-10.02 7.809-13.629 13.59l-.62.988-.06.102-.57.988-.09.16c-.18.313-.351.621-.523.93l-.117.211-.473.89c-.047.09-.097.18-.136.27-.153.281-.293.57-.442.852l-.148.308c-.14.27-.274.551-.403.82-.129.27-.109.239-.168.348l-.363.801-.18.383-.328.758-.18.422c-.109.238-.21.476-.312.718l-.18.45c-.097.23-.187.46-.277.69l-.191.481-.25.637c-.059.184-.13.352-.192.531-.058.18-.148.391-.218.59l-.2.57-.191.54c-.07.203-.14.41-.2.613-.058.2-.109.316-.16.476-.05.16-.148.461-.218.692l-.121.379c-.11.351-.211.703-.309 1.043-1.77 6.199-2.84 12.687-4.11 18.976-.09.48-.171.992-.222 1.453v.348c0 .48-.07.992-.078 1.43v3.832c-.02.16-.02.328 0 .488l.18 1.992c.09.899.16 1.809.21 2.7v3.09c-.03.46-.101.91-.19 1.359-.06.32-.13.648-.22.992-.492 1.84-12.21 22.098-12.921 21.867-2.43 1.813-3.489-13.68-3.98-24.64l.401.46c11.48-48.879 51.118-85.699 74.07-129.43a973.187 973.187 0 0 0 7.048-19.07c-2.668 6-6.41 13.371-10.02 20.07zm0 0"/></g><g clip-path="url(#X)" mask="url(#W)"><path d="m136.941 168.29c.668-11.259 5.77-51.29 6.36-60.43.12-2.32.57-4.622 1.328-6.82a160.655 160.655 0 0 0 3.441-28.419c.2-12.64-.992-22.23-2.082-32.8a21.695 21.695 0 0 0 -4.078-11.173 268.013 268.013 0 0 1 2.64 27.66c.66 16.243-2.652 37.114-3.32 45.391-.671 8.281-1.652 11.262-2.98 29.82-1.328 18.56-5.3 38.43-4.969 41.41.328 2.981 2.989 6.622 3.66-4.64zm0 0"/></g><g clip-path="url(#aa)" mask="url(#Y)"><path d="m97.29 165.73-.45 8.79c15.36 2.05 32.52 1.101 34.379.71 2.98-.628 5.05 4.301 5.71-6.96.673-11.258 5.77-51.29 6.36-60.43.121-2.32.57-4.621 1.332-6.82v-.06l.168-.82.2-.992v-.16c.07-.367.152-.75.222-1.16.07-.398.148-.808.23-1.238v-.211c.079-.438.16-.879.239-1.348v-.242c.082-.46.16-.93.242-1.41v-.117c.078-.5.156-.992.238-1.543l.059-.36c.082-.539.16-1.07.242-1.629v-.23c.07-.512.148-.988.219-1.55v-.348c.082-.57.148-1.141.218-1.73-.02-.142-.02-.282 0-.423.07-.57.133-1.148.192-1.738v-.14c.058-.61.12-1.231.18-1.86v-.461c.058-.629.109-1.25.16-1.879v-.332l.12-1.738v-.352l.09-1.93v-2.41c.2-12.64-.992-22.23-2.081-32.8-2.399-22.86-26.707-19.88-29.489-8.938-2.78 10.93-11.43 55.379-11.43 55.379-4.14 19.012-1.96 14.102-7.35 79.48zm0 0" fill="url(#Z)"/></g></svg>