<svg xmlns="http://www.w3.org/2000/svg" xmlns:xlink="http://www.w3.org/1999/xlink" viewBox="0 0 410 510"><defs><filter id="a" width="100%" height="100%" x="0%" y="0%" filterUnits="objectBoundingBox"><feColorMatrix in="SourceGraphic" values="0 0 0 0 1 0 0 0 0 1 0 0 0 0 1 0 0 0 1 0"/></filter><mask id="u"><g filter="url(#a)"><path fill-opacity=".851" d="M0 0h410v510H0z"/></g></mask><linearGradient id="c" x1="-270.949" x2="-270.949" y1="485.742" y2="24.258" gradientTransform="matrix(-1 0 0 1 -65.95 0)" gradientUnits="userSpaceOnUse"><stop offset="0" stop-color="#fff" stop-opacity="0"/><stop offset=".427" stop-color="#d0b5b3"/><stop offset="1" stop-color="#d0b5b3"/></linearGradient><clipPath id="b"><path d="M0 0h410v510H0z"/></clipPath><g id="t" clip-path="url(#b)"><path fill="url(#c)" d="M55.32 250.95c6 12.331 10.14 25.23 14.649 38.152 4.02 11.457 3.05 23.988 6.781 35.539 4.219 13.09 14.738 25.789 22.129 37.418 3.89 6.113 7.793 12.242 11.8 18.332.173-.18.34-.38.5-.563 5.27 7.274 10.65 14.492 16.282 21.5 16.48 20.602 41.809 29.723 51.95 55.082 2.85 7.031 5.198 14.149 7.968 21.18 2.351 5.87 1.57 8.18 8.45 8.18H357.5c-1.29-9.508-8.879-28.54-10.54-34.36-3.05-10.66-9.05-20.672-10.429-31.738-1.57-12.031-26.37-44.883-24.902-57.102 1.383-11.261 6.371-34.511 6.46-45.87.391-49.38 5.391-69.848-5.808-117.59v-21.32c-1.941-63.962 2.578-56.009-10.34-74.302-7.75-10.976-21.972-12.93-32.953-20.027-10.976-7.102-30.36 3.879-30.36 3.879s-7.108-3.238-25.847-9.692c-18.73-6.449-18.73.653-18.73.653-5.18-1.942-10.352-3.32-13.57-3.563-7.11-2.578-18.09-7.418-32.95-1.61-6.453 2.52-8.98 6.981-9.59 11.821-1.222-4.55-1.722-10.289-2.68-15.14-.363.441-6.3-37.75-21.421-43.68-17.512-6.867-25.05 6.383-27.04 23.57-1.09 9.39 2.74 21.653 3.391 28.59 4.207 44.352 16.688 87.86 19.82 132.602l1.438 7.129s3.86 31.94 3.422 40.039c-.691.152-11.09-20.168-11.473-21.989-1.187-5.261 1.602-11.73.75-17.36-.918-6.19-1.636-12.57-3.046-18.69-2.59-11.122-9.551-27.098-20.774-32.23-11.777-5.368-19.68 1.401-19.039 12.769.75 13 1.8 23.93-2.45 36.472-4.288 12.5-9.769 20.899-3.519 33.918zM158 139.808c-.129 3.66-.379 7.48-.68 11.23-1.492-7.168-3.02-14.34-4.57-21.508a87.321 87.321 0 0 0-3.66-12.242 170.515 170.515 0 0 1 2.37 4.52 2354.35 2354.35 0 0 0-5.14-13.47c4.239 4.192 9.93 9.06 11.192 10.321 2.789 2.762.648 16.79.488 21.149zm0 0"/></g><mask id="w"><g filter="url(#a)"><path fill-opacity=".502" d="M0 0h410v510H0z"/></g></mask><clipPath id="d"><path d="M0 0h410v510H0z"/></clipPath><g id="v" clip-path="url(#d)"><path fill="#fff" stroke="#000" stroke-width=".25" d="M167.031 71.148a10.714 10.714 0 0 0-3.722-.386c-2.98.457-12.86 1.199-16.168 6.597.058.5.37.93.808 1.153 0 .02-.008.027-.008.039.27.097.547.14.829.129 1.46-.25 2.91-.57 4.34-.97a.12.12 0 0 1 .05-.019 230.79 230.79 0 0 0 9.29-2.62 52.561 52.561 0 0 1 6.78-1.59c.11 0 .23-.012.34-.02.61-.063 1.211-.18 1.79-.352.359-.199-1.88-1.34-4.348-1.937m-18.84 6.719"/></g><mask id="y"><g filter="url(#a)"><path fill-opacity=".502" d="M0 0h410v510H0z"/></g></mask><clipPath id="e"><path d="M0 0h410v510H0z"/></clipPath><g id="x" clip-path="url(#e)"><path fill="#fff" stroke="#000" stroke-width=".25" d="M62.54 175.84c-.02-.012-.04-.012-.06-.02-.101-3.199.29-3.59.872-3.78.578-.188 0 .87 4.937 5.14 4.633 2.93 7.422 7.992 8.36 13.27.081.128.152.269.23.39.402 2.34.46 4.719.191 7.07-.87 7.66-12.398 7.66-12.398 7.66-.48-.968-1.652-22-2.23-27.43-.02-.761.007-1.53.097-2.3zm0 0"/></g><mask id="A"><g filter="url(#a)"><path fill-opacity=".502" d="M0 0h410v510H0z"/></g></mask><clipPath id="f"><path d="M0 0h410v510H0z"/></clipPath><g id="z" clip-path="url(#f)"><path fill="#fff" stroke="#000" stroke-width=".25" d="M107.5 25.559c6.14.402 10.191 4.543 12.71 8.87h-.01c.019.02.05.032.07.051 2.66 4.598 3.449 9.739 2.832 10.418a2.22 2.22 0 0 1-.973.59c-.008-.008-.02-.02-.04-.02-1.35.321-3.698-.327-8.62-1.269-4.43-.758-10.93.45-14.828 1.422-.032.059-.07.11-.102.168-1.738.36-2.91.73-2.91.73l-.14-.32a17.503 17.503 0 0 1-2.13-7.328c.012-.02.02-.043.032-.062l-.102.02c-.437-7.458 4.52-13.958 14.211-13.27zm0 0"/></g><mask id="C"><g filter="url(#a)"><path fill-opacity=".302" d="M0 0h410v510H0z"/></g></mask><clipPath id="g"><path d="M0 0h410v510H0z"/></clipPath><g id="B" clip-path="url(#g)"><path d="M181.05 102.059c8.938 1.882 18.31-.45 26.81-3.028-7.7 4.098-18.36 6.528-26.81 3.028zm0 0M176.488 94.23c7.922-3.21 17.442-6.16 26.223-4.851-8.82.39-17.5 3.25-26.223 4.851zm0 0M206.352 94.48c-5.98 3.09-13.891 5.95-20.793 4.31 7.082-.06 13.93-2.731 20.793-4.31zm0 0M169.57 90.629c7.051-3.02 15.34-6.14 23.258-5.688-7.887 1.43-15.43 4.18-23.258 5.688zm0 0"/></g><mask id="E"><g filter="url(#a)"><path fill-opacity=".302" d="M0 0h410v510H0z"/></g></mask><clipPath id="h"><path d="M0 0h410v510H0z"/></clipPath><g id="D" clip-path="url(#h)"><path d="M243.05 117.031h-3.39a30.13 30.13 0 0 0 19.38-.972l-3.2.293a29.887 29.887 0 0 1-12.79.68zm0 0M240.738 105.809c-1.078.39-2.136.87-3.11 1.261 6.02-.78 12.403-3.199 18.411-1.941-1.05-.5-2.148-.86-3.3-1.07-3.97-.008-8 .96-12 1.75zm0 0M244.61 112.281l-2.532.29c4.953 1.359 10.66.19 15.41-1.45-.867-.02-1.75.02-2.617.098a28.44 28.44 0 0 1-10.262 1.062zm0 0"/></g><mask id="G"><g filter="url(#a)"><path fill-opacity=".302" d="M0 0h410v510H0z"/></g></mask><clipPath id="i"><path d="M0 0h410v510H0z"/></clipPath><g id="F" clip-path="url(#i)"><path d="M112.55 123.54c-1.769-.169-3.519-.5-5.23-.97 10.282 4.668 23.91 1.75 34.121-1.66-1.222.18-2.453.38-3.722.649-7.989 2.261-17.149 3.77-25.168 1.98zm0 0M119.012 132.219c-1.711.18-3.32.39-5.032.562 8.57.57 20.29-.543 27.61-5.031-1.27.469-2.512.82-3.762 1.191-5.508 2.239-12.598 3.23-18.816 3.278zm0 0M112.441 115.941c-1.52.329-3.082.758-4.55 1.207 10.18-1.68 20.87-.77 31.21-1.68-1.57-.187-3.16-.288-4.851-.41-7.129.442-14.531.102-21.809.883zm0 0M110.3 99.71c-1.429.368-2.769.759-4.12 1.15 9.398-.81 19.261-3.098 28.75-1.938-1.461-.461-2.95-.793-4.47-.973-6.71-.21-13.491 1.012-20.16 1.762zm0 0M122.18 50.691c-5.239-.132-10.782.97-15.97 1.688-1.35.402-2.562.723-3.722 1.172 7.864-.781 16.551-3.242 24.492-1.66-1.539-.59-3.152-1-4.8-1.2zm0 0"/></g><mask id="I"><g filter="url(#a)"><path fill-opacity=".302" d="M0 0h410v510H0z"/></g></mask><clipPath id="j"><path d="M0 0h410v510H0z"/></clipPath><g id="H" clip-path="url(#j)"><path d="M293.84 122.102c-.77.16-1.5.398-2.27.546 4.34.48 8.739-.078 12.82-1.628h-2.37c-2.649.84-5.41 1.199-8.18 1.082zm0 0M291.11 117.031c-.829.36-1.641.758-2.43 1.188 4.789-.79 9.32-2.309 14.148-2.91-.86-.22-1.75-.34-2.648-.348-3.11.539-6.13 1.45-9.07 2.07zm0 0M288.219 111.07c-.797.309-1.59.668-2.348 1.078 4.59-.738 9.168-1.078 13.668-2.296a20.643 20.643 0 0 0-2.508-.172c-2.922.691-5.832.98-8.812 1.39zm0 0"/></g><mask id="K"><g filter="url(#a)"><path fill-opacity=".302" d="M0 0h410v510H0z"/></g></mask><clipPath id="k"><path d="M0 0h410v510H0z"/></clipPath><g id="J" clip-path="url(#k)"><path d="M272.852 188.75s-.122-1.809-.332-4.98c-.211-3.168-.551-7.7-.97-13.141-.421-5.438-.859-11.77-1.37-18.55a1156.5 1156.5 0 0 1-.7-10.47c-.21-3.57-.43-7.18-.511-10.78-.09-3.599 0-7.29-.36-10.888a45.853 45.853 0 0 0-2.078-10.48 35.71 35.71 0 0 0-1.992-4.742 32.793 32.793 0 0 0-2.629-4.168 29.987 29.987 0 0 0-6.43-6.242 33.677 33.677 0 0 0-6.558-3.68c-.973-.469-2.012-.79-2.91-1.149l-2.512-.82c-1.54-.441-2.75-.738-3.59-.898l-1.281-.282 1.25.391c.812.219 2 .649 3.492 1.16l2.43.969c.86.41 1.82.79 2.789 1.32a37.035 37.035 0 0 1 6.18 3.88c2.101 1.671 4.93 3.878 6.71 6.3a31.803 31.803 0 0 1 4.168 8.57c.973 3.301 1.59 6.68 1.852 10.11.14 1.75.21 3.539.238 5.332.032 1.789 0 3.597.07 5.437.223 7.32.973 14.973 1.59 21.762.301 3.398 2.293 27.918 2.692 31.07.43 3.13.762 4.969.762 4.969zm0 0M228.27 186.809a46.5 46.5 0 0 1-2.91-4.309 76.683 76.683 0 0 1-5.97-12.219 71.44 71.44 0 0 1-2.75-8.66 70.8 70.8 0 0 1-1.78-9.922c-.38-3.57-.481-7.16-.29-10.75.22-3.66.47-7.508.508-11.289a140.82 140.82 0 0 0-1.406-22.289 86.987 86.987 0 0 0-2.102-10.082 47.296 47.296 0 0 0-3.23-8.719 15.995 15.995 0 0 0-4.852-6.172c-2.058-1.187-3.879-1.988-5.379-2.687a25.975 25.975 0 0 0-3.609-1.332c-.32-.09-.64-.149-.969-.2.328.083.649.173.969.282 1.191.45 2.352.98 3.48 1.578.72.402 1.532.8 2.38 1.313l1.35.789c.481.3.938.62 1.392.968a16.155 16.155 0 0 1 4.289 6.063c2.3 5.078 3.718 11.539 4.66 18.488.89 7.3 1.27 14.649 1.129 22 0 3.77-.239 7.461-.45 11.219-.3 7.152.56 14.3 2.56 21.172.839 2.96 1.882 5.86 3.108 8.668a71.02 71.02 0 0 0 6.672 12.011c.98 1.41 2.04 2.782 3.2 4.079zm0 0M164.191 194.559l-.3-1.938c-.192-1.25-.47-2.91-.82-4.95l-1.13-6.98c-.203-1.27-.39-2.601-.632-3.882-.239-1.278-.43-2.7-.618-4.07-.191-1.368-.441-2.708-.652-4.048l-.57-3.953c-.168-1.277-.38-2.508-.559-3.68-.18-1.167-.34-2.296-.48-3.32-.559-4.117-1.11-6.86-1.11-6.86s-.11 2.86 0 7.11a24.564 24.564 0 0 0 .16 3.434c.149 1.2.18 2.488.31 3.797.132 1.312.21 2.68.41 4.043.19 1.36.402 2.75.59 4.129.19 1.379.429 2.757.698 4.097.274 1.34.543 2.653.801 3.883.262 1.23.582 2.457.871 3.61.29 1.14.559 2.218.86 3.199.3.98.57 1.86.82 2.648.25.793.5 1.453.7 2.012.17.57.39 1.16.651 1.719zm0 0"/></g><mask id="M"><g filter="url(#a)"><path fill-opacity=".102" d="M0 0h410v510H0z"/></g></mask><clipPath id="l"><path d="M0 0h410v510H0z"/></clipPath><g id="L" clip-path="url(#l)"><path d="M268.73 127.21c-.968-12.87-.48-32.948-30.039-39.73 0 0 21.559 5.008 28.028 12.43 6.46 7.418 8.722 23.59 9.36 37.8.64 14.212-3.548 48.79-3.548 48.79s-2.832-46.21-3.8-59.29zm0 0"/></g><mask id="O"><g filter="url(#a)"><path fill-opacity=".102" d="M0 0h410v510H0z"/></g></mask><clipPath id="m"><path d="M0 0h410v510H0z"/></clipPath><g id="N" clip-path="url(#m)"><path d="M223.422 179.059c-7.434-14.54-10.012-26.168-9.043-44.258.973-18.09-2.91-42.961-7.11-47.492-4.21-4.528-12.82-8.72-12.82-8.72s19.61 7.11 22.192 16.802c2.59 9.687 6.78 18.078 6.78 30.039 0 11.96.65 37.148 3.227 46.52 2.57 9.378 4.204 21.64-3.226 7.109zm0 0"/></g><mask id="Q"><g filter="url(#a)"><path fill-opacity=".302" d="M0 0h410v510H0z"/></g></mask><clipPath id="n"><path d="M0 0h410v510H0z"/></clipPath><g id="P" clip-path="url(#n)"><path d="M58.672 245.93s5.906-.48 8.43-3c0-.008-.973 4.941-8.43 3zm0 0"/></g><mask id="S"><g filter="url(#a)"><path fill-opacity=".302" d="M0 0h410v510H0z"/></g></mask><clipPath id="o"><path d="M0 0h410v510H0z"/></clipPath><g id="R" clip-path="url(#o)"><path d="M61.09 234.012s5.91-.973 5.91 2.52c-.43.48-5.91-2.52-5.91-2.52zm0 0"/></g><mask id="U"><g filter="url(#a)"><path fill-opacity=".102" d="M0 0h410v510H0z"/></g></mask><clipPath id="p"><path d="M0 0h410v510H0z"/></clipPath><g id="T" clip-path="url(#p)"><path d="M161.39 183.422c-.82-10.133-2.03-23.063-3.878-35.512.187-2.719.347-5.46.449-8.101.16-4.329 2.3-18.41-.48-21.16-1.262-1.258-6.961-6.13-11.192-10.32 0 0-7.668-17.72-8.41-23.4.3-3.109 1.672-6.03 3.883-8.25-.14 3.59-2.703 9.833 1.66 16.61 5.398 8.402 11.629 16.961 15.508 18.902 3.879 1.938 9.21.48 9.21.48a50.19 50.19 0 0 0-4.359 15.02c-.972 8.239 2.418 41.188 3.88 51.36 1.429 10.18-4.981 20.187-6.27 4.37zm0 0"/></g><mask id="W"><g filter="url(#a)"><path fill-opacity=".102" d="M0 0h410v510H0z"/></g></mask><clipPath id="q"><path d="M0 0h410v510H0z"/></clipPath><g id="V" clip-path="url(#q)"><path d="M90.16 239.14s8.719-5.331 8.238-19.87c-.398-12.051-2.136-37.72-15.41-50.032 9.64 6.262 15.703 20.551 18.07 30.742 1.41 6.13 2.133 12.5 3.051 18.692.852 5.629-1.937 12.09-.75 17.36.391 1.82 10.79 22.14 11.47 21.988.44-8.09-3.419-40.04-3.419-40.04l-1.441-7.128c-3.13-44.743-15.61-88.25-19.82-132.602-.649-6.941-4.477-19.2-3.387-28.59.308-2.8.808-5.582 1.508-8.308-.301 7.226-.34 18.218 1.718 23.976C93.23 74.371 94.52 79.54 94.52 79.54s0 20.031 3.23 30.371 7.11 12.918 7.11 12.918c.269 13.684 1.78 27.3 4.519 40.703 4.531 21.969 9.05 56.86 10.34 80.117 1.293 23.262-7.098 41.993-10.98 40.051-3.88-1.937 3.882-20.027-1.938-29.719-5.813-9.69-3.07-8.07-8.403-10.98a61.32 61.32 0 0 0-8.238-3.86zm0 0"/></g><mask id="Y"><g filter="url(#a)"><path fill-opacity=".502" d="M0 0h410v510H0z"/></g></mask><linearGradient id="s" x1="-1823.778" x2="-1835.935" y1="2188.435" y2="2131.987" gradientTransform="rotate(180 -2810.173 3444.657) scale(3.1362)" gradientUnits="userSpaceOnUse"><stop offset=".36" stop-color="#0074d1"/><stop offset="1" stop-color="#00afd1" stop-opacity="0"/></linearGradient><clipPath id="r"><path d="M0 0h410v510H0z"/></clipPath><g id="X" clip-path="url(#r)"><path fill="url(#s)" d="M114.23 238.82l-.671-1.218c-.97-10.012-2.13-19.614-2.13-19.614l-1.44-7.129c-3.13-44.738-15.61-88.25-19.817-132.597-.652-6.942-4.48-19.203-3.39-28.59 1.988-17.192 9.527-30.442 27.038-23.57 15.121 5.93 21.059 44.117 21.418 43.68.973 4.847 1.461 10.546 2.672 15.09l-.09 1.14 10.168 23.93-1.68-1.622c1.653 4.29 3.391 8.852 5.141 13.47-.777-1.52-1.558-3.02-2.37-4.52a86.29 86.29 0 0 1 3.66 12.242c1.562 7.168 3.081 14.34 4.57 21.508l6.18 41.851zm0 0"/></g></defs><use mask="url(#u)" xlink:href="#t"/><use mask="url(#w)" xlink:href="#v"/><use mask="url(#y)" xlink:href="#x"/><use mask="url(#A)" xlink:href="#z"/><use mask="url(#C)" xlink:href="#B"/><use mask="url(#E)" xlink:href="#D"/><use mask="url(#G)" xlink:href="#F"/><use mask="url(#I)" xlink:href="#H"/><use mask="url(#K)" xlink:href="#J"/><use mask="url(#M)" xlink:href="#L"/><use mask="url(#O)" xlink:href="#N"/><use mask="url(#Q)" xlink:href="#P"/><use mask="url(#S)" xlink:href="#R"/><use mask="url(#U)" xlink:href="#T"/><use mask="url(#W)" xlink:href="#V"/><use mask="url(#Y)" xlink:href="#X"/></svg>