<svg viewBox="0 0 410 510" xmlns="http://www.w3.org/2000/svg" xmlns:xlink="http://www.w3.org/1999/xlink"><filter id="a" height="100%" width="100%" x="0%" y="0%"><feColorMatrix in="SourceGraphic" values="0 0 0 0 1 0 0 0 0 1 0 0 0 0 1 0 0 0 1 0"/></filter><mask id="b"><g filter="url(#a)"><path d="m0 0h410v510h-410z" fill-opacity=".851"/></g></mask><linearGradient id="c" gradientUnits="userSpaceOnUse" x1="204.98" x2="204.98" y1="460.671" y2="49.329"><stop offset="0" stop-color="#fff" stop-opacity="0"/><stop offset=".427" stop-color="#d0b5b3"/><stop offset="1" stop-color="#d0b5b3"/></linearGradient><clipPath id="d"><path d="m0 0h410v510h-410z"/></clipPath><mask id="e"><g filter="url(#a)"><path d="m0 0h410v510h-410z" fill-opacity=".502"/></g></mask><clipPath id="f"><path d="m0 0h410v510h-410z"/></clipPath><mask id="g"><g filter="url(#a)"><path d="m0 0h410v510h-410z" fill-opacity=".502"/></g></mask><clipPath id="h"><path d="m0 0h410v510h-410z"/></clipPath><mask id="i"><g filter="url(#a)"><path d="m0 0h410v510h-410z" fill-opacity=".502"/></g></mask><clipPath id="j"><path d="m0 0h410v510h-410z"/></clipPath><mask id="k"><g filter="url(#a)"><path d="m0 0h410v510h-410z" fill-opacity=".502"/></g></mask><clipPath id="l"><path d="m0 0h410v510h-410z"/></clipPath><mask id="m"><g filter="url(#a)"><path d="m0 0h410v510h-410z" fill-opacity=".502"/></g></mask><clipPath id="n"><path d="m0 0h410v510h-410z"/></clipPath><mask id="o"><g filter="url(#a)"><path d="m0 0h410v510h-410z" fill-opacity=".302"/></g></mask><clipPath id="p"><path d="m0 0h410v510h-410z"/></clipPath><mask id="q"><g filter="url(#a)"><path d="m0 0h410v510h-410z" fill-opacity=".302"/></g></mask><clipPath id="r"><path d="m0 0h410v510h-410z"/></clipPath><mask id="s"><g filter="url(#a)"><path d="m0 0h410v510h-410z" fill-opacity=".302"/></g></mask><clipPath id="t"><path d="m0 0h410v510h-410z"/></clipPath><mask id="u"><g filter="url(#a)"><path d="m0 0h410v510h-410z" fill-opacity=".302"/></g></mask><clipPath id="v"><path d="m0 0h410v510h-410z"/></clipPath><mask id="w"><g filter="url(#a)"><path d="m0 0h410v510h-410z" fill-opacity=".302"/></g></mask><clipPath id="x"><path d="m0 0h410v510h-410z"/></clipPath><mask id="y"><g filter="url(#a)"><path d="m0 0h410v510h-410z" fill-opacity=".302"/></g></mask><clipPath id="z"><path d="m0 0h410v510h-410z"/></clipPath><mask id="A"><g filter="url(#a)"><path d="m0 0h410v510h-410z" fill-opacity=".302"/></g></mask><clipPath id="B"><path d="m0 0h410v510h-410z"/></clipPath><mask id="C"><g filter="url(#a)"><path d="m0 0h410v510h-410z" fill-opacity=".102"/></g></mask><clipPath id="D"><path d="m0 0h410v510h-410z"/></clipPath><mask id="E"><g filter="url(#a)"><path d="m0 0h410v510h-410z" fill-opacity=".102"/></g></mask><clipPath id="F"><path d="m0 0h410v510h-410z"/></clipPath><mask id="G"><g filter="url(#a)"><path d="m0 0h410v510h-410z" fill-opacity=".102"/></g></mask><clipPath id="H"><path d="m0 0h410v510h-410z"/></clipPath><mask id="I"><g filter="url(#a)"><path d="m0 0h410v510h-410z" fill-opacity=".102"/></g></mask><clipPath id="J"><path d="m0 0h410v510h-410z"/></clipPath><mask id="K"><g filter="url(#a)"><path d="m0 0h410v510h-410z" fill-opacity=".102"/></g></mask><clipPath id="L"><path d="m0 0h410v510h-410z"/></clipPath><mask id="M"><g filter="url(#a)"><path d="m0 0h410v510h-410z" fill-opacity=".502"/></g></mask><linearGradient id="N" gradientTransform="matrix(3.1362 0 0 -3.1362 5554.397 6889.314)" gradientUnits="userSpaceOnUse" x1="-1652.343" x2="-1682.33" y1="2167.793" y2="2124.617"><stop offset=".36" stop-color="#0074d1"/><stop offset=".87" stop-color="#00afd1" stop-opacity="0"/></linearGradient><clipPath id="O"><path d="m0 0h410v510h-410z"/></clipPath><g clip-path="url(#d)" mask="url(#b)"><path d="m351.96 171.621c13.911-22.18 17.06-27.64 26.821-44.2 3.758-6.37 5.828-8.39 6.13-12.91.917-13.91-10.192-23.39-21.68-22.523-10.172.774-24.172 19.871-36.262 32.953-5.528 5.957-8.688 11.918-23.34 26.489-4.52 4.48-12.91 16.73-17.219 21.191-13.422 13.828-31.45 46.34-41.719 42.379-12.91-4.969-1.39-25.5 3.32-39.398 4.708-13.91 8.598-30.133 8.598-30.133s20.79-11.098 30.211-24.008c9.418-12.91 19.782-39.73 11.77-53.64s-24.95-10.43-31.55-2.481c-6.599 7.95-15.54 25.332-17.88 25.832-.988.207-4.539 2.539-8.941 5.406 10.75-13.726 14.36-20.289 10.851-34.719-4.23-17.379-20.242-13.41-24.011-7.449-2.72 4.3-13.028 10.399-21.22 16.461-3.21-4.633-7.878-10.531-11.75-11.992-6.628-2.48-12.308 9.441-21.25 18.383-8.94 8.937-18.519 26.316-24.64 39.238-6.129 12.91-14.59 31.79-18.87 52.148-4.278 20.364-7.06 33.774-15.54 54.633-8.469 20.86-8.488 73.008-10.36 102.809-1.87 29.8-45.46 81.95-45.46 81.95l-32.969 52.631 1.309-.723-.84.723h177.52s28.07-24.492 38.382-34.102c14.57-13.582 21.848-11.379 42.61-40.398 24.93-34.774 50.09-39.73 53.41-63.57 1.988-14.063.71-21.262 9.597-43.383 11.59-28.809 13.582-28.469 14.242-45.688.918-24.191 9.2-41.383 13.91-54.293 3.051-8.379-11.59-11.27-23.18-7.617zm-49.788 84.258c.2 6.45-6.832 15.07-11.14 18.383-4.302 3.308-8.61 5.957-8.61.988s12.906-23.34 18.867-30.95l3.652-4.472s-2.98 9.594-2.77 16.05zm0 0" fill="url(#c)"/></g><g clip-path="url(#f)" mask="url(#e)"><path d="m379.809 114.3c3.492-6.59 1.89-14.831-6.95-18.59-5.578-2.39-10.828-.44-14.847 2.392-.032.007-.07.007-.102.02-4.27 3.077-7.09 7.398-6.82 8.288.12.38.34.719.629.988h-.028c1.04.91 3.38 1.372 8.13 2.73 4.19 1.302 9.398 5.36 12.41 7.962 0 .07.007.14.007.21a30.54 30.54 0 0 1 2.242 1.99l.258-.231a17.243 17.243 0 0 0 4.973-5.77" fill="#fff" stroke="#000" stroke-width=".25"/></g><g clip-path="url(#h)" mask="url(#g)"><path d="m285.129 77.96c1.46.688 3.02 1.13 4.633 1.31.398-.11.75-.36.988-.7 0-.058.012-.14.012-.23a10.582 10.582 0 0 0 1.316-3.738c-1.719-15.383-12.797-14.024-16.047-14.313-1.133-.039-2.73 1.031-4.43 2.59m.04.101c-3.07 2.79-6.032 7.18-5.75 7.59.28.41.93.29 1.93.41.077-.02.16-.03.238-.05 2.55.34 5.02 1.148 7.28 2.398a85.788 85.788 0 0 0 9.74 4.64" fill="#fff" stroke="#000" stroke-width=".25"/></g><g clip-path="url(#j)" mask="url(#i)"><path d="m220.54 62.73c-.24.391-.438.801-.599 1.22.07.609.11.402 2.387.609 1.742.203 3.852 2.66 7.742 4.363-.011-.031-.03-.063-.039-.102a17.514 17.514 0 0 0 4.38 1.23c4.69.731 8.62-2.448 10.51-4.35v-.079c.727-.742 1.157-1.27 1.157-1.27 1.55-17.222-10.219-14.68-15.027-13.421l-.801.36h-.07c-3.828 1.769-8.18 8.5-9.711 11.331" fill="#fff" stroke="#000" stroke-width=".25"/></g><g clip-path="url(#l)" mask="url(#k)"><path d="m192.691 60.871c-4.543-2.09-10.242 6.61-11.152 9.95h-.02c-.05.19-.078.39-.109.59-.14 2.71 11.57 6.26 13.461 5.91.09.058.2 0 .3 0a6.07 6.07 0 0 0 -.183-.47c.09.2.184.399.25.59 1.942-.601 5.301-6.05 5.301-6.05 1.992-2.313-2.98-8.352-7.848-10.52zm0 0" fill="#fff" stroke="#000" stroke-width=".25"/></g><g clip-path="url(#n)" mask="url(#m)"><path d="m374.48 179.82c-.511-.41-1.5.758-7.46 2.98-5.2 1.122-9.442 4.84-12.079 9.509-.132.113-.261.222-.37.32a25.686 25.686 0 0 0 -2.571 6.671c-1.79 7.629 12.34 11.07 12.34 11.07.25-3.723 6.3-19.492 7.71-24.46.34-.782.74-1.833.981-2.481h.098c1.152-3.02 1.851-3.2 1.351-3.61zm0 0" fill="#fff" stroke="#000" stroke-width=".25"/></g><g clip-path="url(#p)" mask="url(#o)"><path d="m318.922 185.602a29.9 29.9 0 0 0 4.738 2.32c-10.832-2.262-20.148-12.813-26.469-21.75.868.887 1.758 1.789 2.618 2.77 5.191 6.648 11.68 13.367 19.113 16.66zm10.93-5.043c1.57.671 2.976 1.32 4.59 1.992-8.192-1.89-18.954-6.332-24.704-12.813 1.07.813 2.16 1.524 3.242 2.23 4.63 3.743 11.04 6.723 16.872 8.59zm1.527-8.629c1.25.93 2.5 1.992 3.66 2.98-8.559-5.691-18.539-9.16-27.527-14.21 1.476.472 2.976.991 4.52 1.59 6.269 3.26 13.09 5.98 19.347 9.64zm8.492-5.45c1.16.918 2.219 1.829 3.3 2.739-8.183-4.559-16.241-10.707-25.23-13.457a22.35 22.35 0 0 1 4.387.86c6.16 2.57 11.832 6.48 17.543 9.858zm10.269-48.03c4.7 2.179 9.16 5.62 13.489 8.538.992.992 1.992 1.793 2.832 2.711-6.672-4.16-13.39-10.23-21.063-12.238 1.622.14 3.211.469 4.743.988zm0 0"/></g><g clip-path="url(#r)" mask="url(#q)"><path d="m228.71 137.621c1.419.168 2.849.25 4.278.219-8.777 2.16-18.457-2.461-24.957-8.531 1.117.652 2.309 1.41 3.559 1.992 5.039 3.699 11.14 6.449 17.12 6.32zm6.778-9.711c1.203.762 2.371 1.63 3.473 2.469-7.883-3.527-15.7-8.258-24.04-10.367a20.59 20.59 0 0 1 4.317.539c5.512 1.82 10.89 4.8 16.25 7.36zm-9.429 4.57c1.09.34 2.261.7 3.382.93-6.953.442-13.91-4.308-18.972-8.762l2.883 1.532c3.75 2.941 8.16 5.52 12.707 6.3zm2.671-14.73c4.97 2.379 9.649 5.219 14.551 7.71 1.11.75 2.11 1.571 3.11 2.29-7.153-3.27-13.801-7.648-21.082-10.738 1.16.148 2.3.398 3.421.738zm47.41-32.8c1.02.402 2.008.85 2.981 1.359-6.152-.989-12.71-2.848-17.96-6.528l2.98.989a44.774 44.774 0 0 0 12 4.18zm0 0"/></g><g clip-path="url(#t)" mask="url(#s)"><path d="m165.64 140.871 3.59 1.238a37.008 37.008 0 0 1 -20.23-8.05l3.29 1.46a36.95 36.95 0 0 0 13.35 5.352zm5.872-10.101c.988.77 1.988 1.628 2.886 2.359-6.109-2.98-12.136-7.66-18.867-8.617 1.27-.114 2.547-.051 3.797.16 4.211 1.457 8.223 3.898 12.184 6.098zm-6.071 4.91 2.57 1.199c-5.632-.488-11.32-3.707-15.89-7.05.957.3 1.91.651 2.828 1.062a34.928 34.928 0 0 0 10.492 4.789zm57.887-58.602c.934.621 1.883 1.223 2.723 1.813-5.77-1.993-12.32-4.891-16.38-9.72l2.24 1.4a37.356 37.356 0 0 0 11.417 6.507zm0 0"/></g><g clip-path="url(#v)" mask="url(#u)"><path d="m184.75 82.64c.77.15 1.54.348 2.281.598-4.23.512-9.402-.097-11.52-3.968.45.37.93.699 1.438.992 1.98 1.718 4.93 2.379 7.801 2.379zm0 0"/></g><g clip-path="url(#x)" mask="url(#w)"><path d="m134.71 214.828s.15-2.707.481-7.45c.18-2.366.399-5.237.637-8.538.242-3.3.55-7.02.922-11.078.379-4.051.79-8.442 1.238-13.09.453-4.652.992-9.543 1.602-14.594a395.47 395.47 0 0 1 2.172-15.558c.218-1.32.449-2.649.668-3.97.218-1.32.53-2.66.78-3.972.259-1.308.661-2.629.99-4.047.34-1.332.82-2.61 1.429-3.832 2.25-4.98 5.59-9.39 9.762-12.91 1.988-1.738 3.968-3.328 5.96-4.969a29.772 29.772 0 0 0 5.137-5.191l1.16-1.5 1.262-1.43c.86-.898 1.711-1.777 2.59-2.578 1.75-1.66 3.531-3.172 5.238-4.652 3.473-2.918 6.793-5.59 9.82-8.11 3.032-2.52 5.813-4.82 8.172-6.949 2.348-2.14 4.168-4.34 6.032-5.75.867-.77 1.707-1.36 2.41-1.91a34.44 34.44 0 0 1 1.828-1.328l1.54-1.082-1.481 1.172c-.989.75-2.36 1.91-4.059 3.449-1.7 1.539-3.488 3.719-5.79 5.96a195.55 195.55 0 0 1 -7.948 7.298c-2.98 2.582-6.242 5.36-9.633 8.34-1.668 1.511-3.399 3.062-5.07 4.73-.43.41-.84.82-1.25 1.262-.41.437-.84.847-1.23 1.289l-1.24 1.37-1.14 1.47a31.127 31.127 0 0 1 -5.39 5.55c-1.989 1.66-3.97 3.25-5.84 4.97a35.31 35.31 0 0 0 -9.18 12.28c-.539 1.22-.988 2.461-1.418 3.72-.43 1.26-.691 2.519-.992 3.8-.309 1.281-.55 2.61-.809 3.91l-.691 3.969c-.879 5.23-1.61 10.43-2.27 15.473-1.32 10.07-2.5 19.488-3.418 27.57zm42.392-7.949a3.3 3.3 0 0 0 1.07-.527c.398-.282.777-.582 1.129-.903.469-.469.898-.969 1.308-1.488a26.743 26.743 0 0 0 2.871-4.563 65.724 65.724 0 0 0 2.77-6.5c.898-2.43 1.75-5.128 2.578-8l1.192-4.437c.37-1.531.742-3.09 1.109-4.68.723-3.191 1.371-6.511 2.082-9.883.71-3.378 1.469-6.82 2.309-10.226.84-3.41 1.808-6.793 2.8-10.102.989-3.308 2.102-6.53 3.239-9.62a105.377 105.377 0 0 1 7.53-16.259 38.606 38.606 0 0 1 7.77-9.82 12.553 12.553 0 0 1 2.891-1.883c.27-.136.55-.25.828-.34l.293-.109-.281.133c-.27.117-.54.258-.79.406-.98.594-1.89 1.293-2.698 2.094a27.058 27.058 0 0 0 -3.454 4.098 63.99 63.99 0 0 0 -3.628 5.96c-2.711 5.258-5.04 10.7-6.95 16.301-1.082 3.07-2.082 6.29-3.05 9.57a238.313 238.313 0 0 0 -2.72 10.028c-.84 3.39-1.64 6.77-2.359 10.133-.34 1.687-.71 3.34-1.101 4.968-.39 1.66-.719 3.301-1.13 4.899-.42 1.601-.831 3.16-1.23 4.691-.402 1.532-.91 2.98-1.351 4.45a79.989 79.989 0 0 1 -2.918 7.949c-.473 1.23-1.063 2.34-1.563 3.441-.5 1.09-1.097 2.05-1.609 2.98a26.985 26.985 0 0 1 -3.2 4.45 9.86 9.86 0 0 1 -2.66 2.23c-.327.239-.69.43-1.077.559zm174.527-35.419-2.98 5.18c-1.989 3.282-5.958 7.27-9.368 12.82-1.742 2.77-2.601 5.25-4.601 8.419-2 3.172-3.97 7.742-6.301 11.101-1.168 1.68-2.3 3.43-3.55 5.13-1.24 1.699-3.567 4.199-4.849 5.96-2.62 3.39-4.57 6.418-7.242 9.86-2.668 3.449-6.289 7.879-8.937 11.25a260.914 260.914 0 0 0 -7.45 9.93c-1.19 1.66-3.101 3.3-4.132 4.968-1.028 1.672-3.528 5.05-4.39 6.684-1.7 3.316-3.97 6.808-5.048 9.867a28.633 28.633 0 0 0 -1.492 7.812 8.523 8.523 0 0 0 1.89 6.27 11.744 11.744 0 0 0 3.27 2.89c.442.278.91.508 1.403.708-.5-.168-.98-.38-1.442-.637a11.864 11.864 0 0 1 -3.46-2.781c-.68-.832-1.231-1.75-1.65-2.743-.1-.277-.23-.527-.312-.828-.078-.308-.129-.62-.199-.93-.07-.32 0-.64-.07-.992-.02-.328-.02-.66 0-.988.011-2.73.43-5.45 1.25-8.058 1.05-3.122 3.23-6.68 4.87-10.082.84-1.692 3.29-5.141 4.333-6.848 1.039-1.723 2.976-3.402 4.11-5.07 2.347-3.372 4.827-6.602 7.398-10.032 2.57-3.441 6.21-7.879 8.87-11.32 2.66-3.45 4.669-6.441 7.321-9.8 1.277-1.712 3.61-4.18 4.848-5.86 1.242-1.68 2.39-3.418 3.582-5.09 2.34-3.34 4.34-7.86 6.46-10.93 2.118-3.07 2.977-5.55 4.798-8.27a154.504 154.504 0 0 1 13.07-17.59zm0 0"/></g><g clip-path="url(#z)" mask="url(#y)"><path d="m344.52 259.45s-1.72 4.831 5.44 7.152c0-.012-4.651-3.602-5.44-7.153zm0 0"/></g><g clip-path="url(#B)" mask="url(#A)"><path d="m347.86 253.898c.081.641 6.18.993 6.18.993s-4.4-4.032-6.18-.993zm0 0"/></g><g clip-path="url(#D)" mask="url(#C)"><path d="m205.79 70.871a23.035 23.035 0 0 0 -4.15-4.871 188.12 188.12 0 0 1 -16.39 18.379c-9.93 9.441-24.66 24.832-35.43 35.09-5.492 5.242-9.43 12.422-12.25 36.75-2.82 24.34-12.742 63.082-2.86 58.61 0 0 5.65-66.548 10.36-81.95 4.711-15.399 16.961-19.367 22.13-26.82 5.179-7.45 23.538-20.36 30.6-28.309a56.54 56.54 0 0 1 8.25-7.078zm0 0"/></g><g clip-path="url(#F)" mask="url(#E)"><path d="m251.02 61.86c-.098 5.511-1.36 11.921-5.649 16.89-9.422 10.93-33.582 29.469-43.941 37.91-10.36 8.442-13.692 34.602-18.371 56.95-4.68 22.35-16.32 37.75-5.957 33.28 0 0 8.937-.992 16.476-38.242 7.543-37.25 18.871-58.109 27.313-61.09 0 0 14.898-7.867 22.23-14.808 8.41-11.262 11.07-17.89 7.899-30.89zm0 0"/></g><g clip-path="url(#H)" mask="url(#G)"><path d="m356.102 162.352c-10.262 13.57-18.961 22.847-26.153 37.578-7.187 14.73-37.59 42.879-44.87 54.46-7.278 11.579-13.579 37.75-6.63 39.079 6.95 1.332 22.192-8.61 25.172-25.168 2.98-16.563 5.617-30.13 11.918-37.75 6.3-7.621 17.883-18.871 27.473-38.403 8.488-17.257 12.316-21.078 15.828-21.726-.25 0-.38 0-.442-.133-2.187.23-4.347.68-6.457 1.332 11.297-18.031 15.5-25.012 21.918-35.89-6.218 9.488-14.82 22.73-17.757 26.62zm-51.563 78.867c-.02.172-.07.351-.14.511-.047.18 0 .122 0 .18 0 .059-.09.34-.137.52-.051.18-.07.27-.114.398l-.148.602-.18.73c-.011.121-.039.238-.082.36 0 .12-.117.48-.168.73-.05.25-.058.238-.082.36-.066.3-.136.62-.207.93v.19l-.242 1.192v.207c-.059.32-.117.652-.168.992l-.062.348-.149.992v.289c-.058.41-.11.82-.16 1.23a.569.569 0 0 1 0 .2l-.09.992v2.707c.2 6.45-6.832 15.07-11.14 18.383-4.301 3.308-8.61 5.957-8.61.988s12.91-23.34 18.871-30.95l3.649-4.472s-.16.531-.41 1.39zm2.25-4.16a43.124 43.124 0 0 1 5.02-7.559zm0 0"/></g><g clip-path="url(#J)" mask="url(#I)"><path d="m247 215.648c-16.781-4.718-3.71-26.148.988-40.058 4.711-13.91 8.602-30.13 8.602-30.13s2.59-1.382 6.351-3.73c.5-2.12.778-3.39.778-3.39a47.854 47.854 0 0 0 23.07-16.89c.41-.56.82-1.15 1.23-1.77.09-.14.192-.27.282-.418.41-.614.808-1.242 1.21-1.903 0-.078.098-.16.137-.238.383-.61.743-1.242 1.114-1.89.09-.141.168-.282.25-.43.398-.711.789-1.43 1.18-2.18.058-.121.117-.242.187-.36.36-.702.723-1.402 1.062-2.12l.16-.332c.38-.79.75-1.61 1.118-2.418l.18-.422c.363-.797.69-1.617.992-2.438.46-1.23 0-.07 0-.11.347-.862.687-1.741.988-2.612.031-.149.082-.297.16-.43.66-1.77 1.25-3.57 1.762-5.379.027-.129.058-.262.11-.39.26-.91.51-1.829.73-2.739v-.09c.218-.89.418-1.781.597-2.672l.063-.308c.18-.903.328-1.813.469-2.7v-.25c.12-.863.23-1.73.308-2.581v-.168c.082-.883.133-1.75.16-2.614v-2.847a58.252 58.252 0 0 1 -10.207 25.918c-11.77 16.39-23.07 23.84-23.07 23.84l-17 9.761s.867 3.149-4.313 18.55c-5.187 15.4-29.117 46.36-11.238 66.22 10.668 11.832 29.89-12.23 43.11-36.282-11.32 14.5-23.72 31.204-31.52 29zm0 0"/></g><g clip-path="url(#L)" mask="url(#K)"><path d="m242.781 95.129s15.77-7.617 25.028 3.652c0 0 0-4.43-5.957-6.25-5.961-1.82-13.192-.633-13.192-.633zm0 0"/></g><g clip-path="url(#O)" mask="url(#M)"><path d="m352 171.621c13.91-22.18 17.059-27.64 26.82-44.2 3.758-6.37 5.828-8.39 6.13-12.91.921-13.91-10.188-23.39-21.68-22.523-10.168.774-24.168 19.871-36.258 32.953-5.532 5.957-8.692 11.918-23.34 26.489-4.524 4.48-12.91 16.73-17.223 21.191-11.828 12.18-27.219 38.848-37.75 42.328l40.852 45.582s1.847-2.633 4.62-6.5a251.617 251.617 0 0 1 5.067-7.02c4.492-6.16 9.692-13.14 13.66-18.023a299.63 299.63 0 0 0 24.582-36.258 215.686 215.686 0 0 1 14.52-21.109zm0 0" fill="url(#N)"/></g></svg>