<svg viewBox="0 0 410 510" xmlns="http://www.w3.org/2000/svg" xmlns:xlink="http://www.w3.org/1999/xlink"><filter id="a" height="100%" width="100%" x="0%" y="0%"><feColorMatrix in="SourceGraphic" values="0 0 0 0 1 0 0 0 0 1 0 0 0 0 1 0 0 0 1 0"/></filter><mask id="b"><g filter="url(#a)"><path d="m0 0h410v510h-410z" fill-opacity=".851"/></g></mask><linearGradient id="c" gradientUnits="userSpaceOnUse" x1="205" x2="205" y1="506.126" y2="3.914"><stop offset="0" stop-color="#fff" stop-opacity="0"/><stop offset=".427" stop-color="#d0b5b3"/><stop offset="1" stop-color="#d0b5b3"/></linearGradient><clipPath id="d"><path d="m0 0h410v510h-410z"/></clipPath><mask id="e"><g filter="url(#a)"><path d="m0 0h410v510h-410z" fill-opacity=".502"/></g></mask><clipPath id="f"><path d="m0 0h410v510h-410z"/></clipPath><mask id="g"><g filter="url(#a)"><path d="m0 0h410v510h-410z" fill-opacity=".502"/></g></mask><clipPath id="h"><path d="m0 0h410v510h-410z"/></clipPath><mask id="i"><g filter="url(#a)"><path d="m0 0h410v510h-410z" fill-opacity=".502"/></g></mask><clipPath id="j"><path d="m0 0h410v510h-410z"/></clipPath><mask id="k"><g filter="url(#a)"><path d="m0 0h410v510h-410z" fill-opacity=".502"/></g></mask><clipPath id="l"><path d="m0 0h410v510h-410z"/></clipPath><mask id="m"><g filter="url(#a)"><path d="m0 0h410v510h-410z" fill-opacity=".502"/></g></mask><clipPath id="n"><path d="m0 0h410v510h-410z"/></clipPath><mask id="o"><g filter="url(#a)"><path d="m0 0h410v510h-410z" fill-opacity=".302"/></g></mask><clipPath id="p"><path d="m0 0h410v510h-410z"/></clipPath><mask id="q"><g filter="url(#a)"><path d="m0 0h410v510h-410z" fill-opacity=".302"/></g></mask><clipPath id="r"><path d="m0 0h410v510h-410z"/></clipPath><mask id="s"><g filter="url(#a)"><path d="m0 0h410v510h-410z" fill-opacity=".302"/></g></mask><clipPath id="t"><path d="m0 0h410v510h-410z"/></clipPath><mask id="u"><g filter="url(#a)"><path d="m0 0h410v510h-410z" fill-opacity=".302"/></g></mask><clipPath id="v"><path d="m0 0h410v510h-410z"/></clipPath><mask id="w"><g filter="url(#a)"><path d="m0 0h410v510h-410z" fill-opacity=".302"/></g></mask><clipPath id="x"><path d="m0 0h410v510h-410z"/></clipPath><mask id="y"><g filter="url(#a)"><path d="m0 0h410v510h-410z" fill-opacity=".102"/></g></mask><clipPath id="z"><path d="m0 0h410v510h-410z"/></clipPath><mask id="A"><g filter="url(#a)"><path d="m0 0h410v510h-410z" fill-opacity=".102"/></g></mask><clipPath id="B"><path d="m0 0h410v510h-410z"/></clipPath><mask id="C"><g filter="url(#a)"><path d="m0 0h410v510h-410z" fill-opacity=".102"/></g></mask><clipPath id="D"><path d="m0 0h410v510h-410z"/></clipPath><mask id="E"><g filter="url(#a)"><path d="m0 0h410v510h-410z" fill-opacity=".102"/></g></mask><clipPath id="F"><path d="m0 0h410v510h-410z"/></clipPath><mask id="G"><g filter="url(#a)"><path d="m0 0h410v510h-410z" fill-opacity=".302"/></g></mask><clipPath id="H"><path d="m0 0h410v510h-410z"/></clipPath><mask id="I"><g filter="url(#a)"><path d="m0 0h410v510h-410z" fill-opacity=".302"/></g></mask><clipPath id="J"><path d="m0 0h410v510h-410z"/></clipPath><mask id="K"><g filter="url(#a)"><path d="m0 0h410v510h-410z" fill-opacity=".102"/></g></mask><clipPath id="L"><path d="m0 0h410v510h-410z"/></clipPath><mask id="M"><g filter="url(#a)"><path d="m0 0h410v510h-410z" fill-opacity=".502"/></g></mask><linearGradient id="N" gradientTransform="matrix(3.1362 0 0 -3.1362 5554.397 6889.314)" gradientUnits="userSpaceOnUse" x1="-1724.982" x2="-1704.567" y1="2131.68" y2="2195.032"><stop offset="0" stop-color="#00afd1" stop-opacity="0"/><stop offset=".64" stop-color="#0074d1"/></linearGradient><clipPath id="O"><path d="m0 0h410v510h-410z"/></clipPath><g clip-path="url(#d)" mask="url(#b)"><path d="m349.621 223.39c-3.762-13.718-2.031-25.41-.512-39.331 1.32-12.2-6.609-19.918-19.308-14.84-12.09 4.883-20.332 21.652-23.68 33.441-1.832 6.5-2.95 13.309-4.27 19.918-1.222 6 1.32 13.113-.203 18.703-.507 1.93-12.597 23.168-13.308 22.969 0-51.73 31.3-97.77 44.012-146.852 4.367-16.968 8.636-54.777-21.141-48.378-24.09 5.18-26.121 43.289-37.5 60.16-6 8.84-12.09 16.058-16.262 26.12-5.59 13.52-10.98 27.028-16.36 40.552-1.32 3.347-13.718 29.27-17.577 22.359-5.184-9.25 3.66-24.191 6.398-33.133 3.559-11.887 4.469-25.098 9.04-36.687 4.37-11.18 12.198-20.942 17.89-31.403 6.2-11.379 14.23-21.75 20.02-33.328 3.96-7.832 3.46-17.18-4.47-23.27-3.66-4.468-20.331-6.3-24.699-2.538-4.07 3.558-29.293 30.84-39.421 41.828l-4.211 4.558-.438-.379 11.59-33.3c18.738-54 3.05-66.637-13.922-66.637-8.5 0-21.008 14.95-25.2 32.418-1.558 6.469-12.39 33.129-16.929 44.039-1.02-3.719-14.07-11.848-27.789 14.91-6.34 12.39-11.89 23.95-18.293 36.25-4.976 9.45-22.36 60.152-25.547 73.871-11.59 50.399-26.23 101.52-25.82 153.66.219 12 1.11 23.97 2.64 35.88 1.52 12.91 7.72 28.66 6.098 41.359-1.418 11.691-7.62 22.261-10.77 33.543-1.73 6.097-.1 33.84-4.667 36.277h152.136c7.114 0 6.301-2.438 8.743-8.64 2.847-7.419 5.28-14.938 8.23-22.36 10.469-26.828 32.52-41.36 49.598-63.11 8.941-11.378 17.281-23.269 25.511-35.058 8.442-12.09 20.22-25.102 25.41-38.922 4.57-12.2 4.27-25.71 9.15-37.809 5.491-13.62 10.57-27.242 17.581-40.14 7.277-13.668 1.988-23.059-1.75-36.7zm0 0" fill="url(#c)"/></g><g clip-path="url(#f)" mask="url(#e)"><path d="m299.2 86.84c1.32.648 3.84.41 9.152.41 4.718.102 11.218 2.68 15 4.41.007.04.027.078.039.13 1.73.71 2.847 1.32 2.847 1.32l.203-.301a18.061 18.061 0 0 0 3.649-7.07h.11c1.929-7.52-1.829-15.239-11.99-16.458-6.331-.8-11.26 2.559-14.71 6.469-.078.031-.148.07-.23.102-3.66 4.27-5.489 9.347-4.98 10.16.23.34.55.617.91.808" fill="#fff" stroke="#000" stroke-width=".25"/></g><g clip-path="url(#h)" mask="url(#g)"><path d="m274.8 67.93c-5.448-13.828-17.902-10.371-21.71-10-1.309.218-2.918 1.492-4.531 3.27l.101.062c-.039.008-.082.02-.12.027-2.892 3.18-5.321 7.852-4.919 8.133.399.277 1.098.098 2.309 0 .09-.043.191-.07.28-.102 3.009-.199 6.028.051 8.97.758 4.05.992 8.14 1.774 12.27 2.344 1.859.34 3.75.437 5.628.27a2.06 2.06 0 0 0 1.024-.833c-.012-.05-.024-.097-.032-.16.532-1.18.79-2.469.73-3.77zm0 0" fill="#fff" stroke="#000" stroke-width=".25"/></g><g clip-path="url(#j)" mask="url(#i)"><path d="m185.871 27.191c-.16.528-.25 1.07-.281 1.63.289.648.262.429 3.172-.212 2.226-.46 11.636 2.891 17.078 3.352a3.681 3.681 0 0 0 -.512-.5c1.23.168 2.383.258 3.172.129 6.059-.969 6.8-5.668 8.59-10.352-.012-.039-.02-.078-.04-.117.598-1.121.938-1.89.938-1.89-4.378-20.404-17.988-12.961-23.448-9.661l-.918.75c-.012 0-.02.007-.02.007-4.09 3.5-6.992 12.922-7.851 16.774" fill="#fff" stroke="#000" stroke-width=".25"/></g><g clip-path="url(#l)" mask="url(#k)"><path d="m349.398 177.309c.102-3.348-.296-3.758-.91-3.957-.61-.204 0 .91-5.18 5.386-4.828 3.063-7.73 8.32-8.75 13.832-.097.168-.199.34-.296.5a25.943 25.943 0 0 0 -.203 7.418c.91 8.032 13.011 8.032 13.011 8.032.508-1.02 1.73-23.07 2.34-28.758.031-.801-.012-1.614-.101-2.403.02-.02.062-.03.09-.05zm0 0" fill="#fff" stroke="#000" stroke-width=".25"/></g><g clip-path="url(#n)" mask="url(#m)"><path d="m154.5 88.54 3.852-6.599c-3.051-1.132-7.704-2.312-11.512-1.52-2.262 2.259-4.399 7.34-4.07 7.63.34.289.8.12 1.68.11l.19-.06c2.2-.011 4.391.329 6.481 1.02l2.598.758.77-1.328" fill="#fff" stroke="#000" stroke-width=".25"/></g><g clip-path="url(#p)" mask="url(#o)"><path d="m287.3 170.2a32.96 32.96 0 0 0 5.278 1.831c-11.789-1.12-22.656-10.87-30.18-19.312a67.838 67.838 0 0 1 3.051 2.543c6.082 6.199 13.621 12.398 21.852 14.937zm11.29-6.4 5.082 1.52c-8.942-1.02-20.832-4.37-27.543-10.37 1.223.71 2.441 1.32 3.66 1.929 5.281 3.36 12.39 5.7 18.8 6.922zm.91-8.948a57.97 57.97 0 0 1 4.172 2.636c-9.652-4.879-20.633-7.316-30.692-11.476 1.63.297 3.25.707 4.98 1.117 7.009 2.64 14.528 4.68 21.54 7.723zm8.621-6.5c1.32.808 2.54 1.628 3.758 2.437-9.149-3.758-18.29-9.148-28.149-10.98 1.598-.02 3.2.12 4.782.41 6.816 1.93 13.226 5.281 19.61 8.133zm-3.051-49.902c5.282 1.519 10.47 4.37 15.45 6.71 1.218.809 2.34 1.52 3.351 2.34-7.621-3.25-15.55-8.441-23.98-9.352 1.73-.109 3.468 0 5.18.301zm0 0"/></g><g clip-path="url(#r)" mask="url(#q)"><path d="m212 145.71c1.54-.14 3.07-.382 4.57-.71-8.84 4.07-20.02 1.52-28.148-3.148 1.316.41 2.738.91 4.168 1.218 6.09 2.64 13.11 4.102 19.41 2.64zm5.18-11.179a49.897 49.897 0 0 1 4.172 1.73c-9.043-1.831-18.293-4.882-27.543-5.183a24.436 24.436 0 0 1 4.68-.406c6.19.61 12.491 2.437 18.69 3.86zm-9.04 6.598c1.22.101 2.54.2 3.758.2-7.218 1.933-15.546-1.317-21.847-4.68l3.347.91c4.57 2.152 9.762 3.78 14.743 3.57zm-.21-15.301c5.691 1.32 11.28 3.152 16.968 4.57 1.32.512 2.543 1.122 3.762 1.633-8.23-1.73-16.16-4.672-24.488-6.203a24.137 24.137 0 0 1 3.758 0zm37.02-38.758c1.12.2 2.34.41 3.46.711-6.71.297-14.02-.101-20.332-2.64l3.352.3c4.41 1.149 8.96 1.7 13.52 1.63zm12.19-3.93 2.739 1.52c-6.2-1.629-12.09-4.37-18.188-6.2 1.02 0 2.028.099 3.047.2 4.051 1.442 8.211 3.121 12.403 4.48zm0 0"/></g><g clip-path="url(#t)" mask="url(#s)"><path d="m170.602 131.48h3.558a31.637 31.637 0 0 1 -20.332-1.02l3.352.302a31.41 31.41 0 0 0 13.422.718zm4.848-13.351c1.12.41 2.241.91 3.25 1.32-6.302-.808-13.009-3.347-19.31-2.027a13.439 13.439 0 0 1 3.462-1.121c4.168-.051 8.43.96 12.597 1.828zm-3.419 6.34 2.64.3c-5.183 1.422-11.183.2-16.16-1.519.919-.02 1.829.02 2.739.102a30.195 30.195 0 0 0 10.781 1.117zm26.929-81.891c1.118.41 2.24.813 3.25 1.223-6.5-.711-14.019-2.242-19.312-6.2.91.297 1.73.61 2.641.91 4.211 2.118 8.75 3.5 13.422 4.067zm0 0"/></g><g clip-path="url(#v)" mask="url(#u)"><path d="m120.102 161.59c.726 0 1.449.101 2.187.101a23.546 23.546 0 0 1 -12.07 1.02c.73-.2 1.453-.3 2.18-.512 2.581.313 5.203.102 7.703-.61zm1.5-5.79c.828.188 1.648.43 2.449.712-4.531.199-8.98-.41-13.52 0a9.773 9.773 0 0 1 2.36-.91c2.988-.114 5.89.199 8.71.199zm1.546-6.71c.801.14 1.59.34 2.364.61-4.352.198-8.621.812-12.98.51.738-.28 1.5-.519 2.277-.71a75.18 75.18 0 0 0 8.34-.41zm29.84-55.59a15.82 15.82 0 0 1 2.274.102c-3.903 1.418-8.89 1.93-11.621-1.524.5.281 1.007.512 1.539.711 2.199 1.32 5.09 1.32 7.808.711zm0 0"/></g><g clip-path="url(#x)" mask="url(#w)"><path d="m158.898 81.621c-.707.809-7.707 21.598-10.34 27.188-.706 1.02-1.796 5.21-2.206 6.43-.602 2.46-11.012 27.87-12.614 37.19-1.597 9.321-5.27 16.63-6.777 24.051-.402 1.829-.961 3.45-1.352 5.168-.199.813-1.109 4.551-1.62 5.16-.509.614-7.278 32.192-7.278 32.192s9.078-34.02 9.48-34.73a61.801 61.801 0 0 0 1.778-7.11c1.61-7.332 5.851-16.922 7.453-26.172 1.598-9.25 5.848-17.527 8.898-26.68 1.43-3 2.59-6.117 3.48-9.32.302-1.218 11.778-34.18 11.098-33.367zm45.142 22.57s-9.411 9.95-10.93 11.899c0 0-5.282 8.5-6.598 11.601-1.313 3.098-4.91 11.688-4.91 11.688l-3.383 9.32-3.899 13.89-3.05 14.391-2.032 13.211-2.617 17.457-1.61 9.313-9.32 6.77 10.16-6.262 6.098-38.617 5.762-24.442 5.59-15.7 5.93-14.3 5.378-7.52zm0 0"/></g><g clip-path="url(#z)" mask="url(#y)"><path d="m137.441 127.93c.41-8.23 21.688-47.602 21.688-47.602s-12.598 34.8-12.54 34.902c-5.898 11.622-21.89 66.86-25.55 85.051-.91 2.34-1.418 3.66-1.418 3.66 1.11-4.78 17.418-67.882 17.82-76.011zm0 0"/></g><g clip-path="url(#B)" mask="url(#A)"><path d="m217.672 230.871c-1.934-3.46-.512-13.723-.512-16.672 0-3.46 19.309-66.16 19.309-69.719 0-3.558 22.36-36.992 22.36-40.039 0-2.441 13.523-19.113 20.12-26.632a22.477 22.477 0 0 1 -2.129 6.101c-5.789 11.59-13.82 22.05-20.02 33.328-5.69 10.473-13.519 20.223-17.89 31.403-4.57 11.59-5.39 24.699-9.05 36.687-2.641 8.942-11.481 23.883-6.4 33.133 2.849 5.18 10.571-8.23 14.84-16.57-.3 2.238-2.64 9.757-4.171 11.89-7.09 9.61-12.988 17.739-16.457 17.09zm0 0"/></g><g clip-path="url(#D)" mask="url(#C)"><path d="m288.32 259.84c-.101.691-.23 1.36-.41 2.031 0 0-1.52-12.09-2.738-17.18-1.223-5.082 15.238-52.34 25-72.972 9.758-20.63 22.656-63.617 22.656-68.7 0-3.05 1.121-10.468 2.031-15.847 1.422 10.367-.609 22.656-2.64 30.488-12.29 47.461-42.168 92.281-43.899 142.18zm0 0"/></g><g clip-path="url(#F)" mask="url(#E)"><path d="m295.762 307.102c-.41.41-11.282-10.98-11.282-14.84 0-3.864 3.56-22.262 3.56-27.742.05-.891.151-1.77.3-2.641v2.441c.808.2 12.808-21.039 13.308-22.968 1.524-5.59-1.02-12.704.204-18.704 1.32-6.609 2.437-13.418 4.27-19.918 2.64-9.351 8.538-22.05 16.968-29.27l.91-.3s-17.18 27.34-18.39 42.578c-1.22 15.242-2.34 23.07.41 23.07 2.742 0 7.832 3.153 7.832 3.153s-8.942.41-10.16 2.738c-1.223 2.34-7.833 14.02-7.833 15.653 0 1.628-6.609 10.57-6.199 15.238.16 4.57 1.809 24.09 6.102 31.512zm0 0"/></g><g clip-path="url(#H)" mask="url(#G)"><path d="m354.578 249.172s-6.2-.512-8.84-3.152c-.02 0 1 5.18 8.84 3.152zm0 0"/></g><g clip-path="url(#J)" mask="url(#I)"><path d="m352.04 236.672s-6.2-1.024-6.2 2.637c.41.511 6.2-2.637 6.2-2.637zm0 0"/></g><g clip-path="url(#L)" mask="url(#K)"><path d="m221.648 17.09a173.963 173.963 0 0 1 -10.59 51.832c-10.667 27.95-29.167 56.539-35.417 75.527-6.25 18.992-9.301 51.512-10.82 60.14-.852 4.99-2.04 9.911-3.56 14.74 0 0 2.22-.81 4.25-5.36l1.09-6.32 2.618-17.458 2.031-13.21 3.05-14.391 3.9-13.89 3.378-9.321s3.602-8.59 4.91-11.688c1.313-3.101 6.621-11.601 6.621-11.601.891-1.14 4.47-5 7.301-8.02 1.168-1.699 2.309-3.289 3.41-4.84l11.38-32.718c9.331-26.903 10.109-43.532 6.448-53.422zm0 0"/></g><g clip-path="url(#O)" mask="url(#M)"><path d="m201.238 3.871c-8.5 0-21.008 14.95-25.199 32.418-1.527 6.39-12.117 32.52-16.77 43.633-.109.457-.16.707-.16.707s-16.84 44.512-21.07 57.223c-4.23 12.699-17.937 65.636-17.937 65.636l45.187 11.672 1.3-7.512 2.622-17.457 2.027-13.21 3.051-14.391 3.902-13.89 3.38-9.321s3.6-8.59 4.91-11.688c1.308-3.101 6.62-11.601 6.62-11.601 1.16-1.461 6.739-7.43 9.45-10.32.93-1.02 1.488-1.59 1.488-1.59l-.437-.38 11.59-33.3c18.738-54 3.019-66.629-13.954-66.629zm0 0" fill="url(#N)"/></g></svg>