<svg enable-background="new 0 0 410 510" viewBox="0 0 410 510" xmlns="http://www.w3.org/2000/svg" xmlns:xlink="http://www.w3.org/1999/xlink"><linearGradient id="a" gradientTransform="matrix(-1 0 0 1 -36.9256 0)" gradientUnits="userSpaceOnUse" x1="-241.9256" x2="-241.9256" y1="494.6147" y2="15.3853"><stop offset="0" stop-color="#fff" stop-opacity="0"/><stop offset=".4274" stop-color="#d0b5b3"/><stop offset="1" stop-color="#d0b5b3"/></linearGradient><linearGradient id="b" gradientTransform="matrix(-3.1362 0 0 -3.1362 -5589.3037 6890.8008)" gradientUnits="userSpaceOnUse" x1="-1803.3943" x2="-1822.5305" y1="2192.7087" y2="2130.9978"><stop offset=".36" stop-color="#0074d1"/><stop offset="1" stop-color="#00afd1" stop-opacity="0"/></linearGradient><path d="m63.46 291.44c-3-26.01-15.33-61.35-9.33-74.35s34.01-36.01 34.01-36.01-3.86-13.86-8.13-30.3c-2.78-10.66-3.91-30.92-5.87-36.01-6-15.67-8.67-30.01-10.77-43.32-2-12.6-4.82-26.34-6.23-33.37-2.68-13.32 11.66-23.32 21.66-22.66s13.33 4.63 20.01 18.63c3.71 7.8 7.63 21.41 11.3 33.88 2.73 8.93 6.08 17.66 10 26.14 2.39 5.09 5.47 17.57 10.83 33.57 6.57 19.64 13.56 41.56 16.5 51.12 0 0 0-22.68.67-41.35.16-4.47 2.2-19.13-.67-22.01-2-2-11.14-12.45-12.66-16-2-4.66-10.72-24.13 6-30.67 15.33-6 26.67-1 34.01 1.66 3.32.24 8.66 1.67 14 3.67 0 0 0-7.33 19.33-.67s26.68 10 26.68 10 20.01-11.33 31.34-4 26.01 9.34 34.01 20.68c13.33 18.88 8.67 10.67 10.67 76.69v22.01c11.56 49.27 6.4 70.4 6 121.36-.1 11.72-5.25 35.72-6.67 47.34-1.52 12.61 24.08 46.52 25.7 58.93 1.42 11.42 7.61 21.76 10.76 32.76 1.72 6 9.55 25.65 10.88 35.46h-166.79c-7.1 0-6.29-2.38-8.72-8.44-2.85-7.25-5.28-14.6-8.22-21.86-10.44-26.23-32.45-40.43-49.53-61.69-8.93-11.13-17.25-22.76-25.48-34.28-8.42-11.82-20.19-24.54-25.38-38.01-4.57-11.92-4.26-25.14-9.13-36.95z" fill="url(#a)" opacity=".85"/><path d="m63.3 33.21c.66 2.57 1.89 4.97 3.6 7l.2.3s1.1-.6 2.8-1.3c.02-.06.04-.11.06-.17 3.72-1.7 10.11-4.23 14.75-4.33 5.2 0 7.7.2 9-.4.36-.19.67-.46.9-.8.5-.8-1.3-5.8-4.9-10-.05-.02-.11-.05-.16-.07-3.4-3.87-8.28-7.22-14.54-6.43-10 1.2-13.7 8.8-11.8 16.2" fill="#fff" opacity=".5" stroke="#000" stroke-width=".25"/><path d="m160.32 66.87c-1.25-.36-2.55-.49-3.84-.4-3.07.47-13.27 1.24-16.68 6.81.06.51.38.95.84 1.18 0 .02-.01.03-.01.05.27.1.57.15.86.13 1.51-.25 3.01-.58 4.48-1m0 .02c2.78-.71 6.34-1.71 9.64-2.72 2.37-.72 4.78-1.28 7.23-1.68.04 0 .08 0 .12-.01.63-.06 1.25-.18 1.85-.36.37-.21-1.94-1.38-4.49-2" fill="#fff" opacity=".5" stroke="#000" stroke-width=".25"/><g opacity=".3"><path d="m91.58 125.96c-1.84-.02-3.67-.21-5.47-.56 11 3.89 24.74-.31 34.95-4.72-1.25.31-2.49.61-3.78 1-7.98 3.01-17.29 5.39-25.7 4.28z"/><path d="m99 134.33c-1.74.34-3.38.69-5.12 1 8.86-.17 20.83-2.36 27.95-7.61-1.26.58-2.51 1.06-3.76 1.55-5.5 2.8-12.68 4.46-19.07 5.06z"/><path d="m90.8 118.16c-1.54.48-3.1 1.06-4.56 1.65 10.31-2.62 21.38-2.63 31.94-4.48-1.63-.06-3.28 0-5 0-7.32 1.05-14.98 1.4-22.38 2.83z"/><path d="m87.13 101.68c-1.44.5-2.79 1-4.13 1.54 9.58-1.66 19.52-4.88 29.39-4.54-1.54-.36-3.1-.57-4.68-.63-6.91.44-13.78 2.26-20.58 3.63z"/><path d="m95.06 50.2c-5.41.34-11 2-16.27 3.15-1.35.52-2.57 1-3.72 1.53 8-1.5 16.73-4.79 25.01-3.87-1.65-.45-3.33-.73-5.02-.81z"/></g><g opacity=".3"><path d="m175.44 98.62c9.22 1.94 18.89-.46 27.67-3.13-7.95 4.23-18.95 6.74-27.67 3.13z"/><path d="m170.73 90.53c8.17-3.31 18-6.36 27.06-5-9.1.4-18.06 3.35-27.06 5z"/><path d="m201.55 90.79c-6.17 3.19-14.33 6.14-21.46 4.45 7.31-.06 14.38-2.81 21.46-4.45z"/><path d="m163.59 86.82c7.27-3.12 15.83-6.34 24.01-5.87-8.15 1.47-15.93 4.31-24.01 5.87z"/></g><g opacity=".3"><path d="m239.43 114.07h-3.5c6.6 1.88 13.63 1.53 20.01-1l-3.3.3c-4.31 1.18-8.81 1.42-13.21.7z"/><path d="m237.04 102.49c-1.11.4-2.21.9-3.21 1.3 6.21-.8 12.8-3.3 19-2-1.08-.52-2.22-.89-3.4-1.1-4.1-.02-8.26.98-12.39 1.8z"/><path d="m241.04 109.17-2.61.3c5.11 1.4 11 .2 15.9-1.5-.9-.02-1.8.02-2.7.1-3.43 1.01-7.02 1.38-10.59 1.1z"/></g><g opacity=".3"><path d="m291.84 119.3c-.79.16-1.55.41-2.34.57 4.48.5 9.02-.08 13.23-1.68h-2.45c-2.72.86-5.58 1.24-8.44 1.11z"/><path d="m289.03 114.07c-.86.37-1.69.78-2.51 1.23 4.94-.81 9.62-2.38 14.6-3-.89-.23-1.81-.35-2.73-.36-3.21.55-6.33 1.49-9.36 2.13z"/><path d="m286.04 107.92c-.83.32-1.64.69-2.42 1.11 4.74-.76 9.46-1.11 14.11-2.37-.86-.11-1.72-.17-2.59-.18-3.02.71-6.02 1.01-9.1 1.44z"/></g><g opacity=".3"><path d="m270.18 188.09s-.12-1.87-.34-5.14-.57-7.95-1-13.56-.89-12.14-1.41-19.14c-.25-3.5-.5-7.12-.72-10.8s-.44-7.41-.53-11.12 0-7.52-.37-11.24c-.29-3.68-1.01-7.31-2.15-10.81-.57-1.68-1.25-3.31-2.05-4.89-.8-1.5-1.7-2.94-2.71-4.3-1.88-2.47-4.11-4.64-6.63-6.44-2.11-1.51-4.38-2.79-6.77-3.8-1-.49-2.07-.82-3-1.19l-2.59-.85c-1.59-.45-2.84-.76-3.7-.93l-1.32-.29 1.29.4c.84.23 2.06.67 3.6 1.2l2.51 1c.89.42 1.88.81 2.88 1.36 2.25 1.12 4.39 2.46 6.38 4 2.17 1.72 5.09 4 6.92 6.5 1.87 2.71 3.32 5.69 4.3 8.84 1 3.4 1.64 6.9 1.91 10.43.14 1.81.22 3.65.25 5.5s0 3.71.07 5.61c.23 7.55 1 15.45 1.64 22.46.31 3.51 2.36 28.82 2.78 32.07.42 3.23.76 5.13.76 5.13z"/><path d="m224.17 186.09c-1.08-1.43-2.08-2.91-3-4.45-2.43-4.01-4.49-8.23-6.16-12.61-1.13-2.92-2.08-5.91-2.84-8.94-.85-3.37-1.47-6.79-1.84-10.24-.39-3.68-.49-7.39-.3-11.09.23-3.78.48-7.75.53-11.65.13-7.69-.36-15.39-1.45-23.01-.52-3.51-1.24-6.98-2.17-10.4-.81-3.1-1.93-6.12-3.33-9-1.12-2.5-2.84-4.69-5-6.37-2.13-1.23-4-2.05-5.55-2.78-1.21-.55-2.45-1.01-3.73-1.37-.33-.09-.66-.16-1-.21.34.08.67.18 1 .29 1.23.47 2.43 1.01 3.59 1.63.74.41 1.58.83 2.46 1.35l1.39.81c.5.31.97.64 1.43 1 1.94 1.71 3.46 3.85 4.43 6.25 2.37 5.24 3.84 11.91 4.81 19.08.92 7.53 1.31 15.12 1.17 22.71 0 3.89-.25 7.7-.46 11.58-.31 7.38.58 14.75 2.64 21.85.87 3.05 1.94 6.04 3.21 8.95 1.89 4.35 4.19 8.5 6.88 12.39 1 1.47 2.1 2.89 3.29 4.23z"/><path d="m88.13 181.09s.44 1.47 1.22 4 1.89 6.24 3.19 10.65c.65 2.21 1.38 4.58 2.1 7.12s1.52 5.19 2.28 8 1.54 5.63 2.33 8.54 1.5 5.87 2.2 8.85 1.32 6 1.87 8.89 1 5.86 1.25 8.7c.29 2.72.41 5.45.36 8.18-.04 2.44-.29 4.87-.74 7.26-.4 2.03-.98 4.01-1.74 5.93-.59 1.49-1.29 2.93-2.1 4.31-.67 1.16-1.21 2.06-1.62 2.66l-.6.92.69-.86c.46-.56 1.11-1.39 1.86-2.51.92-1.35 1.73-2.76 2.45-4.22.93-1.92 1.67-3.93 2.18-6 .61-2.44.98-4.94 1.11-7.45.17-2.8.14-5.6-.09-8.39l-.18-2.19c-.06-.74-.15-1.48-.27-2.22-.15-1.5-.42-3-.65-4.45-.54-3-1.22-6-1.84-9s-1.53-6-2.28-8.89-1.7-5.76-2.5-8.53-1.74-5.39-2.55-7.91-1.66-4.85-2.43-7-1.5-4.15-2.18-5.89l-1.73-4.53c-.99-2.55-1.59-3.97-1.59-3.97z"/></g><path d="m264.18 128.35c1-13.28.45-36.01-29.31-44.79 0 0 22.26 5.17 28.93 12.83s9 24.35 9.66 39.01-3.66 50.35-3.66 50.35-6.53-44.11-5.62-57.4z" opacity=".1"/><path d="m219.17 178.09c-7.67-15-10.33-27.01-9.33-45.68s-3-44.34-7.34-49.01-13.23-9-13.23-9 20.24 7.34 22.91 17.34 7 18.66 7 31.01c0 12.34.67 38.34 3.33 48.01 2.65 9.67 4.33 22.33-3.34 7.33z" opacity=".1"/><path d="m147.48 178.76s0-22.68.67-41.35c.16-4.47 2.2-19.13-.67-22.01-2-2-11.14-12.45-12.66-16-1.34-3.12 2 1.34 8.33 5.67 3.5 2.4 13 6.33 15 6-2.05 5.6-3.07 11.54-3 17.5 0 10.33 3 31.01 6 52.01 3 21.01 2.67 35.53-2.83 26.19-5.96-9.84-10.05-20.69-12.06-32.01.46 1.53.89 2.85 1.22 4z" opacity=".1"/><path d="m80 150.79c-2.78-10.66-3.91-30.92-5.87-36.01-6-15.67-8.67-30.01-10.77-43.32-2-12.6-4.82-26.34-6.23-33.37s1.92-13.13 6.83-17.23c-2.22 3-4.8 9-2.5 19.9 3.67 17.33 3 19.33 5.67 25.01l2.67 5.71s-2 3.67 2 21.01c4 17.33 8 20.68 8 20.68s-2 4.67-1 12 13 52.01 15 56.68 16 51.3 15.33 67.31c-.67 16-12 30.01-12 30.01s5.59-16.13 4.33-31.01c-.68-8-12.33-8.33-12.33-8.33s8.56-2 8-7.34c-2.67-25.34-14-40.65-17-43.34-.18-.21-.33-.44-.43-.7 4.86-4.36 8.43-7.3 8.43-7.3s-3.84-13.93-8.13-30.36z" opacity=".1"/><path d="m58.76 230.52s6.1-.5 8.7-3.1c0 .01-1 5.1-8.7 3.1z" opacity=".3"/><path d="m61.29 218.23s6.1-1 6.1 2.6c-.43.5-6.1-2.6-6.1-2.6z" opacity=".3"/><path d="m104.47 239.43-16.33-58.34s-3.86-13.86-8.13-30.3c-2.78-10.66-3.91-30.92-5.87-36.01-6-15.67-8.67-30.01-10.77-43.32-2-12.6-4.82-26.34-6.23-33.37-2.68-13.33 11.66-23.33 21.66-22.67s13.33 4.63 20.01 18.63c3.71 7.8 7.63 21.41 11.3 33.88 2.73 8.93 6.08 17.66 10 26.14 2.39 5.09 5.47 17.57 10.83 33.57 6.57 19.64 13.56 41.56 16.5 51.12v-.2c3.78 12.33 12 32.25 12 32.25z" fill="url(#b)" opacity=".5"/></svg>