<?xml version="1.0" encoding="utf-8"?>
<!-- Generator: Adobe Illustrator 23.0.1, SVG Export Plug-In . SVG Version: 6.00 Build 0)  -->
<svg version="1.1" id="Layer_1" xmlns="http://www.w3.org/2000/svg" xmlns:xlink="http://www.w3.org/1999/xlink" x="0px" y="0px"
	 viewBox="0 0 410 510" style="enable-background:new 0 0 410 510;" xml:space="preserve">
<style type="text/css">
	.st0{opacity:0.85;fill:url(#SVGID_1_);enable-background:new    ;}
	.st1{opacity:0.5;fill:#FFFFFF;stroke:#000000;stroke-width:0.25;enable-background:new    ;}
	.st2{opacity:0.3;}
	.st3{opacity:0.1;}
	.st4{opacity:0.5;fill:url(#SVGID_2_);enable-background:new    ;}
</style>
<g>
	
		<linearGradient id="SVGID_1_" gradientUnits="userSpaceOnUse" x1="-241.9256" y1="494.6147" x2="-241.9256" y2="15.3853" gradientTransform="matrix(-1 0 0 1 -36.9256 0)">
		<stop  offset="0" style="stop-color:#FFFFFF;stop-opacity:0"/>
		<stop  offset="0.4274" style="stop-color:#D0B5B3"/>
		<stop  offset="1" style="stop-color:#D0B5B3"/>
	</linearGradient>
	<path class="st0" d="M63.46,291.44c-3-26.01-15.33-61.35-9.33-74.35c6-13,34.01-36.01,34.01-36.01s-3.86-13.86-8.13-30.3
		c-2.78-10.66-3.91-30.92-5.87-36.01c-6-15.67-8.67-30.01-10.77-43.32c-2-12.6-4.82-26.34-6.23-33.37
		C54.46,24.76,68.8,14.76,78.8,15.42c10,0.66,13.33,4.63,20.01,18.63c3.71,7.8,7.63,21.41,11.3,33.88c2.73,8.93,6.08,17.66,10,26.14
		c2.39,5.09,5.47,17.57,10.83,33.57c6.57,19.64,13.56,41.56,16.5,51.12c0,0,0-22.68,0.67-41.35c0.16-4.47,2.2-19.13-0.67-22.01
		c-2-2-11.14-12.45-12.66-16c-2-4.66-10.72-24.13,6-30.67c15.33-6,26.67-1,34.01,1.66c3.32,0.24,8.66,1.67,14,3.67
		c0,0,0-7.33,19.33-0.67c19.33,6.66,26.68,10,26.68,10s20.01-11.33,31.34-4c11.33,7.33,26.01,9.34,34.01,20.68
		c13.33,18.88,8.67,10.67,10.67,76.69v22.01c11.56,49.27,6.4,70.4,6,121.36c-0.1,11.72-5.25,35.72-6.67,47.34
		c-1.52,12.61,24.08,46.52,25.7,58.93c1.42,11.42,7.61,21.76,10.76,32.76c1.72,6,9.55,25.65,10.88,35.46H190.7
		c-7.1,0-6.29-2.38-8.72-8.44c-2.85-7.25-5.28-14.6-8.22-21.86c-10.44-26.23-32.45-40.43-49.53-61.69
		c-8.93-11.13-17.25-22.76-25.48-34.28c-8.42-11.82-20.19-24.54-25.38-38.01c-4.57-11.92-4.26-25.14-9.13-36.95L63.46,291.44z"/>
	<path class="st1" d="M63.3,33.21c0.66,2.57,1.89,4.97,3.6,7l0.2,0.3c0,0,1.1-0.6,2.8-1.3c0.02-0.06,0.04-0.11,0.06-0.17
		c3.72-1.7,10.11-4.23,14.75-4.33c5.2,0,7.7,0.2,9-0.4l0,0c0.36-0.19,0.67-0.46,0.9-0.8c0.5-0.8-1.3-5.8-4.9-10
		c-0.05-0.02-0.11-0.05-0.16-0.07c-3.4-3.87-8.28-7.22-14.54-6.43c-10,1.2-13.7,8.8-11.8,16.2"/>
	<path class="st1" d="M160.32,66.87c-1.25-0.36-2.55-0.49-3.84-0.4c-3.07,0.47-13.27,1.24-16.68,6.81c0.06,0.51,0.38,0.95,0.84,1.18
		c0,0.02-0.01,0.03-0.01,0.05c0.27,0.1,0.57,0.15,0.86,0.13c1.51-0.25,3.01-0.58,4.48-1 M145.97,73.66
		c2.78-0.71,6.34-1.71,9.64-2.72c2.37-0.72,4.78-1.28,7.23-1.68c0.04,0,0.08,0,0.12-0.01c0.63-0.06,1.25-0.18,1.85-0.36
		c0.37-0.21-1.94-1.38-4.49-2"/>
	<g class="st2">
		<path d="M91.58,125.96c-1.84-0.02-3.67-0.21-5.47-0.56c11,3.89,24.74-0.31,34.95-4.72c-1.25,0.31-2.49,0.61-3.78,1
			C109.3,124.69,99.99,127.07,91.58,125.96z"/>
		<path d="M99,134.33c-1.74,0.34-3.38,0.69-5.12,1c8.86-0.17,20.83-2.36,27.95-7.61c-1.26,0.58-2.51,1.06-3.76,1.55
			C112.57,132.07,105.39,133.73,99,134.33z"/>
		<path d="M90.8,118.16c-1.54,0.48-3.1,1.06-4.56,1.65c10.31-2.62,21.38-2.63,31.94-4.48c-1.63-0.06-3.28,0-5,0
			C105.86,116.38,98.2,116.73,90.8,118.16z"/>
		<path d="M87.13,101.68c-1.44,0.5-2.79,1-4.13,1.54c9.58-1.66,19.52-4.88,29.39-4.54c-1.54-0.36-3.1-0.57-4.68-0.63
			C100.8,98.49,93.93,100.31,87.13,101.68z"/>
		<path d="M95.06,50.2c-5.41,0.34-11,2-16.27,3.15c-1.35,0.52-2.57,1-3.72,1.53c8-1.5,16.73-4.79,25.01-3.87
			C98.43,50.56,96.75,50.28,95.06,50.2z"/>
	</g>
	<g class="st2">
		<path d="M175.44,98.62c9.22,1.94,18.89-0.46,27.67-3.13C195.16,99.72,184.16,102.23,175.44,98.62z"/>
		<path d="M170.73,90.53c8.17-3.31,18-6.36,27.06-5C188.69,85.93,179.73,88.88,170.73,90.53z"/>
		<path d="M201.55,90.79c-6.17,3.19-14.33,6.14-21.46,4.45C187.4,95.18,194.47,92.43,201.55,90.79z"/>
		<path d="M163.59,86.82c7.27-3.12,15.83-6.34,24.01-5.87C179.45,82.42,171.67,85.26,163.59,86.82z"/>
	</g>
	<g class="st2">
		<path d="M239.43,114.07h-3.5c6.6,1.88,13.63,1.53,20.01-1l-3.3,0.3C248.33,114.55,243.83,114.79,239.43,114.07z"/>
		<path d="M237.04,102.49c-1.11,0.4-2.21,0.9-3.21,1.3c6.21-0.8,12.8-3.3,19-2c-1.08-0.52-2.22-0.89-3.4-1.1
			C245.33,100.67,241.17,101.67,237.04,102.49z"/>
		<path d="M241.04,109.17l-2.61,0.3c5.11,1.4,11,0.2,15.9-1.5c-0.9-0.02-1.8,0.02-2.7,0.1C248.2,109.08,244.61,109.45,241.04,109.17
			z"/>
	</g>
	<g class="st2">
		<path d="M291.84,119.3c-0.79,0.16-1.55,0.41-2.34,0.57c4.48,0.5,9.02-0.08,13.23-1.68h-2.45
			C297.56,119.05,294.7,119.43,291.84,119.3z"/>
		<path d="M289.03,114.07c-0.86,0.37-1.69,0.78-2.51,1.23c4.94-0.81,9.62-2.38,14.6-3c-0.89-0.23-1.81-0.35-2.73-0.36
			C295.18,112.49,292.06,113.43,289.03,114.07z"/>
		<path d="M286.04,107.92c-0.83,0.32-1.64,0.69-2.42,1.11c4.74-0.76,9.46-1.11,14.11-2.37c-0.86-0.11-1.72-0.17-2.59-0.18
			C292.12,107.19,289.12,107.49,286.04,107.92z"/>
	</g>
	<g class="st2">
		<path d="M270.18,188.09c0,0-0.12-1.87-0.34-5.14c-0.22-3.27-0.57-7.95-1-13.56c-0.43-5.61-0.89-12.14-1.41-19.14
			c-0.25-3.5-0.5-7.12-0.72-10.8c-0.22-3.68-0.44-7.41-0.53-11.12c-0.09-3.71,0-7.52-0.37-11.24c-0.29-3.68-1.01-7.31-2.15-10.81
			c-0.57-1.68-1.25-3.31-2.05-4.89c-0.8-1.5-1.7-2.94-2.71-4.3c-1.88-2.47-4.11-4.64-6.63-6.44c-2.11-1.51-4.38-2.79-6.77-3.8
			c-1-0.49-2.07-0.82-3-1.19l-2.59-0.85c-1.59-0.45-2.84-0.76-3.7-0.93l-1.32-0.29l1.29,0.4c0.84,0.23,2.06,0.67,3.6,1.2l2.51,1
			c0.89,0.42,1.88,0.81,2.88,1.36c2.25,1.12,4.39,2.46,6.38,4c2.17,1.72,5.09,4,6.92,6.5c1.87,2.71,3.32,5.69,4.3,8.84
			c1,3.4,1.64,6.9,1.91,10.43c0.14,1.81,0.22,3.65,0.25,5.5c0.03,1.85,0,3.71,0.07,5.61c0.23,7.55,1,15.45,1.64,22.46
			c0.31,3.51,2.36,28.82,2.78,32.07C269.84,186.19,270.18,188.09,270.18,188.09z"/>
		<path d="M224.17,186.09c-1.08-1.43-2.08-2.91-3-4.45c-2.43-4.01-4.49-8.23-6.16-12.61c-1.13-2.92-2.08-5.91-2.84-8.94
			c-0.85-3.37-1.47-6.79-1.84-10.24c-0.39-3.68-0.49-7.39-0.3-11.09c0.23-3.78,0.48-7.75,0.53-11.65
			c0.13-7.69-0.36-15.39-1.45-23.01c-0.52-3.51-1.24-6.98-2.17-10.4c-0.81-3.1-1.93-6.12-3.33-9c-1.12-2.5-2.84-4.69-5-6.37
			c-2.13-1.23-4-2.05-5.55-2.78c-1.21-0.55-2.45-1.01-3.73-1.37c-0.33-0.09-0.66-0.16-1-0.21l0,0c0.34,0.08,0.67,0.18,1,0.29
			c1.23,0.47,2.43,1.01,3.59,1.63c0.74,0.41,1.58,0.83,2.46,1.35l1.39,0.81c0.5,0.31,0.97,0.64,1.43,1
			c1.94,1.71,3.46,3.85,4.43,6.25c2.37,5.24,3.84,11.91,4.81,19.08c0.92,7.53,1.31,15.12,1.17,22.71c0,3.89-0.25,7.7-0.46,11.58
			c-0.31,7.38,0.58,14.75,2.64,21.85c0.87,3.05,1.94,6.04,3.21,8.95c1.89,4.35,4.19,8.5,6.88,12.39
			C221.88,183.33,222.98,184.75,224.17,186.09z"/>
		<path d="M88.13,181.09c0,0,0.44,1.47,1.22,4c0.78,2.53,1.89,6.24,3.19,10.65c0.65,2.21,1.38,4.58,2.1,7.12s1.52,5.19,2.28,8
			c0.76,2.81,1.54,5.63,2.33,8.54c0.79,2.91,1.5,5.87,2.2,8.85c0.7,2.98,1.32,6,1.87,8.89c0.55,2.89,1,5.86,1.25,8.7
			c0.29,2.72,0.41,5.45,0.36,8.18c-0.04,2.44-0.29,4.87-0.74,7.26c-0.4,2.03-0.98,4.01-1.74,5.93c-0.59,1.49-1.29,2.93-2.1,4.31
			c-0.67,1.16-1.21,2.06-1.62,2.66l-0.6,0.92l0.69-0.86c0.46-0.56,1.11-1.39,1.86-2.51c0.92-1.35,1.73-2.76,2.45-4.22
			c0.93-1.92,1.67-3.93,2.18-6c0.61-2.44,0.98-4.94,1.11-7.45c0.17-2.8,0.14-5.6-0.09-8.39l-0.18-2.19
			c-0.06-0.74-0.15-1.48-0.27-2.22c-0.15-1.5-0.42-3-0.65-4.45c-0.54-3-1.22-6-1.84-9c-0.62-3-1.53-6-2.28-8.89
			c-0.75-2.89-1.7-5.76-2.5-8.53c-0.8-2.77-1.74-5.39-2.55-7.91c-0.81-2.52-1.66-4.85-2.43-7c-0.77-2.15-1.5-4.15-2.18-5.89
			l-1.73-4.53C88.73,182.51,88.13,181.09,88.13,181.09z"/>
	</g>
	<path class="st3" d="M264.18,128.35c1-13.28,0.45-36.01-29.31-44.79c0,0,22.26,5.17,28.93,12.83c6.67,7.66,9,24.35,9.66,39.01
		c0.66,14.66-3.66,50.35-3.66,50.35S263.27,141.64,264.18,128.35z"/>
	<path class="st3" d="M219.17,178.09c-7.67-15-10.33-27.01-9.33-45.68c1-18.67-3-44.34-7.34-49.01c-4.34-4.67-13.23-9-13.23-9
		s20.24,7.34,22.91,17.34c2.67,10,7,18.66,7,31.01c0,12.34,0.67,38.34,3.33,48.01C225.16,180.43,226.84,193.09,219.17,178.09z"/>
	<path class="st3" d="M147.48,178.76c0,0,0-22.68,0.67-41.35c0.16-4.47,2.2-19.13-0.67-22.01c-2-2-11.14-12.45-12.66-16
		c-1.34-3.12,2,1.34,8.33,5.67c3.5,2.4,13,6.33,15,6c-2.05,5.6-3.07,11.54-3,17.5c0,10.33,3,31.01,6,52.01
		c3,21.01,2.67,35.53-2.83,26.19c-5.96-9.84-10.05-20.69-12.06-32.01C146.72,176.29,147.15,177.61,147.48,178.76z"/>
	<path class="st3" d="M80,150.79c-2.78-10.66-3.91-30.92-5.87-36.01c-6-15.67-8.67-30.01-10.77-43.32c-2-12.6-4.82-26.34-6.23-33.37
		c-1.41-7.03,1.92-13.13,6.83-17.23c-2.22,3-4.8,9-2.5,19.9c3.67,17.33,3,19.33,5.67,25.01l2.67,5.71c0,0-2,3.67,2,21.01
		c4,17.33,8,20.68,8,20.68s-2,4.67-1,12c1,7.33,13,52.01,15,56.68c2,4.67,16,51.3,15.33,67.31c-0.67,16-12,30.01-12,30.01
		s5.59-16.13,4.33-31.01c-0.68-8-12.33-8.33-12.33-8.33s8.56-2,8-7.34c-2.67-25.34-14-40.65-17-43.34c-0.18-0.21-0.33-0.44-0.43-0.7
		c4.86-4.36,8.43-7.3,8.43-7.3S84.29,167.22,80,150.79z"/>
	<path class="st2" d="M58.76,230.52c0,0,6.1-0.5,8.7-3.1C67.46,227.43,66.46,232.52,58.76,230.52z"/>
	<path class="st2" d="M61.29,218.23c0,0,6.1-1,6.1,2.6C66.96,221.33,61.29,218.23,61.29,218.23z"/>
	<g>
		<g>
			
				<linearGradient id="SVGID_2_" gradientUnits="userSpaceOnUse" x1="-1803.3943" y1="2192.7087" x2="-1822.5305" y2="2130.9978" gradientTransform="matrix(-3.1362 0 0 -3.1362 -5589.3037 6890.8008)">
				<stop  offset="0.36" style="stop-color:#0074D1"/>
				<stop  offset="1" style="stop-color:#00AFD1;stop-opacity:0"/>
			</linearGradient>
			<path class="st4" d="M104.47,239.43l-16.33-58.34c0,0-3.86-13.86-8.13-30.3c-2.78-10.66-3.91-30.92-5.87-36.01
				c-6-15.67-8.67-30.01-10.77-43.32c-2-12.6-4.82-26.34-6.23-33.37C54.46,24.76,68.8,14.76,78.8,15.42
				c10,0.66,13.33,4.63,20.01,18.63c3.71,7.8,7.63,21.41,11.3,33.88c2.73,8.93,6.08,17.66,10,26.14
				c2.39,5.09,5.47,17.57,10.83,33.57c6.57,19.64,13.56,41.56,16.5,51.12v-0.2c3.78,12.33,12,32.25,12,32.25L104.47,239.43z"/>
		</g>
	</g>
</g>
</svg>
