<svg xmlns="http://www.w3.org/2000/svg" xmlns:xlink="http://www.w3.org/1999/xlink" viewBox="0 0 410 510"><defs><filter id="a" width="100%" height="100%" x="0%" y="0%" filterUnits="objectBoundingBox"><feColorMatrix in="SourceGraphic" values="0 0 0 0 1 0 0 0 0 1 0 0 0 0 1 0 0 0 1 0"/></filter><mask id="u"><g filter="url(#a)"><path fill-opacity=".851" d="M0 0h410v510H0z"/></g></mask><linearGradient id="c" x1="204.688" x2="204.688" y1="439.973" y2="70.027" gradientUnits="userSpaceOnUse"><stop offset="0" stop-color="#fff" stop-opacity="0"/><stop offset=".427" stop-color="#d0b5b3"/><stop offset="1" stop-color="#d0b5b3"/></linearGradient><clipPath id="b"><path d="M0 0h410v510H0z"/></clipPath><g id="t" clip-path="url(#b)"><path fill="url(#c)" d="M341.46 191.25c-9.5.27-15.73.48-35.081 14.52-19.36 14.03-18.867 39.68-18.867 39.68l-5.32 9.679c-5.32 9.68-10.653 25.16-10.653 25.16s.973-23.71 1.941-40.648c.97-16.942 6.29-45.493 12.579-61.942 6.293-16.449 4.363-39.68 5.812-49.36 1.45-9.679 3.39-24.19 2.418-35.32-.969-11.128-14.027-24.19-29.52-15.968-15.48 8.23-16.64 51.62-18.39 56.129-3.39 8.71-8.707 20.32-15.48 41.129-6.77 20.812-13.07 45.492-13.07 45.492s-7.259-9.192.48-33.39c7.742-24.192 8.71-36.29 13.07-47.423 4.351-11.129 7.262-27.578 10.652-37.738 3.39-10.16-.48-25.648-15.972-30-15.48-4.36-20.809 3.871-25.649 9.68-.46.582-.89 1.191-1.281 1.82-10.82-13.629-24.57-6.422-32.59 2.05-8.71 9.188-25.648 30.97-30.969 41.61-.11.219-.218.43-.332.64a22.2 22.2 0 0 0-2.09.81s-17.898 18.87-22.257 30c-4.36 11.128-6.29 16.449-10.653 26.128-4.36 9.684-13.066 25.653-13.547 45.973-.48 20.32-11.613 30.648-16.132 42.258-4.52 11.61-1.938 40.652-5.16 58.07-3.22 17.422-5.81 52.902-7.09 66.45-.098.972-10.528 40.91-10.809 42.261l150.012.969c9.187-5.32 54.199-24.188 62.91-37.739 8.707-13.55 20.316-28.55 32.418-37.742 12.101-9.187 20.808-26.61 20.808-40.16 0-13.547 12.102-41.129 19.364-55.156 7.258-14.031 7.258-26.613 8.707-28.55 1.453-1.942 3.39-7.743 3.39-12.102 0-4.36 14.032-20.81 16.45-24.192 2.402-3.398-8.797-13.387-20.098-13.078zm0 0"/></g><mask id="w"><g filter="url(#a)"><path fill-opacity=".502" d="M0 0h410v510H0z"/></g></mask><clipPath id="d"><path d="M0 0h410v510H0z"/></clipPath><g id="v" clip-path="url(#d)"><path fill="#fff" stroke="#000" stroke-width=".25" d="M287.5 88.8c.2-7.25-4.738-13.76-14.09-13.241-5.89.293-9.64 4.261-11.922 8.48-.027.02-.047.04-.078.05-2.379 4.54-3.012 9.52-2.379 10.192.25.27.57.469.918.578-.008.012-.02.012-.02.02 1.352.312 3.583-.29 8.243-1.098 4.316-.672 10.719.68 14.437 1.649.02.03.04.058.051.101.961.207 1.899.457 2.82.758l.122-.32a16.411 16.411 0 0 0 1.828-7.16m-14.14.832h.062-.063zm0 0"/></g><mask id="y"><g filter="url(#a)"><path fill-opacity=".502" d="M0 0h410v510H0z"/></g></mask><clipPath id="e"><path d="M0 0h410v510H0z"/></clipPath><g id="x" clip-path="url(#e)"><path fill="#fff" stroke="#000" stroke-width=".25" d="M208.719 76.012c-2.598 3.558-4.61 8.726-4.188 9.008.418.28 1.078.05 2.258-.122.121-.058.25-.109.371-.168 2.91-.34 5.852-.21 8.711.399 3.95.86 7.938 1.5 11.957 1.922.043.02.094.039.133.07 1.828.27 3.68.27 5.508 0 .441-.14.703-.55.972-.973-.011-.046-.03-.117-.05-.187a9.646 9.646 0 0 0 .437-4.121c-6.328-14.68-18.207-10.36-21.898-9.781-1.27.27-2.73 1.75-4.168 3.75m25.078 8.351"/></g><mask id="A"><g filter="url(#a)"><path fill-opacity=".502" d="M0 0h410v510H0z"/></g></mask><clipPath id="f"><path d="M0 0h410v510H0z"/></clipPath><g id="z" clip-path="url(#f)"><path fill="#fff" stroke="#000" stroke-width=".25" d="M165.68 88.941c-.23.368-.43.77-.578 1.18.07.598.097.399 2.328.598 1.699.18 3.761 2.59 7.539 4.25a.571.571 0 0 1-.047-.13 17.51 17.51 0 0 0 4.277 1.2c4.582.711 8.403-2.39 10.242-4.238v-.07c.707-.731 1.137-1.243 1.137-1.243 1.512-16.777-9.957-14.297-14.637-13.066l-.793.348h-.07c-3.726 1.718-7.969 8.28-9.457 11.039"/></g><mask id="C"><g filter="url(#a)"><path fill-opacity=".502" d="M0 0h410v510H0z"/></g></mask><clipPath id="g"><path d="M0 0h410v510H0z"/></clipPath><g id="B" clip-path="url(#g)"><path fill="#fff" stroke="#000" stroke-width=".25" d="M360.121 205.8c1.95-2.472 2.617-2.448 2.3-2.96-.32-.512-1.632.281-7.812.648-5.18-.5-10.18 1.782-13.949 5.352-.2.082-.39.172-.57.238a25.285 25.285 0 0 0-4.27 5.48c-3.851 6.583 8.309 13.84 8.309 13.84 1.3-3.41 11.441-16.359 14.18-20.57.59-.629 1.28-1.52 1.68-2.047"/></g><mask id="E"><g filter="url(#a)"><path fill-opacity=".302" d="M0 0h410v510H0z"/></g></mask><clipPath id="h"><path d="M0 0h410v510H0z"/></clipPath><g id="D" clip-path="url(#h)"><path d="M269 176.738c1.719.114 3.441.063 5.148-.148-10.378 2.898-23.226-2.031-32.66-6.93 1.16.38 2.32.75 3.524 1.219 7.449 3.36 16.097 6.262 23.988 5.86zm0 0M276.219 167.39c1.652-.128 3.21-.218 4.84-.34-7.938 2.052-19.23 3.04-27.098 0 1.3.212 2.55.348 3.8.481a51.328 51.328 0 0 0 18.458-.14zm0 0M273.64 159.32c1.52.239 3.02.57 4.5.97-9.968-1.071-20.152.41-30.19.081 1.491-.27 3.01-.45 4.628-.672 6.89-.07 13.973-.777 21.063-.379zm0 0M278.54 150.75c1.41.281 2.75.59 4.081.898-9.133-.277-18.851-1.937-27.86-.32a21.423 21.423 0 0 1 4.188-1.219c6.461-.55 13.121.27 19.59.641zm0 0M263.73 103.922c5.032-.363 10.461.469 15.532.969 1.328.32 2.539.578 3.687.968-7.648-.398-16.238-2.39-23.73-.48a19.327 19.327 0 0 1 4.511-1.457zm0 0"/></g><mask id="G"><g filter="url(#a)"><path fill-opacity=".302" d="M0 0h410v510H0z"/></g></mask><clipPath id="i"><path d="M0 0h410v510H0z"/></clipPath><g id="F" clip-path="url(#i)"><path d="M196.781 171.48c1.32-.27 2.61-.652 3.867-1.128-7.238 5.168-17.308 3.199-24.988-1.352 1.25.41 2.512.762 3.79 1.04 5.69 2.46 11.991 3.491 17.331 1.44zm0 0M199.922 158.762c1.316.457 2.61 1 3.867 1.597-8.117-1.347-16.578-4.02-24.7-3.648a15.92 15.92 0 0 1 4.052-.8c5.507.16 11.238 1.698 16.78 2.85zm0 0M192.852 166.719c1.078 0 2.25 0 3.32-.07-6.082 2.69-13.75-.278-19.672-3.508l3.04.75c4.26 2.02 8.98 3.43 13.312 2.828zm0 0M190.84 149.738c5.129 1.043 10.238 2.633 15.379 3.774 1.222.457 2.36 1.047 3.48 1.52-7.398-1.294-14.68-3.954-22.148-5 1.078-.212 2.18-.302 3.289-.294zm0 0M219.129 97.379c1.031.09 2.152.172 3.191.36-6.011.89-12.648 1.16-18.61-.68h3.06c4.082.68 8.242.793 12.359.32zm0 0"/></g><mask id="I"><g filter="url(#a)"><path fill-opacity=".302" d="M0 0h410v510H0z"/></g></mask><clipPath id="j"><path d="M0 0h410v510H0z"/></clipPath><g id="H" clip-path="url(#j)"><path d="M142.012 159.32l3.687.29a36.007 36.007 0 0 1-21.008-2.65l3.457.571a35.84 35.84 0 0 0 13.864 1.79zm0 0M145.078 148.398c1.14.473 2.274 1.051 3.313 1.524-6.493-1.3-13.32-4.262-19.922-3.531 1.18-.41 2.402-.66 3.64-.762 4.32.332 8.692 1.66 12.97 2.77zm0 0M140.559 154.48l2.722.5c-5.441.97-11.61-.742-16.672-2.789.95.059 1.903.168 2.852.329a33.903 33.903 0 0 0 11.098 1.96zm0 0M172.57 103.43c.97.46 1.942.968 2.899 1.39-5.809-1.14-12.52-3.129-17.07-7.27.8.36 1.523.712 2.331 1.052a36.197 36.197 0 0 0 11.84 4.828zm0 0"/></g><mask id="K"><g filter="url(#a)"><path fill-opacity=".302" d="M0 0h410v510H0z"/></g></mask><clipPath id="k"><path d="M0 0h410v510H0z"/></clipPath><g id="J" clip-path="url(#k)"><path d="M105.078 230.45c.32-.259.613-.552.863-.88.73-.89 1.36-1.87 1.868-2.898a24.406 24.406 0 0 0 1.82-5.063c.52-2.27.84-4.578.973-6.898 0-.64.078-1.29.097-1.941v-2.032c0-1.398 0-2.847.07-4.34 0-2.898.29-6.109.512-9.359.13-1.629.348-3.25.52-4.918.168-1.66.34-3.351.62-5.02.5-3.37.97-6.773 1.638-10.203.671-3.43 1.351-6.77 2.07-10.117.34-1.672.82-3.3 1.23-4.93l.641-2.41c.21-.793.48-1.582.73-2.351l.739-2.309c.133-.402.222-.75.383-1.172.148-.43.296-.73.449-1.078l.86-2.14c.148-.36.288-.711.429-1.051.14-.34.34-.692.5-1.031a44.073 44.073 0 0 1 2-3.868c.75-1.171 1.37-2.402 2.101-3.48 1.368-2.211 2.79-4.11 3.957-5.813 1.172-1.687 2.18-3.27 3-4.539.82-1.27 1.372-2.308 1.793-3.007l.63-1.063-.54 1.11c-.36.73-.832 1.82-1.562 3.152a132.46 132.46 0 0 1-2.707 4.73c-1.102 1.828-2.34 3.809-3.621 6.047-.672 1.102-1.282 2.293-1.942 3.524-.66 1.226-1.21 2.52-1.808 3.867-.153.332-.301.672-.45.972-.152.297-.28.7-.402 1.047-.258.723-.52 1.442-.789 2.172a45.72 45.72 0 0 1-.398 1.102c-.141.367-.223.738-.332 1.097-.23.75-.45 1.512-.68 2.282-.219.77-.469 1.53-.68 2.32-.2.789-.379 1.598-.582 2.398-.367 1.621-.816 3.22-1.148 4.84-.7 3.313-1.418 6.672-1.989 10.063-.57 3.398-1.16 6.77-1.68 10.11-.523 3.339-.921 6.648-1.3 9.839-.383 3.187-.7 6.258-.77 9.238-.07 1.48-.152 2.903-.21 4.301 0 .71-.07 1.398-.102 2.078-.027.684-.149 1.352-.149 2.031a36.265 36.265 0 0 1-1.402 7 23.429 23.429 0 0 1-2.18 5.04 13.226 13.226 0 0 1-2.117 2.82c-.312.293-.62.52-.953.73zm0 0M146.21 229c.5-.281.981-.61 1.43-.969a20.593 20.593 0 0 0 3.45-3.351 25.232 25.232 0 0 0 3.87-6.36 38.637 38.637 0 0 0 2.61-9.25c.13-.879.239-1.77.371-2.68.13-.91.13-1.859.188-2.812.152-1.937.172-3.867.402-5.976.41-4.313 1.059-8.59 1.938-12.832.87-4.41 2.011-8.91 3.23-13.461 1.223-4.547 2.621-9.137 4.082-13.68 1.457-4.55 3.11-9.05 4.75-13.457.828-2.211 1.617-4.383 2.52-6.543l1.308-3.168c.45-1.05.97-2.082 1.403-3.11.968-2.07 1.937-4.03 2.898-5.953.969-1.93 2.031-3.75 3.02-5.558 1.941-3.59 3.87-6.98 5.261-10.23.34-.81.758-1.61 1.028-2.38.261-.77.582-1.59.87-2.351l.84-2.23c.231-.739.462-1.438.692-2.13.879-2.769 1.649-5.19 2.29-7.167.148-.493.308-.973.448-1.41l.461-1.223.739-1.938.613-1.601s-.184.57-.512 1.64l-.61 1.942c-.25.77-.51 1.66-.769 2.668-.543 2.02-1.21 4.468-1.941 7.289l-.602 2.18-.738 2.261c-.262.77-.52 1.57-.8 2.38-.278.812-.65 1.632-.97 2.48-1.351 3.34-3.152 6.77-5.011 10.449-1.867 3.68-3.867 7.492-5.66 11.543-.45.968-.91 2.02-1.348 3.058l-1.27 3.192c-.863 2.09-1.632 4.316-2.441 6.5-1.602 4.41-3.14 8.91-4.61 13.437-1.468 4.531-2.902 9.063-4.18 13.551-1.28 4.488-2.429 8.969-3.331 13.328-.899 4.352-1.73 8.594-2.188 12.582-.28 2-.37 4.031-.57 5.918-.09.973-.172 1.942-.27 2.902-.101.97-.3 1.848-.453 2.739a36.024 36.024 0 0 1-3.039 9.383 25.529 25.529 0 0 1-4.218 6.289 19.414 19.414 0 0 1-3.672 3.187c-.469.352-.969.66-1.508.922zm0 0"/></g><mask id="M"><g filter="url(#a)"><path fill-opacity=".302" d="M0 0h410v510H0z"/></g></mask><clipPath id="l"><path d="M0 0h410v510H0z"/></clipPath><g id="L" clip-path="url(#l)"><path d="M320.898 257.621s-1.668 4.7 5.301 6.969c-.027-.012-4.558-3.512-5.3-6.969zm0 0"/></g><mask id="O"><g filter="url(#a)"><path fill-opacity=".302" d="M0 0h410v510H0z"/></g></mask><clipPath id="m"><path d="M0 0h410v510H0z"/></clipPath><g id="N" clip-path="url(#m)"><path d="M324.121 252.219c.078.62 6.02.972 6.02.972s-4.29-3.93-6.02-.972zm0 0"/></g><mask id="Q"><g filter="url(#a)"><path fill-opacity=".102" d="M0 0h410v510H0z"/></g></mask><clipPath id="n"><path d="M0 0h410v510H0z"/></clipPath><g id="P" clip-path="url(#n)"><path d="M105.078 230.45s6.293-4.348 6.293-20.321c0-15.969 4.84-43.55 9.188-56.129 4.363-12.578 9.68-16.941 15-27.578-.11.219-.22.43-.329.637-.71.23-1.41.511-2.09.812 0 0-6.519 6.879-12.66 14.777-3.5 6.602-6.52 14.043-7.66 21.512-3.39 22.262-5.808 37.5-8.949 46.7-3.14 9.19-4.351 22.011 1.207 19.59zm0 0"/></g><mask id="S"><g filter="url(#a)"><path fill-opacity=".102" d="M0 0h410v510H0z"/></g></mask><clipPath id="o"><path d="M0 0h410v510H0z"/></clipPath><g id="R" clip-path="url(#o)"><path d="M197.371 80.738c-1.441 3.75-4.41 11.614-6.883 18.813-3.386 9.918-7.738 22.738-13.308 28.07-5.559 5.32-4.11 7.258-8.47 16.938-4.35 9.68-9.44 28.55-11.858 48.152-2.422 19.598-6.293 23.95-11.372 28.55-5.082 4.598.73 7.739.73 7.739s11.61-5.32 12.58-26.129c.972-20.812 11.132-49.36 16.448-63.39 5.32-14.032 11.133-21.77 15-31.45 2.762-6.89 4-14.883 6.692-20.82a21.792 21.792 0 0 0 1.71-5.031c-.41-.508-.812-.989-1.269-1.442zm0 0"/></g><mask id="U"><g filter="url(#a)"><path fill-opacity=".102" d="M0 0h410v510H0z"/></g></mask><clipPath id="p"><path d="M0 0h410v510H0z"/></clipPath><g id="T" clip-path="url(#p)"><path d="M211.3 215.21c3.15 14.27 4.598 15.731 8.47 14.27 3.87-1.449 2.18-16.21 7.261-30.968 3.57-10.371 6.07-25.051 8.66-37.473-1.68 4.313-3.332 8.781-4.793 13.281-6.77 20.809-13.07 45.489-13.07 45.489s-7.258-9.188.48-33.387c7.743-24.192 8.712-36.293 13.07-47.422 4.352-11.129 7.263-27.578 10.653-37.738a22.429 22.429 0 0 0 1.07-5.64c-1.05 4.16-3.351 12.32-6.152 16.526-3.87 5.813-6.05 18.391-8.469 22.024l-2.421 3.629a79.64 79.64 0 0 1-5.079 22.02c-4.601 12.077-12.832 41.109-9.68 55.39zm0 0"/></g><mask id="W"><g filter="url(#a)"><path fill-opacity=".102" d="M0 0h410v510H0z"/></g></mask><clipPath id="q"><path d="M0 0h410v510H0z"/></clipPath><g id="V" clip-path="url(#q)"><path d="M326.7 194.48a89.249 89.249 0 0 0-20.321 11.29c-19.36 14.03-18.867 39.68-18.867 39.68l-5.32 9.679c-5.32 9.68-10.653 25.16-10.653 25.16s.973-23.71 1.941-40.648c.97-16.942 6.29-45.493 12.579-61.942 4.78-12.5 4.84-28.918 5.191-40.328-.21.969 1.191-12.43.14-11.45-1.64 1.52-2.902 9.68-2.902 19.11 0 19.86-10.59 40.38-12.097 51.528-2.422 17.902-7.02 31.21-7.743 52.261-.726 21.051-4.84 51.051.973 51.051 5.809 0 6.05-15.48 9.438-26.61 3.39-11.132 7.5-23.71 11.613-24.921 4.11-1.211 5.558-.969 5.558-.969s-5.808-7.742-3.87-14.27c1.628-5.53 13.581-26.921 34.34-38.62zm0 0"/></g><mask id="Y"><g filter="url(#a)"><path fill-opacity=".502" d="M0 0h410v510H0z"/></g></mask><linearGradient id="s" x1="-1733.897" x2="-1740.069" y1="2144.507" y2="2125.581" gradientTransform="matrix(3.1362 0 0 -3.1362 5554.397 6889.314)" gradientUnits="userSpaceOnUse"><stop offset=".36" stop-color="#0074d1"/><stop offset=".87" stop-color="#00afd1" stop-opacity="0"/></linearGradient><clipPath id="r"><path d="M0 0h410v510H0z"/></clipPath><g id="X" clip-path="url(#r)"><path fill="url(#s)" d="M110.89 157.871c-4.359 11.129-6.288 16.45-10.652 26.129-4.36 9.68-13.066 25.648-13.547 45.969 0 1.18-.101 2.332-.191 3.453 7.031-.672 17.941-2.332 20.52-6.363 3.87-6.047 4.359-15.239 3.87-26.13-.48-10.89 4.84-30.73 6.29-37.738 1.18-5.52 3-10.882 5.441-15.972 1.7-3.63 12.578-20.168 12.578-20.168-.71.23-1.41.508-2.09.808 0 .012-17.87 18.88-22.218 30.012zm0 0"/></g></defs><use mask="url(#u)" xlink:href="#t"/><use mask="url(#w)" xlink:href="#v"/><use mask="url(#y)" xlink:href="#x"/><use mask="url(#A)" xlink:href="#z"/><use mask="url(#C)" xlink:href="#B"/><use mask="url(#E)" xlink:href="#D"/><use mask="url(#G)" xlink:href="#F"/><use mask="url(#I)" xlink:href="#H"/><use mask="url(#K)" xlink:href="#J"/><use mask="url(#M)" xlink:href="#L"/><use mask="url(#O)" xlink:href="#N"/><use mask="url(#Q)" xlink:href="#P"/><use mask="url(#S)" xlink:href="#R"/><use mask="url(#U)" xlink:href="#T"/><use mask="url(#W)" xlink:href="#V"/><use mask="url(#Y)" xlink:href="#X"/></svg>